<?xml version="1.0" encoding="UTF-8"?>
<svg id="Layer_2" data-name="Layer 2" xmlns="http://www.w3.org/2000/svg" viewBox="0 0 116.83 89.48">
  <g id="Bows">
    <g id="Layer_19_Image" data-name="Layer 19 Image">
      <g>
        <polygon points="62.46 23.95 62.58 24.07 62.46 24.19 62.46 23.95"/>
        <g>
          <path d="M66.22,59.08c.19.08,1.1-.48,1.15-.42.64.88-1.47.94-1.91.48.61-.94.71-.08.76-.06Z"/>
          <path d="M68.57,58.66c-.2.52-.4.57-.72.12l.72-.12Z"/>
          <path d="M69.28,58.66c.16.08-.14.41-.48.23-.16-.08.14-.41.48-.23Z"/>
          <path d="M76.23,31.37c-.12.23-.46-.47-.36-.71.21.16.5.44.36.71Z"/>
          <g>
            <path d="M60.27,4.48c3.77,3.75,5.77,9.98,6.16,15.28.05.69-.34,3.29-.01,3.72.05.07,1.17-.42,1.59-.46,3.54-.33,7.79.81,10.6,2.99.69.53,2.13,2.28,2.54,2.49.47.25.24-.2.24-.35-.04-1.51-.46-2.75-.33-4.53.16-2.26,2.02-6.03,3.68-7.82.74-.8,1.75-1.34,2.52-2.27,1.59-1.91,2.59-4.26,4.74-5.85,4.99-3.72,11.26-2.99,15.31,1.74,8.61,10.04,9.07,20.17,9.43,32.83.28,9.86.2,19.51-1.87,28.98-2.76,12.64-4.47,20.92-19.82,17.46-6.91-1.56-15.59-7.87-20.24-13.63-.8-1-5.12-6.73-5.21-7.24s.09-2.02-.2-2.24c-.73-.55-3.64,1.61-4.49,2-1.14.52-3.33,1.14-4.61,1.35-.77.13-1.6-.3-1.05.5-.64-.29-1.14-.05-1.74-.06-.54-.01-2.58-.11-3.17-.28-.69-.2-1.59-.64-2.16-1.09-.38,1.05-.32.1-.39.05s-.32.18-.39.13c-1.08-.69-3.38-2.5-4.28-3.62-.36-.44-1.71-3.02-1.89-3.03-2.55,1.23-5.06,2.68-7.64,3.86-7.84,3.57-16.21,6.62-24.34,8.27-3.27.66-10.12,2.67-12.36-.59-1.66-2.42-.55-9.47.3-12.22.98-3.18,3.3-6.86,4.07-9.82.69-2.63.75-6.12,1.34-8.96,2.99-14.44,11.93-29.73,25.08-37.22,8.13-4.63,21.04-7.88,28.62-.36ZM55.34,2.25c-4.47-1.84-10.78-1.14-14.98.13-12.22,3.72-21.09,12.39-26.76,23.72l-1.8,3.59c.49.11.54-.25.77-.54.67-.86,1.21-2.34,1.88-3.34,4.78-7.22,13.03-15.09,21.49-17.59,1.25-.37,2.9-.4,3.89-.7,1.06-.32,2.35-1.61,3.34-2.13,3.11-1.64,7.15-2.95,10.53-1.4.63.29,1.03.9,1.74,1.14,1.5.5,3.45.49,4.99,1.35.1-.69-.59-.51-.94-1.11-.16-.28-.05-.8-.13-.79-.11,0-.31.29-.54.19-.09-.04-1.2-1.24-1.31-1.31-.3-.18-2.04-1.15-2.16-1.2ZM43.18,6.95l2.7-.06c.64-.66,6.39-1.64,6.4-1.98.03-.89-4.68-.12-5.23.03-1.27.35-2.16.99-3.34,1.46-.37.14-.65-.14-.52.54ZM52.88,4.8v.24l.12-.12-.12-.12ZM54.96,6.9c-.1-.07-.1-.44-.45-.62-.56-.29-3.29-.07-3.92.09-.3.08-1.28.49-1.42.82,2.22.16,4.4.57,6.53,1.21.24.07.1.61.53.46.93-.32-.49-1.22-.61-1.36-.17-.2-.18-.73-.24-.78-.03-.02-.33.24-.42.18ZM60.08,7.77c-1.14-.73-2.32-1.36-3.73-1.42,1.03,1.03,1.62,2.63,2.54,3.69.65.74,2.84,2.6,3.68,3.25.16.12.49.57.72.36.33-.31-.98-3.78-1.34-4.29s-1.33-1.25-1.87-1.6ZM104.62,9.46c-1.38-1.52-2.27-2.3-4.34-2.73-2.34-.48-3.65.15-5.59,1.31-.67.82.02.59.59.11.46,1.31-1.31.66-1.8.96-.02.01.19.36.12.49-.06.11-1.91.88-2.03,1.42,3.37-1.21,6.95-1.96,10.54-1.2-1.15-.96-1.22-1.91.39-.86.15.1.22.42.49.57.18.1,1.59.73,1.68.73,1.11.1.2-.54-.04-.8ZM42.82,6.95v.24l.12-.12-.12-.12ZM42.94,8.39c.17-.34-.15-.64-.23-.48-.17.34.15.64.23.48ZM49.41,8.39s.25-.33.13-.47c-1.72.77-3.07-.31-4.81.46-7.99,3.52-19.27,14.78-24.71,21.63-4.41,5.56-10.87,16.13-13.12,22.68-1.33,3.87,1.6,9.03,5.38,10.41,5.79,2.1,21.34-1.57,26.9-4.23.7-.33,3.9-2.26,4.21-2.74s-.24-2.92-.24-3.8c0-5.34,2.29-10.55,5.29-14.84,3.98-5.7,9.5-11.44,16.29-13.53-.46-.34-.9-2.55-1.08-2.63-.89-.36-.14,3.09-1.55,2.39-.07-.03,0-1.42.01-1.52.13-.87,1.02-2.47.8-3.27-.15-.55-2.05-3.38-2.5-4.17-.2-.34-.15-.75-.31-1-.2-.33-2.13-2.99-2.3-3.06-.25-.11-.66.19-.72.11s.15-.56-.16-.73-2.69-1-3.15-1.12c-.76-.2-4.18-.43-4.36-.55ZM42.46,8.39c-.4-.07-1.32-.33-1.67-.12-.32.19-.37.63-.56.76-1.68,1.09-3.22,2.18-4.71,3.55-.23.21-2.26,2.16-2.15,2.27l9.1-6.46ZM34.18,12.32c.52-.47,1.12-.88,1.69-1.3,0-.59,2.66-1.99,2.28-2.39-.14-.14-3.29,1.03-3.71,1.19C21.67,14.65,11.17,29.98,7.92,42.92c-.36,1.43-.64,3.02-.79,4.48,2.41-3.7,4.52-7.52,6.92-11.15,5.76-8.73,12.41-16.89,20.13-23.93ZM91.44,9.35v.24l.12-.12-.12-.12ZM102.46,9.59v.24l.12-.12-.12-.12ZM106.26,14.77c-.38-.67-.63-1.5-1.16-2.08-1.53-1.67-5.19-2.02-7.31-1.66l2.17.34c2.7.71,5.2,2.37,6.7,4.68.82-.37-.34-1.19-.39-1.28ZM89.76,11.5v.24l.12-.12-.12-.12ZM95.27,11.5v.24l.12-.12-.12-.12ZM94.43,11.98c-.34-.17-.64.15-.48.23.34.17.64-.15.48-.23ZM90.96,12.46v.24l.12-.12-.12-.12ZM86.29,42.38c-.26.32-.45,6.39-.9,7.36-.86,3.43-3.51,7.96-6.16,10.35-.85.76-3.34,1.97-3.72,3.01-.44,1.2.7,3.34.3,4.71,1.53,4.76,3.41,7.45,8.16,9.33.56.22,1.49.55,2.08.55-.84-.28-1.29-1.13-1.73-1.48-.05-.04-.34.09-.67-.17s-.68-1-.77-1.06c-1.67-.92-2.4-1.98-3.78-3.51-.23-.26-.65-.36-.95-.73-.75-.95-1.45-2.25-1.87-3.4.06-.86.23.22.32.17.32-.22.21-.75.6-.72.26,1.15,1.23,2.45,2.04,3.35,6.02,6.74,21.7,16.72,28.58,6.3,6.11-9.26,5.99-19.59,5.24-30.11-.63-8.9-2.12-26.07-9.33-31.87-.98-.79-2.38-1.25-3.61-1.56-.19-.05-.14-.41-.31-.44-8.05-1.41-15.7,9.75-14.29,16.94.14.7.91,2.34.81,2.76-.03.13-.71.43-.74.4-.13-.13.32-.93-.48-.72.11.59-.16,1.2-.15,1.75.03,1.25,1,6.22,1.36,7.45.22.75,1.29,1.22.34,2.05-.24,0-.07-.35-.12-.48.54.1.03-.2,0-.24-.02-.02.04-.22-.12-.23s-.1.21-.12.23ZM92.16,12.7c-.24.17.13.33.24.47.24-.16-.11-.32-.24-.47ZM90,13.18v.24l.12-.12-.12-.12ZM92.04,13.65s.09-.51-.12-.48c-.65.37-.16.75.12.48ZM62.26,14.47c-.05-.05-1.28-1.48-1.11-.7.5.21,1.66,3.54,2.15,3,.05-.06-.17-1.39-.23-1.52-.13-.27-.51-.08-.66-.22-.12-.11-.04-.44-.15-.56ZM91.32,14.13s.09-.51-.12-.48c-.65.37-.16.75.12.48ZM64.73,16.05c-.04-.55-.12-1.43-.71-1.67.1.45.26,1.47.71,1.67ZM89.49,15.42c.24-.3,1.29-.49.51-1.04-1,1.01-2.3,2.1-2.51,3.59.87-.65,1.33-1.71,2-2.55ZM107.25,14.62c-.08.29.29.75.48.95.08-.29-.29-.75-.48-.95ZM33.12,15.09c-.34-.17-.64.15-.48.23.34.17.64-.15.48-.23ZM31.68,16.53c.39-.17.79-.53.71-.96-.39.17-.79.53-.71.96ZM107.85,15.81c-.14.32.05.77.36.95.09-.27-.22-1.25-.36-.95ZM65.45,22.03c.1-.12-.26-2.81-.34-3.13-.12-.5-.65-1.36-1.09-1.66-.13,1.38.29,2.86.73,4.17.08.23.4.96.7.61ZM82.7,28.74c.09-3.81.98-7.16,2.44-10.62.38-.89-.55-.5-.92-.07-1.4,1.64-2.37,5.74-2.24,7.92l.72,2.77ZM87.49,18.21c-.5-.07-.55-.02-.48.48l.48-.48ZM111.2,21.79l-.12-.72c-.45.32-.41.51.12.72ZM112.64,27.06c-.59-1.58-.51-3.72-1.56-5.02.42,1.32.52,2.75.97,4.06.09.26.27.96.59.96ZM65.69,22.99s-.36-.98-.48-.71c-.19.42.09,1.04.48.71ZM67.37,25.15c-.37-.17-.98.12-.72.23.37.17.98-.12.72-.23ZM66.05,25.39v.24l.12-.12-.12-.12ZM62.82,26.34s.09-.51-.12-.48c-.65.37-.16.75.12.48ZM74.32,28.74c-.69-.85-.86-.48-.91-.52-.16-.13-.32-.81-.59-1.09-.45-.45-2.31-1.25-2.93-1.27-.16,0-2.79.36-2.93.41-.3.11-.25.52-.44.55-4.77.63-5.26,1.61-7.99,4.71-.22.25-.64.15-.67.21-.04.07.15.61-.12.8-.57.39-1.2,1.18-1.72,1.97-5.93,9.13-6.31,23.05,7.26,24.26.93.08,2.81-.54,1.59.86l-.59-.47c.1.82-.29.19-.78.28-.44.08-.69,1-.78-.28-.31.6-1.84.4-2.35.23-.25-.08-.15-.46-.17-.47-.15-.11-.56.58-.71.48-.03-.02-.08-.58-.37-.72-.23-.11,0,.57-.24.48-.17-.07-.36-.49-.61-.6-.89-.39-2.17-.81-3.16-1.55-.32-.24-1.22-1.57-1.5-1.43-1.03.51-.01,2.08.39,2.72,5.41,8.56,17.51,1.94,22.16-3.76,5.91-7.24,4.84-22.03-2.06-27.61-.49-.4-.71-1.04-1.7-.69.63.48,1.29.94,1.81,1.55.24.28.27.64.34.72l-.24.24ZM61.62,27.06c.17-.34-.15-.64-.23-.48-.17.34.15.64.23.48ZM61.14,27.06c-.43-.03-1.02.27-1.2.71.43.03,1.02-.27,1.2-.71ZM76.11,27.06v.24l.12-.12-.12-.12ZM78.27,27.54v.24l.12-.12-.12-.12ZM76.83,27.78v.24l.12-.12-.12-.12ZM59.35,28.02v.24l.12-.12-.12-.12ZM81.61,32c-.75-1.52-1.34-3.04-2.98-3.87,1.13,1.75,2.06,3.74,2.64,5.76,1.79,6.27.24,12.55-2.15,18.25-.09.23-.81,1.66-.74,1.72.28.24.91-.53,1.06-.73,4.36-5.81,5.37-14.62,2.16-21.14ZM77.91,29.21c.17-.36-.35-.7-.6-.95-.07.24.5,1.16.6.95ZM113,28.98v.24l.12-.12-.12-.12ZM83.65,29.69c.17-.34-.15-.64-.23-.48-.17.34.15.64.23.48ZM78.39,29.93c-.14.32.05.77.36.95.09-.27-.22-1.25-.36-.95ZM83.78,29.93v.24l.12-.12-.12-.12ZM11.68,30.17v.24l.12-.12-.12-.12ZM57.78,30.89c.04-.07.09-.5-.11-.47-1.99,1.27-2.66,2.08-3.87,4.05-3.15,5.09-4.06,11.6-2.6,17.5.3,1.23.96,2.32,1.08,3.58.15-.12,1.2-.29,1.19-.36-.06-.42-.92-1.3-1.13-1.74-3.34-7.12-.22-15.31,4.11-21.14.21-.28.27-.61.48-.85.25-.29.83-.53.86-.57ZM83.78,30.41v.24l.12-.12-.12-.12ZM83.89,31.37c.17-.34-.15-.64-.23-.48-.17.34.15.64.23.48ZM11.2,31.13v.24l.12-.12-.12-.12ZM85.57,31.61c.17-.34-.15-.64-.23-.48-.17.34.15.64.23.48ZM79.58,32.8c.14-.3-.34-1.5-.47-1.19-.06.14.32,1.53.47,1.19ZM80.3,34.24s-.35-1.24-.48-.95c-.16.35-.01,1.36.48.95ZM80.42,35.2v.24l.12-.12-.12-.12ZM113.24,35.2v.24l.12-.12-.12-.12ZM80.78,36.16c.17-.34-.15-.64-.23-.48-.17.34.15.64.23.48ZM113.24,35.68v.24l.12-.12-.12-.12ZM113.59,36.63c.17-.34-.15-.64-.23-.48-.17.34.15.64.23.48ZM113.48,36.87v.24l.12-.12-.12-.12ZM80.66,37.11v.24l.12-.12-.12-.12ZM50.12,37.6c-.34-.17-.64.15-.48.23.34.17.64-.15.48-.23ZM80.9,37.59v.24l.12-.12-.12-.12ZM50.96,37.83v.24l.12-.12-.12-.12ZM50.72,38.31v.24l.12-.12-.12-.12ZM49.53,38.55v.24l.12-.12-.12-.12ZM50.48,38.79v.24l.12-.12-.12-.12ZM85.33,43.33c.05-.07-.39-.48-.45-.83s.18-1.57.1-2.26c-.04-.31.03-1.21-.36-1.21-.05,1.86-.18,3.97-.51,5.84-.85,4.77-3.98,9.69-7.23,12.77-1.37,1.3-2.65,3.27-4.13,4.6-.47.42-1.11-.02-.59.72l-.72.48c.77-.2,2.55-.87,3.09-1.34.47-.4.59-1.36,1.23-1.66,1.11-.52,1.47.07,3.01-1.4,3.78-3.58,5.47-7.84,6.07-12.96.08-.71-.08-2.05.05-2.64.04-.19.4-.07.43-.12ZM48.92,40.22c.04-.07.13-.75.12-.95-.64.29-.29,1.25-.12.95ZM50.36,39.99c.17-.34-.15-.64-.23-.48-.17.34.15.64.23.48ZM49.89,52.44c.42-1.26-.33-2.57-.42-3.77-.2-2.82.34-5.63.54-8.44-2.23,5.34-2.46,11.87.12,17.12.81-.24,1.55-.75,1.47-1.68-.04-.49-.51-.37-.7-.76-.04-.07-.5-1.35-.52-1.43-.17-.72.36-1.61-.48-1.03ZM46.77,55.07c1.6-.79.53-3.55.48-5.13-.11-3.37.4-6.29,1.43-9.47-.37.09-.54.55-.69.86-.81,1.75-2.03,7.59-1.85,9.51.12,1.34.89,2.78.63,4.22ZM46.41,43.1c-.54.36-.3.69,0,.23.08-.12.19-.13,0-.23ZM46.29,43.82c-.41-.45-.71.78-.71,1.2.41-.05.95-.94.71-1.2ZM45.81,45.49c-.67-.12-.4.15-.54.52-1.3,3.47-1.06,6.97-.42,10.49,1.95-.66.61-2.8.48-4.43-.19-2.33-.03-4.32.48-6.58ZM114.19,45.73v.24l.12-.12-.12-.12ZM114.43,48.12v.24l.12-.12-.12-.12ZM78.27,54.35v.24l.12-.12-.12-.12ZM48.55,56.92c-.12-.36-.24-2-.93-1.85-.99.21.51,2.79.96,3.11,1.07-.24,0-1.19-.02-1.26ZM75.99,56.74s.03-.63,0-.72c-.21-.48-.73,1.55,0,.72ZM4.02,56.26v.24l.12-.12-.12-.12ZM8.08,63.58c-.63-.87-1.5-2.32-1.83-3.32-.41-1.21-.27-2.87-1.15-3.76.01.32,0,.64-.14.94-.95,2.15-2.06,4.86-2.67,7.15-1.02,3.82-1.82,7.11,3.04,8.32,4.46,1.11,11.25-2.12,15.38-4.03.73-.34,1.5-.7,2.11-1.24-2.71-.04-5.53.37-8.22-.23-2.38-.53-5.12-1.9-6.52-3.82ZM46.64,57.12c-.1-.14-.45-.7-.58-.61.05.62-.82.75-.94,1.12-.03.1.39,1.92.46,1.99.29.29,2.2-.49,1.86-1.15-.02-.04-.37,0-.43-.21-.18-.65.15-.44-.38-1.13ZM42.22,58.18c.16.14,1.81-.93,1.67-1.43-.37-.09-.14.32-.41.47-.08.04-1.74.54-1.26.96ZM74.56,57.7c.37.19,1.33-.66.6-.95.08.53-.73.88-.6.95ZM52.63,58.07c-.14-.23-.28-.82-.47-.84-.08-.01-1.16.89-1.2.95-.64,1.05,4.09,4.37,5.39,4.07l-2.3-2.39c-.71-.05-1-1.09-1.42-1.79ZM74.2,57.94v.24l.12-.12-.12-.12ZM73.72,58.18v.24l.12-.12-.12-.12ZM44.47,59.53c-.17-.44-.22-.63-.21-1.1-2.24,1.1-4.18,3.03-6.62,3.85-3.87,2.69-8.31,3.38-12.25,5.53-.35.59-6.04,2.63-5.92,2.94.2.51.53.2.83.12,5.59-1.47,11.26-4.54,16.7-6.54l7.43-3.75c.91-.86.07-.96.04-1.05ZM41.5,58.66c-.5-.07-.55-.02-.48.48l.48-.48ZM50.95,60.47c-.5-.51-1.1-1.91-1.78-.98.37.31,3.59,3.23,3.83,2.99.25-.26-1.72-1.68-2.05-2.01ZM2.58,59.61v.24l.12-.12-.12-.12ZM40.3,59.62c-.34-.17-.64.15-.48.23.34.17.64-.15.48-.23ZM49.97,61.92c-.54-.45-1.29-1.64-2-2.07.25.55-1.44.75-1.68.96-.32.27,3.06,4.37,3.55,4.78,2.2,1.86,5.68,2.84,8.55,2.63.71-.05,6.09-1.41,6.35-1.67.45-.45-1.23-.61-1.32-.61-.32,0-1.25.4-1.44.33-.13-.04-.1-.44-.25-.45-.39-.03-1.29.45-1.68.46-.12,0-1.74-.63-1.95-.68-3.15-.75-5.59-1.58-8.12-3.69ZM2.7,60.57c.17-.34-.15-.64-.23-.48-.17.34.15.64.23.48ZM72.31,61.2c.21-.22.67-.8.69-1.11-.54.4-2.8,1.4-2.88,1.88-.26,1.65,1.69-.25,2.19-.78ZM38.27,60.57v.24l.12-.12-.12-.12ZM35.39,61.05v.24l.12-.12-.12-.12ZM34.92,61.29v.24l.12-.12-.12-.12ZM34.56,61.53c-.89-.37-1.16.36-1.39.44-3.83,1.3-8.55,2.42-12.57,2.84-.37.04-1.49-.23-1.69-.16-.18.05-.13.48-.28.48-1.24,0-4.04-.48-5.08-.71-1.4-.3-3.09-.15-4.01-1.46-.18.81,1.54,1.86,2.3,2.25,5.42,2.72,14.51,1.09,19.63-1.64l3.1-2.05ZM53.24,62.25c-.01.76,1.47,1.34,2.11,1.6,3.18,1.31,9.23,1.86,12.49.66,1.43-.53,2.55-2.7,1.19-2.41-.34.07-.64.36-.95.46-1.96.61-6.45,1.85-8.73,1.47-.49-.08-.47-.79-.72.12-.16-.12-.38-.34-.57-.36-.57-.06-1.32-.1-1.89-.27-.94-.29-2.24-.73-2.93-1.28ZM57.31,62.25c-.37-.17-.98.12-.72.23.37.17.98-.12.72-.23ZM58.39,62.49v.24l.12-.12-.12-.12ZM9.05,62.73v.24l.12-.12-.12-.12ZM74.21,65.26c.14-.32.54-1.82-.02-1.81-.23,0-3.73,1.55-3.72,1.81,0,.62,1.7,4.33,2.53,4.64-.65-.73-.19-3.61.39-4.03.06-.04.43.23.45.21.03-.04.33-.71.38-.82ZM74.78,65.86s-.55-.13-.71-.26c.15,1.04-.49,2.03-.37,3.12.03.31.68,2.45.84,2.69l2.16,1.61c-.5-1.66-1.86-3.79-2.06-5.5-.06-.52.19-1.6.13-1.66ZM65.45,65.84c-.34-.17-.64.15-.48.23.34.17.64-.15.48-.23ZM23.78,67.28c-.34-.17-.64.15-.48.23.34.17.64-.15.48-.23ZM112.76,67.27v.24l.12-.12-.12-.12ZM112.63,68.95c.17-.34-.15-.64-.23-.48-.17.34.15.64.23.48ZM112.16,70.15c.17-.34-.15-.64-.23-.48-.17.34.15.64.23.48ZM113.24,70.39v.24l.12-.12-.12-.12ZM19.23,70.87c-.39.06-1.3.31-1.44.71.48-.1,1.25-.18,1.44-.71ZM112.76,71.34v.24l.12-.12-.12-.12ZM109.85,79.09c.34-.35.74-.4,1.08-.96.91-1.49,1.67-4.31,1.71-6.07-.66.68-.97,1.9-1.47,2.71-1.02,1.66-2.84,4.05-4.45,5.14-.46.31-1.68.71-1.75.77-.03.03.26.45.24.47-.17.21-1.1-.24-1.19.6,2.48-.16,4.1-.91,5.83-2.67ZM77.22,75.14c-.11-.11,0-.49-.03-.68-.23.05-.48.2-.36.48.47,1.13,4.69,4.89,5.82,5.75,4.62,3.54,15.44,9.28,21.18,6.92l2.1-1.65c-1.17-.04-3.34.35-4.42.01-.27-.08-.1-.53-.14-.74-.11.35-2.03.28-2.13.22-.04-.02-.34-.86-.26-.94.27-.27,5.74,1.48,7.49.9.59-.2,2.91-3.45,2.45-4.25-.37.18-.59.94-.83,1.07-.3.16-3.09.72-3.75.81-1.07.15-2.97.37-4.03.39-.44.01-3.37-.5-3.48-.36-.6.79,1.69.78,1.91,1.32.49,1.24-.89.06-.95.11-.09.08.2.57-.24.48-.02-1.01-1.33-.8-1.79-1.03-2.5-1.23-3.91-1.08-6.35-1.72-2.97-.79-6.98-2.71-9.27-4.75-.53-.47-1.28-1.75-2.01-2.19-.3-.18-.81-.05-.92-.16ZM85.78,79.04c-.04-.06-1.16-.52-1.4-.51l1.32,1.19c.22-.02.15-.58.08-.68ZM86.77,79.96s-.36-.98-.48-.71c-.19.42.09,1.04.48.71ZM87.25,80.44c.08.07,1.78.21,2.15.36.05-.54-3.01-1.07-2.15-.36ZM110.72,80.68c-.34,1.52-1.38,2.7-2.04,4.06,1.03-.62,1.87-2.18,2.17-3.33.06-.23.31-.79-.13-.73ZM90.24,80.92v.24l.12-.12-.12-.12ZM92.64,81.4v.24l.12-.12-.12-.12ZM103.66,81.64v.24l.12-.12-.12-.12ZM96.23,83.07v.24l.12-.12-.12-.12ZM108.33,85.71c-.66-.16-.34.23-.71.6l.71-.6ZM107.25,86.43c-.54.36-.3.69,0,.23.08-.12.19-.13,0-.23ZM106.53,86.9v.24l.12-.12-.12-.12Z"/>
            <path d="M86.53,42.62s-.35-.08-.24-.24c0,0,.19,0,.24,0,.01,0-.01.24,0,.24Z"/>
            <path d="M74.55,28.5c.56.67.54.97.78,1.32.02.03.51-.23.65.47-.95.25-1.07-.82-1.67-1.56l.24-.24Z"/>
            <path d="M77.67,62.96c-.33.28-.73-.43-.71-.6.1-.91.77.55.71.6Z"/>
            <path d="M99.88,7.98l1.01.89c-.47-.02-1.04-.62-1.32-.72-.19-.07-.03.49-.24.49-.36,0-.49-.37-.72-.4-.18-.02-.44.27-.7.28-.54.03-1.39-.37-.62-.53s1.76.15,2.59,0Z"/>
            <path d="M96.35,8.15c.71.62-1.43.62-.72,0,.03-.02.69-.02.72,0Z"/>
            <polygon points="96.71 8.15 96.83 8.27 96.71 8.39 96.71 8.15"/>
          </g>
        </g>
      </g>
    </g>
  </g>
</svg>