<?xml version="1.0" encoding="UTF-8"?>
<svg id="Layer_2" data-name="Layer 2" xmlns="http://www.w3.org/2000/svg" viewBox="0 0 100 76.58">
  <defs>
    <style>
      .cls-1 {
        fill: #fff;
      }
    </style>
  </defs>
  <g id="Sketchy_Icons" data-name="Sketchy Icons">
    <g>
      <polygon class="cls-1" points="53.46 20.5 53.56 20.6 53.46 20.7 53.46 20.5"/>
      <g>
        <path class="cls-1" d="M56.68,50.56c.16.07.94-.41.98-.36.55.76-1.26.8-1.64.41.52-.81.61-.07.65-.05Z"/>
        <path class="cls-1" d="M58.69,50.21c-.17.45-.34.49-.61.1l.61-.1Z"/>
        <path class="cls-1" d="M59.3,50.21c.14.07-.12.35-.41.2-.14-.07.12-.35.41-.2Z"/>
        <path class="cls-1" d="M65.25,26.85c-.1.2-.39-.4-.31-.61.18.14.43.37.31.61Z"/>
        <g>
          <path class="cls-1" d="M51.58,3.83c3.23,3.21,4.94,8.54,5.27,13.08.04.59-.29,2.82,0,3.18.04.06,1-.36,1.36-.39,3.03-.28,6.67.7,9.07,2.56.59.46,1.82,1.95,2.17,2.13.4.21.21-.17.2-.3-.03-1.29-.4-2.35-.29-3.88.14-1.94,1.73-5.16,3.15-6.69.63-.69,1.5-1.15,2.16-1.94,1.36-1.64,2.22-3.64,4.05-5.01,4.27-3.18,9.64-2.56,13.11,1.49,7.37,8.6,7.77,17.26,8.07,28.1.24,8.44.17,16.7-1.6,24.8-2.36,10.82-3.82,17.91-16.96,14.95-5.92-1.33-13.34-6.73-17.32-11.67-.69-.85-4.38-5.76-4.46-6.19s.08-1.73-.17-1.92c-.62-.47-3.11,1.38-3.85,1.71-.98.44-2.85.97-3.95,1.16-.66.11-1.37-.25-.9.43-.55-.25-.98-.04-1.49-.05-.46,0-2.21-.09-2.71-.24-.59-.17-1.36-.55-1.85-.93-.33.9-.27.08-.34.04s-.27.15-.34.11c-.93-.59-2.89-2.14-3.67-3.1-.31-.38-1.47-2.59-1.62-2.6-2.19,1.05-4.33,2.3-6.54,3.3-6.71,3.05-13.88,5.67-20.84,7.08-2.8.57-8.66,2.29-10.58-.51-1.42-2.07-.47-8.1.25-10.46.84-2.72,2.82-5.87,3.48-8.4.59-2.25.64-5.24,1.15-7.67,2.56-12.36,10.21-25.44,21.47-31.86,6.96-3.96,18.01-6.74,24.49-.3ZM47.36,1.93c-3.82-1.58-9.23-.98-12.82.11-10.46,3.18-18.05,10.61-22.9,20.3l-1.54,3.07c.42.09.47-.21.66-.46.58-.74,1.04-2,1.61-2.86,4.09-6.18,11.15-12.91,18.39-15.06,1.07-.32,2.49-.35,3.33-.6.91-.28,2.01-1.38,2.86-1.82,2.66-1.4,6.12-2.53,9.01-1.2.54.25.88.77,1.49.97,1.29.43,2.96.42,4.27,1.16.09-.59-.5-.44-.81-.95-.14-.24-.04-.68-.11-.68-.1,0-.27.25-.47.16-.07-.03-1.03-1.06-1.12-1.12-.26-.16-1.74-.98-1.85-1.02ZM36.96,5.95l2.31-.05c.55-.56,5.47-1.41,5.48-1.69.02-.76-4.01-.1-4.48.03-1.08.3-1.85.85-2.86,1.25-.31.12-.55-.12-.45.46ZM45.26,4.11v.2l.1-.1-.1-.1ZM47.04,5.91c-.08-.06-.08-.38-.39-.53-.48-.25-2.81-.06-3.36.08-.26.07-1.1.42-1.22.7,1.9.14,3.76.49,5.59,1.04.2.06.09.52.45.4.8-.28-.42-1.05-.52-1.17-.14-.17-.15-.63-.21-.67-.03-.02-.28.21-.36.16ZM51.43,6.65c-.98-.63-1.98-1.17-3.19-1.21.88.88,1.38,2.25,2.18,3.16.55.64,2.43,2.23,3.15,2.78.14.11.42.49.62.3.28-.26-.84-3.23-1.15-3.67s-1.14-1.07-1.6-1.37ZM89.55,8.1c-1.18-1.3-1.94-1.97-3.71-2.33-2-.41-3.13.13-4.79,1.12-.57.71.02.5.5.1.39,1.12-1.13.57-1.54.82-.02.01.16.31.1.42-.05.09-1.64.76-1.74,1.21,2.89-1.04,5.95-1.68,9.02-1.02-.98-.82-1.05-1.64.33-.74.13.09.19.36.42.49.16.09,1.36.62,1.44.63.95.09.17-.46-.03-.69ZM36.65,5.95v.2l.1-.1-.1-.1ZM36.75,7.18c.15-.29-.13-.55-.2-.41-.15.29.13.55.2.41ZM42.29,7.18s.22-.28.11-.4c-1.47.66-2.63-.26-4.12.39-6.84,3.01-16.5,12.65-21.15,18.51-3.78,4.76-9.3,13.81-11.23,19.41-1.14,3.31,1.37,7.73,4.61,8.91,4.95,1.8,18.26-1.34,23.03-3.62.6-.29,3.34-1.93,3.61-2.35s-.2-2.5-.2-3.25c0-4.57,1.96-9.03,4.53-12.7,3.41-4.88,8.13-9.79,13.94-11.58-.39-.29-.77-2.19-.93-2.25-.76-.31-.12,2.64-1.33,2.04-.06-.03,0-1.21,0-1.3.12-.75.87-2.12.69-2.8-.13-.47-1.75-2.9-2.14-3.57-.17-.29-.13-.64-.27-.86-.17-.28-1.82-2.56-1.97-2.62-.22-.1-.56.16-.62.1s.13-.48-.13-.63-2.3-.85-2.7-.95c-.65-.17-3.58-.37-3.73-.47ZM36.34,7.18c-.34-.06-1.13-.28-1.43-.1-.27.16-.32.54-.48.65-1.44.93-2.76,1.86-4.03,3.04-.19.18-1.94,1.85-1.84,1.95l7.79-5.53ZM29.25,10.55c.44-.4.96-.76,1.45-1.11,0-.5,2.28-1.71,1.95-2.05-.12-.12-2.82.88-3.18,1.02-10.93,4.13-19.91,17.25-22.7,28.33-.31,1.22-.55,2.59-.67,3.84,2.06-3.17,3.87-6.43,5.93-9.54,4.93-7.47,10.62-14.46,17.23-20.48ZM78.27,8v.2l.1-.1-.1-.1ZM87.7,8.21v.2l.1-.1-.1-.1ZM90.95,12.64c-.32-.57-.54-1.29-.99-1.78-1.31-1.43-4.44-1.73-6.26-1.42l1.85.3c2.31.61,4.45,2.03,5.73,4,.7-.32-.29-1.02-.33-1.1ZM76.83,9.84v.2l.1-.1-.1-.1ZM81.55,9.84v.2l.1-.1-.1-.1ZM80.83,10.26c-.29-.15-.55.13-.41.2.29.15.55-.13.41-.2ZM77.86,10.66v.2l.1-.1-.1-.1ZM73.86,36.27c-.22.27-.39,5.47-.77,6.3-.74,2.94-3,6.82-5.27,8.86-.73.65-2.86,1.68-3.19,2.58-.37,1.02.6,2.86.26,4.03,1.31,4.08,2.92,6.38,6.98,7.98.48.19,1.27.47,1.78.47-.72-.24-1.11-.96-1.48-1.27-.04-.04-.29.08-.57-.14s-.58-.86-.66-.9c-1.43-.79-2.06-1.69-3.24-3-.2-.22-.56-.31-.81-.63-.65-.82-1.24-1.93-1.6-2.91.05-.73.2.19.27.14.28-.19.18-.64.51-.61.22.99,1.05,2.1,1.74,2.87,5.15,5.77,18.58,14.31,24.46,5.39,5.23-7.92,5.12-16.77,4.49-25.77-.54-7.62-1.82-22.31-7.99-27.28-.84-.68-2.04-1.07-3.09-1.33-.16-.04-.12-.35-.26-.38-6.89-1.21-13.44,8.35-12.23,14.5.12.6.78,2,.69,2.36-.03.11-.61.37-.63.34-.11-.11.27-.79-.41-.62.09.51-.14,1.03-.13,1.5.02,1.07.85,5.33,1.16,6.37.19.64,1.11,1.04.29,1.75-.21,0-.06-.3-.1-.41.46.08.03-.17,0-.2-.01-.02.03-.18-.1-.2s-.09.18-.1.2ZM78.88,10.87c-.2.14.11.28.21.4.2-.13-.1-.27-.21-.4ZM77.04,11.28v.2l.1-.1-.1-.1ZM78.78,11.69s.08-.43-.1-.41c-.56.32-.14.64.1.41ZM53.29,12.39s-1.09-1.27-.95-.6c.43.18,1.42,3.03,1.84,2.56.04-.05-.15-1.19-.2-1.3-.11-.23-.44-.07-.56-.19-.1-.09-.04-.38-.13-.48ZM78.16,12.1s.08-.43-.1-.41c-.56.32-.14.64.1.41ZM55.41,13.74c-.04-.47-.11-1.23-.61-1.43.09.38.22,1.26.61,1.43ZM76.6,13.2c.2-.26,1.1-.42.44-.89-.85.87-1.97,1.8-2.15,3.07.75-.56,1.14-1.47,1.71-2.18ZM91.79,12.51c-.07.25.24.64.41.81.07-.25-.24-.64-.41-.81ZM28.35,12.92c-.29-.15-.55.13-.41.2.29.15.55-.13.41-.2ZM27.12,14.15c.33-.15.68-.45.61-.82-.33.15-.68.45-.61.82ZM92.31,13.53c-.12.27.04.66.31.81.08-.23-.19-1.07-.31-.81ZM56.02,18.86c.09-.1-.23-2.4-.29-2.68-.1-.43-.56-1.16-.94-1.42-.11,1.18.25,2.45.62,3.57.07.2.34.82.6.52ZM70.78,24.59c.08-3.26.84-6.12,2.09-9.09.32-.77-.47-.43-.78-.06-1.2,1.41-2.03,4.91-1.91,6.78l.61,2.37ZM74.88,15.58c-.43-.06-.47-.02-.41.41l.41-.41ZM95.18,18.65l-.1-.61c-.39.27-.35.44.1.61ZM96.41,23.16c-.5-1.35-.44-3.19-1.33-4.3.36,1.13.44,2.35.83,3.47.08.22.23.82.51.82ZM56.23,19.68s-.31-.84-.41-.61c-.16.36.08.89.41.61ZM57.66,21.52c-.32-.14-.83.1-.61.2.32.14.83-.1.61-.2ZM56.54,21.73v.2l.1-.1-.1-.1ZM53.77,22.55s.08-.43-.1-.41c-.56.32-.14.64.1.41ZM63.61,24.6c-.59-.73-.74-.41-.78-.45-.14-.11-.27-.7-.51-.93-.39-.38-1.98-1.07-2.51-1.09-.13,0-2.39.31-2.51.35-.26.09-.21.45-.38.47-4.08.54-4.5,1.38-6.83,4.03-.19.21-.55.13-.57.18-.04.06.13.52-.11.68-.49.33-1.03,1.01-1.47,1.69-5.08,7.82-5.4,19.73,6.21,20.76.79.07,2.4-.46,1.36.73l-.51-.41c.08.7-.25.16-.67.24-.38.07-.59.85-.66-.24-.26.51-1.57.34-2.01.2-.21-.07-.13-.39-.14-.4-.13-.1-.48.5-.61.41-.03-.02-.07-.5-.31-.61-.19-.09,0,.49-.2.41-.15-.06-.3-.42-.52-.52-.76-.33-1.85-.69-2.7-1.33-.27-.2-1.04-1.35-1.28-1.23-.88.43,0,1.78.34,2.33,4.63,7.33,14.99,1.66,18.97-3.22,5.06-6.2,4.15-18.85-1.76-23.63-.42-.34-.61-.89-1.45-.59.54.41,1.1.81,1.55,1.33.21.24.23.55.29.62l-.21.2ZM52.74,23.16c.15-.29-.13-.55-.2-.41-.15.29.13.55.2.41ZM52.33,23.16c-.37-.02-.87.23-1.02.61.37.02.87-.23,1.02-.61ZM65.15,23.16v.2l.1-.1-.1-.1ZM66.99,23.57v.2l.1-.1-.1-.1ZM65.76,23.78v.2l.1-.1-.1-.1ZM50.8,23.98v.2l.1-.1-.1-.1ZM69.85,27.39c-.64-1.3-1.15-2.6-2.55-3.31.97,1.5,1.77,3.2,2.26,4.93,1.53,5.37.21,10.74-1.84,15.62-.08.19-.69,1.42-.63,1.48.24.21.78-.45.91-.63,3.73-4.97,4.59-12.52,1.85-18.09ZM66.68,25c.15-.31-.3-.6-.51-.81-.06.21.43.99.51.81ZM96.72,24.8v.2l.1-.1-.1-.1ZM71.6,25.41c.15-.29-.13-.55-.2-.41-.15.29.13.55.2.41ZM67.09,25.62c-.12.27.04.66.31.81.08-.23-.19-1.07-.31-.81ZM71.71,25.62v.2l.1-.1-.1-.1ZM10,25.83v.2l.1-.1-.1-.1ZM49.46,26.44c.03-.06.07-.43-.1-.4-1.7,1.09-2.28,1.78-3.32,3.46-2.69,4.36-3.47,9.93-2.22,14.98.26,1.05.83,1.99.93,3.07.13-.1,1.03-.25,1.02-.3-.05-.36-.79-1.11-.97-1.49-2.86-6.1-.19-13.11,3.52-18.09.18-.24.23-.52.41-.73.21-.25.71-.45.73-.49ZM71.71,26.03v.2l.1-.1-.1-.1ZM71.81,26.85c.15-.29-.13-.55-.2-.41-.15.29.13.55.2.41ZM9.59,26.64v.2l.1-.1-.1-.1ZM73.24,27.05c.15-.29-.13-.55-.2-.41-.15.29.13.55.2.41ZM68.12,28.08c.12-.26-.29-1.29-.41-1.02-.05.12.27,1.31.41,1.02ZM68.73,29.31s-.3-1.06-.41-.82c-.14.3-.01,1.16.41.82ZM68.84,30.13v.2l.1-.1-.1-.1ZM96.92,30.13v.2l.1-.1-.1-.1ZM69.14,30.95c.15-.29-.13-.55-.2-.41-.15.29.13.55.2.41ZM96.92,30.54v.2l.1-.1-.1-.1ZM97.23,31.36c.15-.29-.13-.55-.2-.41-.15.29.13.55.2.41ZM97.13,31.56v.2l.1-.1-.1-.1ZM69.04,31.77v.2l.1-.1-.1-.1ZM42.9,32.18c-.29-.15-.55.13-.41.2.29.15.55-.13.41-.2ZM69.25,32.18v.2l.1-.1-.1-.1ZM43.62,32.38v.2l.1-.1-.1-.1ZM43.41,32.79v.2l.1-.1-.1-.1ZM42.39,33v.2l.1-.1-.1-.1ZM43.21,33.2v.2l.1-.1-.1-.1ZM73.03,37.09c.04-.06-.33-.41-.39-.71s.15-1.34.08-1.93c-.03-.26.03-1.04-.31-1.04-.04,1.59-.15,3.4-.44,5-.73,4.09-3.4,8.29-6.18,10.93-1.17,1.11-2.27,2.8-3.53,3.94-.4.36-.95-.01-.5.62l-.62.41c.66-.17,2.18-.74,2.65-1.14.4-.35.5-1.16,1.06-1.42.95-.44,1.25.06,2.58-1.2,3.24-3.07,4.68-6.71,5.2-11.09.07-.61-.07-1.76.04-2.26.04-.16.34-.06.37-.1ZM41.88,34.43c.03-.06.11-.64.11-.81-.55.25-.25,1.07-.11.81ZM43.11,34.22c.15-.29-.13-.55-.2-.41-.15.29.13.55.2.41ZM42.7,44.88c.36-1.08-.29-2.2-.36-3.23-.18-2.42.29-4.82.46-7.22-1.91,4.57-2.1,10.16.1,14.65.7-.21,1.32-.64,1.26-1.44-.03-.42-.43-.32-.6-.65-.03-.06-.43-1.16-.44-1.23-.14-.61.31-1.37-.41-.88ZM40.03,47.13c1.37-.67.45-3.04.41-4.39-.09-2.89.34-5.38,1.23-8.11-.32.08-.46.47-.59.74-.7,1.5-1.74,6.5-1.59,8.14.1,1.15.76,2.38.54,3.62ZM39.73,36.89c-.46.31-.25.59,0,.2.07-.1.17-.11,0-.2ZM39.62,37.5c-.35-.39-.61.67-.61,1.02.35-.04.81-.8.61-1.02ZM39.21,38.94c-.58-.1-.34.13-.46.45-1.11,2.97-.91,5.96-.36,8.98,1.67-.57.53-2.39.41-3.79-.16-1.99-.03-3.69.41-5.63ZM97.74,39.14v.2l.1-.1-.1-.1ZM97.95,41.19v.2l.1-.1-.1-.1ZM66.99,46.52v.2l.1-.1-.1-.1ZM41.55,48.72c-.1-.31-.21-1.71-.8-1.58-.85.18.44,2.39.82,2.66.92-.21,0-1.02-.02-1.08ZM65.04,48.57s.03-.54,0-.61c-.18-.41-.62,1.33,0,.61ZM3.44,48.16v.2l.1-.1-.1-.1ZM6.91,54.42c-.54-.74-1.28-1.99-1.57-2.84-.35-1.04-.23-2.46-.98-3.22.01.28,0,.55-.12.81-.82,1.84-1.77,4.16-2.29,6.12-.88,3.27-1.56,6.08,2.6,7.12,3.81.95,9.63-1.81,13.16-3.45.63-.29,1.28-.6,1.81-1.06-2.32-.04-4.73.32-7.04-.2-2.04-.45-4.38-1.63-5.58-3.27ZM39.92,48.89c-.09-.12-.39-.6-.5-.52.04.53-.7.64-.81.96-.03.08.33,1.64.4,1.71.24.25,1.88-.42,1.59-.99-.02-.03-.31,0-.36-.18-.16-.55.13-.38-.32-.97ZM36.14,49.79c.14.12,1.55-.79,1.43-1.23-.31-.07-.12.28-.35.4-.07.04-1.49.46-1.08.82ZM63.81,49.38c.32.16,1.13-.56.51-.82.06.45-.63.76-.51.82ZM45.05,49.7c-.12-.2-.24-.7-.4-.72-.07,0-1,.76-1.03.82-.54.9,3.5,3.74,4.61,3.48l-1.97-2.04c-.6-.04-.85-.93-1.22-1.53ZM63.51,49.59v.2l.1-.1-.1-.1ZM63.1,49.8v.2l.1-.1-.1-.1ZM38.07,50.95c-.15-.37-.19-.54-.18-.94-1.91.94-3.58,2.6-5.67,3.3-3.31,2.3-7.11,2.9-10.48,4.73-.3.5-5.17,2.25-5.07,2.51.17.44.45.17.71.11,4.79-1.26,9.64-3.88,14.3-5.59l6.36-3.21c.78-.74.06-.82.03-.9ZM35.52,50.21c-.43-.06-.47-.02-.41.41l.41-.41ZM43.61,51.76c-.43-.44-.94-1.63-1.52-.84.31.27,3.07,2.77,3.27,2.56.21-.22-1.47-1.44-1.75-1.72ZM2.21,51.02v.2l.1-.1-.1-.1ZM34.5,51.03c-.29-.15-.55.13-.41.2.29.15.55-.13.41-.2ZM42.77,53c-.46-.39-1.11-1.4-1.71-1.77.21.47-1.23.64-1.44.82-.27.23,2.62,3.74,3.04,4.09,1.88,1.59,4.86,2.43,7.31,2.25.61-.04,5.21-1.21,5.44-1.43.38-.38-1.05-.52-1.13-.52-.28,0-1.07.34-1.23.29-.11-.04-.08-.37-.22-.38-.33-.02-1.11.38-1.44.39-.1,0-1.49-.54-1.67-.58-2.7-.65-4.78-1.35-6.95-3.16ZM2.31,51.84c.15-.29-.13-.55-.2-.41-.15.29.13.55.2.41ZM61.89,52.39c.18-.18.57-.68.59-.95-.46.35-2.4,1.2-2.46,1.61-.23,1.41,1.44-.22,1.87-.66ZM32.75,51.84v.2l.1-.1-.1-.1ZM30.29,52.25v.2l.1-.1-.1-.1ZM29.88,52.46v.2l.1-.1-.1-.1ZM29.58,52.67c-.76-.31-.99.31-1.19.38-3.28,1.11-7.32,2.07-10.76,2.43-.32.03-1.27-.19-1.45-.14-.15.05-.11.41-.24.41-1.06,0-3.46-.41-4.35-.61-1.2-.26-2.64-.13-3.44-1.25-.15.7,1.32,1.59,1.97,1.92,4.64,2.33,12.42.93,16.8-1.4l2.65-1.75ZM45.57,53.28c-.01.65,1.26,1.15,1.8,1.37,2.72,1.12,7.9,1.59,10.69.57,1.22-.45,2.19-2.31,1.02-2.06-.3.06-.55.31-.81.4-1.68.53-5.52,1.58-7.47,1.26-.42-.07-.4-.68-.61.1-.14-.1-.32-.29-.49-.31-.49-.05-1.13-.08-1.62-.23-.81-.24-1.92-.62-2.51-1.1ZM49.05,53.28c-.32-.14-.83.1-.61.2.32.14.83-.1.61-.2ZM49.98,53.48v.2l.1-.1-.1-.1ZM7.74,53.69v.2l.1-.1-.1-.1ZM63.52,55.86c.12-.27.46-1.55-.01-1.55-.19,0-3.19,1.32-3.19,1.55,0,.53,1.45,3.7,2.16,3.97-.56-.63-.16-3.09.33-3.45.05-.03.37.2.38.18.03-.03.29-.61.33-.7ZM64.01,56.37s-.47-.11-.6-.22c.13.89-.42,1.74-.32,2.67.03.27.59,2.1.72,2.3l1.85,1.38c-.43-1.42-1.59-3.25-1.76-4.71-.05-.45.16-1.37.11-1.42ZM56.02,56.35c-.29-.15-.55.13-.41.2.29.15.55-.13.41-.2ZM20.35,57.58c-.29-.15-.55.13-.41.2.29.15.55-.13.41-.2ZM96.51,57.58v.2l.1-.1-.1-.1ZM96.41,59.01c.15-.29-.13-.55-.2-.41-.15.29.13.55.2.41ZM96,60.04c.15-.29-.13-.55-.2-.41-.15.29.13.55.2.41ZM96.92,60.24v.2l.1-.1-.1-.1ZM16.46,60.66c-.33.05-1.11.26-1.23.61.41-.09,1.07-.15,1.23-.61ZM96.51,61.06v.2l.1-.1-.1-.1ZM94.02,67.69c.29-.3.63-.34.92-.82.78-1.28,1.43-3.69,1.46-5.19-.57.58-.83,1.63-1.26,2.32-.87,1.42-2.43,3.46-3.81,4.4-.39.27-1.44.61-1.5.66-.02.02.22.38.21.4-.15.18-.94-.21-1.02.52,2.12-.14,3.51-.77,4.99-2.29ZM66.09,64.31c-.09-.09,0-.42-.02-.58-.2.04-.41.17-.31.41.4.97,4.02,4.18,4.98,4.92,3.96,3.03,13.22,7.94,18.13,5.92l1.8-1.42c-1-.03-2.86.3-3.78.01-.23-.07-.09-.45-.12-.63-.09.3-1.74.24-1.82.19-.04-.02-.3-.73-.22-.8.23-.23,4.91,1.27,6.41.77.51-.17,2.49-2.95,2.1-3.64-.32.15-.51.81-.71.92-.25.14-2.64.61-3.21.69-.92.13-2.54.31-3.45.34-.38,0-2.89-.43-2.98-.31-.52.67,1.45.67,1.63,1.13.42,1.06-.76.05-.81.1-.08.07.17.49-.2.41-.02-.86-1.14-.69-1.53-.88-2.14-1.05-3.34-.92-5.43-1.48-2.55-.67-5.97-2.32-7.93-4.07-.46-.41-1.09-1.5-1.72-1.87-.25-.15-.69-.04-.79-.14ZM73.42,67.65c-.03-.05-.99-.45-1.2-.44l1.13,1.02c.19-.02.13-.49.07-.59ZM74.27,68.44s-.31-.84-.41-.61c-.16.36.08.89.41.61ZM74.68,68.85c.07.06,1.53.18,1.84.31.04-.46-2.58-.92-1.84-.31ZM94.77,69.06c-.29,1.3-1.18,2.31-1.75,3.48.88-.53,1.6-1.87,1.86-2.85.05-.2.26-.68-.11-.63ZM77.24,69.26v.2l.1-.1-.1-.1ZM79.29,69.67v.2l.1-.1-.1-.1ZM88.72,69.87v.2l.1-.1-.1-.1ZM82.37,71.1v.2l.1-.1-.1-.1ZM92.72,73.36c-.57-.13-.29.2-.61.51l.61-.51ZM91.8,73.98c-.46.31-.25.59,0,.2.07-.1.17-.11,0-.2ZM91.18,74.38v.2l.1-.1-.1-.1Z"/>
          <path class="cls-1" d="M74.06,36.48s-.3-.07-.21-.2c0,0,.16,0,.21,0,.01,0-.01.2,0,.2Z"/>
          <path class="cls-1" d="M63.81,24.39c.48.58.46.83.67,1.13.02.03.43-.2.56.41-.82.22-.92-.7-1.43-1.33l.21-.2Z"/>
          <path class="cls-1" d="M66.48,53.89c-.28.24-.63-.37-.61-.51.09-.78.66.47.61.51Z"/>
          <path class="cls-1" d="M85.49,6.83l.87.76c-.4-.02-.89-.53-1.13-.62-.17-.06-.03.42-.2.42-.31,0-.42-.32-.62-.34-.15-.02-.38.23-.6.24-.46.02-1.19-.32-.53-.46s1.5.13,2.22,0Z"/>
          <path class="cls-1" d="M82.47,6.98c.61.53-1.22.53-.61,0,.02-.02.59-.02.61,0Z"/>
          <polygon class="cls-1" points="82.78 6.98 82.88 7.08 82.78 7.18 82.78 6.98"/>
        </g>
      </g>
    </g>
  </g>
</svg>