<?xml version="1.0" encoding="UTF-8"?>
<svg id="Layer_3" data-name="Layer 3" xmlns="http://www.w3.org/2000/svg" viewBox="0 0 100 63.07">
  <defs>
    <style>
      .cls-1 {
        fill: #fff;
      }
    </style>
  </defs>
  <g id="Sketchy_Icons" data-name="Sketchy Icons">
    <g>
      <path class="cls-1" d="M59.87,55.36c-.67-.22-.13-.16-.32-.4-.14-.17-1.4-.95-.18-1.01.05,0,.38.59.59.72.59.37,2.22,1.22,2.85,1.28,1.2.11-.07-.82-.24-1.07-1.88-2.92-2.37-4.86-3.09-8.07-.05-.21.09-.35-.21-.3-.04.31-.42.7-.66.87-2.43,1.68-5.12,2.3-7.71,3.56-.31-.9-.2-.05-.55.07-.28.1-3.55.17-3.88.1-.05-.01-.67-.21-.91-.28-.81-.25-1.34-1.1-2.51-.5-.12.06.05.29.03.31-.6.59-1.48.85-2.34,1.42-6.72,4.49-14.66,8.92-23.25,9.06-.5,0-2.05-.02-2.41-.11-.21-.05-.1-.36-.13-.4-.19-.27-.18.38-.2.4-.04.04-.51-.32-.75-.37-.33-.07-.97-.05-1.4-.19-.58-.18-1.26-.51-1.78-.85-.08.3.45.65.66.76,5.24,2.68,13.14,1.74,18.62-.23,2.68-.96,5.15-2.58,7.82-3.56-.05.5-.85.51-.97.66-.12.15,0,.5-.04.55-.05.06-.46-.28-.58-.2-.16.11-.27,1.24-1.14.6-.14.13.13.27-.01.4-.63.59-2.4,1.09-3.24,1.47-1.84.85-3.67,1.72-5.91,2.26-.8.19-3.67.68-4.35.67-.16,0-.04-.31-.09-.38-.15-.23-.2.33-.29.36-.76.3-1.66-.14-2.2-.11-4.34.24-8.49-1.03-11.47-4.28-.07-.08.06-.39-.04-.39s-.41.27-.5.19c-.05-.05,0-.42-.13-.58-2.09-2.52-3.4-5.3-4.38-8.51C-1.14,36.92-2.53,15,10.29,6.52c8.17-5.4,18.34-9.2,26.33-1.19,1.7,1.7,3.97,4.3,5.73,6.26,1.2,1.34,2.43,3.36,3.53,4.53.82.87.95.05,1.52-.27,4.48-2.48,8.79-2.66,13.25.2.43.27.9.93,1.23,1.16.69.48.37-.99.5-1.49.35-1.36,2.36-4.75,3.2-6.05C69.86,3.01,75.17,1.03,82.82.12c8.9-1.06,13.7,4.95,15.47,12.94,2.93,13.28,3.21,31.26-8.35,40.49-1.6,1.28-4.28,3.17-5.94,4.09-3.87,2.13-5.82,2.62-10.03,3.05-1.72.17-3.64-.11-5.63-.96-1.7-.72-3.34-2.26-5.17-2.94-.1-.04-.55.1-.95-.03-.6-.2-1.1-.73-1.17-.75-.16-.05-.48.24-.57.16-.03-.03.1-.41-.4-.81-.02-.01-.28-.46-.2,0ZM86.04,1.21c-.1.09-2.27-.45-2.71-.35.22.61-1.86-.19-1.29.58.02.02.29-.13.53-.04,2.05.74,3.18,2.08,4.46,2.65,3.19,1.42,4.85,1.04,7.49,4.2l2.22,3.26c-.83-3.26-2.43-6.3-5.11-8.57-.27-.23-.89-.83-.95-.87-.07-.04-.33.19-.46.19-.15,0-.12-.32-.16-.33-.91-.22-1.36-.48-1.91-.64-.39-.11-1.78-.02-1.85-.08-.09-.07.07-.36-.13-.36s-.04.3-.12.38ZM28.2,1.71c-1.77-.29-4.88-.03-6.71.33-.52.1-.44.53-.52.58-.09.05-.84-.45-.98.23,5.7-1.01,11.42.24,16.11,3.62.07-.35-.17-.51-.41-.7-.96-.76-2.18-1.9-3.39-2.67-.81-.52-3.44-1.28-4.11-1.39ZM78.81,2.04c-3.21.8-7.04,3.5-9.54,5.67-1.08.94-3.49,3.37-4.01,4.44-.31.63-.63,1.46-.75,2.16,2.72-2.62,5.34-5.45,8.69-7.32s8.17-2.74,12.06-3.15c-.29-.76-2.01-.5-1.7-1.2-1.75-.21-2.56-.91-4.54-.61-.02,0,.15-.09-.2,0ZM75.78,2.24c-.28-.14-.54.13-.4.2.28.14.54-.13.4-.2ZM19.58,3.04l-.4-.4c-.06.42-.02.46.4.4ZM74.17,3.24c.14-.28-.13-.54-.2-.4-.14.28.13.54.2.4ZM24.62,3.65c-.06-.04.33-.28,0-.3-4.05-.25-9.93,1.24-13.08,3.83-1.05.87-1.88,1.97-2.53,2.7C2.52,17.14,1.08,26.98,1.77,36.53c.17,2.4.46,5.08,1.19,7.35.03-1-.21-2.03-.21-3.02-.09-11.63,2.57-26.12,13.43-32.86,6.99-4.34,13.27-4.03,20.01.48.44.16,3.94,3.39,4.13,3.21.04-.04-.5-.93-.6-1.05-.72-.86-2.22-2.01-3.03-2.51-3.63-2.25-6.42-4.47-11.18-4.69-.27-.01-.77.29-.9.2ZM73.37,3.45c-.37-.07-.67.22-.6.6l.6-.6ZM71.42,4.94c.21-.15,1.43-.77,1.14-1.09-.06-.07-1.46.93-1.51,1-.11.18.09.35.21.4.16.07.05-.24.17-.32ZM82.63,5.26s.08-.43-.1-.4c-.55.31-.14.63.1.4ZM87.41,5.52c-.2-.16-1.37-.64-1.65-.68-.23.11-2.95-.05-2.92.31.01.19,2.86,1.03,3.46,1.36.96.53,1.78,1.34,2.68,1.95.31-.84-.76-1.46-1.03-1.86-.1-.14-.15-.8-.54-1.1ZM70.65,5.26c-.45.3-.25.58,0,.2.07-.1.16-.11,0-.2ZM90.02,5.96c-.33-.15-.96-.3-1.34-.4,1.22,1.61,1.97,3.75,3.03,5.38.26.4,1.12,1.11,1.39,1.52,3.54,5.22,3.6,11.75,4.26,17.82.03.32.07,1.11.58.94.03-3,.61-5.95.49-8.95-.15-3.76-1.08-7.54-2.96-10.81-.22-.38-2.74-3.95-2.96-4.08-.13-.08-.4.13-.56.06-.12-.05-1.33-1.2-1.93-1.47ZM26.63,6.06l-.57-.27c-2.16.11-4.37.42-6.42,1.24-8.92,3.58-14.35,14.34-15.35,23.5-.05.43-.04.85-.02,1.28.29.05.28-.36.34-.56,1.32-4.75,2-8.13,4.61-12.5,3.15-5.27,9.88-11.24,15.94-12.65.48-.11.98-.03,1.46-.05ZM69.94,5.86l-1.21,1.21c.59-.28,1.25-.41,1.21-1.21ZM83.64,6.26s-.3.16-.6.11c-1.65-.31-3.43-.75-5.03,0l3.92.16,1.82.34c.04-.11-.09-.58-.1-.6ZM77.8,6.47c-.28-.14-.54.13-.4.2.28.14.54-.13.4-.2ZM31.39,7.35c-8.53-2.94-18.58,6.27-22.26,13.16-3.87,7.25-5.87,20.23-4.14,28.24,2.03,9.38,11.85,10.53,19.81,8.7,5.55-1.28,9.45-3.92,14.4-6.55.3-.16.76-.89.94-.27.02.06-.2-.08-.45.14-.72.61-1.29,1.41-2.16,1.88,2.02-.36,3.5-1.96,5.23-2.92.11-.66-.65-.64-.93-.88-6.54-5.7-5.96-16.93-1.15-23.61.52-.72,2.08-1.7,1.88-2.74-.03-.14-.36-.12-.4-.27-.13-.53.07-1.36,0-1.97-.15-1.12-.85-3.04-1.35-4.08-.2-.42-.77-.85-.82-.9-.1-.12-.16-.62-.37-.91-1.09-1.46-2.6-3.06-3.82-4.24-.76-.75-2.01-1.11-2.51-1.54-.18-.16.02-.44-.02-.47-.08-.07-1.69-.69-1.86-.75ZM76.79,6.67c-.28-.14-.54.13-.4.2.28.14.54-.13.4-.2ZM84.35,6.67v.2l.1-.1-.1-.1ZM85.25,7.27l-.4-.4c-.06.42-.02.46.4.4ZM64.7,19.34c-.08.3,0,.76-.38.08-.84-1.5.73-3.76.58-3.9-.45-.43-1.07,1.1-1.21,1.3-.22.3-1.02.96-1.02,1.03,0,.63.85,1.16,1.07,1.55,3.85,6.7,2.49,17.05-1.3,23.35-.67,1.1-1.8,2.24-2.18,3.45.3.38.17-.27.21-.3.38-.29.25.71.27.76.83,1.74,3.35,2.77,5.09,3.25,5.69,1.57,15.82,2.7,21.16-.15,7.89-4.21,8.07-17.7,7.25-25.42-.49-4.64-1.81-11.93-5.71-14.62-.6-.41-1.55-.47-1.37-1.03-.53.48-.83-.15-1.18-.25-4.89-1.45-10.48-1.52-14.79,1.58-1.08.78-1.89,1.76-2.72,2.63-.94.99-1.7.95-1.64,2.56,0,.27.66,2.6-.33,1.59-.47-.48.04-1.76-.76-1.25-.53.34-.96,2.92-1.04,3.59-.33,0-.15.28,0,.2ZM67.22,8.48v.2l.1-.1-.1-.1ZM89.58,8.88v.2l.1-.1-.1-.1ZM66.82,9.08v.2l.1-.1-.1-.1ZM8.2,9.28v.2l.1-.1-.1-.1ZM6.89,10.29c-.03.06-.11.63-.11.8.54-.24.24-1.05.11-.8ZM38.01,11.09v.2l.1-.1-.1-.1ZM2.66,19.54c.06-1.41,1.06-2.49,1.27-3.87l2.56-4.38c-.63.4-1.11.99-1.5,1.62-.73,1.19-1.4,2.87-1.82,4.1-.22.63-.55,1.13-.66,1.87-.03.21-.22.7.15.65ZM96.83,11.7v.2l.1-.1-.1-.1ZM38.82,11.9v.2l.1-.1-.1-.1ZM39.52,12.5l-.4-.4c-.06.42-.02.46.4.4ZM40.83,12.1v.2l.1-.1-.1-.1ZM40.13,13.31c-.62-1.26-.71-.29-.36-.04.13.1.32,0,.36.04,1.28,2.6,3.11,4.97,2.92,8.05.35-.44.92-1.59.92-2.1,0-.18-.86.06-.02-.62-1.21.76-.3-.44-.43-.68-.02-.04-.41-.1-.55-.35-.83-1.48-1.41-3.42-2.84-4.31ZM42.74,13.71c.14-.28-.13-.54-.2-.4-.14.28.13.54.2.4ZM64.2,13.71v.2l.1-.1-.1-.1ZM43.35,14.11c-.1-.1-.55-.05-.4.3.48.16,2.1,3.76,2.62,3.32.71-.61-1.3-1.19-.81-2.01-.71.54-.38-.53-.43-.57-.12-.08-.45-.02-.67-.23-.24-.22-.24-.75-.3-.81ZM63.7,14.51c-.2.37-.56.59-.4,1.21.55-.04.55-.95.6-1.01.03-.04.34.05.39,0,.28-.35-.55-.63-.59-.6-.05.05.04.32,0,.4ZM54.38,14.56c-.72-.37-5.86,1.37-6.71,1.95-.2.14-.24.53-.32.59-.05.03-.35-.2-.37-.17-.32.47.34.65.47.82.88,1.12.9,1.69,2.38,1.55,2.9-.26,4.78-1.05,7.91-.15.78.22,1.89.95,2.52,1.11.78.2.43-.4.56-.71.19-.48.84-1.36.57-1.83-.08-.14-.41-.03-.51-.12-1.82-1.61-2.66-1.88-4.93-2.55-.11-.03-.1-.34-.22-.34-.93,0-.36.34-1.34-.15ZM65.21,14.72v.2l.1-.1-.1-.1ZM65.01,15.12v.2l.1-.1-.1-.1ZM46.37,18.54c.16-.21-.32-.71-.4-.6-.16.21.32.71.4.6ZM44.36,19.14c1.1-1.07-.86-1.49-.2,0,0,0,.18.01.2,0ZM46.81,18.67c-.1-.06.09-.42-.24-.33.23,1-.98.64-1.49.99-.13.09-1.65,2.72-1.53,2.83l3.83-2.07c.41,0,1.08-.24.75-.64-.05-.06-.33.03-.45-.09-.21-.2-.27-.5-.5-.69-.07-.06-.27.05-.36,0ZM62.37,19.27c-.12-.13-.36-.63-.48-.53-.09.07-.68,2.12-.61,2.21.04.05.92.18,1.19.33s1.28,1.05,1.43.88c.43-.48-1.12-2.45-1.53-2.89ZM53.62,19.75c-.53-.39-4.57.59-5.3.84-1.21.42-3.98,2.01-4.91,2.84-1.29,1.15-1.1,5.71-1.48,7.38.58.13.32-.2.46-.43.52-.82.8-1.78,1.29-2.53.35-.55,1.02-.71,1.36-1.07.7-.74,1.23-1.9,2-2.73,2-2.17,3.73-2.73,6.29-3.87.16-.07.68-.13.28-.42ZM54.43,19.94c-.17-.44-.33-.48-.6-.1l.6.1ZM55.44,19.54s-1.22.03-.8.4c.15.13,1.15.05.8-.4ZM55.74,19.75v.2l.1-.1-.1-.1ZM56.34,19.75v.2l.1-.1-.1-.1ZM57.15,19.95v.2l.1-.1-.1-.1ZM2.25,20.75c.14-.28-.13-.54-.2-.4-.14.28.13.54.2.4ZM59.06,20.35c-.28-.14-.54.13-.4.2.28.14.54-.13.4-.2ZM54.93,20.75v.2l.1-.1-.1-.1ZM55.34,20.75v.2l.1-.1-.1-.1ZM54.03,20.95c-.54.15-1.18-.07-1.41.6.42-.04,1.23-.14,1.41-.6ZM57.81,21.41c-.37-.21-6.19,1.39-6.84,1.76-.86.49-4.14,2.87-4.71,3.6-3.33,4.21-4.17,12.7-.04,16.87.04.04.83.66.88.66.22.01.45-.19.59-.19.11,0,.1.33.24.36,3.97,1,10.31.59,13.03-2.82,3.7-4.64,3.72-13.5.32-18.14-.24-.33-.87-.48-.81-1.16l-.4.4c.07-.25-.98-1.1-1.06-1.14-.24-.11-.84.16-1.04.13-.14-.03-.12-.31-.17-.34ZM87.75,51.22c2.29-1.89,5.24-5.26,6.37-8.03,1.81-4.43,2.26-13.73,1.59-18.5-.05-.37-.31-.65-.37-1.03-.12-.69-.11-1.58-.22-2.3-.37,0-.21.86-.2,1.1.06.72.33,1.5.4,2.22.65,7.34.46,18.6-5.22,23.95-3.98,3.75-8.58,4.01-13.61,3.82-3.58-.14-6.92-.44-10.37-1.51,2.81,2.09,7.24,4.17,10.77,4.43,3.59.27,8.16-1.92,10.87-4.15ZM52.01,21.56s-.71.21-.81.27c-.05.03-.7-.09-.2.33.16.14,1.42-.25,1-.6ZM60.78,21.76v.2l.1-.1-.1-.1ZM1.75,22.16v.2l.1-.1-.1-.1ZM50.8,22.56s.07-.42-.1-.4c-1.42.73-.2.72.1.4ZM1.85,23.17c.14-.31-.1-.82-.2-.6-.14.31.1.82.2.6ZM49.8,23.16l-.4-.4c-.06.42-.02.46.4.4ZM65.11,30.21c-.31-2.3.12-5.01-1.61-6.84.75,2.01.84,4.17,1.31,6.24.05.22,0,.65.3.6ZM1.55,23.77v.2l.1-.1-.1-.1ZM41.74,25.58c-.44-.09-.66.52-.88.82-4.09,5.7-4.17,16.26,1.16,21.24,1.16,1.09,1.94,1.53,2.96-.02.55-.83-.44-.94-.89-1.54-3.15-4.16-2.58-8.47-2.64-13.28,0-.49-.31-1.25-.3-1.9.03-1.79.35-3.56.6-5.33ZM99.05,30.21v.2l.1-.1-.1-.1ZM42.34,31.01c-.23-.23-.65.09-.1.4.18.03.11-.39.1-.4ZM64.8,31.21v.2l.1-.1-.1-.1ZM97.64,31.42v.2l.1-.1-.1-.1ZM94.25,47.65c.55-.88,1.59-3.26,2.03-4.31,1.54-3.67,2.5-7.96,2.66-11.92l-2.43,9.7c-.55.26-.3.6-.45.99-.94,2.47-2.26,4.82-3.56,7.11.25.35.43-.08.57-.24.21-.23,1.1-1.21,1.18-1.34ZM4.47,32.02c-.59-.09-.36.12-.4.5-.08.69-.07,1.42-.2,2.11.31.05.24-.38.3-.6.18-.71.11-1.33.31-2.01ZM42.65,40.07v.2l.1-.1-.1-.1ZM42.95,40.87c.14-.28-.13-.54-.2-.4-.14.28.13.54.2.4ZM43.25,41.48v.2l.1-.1-.1-.1ZM1.15,41.88v.2l.1-.1-.1-.1ZM45.27,44.99c-.15-.15-1.19-1.24-1.31-1.1-.16.18,1.7,2.6,1.91,2.61.95.03-.47-1.38-.6-1.51ZM2.96,44.49v.2l.1-.1-.1-.1ZM57.25,45.3l-5.33.6v-.4s-.91.2-.91.2l1.21.7c-.26.3-1.48.29-1.76.16-.34-.15-.23-.45-.25-.46-.04-.03-.77.47-.91.39-.04-.02.05-.43-.08-.51-.05-.03-1.01,0-1.22,0,2.05,1.52,4.8,1.3,7.1.46l2.16-1.16ZM47.98,45.5c-.42-.06-.46-.02-.4.4l.4-.4ZM50.3,45.7v.2l.1-.1-.1-.1ZM56.75,46.51v.2l.1-.1-.1-.1ZM56.24,46.91c-.1-.09-2.02.85-2.57.95-3.06.56-3.96-.23-6.61-.94-.28-.07-.55-.46-.49.09,2.81,1.75,6.43,2.56,9.29.42.12-.09.71-.2.38-.52ZM48.34,48.79c-.12-.05-.32.12-.54.03-.36-.14-.82-.68-1.39-.84-1.07-.31-.78.35-1.1.69-.26.27-.88.28-.95.66,1.57.77,3.21.87,4.92,1l1.52-.79c-.69-.02-1.62-.19-2.26-.42-.15-.05-.16-.3-.2-.31ZM60.57,47.92v.2l.1-.1-.1-.1ZM61.61,48.79c-.14-.11-.71-.34-.93-.37.52.71.58,1.22.6,2.11.42.04.09-.66.2-.8.21-.28,1.55,1.62,1.68,1.74,1.73,1.65,4.45,3.24,6.78,3.79.49.12,3.43.55,1.92-.26-.31-.17-1.85-.44-2.12-.57-1.22-.58-2.65-1.59-3.76-2.25-.28-.17-2.19-1.16-2.27-1.26-.02-.03.22-.36.2-.39-.03-.02-.46,0-.71-.2-.52-.39-1.14-1.21-1.57-1.55ZM51.11,49.53v.2l.1-.1-.1-.1ZM91.7,50.93l.71-1.4c-.15.22-1.25,1.15-.71,1.4ZM61.58,50.73v.2l.1-.1-.1-.1ZM89.99,50.93v.2l.1-.1-.1-.1ZM62.08,51.14c-.08-.09-.52-.09-.39.29s1.24,2.1,1.52,2.5c.33.46,1.82,2.21,2.22,2.41,1.2.6,4.36.37,5.72.22l-1.87-.21c-.26-.53-.98-.33-1.49-.55-.72-.31-3.68-2.12-4.05-2.52-.29-.32-.37-.97-.48-1.1-.05-.06-1.02.14-.77-1.05-.37-.09-.07.4-.3.4-.22,0-.04-.33-.1-.4ZM89.88,51.34c-.08-.08-1,.53-1.1.6-.96.71-1.9,1.84-3.08,1.95l-1.86,1.26c2.49-.53,4.68-1.59,6.04-3.82ZM36.4,53.75v.2l.1-.1-.1-.1ZM33.98,54.96v.2l.1-.1-.1-.1ZM83.54,54.96v.2l.1-.1-.1-.1ZM33.08,55.56c.23.12.46-.13.6-.3-.2-.08-.79.2-.6.3ZM72.96,55.76s-.17-.42-.1-.6c-.96.25-.14.76.1.6ZM32.88,55.56c-.36-.04-1.09.27-.8.6.03.04.81-.35.8-.6ZM8,55.77c-.16.22.3.43.41.6.17-.21-.3-.43-.41-.6ZM84.45,56.36c-.45-.71-1.88.05-2.52.11-1.25.11-2.51.03-3.84.2-3.41.44-6.25,1.19-9.32,1-.38-.02-.76.02-1.23-.01-.26-.02-.49-.31-.42.21,5.38,3.56,12.15,1.38,17.32-1.51ZM31.67,56.17c-.23-.18-.63.32-.8.5.21.12.92-.41.8-.5ZM12.33,58.38c-.31-.14-1.33-.39-1.38-.44-.11-.11.02-.49-.04-.56-.04-.05-.39.14-.6.07-.57-.2-.98-.65-1.51-.88-.32.21.13.57.29.71,2.42,2.16,6.83,2.97,9.97,2.51.47-.07,1.44-.17,1.71-.6l-4.74.16c-.82-.48-2.52-.54-3.52-.97,0-.32-.28-.17-.2,0ZM29.75,56.97v.2l.1-.1-.1-.1ZM29.35,57.18c-.45.3-.25.58,0,.2.07-.1.16-.11,0-.2ZM9.3,58.98c.14-.28-.13-.54-.2-.4-.14.28.13.54.2.4ZM23.11,58.58v.2l.1-.1-.1-.1ZM22.6,58.78c-.19-.09-1.03.29-.8.4.19.09,1.03-.29.8-.4ZM21.59,58.98c-.12-.12-.51.12-.6.3.29.06,1,.1.6-.3ZM10.51,59.79c.16-.21-.32-.71-.4-.6-.16.21.32.71.4.6Z"/>
      <path class="cls-1" d="M59.87,55.36s.2-.01.2,0c.08.46-.18,0-.2,0Z"/>
      <path class="cls-1" d="M12.33,58.38s.14-.03.2,0c0,.45-.18,0-.2,0Z"/>
      <path class="cls-1" d="M78.81,2.04s.2,0,.2,0c.1.23-.3.23-.2,0Z"/>
      <path class="cls-1" d="M64.7,19.34s0-.13,0-.2c.45,0,0,.18,0,.2Z"/>
      <path class="cls-1" d="M63.9,14.72l-.2-.2.2.2Z"/>
      <path class="cls-1" d="M39.12,56.16c-.07.14-.34-.12-.2-.4.07-.14.34.12.2.4Z"/>
      <path class="cls-1" d="M38.31,56.57c-.07.14-.34-.12-.2-.4.07-.14.34.12.2.4Z"/>
      <polygon class="cls-1" points="37.21 57.37 37.31 57.47 37.21 57.57 37.21 57.37"/>
      <path class="cls-1" d="M40.53,50.33c-.07.14-.34-.12-.2-.4.07-.14.34.12.2.4Z"/>
      <polygon class="cls-1" points="53.52 46.51 53.62 46.61 53.52 46.71 53.52 46.51"/>
    </g>
  </g>
</svg>