<?xml version="1.0" encoding="UTF-8"?>
<svg id="Layer_3" data-name="Layer 3" xmlns="http://www.w3.org/2000/svg" viewBox="0 0 118.9 74.99">
  <g id="Bows">
    <g id="Layer_18_Image" data-name="Layer 18 Image">
      <g>
        <path d="M71.19,65.82c-.8-.26-.16-.19-.39-.47-.16-.2-1.67-1.13-.21-1.21.06,0,.45.7.7.86.7.44,2.64,1.45,3.39,1.52,1.42.13-.08-.97-.28-1.28-2.23-3.47-2.82-5.78-3.68-9.59-.06-.25.1-.42-.25-.36-.05.36-.5.84-.78,1.03-2.89,2-6.09,2.73-9.16,4.23-.37-1.06-.24-.06-.65.08-.33.12-4.22.21-4.62.11-.06-.01-.8-.25-1.08-.34-.96-.3-1.59-1.31-2.98-.59-.15.08.06.34.03.37-.72.71-1.76,1.01-2.78,1.69-7.99,5.34-17.43,10.61-27.65,10.77-.6,0-2.44-.02-2.87-.13-.25-.06-.12-.43-.16-.48-.23-.32-.21.45-.24.48-.05.05-.6-.38-.89-.44-.39-.08-1.15-.06-1.67-.23-.69-.22-1.5-.61-2.11-1.01-.1.36.53.78.79.91,6.22,3.19,15.62,2.06,22.14-.27,3.18-1.14,6.12-3.07,9.29-4.23-.06.6-1.01.61-1.15.78-.15.18,0,.6-.05.66-.06.08-.55-.33-.69-.23-.19.13-.32,1.47-1.35.72-.17.16.15.32-.02.48-.74.7-2.85,1.29-3.85,1.75-2.18,1.01-4.37,2.04-7.03,2.69-.95.23-4.36.81-5.17.8-.19,0-.05-.37-.1-.45-.18-.28-.24.39-.34.43-.9.36-1.97-.17-2.61-.13-5.16.29-10.1-1.22-13.64-5.09-.08-.09.08-.46-.05-.46s-.49.33-.59.22c-.06-.06,0-.5-.15-.69-2.48-3-4.05-6.3-5.2-10.12C-1.35,43.9-3.01,17.84,12.24,7.76c9.72-6.42,21.81-10.94,31.31-1.42,2.02,2.02,4.72,5.12,6.81,7.44,1.43,1.59,2.89,4,4.19,5.38.98,1.04,1.13.06,1.81-.32,5.32-2.94,10.45-3.16,15.75.24.51.32,1.07,1.11,1.46,1.38.82.57.44-1.18.6-1.78.42-1.62,2.81-5.64,3.81-7.2C83.07,3.58,89.38,1.23,98.48.14c10.58-1.26,16.29,5.88,18.39,15.38,3.49,15.79,3.82,37.16-9.93,48.15-1.91,1.52-5.09,3.77-7.06,4.86-4.61,2.53-6.93,3.11-11.93,3.62-2.04.21-4.33-.13-6.7-1.14-2.03-.86-3.97-2.69-6.15-3.49-.12-.04-.66.12-1.13-.03-.72-.24-1.31-.87-1.39-.9-.19-.05-.57.28-.67.19-.04-.04.12-.49-.48-.96-.02-.02-.34-.54-.24,0ZM102.3,1.44c-.12.11-2.7-.54-3.23-.42.27.73-2.21-.23-1.54.69.02.03.35-.16.63-.05,2.44.88,3.78,2.47,5.3,3.15,3.79,1.69,5.77,1.24,8.91,4.99l2.64,3.87c-.99-3.87-2.89-7.5-6.07-10.19-.32-.27-1.06-.99-1.13-1.03-.08-.05-.39.23-.55.22-.18,0-.15-.39-.19-.4-1.08-.26-1.61-.57-2.27-.76-.46-.14-2.11-.02-2.2-.09-.11-.08.09-.43-.15-.43s-.04.36-.14.45ZM33.53,2.03c-2.1-.34-5.8-.03-7.98.39-.61.12-.52.63-.62.69-.1.06-1-.54-1.17.27,6.78-1.21,13.58.28,19.16,4.31.09-.42-.21-.61-.49-.83-1.14-.9-2.59-2.26-4.03-3.17-.96-.61-4.09-1.53-4.88-1.65ZM93.7,2.42c-3.82.96-8.37,4.16-11.34,6.75-1.29,1.12-4.14,4.01-4.77,5.28-.37.75-.75,1.73-.89,2.57,3.23-3.12,6.35-6.48,10.33-8.7s9.71-3.26,14.34-3.74c-.34-.9-2.39-.59-2.02-1.42-2.08-.25-3.04-1.08-5.4-.73-.03,0,.17-.1-.24,0ZM90.11,2.67c-.34-.17-.64.15-.48.23.34.17.64-.15.48-.23ZM23.28,3.62l-.48-.48c-.07.5-.02.54.48.48ZM88.19,3.86c.17-.34-.15-.64-.23-.48-.17.34.15.64.23.48ZM29.27,4.34c-.07-.05.39-.33,0-.35-4.81-.3-11.81,1.47-15.56,4.56-1.25,1.03-2.24,2.35-3.01,3.21C3,20.38,1.29,32.08,2.1,43.44c.2,2.85.55,6.04,1.42,8.74.04-1.19-.24-2.42-.25-3.59-.1-13.83,3.06-31.05,15.97-39.07,8.31-5.16,15.78-4.79,23.79.57.52.19,4.69,4.03,4.91,3.82.05-.05-.59-1.11-.71-1.25-.86-1.03-2.65-2.39-3.6-2.98-4.31-2.68-7.64-5.31-13.3-5.58-.32-.02-.92.35-1.07.24ZM87.23,4.1c-.44-.08-.8.26-.72.72l.72-.72ZM84.92,5.87c.25-.18,1.7-.92,1.35-1.29-.07-.08-1.74,1.1-1.8,1.19-.13.22.1.42.24.48.19.08.06-.28.2-.38ZM98.25,6.25s.09-.51-.12-.48c-.65.37-.16.75.12.48ZM103.93,6.56c-.24-.19-1.63-.76-1.96-.8-.28.13-3.51-.05-3.48.37.02.22,3.4,1.23,4.12,1.62,1.14.63,2.12,1.59,3.18,2.32.37-1-.9-1.73-1.23-2.21-.12-.17-.18-.95-.64-1.31ZM84,6.26c-.54.36-.3.69,0,.23.08-.12.19-.13,0-.23ZM107.04,7.08c-.39-.18-1.14-.35-1.6-.48,1.45,1.91,2.34,4.46,3.6,6.4.31.48,1.33,1.32,1.66,1.8,4.21,6.21,4.28,13.97,5.06,21.19.04.38.08,1.32.69,1.12.03-3.56.72-7.08.58-10.65-.17-4.47-1.29-8.97-3.52-12.85-.26-.45-3.26-4.7-3.52-4.86-.16-.09-.47.16-.67.08-.14-.06-1.58-1.42-2.29-1.75ZM31.66,7.21l-.68-.32c-2.57.13-5.2.5-7.63,1.47C12.75,12.61,6.29,25.41,5.11,36.31c-.06.51-.04,1.02-.03,1.52.34.06.33-.42.4-.67,1.57-5.65,2.38-9.67,5.48-14.86,3.75-6.27,11.75-13.36,18.96-15.04.57-.13,1.16-.04,1.74-.06ZM83.16,6.97l-1.43,1.43c.7-.33,1.48-.49,1.43-1.43ZM99.45,7.45s-.36.2-.72.13c-1.96-.37-4.08-.89-5.99-.01l4.66.19,2.17.4c.04-.13-.1-.68-.12-.71ZM92.5,7.69c-.34-.17-.64.15-.48.23.34.17.64-.15.48-.23ZM37.32,8.74c-10.14-3.5-22.1,7.45-26.47,15.64-4.6,8.62-6.98,24.05-4.92,33.58,2.42,11.16,14.09,12.52,23.55,10.34,6.6-1.52,11.23-4.66,17.12-7.79.35-.19.9-1.06,1.11-.32.02.07-.24-.09-.54.16-.85.72-1.53,1.68-2.56,2.23,2.41-.42,4.16-2.33,6.22-3.48.13-.78-.77-.76-1.1-1.05-7.78-6.78-7.09-20.13-1.36-28.07.62-.86,2.48-2.02,2.23-3.26-.03-.17-.43-.14-.48-.32-.16-.63.09-1.62,0-2.34-.17-1.33-1.01-3.62-1.61-4.85-.24-.5-.92-1.01-.98-1.08-.12-.14-.19-.74-.44-1.09-1.3-1.74-3.1-3.63-4.54-5.05-.91-.89-2.39-1.32-2.99-1.83-.22-.19.02-.52-.02-.56-.09-.08-2-.82-2.21-.89ZM91.3,7.93c-.34-.17-.64.15-.48.23.34.17.64-.15.48-.23ZM100.29,7.93v.24l.12-.12-.12-.12ZM101.36,8.64l-.48-.48c-.07.5-.02.54.48.48ZM76.93,23c-.09.35,0,.9-.45.09-1-1.78.86-4.47.69-4.64-.54-.52-1.27,1.31-1.44,1.54-.26.36-1.21,1.14-1.21,1.22.01.75,1.01,1.37,1.28,1.85,4.57,7.96,2.96,20.27-1.55,27.76-.79,1.31-2.14,2.67-2.6,4.11.35.45.2-.32.25-.36.45-.35.3.85.32.9.99,2.07,3.98,3.29,6.05,3.86,6.77,1.86,18.81,3.21,25.16-.17,9.38-5,9.59-21.05,8.62-30.23-.58-5.52-2.16-14.19-6.79-17.38-.71-.49-1.84-.56-1.63-1.23-.63.57-.99-.18-1.4-.3-5.81-1.72-12.46-1.81-17.59,1.88-1.29.92-2.25,2.09-3.24,3.13-1.12,1.17-2.02,1.13-1.96,3.05.01.32.79,3.09-.39,1.9-.56-.57.05-2.1-.91-1.49-.63.4-1.14,3.47-1.23,4.27-.39,0-.18.34,0,.24ZM79.93,10.08v.24l.12-.12-.12-.12ZM106.51,10.56v.24l.12-.12-.12-.12ZM79.45,10.8v.24l.12-.12-.12-.12ZM9.75,11.04v.24l.12-.12-.12-.12ZM8.19,12.23c-.04.07-.13.75-.12.95.64-.29.29-1.25.12-.95ZM45.2,13.19v.24l.12-.12-.12-.12ZM3.16,23.24c.07-1.68,1.26-2.96,1.5-4.6l3.05-5.21c-.74.48-1.32,1.18-1.78,1.93-.87,1.42-1.66,3.41-2.16,4.88-.26.75-.65,1.34-.79,2.22-.04.26-.26.83.18.77ZM115.14,13.91v.24l.12-.12-.12-.12ZM46.16,14.15v.24l.12-.12-.12-.12ZM46.99,14.86l-.48-.48c-.07.5-.02.54.48.48ZM48.55,14.39v.24l.12-.12-.12-.12ZM47.71,15.82c-.74-1.5-.84-.35-.43-.04.15.12.38,0,.43.04,1.52,3.09,3.7,5.91,3.47,9.57.41-.53,1.09-1.89,1.1-2.49,0-.22-1.02.07-.02-.74-1.44.91-.36-.53-.51-.8-.03-.05-.49-.11-.66-.41-.99-1.76-1.68-4.07-3.38-5.12ZM50.82,16.3c.17-.34-.15-.64-.23-.48-.17.34.15.64.23.48ZM76.34,16.3v.24l.12-.12-.12-.12ZM51.54,16.78c-.12-.12-.65-.06-.47.35.57.19,2.5,4.47,3.11,3.95.85-.72-1.55-1.41-.96-2.39-.84.65-.45-.63-.52-.68-.14-.1-.54-.03-.8-.27-.28-.26-.29-.89-.36-.96ZM75.74,17.26c-.24.44-.67.7-.48,1.44.66-.04.65-1.13.72-1.2.04-.04.4.06.46-.01.34-.41-.65-.75-.7-.71-.06.05.05.38,0,.48ZM64.66,17.31c-.86-.43-6.97,1.63-7.98,2.32-.24.16-.29.63-.39.7-.06.04-.42-.23-.44-.21-.38.56.4.78.56.98,1.05,1.34,1.07,2.01,2.83,1.85,3.45-.31,5.69-1.24,9.4-.18.93.27,2.25,1.13,3,1.32.93.23.52-.48.66-.85.22-.57,1-1.62.67-2.18-.1-.17-.49-.04-.6-.14-2.16-1.91-3.16-2.24-5.86-3.03-.14-.04-.12-.41-.26-.41-1.1,0-.43.41-1.6-.18ZM77.53,17.5v.24l.12-.12-.12-.12ZM77.29,17.97v.24l.12-.12-.12-.12ZM55.13,22.04c.2-.25-.38-.84-.47-.72-.2.25.38.84.47.72ZM52.74,22.76c1.3-1.28-1.02-1.78-.23,0,0,.01.22.02.23,0ZM55.66,22.2c-.12-.07.1-.49-.28-.39.27,1.18-1.17.77-1.77,1.18-.16.11-1.96,3.23-1.82,3.37l4.55-2.46c.49,0,1.28-.28.89-.76-.06-.08-.39.03-.53-.11-.25-.24-.33-.6-.6-.82-.08-.07-.32.06-.43,0ZM74.16,22.91c-.14-.15-.43-.74-.58-.63-.11.08-.8,2.52-.72,2.63.04.06,1.09.22,1.41.39s1.53,1.24,1.7,1.05c.51-.57-1.33-2.91-1.82-3.44ZM63.76,23.48c-.63-.47-5.43.7-6.3,1-1.43.5-4.74,2.4-5.84,3.38-1.53,1.37-1.31,6.79-1.76,8.77.69.15.38-.24.55-.52.62-.97.95-2.12,1.53-3.01.42-.65,1.21-.85,1.61-1.27.83-.88,1.47-2.26,2.38-3.25,2.38-2.58,4.44-3.24,7.48-4.61.19-.09.81-.15.34-.5ZM64.72,23.71c-.2-.52-.4-.57-.72-.12l.72.12ZM65.91,23.24c-.04-.06-1.45.04-.95.48.18.16,1.37.06.95-.48ZM66.28,23.48v.24l.12-.12-.12-.12ZM66.99,23.48v.24l.12-.12-.12-.12ZM67.95,23.72v.24l.12-.12-.12-.12ZM2.68,24.67c.17-.34-.15-.64-.23-.48-.17.34.15.64.23.48ZM70.23,24.2c-.34-.17-.64.15-.48.23.34.17.64-.15.48-.23ZM65.32,24.67v.24l.12-.12-.12-.12ZM65.8,24.67v.24l.12-.12-.12-.12ZM64.24,24.91c-.65.18-1.4-.08-1.67.71.5-.05,1.47-.16,1.67-.71ZM68.74,25.46c-.44-.25-7.36,1.66-8.13,2.1-1.02.58-4.92,3.41-5.6,4.28-3.96,5-4.96,15.1-.04,20.06.05.05.98.79,1.05.79.26.01.53-.22.7-.22.13,0,.12.39.29.43,4.72,1.19,12.26.7,15.49-3.35,4.4-5.52,4.42-16.05.38-21.57-.29-.39-1.03-.57-.96-1.38l-.47.47c.08-.29-1.17-1.31-1.26-1.35-.29-.13-1,.19-1.23.15-.17-.03-.14-.37-.2-.4ZM104.34,60.9c2.72-2.24,6.23-6.26,7.57-9.54,2.15-5.27,2.69-16.32,1.89-22-.06-.44-.36-.78-.44-1.23-.14-.82-.13-1.88-.26-2.73-.44,0-.25,1.03-.23,1.31.07.85.39,1.78.47,2.64.77,8.73.55,22.12-6.21,28.48-4.73,4.45-10.2,4.77-16.19,4.54-4.26-.16-8.22-.52-12.33-1.8,3.34,2.48,8.61,4.96,12.81,5.27s9.7-2.28,12.92-4.93ZM61.84,25.63s-.84.25-.96.32c-.06.04-.83-.1-.23.39.2.16,1.68-.29,1.19-.72ZM72.26,25.87v.24l.12-.12-.12-.12ZM2.08,26.35v.24l.12-.12-.12-.12ZM60.41,26.82s.09-.5-.12-.47c-1.69.87-.24.86.12.47ZM2.2,27.54c.17-.37-.12-.97-.23-.72-.17.37.12.97.23.72ZM59.21,27.54l-.48-.48c-.07.5-.02.54.48.48ZM77.41,35.92c-.36-2.74.14-5.95-1.91-8.13.89,2.39.99,4.96,1.55,7.42.06.26,0,.77.36.71ZM1.84,28.26v.24l.12-.12-.12-.12ZM49.63,30.42c-.52-.11-.79.61-1.05.98-4.86,6.78-4.95,19.33,1.38,25.25,1.38,1.29,2.31,1.81,3.52-.02.65-.99-.52-1.12-1.06-1.83-3.75-4.95-3.07-10.07-3.14-15.79,0-.59-.37-1.48-.35-2.26.03-2.13.42-4.23.71-6.33ZM117.77,35.92v.24l.12-.12-.12-.12ZM50.35,36.88c-.28-.27-.77.1-.12.48.21.03.13-.46.12-.48ZM77.05,37.11v.24l.12-.12-.12-.12ZM116.1,37.35v.24l.12-.12-.12-.12ZM112.06,56.66c.66-1.05,1.89-3.87,2.42-5.12,1.84-4.37,2.97-9.47,3.17-14.18l-2.89,11.54c-.65.31-.35.72-.53,1.18-1.12,2.94-2.69,5.73-4.24,8.45.29.41.51-.09.68-.28.25-.28,1.3-1.44,1.4-1.59ZM5.32,38.07c-.7-.11-.42.14-.48.59-.1.82-.08,1.69-.24,2.51.36.06.28-.45.35-.72.21-.85.13-1.59.36-2.39ZM50.71,47.64v.24l.12-.12-.12-.12ZM51.06,48.6c.17-.34-.15-.64-.23-.48-.17.34.15.64.23.48ZM51.42,49.32v.24l.12-.12-.12-.12ZM1.36,49.79v.24l.12-.12-.12-.12ZM53.83,53.49c-.17-.18-1.41-1.47-1.56-1.3-.19.22,2.02,3.1,2.27,3.11,1.13.04-.56-1.64-.71-1.8ZM3.52,52.9v.24l.12-.12-.12-.12ZM68.07,53.86l-6.34.72v-.48s-1.08.24-1.08.24l1.44.84c-.31.36-1.76.35-2.1.19-.4-.18-.27-.53-.3-.55-.05-.03-.92.56-1.08.47-.05-.03.06-.51-.1-.6-.06-.04-1.21,0-1.45.01,2.44,1.81,5.71,1.54,8.44.54l2.57-1.37ZM57.05,54.1c-.5-.07-.55-.02-.48.48l.48-.48ZM59.81,54.34v.24l.12-.12-.12-.12ZM67.47,55.3v.24l.12-.12-.12-.12ZM66.87,55.78c-.12-.11-2.4,1.01-3.05,1.13-3.63.67-4.7-.28-7.86-1.12-.33-.09-.66-.54-.59.11,3.35,2.08,7.64,3.04,11.05.5.14-.1.85-.24.45-.62ZM57.48,58.01c-.14-.05-.38.14-.64.03-.43-.17-.98-.8-1.65-1-1.27-.37-.92.42-1.31.82-.31.32-1.04.33-1.13.78,1.87.92,3.82,1.03,5.85,1.18l1.81-.94c-.82-.02-1.93-.23-2.69-.5-.18-.06-.2-.36-.24-.37ZM72.02,56.97v.24l.12-.12-.12-.12ZM73.26,58.01c-.17-.13-.85-.4-1.11-.44.62.85.69,1.46.72,2.51.5.05.11-.78.24-.96.25-.33,1.85,1.92,2,2.07,2.05,1.96,5.29,3.85,8.06,4.51.58.14,4.08.65,2.28-.31-.37-.2-2.2-.52-2.53-.67-1.45-.69-3.15-1.89-4.47-2.68-.33-.2-2.61-1.38-2.7-1.5-.03-.04.26-.43.23-.46-.03-.03-.55-.01-.85-.23-.62-.47-1.36-1.44-1.87-1.84ZM60.77,58.89v.24l.12-.12-.12-.12ZM109.03,60.56l.84-1.67c-.18.26-1.48,1.37-.84,1.67ZM73.22,60.32v.24l.12-.12-.12-.12ZM106.99,60.56v.24l.12-.12-.12-.12ZM73.82,60.8c-.1-.11-.62-.1-.47.34s1.47,2.49,1.81,2.98c.39.55,2.16,2.63,2.64,2.87,1.43.72,5.19.44,6.8.27l-2.22-.25c-.31-.63-1.17-.4-1.77-.66-.85-.37-4.38-2.52-4.81-3-.34-.38-.43-1.15-.57-1.3-.06-.07-1.21.17-.92-1.24-.44-.1-.08.47-.36.48-.26,0-.04-.4-.12-.48ZM106.87,61.04c-.09-.09-1.19.63-1.31.72-1.15.84-2.25,2.19-3.66,2.32l-2.22,1.5c2.96-.62,5.57-1.89,7.18-4.54ZM43.28,63.91v.24l.12-.12-.12-.12ZM40.41,65.35v.24l.12-.12-.12-.12ZM99.33,65.35v.24l.12-.12-.12-.12ZM39.33,66.06c.28.14.55-.15.71-.36-.24-.1-.94.24-.71.36ZM86.75,66.3s-.2-.5-.12-.71c-1.14.29-.16.9.12.71ZM39.09,66.07c-.42-.04-1.3.32-.96.72.04.05.96-.42.96-.72ZM9.51,66.31c-.2.26.36.52.48.71.2-.26-.35-.51-.48-.71ZM100.41,67.02c-.54-.84-2.24.06-2.99.13-1.48.14-2.99.04-4.57.24-4.06.52-7.43,1.41-11.09,1.19-.45-.03-.91.02-1.46-.01-.3-.02-.58-.37-.5.24,6.39,4.23,14.44,1.64,20.6-1.79ZM37.65,66.78c-.27-.21-.75.38-.95.6.25.15,1.09-.49.95-.6ZM14.66,69.41c-.37-.16-1.58-.47-1.64-.53-.13-.13.02-.58-.04-.66-.05-.06-.47.16-.71.08-.68-.24-1.16-.77-1.8-1.04-.39.25.16.68.35.85,2.87,2.57,8.12,3.53,11.86,2.98.56-.08,1.71-.2,2.04-.71l-5.63.19c-.98-.57-3-.64-4.19-1.15,0-.38-.33-.2-.24,0ZM35.38,67.74v.24l.12-.12-.12-.12ZM34.9,67.98c-.54.36-.3.69,0,.23.08-.12.19-.13,0-.23ZM11.06,70.13c.17-.34-.15-.64-.23-.48-.17.34.15.64.23.48ZM27.47,69.65v.24l.12-.12-.12-.12ZM26.87,69.89c-.23-.1-1.23.35-.95.47.23.1,1.23-.35.95-.47ZM25.67,70.13c-.15-.15-.6.15-.71.36.34.08,1.19.12.71-.36ZM12.5,71.09c.2-.25-.38-.84-.47-.72-.2.25.38.84.47.72Z"/>
        <path d="M71.19,65.82s.24-.01.24,0c.1.55-.21,0-.24,0Z"/>
        <path d="M14.66,69.41s.17-.03.24,0c0,.53-.22.01-.24,0Z"/>
        <path d="M93.7,2.42s.23-.01.24,0c.12.28-.36.28-.24,0Z"/>
        <path d="M76.93,23s0-.16,0-.24c.54,0,0,.21,0,.24Z"/>
        <path d="M75.98,17.5l-.24-.24.24.24Z"/>
        <path d="M46.51,66.78c-.08.16-.41-.14-.23-.48.08-.16.41.14.23.48Z"/>
        <path d="M45.55,67.26c-.08.16-.41-.14-.23-.48.08-.16.41.14.23.48Z"/>
        <polygon points="44.24 68.22 44.36 68.34 44.24 68.46 44.24 68.22"/>
        <path d="M48.19,59.84c-.08.16-.41-.14-.23-.48.08-.16.41.14.23.48Z"/>
        <polygon points="63.64 55.3 63.76 55.42 63.64 55.54 63.64 55.3"/>
      </g>
    </g>
  </g>
</svg>