<?xml version="1.0" encoding="UTF-8"?>
<svg id="Layer_2" data-name="Layer 2" xmlns="http://www.w3.org/2000/svg" viewBox="0 0 100 79.05">
  <defs>
    <style>
      .cls-1 {
        fill: #fff;
      }
    </style>
  </defs>
  <g id="Sketchy_Icons" data-name="Sketchy Icons">
    <g>
      <polygon class="cls-1" points="39.17 6.45 39.29 6.57 39.17 6.69 39.17 6.45"/>
      <g>
        <path class="cls-1" d="M47.9,4.44c1.12,1.05,2.68,2.15,3.62,3.37,3.15,4.1,7.55,15.13,8.43,20.25.06.35-.17.83-.07.98.28.45,2.9-.35,3.76-.21,1.07.17,2.26,1.02,3.14,1.33.23.08.59-.11.78-.03,2.32.88,5.12,2.27,5.4,5.04,1.74-2.13,3.97-4,5.86-6.07,1.99-2.19,3.81-4.74,5.8-6.85.85-.9,3.53-3.89,4.36-4.35,2.91-1.63,3.07,1.2,4.11,2.68.89,1.27,1.8,1.38,2.7,3.42,4.54,10.23,5.17,30.04,2.99,41.12-.58,2.97-3.82,9.87-5.89,11.88-2.85,2.76-5.51,2.27-9.11,1.36-.75-.19-2.03-.88-2.72-1.06-.17-.05-.03.54-.23.47-.29-.1-1.07-.71-1.31-.79-.78-.27-1.05-.25-1.82-.59-1.16-.5-3.73-1.57-4.67-2.23-.19-.14-.23-.51-.43-.62-.22-.12.05.6-.35.47.19-.89-.35-.59-.68-.86-2.05-1.66-4.47-3.25-6.33-5.08-.44-1.19-1.98-1.98-3.04-2.67-.17-.9.34-.38.86-.93-1.13-.17-1.73-1.68-2.35-2.52-.17-.22-.51-.31-.69-.57-.26-.36.15-1.02-.72-1.03l.47-.47c-.77-.27-1.12.6-1.36.68-2.79,1-6.19,1.18-9.01.15-.54-.2-1.54-1.36-1.96-1.28-.2.04-.48.49-.8.62-3.71,1.58-6.25,2.31-10.01,3.36-.13.04-1.21,1.35-1.12.23-.4.15-.23.59-.92.59-.39,0-.6-.43-.72-.36-1.23.79-2.33.83-3.99,1.07-7.57,1.09-20.62,1.43-26.64-3.76-.99-.86-2.33-3.12-2.7-4.37-1.79-6.02,1.16-15.13,3.85-21.1.7-1.55,1.89-3.16,2.56-4.74,2.25-5.32,3.02-9.87,6.57-14.85,3.28-4.61,6.37-6.37,10.58-9.67,1.42-1.12,2.55-2.72,4.14-3.86,4.58-3.29,6.51-2.78,11.66-2.05,1.23.17,2.36-.08,3.67.33,2.11.65,2.88,2.22,4.32,3.56ZM38.11,1.04c-1.39.26-2.71-.08-4.18.08-2.01.23-4.27,1.59-5.71,2.98,3.03-1.2,6.48-.97,9.37-2.53.29-.16.66.16.52-.53ZM42.98,2.77c-.93-.56-1.87-.6-2.87-.91l-2.47.83c2.19.24,4.35,1.01,6.28,2.08,1.41.78,2.72,1.98,3.68,3.14.29.35.19.55.87.42-1.06-1-1.15-2.61-2.12-3.64-.59-.62-1.16-.63-1.82-.97-.25-.13-.31-.51-.34-.52-.45-.19-.13.22-1.21-.43ZM38.3,4.01c-.75.23-2.07-.94-2.78.08.41,0,.83-.04,1.24.06,3.03.74,9.02,4.74,11.16,7.08.16.17,1.16,1.97,1.26,2.04.09.06.46-.3.46-.35,0-.19-1.64-2.87-1.89-3.23-.18-.27-.73-.63-1-.96-1.28-1.52-1.52-1.85-3.12-2.74-1.7-.94-3.37-1.67-5.16-2.37-.2-.08-.08.36-.16.38ZM24.55,10.31c2.29-1.9,4.87-3.53,7.2-5.39-2.2.37-4,1.51-5.82,2.87-2.53,1.9-4.79,4.46-6.65,7.01.24.38.52-.08.71-.23,1.58-1.32,2.98-2.95,4.56-4.26ZM55.06,31.39c-1.19-3.48-1.72-7.37-2.95-10.82-.67-1.87-2.7-5.51-3.64-6.71-1.39-1.77-2.83-3.47-4.66-4.82-.7-.51-1.97-1.33-2.76-1.42.23-.9-.13-.2-.6-.37-.39-.14-.91-.92-1-.97-.65-.31-3.25-1.17-3.99-1.33-1.94-.42-4.14,1.33-5.69,2.48-3.08,2.28-10.24,8.28-12.31,11.21-4.12,5.84-6.63,21.5-6.14,28.62.29,4.13,1.29,8.63,5.77,9.94,5.49,1.61,18.36-1.71,24.06-3.35.39-.11.86-.53,1.06-.58.24-.06.05.36.12.47.16.26.24-.38.4-.46,1.21-.6,2.67-.7.95.63-.06.05-.25-.13-.35-.08-1.19.55-2.96,1.91-4.36,2.65-3.98,2.11-9.04,4.29-13.59,5.56-.49.14-1.81.11-1.88.18-.04.03.28.43.24.47l-9.42,1.29,3.03.45c8.29.19,17.33-.68,24.96-3.53.51-.19,3.94-1.56,4.09-1.72.94-.99-.41-1.34-.71-2.08-.45-1.13-.29-2.85-.54-3.9-.04-.18-.46-.15-.47-.29-.22-4.18,2.53-11.85,4.74-15.43,1.62-2.62,3.53-4.23,5.62-6.08.29,1.03-1.25,1.37-1.57,1.71-.17.18-.98,1.19-1.22,1.5-.41.52-1.58,2.78-1.72,2.87-.07.04-.41-.22-.43-.2-.06.06-.33,1.32-.53,1.72-2.4,4.82-4.55,10.51-3.42,16.22.27,1.38,1.29,4.04,3,2.77-.09.49-.87.21-.71,1.05.12.66,4.28,1.41,5.07,1.4.84,0,2.86-.35,3.69-.62.48-.16,3.85-1.99,3.95-2.19.6-1.21-1.06-.05-1.17-.01-.24.08-.66-.15-.71-.1-.11.14.32,1.21-.59,1.08-.24-.04-.4-.37-.88-.33-1.06.08-2.36,1.26-4.02,1.28-1.1.02-1.59-.56-1.68-.57-.18-.01-.4.27-.82.09-.11-.04-1.74-1.29-1.82-1.38-.87-.89-1.54-4.2-1.6-5.47-.31-6.2,2.64-13.65,6.48-18.51.25-.32,1.62-1.37,1.65-1.48.18-.77-1.24.14-.47-1.29-.31-.03-.17.2-.47.47ZM25.99,6.22v.24l.12-.12-.12-.12ZM50.01,7.98c-.33-.39-.87-1.45-1.3-1.18,1.44,2.73,2.14,5.86,3.26,8.73,1.65,4.22,4.1,8.79,5.17,13.46.1.46-.16,1.01-.07,1.24.41,1.01,2.09-.3,2.14-.59.05-.26-1.11-4.58-1.31-5.2-1.13-3.44-2.68-6.65-4-9.91-.14-.35-.47-1.86-.54-1.93-.13-.13-.58.02-.66-.03-.03-.02.24-.37.12-.69-.32-.85-2.12-3.08-2.82-3.9ZM48.35,8.57v.24l.12-.12-.12-.12ZM20.36,11.31c.4-.6.93-1.35,1.15-2.03-1.39,1.56-3.19,2.84-4.6,4.35-3.08,3.28-5.49,7.82-7.18,11.87-.22.52-.38,1.09-.34,1.66l3.19-4.69c2.67-3.75,5.31-7.41,7.78-11.16ZM90.94,18.86c-.04-.06.11-.61-.21-.64-.78-.06-2.75,1.59-3.18,2.34.6-.4,3.85-.57,4-.7.36-.32-.55-.91-.61-1ZM92.26,22.22c-.94-1.08-2.91-.42-3.98.14-2.03,1.07-5.4,4.19-7.33,6.09-1.18,1.16-2.24,2.48-3.28,3.78,3.44-2.09,6.15-5.29,9.36-7.64,1.44-1.06,3.4-2.75,5.23-2.37ZM14.21,23.16v.24l.12-.12-.12-.12ZM93.68,28.56c-.09-.13-.33-2.57-.5-3.14-.29-.93-.77-2.3-1.92-2.2-.5.04-3.04,1.7-3.55,2.09-1.85,1.42-3.75,3.5-5.59,5-2.59,2.1-7.22,4.42-8.47,7.54-.58,1.45-.72,3.75-1.23,5.36-1.06,3.38-3.1,6.4-5.04,9.2-.21.3-.89,1.67-1.05,1.77-.07.04-.41-.22-.43-.2-.09.13.09.81,0,.94-.02.03-.38-.24-.43-.21-.08.05-.32.81-.58,1.07-.93.9-2.74,1.44-1.8,3.02,2.62,4.39,11.93,10.69,16.63,12.79,19.75,8.83,18.13-12.66,16.92-25.15-.17-1.73-.45-1.62-.12-3.41.02-.13-.42-.07-.47-.27-.35-1.35-.28-3.45-.5-4.87-.49-3.1-1.55-6.31-1.39-9.45-.14-.06-.44.14-.46.12ZM94.03,23.39v.24l.12-.12-.12-.12ZM13.56,56.38c-.04-.07-.43-.18-.61-.43-4.69-6.72-2.5-20.24-.44-27.9.1-.38,1.73-4.4,1.23-4.42-.93,1.12-1.14,2.46-1.69,3.71-.88,1.99-2.11,4.48-2.83,6.83-1.95,6.37-4.96,19.1,3.03,22.49.6.25,1.93.73,1.32-.27ZM94.5,24.57v.24l.12-.12-.12-.12ZM95.09,26.22c.16-.36-.12-.96-.23-.7-.16.36.12.96.23.7ZM95.56,26.45c-.62-.59-.29,1.34-.23,1.41.61.79.31-1.34.23-1.41ZM55.53,27.16c.17-.33-.15-.63-.23-.47-.17.33.15.63.23.47ZM7.5,37.51c.52-3.5,1.92-6.87,3.3-10.12-2.53,2.28-3.49,6.15-3.62,9.46-.01.33-.18.53.32.65ZM56,28.8c.14-.27-.15-.54-.35-.7-.1.24.24.92.35.7ZM96.03,28.34c-.72-.82-.21,1.39,0,.94.04-.08.03-.9,0-.94ZM56.48,29.74l-.47-.47c-.07.49-.02.54.47.47ZM61.89,29.98c-.06-.07.13-.49-.12-.47l-1.77,1.41,2.82-.71c-.22-1.51-.57.15-.94-.24ZM63.54,29.98s.09-.5-.12-.47c-.64.37-.16.74.12.47ZM96.5,29.51c-.36-.38-.62.33-.47.7.3,0,.61-.55.47-.7ZM64.36,29.75v.24l.12-.12-.12-.12ZM59.77,30.69c-.32-.14-1.59.28-1.17.7.14.14,1.4-.6,1.17-.7ZM67.18,31.99c-.63-.63-.7-.8-1.68-.99-.45-.09-2.91-.09-3.13.38,2.36.45,3.97,2.24,4.66,4.64l2.17,3.36c.41-1.53-.23-2.97-.39-4.38-.03-.26.23-.69.16-.8-.03-.05-.45.26-.47.24-.1-.1-.54-1.69-1.31-2.46ZM96.5,31.39c.17-.33-.15-.63-.23-.47-.17.33.15.63.23.47ZM56.6,31.16c-.53.36-.29.68,0,.23.08-.12.19-.12,0-.23ZM58.24,31.4c-.53.36-.29.68,0,.23.08-.12.19-.12,0-.23ZM62.01,31.39v.24l.12-.12-.12-.12ZM72.25,39.16c.13-.19-.19-4.12-.38-4.48-.12-.22-1.96-2.3-2.19-2.47-.25-.19-1.21-.75-1.42-.58-.13.1,1.25,2.32,1.45,2.9,1.78,5.14-1.21,13.23-4.08,17.66-.21.33-.7,1.18-.74,1.25-.68.9-2.31,1.97-3.1,2.89-.33,1.32,1.16-.03,1.64-.47,3.35-3.03,5.56-7.63,7.6-11.41l1-3.76-1.41.47c.94-.17.82-1.96,1.19-2.22.04-.03.43.25.45.22ZM96.62,31.63v.24l.12-.12-.12-.12ZM63.67,32.91c-2.78-1.67-5.96.08-8.06,2.09-.2.19-1.21,1.18-1.27,1.25-.15.18-1.26,2.11-1.17,2.19.2.19,2.03-1.73,2.37-1.98,2.52-1.85,5.84-2.62,8.86-1.83.17.04,1.36,1.05.79-.07-.37-.72-.84-1.25-1.52-1.65ZM6.56,34.69l-1.22,1.48c-2.41,5.95-5.21,12.75-3.84,19.23s6.98,7.8,12.6,8.7c.19-.56-.62-.69-1-.78-.94-.22-1.83-.03-2.7-.33-7.09-2.51-4.9-11.83-4.6-17.84.11-2.29-.18-4.62.05-6.57.15-1.31.54-2.59.72-3.89ZM66.06,36.64c-.04-.06-.74-.54-.88-.61-6.2-3.14-13.55,3.45-14.34,9.62-.39,3.05-.5,10.19,3.45,10.86,7.32,1.25,12.39-10.7,12.32-16.54,0-.64-.26-2.86-.56-3.34ZM50.71,36.34v.24l.12-.12-.12-.12ZM67.66,38.69v.24l.12-.12-.12-.12ZM68.01,39.16c-.3-.37-.43.02-.47.35-.14,1.16-.09,2.84-.3,3.94-.3,1.56-1.2,3.32-1.58,4.89,1.06-1.16,2.58-3.79,2.77-5.36.04-.33-.3-3.67-.42-3.82ZM72.01,40.33c.17-.33-.15-.63-.23-.47-.17.33.15.63.23.47ZM46.23,45.75v.24l.12-.12-.12-.12ZM66.48,49.04v.24l.12-.12-.12-.12ZM66.01,49.51v.24l.12-.12-.12-.12ZM65.43,49.98c-.04.06-.23.92-.36,1.17.72-.25.61-1.53.36-1.17ZM49.3,50.69v.24l.12-.12-.12-.12ZM6.33,51.16v4.12c0,1.67,1.23,4.59,2.58,5.66,5.18,4.12,18.65-.4,24.19-2.67.57-.23,5.15-2.25,5.25-2.52.19-.49-.23-.33-.49-.25-.41.13-2.11,1.01-2.23,1.01-.21,0-.42-.49-.58-.4-.03.01.02.33-.06.37-.16.09-.52-.16-.65.21-.09.24.59-.07.47.35l-1.65-.23c-.33.71.53.19.46.35-.53,1.29-1.21-.15-1.29-.11-.38.19-.23.88-.5.95-.42.11-1.28-.03-1.87.11-.73.16-1.65.63-2.35.82-.18.05,0-.41-.23-.48-.53-.14-.24.41-.5.48-1.25.32-4.44.03-5.87-.02-.9-.03-1.08-.17-1.15-.18-.32-.02-1.43.2-1.67.16-.17-.03-.05-.46-.22-.43-.14.02-.37.38-.71.39-.23,0-3.68-.73-4.2-.87-2.47-.71-3.59-1.55-5.33-3.45l-1.42-3.36ZM64.38,52.47c.56-.69.98-1.61-.02-.61-.85.85-1.62,1.82-2.46,2.7-1.39,1.47.38.31,1-.34.22-.23.2-.56.43-.8.28-.3.79-.62,1.06-.96ZM51.22,56.19c-.27-.32-.59-.39-.87-.91-.54-.99-.43-2.87-1.4-3.66.38,2.97.78,6.76,4.58,6.81.28,0,.88.2.83-.22-.48-.2-1.61-.5-1.96-.7-.06-.03-1-.73-1.04-.78-.09-.09-.03-.41-.14-.54ZM45.29,52.1v.24l.12-.12-.12-.12ZM41.41,54.22c-.33-.17-.63.15-.47.23.33.17.63-.15.47-.23ZM39.88,54.69v.24l.12-.12-.12-.12ZM39.52,55.39c.5-.43-1.53-.49-.94.24.03.04.9-.21.94-.24ZM60.36,56.1v.24l.12-.12-.12-.12ZM14.33,57.28c.17-.33-.15-.63-.23-.47-.17.33.15.63.23.47ZM32.81,57.04v.24l.12-.12-.12-.12ZM63.41,62.58c-.38-.58-.85-1.28-1-1.96-.13-.62.39-2.8-1.23-2.01-.73.35-1.33,1.74-.69,2.19.03.02.36-.24.42-.2.08.05.72,1.36.99,1.67.78.92,1.87,2.01,2.76,2.69.19.15.31.3.29.55.47.07,0-1.32-.04-1.37-.22-.27-.18.68-.5-.63-.02-.07-.6-.3-1.01-.93ZM62.72,60.1v.24l.12-.12-.12-.12ZM63.59,61.23c-.14-.25-.03-.61-.05-.89-.68.4.17,1.57.59,1.88.83-.57-.42-.78-.54-.99ZM66.42,64.49c-.15-.13-.97-.91-1.01-.96-.31-.42-.12-1.12-.69-1.31.66,2.8,4.29,5.56,6.83,6.7.47.21,1.11.11,1.31.2.24.11.42,1.03.8.62.08-.09-.8-.95-.96-1.06-2.03-1.32-4.48-2.63-6.28-4.2ZM65.89,65.52c-.33-.17-.63.15-.47.23.33.17.63-.15.47-.23ZM66.36,65.99c-.33-.17-.63.15-.47.23.33.17.63-.15.47-.23ZM67.54,68.57c.17-.33-.15-.63-.23-.47-.17.33.15.63.23.47ZM69.35,69.38c-.5-.22-1.06-.4-1.45-.81-.2-.03-.15.4-.11.46.12.19,2.69,1.82,3.11,2.12.2.14.25.43.44.56,1.83,1.23,3.8,2.31,5.86,3.1-.35-.9-.83-.62-.88-.66-2.03-1.34-4.85-3.83-6.96-4.77ZM76.49,71.39c-.34-.63-1.21-.9-1.88-.82l1.88.82ZM77.08,71.4v.24l.12-.12-.12-.12ZM78.02,71.87c-.23.16.13.32.24.46.23-.15-.11-.31-.24-.46ZM82.14,73.51c-.5.55,2.32,1.44,2.59,1.52,3.89,1.18,7.76.91,9.65-3.17-1.03.63-1.87,1.78-3.05,2.19-.38.13-3.24.89-3.41.88-.14,0-.1-.41-.24-.45-.45-.15-2.27.63-2.83-.27-.36,1.03-.22.15-.52,0s-.9-.03-1.27-.14c-.27-.09-.86-.63-.91-.57ZM80.02,73.04c-.05-.43-1.19-.87-1.41-.7s1.13.83,1.41.7ZM76.72,72.57c-.33-.17-.63.15-.47.23.33.17.63-.15.47-.23ZM77.08,73.04v.24l.12-.12-.12-.12ZM80.72,73.04c-.27-.27-.76.1-.12.47.2.03.13-.45.12-.47ZM81.67,73.52s-.68-.27-.7-.24c-.53.63,1.06.55.7.24ZM79,73.85c-.2-.07-1.31-.56-1.34-.1,2.51,1.17,5.27,3.33,8.11,3.54.49.04,2.45.03,2.72-.25.63-.66-1-.31-1.19-.34-3.44-.54-5.42-1.82-8.31-2.85ZM77.43,75.16s.78.37.93.36c-.09-.49-1.29-.73-.93-.36ZM89.79,77.51v.24l.12-.12-.12-.12Z"/>
        <polygon class="cls-1" points="71.43 37.28 71.54 37.39 71.43 37.51 71.43 37.28"/>
      </g>
    </g>
  </g>
</svg>