<?xml version="1.0" encoding="UTF-8"?>
<svg id="Layer_2" data-name="Layer 2" xmlns="http://www.w3.org/2000/svg" viewBox="0 0 101.7 80.39">
  <g id="Bows">
    <g id="Layer_17_Image" data-name="Layer 17 Image">
      <g>
        <polygon points="39.84 6.56 39.96 6.68 39.84 6.8 39.84 6.56"/>
        <g>
          <path d="M48.71,4.51c1.14,1.06,2.73,2.18,3.69,3.43,3.21,4.17,7.68,15.39,8.58,20.59.06.36-.17.85-.08,1,.29.46,2.95-.35,3.82-.22,1.08.17,2.3,1.04,3.2,1.35.23.08.6-.11.79-.03,2.36.9,5.21,2.31,5.49,5.12,1.77-2.17,4.04-4.06,5.96-6.18,2.03-2.23,3.87-4.82,5.9-6.96.87-.92,3.59-3.95,4.44-4.43,2.96-1.66,3.13,1.22,4.18,2.72.9,1.29,1.83,1.41,2.75,3.48,4.62,10.4,5.26,30.55,3.04,41.81-.59,3.02-3.88,10.03-5.99,12.08-2.9,2.81-5.6,2.31-9.27,1.38-.76-.19-2.06-.89-2.76-1.08-.18-.05-.04.55-.23.48-.3-.1-1.08-.72-1.34-.81-.79-.27-1.06-.26-1.86-.6-1.17-.51-3.79-1.6-4.75-2.27-.2-.14-.24-.52-.44-.63-.23-.13.05.61-.36.48.2-.91-.36-.6-.69-.87-2.09-1.69-4.54-3.3-6.44-5.17-.45-1.21-2.01-2.02-3.09-2.71-.17-.92.34-.39.88-.94-1.15-.17-1.76-1.71-2.39-2.57-.17-.23-.52-.31-.7-.57-.26-.37.16-1.04-.73-1.05l.48-.47c-.78-.28-1.14.61-1.38.7-2.84,1.02-6.29,1.2-9.16.15-.55-.2-1.57-1.38-1.99-1.3-.2.04-.49.49-.81.63-3.78,1.61-6.35,2.35-10.18,3.42-.13.04-1.23,1.37-1.14.23-.41.16-.24.6-.94.61-.4,0-.61-.44-.73-.36-1.25.8-2.37.84-4.06,1.09-7.7,1.1-20.97,1.45-27.09-3.82-1.01-.87-2.37-3.18-2.75-4.45-1.82-6.12,1.18-15.39,3.92-21.46.71-1.57,1.92-3.21,2.6-4.82,2.29-5.41,3.07-10.04,6.68-15.1,3.34-4.69,6.48-6.47,10.76-9.83,1.45-1.14,2.6-2.77,4.21-3.93,4.65-3.35,6.62-2.83,11.86-2.08,1.25.18,2.4-.08,3.74.33,2.14.66,2.93,2.26,4.4,3.62ZM38.76,1.06c-1.41.27-2.76-.08-4.25.08-2.05.23-4.34,1.61-5.81,3.03,3.08-1.22,6.59-.99,9.53-2.57.3-.16.67.16.52-.54ZM43.71,2.81c-.95-.57-1.9-.61-2.92-.93l-2.51.85c2.23.24,4.42,1.03,6.38,2.12,1.43.79,2.77,2.02,3.75,3.2.3.36.19.56.88.43-1.08-1.02-1.17-2.65-2.16-3.7-.6-.63-1.18-.64-1.85-.99-.25-.13-.31-.52-.35-.53-.46-.19-.13.22-1.23-.44ZM38.95,4.08c-.76.24-2.1-.95-2.82.08.42,0,.85-.04,1.26.06,3.08.75,9.18,4.82,11.35,7.2.16.17,1.18,2,1.28,2.07.09.06.47-.31.47-.36,0-.19-1.67-2.91-1.92-3.29-.19-.28-.74-.64-1.02-.97-1.3-1.54-1.54-1.88-3.18-2.78-1.73-.96-3.43-1.7-5.25-2.41-.2-.08-.08.36-.17.39ZM24.96,10.49c2.33-1.93,4.95-3.59,7.33-5.48-2.24.37-4.06,1.53-5.92,2.92-2.58,1.93-4.87,4.53-6.77,7.13.24.39.53-.08.72-.24,1.6-1.34,3.03-3,4.64-4.33ZM56,31.93c-1.21-3.54-1.75-7.49-3-11.01-.68-1.91-2.75-5.6-3.7-6.82-1.41-1.8-2.88-3.53-4.74-4.9-.71-.52-2-1.35-2.81-1.44.23-.92-.13-.21-.61-.38-.39-.14-.92-.94-1.02-.98-.66-.32-3.3-1.19-4.06-1.36-1.97-.43-4.21,1.35-5.78,2.52-3.13,2.32-10.41,8.42-12.52,11.41-4.19,5.94-6.74,21.87-6.24,29.1.29,4.2,1.31,8.78,5.87,10.11,5.58,1.63,18.67-1.74,24.47-3.4.39-.11.87-.54,1.08-.59.24-.06.05.36.12.48.16.26.24-.38.41-.47,1.23-.61,2.72-.72.97.64-.06.05-.25-.13-.36-.08-1.21.56-3.01,1.94-4.44,2.7-4.05,2.14-9.19,4.36-13.83,5.65-.5.14-1.84.12-1.91.18-.04.03.28.44.24.48l-9.58,1.31,3.08.46c8.43.2,17.62-.69,25.38-3.59.52-.19,4.01-1.59,4.16-1.75.95-1-.42-1.37-.72-2.12-.46-1.15-.29-2.9-.54-3.96-.04-.19-.47-.16-.48-.3-.23-4.25,2.57-12.05,4.82-15.69,1.64-2.66,3.59-4.3,5.72-6.18.29,1.04-1.27,1.39-1.6,1.74-.17.18-1,1.21-1.24,1.53-.42.53-1.6,2.83-1.75,2.92-.07.05-.42-.23-.44-.21-.06.07-.33,1.34-.53,1.75-2.44,4.9-4.63,10.69-3.48,16.49.28,1.4,1.31,4.11,3.05,2.82-.09.5-.88.21-.73,1.07.12.67,4.35,1.43,5.16,1.42.86,0,2.91-.35,3.76-.63.49-.16,3.91-2.03,4.02-2.23.61-1.23-1.08-.05-1.19-.02-.24.08-.68-.16-.72-.1-.11.14.32,1.23-.6,1.1-.25-.04-.4-.38-.89-.34-1.08.08-2.4,1.28-4.09,1.31-1.12.02-1.61-.57-1.71-.58-.18-.01-.41.27-.83.09-.11-.05-1.77-1.31-1.85-1.4-.88-.9-1.57-4.27-1.63-5.57-.31-6.31,2.68-13.88,6.59-18.82.25-.32,1.65-1.4,1.67-1.51.18-.79-1.26.14-.48-1.31-.31-.03-.17.21-.48.48ZM26.43,6.32v.24l.12-.12-.12-.12ZM50.86,8.12c-.34-.39-.88-1.48-1.32-1.2,1.47,2.78,2.18,5.96,3.32,8.88,1.68,4.29,4.17,8.93,5.26,13.69.11.47-.16,1.02-.07,1.26.41,1.02,2.12-.3,2.18-.6.05-.27-1.12-4.66-1.33-5.29-1.15-3.5-2.72-6.76-4.07-10.08-.15-.36-.47-1.89-.55-1.96-.13-.13-.59.02-.67-.03-.03-.02.24-.37.12-.7-.32-.86-2.16-3.14-2.87-3.97ZM49.17,8.72v.24l.12-.12-.12-.12ZM20.71,11.5c.41-.61.95-1.37,1.17-2.06-1.41,1.59-3.24,2.89-4.68,4.42-3.13,3.33-5.58,7.96-7.3,12.07-.22.53-.38,1.11-.35,1.69l3.24-4.77c2.71-3.81,5.4-7.54,7.91-11.35ZM92.49,19.18c-.04-.06.11-.62-.21-.65-.79-.06-2.79,1.62-3.24,2.38.61-.4,3.91-.58,4.07-.72.37-.33-.56-.92-.62-1.02ZM93.83,22.59c-.95-1.09-2.96-.43-4.05.14-2.07,1.08-5.5,4.26-7.45,6.19-1.2,1.18-2.28,2.53-3.34,3.84,3.5-2.13,6.25-5.38,9.52-7.77,1.47-1.08,3.46-2.79,5.32-2.41ZM14.46,23.55v.24l.12-.12-.12-.12ZM95.27,29.05c-.09-.14-.33-2.61-.51-3.2-.29-.95-.78-2.34-1.95-2.24-.51.04-3.09,1.73-3.61,2.13-1.88,1.45-3.81,3.56-5.68,5.08-2.64,2.14-7.35,4.49-8.61,7.67-.59,1.47-.73,3.81-1.25,5.45-1.08,3.44-3.16,6.51-5.13,9.35-.21.31-.91,1.7-1.07,1.8-.07.04-.42-.23-.44-.2-.09.13.09.83,0,.96-.02.03-.39-.25-.44-.21-.08.05-.32.82-.59,1.08-.95.91-2.79,1.46-1.83,3.07,2.67,4.46,12.14,10.87,16.91,13.01,20.09,8.98,18.44-12.87,17.21-25.58-.17-1.76-.46-1.64-.12-3.47.03-.14-.43-.07-.48-.27-.35-1.38-.28-3.51-.51-4.96-.5-3.16-1.58-6.41-1.41-9.61-.14-.06-.45.14-.46.12ZM95.63,23.79v.24l.12-.12-.12-.12ZM13.79,57.34c-.04-.07-.44-.19-.62-.44-4.77-6.83-2.55-20.58-.45-28.38.1-.38,1.76-4.48,1.25-4.5-.94,1.14-1.16,2.5-1.72,3.78-.9,2.02-2.15,4.56-2.88,6.94-1.99,6.48-5.05,19.42,3.08,22.88.61.26,1.96.74,1.34-.28ZM96.11,24.99v.24l.12-.12-.12-.12ZM96.7,26.66c.17-.37-.12-.97-.23-.72-.17.37.12.97.23.72ZM97.18,26.9c-.63-.6-.29,1.37-.24,1.44.62.8.31-1.37.24-1.44ZM56.48,27.62c.17-.34-.15-.64-.23-.48-.17.34.15.64.23.48ZM7.63,38.15c.53-3.56,1.95-6.99,3.35-10.29-2.57,2.32-3.55,6.26-3.68,9.62-.01.33-.18.54.33.67ZM56.95,29.29c.14-.28-.15-.55-.36-.71-.1.24.24.94.36.71ZM97.66,28.82c-.73-.83-.21,1.41,0,.95.04-.08.03-.92,0-.95ZM57.44,30.25l-.48-.48c-.07.5-.02.54.48.48ZM62.94,30.49c-.07-.07.13-.5-.12-.48l-1.8,1.43,2.87-.72c-.22-1.54-.58.15-.96-.24ZM64.62,30.49s.09-.51-.12-.48c-.65.37-.16.75.12.48ZM98.14,30.01c-.37-.39-.63.34-.48.72.31,0,.62-.56.48-.72ZM65.46,30.25v.24l.12-.12-.12-.12ZM60.79,31.21c-.33-.15-1.62.29-1.19.71.14.14,1.43-.61,1.19-.71ZM68.32,32.54c-.64-.64-.71-.81-1.71-1-.46-.09-2.96-.09-3.18.39,2.4.46,4.04,2.28,4.74,4.72l2.2,3.42c.42-1.56-.23-3.02-.4-4.46-.03-.26.23-.7.16-.81-.04-.05-.46.26-.47.24-.1-.1-.55-1.72-1.33-2.5ZM98.14,31.93c.17-.34-.15-.64-.23-.48-.17.34.15.64.23.48ZM57.56,31.69c-.54.36-.3.69,0,.23.08-.12.19-.13,0-.23ZM59.23,31.93c-.54.36-.3.69,0,.23.08-.12.19-.13,0-.23ZM63.06,31.93v.24l.12-.12-.12-.12ZM73.48,39.83c.13-.19-.19-4.19-.39-4.55-.12-.22-1.99-2.33-2.23-2.52-.26-.19-1.23-.76-1.45-.59-.13.1,1.27,2.36,1.47,2.95,1.81,5.23-1.23,13.46-4.15,17.96-.21.33-.71,1.2-.76,1.27-.69.92-2.35,2-3.15,2.94-.34,1.35,1.18-.03,1.67-.48,3.41-3.08,5.66-7.76,7.72-11.6l1.02-3.82-1.43.48c.95-.18.84-1.99,1.21-2.26.04-.03.44.25.46.23ZM98.26,32.17v.24l.12-.12-.12-.12ZM64.76,33.47c-2.83-1.7-6.06.08-8.2,2.13-.2.19-1.23,1.2-1.29,1.28-.15.19-1.28,2.14-1.19,2.23.21.2,2.07-1.76,2.41-2.02,2.56-1.88,5.93-2.66,9.01-1.86.17.04,1.39,1.07.8-.07-.38-.73-.86-1.27-1.55-1.68ZM6.67,35.28l-1.24,1.51c-2.45,6.05-5.3,12.96-3.91,19.56s7.1,7.94,12.81,8.85c.19-.57-.63-.7-1.02-.79-.96-.22-1.86-.03-2.74-.34-7.21-2.56-4.98-12.03-4.68-18.14.12-2.33-.19-4.7.05-6.68.16-1.33.55-2.64.73-3.96ZM67.18,37.26c-.04-.06-.75-.55-.89-.62-6.31-3.2-13.78,3.5-14.58,9.78-.4,3.1-.51,10.36,3.51,11.05,7.44,1.27,12.6-10.88,12.53-16.82,0-.66-.26-2.91-.56-3.39ZM51.57,36.95v.24l.12-.12-.12-.12ZM68.81,39.35v.24l.12-.12-.12-.12ZM69.17,39.82c-.3-.38-.44.02-.48.36-.14,1.18-.09,2.89-.31,4.01-.31,1.59-1.22,3.38-1.61,4.97,1.08-1.18,2.62-3.86,2.82-5.45.04-.33-.31-3.73-.43-3.89ZM73.24,41.02c.17-.34-.15-.64-.23-.48-.17.34.15.64.23.48ZM47.02,46.53v.24l.12-.12-.12-.12ZM67.61,49.88v.24l.12-.12-.12-.12ZM67.13,50.35v.24l.12-.12-.12-.12ZM66.54,50.83c-.04.06-.23.93-.36,1.19.73-.25.62-1.56.36-1.19ZM50.13,51.55v.24l.12-.12-.12-.12ZM6.43,52.03v4.19c0,1.69,1.25,4.67,2.62,5.76,5.27,4.19,18.97-.4,24.6-2.72.58-.24,5.24-2.28,5.34-2.56.19-.5-.23-.34-.5-.25-.42.13-2.14,1.03-2.27,1.02-.21,0-.43-.49-.59-.4-.03.01.02.33-.06.38-.17.1-.53-.16-.67.22-.09.25.6-.07.48.36l-1.67-.24c-.34.73.54.19.47.36-.54,1.31-1.23-.16-1.31-.12-.39.19-.24.9-.51.97-.43.12-1.3-.03-1.9.11-.74.17-1.68.64-2.39.84-.18.05,0-.42-.24-.48-.54-.14-.24.42-.51.49-1.27.32-4.51.04-5.96-.02-.92-.04-1.1-.18-1.17-.18-.32-.02-1.45.2-1.7.16-.17-.03-.05-.47-.22-.44-.14.03-.38.39-.73.39-.23,0-3.74-.74-4.27-.89-2.51-.72-3.66-1.57-5.42-3.51l-1.44-3.41ZM65.47,53.36c.57-.71.99-1.64-.03-.62-.87.87-1.65,1.85-2.5,2.75-1.42,1.5.39.31,1.02-.34.22-.23.21-.56.44-.82.28-.31.8-.63,1.07-.97ZM52.09,57.15c-.28-.33-.6-.39-.89-.92-.55-1-.43-2.92-1.42-3.72.38,3.02.79,6.88,4.66,6.93.29,0,.9.2.84-.22-.49-.21-1.63-.51-1.99-.72-.06-.04-1.01-.75-1.06-.79-.09-.09-.03-.42-.14-.55ZM46.06,52.99v.24l.12-.12-.12-.12ZM42.11,55.14c-.34-.17-.64.15-.48.23.34.17.64-.15.48-.23ZM40.56,55.62v.24l.12-.12-.12-.12ZM40.2,56.33c.51-.44-1.56-.5-.96.24.03.04.92-.21.96-.24ZM61.39,57.05v.24l.12-.12-.12-.12ZM14.57,58.25c.17-.34-.15-.64-.23-.48-.17.34.15.64.23.48ZM33.37,58.01v.24l.12-.12-.12-.12ZM64.49,63.65c-.39-.59-.87-1.3-1.02-2-.13-.63.39-2.85-1.25-2.05-.74.36-1.35,1.77-.7,2.23.03.02.36-.24.43-.2.08.05.74,1.38,1,1.69.8.94,1.9,2.04,2.81,2.73.2.15.32.3.3.56.48.08,0-1.34-.04-1.39-.23-.28-.18.69-.51-.64-.02-.07-.61-.3-1.03-.94ZM63.78,61.12v.24l.12-.12-.12-.12ZM64.67,62.27c-.14-.25-.03-.62-.05-.91-.7.41.17,1.6.6,1.91.84-.58-.43-.79-.55-1ZM67.55,65.58c-.15-.13-.99-.92-1.03-.98-.32-.43-.12-1.14-.7-1.33.67,2.85,4.37,5.66,6.95,6.82.47.21,1.13.12,1.33.21.24.11.43,1.05.81.63.09-.09-.81-.97-.98-1.08-2.07-1.34-4.56-2.67-6.39-4.27ZM67.01,66.63c-.34-.17-.64.15-.48.23.34.17.64-.15.48-.23ZM67.49,67.11c-.34-.17-.64.15-.48.23.34.17.64-.15.48-.23ZM68.69,69.74c.17-.34-.15-.64-.23-.48-.17.34.15.64.23.48ZM70.53,70.56c-.51-.23-1.08-.41-1.48-.82-.2-.03-.15.41-.11.47.12.19,2.73,1.85,3.17,2.16.2.14.26.44.45.57,1.86,1.25,3.87,2.34,5.96,3.15-.35-.92-.84-.63-.9-.67-2.06-1.36-4.93-3.89-7.08-4.86ZM77.79,72.61c-.34-.64-1.23-.91-1.91-.84l1.91.84ZM78.39,72.61v.24l.12-.12-.12-.12ZM79.34,73.09c-.24.17.13.33.24.47.24-.16-.11-.32-.24-.47ZM83.54,74.76c-.51.56,2.36,1.47,2.64,1.55,3.96,1.2,7.9.93,9.81-3.22-1.05.64-1.9,1.81-3.11,2.23-.38.13-3.29.9-3.47.9-.14,0-.11-.42-.24-.46-.46-.15-2.31.65-2.88-.27-.37,1.05-.22.15-.53,0s-.92-.03-1.29-.14c-.27-.09-.87-.64-.93-.58ZM81.38,74.28c-.05-.44-1.21-.88-1.44-.71s1.15.84,1.44.71ZM78.03,73.81c-.34-.17-.64.15-.48.23.34.17.64-.15.48-.23ZM78.39,74.28v.24l.12-.12-.12-.12ZM82.1,74.28c-.28-.27-.77.1-.12.48.21.03.13-.46.12-.48ZM83.05,74.77s-.69-.27-.71-.24c-.54.64,1.08.56.71.24ZM80.35,75.1c-.2-.07-1.33-.57-1.36-.1,2.56,1.19,5.36,3.39,8.25,3.6.5.04,2.5.03,2.76-.25.64-.67-1.02-.31-1.21-.34-3.5-.55-5.51-1.85-8.45-2.9ZM78.75,76.43s.79.38.95.36c-.09-.5-1.32-.74-.95-.36ZM91.32,78.83v.24l.12-.12-.12-.12Z"/>
          <polygon points="72.64 37.91 72.76 38.03 72.64 38.15 72.64 37.91"/>
        </g>
      </g>
    </g>
  </g>
</svg>