<?xml version="1.0" encoding="UTF-8"?>
<svg id="Layer_3" data-name="Layer 3" xmlns="http://www.w3.org/2000/svg" viewBox="0 0 85.23 89.38">
  <g id="Bows">
    <g id="Layer_16_Image" data-name="Layer 16 Image">
      <g>
        <path d="M52.67,30.52c.23.09,1.09.33,1.2.24-.13-2.81-.31-5.68-.24-8.51.14-5.26,1.59-15.98,4.49-20.38.66-1.01,2.49-1.99,3.69-1.86.66.07,1.1.63,1.56.74.5.12,1.19,0,1.8.16,4.88,1.3,8.86,10.6,10.6,15.02.32.81.33,1.95.62,2.68,4.39,10.95,11.88,24.32,7.52,36.58-.73,2.05-1.31,2.72-3.24,3.59.1-.54-.22-.01-.24,0-.81.54-.61.2-1.2.24-.03,0,.02-.02-.24,0-.29.02-.9.24-.94.21-.11-.09.16-.55-.26-.45l-.1.45-5.96-.78c-3.24-1.52-6.69-2.92-10.46-4.14-.24-.08-.42-.57-.84-.58-.1,0-1.46.82-1.69.97-4.78,3.23-8.56,5.08-14.04,7.22-3.04,1.19-3.78,1.4-7.08.51-.39-.1-.83-.55-.88-.55-.47,0-.6,2.67-.7,3.12-1.78,7.72-4.94,15.38-11.41,20.43-1.41,1.1-3.44,2-5.24,2.06-.06.35.45.31.71.36,7.07,1.41,9.52-3.87,12.19-9.37,2.03-4.19,3.4-9.21,5.64-13.27.15-.27.26-.65.61-.71-.03.64-.13,1.34-.32,1.96-.78,2.61-2.06,5.26-3.01,7.57-2.44,5.9-5.87,16.1-13.73,15.3-.52-.05-2.86-.54-2.81-1.12-.43-.1-.15.41-.24.47-.26.2-1.75-.97-2.1-1.17-.3-.17-.79-.11-1.06-.28-.33-.21-.87-1.11-.94-1.14-.14-.07-.6.3-.68.2-.05-.05.1-.48-.05-.65-.15-.16-1.47-.74-1.62-.88-4.29-4.27-4.52-8.49-6.3-13.83-2.1-6.28-4.26-11.1-5.15-17.83s-1.48-20.59,5.15-24.69c10.67-6.59,20.08,4.77,26.52,11.92.5-.34.26-.97.49-1.42,1.51-2.97,7.88-8.19,11.13-9,1.85-.46,6.99-.29,8.6.61.02.01.24.53.24,0ZM59.5,1.56v.24l.12-.12-.12-.12ZM61.41,1.57c-.15.21-.7.47-.48.71.13-.19.68-.45.48-.71ZM65.12,2.28s.79.38.95.36c-.09-.5-1.32-.74-.95-.36ZM58.78,2.28v.24l.12-.12-.12-.12ZM63.19,2.3c-.24-.21-1.28,0-1.18.57.55.19,4.33,4.16,4.55,3.95.23-.22-3.02-3.62-3.27-3.92-.14-.16-.04-.56-.09-.61ZM58.9,2.76c-.34-.17-.64.15-.48.23.34.17.64-.15.48-.23ZM69.19,5.63c.26-.3-2.58-3.13-2.87-2.87-.38.33,1.43,1.34,1.51,1.42.07.07,1.08,1.76,1.35,1.45ZM58.06,3.48v.24l.12-.12-.12-.12ZM61.85,4.35c-.32-.25-.35-1.09-1.15-.14-1.07,1.27-1.24,8.5-1.44,10.53-.43,4.2-.93,7.53-1.45,11.73-.13,1.06-.27,1.01-.35,1.35-.09.4.15,1.3-.02,2.04-.01.06-.61.78-.69.9.03-.76-.05-1.53-.01-2.28.25-4.95,1.28-9.91,1.68-14.84.03-.32.2-1.48-.23-1.55-.42,2.03-.49,4.04-.81,6.06-.58,3.7-1.92,9.07-1.83,12.74.04,1.68.82,1.28,1.68,2.21,2.4,2.6,1.36,4,2.28,6.75.43,1.28,1.79,2.61,1.98,3.53.2.97-.25,2.73-.16,3.02.02.07.91,1.02.98,1.05.1.05.45-.19.66-.06,5.33,3.44,9.18,7.28,16.41,6.84,2.23-.13,1.84-.89,1.8-2.79-.14-6.9-5.12-22.32-7.54-29.04-3.01-8.35-4.84-12.69-11.76-18.06ZM66.43,4.44c-.24.17.13.33.24.47.24-.16-.11-.32-.24-.47ZM57.94,4.91c-.54-.19-.75.88-.84,1.19-.22.79.17,1.32-.59,1.07.57.96-.4,2.47-.62,3.46-.84,3.78-1.34,7.79-1.5,11.66-.02.4-.03.99.32,1.28.25-4.84,1.5-9.5,2.38-14.24.28-1.49.18-2.97.85-4.43ZM68.37,6.45c-.32-.35-1.12-1.45-1.57-1.19.7.41.81,1.14,1.2,1.69s1.39,1.52,1.83,2.12c.7.96,1.15,2.29,2.12,3.01-.99-1.94-2.13-4.03-3.58-5.63ZM69.54,6.11c-.24.17.13.33.24.47.24-.16-.11-.32-.24-.47ZM70.27,7.07v.24l.12-.12-.12-.12ZM70.86,8.02c.17-.34-.15-.64-.23-.48-.17.34.15.64.23.48ZM71.94,9.7v.24l.12-.12-.12-.12ZM58.66,10.42c.17-.34-.15-.64-.23-.48-.17.34.15.64.23.48ZM58.54,10.9v.24l.12-.12-.12-.12ZM72.54,13.05c.14-.28-.15-.55-.36-.71-.1.24.24.94.36.71ZM72.9,13.77v.24l.12-.12-.12-.12ZM72.42,16.64v.24l.12-.12-.12-.12ZM73.49,19.03c.17-.2-.36-1.02-.6-1.19-.14.28.43,1.39.6,1.19ZM75.65,21.19c0-.94-.48-2.22-1.19-2.87l1.19,2.87ZM76.48,26.37c-.64-1.78-1.29-3.84-2.02-5.55-.16-.37-.51-1.39-.96-1.43l6.93,22.14c-.13-1.37-.28-2.77-.54-4.12-.71-3.67-2.21-7.7-3.41-11.04ZM76.25,22.39v.24l.12-.12-.12-.12ZM54.59,24.78c.16-.35-.08-1.29-.23-.95-.16.35.08,1.29.23.95ZM14.38,27.89c-.82-.4-2.81-.5-3.7-.34-2.18.39,1.82,1.16,2.33,1.35,5.6,2.07,8.59,5.41,13.26,8.76.38.27,4.22,3.12,4.38,2.92.47-.6-1.7-2-2.05-2.37-2.27-2.43-4.62-5.34-7.83-7.5-.75-.51-1.62-1.2-2.56-1.7-1.19-.63-2.54-.75-3.59-1.12,0-.39-.33-.19-.24,0ZM84.27,45.6c-.55-3.77-1.17-7.55-2.33-11.17-.44-1.35-1.45-2.72-1.41-4.16l-1.28-2.39c.39,2.47,1.22,4.92,1.85,7.36.85,3.26,1.61,6.59,2.63,9.83.13.41-.1.63.54.52ZM8.16,29.32c0-.16-.26-.44-.36-.47-.57-.19-.61.75.36.47ZM8.4,28.85c-.34.4.75,1.12.95.36.01-.05-.92-.4-.95-.36ZM12.17,29.87c-.23-.1-2.39-.3-2.09.29.15.3,1.48.89,1.81,1.17,6.27,5.2,11.72,11.92,19.72,14.64-1.03-1.61-2.32-2.77-3.58-4.13-2.03-2.18-4.6-5.23-7.43-6.65-.18-.09-2.31-2.04-3.05-2.49-1.63-.97-3.81-2.13-5.37-2.83ZM8.06,31.15c.75-1.18-.3-.62-.69-.71-.68-.15-.82-.92-1.57.24-1.5,2.31-1.44,12.93-1.21,16,.04.53.24,1.03.22,1.56.38.02.3-.87.33-1.17.35-4.02.9-12.72,2.92-15.92ZM47.41,30.52c-4.76,0-9.47,3.29-12.41,6.85-.19.23-.24.77-.29.8-.04.03-.42-.26-.46-.23-.13.1-1.19,2.83-1.19,2.99,0,.45.55,1.32,1.06,1.32.09,0,.41-1.47.6-1.79.89-1.53,6-6.51,7.6-7.53,2.14-1.37,3.05-1.78,5.66-1.67.98.04,3.3.28,4.13.66.24.11,1.46,1.07,1.51,1,.79-1.13-1.3-.84-1.2-1.67l-.35.48c-.18-.98-2.64-.62-2.75-.72-.02-.02.26-.31.13-.47-.55.45-1.2.02-1.8,0-.15,0-.16,0-.24,0ZM10.84,32.36c-.36-.27-.77-1.51-1.73-1.36-1.64,4.17-2.43,8.6-2.88,13.06-.98,9.85-.69,17.63,3.01,26.91.15.37.01.84.17,1.14.41.77,4.41,4.09,5.32,4.61.77.44,3.91,1.73,4.68,1.79,2.27.16,5.03-1.01,6.68-2.51.27,1.28-.39.77-.82,1.2-1.21,1.2-.98.66-1.53,1-.1.06-.16.55-.5.77-1.54.98-5.77.39-7.44-.25-.27-.1-.46-.58-.7-.68-.42-.17-.87.62-.73-.61-.85.59-.3-.26-.48-.48-.1-.13-.33.44-.71.36-.81-.16-1.44-2.34-2.16-1.8-.22.16,2.13,4.46,2.39,4.85,2.65,3.95,7.72,6.09,11.84,2.8,2.78-2.21,8.23-13.26,9.48-16.87.23-.65,1.15-4.76,1.15-5.28,0-.12-.31-.1-.33-.16-.34-.98-1.04-2.4-1.26-3.17-.11-.41.11-1.29-.19-2.02-.22-.53-1.2-1.17-1.24-1.25-.05-.11.23-.42.07-.67-1.13-1.82-.44-1.24-.85-2.96-.04-.18-.47-.15-.48-.3-.02-.71.38-2.19.17-2.91-.09-.32-3.03-1.77-3.53-1.64-.25-.87-.9-.06-.83-1.05-.71.92-.56.04-1.15-.34-.44-.28-2.45-1.03-2.53-1.15-.31-.41-.46-1.78-1.47-1.15.48-.75-.08-.36-.58-.74-.75-.57-2.75-2.24-3.1-2.75-.33-.48-.71-.39-.74-.42-2.24-2.15-4.49-4.09-7.02-5.98ZM3.49,32.2c-.51.53-.87,1.46-1.15,2.15-1.77,4.38-1.5,13.33-.87,18.05.12.89.33,2.32.82,3.01-.61-7.72-.31-15.61,1.2-23.21ZM46.54,32.77c.24-.17.93-.14.75-.56-2.43.03-4.45,1.3-6.1,2.99,1.9-.53,3.75-1.3,5.35-2.43ZM49.2,32.44v.24l.12-.12-.12-.12ZM49.56,33.39c-.54-1.14-1.14-.1-1.91-.48-.19.92,1.39.32,1.91.48ZM51.66,32.77c-.2-.09-.59-.24-.66.03.69,1.24,1.81,1.47,2.87,2.28,0-1.68-.3-.82-.71-1.07-.27-.17-.95-.98-1.5-1.23ZM55.07,33.16c-.5-.07-.54-.02-.48.48l.48-.48ZM57.32,35.21c-.21-.34-.55-.69-.8-1.02-.29-.38.15-.69-.86-1.03l-.26,1.68,2.77,3.34c-.11-.63-.05-1.45-.22-2.04-.21-.71-.45-.64-.63-.94ZM52.29,36.17c-.21-.24-.16-.64-.58-.99-1.47-1.23-5.7-.81-7.3.13-1.69,1-5.04,3.48-6.7,4.79-.71.56-1.33,1.44-2.03,2.04.83.37,1.82.11,2.68.38.28.09.97.94,1.04.94.36-.01.85-.72,1.07-.49.35.37-1.08,2.17-1.56,1.91-.22-.12.2-1.09-1.02-1.37-1.87-.42-.94.66-.87,1.36.28,2.74.05,5.37.88,8.2.63,2.15,2.56,4.13,4.85,4.48,4.95.75,6.27-2.92,9.21-5.83,1.09-1.08,3.06-2.88,4.36-3.55.4-.21,3.05-.98,3.04-1.25,0-.12-.64-.52-.71-.72-.16-.45.41-.29.48-.51.16-.53-.82-3.96-1.26-4.32-.27-.22-.82-.25-1.19-.55-1.2-.99-3.4-3.55-4.39-4.65ZM40.94,35.79c.17-.34-.15-.64-.23-.48-.17.34.15.64.23.48ZM40.47,35.79c-.34-.17-.64.15-.48.23.34.17.64-.15.48-.23ZM55.43,35.79v.24l.12-.12-.12-.12ZM40.59,36.99v.24l.12-.12-.12-.12ZM55.07,37.46c.17-.34-.15-.64-.23-.48-.17.34.15.64.23.48ZM39.27,37.47s-.17.59-.12.71c.57-.28.32-.95.12-.71ZM3.73,37.7v.24l.12-.12-.12-.12ZM38.68,38.19c-.15.21-.7.47-.48.71.13-.19.68-.45.48-.71ZM3.85,38.9c-.34-.17-.64.15-.48.23.34.17.64-.15.48-.23ZM37.83,39.38c.17-.34-.15-.64-.23-.48-.17.34.15.64.23.48ZM37.24,39.38v.24l.12-.12-.12-.12ZM5.04,64.03l-1.91-23.22c-.09,1.06.24,2.49.21,3.45-.19,6.89-.22,11.31,1.22,18.24.12.56-.53,1.18.48,1.53ZM29.7,41.06c-.15-.13-.64-.05-.47.35.23.55,2.32,2.48,2.75,3.23-.14-.56,0-2.38-.12-2.63-.02-.04-.42.2-.97-.09-.45-.23-.47-.59-.5-.6-.22-.08-.44.18-.56.18-.21,0-.07-.4-.11-.44ZM6.36,41.53v.24l.12-.12-.12-.12ZM36.28,42.98c-.24.17.13.33.24.47.24-.16-.11-.32-.24-.47ZM33.49,43.5s-.62-.31-.67-.17c-.02.06.21,1.09.19,1.21-.02.15-.43.1-.43.21,0,.08.41,1.51.47,1.57.52.54.34-.13.4-.23.31-.59.39-2.07.04-2.59ZM36.16,44.41c-.68-.65-1.19,3.11-1.18,3.45.04.93.5,1.51,1.41,1.57-.33-.82.14-4.66-.24-5.02ZM84.26,46.08c-.34-.17-.64.15-.48.23.34.17.64-.15.48-.23ZM84.15,46.56v.24l.12-.12-.12-.12ZM83.31,47.52c-.78-1.02-.28,1.91-.29,2.03-.03,1.09-.37,2.32-.19,3.47.48-.1.4-.5.48-.84.12-.57.14-4.48,0-4.66ZM33.05,47.76c-.34-.43-.32-.2-.39.25-.13.93.25,1.99.18,2.95l.93,2.54c-.56-.84-.41-5.35-.72-5.74ZM61.92,48.09c-1.11-.7-1.13.04-.81,1.17s3.42,1.23,4.5,1.6c-.88-1.41-2.13-1.72-3.42-2.39-.14-.07-.18-.33-.27-.38ZM57.84,49.33c.21-.33.84-.89.46-1.33-.72.98-2.01,1.14-2.97,1.82-.18.13-1.87,1.6-2.05,1.78-.44.46-.13,1.19-.81.75l-3.63,4.27c.78-.26,1.78-.79,2.47-1.24,1.88-1.21,5.32-4.17,6.52-6.04ZM59.73,48.24v.24l.12-.12-.12-.12ZM5.05,49.43c.16-.18-.07-.95-.47-.96-.13.37.04,1.45.47.96ZM59.85,49.67s.03-.92,0-.96c-.04-.06-1.05.69-1.19.84.39-.2,1.15.17,1.19.12ZM32.45,49.67v.24l.12-.12-.12-.12ZM4.69,49.91v.24l.12-.12-.12-.12ZM36.33,50.7c-.12-.17-1.06-.69-1.36-.67.44,1.67-.33,4.32.64,5.81.45.68,2.03,1.96,2.78,2.25.5.19,3.62.81,3.75.67.05-.06-.02-.52,0-.72-.98.62-.94-.14-1-.16-2.06-.67-2.01-.9-3.09-2.32-.27-.35-.74-.67-.87-1.05-.3-.84-.35-3.15-.85-3.82ZM59.61,50.63c-1.43-.33-1.17-.07-1.91.55-2.87,2.39-4.1,4.22-8.19,6.22-1.74.85-5.91,2.26-7.99,2.29-.12,0-.1-.4-.22-.41-1.81-.09-2.44-.09-4.08-.57-.17-.05-.02-.43-.23-.43-1.19-.03-.37,1.33.75,1.66,4.91,1.43,12.17-1.25,16.53-3.52,2.37-1.23,4.83-2.97,5.34-5.79ZM66.31,50.87c-.34-.17-.64.15-.48.23.34.17.64-.15.48-.23ZM67.26,53.52l-5.61-2.37c-.86.24-.29,1.23-.4,1.34-.12.13-.63-.14-.44.52,2.13.68,4.26.89,6.46,1.2-.03-.21.07-.57-.02-.7ZM70.03,53.74v.24l.12-.12-.12-.12ZM73.86,54.46v.24l.12-.12-.12-.12ZM66.31,54.7c-.34-.17-.64.15-.48.23.34.17.64-.15.48-.23ZM82.83,54.7c-.4-.47-1.87,2.45-1.8,2.87.65-.27,2.28-2.31,1.8-2.87ZM66.91,54.94v.24l.12-.12-.12-.12ZM71.96,56.24c-1.11-.74-2.51-.93-3.8-1.1-.35-.05-.49-.44-.89.16l6.82,2.51c.96-.11-.65-.76-.79-.55l-1.35-1.02ZM79.96,55.42c-1.02.31-2.16,0-3.16.14-.27.04-.56-.19-.67.33.7.04,1.55.3,2.24.22.36-.04,1.44-.29,1.59-.7ZM74.57,56.14v.24l.12-.12-.12-.12ZM75.77,56.62c-.24.17.13.33.24.47.24-.16-.11-.32-.24-.47ZM80.2,56.62c-.69.11-1.34.41-2.05.49-.67.07-1.49-.57-1.78.23,1.42.51,2.75.5,3.83-.71ZM2.53,56.85v.24l.12-.12-.12-.12ZM35.92,58.53c.84-.32.37-.92-.24-1.2l.24,1.2ZM80.56,57.57v.24l.12-.12-.12-.12ZM42.86,58.29c-.28-.27-.77.1-.12.48.21.03.13-.46.12-.48ZM37.83,61.4c.17-.34-.15-.64-.23-.48-.17.34.15.64.23.48ZM38.55,61.4c.27-.28-.1-.77-.48-.12-.03.21.46.13.48.12ZM38.8,60.92c-1.14,1.51,4.77.99,4.78.36,0-.37-.5-.25-.71-.23-1.33.11-2.77.55-4.07-.12ZM4.92,64.28c-.24.17.13.33.24.47.24-.16-.11-.32-.24-.47ZM6.48,66.67c.17-.34-.15-.64-.23-.48-.17.34.15.64.23.48ZM6.96,66.91c-1.27-.42-.35,1.39-.11,1.92.08.18.2.89.59.47.09-.09-1.03-1.73-.48-2.39ZM7.56,69.54v.24l.12-.12-.12-.12ZM11.37,79.02c-1.37-2.53-2-5.58-4.16-7.57.12.61.33,2,.53,2.52.57,1.47,3.73,6.56,4.93,7.33.04.03-.22.52.17.69.43.18.43-.27.32-.56-.24-.6-.95-.71-1.09-.94-.15-.25-.42-.98-.69-1.46ZM31.49,75.28v.24l.12-.12-.12-.12ZM11.39,81.99v.24l.12-.12-.12-.12ZM14.14,83.18c.24-.28-.67-1.2-.95-.95-.18.15.8,1.13.95.95ZM12.35,82.94v.24l.12-.12-.12-.12ZM12.94,83.43c-.34-.17-.64.15-.48.23.34.17.64-.15.48-.23ZM15.38,84.35c-.07-.04-.76-1.49-1.24-.69,2.03,1.41,4.58,3.71,7.18,2.28-.3-.4-1.23.27-1.43.12-.07-.05.4-.34,0-.36-.75-.03-2.82-.24-3.36-.72-.31-.28-.2-.8-.24-.84-.07-.07-.6.39-.91.21ZM13.06,83.9v.24l.12-.12-.12-.12ZM15.46,85.58v.24l.12-.12-.12-.12ZM22.04,85.58c-.34-.17-.64.15-.48.23.34.17.64-.15.48-.23ZM19.05,87.25v.24l.12-.12-.12-.12Z"/>
        <path d="M47.41,30.52s.23-.01.24,0c.12.28-.36.28-.24,0Z"/>
        <path d="M52.67,30.52c-.07-.03-.22.03-.24,0-.09-.19.24-.39.24,0Z"/>
        <path d="M14.38,27.89s.16-.03.24,0c0,.53-.22.01-.24,0Z"/>
        <path d="M80.44,58.77s.24.01.24,0c-.02.01-.34.55-.24,0Z"/>
      </g>
    </g>
  </g>
</svg>