<?xml version="1.0" encoding="UTF-8"?>
<svg id="Layer_3" data-name="Layer 3" xmlns="http://www.w3.org/2000/svg" viewBox="0 0 100 104.87">
  <defs>
    <style>
      .cls-1 {
        fill: #fff;
      }
    </style>
  </defs>
  <g id="Sketchy_Icons" data-name="Sketchy Icons">
    <g>
      <path class="cls-1" d="M61.8,35.81c.27.11,1.28.39,1.4.28-.16-3.3-.37-6.66-.28-9.99.16-6.17,1.87-18.74,5.26-23.91.78-1.18,2.93-2.33,4.33-2.18.77.08,1.29.74,1.84.87.59.14,1.4,0,2.12.18,5.73,1.53,10.4,12.44,12.43,17.62.37.95.39,2.29.73,3.14,5.15,12.84,13.94,28.53,8.82,42.92-.86,2.41-1.54,3.19-3.8,4.21.11-.64-.26-.02-.28,0-.96.64-.71.23-1.4.28-.03,0,.02-.03-.28,0-.34.03-1.06.29-1.1.25-.12-.1.19-.64-.3-.53l-.12.53-6.99-.92c-3.81-1.78-7.85-3.43-12.27-4.85-.28-.09-.49-.67-.98-.68-.11,0-1.72.96-1.98,1.14-5.61,3.79-10.05,5.96-16.48,8.48-3.57,1.39-4.44,1.64-8.31.6-.46-.12-.97-.65-1.03-.65-.55,0-.7,3.13-.82,3.66-2.09,9.05-5.8,18.05-13.39,23.97-1.66,1.29-4.04,2.35-6.15,2.42-.07.41.53.36.83.42,8.29,1.66,11.17-4.55,14.3-10.99,2.38-4.91,3.98-10.8,6.62-15.57.17-.31.31-.76.71-.83-.03.75-.15,1.58-.37,2.3-.92,3.06-2.41,6.17-3.53,8.88-2.86,6.93-6.88,18.89-16.11,17.95-.61-.06-3.35-.63-3.3-1.31-.5-.12-.18.48-.28.55-.31.23-2.05-1.14-2.46-1.38-.35-.2-.93-.13-1.24-.32-.39-.24-1.02-1.3-1.1-1.34-.16-.08-.7.36-.8.24-.05-.06.12-.56-.06-.76-.17-.19-1.73-.87-1.9-1.04-5.04-5.01-5.3-9.96-7.4-16.22-2.47-7.37-4.99-13.02-6.04-20.92-1.06-8-1.74-24.16,6.04-28.97,12.52-7.73,23.56,5.6,31.12,13.98.58-.4.31-1.14.58-1.66,1.77-3.48,9.24-9.6,13.06-10.56,2.17-.54,8.2-.34,10.09.71.03.01.28.62.28,0ZM69.81,1.83v.28l.14-.14-.14-.14ZM72.05,1.84c-.17.24-.82.55-.57.83.15-.23.8-.53.57-.83ZM76.41,2.67s.93.44,1.12.43c-.11-.59-1.54-.87-1.12-.43ZM68.96,2.67v.28l.14-.14-.14-.14ZM74.14,2.7c-.28-.24-1.51,0-1.38.67.65.22,5.08,4.88,5.33,4.64.27-.26-3.54-4.25-3.84-4.59-.16-.19-.05-.66-.11-.71ZM69.1,3.24c-.39-.2-.75.18-.56.27.39.2.75-.18.56-.27ZM81.18,6.61c.3-.35-3.02-3.67-3.37-3.37-.44.39,1.68,1.58,1.78,1.67.09.09,1.27,2.07,1.59,1.7ZM68.12,4.08v.28l.14-.14-.14-.14ZM72.57,5.1c-.38-.29-.41-1.28-1.35-.17-1.26,1.49-1.45,9.97-1.69,12.35-.5,4.92-1.09,8.84-1.71,13.76-.15,1.24-.32,1.19-.41,1.59-.11.47.18,1.52-.02,2.4-.01.07-.71.92-.81,1.06.04-.89-.06-1.79-.01-2.68.29-5.81,1.5-11.63,1.97-17.41.03-.37.24-1.74-.27-1.82-.5,2.38-.58,4.74-.95,7.11-.68,4.35-2.25,10.64-2.14,14.94.05,1.97.96,1.5,1.97,2.6,2.81,3.05,1.59,4.69,2.67,7.92.5,1.5,2.1,3.06,2.32,4.14.23,1.13-.29,3.2-.19,3.54.02.08,1.07,1.19,1.15,1.23.12.06.52-.23.77-.07,6.26,4.04,10.77,8.54,19.25,8.03,2.62-.16,2.15-1.04,2.11-3.28-.16-8.1-6-26.19-8.85-34.07-3.53-9.8-5.68-14.89-13.8-21.19ZM77.95,5.21c-.28.2.15.39.29.55.28-.18-.13-.37-.29-.55ZM67.98,5.76c-.63-.22-.88,1.03-.98,1.4-.26.93.2,1.55-.7,1.26.67,1.13-.47,2.9-.73,4.06-.99,4.44-1.57,9.14-1.76,13.68-.02.47-.04,1.17.38,1.5.3-5.68,1.77-11.15,2.79-16.71.32-1.75.21-3.48,1-5.19ZM80.21,7.57c-.38-.42-1.31-1.7-1.84-1.39.82.48.95,1.34,1.4,1.98s1.63,1.78,2.15,2.49c.82,1.13,1.35,2.68,2.49,3.53-1.16-2.28-2.5-4.73-4.2-6.61ZM81.6,7.17c-.28.2.15.39.29.55.28-.18-.13-.37-.29-.55ZM82.44,8.29v.28l.14-.14-.14-.14ZM83.14,9.41c.2-.39-.18-.75-.27-.56-.2.39.18.75.27.56ZM84.41,11.38v.28l.14-.14-.14-.14ZM68.82,12.22c.2-.39-.18-.75-.27-.56-.2.39.18.75.27.56ZM68.68,12.78v.28l.14-.14-.14-.14ZM85.11,15.31c.17-.32-.18-.65-.42-.84-.12.28.28,1.1.42.84ZM85.53,16.15v.28l.14-.14-.14-.14ZM84.97,19.52v.28l.14-.14-.14-.14ZM86.23,22.33c.2-.23-.42-1.19-.7-1.4-.16.33.51,1.63.7,1.4ZM88.76,24.86c0-1.1-.57-2.6-1.4-3.37l1.4,3.37ZM89.73,30.94c-.75-2.08-1.52-4.51-2.37-6.51-.19-.44-.6-1.63-1.12-1.68l8.13,25.98c-.15-1.61-.33-3.25-.64-4.84-.84-4.31-2.59-9.04-4.01-12.96ZM89.46,26.26v.28l.14-.14-.14-.14ZM64.05,29.07c.19-.42-.1-1.51-.27-1.12-.19.42.1,1.51.27,1.12ZM16.87,32.72c-.96-.47-3.29-.58-4.34-.4-2.56.45,2.13,1.36,2.74,1.58,6.57,2.43,10.07,6.34,15.56,10.28.44.32,4.95,3.66,5.14,3.42.55-.7-2-2.34-2.41-2.78-2.67-2.85-5.42-6.27-9.19-8.8-.89-.6-1.9-1.41-3-1.99-1.39-.74-2.98-.88-4.21-1.31,0-.45-.39-.22-.28,0ZM98.87,53.5c-.65-4.42-1.37-8.86-2.74-13.1-.51-1.58-1.7-3.19-1.65-4.88l-1.5-2.8c.46,2.89,1.43,5.78,2.17,8.64,1,3.83,1.89,7.74,3.08,11.53.15.48-.12.74.64.61ZM9.57,34.41c0-.19-.31-.52-.43-.56-.66-.22-.71.88.43.56ZM9.86,33.85c-.4.47.88,1.31,1.11.42.01-.06-1.08-.46-1.11-.42ZM14.28,35.05c-.27-.12-2.81-.36-2.45.34.18.35,1.74,1.05,2.13,1.37,7.36,6.1,13.75,13.98,23.14,17.17-1.21-1.88-2.72-3.25-4.2-4.85-2.38-2.56-5.4-6.14-8.72-7.8-.21-.11-2.71-2.4-3.58-2.92-1.91-1.14-4.48-2.5-6.3-3.32ZM9.45,36.55c.88-1.39-.35-.73-.81-.83-.79-.18-.96-1.08-1.84.28-1.76,2.71-1.69,15.17-1.42,18.77.05.62.28,1.21.26,1.83.45.03.35-1.02.38-1.37.41-4.72,1.06-14.93,3.43-18.68ZM55.62,35.81c-5.59,0-11.11,3.85-14.56,8.04-.23.27-.28.9-.34.94-.05.04-.49-.3-.53-.27-.15.12-1.39,3.32-1.39,3.51,0,.53.65,1.55,1.24,1.55.11,0,.48-1.72.71-2.1,1.05-1.8,7.03-7.64,8.92-8.84,2.51-1.61,3.57-2.09,6.64-1.95,1.15.05,3.87.33,4.85.77.28.13,1.71,1.26,1.77,1.17.93-1.33-1.53-.99-1.4-1.96l-.42.56c-.21-1.15-3.1-.72-3.23-.84-.02-.02.31-.37.15-.55-.65.53-1.41.02-2.11,0-.18,0-.19,0-.28,0ZM12.72,37.97c-.42-.31-.9-1.77-2.02-1.6-1.93,4.89-2.86,10.09-3.38,15.32-1.15,11.56-.81,20.68,3.53,31.57.17.43.01.98.2,1.34.48.91,5.17,4.8,6.24,5.41.91.52,4.59,2.03,5.5,2.1,2.66.19,5.9-1.18,7.84-2.94.31,1.5-.46.91-.96,1.41-1.42,1.41-1.15.77-1.8,1.17-.11.07-.19.65-.59.91-1.8,1.14-6.77.46-8.73-.29-.31-.12-.54-.68-.83-.8-.49-.2-1.02.73-.85-.72-1,.69-.36-.3-.56-.56-.12-.15-.39.51-.84.43-.95-.18-1.69-2.74-2.53-2.11-.25.19,2.5,5.23,2.8,5.69,3.11,4.63,9.05,7.15,13.9,3.29,3.26-2.59,9.65-15.56,11.12-19.8.26-.77,1.35-5.59,1.35-6.19,0-.14-.37-.12-.39-.19-.4-1.15-1.22-2.82-1.47-3.72-.13-.49.13-1.51-.22-2.37-.25-.62-1.41-1.38-1.46-1.47-.06-.13.27-.49.08-.79-1.32-2.14-.52-1.45-.99-3.47-.05-.21-.56-.18-.56-.35-.03-.84.45-2.57.2-3.42-.11-.38-3.55-2.07-4.14-1.92-.29-1.02-1.05-.07-.97-1.23-.84,1.07-.66.04-1.35-.4-.51-.33-2.87-1.21-2.97-1.35-.36-.48-.54-2.09-1.72-1.35.56-.88-.1-.42-.68-.87-.88-.67-3.22-2.63-3.64-3.23-.39-.56-.83-.46-.87-.5-2.62-2.52-5.27-4.8-8.23-7.01ZM4.1,37.78c-.6.62-1.02,1.72-1.35,2.52-2.08,5.13-1.75,15.64-1.02,21.18.14,1.04.38,2.72.96,3.53-.71-9.06-.37-18.32,1.4-27.23ZM54.61,38.45c.29-.2,1.09-.16.88-.66-2.85.04-5.22,1.53-7.16,3.51,2.23-.63,4.4-1.52,6.28-2.85ZM57.73,38.06v.28l.14-.14-.14-.14ZM58.15,39.18c-.64-1.34-1.34-.12-2.24-.56-.23,1.08,1.63.38,2.24.56ZM60.61,38.45c-.23-.1-.69-.28-.77.03.81,1.45,2.13,1.72,3.37,2.67,0-1.98-.35-.96-.83-1.26-.32-.2-1.11-1.15-1.76-1.45ZM64.61,38.91c-.59-.08-.64-.03-.56.56l.56-.56ZM67.26,41.31c-.25-.4-.64-.81-.94-1.2-.34-.45.18-.8-1.01-1.21l-.3,1.97,3.25,3.92c-.13-.74-.05-1.7-.26-2.39-.25-.84-.53-.76-.74-1.1ZM61.35,42.44c-.25-.28-.19-.75-.68-1.16-1.73-1.45-6.69-.95-8.56.15-1.99,1.17-5.91,4.09-7.86,5.62-.83.65-1.55,1.69-2.38,2.39.98.43,2.13.13,3.14.45.33.1,1.13,1.11,1.21,1.1.42-.02,1-.84,1.26-.57.42.43-1.27,2.54-1.83,2.24-.26-.14.24-1.28-1.2-1.61-2.19-.49-1.11.77-1.02,1.6.33,3.21.06,6.3,1.04,9.62.74,2.52,3,4.85,5.69,5.26,5.81.88,7.35-3.43,10.81-6.84,1.28-1.26,3.59-3.38,5.11-4.17.47-.25,3.58-1.15,3.57-1.47,0-.14-.75-.61-.83-.85-.19-.53.48-.34.56-.59.19-.62-.97-4.65-1.48-5.06-.32-.26-.96-.29-1.4-.65-1.41-1.17-3.99-4.16-5.15-5.46ZM48.04,41.99c.2-.39-.18-.75-.27-.56-.2.39.18.75.27.56ZM47.48,41.99c-.39-.2-.75.18-.56.27.39.2.75-.18.56-.27ZM65.03,41.99v.28l.14-.14-.14-.14ZM47.62,43.4v.28l.14-.14-.14-.14ZM64.61,43.96c.2-.39-.18-.75-.27-.56-.2.39.18.75.27.56ZM46.08,43.96s-.2.69-.15.84c.67-.33.38-1.12.15-.84ZM4.38,44.24v.28l.14-.14-.14-.14ZM45.38,44.81c-.17.24-.82.55-.57.83.15-.23.8-.53.57-.83ZM4.52,45.65c-.39-.2-.75.18-.56.27.39.2.75-.18.56-.27ZM44.39,46.2c.2-.39-.18-.75-.27-.56-.2.39.18.75.27.56ZM43.69,46.2v.28l.14-.14-.14-.14ZM5.92,75.13l-2.24-27.24c-.11,1.24.28,2.93.25,4.04-.22,8.08-.25,13.26,1.43,21.4.14.65-.62,1.39.56,1.8ZM34.84,48.18c-.17-.16-.75-.06-.56.41.27.64,2.73,2.92,3.23,3.79-.16-.65,0-2.79-.15-3.08-.03-.05-.5.23-1.14-.1-.53-.27-.55-.69-.59-.7-.25-.1-.51.21-.66.21-.25,0-.08-.47-.13-.52ZM7.47,48.73v.28l.14-.14-.14-.14ZM42.56,50.42c-.28.2.15.39.29.55.28-.18-.13-.37-.29-.55ZM39.29,51.04s-.73-.36-.78-.2c-.03.07.25,1.28.23,1.42-.02.17-.51.12-.5.25,0,.1.49,1.78.55,1.84.61.64.4-.15.47-.27.37-.69.46-2.43.04-3.04ZM42.42,52.1c-.8-.76-1.4,3.65-1.38,4.05.05,1.09.59,1.78,1.66,1.85-.38-.96.16-5.47-.28-5.9ZM98.87,54.07c-.39-.2-.75.18-.56.27.39.2.75-.18.56-.27ZM98.73,54.63v.28l.14-.14-.14-.14ZM97.74,55.75c-.92-1.2-.33,2.25-.34,2.39-.04,1.27-.43,2.72-.22,4.07.56-.11.47-.59.56-.99.14-.67.16-5.25,0-5.47ZM38.77,56.03c-.4-.51-.38-.23-.45.3-.15,1.09.3,2.34.21,3.46l1.09,2.98c-.65-.98-.48-6.28-.84-6.74ZM72.65,56.43c-1.3-.82-1.33.05-.95,1.37s4.02,1.45,5.27,1.88c-1.03-1.66-2.5-2.02-4.01-2.81-.17-.09-.21-.38-.31-.44ZM67.86,57.88c.25-.38.99-1.05.54-1.56-.84,1.15-2.35,1.33-3.48,2.14-.22.15-2.2,1.87-2.4,2.09-.52.54-.15,1.39-.95.88l-4.26,5.01c.92-.3,2.09-.93,2.9-1.45,2.2-1.42,6.24-4.9,7.65-7.09ZM70.09,56.6v.28l.14-.14-.14-.14ZM5.92,58c.19-.22-.08-1.11-.56-1.12-.16.43.05,1.7.56,1.12ZM70.22,58.28s.03-1.08,0-1.12c-.05-.07-1.23.81-1.4.99.46-.24,1.35.19,1.4.14ZM38.07,58.28v.28l.14-.14-.14-.14ZM5.5,58.56v.28l.14-.14-.14-.14ZM42.62,59.49c-.14-.2-1.24-.8-1.59-.79.52,1.96-.39,5.07.76,6.82.52.8,2.38,2.3,3.26,2.64.58.23,4.25.95,4.4.79.06-.07-.03-.61,0-.84-1.16.73-1.1-.17-1.18-.19-2.42-.78-2.36-1.05-3.63-2.72-.32-.42-.87-.79-1.02-1.23-.35-.99-.41-3.69-.99-4.49ZM69.95,59.41c-1.68-.38-1.37-.08-2.24.65-3.37,2.8-4.81,4.95-9.61,7.3-2.04,1-6.93,2.65-9.37,2.69-.14,0-.12-.47-.25-.48-2.13-.11-2.87-.1-4.79-.67-.2-.06-.02-.5-.27-.51-1.4-.04-.44,1.56.88,1.94,5.76,1.68,14.28-1.47,19.4-4.13,2.78-1.44,5.66-3.49,6.26-6.79ZM77.81,59.69c-.39-.2-.75.18-.56.27.39.2.75-.18.56-.27ZM78.91,62.8l-6.58-2.78c-1.01.29-.34,1.44-.47,1.58-.14.15-.73-.17-.52.61,2.5.79,5,1.05,7.58,1.4-.03-.24.08-.67-.02-.82ZM82.16,63.06v.28l.14-.14-.14-.14ZM86.65,63.9v.28l.14-.14-.14-.14ZM77.81,64.18c-.39-.2-.75.18-.56.27.39.2.75-.18.56-.27ZM97.18,64.18c-.47-.55-2.2,2.87-2.11,3.36.76-.31,2.67-2.7,2.11-3.36ZM78.51,64.46v.28l.14-.14-.14-.14ZM84.43,65.99c-1.3-.87-2.95-1.09-4.46-1.29-.4-.05-.58-.52-1.04.19l8.01,2.94c1.13-.12-.76-.89-.93-.65l-1.58-1.19ZM93.81,65.02c-1.2.36-2.53,0-3.71.16-.31.04-.66-.22-.78.39.82.04,1.82.35,2.63.26.42-.04,1.69-.34,1.86-.82ZM87.5,65.86v.28l.14-.14-.14-.14ZM88.9,66.43c-.28.2.15.39.29.55.28-.18-.13-.37-.29-.55ZM94.09,66.43c-.81.13-1.57.48-2.4.57-.78.08-1.75-.66-2.09.27,1.67.6,3.23.58,4.49-.84ZM2.97,66.71v.28l.14-.14-.14-.14ZM42.15,68.67c.99-.38.43-1.08-.28-1.4l.28,1.4ZM94.52,67.55v.28l.14-.14-.14-.14ZM50.29,68.39c-.33-.32-.9.12-.14.56.24.04.16-.54.14-.56ZM44.39,72.04c.2-.39-.18-.75-.27-.56-.2.39.18.75.27.56ZM45.23,72.04c.32-.33-.12-.9-.56-.14-.04.24.54.16.56.14ZM45.52,71.48c-1.34,1.77,5.6,1.16,5.61.42,0-.43-.59-.3-.84-.28-1.56.13-3.24.65-4.77-.15ZM5.78,75.42c-.28.2.15.39.29.55.28-.18-.13-.37-.29-.55ZM7.6,78.22c.2-.39-.18-.75-.27-.56-.2.39.18.75.27.56ZM8.17,78.5c-1.48-.5-.42,1.63-.13,2.25.1.21.24,1.05.69.56.1-.11-1.21-2.03-.56-2.8ZM8.87,81.59v.28l.14-.14-.14-.14ZM13.34,92.71c-1.61-2.97-2.35-6.55-4.88-8.88.14.72.39,2.35.62,2.95.67,1.72,4.38,7.69,5.78,8.6.05.03-.26.61.2.81.5.21.51-.32.37-.65-.28-.7-1.12-.84-1.28-1.1-.18-.29-.5-1.14-.81-1.72ZM36.95,88.33v.28l.14-.14-.14-.14ZM13.36,96.19v.28l.14-.14-.14-.14ZM16.59,97.6c.28-.33-.79-1.4-1.12-1.12-.21.18.94,1.33,1.12,1.12ZM14.49,97.32v.28l.14-.14-.14-.14ZM15.19,97.88c-.39-.2-.75.18-.56.27.39.2.75-.18.56-.27ZM18.04,98.96c-.08-.05-.89-1.75-1.45-.81,2.38,1.66,5.37,4.36,8.42,2.67-.36-.47-1.44.31-1.68.14-.08-.06.47-.4,0-.42-.88-.03-3.31-.28-3.94-.85-.36-.32-.23-.94-.28-.99-.08-.08-.71.46-1.07.25ZM15.33,98.44v.28l.14-.14-.14-.14ZM18.14,100.41v.28l.14-.14-.14-.14ZM25.86,100.41c-.39-.2-.75.18-.56.27.39.2.75-.18.56-.27ZM22.35,102.37v.28l.14-.14-.14-.14Z"/>
      <path class="cls-1" d="M55.62,35.81s.28-.01.28,0c.14.32-.42.32-.28,0Z"/>
      <path class="cls-1" d="M61.8,35.81c-.08-.03-.26.04-.28,0-.11-.22.28-.45.28,0Z"/>
      <path class="cls-1" d="M16.87,32.72s.19-.03.28,0c0,.63-.25.01-.28,0Z"/>
      <path class="cls-1" d="M94.38,68.95s.28.02.28,0c-.03.01-.4.64-.28,0Z"/>
    </g>
  </g>
</svg>