<?xml version="1.0" encoding="UTF-8"?>
<svg id="Layer_2" data-name="Layer 2" xmlns="http://www.w3.org/2000/svg" viewBox="0 0 73.08 56.83">
  <g id="Bows">
    <g id="Layer_15_Image" data-name="Layer 15 Image">
      <g>
        <polygon points="13.72 52.59 13.84 52.71 13.72 52.83 13.72 52.59"/>
        <g>
          <path d="M12.4,52.59c.45.11,1.02-.06.96.72-.98-.28-2.3-.29-3.23-.61-2.29-.79-5.94-4.27-7.25-6.5C-1.98,37.93-.15,20.29,4.38,11.47,7.55,5.3,11.83.99,19.03.11c10.86-1.32,13.74,9.48,14.19,18.2.05.9-.42,4.73,0,5.13.09.09,2.04-.28,2.51-.26,1.51.09,4.36,1.03,5.71,1.73.44.23.24.89.95.64,3.66-4.11,7.14-10.02,12.39-12.25,1.42-.6,7.41-1.77,8.93-1.81,13.58-.33,9.25,16.09,6.29,23.95s-11.98,19.49-20.22,21.15c-1.03.21-4.29.41-5.17.01-.43-.19-.12-.67-.26-.66-.24.01-1.21.52-1.54.2-.07-.07.04-.47-.07-.62-.19-.26-1.13-.3-1.46-.53-.27-.19-.61-1.16-.87-1.54-.11-.16-.45.03-.47-.02-.08-.2.41-1.5-.49-.84.19-1.98.74-.15,1.43.6.79.85,2.38,1.93,3.47,2.27.96.3-.3-.81-.34-.86-.86-1.18.93-1.13.56-.34.59-.29,3.58.87,3.96.48.72-.74-1.2-.74-1.19-1.07,0-.03.21-.58.24-.6.06-.06,1.06.44,1.57.49,4.01.37,9.13-5.03,11.57-7.85,4.26-4.91,6.35-8.53,6.7-15.24.04-.7-.26-1.88-.23-2.61.01-.28.34.27.48,0-.79-.95-.45-2.62-.64-3.9-.69-4.57-3.11-8.58-8.33-8.11-4.46.4-10.16,3.56-12.51,7.51-.86,1.45-.08,3.33-.52,3.9-.02.03-.69-.22-.72-.25-.09-.1.39-1,.24-1.19-.41-.52-.81.87-.7,1.29s.59.18.72.27c.22.15,2.89,3.92,3.1,4.29,1.2,2.2,1.68,5.86,1.12,8.3-.46,2.01-3.43,6.38-4.95,7.73-1.65,1.48-3.44,2.16-5.51,2.5-.18-.46-.13-.05-.24,0-1.51.66-7.09-.29-8.26-1.26-.06-.05.13-.38.11-.4-.1-.07-.78-.02-1.13-.17-.62-.28-.95-1.6-2.06-1.45-.68.09-1.99,1.63-2.61,1.99-2.04,1.2-7.68,2.61-10.11,2.88-.55.06-2.67-.13-2.98.08-.09.06.34.58.48.71.07.07.33.52.24,0ZM25.48,2.97c-3.51-2.11-6.89-1.8-10.61-.46l-1.5,1.33c4.66-1.83,10.45-1.38,14.35,1.91.08-.44-.08-.66-.34-.98s-1.61-1.63-1.89-1.8ZM22.16,4.42c-4.82-1.16-10.96.5-13.82,4.62-5.72,8.24-7.14,32.84,3.32,38.19l2.89,1.54c-.6-.38-1.56-.21-1.99-.32-.35-.09-.55-.44-.88-.54-.3-.09-.7.17-.72.14-.06-.09.1-.59-.02-.69-.05-.05-.89-.06-1.33-.25-.1-.04-1.57-1.12-1.64-1.2-.23-.28-.34-.92-.38-.96s-.43.25-.45.22-.01-.45-.15-.68c-1.55-2.52-2.74-4.7-3.38-7.62-.19-.88-.24-2.02-.3-2.93-.52.13-.33.34-.32.66.06,3.3.99,9.13,2.76,11.84,2.31,3.53,7.23,4.41,11.11,3.55,2.88-.64,4.97-2.47,7.44-3.92.78-1.58.02-.86-.3-1.11-.51-.41-.02-.84-.11-.98-.05-.07-.45.41-1.19-.85-3.09-5.27,1.16-14.39,5.75-17.66.63-.45,3.3-1.54,3.34-1.73.06-.25.07-2.83-.01-2.95-.06-.08-.89,1.09-1.36-.16-.19-.5.19-4.34.02-5.46-.41-2.58-2.4-7.29-4.52-8.96-.89-.7-3.14-1.66-3.76-1.81ZM28.07,5.75v.24l.12-.12-.12-.12ZM68.34,13.23c-1.88-.75-4.09-.54-6.06-.74l-.83.67c1.28.17,2.16,1.05,3.43,1.47,2.68.9,4.5.77,6,3.81.57,1.15.54,2.68,1.34,3.56-.17-1.13-.17-3.12-.49-4.13-.07-.23-.43-.18-.54-.47-.26-.7-.55-2.01-1.01-2.57-.55-.69-1.48-.2-.85-1.08-.86.32-.86-.47-1-.52ZM61.68,14.12c-1.63-.28-2.57-.67-4.25-.07-.29.1-.24.47-.45.53-.08.02-1.93,0-1.28.74.05.05,1.02-.36,1.38-.41,1.31-.19,2.68-.15,3.97-.43.24-.05.55.15.63-.35ZM54.63,14.36c-.54.36-.3.69,0,.23.08-.12.19-.13,0-.23ZM53.31,14.83s-.17.58-.12.71c.57-.28.32-.95.12-.71ZM53.91,14.83v.24l.12-.12-.12-.12ZM54.87,15.31v.24l.12-.12-.12-.12ZM64.95,16.11c-.31-.24-.95-.78-1.35-.44.51.56,1.72,1.36,2.15,1.91,2.84,3.62,2.92,11.43,2.52,15.79,0,.11-.82,2.8.11,1.79.16-.17.89-2.69,1.32-3.1,1.12-4.21.34-8.61-1.49-11.89-.54-.96-2.37-3.35-3.26-4.04ZM52.47,15.79v.24l.12-.12-.12-.12ZM31.42,16.02v.24l.12-.12-.12-.12ZM52,16.03c-.54.36-.3.69,0,.23.08-.12.19-.13,0-.23ZM68.56,17.05c-.3-.26-1.43-.3-1.74-1.03-.24.76,1,1.54,1.42,2.17,1.4,2.08,1.56,3.42,2.45,5.43.16.36-.12.66.55.53-.45-1.42-.45-2.98-1.01-4.37-.1-.25-1.56-2.62-1.68-2.73ZM51.39,16.98c.17-.34-.15-.64-.23-.48-.17.34.15.64.23.48ZM31.66,16.98v.24l.12-.12-.12-.12ZM31.66,17.7v.24l.12-.12-.12-.12ZM31.78,18.65c.17-.34-.15-.64-.23-.48-.17.34.15.64.23.48ZM31.78,20.33c.04-.08.04-1.35,0-1.43-.3-.64-.3,2.08,0,1.43ZM72.09,22.48v.24l.12-.12-.12-.12ZM33.96,24.59s-.02-.44-.13-.44c-.58,0-.9.7-1.15.79-.38.13-.95-.08-1.52.12-1.96.69-4.11,2.8-5.12,4.21-.28.39-.41.83-.71,1.21,3.05-2.91,6.24-4.87,10.61-4.15,3.37.56,5.84,2.12,8.14,4.53,1.11,1.17,3.42,4.12,3.68,5.65s-.28,3.08-.19,4.48c.02.35.17.67.48.36.58-.58.77-4.38.66-5.32-.24-2.06-2.56-6.37-4.18-7.6-.41-.31-1.05-.26-1.14-.31-.04-.03-.3-1.34-.52-.41-.02.08-.04,1.61-.56.97-.28-.34.13-1.72-.36-2.16-1.53-.73-2.93-1.7-4.6-2.1-.34-.08-.66.21-.88.2-.15,0-.12-.42-.29-.47-.63-.19-2.12.49-2.21.43ZM71.13,24.39v.24l.12-.12-.12-.12ZM44.1,24.87v.24l.12-.12-.12-.12ZM43.74,26.3c-.05-.27.08-.77,0-.95-.11-.24-.82.85,0,.95ZM44.82,25.35v.24l.12-.12-.12-.12ZM36.8,27.5c-.21-.22-3.37-.49-3.93-.39-.86.15-1.65.6-2.23.85-4.93,2.08-8.11,7.78-6.59,13.12.35,1.24,1.29,2.02,1.75,3.15.42.06.23-.54.21-.8-.08-.71-.89-2.31.02-1.94-.36-.28-.42-.5-.46-.94-.14-1.32,2.01-8.02,2.7-9.26,1.19-2.13,3.41-3.49,5.86-3.65.78-.05,1.66.25,2.37.29.47.02.55-.16.3-.42ZM37.76,27.74c-.34-.17-.64.15-.48.23.34.17.64-.15.48-.23ZM1.04,28.21v.24l.12-.12-.12-.12ZM34.17,28.7c-1.09.2-2.62.37-3.53,1.03-.1.07-.01.47-.13.57-.15.14-.5.02-.67.22-.43.52-1.04,1.54-.94,2.23.47-.29.8-.92,1.26-1.27,1.25-.94,2.97-1.59,4-2.79ZM39.67,30.13c-.71-.19-.21-.49-.35-.47s-.38.28-.69.25c-.18-.02-.13-.44-.32-.49-.59-.15-1.49.06-2.12.1-.14,0-.34-.26-.46-.25-.51.05-1.11.85-1.39,1.03-.22.14-.63,0-.81.14-3.62,2.74-4.41,11.2-.78,14.14.62.5,1.71,1.2,2.5,1.21,1.54,0,5.64-1.73,7.09-2.54,1.84-1.02,3.94-2.56,3.79-4.86-.31-4.87-2.73-6.06-6.22-8.25-.02-.01-.34-.54-.24,0ZM2,30.84v.24l.12-.12-.12-.12ZM24.96,31.09c-.54.36-.3.69,0,.23.08-.12.19-.13,0-.23ZM3.07,32.04c.17-.34-.15-.64-.23-.48-.17.34.15.64.23.48ZM24.84,31.8c-.34-.17-.64.15-.48.23.34.17.64-.15.48-.23ZM30.94,32.04v.24l.12-.12-.12-.12ZM3.07,33.47c.04-.08.04-1.11,0-1.19-.29-.63-.29,1.82,0,1.19ZM30.1,42.79c-1.17-2.73-.89-5.23-.27-8.04.15-.66,1.24-2.51.15-2.48-.18,0-.13.57-.35.84-1.6,2.01-2.15,3.25-1.65,5.97.02.12.36.08.41.28.17.64.24,1.55.51,2.23l-.98-.41-.93-3.89-.5,3.22c.04.89.67,3.93,1.2,4.51.23.26.6.1.7.17.04.03-.2.41.01.57,1.01.76,3.15.16,4.32.6l-1.66-1.99c-.87-.1-1.14-1.4-1.67-1.92-.27-.26-.7-.12-.74-.15-.24-.24.33-1.02.9-.42.26.27.1.91.53.9ZM24,32.76v.24l.12-.12-.12-.12ZM23.53,33.95v.24l.12-.12-.12-.12ZM67.78,35.39v.24l.12-.12-.12-.12ZM38,46.38c3.17.36,6.59-1.17,7.65-4.3-1.21,1.04-2.53,1.83-3.85,2.72l-3.8,1.58ZM46.03,43.89c.11-.21.33-.63.23-.85l-.82,1.1c-.14.78.56-.18.59-.24ZM62.76,44.47v.24l.12-.12-.12-.12ZM62.04,45.42v.24l.12-.12-.12-.12ZM26.72,46.17c-.07-.05-1.46-.23-1.63-.15-.52.21-2.49,2.52-3.35,2.88.75-.19,1.47-.35,2.19-.68.99-.45,2.11-1.52,2.95-1.37.08-.12-.13-.66-.16-.68ZM31.06,48.05c2.55,1.54,6.26,1.87,9.16,1.19.18-.04.15-.38.35-.45.66-.22.97-.1,1.81-.54,1.01-.53,1.54-1.66,2.56-2.11-.14-.51-1.06.36-1.51.52-2.96,1.09-4.76,1.25-7.7,1.26-.19,0-1.18.46-1.65.37-.18-.04-.15-.46-.25-.45-.26.01-.72.36-1.23.35-.31,0-.92-.33-1.3-.36-.05,0-.13-.14-.24,0-.15-.21-.39-.78-.72-.48-.44.4.52.6.72.72ZM37.64,46.14v.24l.12-.12-.12-.12ZM4.39,46.62v.24l.12-.12-.12-.12ZM34.77,47.1v.24l.12-.12-.12-.12ZM60.97,47.1c-.5-.07-.54-.02-.48.48l.48-.48ZM59.77,48.77s.09-.51-.12-.48l-.59.6c.13.04.69-.1.71-.12ZM58.57,49.49c-.34-.17-.64.15-.48.23.34.17.64-.15.48-.23ZM55.94,51.88c.17-.34-.15-.64-.23-.48-.17.34.15.64.23.48ZM10.85,51.64v.24l.12-.12-.12-.12ZM49.12,54.27v.24l.12-.12-.12-.12ZM49.84,54.27v.24l.12-.12-.12-.12ZM51.52,54.98v.24l.12-.12-.12-.12ZM45.89,55.47s-.92-.28-.95-.24c-.59.71,1.39.51.95.24ZM47.33,55.7c-.05-.03-1.15-.29-1.19-.24-.63.76,1.67.47,1.19.24ZM49.6,55.46v.24l.12-.12-.12-.12Z"/>
          <path d="M31.06,48.05s0-.16,0-.24c.02.03.22-.03.24,0,.06.13-.08.27-.24.24Z"/>
          <path d="M12.4,52.59s-.24.01-.24,0c-.1-.55.21,0,.24,0Z"/>
          <path d="M38.72,50.2h.24c-.06,0-.13.13-.24,0Z"/>
          <path d="M39.67,30.13s.24-.01.24,0c.1.55-.21,0-.24,0Z"/>
          <g>
            <path d="M42.78,54.03c-.44-.51.53-1.37.71.12-.02.07-.69-.1-.71-.12Z"/>
            <polygon points="46.97 52.83 47.09 52.95 46.97 53.07 46.97 52.83"/>
            <polygon points="42.19 52.83 42.31 52.95 42.19 53.07 42.19 52.83"/>
          </g>
        </g>
      </g>
    </g>
  </g>
</svg>