<?xml version="1.0" encoding="UTF-8"?>
<svg id="Layer_2" data-name="Layer 2" xmlns="http://www.w3.org/2000/svg" viewBox="0 0 100 77.77">
  <defs>
    <style>
      .cls-1 {
        fill: #fff;
      }
    </style>
  </defs>
  <g id="Sketchy_Icons" data-name="Sketchy Icons">
    <g>
      <polygon class="cls-1" points="18.77 71.97 18.94 72.13 18.77 72.3 18.77 71.97"/>
      <g>
        <path class="cls-1" d="M16.97,71.97c.62.15,1.39-.08,1.31.98-1.34-.38-3.15-.4-4.42-.84-3.13-1.09-8.12-5.84-9.92-8.9C-2.71,51.91-.2,27.77,5.99,15.7,10.33,7.25,16.19,1.35,26.04.15c14.86-1.81,18.81,12.97,19.42,24.91.06,1.23-.57,6.47,0,7.01.12.12,2.8-.39,3.43-.35,2.06.12,5.97,1.4,7.82,2.37.61.32.33,1.22,1.3.88,5.01-5.62,9.78-13.71,16.95-16.77,1.94-.83,10.14-2.42,12.22-2.47,18.59-.45,12.66,22.02,8.61,32.77-3.88,10.3-16.39,26.67-27.67,28.94-1.4.28-5.87.56-7.08.02-.59-.27-.16-.91-.35-.9-.33.01-1.66.71-2.11.27-.1-.09.05-.64-.09-.84-.25-.36-1.55-.41-2-.72-.37-.26-.83-1.59-1.19-2.11-.15-.22-.61.05-.65-.03-.11-.28.55-2.05-.67-1.15.26-2.71,1.01-.21,1.96.82,1.08,1.16,3.26,2.64,4.75,3.1,1.31.41-.41-1.11-.46-1.18-1.18-1.61,1.27-1.55.77-.46.81-.4,4.91,1.19,5.41.66.98-1.01-1.64-1.01-1.63-1.47,0-.04.29-.79.32-.82.08-.08,1.45.6,2.14.67,5.49.5,12.49-6.88,15.84-10.74,5.83-6.72,8.69-11.67,9.17-20.85.05-.95-.35-2.58-.31-3.57.02-.39.46.37.65,0-1.08-1.3-.61-3.59-.88-5.34-.95-6.26-4.25-11.74-11.41-11.1-6.11.54-13.9,4.87-17.12,10.28-1.18,1.98-.11,4.56-.71,5.34-.03.04-.94-.3-.98-.34-.13-.14.53-1.36.33-1.62-.56-.72-1.1,1.2-.96,1.77s.8.24.99.37c.31.2,3.96,5.36,4.24,5.86,1.64,3,2.3,8.03,1.54,11.35-.63,2.75-4.7,8.73-6.77,10.58-2.26,2.02-4.7,2.96-7.54,3.42-.25-.62-.18-.06-.33,0-2.06.9-9.71-.4-11.3-1.73-.08-.07.18-.52.16-.54-.14-.1-1.07-.03-1.54-.24-.85-.38-1.29-2.19-2.82-1.98-.93.13-2.72,2.22-3.56,2.72-2.79,1.64-10.51,3.58-13.84,3.95-.75.08-3.65-.18-4.08.11-.13.09.46.79.65.98.1.09.46.71.33,0ZM34.86,4.06c-4.81-2.88-9.43-2.46-14.52-.63l-2.05,1.82c6.38-2.5,14.29-1.89,19.63,2.62.11-.6-.1-.91-.46-1.34s-2.2-2.23-2.59-2.47ZM30.32,6.04c-6.59-1.59-15,.69-18.91,6.32C3.57,23.64,1.63,57.31,15.95,64.63l3.96,2.1c-.82-.53-2.14-.29-2.72-.44-.47-.12-.76-.6-1.2-.73-.41-.12-.96.24-.98.2-.08-.13.13-.8-.03-.94-.07-.06-1.21-.08-1.82-.34-.13-.06-2.15-1.53-2.24-1.64-.31-.38-.47-1.26-.52-1.31s-.58.35-.62.31-.02-.62-.21-.93c-2.13-3.45-3.75-6.43-4.63-10.43-.26-1.2-.33-2.76-.41-4.01-.71.18-.45.46-.44.9.08,4.51,1.36,12.5,3.78,16.21,3.16,4.83,9.89,6.03,15.21,4.86,3.94-.87,6.8-3.38,10.18-5.37,1.06-2.16.03-1.17-.42-1.53-.69-.56-.03-1.15-.16-1.34-.06-.09-.62.56-1.62-1.16-4.23-7.21,1.59-19.69,7.87-24.17.86-.61,4.52-2.11,4.58-2.36.08-.34.1-3.87-.02-4.04-.08-.11-1.22,1.5-1.86-.22-.25-.68.26-5.94.02-7.47-.56-3.54-3.29-9.97-6.19-12.27-1.21-.96-4.29-2.27-5.15-2.48ZM38.41,7.86v.33l.16-.16-.16-.16ZM93.51,18.1c-2.58-1.03-5.6-.74-8.29-1.02l-1.13.92c1.75.24,2.95,1.43,4.69,2.02,3.66,1.23,6.16,1.05,8.21,5.22.78,1.58.74,3.67,1.83,4.87-.24-1.54-.23-4.27-.67-5.65-.1-.32-.59-.25-.74-.64-.36-.95-.76-2.75-1.38-3.52-.75-.94-2.02-.28-1.16-1.48-1.18.43-1.18-.65-1.36-.72ZM84.41,19.32c-2.24-.38-3.51-.92-5.82-.1-.4.14-.33.64-.62.73-.11.03-2.64,0-1.75,1.01.07.07,1.4-.5,1.88-.57,1.79-.25,3.67-.2,5.44-.59.32-.07.75.2.86-.47ZM74.75,19.65c-.74.5-.41.94,0,.32.11-.17.26-.17,0-.32ZM72.95,20.3s-.23.8-.17.97c.78-.38.44-1.3.17-.97ZM73.77,20.29v.33l.16-.16-.16-.16ZM75.08,20.95v.33l.16-.16-.16-.16ZM88.87,22.05c-.42-.33-1.3-1.07-1.85-.61.7.77,2.36,1.86,2.94,2.61,3.89,4.95,4,15.64,3.45,21.6-.01.15-1.12,3.83.16,2.44.22-.24,1.21-3.69,1.81-4.25,1.53-5.75.46-11.78-2.04-16.27-.73-1.32-3.25-4.59-4.47-5.53ZM71.8,21.6v.33l.16-.16-.16-.16ZM43,21.93v.33l.16-.16-.16-.16ZM71.15,21.94c-.74.5-.41.94,0,.32.11-.17.26-.17,0-.32ZM93.82,23.34c-.41-.36-1.96-.41-2.38-1.41-.33,1.03,1.36,2.1,1.94,2.96,1.92,2.85,2.13,4.68,3.36,7.43.22.49-.17.9.75.72-.62-1.94-.62-4.07-1.38-5.98-.13-.34-2.13-3.59-2.3-3.73ZM70.33,23.24c.24-.46-.21-.87-.32-.65-.24.46.21.87.32.65ZM43.32,23.24v.33l.16-.16-.16-.16ZM43.32,24.22v.33l.16-.16-.16-.16ZM43.48,25.52c.24-.46-.21-.87-.32-.65-.24.46.21.87.32.65ZM43.48,27.81c.05-.11.05-1.85,0-1.96-.4-.88-.4,2.84,0,1.96ZM98.65,30.76v.33l.16-.16-.16-.16ZM46.47,33.65c-.07-.05-.03-.6-.18-.6-.79,0-1.23.96-1.57,1.08-.53.17-1.3-.11-2.08.17-2.68.95-5.62,3.83-7.01,5.76-.38.54-.57,1.14-.97,1.66,4.17-3.99,8.54-6.67,14.51-5.68,4.61.76,8,2.9,11.14,6.2,1.52,1.6,4.68,5.64,5.03,7.73s-.38,4.22-.26,6.13c.03.48.23.92.66.5.8-.8,1.05-6,.9-7.27-.33-2.82-3.51-8.72-5.72-10.4-.56-.42-1.44-.35-1.56-.42-.06-.04-.41-1.83-.71-.56-.03.12-.06,2.2-.76,1.32-.38-.47.18-2.35-.5-2.95-2.09-1-4-2.33-6.29-2.87-.47-.11-.91.28-1.21.27-.21-.01-.16-.57-.4-.64-.87-.26-2.89.68-3.02.59ZM97.34,33.38v.33l.16-.16-.16-.16ZM60.35,34.03v.33l.16-.16-.16-.16ZM59.85,35.99c-.06-.37.11-1.05,0-1.31-.15-.32-1.12,1.16,0,1.31ZM61.33,34.68v.33l.16-.16-.16-.16ZM50.36,37.63c-.29-.3-4.62-.67-5.38-.53-1.17.21-2.25.82-3.05,1.16-6.75,2.85-11.1,10.65-9.02,17.95.48,1.7,1.77,2.77,2.4,4.31.58.08.32-.74.28-1.1-.11-.97-1.21-3.15.03-2.66-.49-.38-.57-.69-.63-1.28-.19-1.81,2.75-10.98,3.69-12.68,1.63-2.92,4.67-4.77,8.02-4.99,1.07-.07,2.27.34,3.24.39.64.03.75-.22.41-.58ZM51.67,37.96c-.46-.24-.87.21-.65.32.46.24.87-.21.65-.32ZM1.42,38.61v.33l.16-.16-.16-.16ZM46.76,39.27c-1.49.28-3.59.5-4.82,1.41-.14.1-.02.64-.17.78-.2.19-.68.03-.91.31-.58.71-1.42,2.11-1.29,3.05.64-.4,1.09-1.26,1.72-1.73,1.72-1.29,4.07-2.17,5.48-3.82ZM54.29,41.23c-.97-.26-.29-.68-.48-.65s-.51.39-.94.34c-.24-.03-.18-.6-.44-.67-.81-.21-2.04.08-2.9.14-.19.01-.47-.36-.63-.34-.7.07-1.52,1.16-1.91,1.41-.3.19-.86,0-1.11.19-4.96,3.76-6.04,15.32-1.07,19.35.84.68,2.34,1.65,3.43,1.65,2.11,0,7.71-2.37,9.7-3.47,2.52-1.4,5.39-3.5,5.19-6.66-.43-6.66-3.74-8.3-8.51-11.29-.03-.02-.46-.74-.33,0ZM2.73,42.21v.33l.16-.16-.16-.16ZM34.16,42.54c-.74.5-.41.94,0,.32.11-.17.26-.17,0-.32ZM4.2,43.84c.24-.46-.21-.87-.32-.65-.24.46.21.87.32.65ZM33.99,43.52c-.46-.24-.87.21-.65.32.46.24.87-.21.65-.32ZM42.34,43.84v.33l.16-.16-.16-.16ZM4.2,45.8c.05-.11.05-1.52,0-1.63-.39-.86-.39,2.49,0,1.63ZM41.19,58.56c-1.61-3.74-1.22-7.16-.37-11,.2-.9,1.69-3.44.21-3.4-.25,0-.18.78-.48,1.15-2.19,2.75-2.94,4.45-2.25,8.17.03.17.49.11.56.38.23.88.33,2.12.69,3.05l-1.34-.56-1.28-5.32-.68,4.41c.06,1.22.91,5.38,1.64,6.17.32.35.82.13.96.24.06.04-.27.56.02.78,1.38,1.04,4.32.22,5.92.82l-2.28-2.72c-1.19-.13-1.56-1.92-2.28-2.63-.37-.36-.96-.16-1.01-.21-.33-.32.45-1.39,1.23-.57.36.37.14,1.25.73,1.23ZM32.85,44.82v.33l.16-.16-.16-.16ZM32.19,46.46v.33l.16-.16-.16-.16ZM92.76,48.42v.33l.16-.16-.16-.16ZM52,63.46c4.33.5,9.02-1.61,10.47-5.88-1.66,1.42-3.46,2.51-5.27,3.72l-5.2,2.16ZM62.99,60.06c.14-.29.45-.87.31-1.17l-1.12,1.5c-.2,1.07.76-.24.81-.33ZM85.88,60.85v.33l.16-.16-.16-.16ZM84.9,62.16v.33l.16-.16-.16-.16ZM36.57,63.18c-.1-.07-2-.31-2.24-.21-.72.29-3.41,3.45-4.58,3.94,1.03-.26,2.01-.48,3-.93,1.35-.62,2.89-2.08,4.04-1.87.11-.16-.18-.9-.22-.93ZM42.51,65.76c3.49,2.1,8.57,2.55,12.53,1.62.24-.06.2-.53.48-.62.91-.3,1.33-.14,2.47-.74,1.38-.73,2.1-2.26,3.5-2.88-.19-.7-1.45.49-2.07.71-4.05,1.49-6.52,1.72-10.54,1.72-.26,0-1.61.63-2.25.5-.25-.05-.2-.63-.34-.62-.36.02-.99.49-1.68.48-.43,0-1.26-.46-1.78-.49-.07,0-.18-.19-.33,0-.2-.28-.53-1.07-.98-.65-.6.55.71.81.98.98ZM51.51,63.14v.33l.16-.16-.16-.16ZM6,63.79v.33l.16-.16-.16-.16ZM47.58,64.45v.33l.16-.16-.16-.16ZM83.43,64.45c-.68-.09-.75-.03-.65.65l.65-.65ZM81.79,66.74s.12-.69-.16-.65l-.81.82c.17.06.94-.13.97-.17ZM80.15,67.72c-.46-.24-.87.21-.65.32.46.24.87-.21.65-.32ZM76.55,70.99c.24-.46-.21-.87-.32-.65-.24.46.21.87.32.65ZM14.84,70.66v.33l.16-.16-.16-.16ZM67.22,74.26v.33l.16-.16-.16-.16ZM68.2,74.26v.33l.16-.16-.16-.16ZM70.49,75.24v.33l.16-.16-.16-.16ZM62.8,75.9c-.06-.04-1.26-.38-1.3-.33-.81.97,1.9.69,1.3.33ZM64.76,76.23c-.08-.04-1.58-.39-1.63-.33-.87,1.05,2.29.64,1.63.33ZM67.88,75.9v.33l.16-.16-.16-.16Z"/>
        <path class="cls-1" d="M42.51,65.76s0-.22,0-.33c.03.05.31-.05.33,0,.08.18-.11.37-.33.33Z"/>
        <path class="cls-1" d="M16.97,71.97s-.32.02-.33,0c-.14-.75.29,0,.33,0Z"/>
        <path class="cls-1" d="M52.98,68.7h.33c-.08.01-.17.17-.33,0Z"/>
        <path class="cls-1" d="M54.29,41.23s.32-.02.33,0c.14.75-.29,0-.33,0Z"/>
        <g>
          <path class="cls-1" d="M58.55,73.93c-.6-.69.72-1.88.98.17-.03.09-.94-.13-.98-.17Z"/>
          <polygon class="cls-1" points="64.28 72.3 64.44 72.46 64.28 72.63 64.28 72.3"/>
          <polygon class="cls-1" points="57.73 72.3 57.89 72.46 57.73 72.63 57.73 72.3"/>
        </g>
      </g>
    </g>
  </g>
</svg>