<?xml version="1.0" encoding="UTF-8"?>
<svg id="Layer_3" data-name="Layer 3" xmlns="http://www.w3.org/2000/svg" viewBox="0 0 100 149.45">
  <defs>
    <style>
      .cls-1 {
        fill: #fff;
      }
    </style>
  </defs>
  <g id="Sketchy_Icons" data-name="Sketchy Icons">
    <g>
      <path class="cls-1" d="M77.93,125.46c-.34,5.97-2.49,6.67-4.12,11.03-.17.45.29,1.01.17,1.2-.03.04-.67-.4-.98-.04-.45.51-.36,1.41-.73,1.89-.28.37-3.2,3.69-3.4,3.86-.49.42-2.55,1.21-2.71,1.46-.08.12.36.67.32.71-.19.18-4.22,2.17-4.65,2.35-10.34,4.35-28.14-.7-29.23-13.19-.24-2.69.07-4.85,1.18-7.29,1.31-.34.58.97.79,1.18.1.11,1.28-1.17,1.96-.79l-.78.78c4.44-1.09,2.44,1.16,2.42,2.94-.1,10.14,17.44,10.71,20.91,2.46.62-1.48.53-7.09.28-8.71-.92-6.01-9.78-8.55-14.51-10.67-.31-.14-.82-.24-1.54-.56-10.25-4.56-17.95-9.78-19.95-21.52-.73-4.28-.13-8.55.18-12.86-.72-.18-.14.84-.59.79s.01-.94-.39-.79c-.35.13-1.17,1-1.9,1.3s-.93.29-1.7.63c-.82.36-3.66,1.12-5.07,1.42-1.28.28-1.53-.48-1.97-.59-.34-.09.07.87-.76.81-.52-.04-1.06-.54-1.58-.61-3.05-.43-6.02-.87-8.03-3.6-2.42-3.3-1.72-7.03.11-10.41,4.56-8.42,14.05-11.2,19.25-19.02,4.01-6.05,2.76-7.7,3.43-14.3,1.37-13.55,1.34-21.69,13.02-30.36,15.46-11.48,27.47-1.33,33.93,13.72,4.89,11.39,3.72,25.63,12.16,35.58,4.32,5.1,15.74,9.25,16.51,16.22.65,5.88-9.05,7.51-13.4,7.01-1.33-.15-3.45-1.11-4.75-1.51-2.1-.64-4.84-1.9-7.41-2.34-.66-.11-5.76-.26-6.14-.15-.12.03-1.86,1.42-1.94,1.51-2.14,2.39-5.27,11.49-4.7,14.58.12.65,2.05,4.38,2.53,5.18,6.25,10.4,14.2,16.75,13.77,30.32,0,.24,0,.35,0,.39ZM56.65,3.93c.61-.56-.51-.85-.78-1.01-2.87-1.69-5.83-1.53-9.07-.96-.11.59,1.13.53,1.52.54,1,.03,1.89-.26,2.97-.13s5.15,1.74,5.35,1.55ZM46.4,2.75s.15-.83-.19-.78c-1.08.62-.26,1.23.19.78ZM45.22,2.36c-.55-.28-1.05.25-.78.39.55.28,1.05-.25.78-.39ZM49.55,3.94c-1.53.69-5.44.22-6.61.66-.46.17-.47.79-.58.84-.49.21-1.05-.28-1.5-.08-4.2,1.85-6.07,5-8.26,8.84.77.18.94-.4,1.34-.82,4.12-4.27,8.54-7.84,14.23-8.63.59-.08,1.22-.07,1.37-.8ZM50.93,3.93v.39l.2-.2-.2-.2ZM58.22,3.94c-.82-.11-.9-.04-.78.78l.78-.78ZM58.81,4.73c-.39.27.21.54.4.77.39-.26-.18-.52-.4-.77ZM60.04,9.61c-4.07-2.62-8.12-4.2-12.9-3.04-4.64,1.12-10.69,5.74-13.26,8.91-.39.47-3.71,5.29-3.82,5.61-1.11,3.15-.48,8.69-.97,12.26-.72,5.24-5.17,19.88-8.32,23.93-3.64,4.69-9.43,6.04-13.47,9.67-.09.08-.54-.26-.61-.19-1.44,1.5-2.43,3.57-2.46,5.66-.09,6.77,13.08,5.93,17.23,4.2,1.05-.44,5.04-3.62,6.03-2.83.08.06-.58,1.51-.78,1.78.27.37.92-.37,1.13-.19,1.02.88-.25,1.23-.32,1.46-.75,2.33-.19,3.15-.39,5.04-.71,6.81-2.34,9.39,1.38,15.55,4.52,7.48,10.42,10.9,17.82,14.58,6.58,3.27,19.32,7.83,18.99,16.8-.18,4.99-2.34,7.93-6.36,10.63-1.57,1.06-5.74,3.08-7.65,3.19-5.52.31-10.9-1.27-14.76-5.31,1.3,3.97,4.8,6.53,8.87,7.09,21.15,2.93,37.45-14.85,23.9-34.17-9.03-12.87-14.04-17.68-8.32-34.25,1.57-4.53,5.03-8.96,10.3-7.6,5.54,1.43,6.7,4.49,14.3,4.39,2.86-.04,5.77.21,4.56-3.52-.66-2.03-2.38-3.73-3.72-5.17-2.25-2.41-5.09-3.88-7.12-6.11-9.61-10.53-5.04-21.73-8.82-34.15-.11-.36-1.22-1.51-1.36-1.82-2.57-5.51-3.61-8.82-9.11-12.37ZM60.78,5.9v.39l.2-.2-.2-.2ZM63.34,10.24c.28-.55-.25-1.05-.39-.78-.28.55.25,1.05.39.78ZM32.02,15.37v.39l.2-.2-.2-.2ZM30.05,15.78c-.89.6-.49,1.13,0,.39.13-.2.32-.21,0-.39ZM28.87,18.53v.39l.2-.2-.2-.2ZM28.47,19.71v.39l.2-.2-.2-.2ZM27.48,31.15c.03-.68.58-2.46-.39-2.76l.39,2.76ZM27.49,33.13c-.55-.28-1.05.25-.78.39.55.28,1.05-.25.78-.39ZM75.56,45.75c.24-.52-.09-1.26-.59-1.57-.14.44.37,2.05.59,1.57ZM76.74,48.51c.11-.08-.6-2.45-1.18-2.36.02.38.23,3.09,1.18,2.36ZM76.35,48.91c-.23.45.25.91.59,1.17.16-.4-.4-1.55-.59-1.17ZM21.97,53.25c.28-.55-.25-1.05-.39-.78-.28.55.25,1.05.39.78ZM78.12,52.46v.39l.2-.2-.2-.2ZM78.91,53.25v.39l.2-.2-.2-.2ZM20,56.01c.08-.06.56-1.6.6-1.96-.23.31-1.38,1.21-1.38,1.37,0,.09.63.7.78.59ZM19.21,56.02c-.36-.32-1.15.42-1.34.82l-2.2,2.33c.93.38,3.84-2.89,3.54-3.15ZM87.38,60.75c-.06-.05-1.23-.19-1.57-.21.69,1.49,1.87.44,1.57.21ZM88.47,61.65c-.28-.15-1.01-.32-1.09.08,1.76,2.84,4.48,4.24,5.07,7.94l.44,2.52c-.03-1.05,1.24-.99,1.51-1.84.61-1.96-.72-3.1-1.76-4.57-.08-.11.23-.49.15-.59-.43-.55-3.7-3.19-4.32-3.53ZM91.72,74.95c4.31-.19,7.89-2.75,4.92-7.1l-.56,3.78-4.36,3.32ZM2.07,71.4v.39l.2-.2-.2-.2ZM1.88,72.19c-.78,2.08.22,5.27,2.17,6.3-.13-1.26-1.23-2.39-1.59-3.53-.29-.92.17-2.4-.57-2.77ZM65.51,72.19v.39l.2-.2-.2-.2ZM64.52,74.16s.28-.96.21-1.17c-.94.46-.53,1.57-.21,1.17ZM91.32,74.96c-.13-.06-2.62-.06-2.75,0-1.08.5,3.84.5,2.75,0ZM17.24,80.09c-.88-.36-2.64-.15-3.15.78l3.15-.78ZM6.8,80.08v.39l.2-.2-.2-.2ZM8.77,80.48v.39l.2-.2-.2-.2ZM13.5,80.48v.39l.2-.2-.2-.2ZM10.35,80.87v.39l.2-.2-.2-.2ZM62.76,95.86v.39l.2-.2-.2-.2ZM61.38,123.88c.89,3.33,1.24,6.93.19,10.25,2.67-2.58,2.44-7.7-.19-10.25ZM37.73,130.58c.28-.55-.25-1.05-.39-.78-.28.55.25,1.05.39.78ZM37.14,131.37v.39l.2-.2-.2-.2Z"/>
      <path class="cls-1" d="M39.7,24.45s-.02-.39,0-.39c.36-.17.36.56,0,.39Z"/>
      <path class="cls-1" d="M40.1,18.53c.52.53-1.66,1.78-1.18,2.36.61.74.96-.98,1.42-1.13,3.06-.97,3.49.99,4.53,3.18.14.3.7.3.75.6.35,1.76-.78,7.41-1.65,9.11-.03.06-.52-.23-.59-.12-.04.05.23.43-.55,1.08-1.22,1-3.25,2.23-4.8,1.87-.55-.13-1.93-2.44-2.08-3.13-.64-2.88-.02-9.98,1.86-12.39.27-.35,1.96-1.78,2.3-1.43ZM38.32,20.91c-.39.27.21.54.4.77.39-.26-.18-.52-.4-.77ZM39.7,24.05c-.11.43,0,.38,0,.39-.35,1.06-1.48,3.61-1.57,4.18-.21,1.37.06,4.17,2.01,3.92,1.78-.23,3.74-8.96,1.54-10.29-1.22-.74-1.71.73-1.98,1.79ZM38.91,25.63c.28-.55-.25-1.05-.39-.78-.28.55.25,1.05.39.78Z"/>
      <path class="cls-1" d="M56.53,19.05c.66.49,2.37,3.33,2.67,4.22.85,2.54.74,9.88-2.76,10.11-1.18.08-3.52-3.74-3.82-4.7-.89-2.82-.88-13.18,3.91-9.63ZM56.25,22.08s-1.13-.04-1.17,0c-.71.6.21,7.28,1.96,7.89,0-1.15.46-2.15.41-3.33-.02-.43-1.03-4.4-1.2-4.56Z"/>
      <path class="cls-1" d="M53.83,35.16c.63,1.03-.3,5.44-1.38,5.79-.19.06-3.05.4-3.21.36-.04,0-.08-.46-.4-.64-1.45-.83-3.65-2.46-3.06-4.4,1.03-3.37,2.73,1.9,3.23,2.02,2.93.66,2.65-2.84,3.16-3.23.33-.25,1.48-.18,1.66.11Z"/>
    </g>
  </g>
</svg>