<?xml version="1.0" encoding="UTF-8"?>
<svg id="Layer_2" data-name="Layer 2" xmlns="http://www.w3.org/2000/svg" viewBox="0 0 79.01 70.07">
  <g id="Ghosts">
    <g id="Layer_38_Image" data-name="Layer 38 Image">
      <g>
        <path d="M.98,64.37c-.93-2.64-1.15-4.65-.85-7.38.07-.65-.49-1.13.36-.86-.3-1.03.19-1.12.56-.12.41,1.11.82,2.51,1.71,3.59,1.46,1.77,4.81,2.31,6.67.91,1.01-.76,3.54-3.27,4-4.37,1.45-3.4-1.46-8.97-2.03-12.55-1.06-6.66,2.83-11.27,9.16-12.8,6.86-1.65,11.23,2.36,15.49-5.64,2.8-5.27,1.97-12.62,4.27-17.94,1.08-2.49,3.33-6.6,6.31-7.05.57-.09,3.25-.21,3.76-.14,1.45.2,2.26,1.64,2.26,3,0,.77-.49,1.55-.49,2.39,0,3.53.47,5.33-.63,9.14-.3,1.03-.83,1.93-1.15,2.93,5.46-4.56,13.6-6.66,20.23-3.47,1.95.94,2.95,1.92,4.34,3.33s3.64,3.49,3.97,5.35c.07.38.1.78.08,1.16-.02.32-1.4,3.37-1.66,3.84-1.4,2.57-7.8,7.69-10.4,9.22-.82.48-4.26,1.7-4.37,2.45-.52,3.48,6.89,4.45,9.05,5.46,1.23.57,2.82,2.24,3.13,3.57.52,2.21-1.59,4.45-3.77,4.75-2.46.33-7.63-.67-9.94-1.61-8.07-3.27-15.45-4.58-22.02,2.13-5.09,5.19-9.53,11.97-16.74,14.86-2.63,1.06-8.28,1.96-11.57,1.33-.17-.03-.13-.41-.3-.45-3.53-.73-4.91-.88-7.79-3.31-.07-.06-.38.19-.4.16-.08-.07-.97-1.33-1.22-1.66.55.1,0-.21,0-.24ZM51.17,1.53c-.28-.33-1.39-.49-1.85-.54.78.75,1.52,1.42,2.04,2.39.64.14-.12-1.78-.18-1.85ZM45.72,3.14l3.58-.6c-.62-2.07-4.26-.05-3.58.6ZM45.36,2.9v.24l.12-.12-.12-.12ZM61.04,39.02c.58-1.78,2.17-1.58,3.64-2.41,3.54-2.01,6.98-5.44,9.39-8.61.22-.28.72-.39.81-.51.07-.11.15-2.33.13-2.62-.09-1.4-2.16-5.15-2.96-6.25-.28-.38-1.47-1.83-1.76-2-.45-.25-4.74-1.64-5.32-1.74-1.5-.27-5.84.28-7.34.76-.52.17-6.03,2.88-6.28,3.13-.09.09.13.38.12.4-.49.4-.62-.71-.84-.71-.15,0-1.79,2.53-2.05.37-.18-1.58-.36-4.75-.22-6.23.19-2.08,1.82-4.66,1.85-6.05,0-.51-.54-2.74-.94-2.85s-2.72.2-3.25.34c-1.46.38-2.71,1.43-3.49,2.72-1.92,3.16-2.76,12.16-3.36,16.2-.14.93.05,2.17-.2,3.21-.21.88-1.41,3.07-1.99,3.75-.95,1.13-4.6,1.52-6.09,1.86-.59.14-2.64,1-3.36.91-.49-.06-1.07-.47-1.6-.54-4.06-.56-9.26-.04-11.35,4.08-1.62,3.2.93,7.16,1.66,10.39.97,4.29.56,10.44-2.96,13.42-.21.18-.76.23-.8.28-.03.04.25.4.22.44-.09.12-2.39,1.44-2.65,1.55-.48.21-3.3.96-3.65.86-.16-.04-.16-.4-.2-.4-.61-.1-1.61.31-2.23-.55-.26.69,1.23,2.23,1.81,2.73,6.83,5.93,15.76,2.81,21.53-2.84,1.55-1.52,2.27-2.82,3.69-4.44.79-.91,2.29-2.04,3.02-2.97.21-.27.19-.8.24-.85.02-.02.33.22.41.16.77-.57,1.81-2.26,2.81-3.04,4.62-3.58,13.34-3.86,18.83-2.57,4.12.97,7.62,3.28,12.02,3.02.37-.02,3.82-.71,3.98-.84.39-.32.52-.87.44-1.35-.03-.16-1.59-2.61-1.72-2.73-.2-.17-2.5-.9-2.94-1.03-1.45-.44-3.45-.59-4.7-1.43-1.68-1.13-1.97-2.9-2.33-4.79.27.12.28-.36,0-.24ZM51.46,8.64c.17-.34-.15-.64-.23-.48-.17.34.15.64.23.48ZM51.46,9.84l-.12-.72c-.45.32-.41.51.12.72ZM51.46,10.08c-.16-.19-.73.91-.6,1.19.24-.18.77-.99.6-1.19ZM49.67,12.23v.24l.12-.12-.12-.12ZM50.87,12.23v.24l.12-.12-.12-.12ZM50.63,12.71v.24l.12-.12-.12-.12ZM50.39,13.19v.24l.12-.12-.12-.12ZM63.91,13.43c-.08-.04-1.11-.04-1.19,0-.63.29,1.82.29,1.19,0ZM64.15,13.43c-.24.17.73.54.95.36-.14-.3-.74-.52-.95-.36ZM50.75,13.67c-.39-.32-.66.3-.48.71.12.26.51-.68.48-.71ZM60.68,13.66v.24l.12-.12-.12-.12ZM66.18,13.66v.24l.12-.12-.12-.12ZM57.81,14.15c-.54.36-.3.69,0,.23.08-.12.19-.13,0-.23ZM56.61,14.62v.24l.12-.12-.12-.12ZM56.13,14.86v.24l.12-.12-.12-.12ZM70.97,15.34v.24l.12-.12-.12-.12ZM71.33,16.05s.98.36,1.19.36c-.21-.54-1.57-.7-1.19-.36ZM74.35,18.55c-.2-.18-1.48-1.19-1.58-.58l.52.33,2.95,5.65c-.19-.91.06-2.08-.13-2.94-.03-.15-1.48-2.21-1.76-2.46ZM51.35,18.21v.24l.12-.12-.12-.12ZM77.73,22.81l.06.54c.28-.2.27-.35.19-.66-.06-.25-.4-1.27-.67-1.37l.42,1.49ZM77.31,25.86l.12-1.91c-.41.34-.79,1.66-.12,1.91ZM38.07,25.63l-4.07,4.54c2.43-.17,3.1-2.72,4.07-4.54ZM76.59,27.3c.18-.17.13-1.34.24-1.67-.58-.01-1,2.42-.24,1.67ZM13.78,41.89v.24l.12-.12-.12-.12ZM12.7,43.08c.17-.37-.12-.97-.23-.72-.17.37.12.97.23.72ZM14.14,42.85c-.77-.87-.23,1.69,0,1.19.04-.08.04-1.15,0-1.19ZM12.82,43.56v.24l.12-.12-.12-.12ZM13.18,44.04c-.7-.69-.41,1.46.24.95.04-.03-.21-.92-.24-.95ZM15.57,49.54c-.1-1.41-.3-3.22-.87-4.51-.11-.24-.25-.78-.56-.75l1.43,5.26ZM13.66,46.43c.1-.23-.35-1.23-.47-.95-.1.23.35,1.23.47.95ZM14.02,48.35v.24l.12-.12-.12-.12ZM14.26,49.3v.24l.12-.12-.12-.12ZM14.5,50.02v.24l.12-.12-.12-.12ZM15.45,50.02v.24l.12-.12-.12-.12ZM35.55,54.57v.24l.12-.12-.12-.12ZM35.31,56v.24l.12-.12-.12-.12ZM33.04,57.91s.52-.98.6-1.19c-.63.19-1.03,1.59-.6,1.19ZM32.23,59.02c.92-1.36-.21-.72-.78-.07-.51.58-1.7,2.06-2.17,2.71-.1.15-.61.39-.3.79.2.26,2.98-3.03,3.25-3.44ZM12.1,59.11v.24l.12-.12-.12-.12ZM11.39,59.83v.24l.12-.12-.12-.12ZM28.11,63.28c1.22-1.23.41-.86-.33.02.14.9.18.13.33-.02ZM1.93,63.18c.17-.34-.15-.64-.23-.48-.17.34.15.64.23.48ZM2.89,63.66c-1.55-.64.18,1.73.84,2.14.1-.83-1.11-1.43-1.32-1.67-.25-.3.63-.12.47-.47ZM27.54,63.66c-.44-.08-.79.26-.72.72l.72-.72ZM26.1,65.09c.17-.34-.15-.64-.23-.48-.17.34.15.64.23.48ZM4.45,66.05v.24l.12-.12-.12-.12Z"/>
        <path d="M61.04,39.26s-.23.03-.23-.12.23-.11.23-.12c-.01,0-.01.23,0,.24Z"/>
        <path d="M.98,64.61s-.54-.34,0-.24c.01,0-.01.24,0,.24Z"/>
        <path d="M66.2,31.98c-.55.69-1.8,1.86-2.77,1.68-.71-.13-.79-.63-1.01-.8-.07-.05-.36.18-.4.15-1.15-.94-.09-4.39.76-5.4.21-.25,2.02-1.56,2.3-1.64.26-.07,2.38-.34,2.5-.31.32.07.69.94.75,1.27.25,1.25-1.34,4.04-2.15,5.04ZM67.26,26.82c-.59-.62-3.05,2.28-3.26,3.03-.28,1.04.57,2.65-1.28,1.03.09,2.01,1.65,1.39,2.63.29.4-.45,2.34-3.91,1.91-4.36Z"/>
        <path d="M65.29,22.94c-.03.06-.95.98-1.01,1.02-2.25,1.53-7.62,1.44-8.72-1.59-1.33-3.67,4.86-3.58,7.08-2.77,1.12.41,3.38,1.92,2.65,3.34ZM63.83,21.63c-1.11-1.28-5.46-1.85-6.8-.73-1.47,1.23,2.5,2.81,3.66,2.78.98-.03,4.29-.74,3.14-2.05Z"/>
        <path d="M54.72,31.43c-.18-.43-.68-1.29-.85-1.67-.57-1.28-1.59-2.26.53-2.99,4.73-1.61,4.63,7.37,1.05,5.96-.86-.34-.55-.87-.73-1.29ZM56.49,31.84c.09-.08.39-2.14.33-2.4-.14-.61-1.19-2.03-2.01-1.81-1.34.36.12,1.44.58,2.32.12.23.5,2.43,1.1,1.89Z"/>
      </g>
    </g>
  </g>
</svg>