<?xml version="1.0" encoding="UTF-8"?>
<svg id="Layer_3" data-name="Layer 3" xmlns="http://www.w3.org/2000/svg" viewBox="0 0 60.91 65.53">
  <g id="Ghosts">
    <g id="Layer_35_Image" data-name="Layer 35 Image">
      <g>
        <path d="M7.45,22.95c1.19,1.31,1.98,3.13,3.77,3.76,1.42.5,3.83.28,4.83-1.01l-.83-.04c.29.76-.57.27-1.21.29-.38.01-.8.27-1.48.04-.72-.25-.98-.79,0-.83.68-.03,1.34.32,2.04.03.29-.12,1.09-1.46,1.15-1.75.16-.82-.52-2.32-.62-3.25-.68-6.91-.44-13.48,5.87-17.56,3.69-2.39,10.94-3.71,14.87-1.5,1.02.57,1.33,1.34,2.1,1.97,2.25,1.81,5.14,2.69,6.35,5.85.29.75.4,3.05.49,3.21.51.84,2.4-.42,2.96.03-.11-.76,2.09-2.08,2.74-2.28.3-.09.7.17.72.14.05-.08-.09-.5.04-.66.1-.11,2.46-1.09,2.77-1.19,3.65-1.08,6.4-.3,6.85,3.72.2,1.77-.4,3.09-1.3,4.58.04-.27-.19-.21-.24-.24-.16-1.13.83-1.76.9-2.03.17-.69-.32-4.16-.72-4.62-.05-.05-.92-.2-1.14-.76.05.93.79,1.52,1.02,2.44.49,1.97.02,3.04-1.02,4.64-.18.28-.6.13-.65.21-.04.06-.1,1.13-.34,1.29-.05.03-.42-.24-.69-.11-.47.23-.85,1.44-1,1.53-.42.28.13-.55-.61.44-.7.94-.87.49-1.36.8-3.05,1.96-6.3,3.86-8.2,7.11-.45.78-1.45,2.71-.56,3.39.56-1.23,1.34-2.88,2.15-3.93.69-.9,3.34-3.87,4.4-3.73.09.01.48,1.2,1.26-.04.07-.11-.18-.4-.17-.42.23-.28,1.03,0,1.08-.02.08-.02-.06-.34-.01-.39.26-.27.62-.62.91-.86.22-.19.44-.68.65-.04.11.34-2.77,2.6-3.1,3.13-1.13.04-1.26,1.33-1.44,1.53-.03.03-.44-.29-.71-.13-.14.08-.23.51-.55.71-1.48.93-2.82,2.06-3.56,3.8-.51,1.19-.72,2.3-.37,3.58.06.22.87,2.19.93,2.29.02.04.02-.33.43.4,1.79,3.18,4,5.94,4.77,9.58s.69,7.79.25,11.23c-.04.28.25.65.2.79-.01.03-.38.04-.51.33-.96,2.17-1.99,3.34-3.42,4.72-1.35,1.29-4,1.92-5.95,2.06-.18.01-.36.27-.47.26-.25-.02-.36-.33-.48-.39-.2-.09-.03.4-.27.47-.65.2-3.26-.66-2.48-1.43.43-.42,1.67,1.06,2.15.12h-.71c.9-.65-.07-1.05-.48-.83-.06.03.56.61-.11.48-.44-1.03,1.38-1.59,2.03-2.27,1.67-1.76,2.52-4.73.4-6.49-2.68-2.23-5.78-2.77-8.77-3.82-1.24-.44-3.41-1.76-4.48-1.96-.57-.11-1.01.19-1.21.14-.07-.01-.59-.87-.91-1.1-1.3-.96-1.52-1.15-2.61-2.17-.24-.23-1.02-.47-1.05-.53-.09-.15.26-.57.21-.67-.04-.07-1.17-.54-1.34-.81-.77-1.21-1.53-3.42-2.6-4.46-.71-.69-1.69-.91-2.49-1.93-.08-.1.14-.48-.12-.48-.19,0-.16.37-.12.48-.33-.12-.81-.33-1.11-.39-2.42-.44-4.62-.8-7.11-1.54-.25-.07.05-.7-.87-.23.67-.83-.91-.4-1.65-.62-4.21-1.26-6.84-6.88-4.92-10.86.34-.7,1.47-2.29,2.13-2.65.35-.19,2.87-.58,3.01-.46.26.23-.47.79-.47.84,0,.13.91.64.95.6.13-.16-.4-1.05-.24-1.19.23-.2,1.69.55,2.01.74.59.36,1.64,1.51,2.17,1.89.45.32,1.28.68,1.8.96-.91,1.48-2.05-.39-2.96-1.12-.31-.25-.88-.72-1.34-1.04-.18-.13-.72-.72-.96-.48-.43.43.68.67.72.72ZM33.99,1.18s.58.17.71.12c-.28-.57-.95-.32-.71-.12ZM38.77,7.4c-1.11.61-1.16-.45-1.85-.96-.58-.43-.99.14-.54-.95-.56.28-1.8-.22-1.19-.96-1.2.54-1.07-.79-1.67-1.28-.12-.1-2.59-1.55-2.74-1.61-.11-.05-2-.43-2.1-.42-.19.02-3.58,1.09-3.75,1.19-.12.07-1.19,1.31-1.79,1.79-1.92,1.57-2.32,2.42-3.54,3.63-1.08,1.07-1.14-.05-1.17,1.61,0,.13-1.1,1.79-1.21,2.12-.31.92-.05,6.97.07,8.13.1,1,.73,2.27.71,3.38-.01,1.02-1.51,4.2-2.47,4.57-.49.19-1.98.03-2.46.14-.2.04-.07.4-.11.43-.52.35-.43-.43-.63-.48-.41-.1-1.04.06-1.58-.05-2.01-.42-2.45-2.85-4.02-3.63-.96-.47-2.77-.78-3.75-.29-.08.04-.13.34-.29.47-.11.09-.41-.08-.44-.04-.75.88-.32,5.22.24,6.25.75,1.38,3.05,2.83,4.5,3.39,4.23,1.63,8.55.13,12.88,2.9,1.79,1.14,1.33,1.67,2.2,3,2.01,3.07,5.1,6.2,8.54,7.54,2.45.95,4.81,1.41,7.3,2.52,1.91.85,4.42,2.15,5.91,3.62,1.61,1.6,2.79,5.14,1.75,7.25-.21.43-1.73,2.09-1.94,2.21l-1.49.97c.9.26,1.54-.03,2.36-.38,2.75-1.2,5.48-3.63,6.35-6.52.08-.25-.11-.37-.1-.39.03-.08.46.15.47.13.05-.09-.18-.71-.19-1.01-.09-7.54-1.47-9.45-5.1-15.57-.67-1.13-2.21-2.58-1.88-3.98l-.47.48c-.18-.94-.12-1.89-.16-2.84-.02-.39-.57-1.64.16-1.35.64.25-.09,1.03.72.84.13-1.39-.13-.7-.48-.86-.91-.42-.03-1.56,0-2.13,0-.11-1.03.16-.95-.35.53.06.53-1,.89-1.61.62-1.07,1.58-2.14,2.21-3.11.56-.87.62-2.09,1.86-2.41.32-.08.58.18.67.18.09,0-.06-.42.1-.58,2.57-2.5,7.38-3.48,8.68-7.59.37-1.16.68-4.24.05-5.23-.12-.2-.4,0-.55-.08-.08-.04-.03-.36-.05-.38-.15-.1-.42.4-.6.47-.45.16-.32-.48-.48-.49-.09,0-1.52.36-1.72.43-.26.09-.26.4-.43.48-.2.09-.99.09-1.02.13-.19.2-.22.83-.29.89-.03.02-.33-.24-.42-.18-.44.27-1.6,1.77-2.22,2.22-.49.36-.79.13-.83.15-.07.04.15.43.13.44-.06.03-1.05.45-1.11.46-.16.03-1.91.08-1.99.02-.02-.01.26-.31.13-.47-1.32,1.2-2.69-2-3.05-2.11-.78-.24-.8.85-.91-1l-.47.47c.48-.96-.12-.61-.26-.88-.21-.42.02-.65,0-.68-.03-.08-.45.15-.47.12-.07-.12.06-.67-.07-1.01-.33-.88-1.11-1.6-1.13-2.58l-.47.47c-.36-1.9-2.63-3.51-4.36-4.15-.55-.2-1.16.2-1.85-.51.24.25.33.59.59.84,1.32,1.27,4.74,3.22,5.62,4.54-.18-.02-.26.06-.24.24ZM24.31,2.14v.24l.12-.12-.12-.12ZM21.92,3.1v.24l.12-.12-.12-.12ZM20.68,4.38c.18-.24.7-.34.87-.68.1-.6-.28-.26-.53-.1-.74.5-3.44,3.32-3.86,4.04-.34.57-.37,1.34-.49,1.8-.1.41-1.03,1.34-.74,2.26.78-1.56,1.21-2.95,2.29-4.35.78-1.02,1.64-1.9,2.46-2.98ZM34.35,3.58v.24l.12-.12-.12-.12ZM40.68,5.97c-.77-.58-.28.73-.06,1.12s.8.65,1.01.96c.56.83,1.27,2.56,1.54,2.86.21.24.58.66.85.79-.02-1.36-.85-3.44-1.74-4.47-.07-.09-1.51-1.19-1.61-1.26ZM42.24,10.75v.24l.12-.12-.12-.12ZM49.89,10.99v.24l.12-.12-.12-.12ZM48.33,11.94c.28.1.95-.1.95-.36,0-.68-.81-.02-.95.36ZM58.26,11.23v.24l.12-.12-.12-.12ZM58.73,11.47v.24l.12-.12-.12-.12ZM16.06,13.38c.07-.08.42-1.4-.23-1.44-.03.04-.41,2.23.23,1.44ZM58.85,11.95c-.72-.12-.38.17-.48.58-.22.89-.12,1.65-.23,2.53.84-.65.61-2.16.71-3.11ZM57.78,13.86v.24l.12-.12-.12-.12ZM16.18,14.82v.24l.12-.12-.12-.12ZM16.18,15.3v.24l.12-.12-.12-.12ZM16.54,19.6c-.29-.59.04-1.14-.02-1.75-.02-.25-.13-1.32-.46-1.35-.16.92.06,1.58.03,2.53-.01.49-.23.66.44.57ZM16.06,19.84c-.04.05.12.73.11.95.76-.36,0-1.1-.11-.95ZM47.74,23.43v.24l.12-.12-.12-.12ZM51.15,24.34c.13-.2.03-.46.05-.67-.41.78-.85.51-.9.55-.21.19-.98,1.11-.77,1.36.07.08,1.56-1.15,1.62-1.24ZM48.81,26.29c.17-.34-.15-.64-.23-.48-.17.34.15.64.23.48ZM45.11,30.84v.24l.12-.12-.12-.12ZM44.27,34.42c.16-.35-.08-1.29-.23-.95-.16.35.08,1.29.23.95ZM45.22,34.91s-.5-.09-.47.12c.97,3.81,3.88,6.47,5.33,10.05.09.22-.31.49.4.36-.43-3.04-2.59-5.44-4.1-7.97-.28-.47-1.06-2.45-1.16-2.55ZM13.07,35.86v.24l.12-.12-.12-.12ZM14.86,36.34c-.05-.45-.89-.61-1.19-.47s.86.6,1.19.47ZM16.06,36.34c-.2-.52-.4-.57-.72-.12l.72.12ZM18.51,38.68c.12.06.65-.08.89-.07-.16-.64-1.59-1.69-2.15-1.44-.69.31.17.32.53.62.23.19.65.84.73.89ZM20.72,38.73v.24l.12-.12-.12-.12ZM21.31,40.16c.14-.28-.15-.55-.36-.71-.1.24.24.94.36.71ZM21.79,40.41s-.5-.09-.47.12l.71.84c.02-.17-.2-.92-.24-.96ZM23.23,43.03l-.83-1.67c-.66.18.33,1.57.41,1.62.17.11.36.02.42.05-.16.48.27.61.71.6-.29-.81-.45-.47-.71-.6ZM24.67,44.95c.44.52.48-1.29-.24-.71-.03.02.22.69.24.71ZM50.96,46.86c.17-.34-.15-.64-.23-.48-.17.34.15.64.23.48ZM28.49,48.06c-.94-.14-1.4-1.28-2.38-1.08.68.24,1.14.78,1.78,1.09.2.1.59.53.61,0ZM28.73,48.53l1.67.6c-.23-.2-1.45-1.19-1.67-.6ZM33.63,48.77v.24l.12-.12-.12-.12ZM35.06,49.49v.24l.12-.12-.12-.12ZM38.65,51.88v.24l.12-.12-.12-.12ZM42.83,54.75c-.4-1.82-2.44-2.04-3.82-2.75l3.82,2.75ZM44.74,56.9c.06-.53-.18-1.45-.71-1.67l.71,1.67ZM44.06,58.54c-.12-.1.14-.54-.26-.44-.36.5-.2,2.06-.26,2.28-.02.08-.49-.08-.59.1-.14.24.19.5.09.67-.05.09-1,.47-.8,1.01.55-.66,1.76-1.15,2.09-1.97.15-.36.32-1.65.18-1.85-.01-.02-.39.25-.45.2ZM41.76,62.17v.24l.12-.12-.12-.12Z"/>
        <path d="M16.3,37.77s.23-.02.24,0c.14.54-.21,0-.24,0Z"/>
        <path d="M7.45,22.95l.24-.24-.24.24Z"/>
        <path d="M59.33,16.25c.02.18.03.26.24.24-.55.92-1.27,1.68-1.92,2.51-.17.21-.03.63-.22.73-.29.15-.69-.16-.72-.13-.19.2-.19,1.63-1.44,1.19,1.09-1.1,2.41-2.38,3.26-3.67.42-.64.03-1.42.81-.87Z"/>
        <path d="M39.01,7.16c.16.24.35.32.24.72-.21-.01-.45-.29-.48-.48.11-.06.28-.04.24-.24Z"/>
        <polygon points="27.89 49.49 28.01 49.61 27.89 49.73 27.89 49.49"/>
        <path d="M27.96,15.48c-.03.05-.38.04-.42.22-.26,1.1.03,2.72-1.67,3.08-3.8.8-5.32-8.42-2.73-10.15,1.72-1.15,4.22,2.62,4.54,4.02.08.33.35,2.71.29,2.83ZM25.07,10.35c-1.31-1.41-2.06.42-2.03,1.65.03,1.29,1.14,3.66,2.15,4.44.06.04.26-.16.37-.11.07.03.04.64.65.4.33-.14.61-2.55.55-2.94-.05-.35-1.43-3.14-1.7-3.44ZM24.19,16.73c-.34-.17-.64.15-.48.23.34.17.64-.15.48-.23ZM24.9,17.69c.17-.34-.15-.64-.23-.48-.17.34.15.64.23.48ZM25.5,17.45v.24l.12-.12-.12-.12Z"/>
        <path d="M31.98,14.67c-1.1-1.88-1.81-5.62-.72-7.73.79-1.53,1.5-.95,2.37-.02,1.56,1.66,2.52,4.06,2.51,6.35,0,2.93-2.38,4.44-4.17,1.4ZM33.54,14.54c.98.56,1.39-1.69,1.35-2.4-.04-.81-.7-2.99-1.27-3.55-.29-.29-1.13.05-1.43-.7-.32,1.57-.28,4.1.53,5.49.08.15.76,1.12.82,1.16Z"/>
        <path d="M33.89,22.63c-1.2,2-3.46,1.41-3.7-1.21-.2-2.27,2.66-3.62,3.81-1.71.32.53.2,2.4-.11,2.92ZM32.5,20.86c-1.25-1.21-1.62,1.91-.54,1.79.46-.05.99-1.35.54-1.79Z"/>
        <polygon points="42.95 12.19 43.07 12.31 42.95 12.43 42.95 12.19"/>
      </g>
    </g>
  </g>
</svg>