<?xml version="1.0" encoding="UTF-8"?>
<svg id="Layer_3" data-name="Layer 3" xmlns="http://www.w3.org/2000/svg" viewBox="0 0 100 107.59">
  <defs>
    <style>
      .cls-1 {
        fill: #fff;
      }
    </style>
  </defs>
  <g id="Sketchy_Icons" data-name="Sketchy Icons">
    <g>
      <path class="cls-1" d="M12.23,37.67c1.95,2.15,3.25,5.14,6.19,6.18,2.33.83,6.29.46,7.94-1.66l-1.36-.06c.48,1.25-.93.44-1.99.48-.62.02-1.31.44-2.43.06-1.19-.4-1.61-1.3-.01-1.37,1.12-.05,2.2.52,3.35.05.47-.19,1.79-2.4,1.88-2.88.27-1.34-.86-3.81-1.01-5.33-1.11-11.34-.73-22.13,9.64-28.83C40.48.39,52.38-1.77,58.84,1.85c1.68.94,2.18,2.2,3.45,3.23,3.69,2.98,8.44,4.42,10.42,9.6.47,1.23.65,5.01.81,5.28.84,1.38,3.93-.68,4.86.04-.18-1.24,3.43-3.41,4.5-3.75.49-.15,1.14.28,1.18.23.09-.12-.16-.82.07-1.09.16-.19,4.04-1.8,4.55-1.95,5.99-1.77,10.51-.5,11.25,6.11.33,2.9-.66,5.07-2.14,7.52.06-.44-.32-.34-.39-.39-.26-1.85,1.37-2.89,1.48-3.34.27-1.13-.52-6.84-1.17-7.59-.08-.09-1.51-.32-1.87-1.24.08,1.53,1.3,2.49,1.68,4.01.81,3.23.03,4.99-1.68,7.62-.3.46-.98.22-1.06.35-.06.09-.17,1.86-.56,2.12-.08.06-.69-.39-1.13-.17-.77.38-1.4,2.36-1.64,2.52-.69.45.22-.91-1,.73-1.14,1.54-1.43.8-2.23,1.31-5.01,3.21-10.34,6.33-13.46,11.68-.74,1.28-2.39,4.45-.92,5.57.92-2.02,2.21-4.72,3.54-6.46,1.13-1.48,5.48-6.36,7.23-6.13.14.02.79,1.98,2.08-.07.11-.17-.3-.65-.27-.68.38-.46,1.69-.01,1.78-.03.13-.03-.1-.56-.02-.65.43-.44,1.02-1.02,1.49-1.42.36-.31.72-1.11,1.07-.07.19.57-4.55,4.26-5.1,5.14-1.86.07-2.07,2.18-2.36,2.51-.04.05-.72-.47-1.17-.21-.23.13-.38.83-.9,1.16-2.43,1.53-4.63,3.38-5.85,6.24-.83,1.95-1.18,3.78-.61,5.87.1.36,1.42,3.59,1.53,3.76.04.06.04-.55.71.65,2.94,5.22,6.57,9.76,7.84,15.73,1.21,5.68,1.13,12.79.41,18.44-.06.47.41,1.07.33,1.3-.02.05-.62.06-.84.54-1.57,3.56-3.26,5.49-5.62,7.75-2.21,2.12-6.57,3.15-9.77,3.37-.29.02-.59.44-.77.42-.4-.04-.59-.55-.79-.64-.33-.15-.05.65-.44.77-1.07.32-5.36-1.08-4.07-2.34.7-.69,2.75,1.74,3.52.19h-1.17c1.48-1.07-.11-1.72-.79-1.37-.1.05.92,1-.19.78-.71-1.69,2.26-2.61,3.33-3.73,2.74-2.88,4.13-7.76.65-10.66-4.4-3.67-9.5-4.55-14.4-6.27-2.03-.72-5.6-2.88-7.36-3.21-.93-.17-1.66.3-1.99.24-.11-.02-.97-1.42-1.49-1.8-2.13-1.58-2.5-1.88-4.29-3.57-.4-.37-1.67-.78-1.72-.86-.14-.25.43-.94.35-1.1-.06-.11-1.92-.89-2.21-1.33-1.27-1.98-2.51-5.61-4.27-7.31-1.17-1.14-2.77-1.5-4.09-3.17-.12-.16.22-.79-.2-.79-.31,0-.25.61-.2.79-.54-.19-1.34-.55-1.83-.63-3.97-.72-7.58-1.32-11.67-2.53-.4-.12.09-1.16-1.43-.37,1.1-1.36-1.49-.65-2.7-1.01-6.91-2.07-11.24-11.3-8.09-17.83.56-1.15,2.41-3.76,3.5-4.35.58-.32,4.71-.95,4.94-.75.43.38-.78,1.29-.78,1.37,0,.22,1.5,1.05,1.56.98.22-.26-.66-1.72-.39-1.96.38-.34,2.77.9,3.3,1.22.97.58,2.7,2.48,3.56,3.1.73.53,2.09,1.12,2.95,1.57-1.5,2.42-3.37-.64-4.87-1.83-.51-.41-1.45-1.18-2.2-1.7-.3-.21-1.17-1.18-1.57-.78-.7.71,1.11,1.11,1.18,1.18ZM55.8,1.94s.96.28,1.17.2c-.45-.93-1.57-.53-1.17-.2ZM63.65,12.16c-1.83,1-1.91-.74-3.03-1.57-.95-.7-1.63.23-.89-1.57-.92.47-2.95-.36-1.96-1.57-1.97.89-1.76-1.29-2.74-2.11-.2-.17-4.26-2.55-4.5-2.65-.19-.08-3.28-.71-3.45-.69-.32.04-5.87,1.78-6.15,1.95-.2.12-1.96,2.14-2.94,2.94-3.15,2.57-3.8,3.97-5.82,5.97-1.77,1.75-1.87-.09-1.92,2.65,0,.21-1.81,2.94-1.99,3.47-.51,1.51-.09,11.44.11,13.34.17,1.64,1.19,3.72,1.17,5.55-.02,1.67-2.48,6.89-4.05,7.5-.81.32-3.25.05-4.04.22-.32.07-.12.65-.19.7-.85.57-.71-.7-1.03-.78-.68-.17-1.71.1-2.6-.08-3.29-.69-4.02-4.68-6.61-5.95-1.58-.78-4.55-1.27-6.15-.48-.14.07-.22.56-.48.77-.18.15-.67-.13-.73-.07-1.23,1.45-.52,8.57.4,10.27,1.23,2.27,5.01,4.64,7.39,5.56,6.95,2.68,14.04.21,21.15,4.76,2.94,1.88,2.19,2.75,3.62,4.93,3.29,5.04,8.37,10.18,14.02,12.37,4.03,1.56,7.89,2.32,11.98,4.13,3.14,1.39,7.26,3.53,9.69,5.95,2.65,2.63,4.58,8.43,2.88,11.91-.35.71-2.84,3.43-3.18,3.63l-2.45,1.59c1.48.43,2.54-.04,3.88-.63,4.51-1.97,9-5.96,10.43-10.71.13-.42-.18-.61-.17-.65.04-.13.75.24.77.21.09-.14-.3-1.17-.31-1.67-.16-12.38-2.41-15.52-8.38-25.55-1.1-1.86-3.63-4.23-3.09-6.54l-.78.78c-.29-1.55-.19-3.1-.26-4.65-.03-.63-.94-2.7.26-2.22,1.04.42-.15,1.68,1.18,1.38.21-2.29-.21-1.16-.78-1.42-1.5-.7-.05-2.56-.01-3.49,0-.18-1.69.26-1.55-.58.88.1.87-1.64,1.46-2.65,1.02-1.75,2.59-3.52,3.62-5.11.93-1.44,1.02-3.44,3.06-3.95.53-.13.96.3,1.1.3.15,0-.1-.7.17-.95,4.21-4.11,12.11-5.71,14.25-12.45.6-1.9,1.11-6.96.08-8.59-.2-.32-.65,0-.9-.13-.13-.06-.04-.59-.09-.62-.25-.17-.68.65-.99.77-.74.26-.52-.79-.78-.8-.15,0-2.5.58-2.83.7-.43.15-.42.66-.7.78-.32.15-1.62.15-1.68.21-.32.33-.36,1.37-.48,1.46-.05.04-.54-.39-.68-.3-.72.44-2.63,2.9-3.64,3.65-.81.6-1.3.21-1.36.24-.12.07.24.71.21.73-.1.05-1.72.73-1.83.76-.26.06-3.14.13-3.27.03-.03-.02.42-.51.21-.77-2.17,1.97-4.42-3.28-5-3.47-1.28-.4-1.32,1.4-1.49-1.64l-.78.78c.8-1.58-.2-1.01-.42-1.44-.35-.69.03-1.07.01-1.12-.05-.13-.74.24-.76.2-.11-.19.09-1.11-.11-1.65-.54-1.44-1.82-2.62-1.86-4.23l-.78.78c-.59-3.11-4.32-5.77-7.16-6.81-.9-.33-1.91.33-3.04-.84.4.42.54.98.97,1.38,2.17,2.09,7.77,5.29,9.23,7.45-.29-.04-.43.1-.39.39ZM39.9,3.52v.39l.2-.2-.2-.2ZM35.98,5.09v.39l.2-.2-.2-.2ZM33.95,7.18c.3-.4,1.15-.56,1.43-1.12.17-.98-.47-.43-.86-.16-1.21.82-5.65,5.45-6.34,6.63-.56.94-.61,2.2-.8,2.96-.16.67-1.7,2.21-1.22,3.71,1.28-2.55,1.99-4.84,3.76-7.14,1.29-1.67,2.69-3.13,4.03-4.89ZM56.39,5.87v.39l.2-.2-.2-.2ZM66.79,9.81c-1.26-.95-.46,1.2-.1,1.84s1.31,1.07,1.66,1.58c.92,1.36,2.08,4.2,2.53,4.7.35.39.96,1.08,1.4,1.3-.03-2.24-1.4-5.65-2.86-7.34-.12-.14-2.49-1.96-2.64-2.07ZM69.34,17.65v.39l.2-.2-.2-.2ZM81.9,18.04v.39l.2-.2-.2-.2ZM79.35,19.61c.46.17,1.56-.17,1.56-.58,0-1.12-1.33-.04-1.56.58ZM95.64,18.44v.39l.2-.2-.2-.2ZM96.42,18.83v.39l.2-.2-.2-.2ZM26.36,21.97c.11-.14.69-2.3-.38-2.36-.04.07-.68,3.66.38,2.36ZM96.62,19.62c-1.18-.19-.63.28-.79.95-.36,1.46-.2,2.71-.38,4.15,1.37-1.07,1-3.55,1.17-5.1ZM94.85,22.76v.39l.2-.2-.2-.2ZM26.56,24.33v.39l.2-.2-.2-.2ZM26.56,25.11v.39l.2-.2-.2-.2ZM27.15,32.17c-.48-.97.06-1.87-.03-2.88-.04-.42-.21-2.17-.75-2.22-.26,1.52.1,2.6.06,4.16-.02.8-.38,1.09.72.94ZM26.37,32.57c-.07.08.2,1.2.19,1.56,1.24-.59,0-1.8-.19-1.56ZM78.37,38.46v.39l.2-.2-.2-.2ZM83.97,39.96c.21-.33.05-.75.08-1.11-.68,1.28-1.39.84-1.47.91-.34.31-1.61,1.82-1.27,2.23.11.13,2.57-1.89,2.66-2.03ZM80.13,43.17c.28-.55-.25-1.05-.38-.78-.28.55.25,1.05.38.78ZM74.05,50.63v.39l.2-.2-.2-.2ZM72.67,56.52c.26-.58-.14-2.11-.38-1.57-.26.58.14,2.11.38,1.57ZM74.24,57.31s-.83-.15-.77.19c1.6,6.26,6.36,10.62,8.76,16.49.15.36-.5.8.66.59-.7-4.99-4.26-8.93-6.73-13.09-.46-.77-1.74-4.03-1.91-4.18ZM21.46,58.87v.39l.2-.2-.2-.2ZM24.4,59.65c-.08-.74-1.47-1.01-1.96-.78s1.42.98,1.96.78ZM26.36,59.65c-.33-.86-.65-.93-1.18-.19l1.18.19ZM30.39,63.5c.19.11,1.07-.13,1.46-.11-.26-1.05-2.62-2.77-3.52-2.37-1.14.5.28.52.88,1.02.38.32,1.06,1.38,1.19,1.46ZM34.02,63.58v.39l.2-.2-.2-.2ZM34.99,65.94c.23-.45-.25-.9-.59-1.17-.16.39.4,1.54.59,1.17ZM35.78,66.34s-.83-.14-.78.19l1.17,1.38c.04-.29-.33-1.51-.4-1.57ZM38.14,70.65l-1.37-2.74c-1.09.29.54,2.57.67,2.66.27.19.59.03.69.08-.26.78.44,1,1.17.99-.48-1.33-.75-.77-1.17-.99ZM40.5,73.79c.72.85.79-2.12-.4-1.17-.05.04.36,1.13.4,1.17ZM83.66,76.93c.28-.55-.25-1.05-.38-.78-.28.55.25,1.05.38.78ZM46.77,78.9c-1.55-.23-2.31-2.11-3.91-1.78,1.11.39,1.87,1.28,2.92,1.79.32.16.97.87,1-.01ZM47.17,79.68l2.74.99c-.37-.33-2.38-1.95-2.74-.99ZM55.21,80.07v.39l.2-.2-.2-.2ZM57.57,81.25v.39l.2-.2-.2-.2ZM63.45,85.18v.39l.2-.2-.2-.2ZM70.32,89.89c-.65-2.98-4-3.36-6.27-4.52l6.27,4.52ZM73.46,93.42c.1-.86-.29-2.38-1.17-2.74l1.17,2.74ZM72.33,96.11c-.19-.17.23-.89-.43-.72-.6.82-.34,3.38-.43,3.75-.03.14-.81-.13-.97.16-.23.4.31.83.15,1.1-.09.15-1.64.78-1.32,1.65.9-1.08,2.9-1.89,3.44-3.23.24-.6.53-2.72.29-3.04-.02-.03-.64.42-.74.33ZM68.56,102.06v.39l.2-.2-.2-.2Z"/>
      <path class="cls-1" d="M26.75,62.01s.38-.03.39,0c.23.89-.35.01-.39,0Z"/>
      <path class="cls-1" d="M12.23,37.67l.39-.39-.39.39Z"/>
      <path class="cls-1" d="M97.41,26.68c.04.29.05.43.39.39-.91,1.5-2.09,2.76-3.16,4.12-.27.35-.04,1.03-.36,1.2-.48.25-1.13-.27-1.18-.21-.3.33-.32,2.68-2.37,1.95,1.8-1.81,3.95-3.91,5.35-6.03.69-1.05.05-2.33,1.32-1.43Z"/>
      <path class="cls-1" d="M64.04,11.76c.27.39.57.52.39,1.18-.35-.02-.74-.47-.78-.79.18-.1.46-.06.39-.39Z"/>
      <polygon class="cls-1" points="45.79 81.25 45.99 81.45 45.79 81.64 45.79 81.25"/>
      <path class="cls-1" d="M45.9,25.41c-.05.09-.62.06-.69.36-.43,1.8.05,4.46-2.75,5.05-6.24,1.32-8.73-13.82-4.48-16.66,2.82-1.88,6.92,4.3,7.45,6.6.12.55.58,4.44.47,4.65ZM41.15,16.99c-2.15-2.32-3.37.7-3.33,2.71.05,2.12,1.87,6,3.53,7.28.09.07.43-.26.61-.18.11.05.07,1.06,1.07.65.55-.22.99-4.18.91-4.82-.08-.58-2.34-5.16-2.8-5.65ZM39.71,27.47c-.55-.28-1.05.25-.78.38.55.28,1.05-.25.78-.38ZM40.88,29.03c.28-.55-.25-1.05-.38-.78-.28.55.25,1.05.38.78ZM41.87,28.64v.39l.2-.2-.2-.2Z"/>
      <path class="cls-1" d="M52.5,24.09c-1.81-3.09-2.96-9.22-1.18-12.69,1.29-2.51,2.47-1.56,3.9-.03,2.56,2.73,4.14,6.67,4.12,10.43-.01,4.81-3.91,7.29-6.84,2.29ZM55.07,23.87c1.6.92,2.28-2.77,2.22-3.94-.07-1.32-1.16-4.91-2.08-5.83-.47-.47-1.85.09-2.35-1.15-.52,2.58-.46,6.74.87,9.02.14.24,1.25,1.85,1.35,1.9Z"/>
      <path class="cls-1" d="M55.65,37.15c-1.97,3.29-5.69,2.32-6.07-1.99-.33-3.73,4.37-5.95,6.25-2.81.52.86.33,3.94-.19,4.8ZM53.35,34.25c-2.05-1.99-2.66,3.14-.88,2.94.76-.08,1.62-2.22.88-2.94Z"/>
      <polygon class="cls-1" points="70.52 20.01 70.72 20.2 70.52 20.4 70.52 20.01"/>
    </g>
  </g>
</svg>