<?xml version="1.0" encoding="UTF-8"?>
<svg id="Layer_3" data-name="Layer 3" xmlns="http://www.w3.org/2000/svg" viewBox="0 0 100 159.42">
  <defs>
    <style>
      .cls-1 {
        fill: #fff;
      }
    </style>
  </defs>
  <g id="Sketchy_Icons" data-name="Sketchy Icons">
    <g>
      <path class="cls-1" d="M90.83,157.67c-2.81,1.8-6.1.65-8.9,1.74-.38.15-.08-.97-.42-.87-.3.09-.67.68-1.29.68-6.35.08-11.63-3.14-14.5-8.79-4.24-8.33-6.9-18.38-6.58-27.75.31-9.33,6.96-29.78-2.35-35.91-1.12-.74-3.29-1.11-4.65-1.77-.32-.16-1.76-2.05-2.53-1.26-.44.45.9,11.03.34,12.7-.56.96-1.18,1.9-1.84,2.78-1.06,1.41-4.46,4.02-6,4.96-.49.3-1.47,1.05-1.94,1.3-1.21.66-1.23-.33-1.65-.42-.31-.07.27,1.15-.42,1.24-.15.02-2.79.04-2.98.02-7.68-.77-9.82-10.52-8.35-16.96.8-3.51,3.68-6.53,3.09-10.4-1.38-9.09-9.03-16.93-13.81-24.02C8.33,43.54-2.62,29.05.57,14.45,4.44-3.32,21.64-3.48,33.36,7.34c2.53,2.34,5.34,5.02,7.91,7.52,2.38,2.31,8.33,9.8,10.67,10.62,1.16.41,9.8,2.49,10.88,2.58,5.93.51,16.96-3,22.43-1.15.69.23,2.12.82,2.45,1.46.11.21.88,4.29.89,4.67.16,3.77-1.47,9.34-3.64,12.41-.45.63-2.5,1.78-2.36,2.41.06.28,3.84,2.65,4.61,3.4,7.68,7.49,9.76,15.23,9.92,25.75.09,5.72-.55,11.37-1.86,17.06-3.84,16.64-15.34,27.21-12.07,46.78,1.24,7.43,5.55,10.94,13.13,7.32.6-.28,3.19-2.89,3.57-1.11.03.14.16,2.69.05,2.78-.15.12-.95-.07-1.31,0,.18.85,1.17,0,.87,1.5-.58,2.88-5.61,5.4-8.26,6.33.18-.99-.39-.03-.43,0ZM17.88,1.98c-1.6.46-5.28.27-6.59.88-.73.34-6.01,4.79-6.42,5.55-.3.55-2.62,6.06-2.59,6.41.01.15.7.77.83.64.11-.11.52-2.03,1.13-3,2.19-3.51,5.66-5.68,8.78-8.16l4.86-2.32ZM21.14,2.41v.43l.22-.22-.22-.22ZM21.79,5.02c-1.12-.37-3.2-.93-3.9.42l3.9-.42ZM17.45,5.02c-1.14-.15-2.17.17-2.61,1.3.96.06,2.23-.32,2.61-1.3ZM14.41,6.32c-2.6.52-4.07,2.97-5.77,4.65-.49.48-1.54.63-2.29,1.61-1.68,2.2-2.74,5.73-2.79,8.52l3.48-6.73,7.37-8.05ZM76.5,52.42c-1.99-.73-1.57-2-2.14-2.42-.28-.2-.88.31-1.2.13-.38-.21-2-1.63-2.09-2.02-.06-.24.18-1.31.24-1.35,1.01-.67,1.4.83,1.48.82,1.36-.05,7.79-1.16,8.06-2.79.29-1.75-1.75-.31-2.39-.28-.34.02-2.25-.25-2.33-.41-.13-.24-.11-1.58-.03-1.67.29-.32,6.14-.42,7.75-3.36.2-.36.55-5.95.47-6.41-.42-2.3-5.88-3.11-7.6-2.77-.25.05-3.33,1.99-3.54,2.05-5.99,1.74-20.63-2.22-25.54-6.07-2.09-1.63-3.64-4.22-5.79-6.05s-4.6-3.08-6.81-4.81c-3.64-2.86-4.91-5.49-10.18-7.14-.8-.25-1.52.26-1.92.17-.32-.07-.28-.72-.5-.76-1.72-.37-5.19.49-6.79,1.37-2.13,1.19-6.9,6.07-7.93,8.15-.5,1.01-.57,2.82-1.1,3.64-.45.68-.02-.88-.65,1.11-1.4,4.44-1.84,5.31.07,9.89.96,2.3,3.44,7.27,4.72,9.63,5.09,9.34,15.83,16.7,20.03,26.46.22.52.85.46.97.86,1.28,4.14.38,7.75.43,11.65.03,2.36.64,5.04.49,7.4-.32,4.82-4.3,13.04,4.24,12.09,3.25-.36,5.7-5.1,6.88-7.89.83-1.96,2.65-9.27,3.91-10,4.52-2.64,13.14.44,15.78,4.9,5.41,9.13,2.78,20.65,3.03,30.45.23,8.95,2.48,23.32,7.82,30.44,1.84,2.45,6.35,7.39,9.3,7.85.21.03,2.13-.04,1.97-.66-10.64-5.76-9.53-24.14-7.7-34.47,3.01-16.93,15.48-26.84,14.94-45.84-.17-6.11-4.73-15.19-10.05-18.44-.82-.5-5.5-1.75-5.78-2.23-.11-.18.45-.55-.08-1.24-.26-.33-.58-.81-.43,0ZM3.77,21.54v.43l.22-.22-.22-.22ZM86.49,31.11l-1.52-2.6c-.87.86-.76.32-.15.93.56.55,1.06,1.29,1.67,1.67ZM75.85,49.81v.43l.22-.22-.22-.22ZM82.8,52.86v.43l.22-.22-.22-.22ZM84.75,53.73c-.92-.94-2.47.03-.21.86.38.06.25-.83.21-.86ZM89.53,58.51c.41-1.25-4.14-4.6-4.34-4.35-.88,1.14,2.24,2.08,2.9,2.74s.1,1.92,1.43,1.61ZM89.75,58.95v.43l.22-.22-.22-.22ZM22.01,59.82v.43l.22-.22-.22-.22ZM25.26,62.87c-.06-.07-1.43-.69-1.72-.66.17.91,2.39,1.34,1.72.66ZM25.69,65.03c.3-.67-.21-1.77-.42-1.3-.3.67.21,1.77.42,1.3ZM29.6,70.69c-1.18-5.09-6.09-9.15-1.08-.86.33.54-.09,1.1,1.08.86ZM29.18,71.13c-.26.5.27,1,.65,1.29.18-.44-.44-1.71-.65-1.29ZM51.54,83.3v.43l.22-.22-.22-.22ZM53.71,83.3v.43l.22-.22-.22-.22ZM55.44,83.31c-.65,0-.65,1.29,0,1.29s.65-1.29,0-1.29ZM57.11,84.43l-.38.2,3.27,3.02c-.08-1.99-1.55-2.37-2.89-3.22ZM47.84,88.08c.3-.67-.21-1.77-.42-1.3-.3.67.21,1.77.42,1.3ZM44.67,97.95c.68-1.03,2.76-6.54,2.91-7.78.09-.72.44-1.1-.39-1.65-1.03,1.96-1.4,4.35-2.38,6.32-.31.63-1.89,3.39-2.23,3.85-.77,1.06-3.07,1.18-2.34,2.44.44-1.08,2.05-.88,2.4-1.13.12-.08,1.95-1.93,2.03-2.05ZM29.17,90.26c.49-.5-.19-1.4-.86-.21-.05.38.83.24.86.21ZM29.6,98.52c-.69-2.59-.48-5.17-.65-7.83-1.28,2.02-1.16,6.23.65,7.83ZM92.13,92.43c.07-.12.24-1.37.23-1.73-1.15.53-.52,2.28-.23,1.73ZM91.7,95.04c.06-.05.3-1.46.29-1.54-.31-2.67-1.96,3.17-.29,1.54ZM64.78,96.78l-1.3-3.47c.68.84-.28,3.77,1.3,3.47ZM91.27,95.92c-2.05-.49-1.23,1.23-1.79,2.25-5.38,9.87-9.19,16.75-10.36,28.41-.22,2.22-.23,4.52,0,6.73l2.46-11.23c3.05-8.8,6.24-17.52,9.69-26.17ZM36.12,104.17c.62-.59-.48-.94-.86-1.12-1.35-.66-3.1-.96-4.32-2.16-.72-.7-.57-1.73-1.33-1.93-.44.64,1.64,4.11,1.83,4.25s4.5,1.13,4.67.97ZM37.85,103.31c-.67-.3-1.77.21-1.3.43.67.3,1.77-.21,1.3-.43ZM63.91,104.17c.31-.61-.27-1.16-.42-.87-.31.61.27,1.16.42.87ZM62.61,132.01c-1.17-8.95,3.16-17.86,1.3-26.96l-.9,5.38c-1.29,5.58-2.36,14.21-1.49,19.98.11.76-.1,1.9,1.1,1.6ZM65.65,122.45c-.7-.59-1.2.54-.86,1.3.21.48.93-1.24.86-1.3ZM65.65,124.18c-1.27-.21-.73.29-.9,1.08-1.19,5.71-.49,16.75,2.87,21.52,2.55,3.63,7.98,7.79,12.36,8.71-.52-.88-1.81-1.16-2.62-1.94-.95-.92-3.06-3.31-3.88-4.37-5.44-7-7.11-16.31-7.83-24.99ZM62.61,132.45c-.61-.31-1.16.27-.86.43.61.31,1.16-.27.86-.43ZM62.6,134.18c.31-.61-.27-1.16-.42-.87-.31.61.27,1.16.42.87ZM79.54,135.49c-1.64-.9-.26,2.78,0,2.17.04-.1.1-2.12,0-2.17ZM79.33,138.1v.43l.22-.22-.22-.22ZM85.44,150.46l-4.15-3.45c1.36,3.51,4.5,5.7,8.24,6.31l-4.09-2.86ZM69.82,152.2c-2.21-1.58-.74.56.51,1.55,1.03.81,2.66,1.82,3.99,1.96-.77-.24-1.53-1.63-1.82-1.82-.7-.47-1.55-.88-2.69-1.69ZM96.04,151.59l-1.73.65c.66,1.07,1.22.3,1.73-.65ZM86.27,155.06v.43l.22-.22-.22-.22ZM87.58,155.06v.43l.22-.22-.22-.22Z"/>
      <path class="cls-1" d="M90.83,157.67s.43.03.43,0c-.05.02-.61,1-.43,0Z"/>
      <path class="cls-1" d="M76.5,52.42s.43-.03.43,0c.18,1-.39.02-.43,0Z"/>
      <path class="cls-1" d="M21.21,25.6c3.08,3.77,6.04,9.97,6.01,14.89-.05,6.12-6.38,2.22-8.69-.23-3.28-3.49-6.13-10.6-5.8-15.4.54-7.72,5.74-2.62,8.48.74ZM20.24,28.32c-1.09-1.41-2.42-4.04-4.3-4.18-2.26-.17-.42,2.23-1.1,3.93,3.32-.95,1.71-.3,2.02,1.67.25,1.6,1.29,3.3.6,4.65,1.32-.36,1.79,2.33,2.59,3.35,3.56,4.51,5.91,3.51,4.43-2.14-.71-2.7-2.58-5.14-4.24-7.28Z"/>
      <path class="cls-1" d="M31.1,16.12c1.14.94,3.32,2.8,4.15,3.9,1.88,2.5,4.75,12.03.55,13.2-1.87.52-4.6-2.08-5.52-3.44-1.75-2.6-4.18-9.05-4.83-12.12-1.48-7.03,2.55-4.09,5.65-1.53ZM30.24,18.73c-.59-.53-.98-1.35-1.93-1.54.51.71.02,2.12.08,2.4.03.14.66,1.91.87,2.51.43,1.26,3.54,6.72,4.57,7.25,3.17,1.65,1.76-2.55.94-4.5-.9-2.13-2.84-4.59-4.53-6.12Z"/>
      <path class="cls-1" d="M36.89,47.49c-.15.12-.75-.26-.98.12-.43.72-.32,2-.73,2.83-.33.68-.85.28-1.05.48-.05.06.28.61.25.63-.1.08-2.33-.3-2.5-.52-1.33-1.69-.17-7.17,1.66-8.36,1.32-.86,5.02-.88,6.01.45,2.67,3.56-.61,2.66-1.84,3.3-.52.27-.58.88-.83,1.08ZM34.17,45.03v.43l.22-.22-.22-.22Z"/>
    </g>
  </g>
</svg>