<?xml version="1.0" encoding="UTF-8"?>
<svg id="Layer_3" data-name="Layer 3" xmlns="http://www.w3.org/2000/svg" viewBox="0 0 100 143.19">
  <defs>
    <style>
      .cls-1 {
        fill: #fff;
      }
    </style>
  </defs>
  <g id="Sketchy_Icons" data-name="Sketchy Icons">
    <g>
      <path class="cls-1" d="M58.57,1.97c9.6,5.01,12.82,19.71,12.65,29.79-.08,4.75-2.82,11.21,3.65,13.61,7.41,2.75,16.96.3,22.55,7.62,1.5,1.96,2.73,4.41,2.56,6.94-.4,5.73-4.27,5.1-8.33,6.58-.96.35-4.67,2.5-5.41,2.68-.49.12-4.84.57-5.1.49-.4-.13-.03-1.01-.45-.85-.8.29-.89,1.93-1.41,0-.83.9-2.99.89-4.18.77-1.82-.19-5.46-1.61-7.21-1.56-.25,0-3.79.47-3.95.58-.14.09-2.17,2.27-2.24,2.42-.83,1.61-1.06,12.19-.46,13.98s3.66,4.01,4.81,5.57c7.62,10.34,9.51,21.17,6.77,33.59-.95,4.3-4.94,10.16-8.5,12.96-.21.17-.96-.19-1.43.12-2.55,1.71-5.96,4.19-8.89,5.42-1.12.47-5.85.59-7.26.47-4.14-.36-4.48-1.14-7.42-3.34-2.05-1.54-2.6-2.7-4.59-4.76-.3-.31-.24-1.18-.6-1.44-.11-.08-2.48-.28-1.3-1.5.19-.19,1.94.2,2.36,0,.09-.04-.57-1.79.26-1.9,1.4-.19,1.58,2.24,4.1,1.82,1.1-.18,10.34-4.12,11.06-4.78,2.09-1.93,3.29-10.25,1.49-12.52-.06-.07-.64.22-.86.07-4.5-3.17-6.47-1.99-10.98-3-.65-.15-6.79-5.16-7.44-6-2.44-3.14-3.55-7.73-3.77-11.68-.33-5.76,1.81-16.18.16-20.92-.37-1.05-1.58-1.12-2.03-1.36-.35-.19-.4-.98-.53-1.04-.17-.09-1,.41-1.58.4-.62-.02-1.28-.41-1.83-.33-1.25.18-1.97,1.93-2.31,2.11-.54.28-1.44-.06-1.71.19-.21.2.21,1.11-.35,1.36-.5.22-1.62.05-2.36.38-.58.26-.65.77-.91.86-1.37.49-7.26,1.47-8.46,1.36-2.14-.21-5.24-3.61-6.08-5.5-4.9-10.92,8.62-15.19,14.58-20.24,3-2.55,12.04-14.08,12.43-17.77.17-1.57-.36-3.04-.24-4.12C29.28,16.09,34.78-1.06,51.1.05c2.27.15,5.47.88,7.47,1.92ZM58.29,6.03c.77-.71-.67-1.02-.94-1.19-3.62-2.37-7.15-2.26-11.32-1.63.75,1.37,3.09.73,4.45.98,1.25.23,7.51,2.11,7.81,1.84ZM45.08,4.61c.34-.66-.3-1.26-.46-.94-.34.66.3,1.26.46.94ZM59,5.56v.47l.24-.24-.24-.24ZM60.43,10.5c-1.53-.99-1.99-1.78-4.01-2.36-2.02-.58-8.39-1.05-10.66-1.12-.21,0-.14.84-.51.91-3.17.61-2,.63-4.4,1.61-.46.19-1.3-.34-1.41-.2s.17,1-.09,1.3c-.32.37-1.58.16-2.17.7-.14.13-1.87,2.74-2.2,3.24-.29.44-.22,1.31-.28,1.37-.03.04-.9-.52-.93-.48-.13.18-.44,3.37-.59,4.02-.06.25-.66.15-.72.46-.15.81-.79,7.02-.58,7.32.03.04.61-.5.93-.25-.91,1.42-.27,3.2-.46,4.73-.36,2.84-1.67,5.36-2.28,8.07-.23,1.04-.04,3.08-.09,3.27-.03.13-2.4.26-2.1-.71-3.08,3.82-5.3,7.88-8.73,11.57-1.47,1.58-.85,1.33-1.01,1.56-1.49,2.11-8.83,3.82-11.65,8.88-1.15,2.07-.98,7.91,1.19,8.64,1.08.37,6.1-.56,7.38-1.01,4.71-1.65,9.91-7.89,14.97-6.3,3.69,1.16,5.23,7.41,5.13,10.87-.23,8-5.58,15.68-1.75,23.98s11.82,6.67,18.9,7.91c.37.06.28.87.53.87.37,0,.9-.54,1.79-.33.57.13,2.04,1.31,2.46,1.83,2.82,3.43,1.64,10-.29,13.56-.06.11-.72-.21-.77-.13-.07.11.15,1.64-.7,2.48-.57.56-2.12.7-2.73,1.75-.56.95-.24,1.78-.58,2.49-.1.22-3.32,2.87-3.52,3-2.27,1.49-5.53,1.52-7.83,1.37-.28-.02-.42-1.52-1.7-.92,6.67,7.72,20.21,1.45,25.68-4.74.51-.58,4.18-5.42,4.48-6.01,1.68-3.34,1.4-5.57.85-9.22-2.02-13.34-11.56-19.95-13.04-32.64,1.58-5.72-1.82-12.18,3.29-16.54,4.29-3.65,14.03-1.83,19.5-1.18.95.11,1.69.8,2.85.92,1.08.11,5.27.18,6.08-.08,1.9-.62.64-6.74-1.1-8.26-.65-.58-1.31-.2-1.35-.26-.23-.32-.04-1.17-.51-1.58-.57-.51-9.75-1.68-11.8-2.39-.29-.1-2.8-1.07-2.94-1.15-.98-.54-4.16-3.63-4.58-4.61-2.06-4.84.86-12.61,1.3-17.87.71-8.35-.02-13.69-7.22-18.37ZM70.08,46.65c-.07-.06-.99-.18-.94.22.46.08,2.38,2.69,2.82,2.12.27-.34.01-1.6-.77-1.78-.28-.07-.86.39-1.05.25-.17-.13,0-.75-.07-.81ZM76.68,49.95c-.16-.16-4.08-1.58-4.24-1.42-1.36,1.31,6.01,3.22,4.24,1.42ZM86.01,50.58c-1-.18-6.12-.29-7.55-.34-.65-.02-1.05-.36-1.3.64,7.24.43,16.11,3.55,14.38,12.27,2.21-.76,2-3.71,1.44-5.68-.08-.29-3.01-4.82-3.21-5.04-.46-.5-2.61-.97-3.4-1.22-.27-.08-.28-.62-.35-.63ZM92.48,51.83v.47l.24-.24-.24-.24ZM94.12,52.31c-.09-.08-.95-.17-.94.24.04,2.31,3,4.25,2.27,8.87-.1.61-1.77,2.52-.13,2.23,2.24-.4,3.25-5.27,2.34-6.63-.36-.54-1.88-.2-.71-1.66-1.65.5-.63-.68-.93-1.17-.03-.04-.71.47-.85.39-.35-.22-.91-2.16-1.04-2.26ZM7.11,59.12c-.08.13-1.06,1.43-.21.98l1.41-2.13c-.37,0-1.01.87-1.19,1.15ZM5.01,62.22c.25-.5,1.2-.93.94-1.89-.52.19-.94.92-1.41,1.41-1.63,1.71-2.35,3.06-2.35,5.66,1.21.22.85-.2,1.15-.95.6-1.46.92-2.71,1.68-4.25ZM67.72,65.06c-.59-.28-2.72-.05-2.83.93.6-.03,3.51-.61,2.83-.93ZM69.37,65.05v.47l.24-.24-.24-.24ZM71.73,65.05v.47l.24-.24-.24-.24ZM2.65,68.83c.34-.66-.3-1.26-.46-.94-.34.66.3,1.26.46.94ZM27.41,68.83v.47l.24-.24-.24-.24ZM29.52,68.84c-2.27-1.35.68,3.7,1.42,2.82.27-.32-1.28-2.74-1.42-2.82ZM31.41,73.08c.34-.66-.3-1.26-.46-.94-.34.66.3,1.26.46.94ZM60.89,87.72v.47l.24-.24-.24-.24ZM64.42,93.38c-.46-1.06-.43-2.06-1.78-3.65-3.13-3.68.01,2.94.95,3.55.33.22.64.04.83.1,1.57,3.62,3.62,5.9,5.43,9.43-.16-3.78-2.69-6.11-4.11-9.35-.38-.28-1.01.02-1.32-.08ZM47.68,109.91v.47l.24-.24-.24-.24ZM48.62,109.92c-.46.33.25.65.48.92.47-.31-.22-.63-.48-.92ZM52.4,110.38v.47l.24-.24-.24-.24ZM54.28,110.86v.47l.24-.24-.24-.24ZM54.04,113.22c-.06-.05-.99-.17-.93.23l1.88,4.02c.28-.89-.37-3.77-.95-4.24ZM54.76,117.94v.47l.24-.24-.24-.24ZM56.87,120.3c.32-.7-.16-2.54-.46-1.88-.32.7.16,2.54.46,1.88ZM56.17,120.77v.47l.24-.24-.24-.24ZM67.02,130.7c-1.06.72-.58,1.36,0,.46.16-.24.38-.25,0-.46ZM65.61,132.11c-1.06.72-.58,1.36,0,.46.16-.24.38-.25,0-.46ZM63.71,133.99v.47l.24-.24-.24-.24ZM62.77,134.46v.47l.24-.24-.24-.24Z"/>
      <path class="cls-1" d="M5.01,62.22l-.47-.47.47.47Z"/>
      <path class="cls-1" d="M46.87,30.98c-.28.26-.98.26-1.44.55-.31.19-.29.88-.66.96-5.24,1.02-6.65-7.26-6.23-11.07.16-1.45,1.43-6.69,2.3-7.61.63-.67,1.98-1.21,2.87-.97s3.92,5.6,4.12,6.76c.11.63.39,5.92.35,6.52-.02.29-1.11,4.69-1.3,4.86ZM41.79,16.42c-1.44,1.25-.11,13.21,2.58,12.75.8-.14.24-4.55.73-5.42.37-1.36-1.41-8.98-3.31-7.33Z"/>
      <path class="cls-1" d="M59.09,13.74c1.35,1.43,2.86,7.9,2.8,9.93-.02.65-.75,5.45-.9,5.86-.06.17-2.33,1.84-2.31,2.83-1.68.26-3.2-1.17-3.94-2.71-.34-.71-2.18-8.27-2.15-8.71.02-.27,1-.2,1-.5-.01-.66-.75-1.02-.79-1.41-.02-.22,1.1-4.07,1.21-4.26,1.09-1.89,3.4-2.77,5.07-1.02ZM57.34,15.48c-1.74,1.34-1.65,5.24-1.61,7.32.15,8.3,3.76,8.65,3.53.46-.08-2.78-1.23-5.16-1.92-7.78Z"/>
      <path class="cls-1" d="M53.33,36.03c1,1.35,1.01,3.09.26,4.71-.58,1.25-2.61,2.49-3.79,1.88-4.13-2.13-.55-12.07,3.53-6.59ZM50.75,40.03c1.18-.4,1.8-1.95.69-2.83l-.69,2.83Z"/>
    </g>
  </g>
</svg>