<?xml version="1.0" encoding="UTF-8"?>
<svg id="Layer_2" data-name="Layer 2" xmlns="http://www.w3.org/2000/svg" viewBox="0 0 100 88.68">
  <defs>
    <style>
      .cls-1 {
        fill: #fff;
      }
    </style>
  </defs>
  <g id="Sketchy_Icons" data-name="Sketchy Icons">
    <g>
      <path class="cls-1" d="M1.24,81.47c-1.18-3.35-1.46-5.89-1.07-9.34.09-.82-.62-1.43.46-1.09-.38-1.3.24-1.42.71-.15.52,1.4,1.03,3.18,2.17,4.55,1.85,2.24,6.08,2.92,8.44,1.15,1.27-.96,4.47-4.14,5.07-5.53,1.84-4.3-1.85-11.36-2.57-15.88-1.34-8.42,3.59-14.27,11.59-16.2,8.68-2.09,14.22,2.99,19.61-7.14,3.55-6.66,2.5-15.97,5.41-22.71,1.36-3.16,4.22-8.35,7.99-8.92.73-.11,4.11-.26,4.76-.17,1.83.25,2.87,2.08,2.86,3.8,0,.97-.62,1.96-.62,3.03,0,4.47.6,6.74-.8,11.57-.37,1.3-1.05,2.44-1.46,3.71,6.91-5.77,17.22-8.43,25.61-4.4,2.47,1.19,3.73,2.43,5.49,4.21,1.71,1.73,4.61,4.42,5.02,6.77.08.48.13.98.11,1.47-.02.4-1.77,4.26-2.1,4.86-1.77,3.26-9.87,9.74-13.16,11.66-1.04.61-5.39,2.16-5.54,3.11-.66,4.4,8.71,5.63,11.45,6.91,1.56.72,3.57,2.84,3.96,4.51.66,2.8-2.01,5.63-4.78,6.01-3.11.42-9.66-.85-12.58-2.03-10.22-4.14-19.55-5.8-27.87,2.7-6.44,6.57-12.07,15.15-21.19,18.81-3.33,1.34-10.48,2.49-14.65,1.69-.22-.04-.16-.52-.39-.56-4.47-.92-6.22-1.12-9.86-4.19-.08-.07-.47.24-.51.2-.1-.09-1.23-1.69-1.54-2.1.69.12.01-.27,0-.3ZM64.76,1.93c-.36-.42-1.76-.62-2.35-.68.98.95,1.92,1.8,2.58,3.02.81.18-.15-2.25-.23-2.34ZM57.87,3.97l4.53-.76c-.79-2.61-5.39-.06-4.53.76ZM57.41,3.67v.3l.15-.15-.15-.15ZM77.25,49.38c.73-2.26,2.74-2,4.6-3.05,4.47-2.54,8.84-6.88,11.89-10.89.27-.36.92-.49,1.03-.65.09-.14.19-2.95.17-3.31-.12-1.77-2.74-6.52-3.75-7.91-.35-.48-1.86-2.32-2.23-2.53-.57-.31-6-2.07-6.73-2.2-1.89-.34-7.39.35-9.28.96-.66.21-7.63,3.65-7.95,3.96-.11.11.17.49.15.5-.63.5-.79-.9-1.06-.9-.19,0-2.27,3.2-2.59.46-.23-2-.45-6.02-.28-7.89.24-2.64,2.31-5.9,2.34-7.65.01-.64-.68-3.46-1.19-3.6s-3.45.26-4.12.43c-1.85.47-3.43,1.81-4.42,3.45-2.43,4-3.5,15.39-4.25,20.5-.17,1.18.07,2.75-.25,4.06-.27,1.12-1.79,3.88-2.52,4.75-1.21,1.43-5.83,1.92-7.7,2.35-.74.17-3.34,1.26-4.26,1.16-.62-.07-1.35-.59-2.03-.68-5.13-.71-11.72-.05-14.36,5.16-2.05,4.05,1.17,9.07,2.1,13.16,1.23,5.43.71,13.21-3.74,16.99-.27.23-.96.29-1.01.36-.04.05.32.5.27.56-.12.15-3.03,1.82-3.35,1.96-.61.27-4.18,1.21-4.62,1.09-.2-.06-.2-.51-.25-.51-.78-.12-2.04.4-2.82-.69-.33.87,1.56,2.82,2.29,3.46,8.65,7.5,19.95,3.56,27.25-3.6,1.97-1.93,2.88-3.57,4.67-5.62,1-1.15,2.89-2.58,3.82-3.76.27-.35.24-1.01.3-1.07.02-.02.42.28.52.21.98-.72,2.29-2.87,3.55-3.84,5.85-4.53,16.89-4.88,23.83-3.25,5.21,1.22,9.65,4.16,15.21,3.83.47-.03,4.84-.9,5.04-1.06.49-.4.66-1.1.55-1.71-.04-.2-2.02-3.31-2.18-3.45-.25-.22-3.16-1.14-3.72-1.31-1.83-.55-4.37-.75-5.95-1.81-2.12-1.43-2.5-3.67-2.95-6.07.34.15.35-.46,0-.3ZM65.13,10.94c.22-.43-.19-.81-.3-.6-.22.43.19.81.3.6ZM65.13,12.45l-.15-.91c-.57.4-.51.65.15.91ZM65.13,12.75c-.21-.25-.93,1.16-.76,1.51.3-.22.97-1.25.76-1.51ZM62.87,15.48v.3l.15-.15-.15-.15ZM64.38,15.48v.3l.15-.15-.15-.15ZM64.08,16.08v.3l.15-.15-.15-.15ZM63.77,16.69v.3l.15-.15-.15-.15ZM80.88,16.99c-.1-.05-1.41-.05-1.51,0-.8.36,2.31.36,1.51,0ZM81.19,16.99c-.3.22.92.68,1.2.45-.18-.38-.93-.65-1.2-.45ZM64.23,17.3c-.49-.41-.84.38-.6.9.15.33.65-.86.6-.9ZM76.8,17.29v.3l.15-.15-.15-.15ZM83.76,17.29v.3l.15-.15-.15-.15ZM73.16,17.91c-.68.46-.38.87,0,.3.1-.15.24-.16,0-.3ZM71.65,18.5v.3l.15-.15-.15-.15ZM71.04,18.81v.3l.15-.15-.15-.15ZM89.82,19.41v.3l.15-.15-.15-.15ZM90.27,20.32c.06.05,1.24.45,1.51.46-.26-.68-1.99-.88-1.51-.46ZM94.09,23.47c-.26-.22-1.87-1.51-2-.73l.65.42,3.74,7.15c-.24-1.15.07-2.63-.16-3.72-.04-.19-1.87-2.8-2.23-3.12ZM64.98,23.05v.3l.15-.15-.15-.15ZM98.38,28.87l.07.68c.36-.26.34-.44.25-.84-.07-.32-.5-1.6-.85-1.73l.53,1.89ZM97.84,32.73l.15-2.41c-.52.43-1,2.11-.15,2.41ZM48.18,32.43l-5.15,5.75c3.07-.21,3.92-3.45,5.15-5.75ZM96.93,34.55c.22-.22.16-1.69.3-2.12-.73-.02-1.27,3.06-.3,2.12ZM17.44,53.02v.3l.15-.15-.15-.15ZM16.07,54.53c.21-.47-.15-1.23-.3-.91-.21.47.15,1.23.3.91ZM17.89,54.23c-.98-1.11-.29,2.13,0,1.51.05-.1.05-1.45,0-1.51ZM16.23,55.13v.3l.15-.15-.15-.15ZM16.68,55.74c-.89-.87-.52,1.85.31,1.21.05-.04-.26-1.16-.31-1.21ZM19.71,62.7c-.13-1.79-.38-4.08-1.1-5.71-.13-.3-.32-.98-.71-.95l1.81,6.66ZM17.28,58.77c.13-.29-.44-1.55-.6-1.21-.13.29.44,1.55.6,1.21ZM17.74,61.19v.3l.15-.15-.15-.15ZM18.04,62.4v.3l.15-.15-.15-.15ZM18.35,63.31v.3l.15-.15-.15-.15ZM19.56,63.31v.3l.15-.15-.15-.15ZM45,69.06v.3l.15-.15-.15-.15ZM44.69,70.88v.3l.15-.15-.15-.15ZM41.81,73.3c.06-.06.66-1.24.76-1.5-.8.24-1.3,2.01-.76,1.5ZM40.79,74.7c1.16-1.72-.26-.91-.99-.09-.64.73-2.15,2.6-2.75,3.44-.13.18-.77.49-.38,1,.26.33,3.77-3.83,4.12-4.35ZM15.32,74.81v.3l.15-.15-.15-.15ZM14.41,75.72v.3l.15-.15-.15-.15ZM35.58,80.09c1.54-1.56.52-1.09-.42.02.18,1.14.23.17.42-.02ZM2.44,79.96c.22-.43-.19-.81-.3-.6-.22.43.19.81.3.6ZM3.66,80.57c-1.97-.81.23,2.19,1.07,2.71.13-1.05-1.4-1.8-1.67-2.12-.32-.38.79-.15.6-.6ZM34.85,80.57c-.55-.1-1.01.33-.91.9l.91-.9ZM33.03,82.38c.22-.43-.19-.81-.3-.6-.22.43.19.81.3.6ZM5.63,83.59v.3l.15-.15-.15-.15Z"/>
      <path class="cls-1" d="M77.25,49.69s-.3.04-.3-.15.29-.14.3-.15c-.01,0-.01.3,0,.3Z"/>
      <path class="cls-1" d="M1.24,81.77s-.69-.43,0-.3c.02,0-.02.3,0,.3Z"/>
      <path class="cls-1" d="M83.78,40.47c-.7.87-2.28,2.35-3.5,2.12-.9-.17-.99-.79-1.28-1.01-.09-.07-.45.23-.5.19-1.45-1.19-.11-5.56.97-6.83.26-.31,2.55-1.97,2.92-2.08.33-.09,3.01-.42,3.17-.39.4.09.87,1.19.95,1.61.31,1.58-1.69,5.11-2.72,6.38ZM85.12,33.95c-.75-.79-3.87,2.88-4.13,3.84-.36,1.32.73,3.36-1.62,1.31.11,2.54,2.08,1.76,3.33.37.51-.57,2.96-4.95,2.42-5.52Z"/>
      <path class="cls-1" d="M82.63,29.03c-.04.08-1.2,1.24-1.28,1.29-2.85,1.93-9.65,1.82-11.04-2.01-1.68-4.64,6.15-4.53,8.96-3.51,1.42.52,4.28,2.43,3.35,4.23ZM80.79,27.38c-1.41-1.62-6.91-2.34-8.6-.92-1.86,1.55,3.16,3.56,4.63,3.52,1.24-.04,5.43-.93,3.98-2.59Z"/>
      <path class="cls-1" d="M69.25,39.78c-.23-.54-.86-1.63-1.07-2.12-.73-1.62-2.02-2.87.67-3.78,5.99-2.04,5.87,9.32,1.33,7.54-1.09-.43-.7-1.11-.93-1.64ZM71.49,40.3c.11-.1.5-2.71.42-3.04-.18-.77-1.5-2.57-2.55-2.29-1.69.45.15,1.82.73,2.93.15.29.63,3.08,1.39,2.39Z"/>
    </g>
  </g>
</svg>