<?xml version="1.0" encoding="UTF-8"?>
<svg id="Layer_3" data-name="Layer 3" xmlns="http://www.w3.org/2000/svg" viewBox="0 0 60.67 90.67">
  <g id="Ghosts">
    <g id="Layer_39_Image" data-name="Layer 39 Image">
      <g>
        <path d="M47.28,76.11c-.21,3.62-1.51,4.05-2.5,6.69-.1.28.17.61.1.73-.02.03-.41-.24-.6-.03-.27.31-.22.85-.44,1.14-.17.22-1.94,2.24-2.06,2.34-.3.25-1.55.74-1.64.89-.05.07.22.4.2.43-.12.11-2.56,1.32-2.82,1.43-6.27,2.64-17.07-.42-17.74-8-.14-1.63.04-2.94.72-4.42.8-.21.35.59.48.72.06.07.78-.71,1.19-.48l-.48.47c2.7-.66,1.48.7,1.47,1.78-.06,6.15,10.58,6.5,12.68,1.49.38-.9.32-4.3.17-5.29-.56-3.65-5.93-5.19-8.8-6.47-.19-.08-.49-.15-.93-.34-6.22-2.76-10.89-5.93-12.1-13.05-.44-2.59-.08-5.18.11-7.8-.44-.11-.09.51-.36.48s0-.57-.24-.48c-.21.08-.71.6-1.15.79s-.56.18-1.03.38c-.5.22-2.22.68-3.08.86-.78.17-.93-.29-1.2-.36-.2-.05.04.53-.46.49-.31-.02-.64-.33-.96-.37-1.85-.26-3.65-.53-4.87-2.19-1.47-2-1.04-4.26.07-6.32,2.76-5.11,8.53-6.79,11.68-11.54,2.44-3.67,1.68-4.67,2.08-8.67.83-8.22.81-13.16,7.9-18.42,9.38-6.96,16.67-.81,20.59,8.32,2.97,6.91,2.26,15.55,7.38,21.59,2.62,3.09,9.55,5.61,10.02,9.84.4,3.56-5.49,4.55-8.13,4.25-.8-.09-2.09-.68-2.88-.91-1.28-.39-2.94-1.15-4.5-1.42-.4-.07-3.49-.16-3.72-.09-.07.02-1.13.86-1.18.92-1.3,1.45-3.19,6.97-2.85,8.85.07.39,1.24,2.66,1.54,3.14,3.79,6.31,8.61,10.16,8.35,18.39,0,.15,0,.21,0,.24ZM34.37,2.38c.37-.34-.31-.51-.47-.61-1.74-1.02-3.54-.93-5.5-.58-.07.36.69.32.92.33.6.02,1.15-.16,1.8-.08s3.12,1.05,3.25.94ZM28.15,1.67s.09-.51-.12-.48c-.65.37-.16.75.12.48ZM27.43,1.43c-.34-.17-.64.15-.48.23.34.17.64-.15.48-.23ZM30.06,2.39c-.93.42-3.3.13-4.01.4-.28.11-.28.48-.35.51-.3.13-.64-.17-.91-.05-2.55,1.12-3.68,3.03-5.01,5.36.47.11.57-.24.81-.5,2.5-2.59,5.18-4.75,8.63-5.23.36-.05.74-.04.83-.49ZM30.9,2.39v.24l.12-.12-.12-.12ZM35.32,2.39c-.5-.07-.54-.02-.48.48l.48-.48ZM35.68,2.87c-.24.17.13.33.24.47.24-.16-.11-.32-.24-.47ZM36.42,5.83c-2.47-1.59-4.93-2.55-7.82-1.84s-6.48,3.48-8.05,5.4c-.23.29-2.25,3.21-2.32,3.4-.67,1.91-.29,5.27-.59,7.44-.44,3.18-3.14,12.06-5.05,14.52-2.21,2.85-5.72,3.67-8.17,5.87-.05.05-.33-.16-.37-.12-.88.91-1.47,2.17-1.49,3.43-.06,4.11,7.93,3.6,10.45,2.55.64-.26,3.06-2.19,3.66-1.72.05.04-.35.91-.47,1.08.16.22.56-.23.69-.11.62.53-.15.75-.2.89-.45,1.41-.12,1.91-.24,3.06-.43,4.13-1.42,5.69.84,9.43,2.74,4.54,6.32,6.62,10.81,8.84,3.99,1.98,11.72,4.75,11.52,10.19-.11,3.03-1.42,4.81-3.86,6.45-.95.64-3.48,1.87-4.64,1.93-3.35.19-6.61-.77-8.96-3.22.79,2.41,2.91,3.96,5.38,4.3,12.83,1.77,22.72-9.01,14.5-20.73-5.48-7.81-8.52-10.73-5.05-20.78.95-2.75,3.05-5.44,6.25-4.61,3.36.87,4.07,2.72,8.68,2.66,1.74-.02,3.5.12,2.76-2.13-.4-1.23-1.44-2.27-2.26-3.14-1.37-1.46-3.09-2.35-4.32-3.71-5.83-6.39-3.06-13.19-5.35-20.72-.07-.22-.74-.92-.83-1.11-1.56-3.34-2.19-5.35-5.53-7.5ZM36.88,3.58v.24l.12-.12-.12-.12ZM38.43,6.21c.17-.34-.15-.64-.23-.48-.17.34.15.64.23.48ZM19.43,9.33v.24l.12-.12-.12-.12ZM18.23,9.57c-.54.36-.3.69,0,.23.08-.12.19-.13,0-.23ZM17.51,11.24v.24l.12-.12-.12-.12ZM17.27,11.96v.24l.12-.12-.12-.12ZM16.67,18.9c.02-.41.35-1.49-.23-1.67l.23,1.67ZM16.68,20.1c-.34-.17-.64.15-.48.23.34.17.64-.15.48-.23ZM45.84,27.76c.14-.32-.05-.77-.36-.95-.09.27.22,1.25.36.95ZM46.56,29.43c.06-.05-.36-1.49-.71-1.43.01.23.14,1.88.71,1.43ZM46.32,29.68c-.14.28.15.55.36.71.1-.24-.24-.94-.36-.71ZM13.33,32.31c.17-.34-.15-.64-.23-.48-.17.34.15.64.23.48ZM47.4,31.83v.24l.12-.12-.12-.12ZM47.88,32.31v.24l.12-.12-.12-.12ZM12.13,33.98s.34-.97.36-1.19c-.14.19-.84.74-.83.83,0,.05.38.43.47.36ZM11.66,33.99c-.22-.19-.7.25-.81.5l-1.34,1.41c.56.23,2.33-1.75,2.15-1.91ZM53.02,36.86s-.75-.11-.95-.12c.42.9,1.13.27.95.12ZM53.68,37.4c-.17-.09-.61-.19-.66.05,1.07,1.72,2.72,2.57,3.08,4.82l.26,1.53c-.02-.63.75-.6.91-1.12.37-1.19-.44-1.88-1.07-2.78-.05-.07.14-.3.09-.36-.26-.33-2.25-1.94-2.62-2.14ZM55.65,45.47c2.61-.12,4.79-1.67,2.99-4.3l-.34,2.29-2.64,2.01ZM1.26,43.32v.24l.12-.12-.12-.12ZM1.14,43.8c-.47,1.26.13,3.2,1.31,3.82-.08-.76-.74-1.45-.97-2.14-.18-.56.1-1.46-.35-1.68ZM39.75,43.8v.24l.12-.12-.12-.12ZM39.15,44.99s.17-.59.12-.71c-.57.28-.32.95-.12.71ZM55.4,45.48c-.08-.04-1.59-.04-1.67,0-.66.3,2.33.3,1.67,0ZM10.46,48.59c-.53-.22-1.6-.09-1.91.47l1.91-.47ZM4.13,48.58v.24l.12-.12-.12-.12ZM5.32,48.82v.24l.12-.12-.12-.12ZM8.19,48.82v.24l.12-.12-.12-.12ZM6.28,49.06v.24l.12-.12-.12-.12ZM38.07,58.16v.24l.12-.12-.12-.12ZM37.24,75.16c.54,2.02.75,4.2.11,6.22,1.62-1.57,1.48-4.67-.11-6.22ZM22.89,79.22c.17-.34-.15-.64-.23-.48-.17.34.15.64.23.48ZM22.53,79.7v.24l.12-.12-.12-.12Z"/>
        <path d="M24.09,14.83s-.01-.23,0-.24c.22-.1.22.34,0,.24Z"/>
        <path d="M24.33,11.24c.32.32-1.01,1.08-.71,1.43.37.45.58-.59.86-.68,1.86-.59,2.11.6,2.75,1.93.09.18.42.18.46.36.21,1.07-.47,4.5-1,5.52-.02.04-.31-.14-.36-.07-.02.03.14.26-.34.65-.74.61-1.97,1.35-2.91,1.14-.33-.08-1.17-1.48-1.26-1.9-.39-1.75-.01-6.05,1.13-7.51.17-.21,1.19-1.08,1.4-.87ZM23.25,12.68c-.24.17.13.33.24.47.24-.16-.11-.32-.24-.47ZM24.09,14.59c-.07.26,0,.23,0,.24-.21.64-.9,2.19-.95,2.54-.13.83.04,2.53,1.22,2.38,1.08-.14,2.27-5.44.94-6.24-.74-.45-1.04.44-1.2,1.09ZM23.61,15.55c.17-.34-.15-.64-.23-.48-.17.34.15.64.23.48Z"/>
        <path d="M34.3,11.56c.4.3,1.44,2.02,1.62,2.56.52,1.54.45,5.99-1.67,6.14-.72.05-2.13-2.27-2.32-2.85-.54-1.71-.53-8,2.37-5.84ZM34.13,13.4s-.68-.02-.71,0c-.43.36.12,4.41,1.19,4.79,0-.7.28-1.3.25-2.02,0-.26-.62-2.67-.73-2.77Z"/>
        <path d="M32.66,21.33c.38.63-.18,3.3-.84,3.52-.12.04-1.85.24-1.95.22-.02,0-.05-.28-.24-.39-.88-.5-2.22-1.49-1.86-2.67.62-2.04,1.66,1.16,1.96,1.22,1.78.4,1.61-1.72,1.92-1.96.2-.15.9-.11,1.01.06Z"/>
      </g>
    </g>
  </g>
</svg>