<?xml version="1.0" encoding="UTF-8"?>
<svg id="Layer_2" data-name="Layer 2" xmlns="http://www.w3.org/2000/svg" viewBox="0 0 100 139.59">
  <defs>
    <style>
      .cls-1 {
        fill: #fff;
      }
    </style>
  </defs>
  <g id="Sketchy_Icons" data-name="Sketchy Icons">
    <g>
      <path class="cls-1" d="M32.81,3.84c.77-.84.93-2,2.16-2.35.53-.15,1.18.27,1.45.17.37-.14.3-.66.53-.73,3.19-.92,6.11-1.43,9.3-.25,2.15.79,10.11,4.68,11.15,6.32,3.8,5.96,3.83,11.77,6.55,17.97,2.62,5.97,5.08,9.68,10.27,13.59,3.95,2.97,10.06,6.78,14.84,9.46,1.85,1.04,4.74,1.81,6.59,2.96,3.69,2.29,5.99,8.59,2.93,12.2-1.44,1.7-5.41,1.72-7.64,1.73-6.64.02-12.82-2.6-18.1-6.29-1.95-1.36-3.18-2.5-2.89.73.58,6.58,5.41,13.7,6.47,20.78.68,4.53.27,9.35.17,13.83-.12,5.36.4,7.85-1.65,13.07-2.93,7.5-12.68,17.22-12.23,24.65.03.48.24,1.87.74,1.98.62.14,3.56.08,4.18-.1,1.38-.41,1.88-3.27,2.06-3.37,2.41-1.52,1.41,4.99-.01,6.72-3.16,3.83-13.51,3.08-17.23.77-4.74-2.94-5.77-12.25-4.86-17.25,1.15-6.35,8.16-15.67,6.81-22.07-.4-1.92-1.81-4.59-3.59-5.52-7.61-3.98-17.78-5.17-19.97-15.6-.29-1.38-.13-6.06-1.05-6.76-.67-.52-4.09-.36-4.77-.02-.54.28-.66,1.12-1.02,1.4-4.2,3.22-4.97,4.42-8.26,8.23-.77.89-2.3,1.77-2.89,2.53-.41.53-.35,1.49-.41,1.54-.17.17-1.2-.51-1.29-.44-.22.17-.04,1.6-.1,1.67-.15.16-3.65,1.91-3.92,1.97-1.06.24-1.38-.74-1.61-.58-.12.09.23,1.04-.64.83-2.17-.52-3.68-4.13-4.26-6.15-1.47-5.11-.25-10.93,3.3-14.95,6.66-7.55,12.46-7.51,13.72-20.34,1.25-12.77-.76-20.25,5.83-32.65.65-1.22,2.89-2.67,3.19-3.26.63-1.24,1.11-2.47,1.84-3.53.1-.15,2.02-2.15,2.14-2.24.43-.3.76.25.87.23-.12.32-.76,1.12-.22,1.31.38-.22.4-.89.65-1.31.54-.12.61-.58.87-.87ZM44.95,2.11c-.38-.42-1.17.7-1.51.7-.22,0-.59-.42-.96-.52-.46-.12-.75.24-.79.23-.52-.11.63-1.13,0-1.28-.59.84-1.07.69-1.96.43,1.15,1.53-1.14.35-2.67.91-.94.34-2.68,2.66-2.94,2.78-.68.31-1.6-1.17-1.33,1.09l-.86.42c3.03-1.78,6.47-1.17,9.54-1.94.73-.18,4.56-1.62,3.46-2.83ZM46.03,3.41v.43l.22-.22-.22-.22ZM49.62,5.28l-4.24-.13,5.43,2.16c2.13-.52-.99-1.33-1.19-2.03ZM53.89,10.52c-3.01-2.29-11.49-4.13-15.02-3-.92.29-5.25,3.23-6.03,3.95-1.66,1.52-6.6,7.61-7.45,9.47-4.96,10.93-3.23,24.22-6.67,35.43-.07.23-1.9,3.24-2.25,3.78-3.76,5.91-9.91,12.13-12.03,18.75-.07.22-.31,4.31-.27,4.53.08.44,1.08.59,1.47.58,5.64-.21,13.1-12.79,18.7-15.5,9.06-4.39,7.1,3.02,9.11,7.82.7,1.68,3.91,7.08,5.21,8.23,4.45,3.96,10.98,3.3,15.84,8.14,2.8,2.79,3.81,4.99,3.89,9,.2,9.66-4.74,11.97-6.6,20.21-.23,1.03-.86,6.28-.76,7.13.03.28.72.2.82.59.89,3.42.93,3.85,3.62,6.5l5.95.99c-3.76-10.22,3.92-17.39,7.88-25.75,6.25-13.18,6.01-22.42,3.29-36.44-.77-3.97-3.37-7.01-4.13-10.19-.41-1.72-.24-8.47-.54-8.79-.37-.4-2.36,1.34-1.66-.58,1.34-3.66,9.52-.13,11.96.89,3.89,1.63,7.67,3.75,12.25,4.29,2.11.25,5.44-1.07,5.25-3.51-.02-.2-2.17-3.04-2.33-3.14-2.02-1.24-3.87-2.67-6.07-4.05-10.09-6.33-18.56-9.35-24.68-20.95-2.71-5.14-3.08-10.7-6.24-15.45-.53-.79-1.79-2.36-2.51-2.91ZM52.54,6.88v.43l.22-.22-.22-.22ZM54.48,8.18c.31-.61-.27-1.16-.42-.86-.31.61.27,1.16.42.86ZM34.54,8.61s.17-.92-.21-.86c-1.18.68-.29,1.36.21.86ZM35.19,7.75v.43l.22-.22-.22-.22ZM53.4,7.75v.43l.22-.22-.22-.22ZM30.89,11.47c.32-1.02,3.15-2.17,2.35-3.29-.4-.55-6.36,4.83-5.63,6.51l3.28-3.22ZM55.14,8.18v.43l.22-.22-.22-.22ZM27.39,9.05v.43l.22-.22-.22-.22ZM55.79,9.05c-.61-.31-1.16.27-.86.42.61.31,1.16-.27.86-.42ZM26.73,16.43c.4-.44.49-1.69-.42-1.73-.11.51-.05,2.24.42,1.73ZM18.28,55.5v.43l.22-.22-.22-.22ZM87.66,61.58v.43l.22-.22-.22-.22ZM11.35,62.44v.43l.22-.22-.22-.22ZM11.13,63.32c-1.26-.14-2.22,1.02-3.11,1.76-3.22,2.67-7.45,8.22-6.42,12.56l2.34-5.47c2.82-2.71,4.98-5.75,7.19-8.85ZM1.81,78.51v.43l.22-.22-.22-.22ZM56.65,98.91c-1.38.46-.42,1.86-.53,2.79-.14,1.14-.25,2.68-.54,3.73-1.14,4.07-4.86,9.49-6.11,13.87l.03,3.92c1.08-.79.44-2.07.76-3.13,2.15-7.03,7.91-13.16,6.39-21.17ZM73.78,103.68v.43l.22-.22-.22-.22ZM49.07,124.52v.43l.22-.22-.22-.22ZM49.5,126.69v.43l.22-.22-.22-.22ZM49.5,127.99v.43l.22-.22-.22-.22ZM49.94,130.6v.43l.22-.22-.22-.22Z"/>
      <path class="cls-1" d="M31.51,4.71c.16-.42-.12-1.4.66-1.73.66-.28.92.48.64.86-.04.06-.19-.25-.87.87-.14.03-.29-.03-.43,0Z"/>
      <path class="cls-1" d="M55.21,38.9c-1.12,1.38-4.42.79-5.63-.32-.36-.33-.24-.94-.44-1.15-3.91-3.89-6.86-8.32-5.89-14.26.44-2.71,3.49-2.95,5.41-1.56.37.27,4.03,5.23,4.46,5.95.56.94,2.28,4.73,2.48,5.79s.14,4.9-.39,5.55ZM50.75,28.86c-.25-.51-.17-1.14-.4-1.54-1.09-1.85-2.63-3.51-4.31-4.81-.02,1.29-1.02.37-1.08.43-.13.15.18,3.54.28,3.94.46,1.88,3.33,7.79,4.89,8.89,3.81,2.69,2.12-4.2,1.41-6.14-.21-.58-.7-.61-.78-.78Z"/>
      <path class="cls-1" d="M32.09,43.2c-2.96-3.46-3.23-11.56-1.35-15.61.08-.18,1.55-2.38,1.67-2.47.82-.59,3.77,1.92,4.38,3.16,1.83,3.71,2.21,8.63,1.56,12.55-.23,1.41-1.65,4.08-3.15,4.1-.18,0-2.9-1.48-3.11-1.73ZM34.45,28.68c-.31-.18-1.96-.18-2.08-.09-.08.06.46.86.37,1.42-.12.76-1.56,2.43-1.66,3.57,2.53-.82.85,1.72.98,3.13.06.64.59,1.05.72,1.66s-.09,2.26.02,2.37c.86.85,2.72-1.38,2.98-2.09.28-.77.6-5.5.48-6.33-.05-.36-1.64-3.54-1.82-3.64ZM31.73,29.89v.43l.22-.22-.22-.22ZM31.29,35.53v.43l.22-.22-.22-.22ZM36.27,43.78c.29-.64-.15-2.33-.42-1.73-.29.64.15,2.33.42,1.73Z"/>
      <path class="cls-1" d="M49.67,42.09c.25.22,1.04,3.81.85,4.41-.49,1.52-3.78,2.39-4.93,3.34v-.86c-2.23.98-2.6.5-4.34,0-.3-.09-.11.9-.42.88-.98-.09-2.08-1.85-1.68-2.93.53-1.41,9.5-5.73,10.51-4.84ZM49.29,45.08c-.3-.23-6.55,1.3-7.37,1.54-2.52.72.51,1.64,1.73.2-.93,2.98.53.49.97.3.89-.38,2.48.28,3.88-.75.33-.24.89-1.2.79-1.28Z"/>
    </g>
  </g>
</svg>