<?xml version="1.0" encoding="UTF-8"?>
<svg id="Layer_2" data-name="Layer 2" xmlns="http://www.w3.org/2000/svg" viewBox="0 0 100 101.82">
  <defs>
    <style>
      .cls-1 {
        fill: #fff;
      }
    </style>
  </defs>
  <g id="Sketchy_Icons" data-name="Sketchy Icons">
    <g>
      <path class="cls-1" d="M100,30.72c-.07.63-.43,2.62-.61,3.17-.2.61-1.74,2.13-2.36,2.47-5.81,3.22-16.09,2.1-22.81,5.44-4.57,2.26.2,3.63,1.94,6.58,3.98,6.73,5.89,23.82,3.3,30.95-1.48,4.07-5.25,6.3-5,10.96.06,1.08.23,2.68.87,3.55.15.21,2.77,2.17,2.95,2.14.43-.06.81-.99,1.24-1.07s.9.69,1.53.73c.72.05,2.07-1.12,1.73,1.33-.04.31-1.3,2.66-1.49,2.82-.1.09-2.24,1.14-2.46,1.23-4.28,1.66-11.3.9-13-4.06-2.35-6.89.14-8.51.65-14.3.15-1.74-.74-5.33-1.72-6.68-.14-.19-3.29-2.81-3.5-2.9-.59-.24-2.62-.48-3.2-.6-2.48-.5-5.94-1.13-8.19-2.18-.66-.31-.45-.89-.49-.92-.28-.15-.71.74-.99.74-.33,0-1.2-1.61-1.79-1.14-.13.1.22.79-.2.8-.38,0,0-.78-.44-.84s-1.03.38-1.55.36c-8.04-.41-12.68-4.73-18.65-9.49-.35-.28-.26-.76-.29-.79-.5-.44-1.26,2.13-1.46,2.38-.32.42-3.88,4.06-4.13,4.21-.41.25-.98-.23-1.12-.15-.09.05-.35.99-1.1,1.47-1.31.83-2.96.69-3.66.97-.08.03-.72,1.15-1.02,1.31-.39.22-2.52,1.23-2.85,1.35-.38.14-.02-.97-.39-.8-.35.16-.45.93-.88,1.21-1.15.74-5.39,1.85-6.72,1.23-.77-.36-.72-.79-1.09-1.1-.11-.09-.49.13-.54.04-.59-.92-.58-3.8-.37-4.97,1.85-10.08,10.24-15.99,16.7-23.57,2.01-2.36,4.13-4.78,6.05-7.1,5.66-6.83,1.66-10.8,3.48-17.65C28.44,10.13,36.98,2.08,44.8.4c.6-.13,3.98-.5,4.19-.37.03.02-.43.54-.21.79,2.57-.98,6.21.25,8.66,1.32,9.2,4.02,10.46,14.65,21.7,17.66,6.27,1.68,14-1.83,18.41,4.8,1.15,1.73,1.21,4.18,2.45,5.72-.01.13.01.27,0,.4ZM53.76,3.22c-1.58-.64-2.88-.71-4.55-.73-.67,0-5.65.63-5.94.73-.36.12-5.47,3.64-6.21,4.22-2.12,1.67-6.23,7.11-6.84,9.51-.28,1.1-.42,2.27-.36,3.41,1.05-1.03,1.23-2.74,2-4.08,4.3-7.49,12.11-11.33,20.38-12.36.4-.05,1.61-.11,1.53-.69ZM54.96,3.61l-.79-.79c-.11.83-.04.91.79.79ZM52.37,4.41v.4l.2-.2-.2-.2ZM57.21,5.38c-2.32-.65-8.74-.2-11.11.69-.38.15-2.59,1.04-2.7,1.14-.03.03.45.76.4.79-.18.11-1.16-.12-1.71.09-3.61,1.33-6.76,6.57-8.87,9.48-.22.3-.88.07-.91.17-1.46,5.1-1.94,8.8-2.77,14.02-.6,3.79-3.18,6.34-5.68,9.12-5.26,5.85-18.43,14.66-19.32,23.1-.18,1.72-.18,3.52,1.63,3.75,1.97.26,3.12-.31,4.84-1.06,6.05-2.63,9.42-6.7,13.8-11.12.22-.23.89-.15,1.23-.51.1-.11-.06-2.15,1.59-.85.43.34.15,1.35.45,2,2.34,5.02,4.65,4.91,9.34,6.61,4.11,1.48,3.96,1.14,8.08,1.89.99.18,2.3,1.11,3.4,1.38,6.57,1.67,16.42,3.4,19.11,10.78,1.97,5.42,1.41,11.55,1.93,16.89.04.39.85,3.4.97,3.63.25.48,2.29.79,2.39.69.54-.56-2.19-2.93-2.53-4.05-1.63-5.37,3.23-8.86,5.01-13.2,2.65-6.45,2.38-9.45.19-15.92-.19-.55.11-.87.09-.91-.03-.07-.62.19-.69.11-.3-.33-.69-2.48-1.09-2.94-.04-.05-.66.16-1.18-.54-.48-.65-.74-1.07-1-1.45-.53-.75-3.48-5.29-3.56-5.62-.62-2.56.69-7.84.59-10.29-.03-.68-.76-1.13-.55-2.28.08-.46,1.44-2.39,1.84-2.69,2.59-1.99,11.27-3.25,14.84-3.77,3.38-.49,7.48.93,8.98-2.99.71-1.86.3-5.15-1.78-5.83-.48-.16-1,.09-1.4.02-.53-.1-.94-.69-1.6-.6-.4.05-.02.85-.41.83s-.02-.64-.39-.76c-.71-.22-4.62.34-6.01.15-8.36-1.17-16.54-10.14-21.27-16.07-.64-.8-1.78-2.59-2.41-3.11-.08-.07-1.65-.75-1.75-.78ZM36.43,6.01v.4l.2-.2-.2-.2ZM31.65,10.8c-.9.6-.49,1.14,0,.39.13-.2.32-.21,0-.39ZM30.26,12.39s-.28.97-.21,1.19c.95-.46.53-1.59.21-1.19ZM28.49,17.83c.37-1.11.66-2.29,1.36-3.26.13-1.13-.56-.34-.74.06-.54,1.16-.56,2.46-1.46,3.53l-.18,6.18c.48-.02.98-1.9,1-2.18.11-1.85-.56-2.6.02-4.33ZM69.91,17.56v.4l.2-.2-.2-.2ZM90.74,22.46l-11.87-.31c3.77,2.32,8.57,1.48,12.76,1.6l-.88-1.29ZM27.47,26.73c.85-.19.91-1.51.19-1.98l-.19,1.98ZM95.81,25.14v.4l.2-.2-.2-.2ZM98,30.32c-.46-.45-1.28.17-.2.79.35.05.22-.76.2-.79ZM27.66,32.72l-1.6,3.17c.77-.83,1.55-2.02,1.6-3.17ZM97.41,33.11v.4l.2-.2-.2-.2ZM97.01,33.91v.4l.2-.2-.2-.2ZM94.02,35.5s.27-.97.21-1.19l-1,.99c-.05.35.76.22.79.2ZM87.24,35.9c-1.19.44-2.45.3-3.67.51-.42.07-1.58.1-1.5.68,1.32-.02,2.96,0,4.23-.34.67-.19,1.15.31.95-.85ZM88.44,35.9c-.46-.45-1.28.17-.2.79.35.05.22-.76.2-.79ZM89.63,35.9c-.56-.29-1.06.25-.79.39.56.29,1.06-.25.79-.39ZM22.99,37.8s.48-.95.29-1.1l-1.39,1.39c.15.19,1.06-.25,1.1-.29ZM25.07,37.49c.29-.56-.25-1.06-.39-.79-.29.56.25,1.06.39.79ZM80.47,37.1c-.62-.28-1.62.2-1.19.39.62.28,1.62-.2,1.19-.39ZM81.06,37.09v.4l.2-.2-.2-.2ZM74.49,38.68c.91-.13,2.11-.33,2.78-1-.88.14-2.43.02-2.78,1ZM78.67,37.49v.4l.2-.2-.2-.2ZM21.48,40.28c.07-.05.37-1.3.4-1.59l-1.59.8c.03.5.86,1.04,1.19.79ZM19.7,42.09c.41-.59,1.43-1.16.39-1.8-.13.59-1.81,1.65-1.79,1.78.21,1.63.86.81,1.41.03ZM17.5,44.27c.16.2,1.11-.78.79-1.2-.16-.2-1.11.78-.79,1.2ZM16.9,44.68c-.9.6-.49,1.14,0,.39.13-.2.32-.21,0-.39ZM14.91,46.26v.4l.2-.2-.2-.2ZM72.89,46.66c-.55-.58-.74.04-.79.61-.2,2.27.87,2.38,1.74,4.23.35.75,2.8,6.47,3.1,6.67.08.05.39-.22.54-.34v1.18c1.53-2.58-.52-1.46-.59-1.58-.12-.19.1-1.25-.03-1.77-.79-3.26-1.66-5.24-3.59-7.69-.29-.37-.27-1.19-.38-1.31ZM13.31,47.86v.4l.2-.2-.2-.2ZM70.9,47.86c-.89-.2-.95.26-.99.99-.11,1.95.52,4,1.04,5.85l4.73,5.91c-.74-2.26-1.67-4.55-2.64-6.72-.83-1.86-3.15-4.1-2.14-6.03ZM26.86,57.82v.4l.2-.2-.2-.2ZM77.88,59.41v.4l.2-.2-.2-.2ZM76.48,61.8c.29-.56-.25-1.06-.39-.79-.29.56.25,1.06.39.79ZM3.15,64.2c.06-.11.22-1.25.21-1.58-1.06.48-.48,2.09-.21,1.58ZM39.02,66.19s-.97-.28-1.19-.21c.46.95,1.59.53,1.19.21ZM41.81,66.99c-.54.1-2.29-.89-2.38-.8-.83.77,2.26,1.81,2.38.8ZM2.35,66.59c-1.12-1.15-1.46,3.31,0,4.19,1.31.79,3.44-.32,4.79-.61-.73-1.3-1.83-.25-3.15-1.04-1.04-.62-1.46-2.35-1.64-2.54ZM52.37,68.98v.4l.2-.2-.2-.2ZM8.33,69.38c-.83-.11-.91-.04-.79.79l.79-.79ZM53.57,69.38v.4l.2-.2-.2-.2ZM55.16,69.78v.4l.2-.2-.2-.2ZM57.35,70.18s-.97-.28-1.19-.21c.46.95,1.59.53,1.19.21ZM67.91,84.52v.4l.2-.2-.2-.2ZM68.91,96.48c-1.27-2.82-.32-5.81-.38-8.55,0-.41-.17-1.82-.81-1.81-.18,3.03-1.14,6.73.26,9.51.28.56-.18,1.07.93.85ZM75.68,99.27c.29-.56-.25-1.06-.39-.79-.29.56.25,1.06.39.79Z"/>
      <polygon class="cls-1" points="14.51 68.58 14.71 68.78 14.51 68.98 14.51 68.58"/>
      <path class="cls-1" d="M45.98,20.57c.8,1.16,1.58,2.9,1.67,4.42.02.39-.22,4.44-.29,4.67-.09.32-.58.28-.76.56-.23.35-.24.93-.52,1.18-.8.73-4.3,2.05-5.29,2.07-.18,0-.17-.62-.48-.73-1.05-.38-2.03-.45-2.98-1.21-3.52-2.81-2.69-10.34-.53-13.81,2.07-3.33,7.56.5,9.18,2.86ZM39.42,17.96s.15-.84-.2-.79c-1.09.62-.27,1.25.2.79ZM40.81,17.56v.4l.2-.2-.2-.2ZM39.41,19.56c-.94-.82-.76,1.24-.97,1.63-.24.43-.98-.08-1.01-.04-.55.95.8,4.54,1.57,5.3.63.63,2.8.52.83,2.27,0-1.74-1.86-1.15-1.95-1.25-.25-.31.03-1.44-.85-1.54-.41,3.19,3.12,5.45,5.9,4.91,3.93-.76,3.17-6.92.99-9.33-.17-.18-3.31-1.95-3.51-1.95-.55-.01-.22,1.23-.39,1.18-.47-.14-.51-1.1-.61-1.18ZM38.02,19.96v.4l.2-.2-.2-.2Z"/>
      <g>
        <path class="cls-1" d="M60.46,32.79c.97,1.32-.53,3.93-1.5,4.92-.37.38-4.69,3.21-4.99,3.29-.28.08-5.32.12-5.59.03-.25-.08-.05-1.23-.99-.74-.06.03.57,1.11-.39,1.19-1.44-4.32,3.19-9.07,7.37-9.57,1.18-.14,5.43-.02,6.09.87ZM57.15,33.11v.4l.2-.2-.2-.2ZM59.34,35.1c.6-.6-.64-2.12-1.59-1.19-.18.18.86,1.91,1.59,1.19ZM55.55,35.69c-.94-1.37-.41.11-.62.15-1.75.31-3.13-.91-4.89.92-2.8,2.92,4.95,1.44,5.88.78s-.03-1.34-.37-1.85Z"/>
        <path class="cls-1" d="M61.19,13.34c2.35,1.25,2.09,7.73,1.37,10.03-.06.19-1.72,3.44-1.85,3.6-.12.13-2.62,1.97-2.78,2.03-6.58,2.59-4.73-7.41-3.64-10.71.95-2.9,3.41-6.81,6.9-4.95ZM59.52,16.18c-.23-.25-.1-.67-.37-.6-1.22.33-1.33,1.72-1.51,1.89-.21.2-.8.03-.98.19-.81.73-1.7,7.17-.74,8.32,1.87,2.25,3.46-1.08,4.03-2.81.61-1.86.86-5.58-.43-6.98Z"/>
      </g>
    </g>
  </g>
</svg>