<?xml version="1.0" encoding="UTF-8"?>
<svg id="Layer_2" data-name="Layer 2" xmlns="http://www.w3.org/2000/svg" viewBox="0 0 59.98 61.08">
  <g id="Ghosts">
    <g id="Layer_40_Image" data-name="Layer 40 Image">
      <g>
        <path d="M59.98,18.42c-.04.38-.26,1.57-.37,1.9-.12.36-1.04,1.28-1.41,1.48-3.49,1.93-9.65,1.26-13.68,3.26-2.74,1.36.12,2.18,1.17,3.95,2.39,4.04,3.54,14.29,1.98,18.57-.89,2.44-3.15,3.78-3,6.58.03.65.14,1.6.52,2.13.09.12,1.66,1.3,1.77,1.28.26-.04.48-.6.75-.64s.54.41.92.44c.43.03,1.24-.67,1.04.8-.03.19-.78,1.59-.89,1.69-.06.05-1.34.68-1.48.74-2.57,1-6.78.54-7.8-2.44-1.41-4.13.09-5.1.39-8.58.09-1.04-.44-3.2-1.03-4.01-.08-.11-1.97-1.69-2.1-1.74-.35-.14-1.57-.29-1.92-.36-1.49-.3-3.56-.68-4.91-1.31-.4-.19-.27-.54-.3-.55-.17-.09-.42.44-.59.44-.2,0-.72-.97-1.07-.68-.08.06.13.48-.12.48-.23,0,0-.47-.26-.5s-.62.23-.93.21c-4.82-.24-7.6-2.84-11.19-5.69-.21-.17-.16-.46-.18-.47-.3-.26-.76,1.28-.87,1.43-.19.25-2.33,2.43-2.48,2.53-.24.15-.59-.14-.67-.09-.06.03-.21.6-.66.88-.79.5-1.77.42-2.19.58-.05.02-.43.69-.61.79-.23.13-1.51.74-1.71.81-.23.08,0-.58-.24-.48-.21.1-.27.56-.53.73-.69.45-3.23,1.11-4.03.74-.46-.21-.43-.47-.65-.66-.06-.05-.29.08-.33.02-.35-.55-.35-2.28-.22-2.98,1.11-6.05,6.14-9.59,10.02-14.14,1.21-1.41,2.47-2.87,3.63-4.26,3.4-4.1.99-6.48,2.09-10.59C17.06,6.08,22.18,1.25,26.87.24c.36-.08,2.39-.3,2.51-.22.02.01-.26.33-.13.47,1.54-.59,3.72.15,5.2.79,5.52,2.41,6.27,8.79,13.02,10.59,3.76,1.01,8.4-1.1,11.04,2.88.69,1.04.73,2.5,1.47,3.43,0,.08,0,.16,0,.24ZM32.25,1.93c-.95-.39-1.73-.42-2.73-.44-.4,0-3.39.38-3.56.44-.22.07-3.28,2.18-3.72,2.53-1.27,1-3.73,4.27-4.11,5.7-.17.66-.25,1.36-.22,2.04.63-.62.74-1.64,1.2-2.45,2.58-4.49,7.26-6.8,12.22-7.42.24-.03.97-.07.92-.41ZM32.97,2.17l-.48-.48c-.07.5-.02.54.48.48ZM31.41,2.65v.24l.12-.12-.12-.12ZM34.32,3.22c-1.39-.39-5.25-.12-6.67.42-.23.09-1.55.62-1.62.68-.02.02.27.46.24.47-.11.07-.69-.07-1.03.05-2.16.8-4.06,3.94-5.32,5.69-.13.18-.53.04-.55.1-.87,3.06-1.16,5.28-1.66,8.41-.36,2.27-1.91,3.81-3.4,5.47-3.15,3.51-11.06,8.79-11.59,13.85-.11,1.03-.11,2.11.98,2.25,1.18.16,1.87-.19,2.9-.63,3.63-1.58,5.65-4.02,8.28-6.67.13-.14.54-.09.74-.31.06-.07-.03-1.29.95-.51.26.21.09.81.27,1.2,1.4,3.01,2.79,2.95,5.6,3.96,2.47.89,2.37.68,4.85,1.13.6.11,1.38.66,2.04.83,3.94,1,9.85,2.04,11.46,6.47,1.18,3.25.85,6.93,1.15,10.13.02.23.51,2.04.58,2.18.15.29,1.37.47,1.43.41.32-.34-1.32-1.76-1.52-2.43-.98-3.22,1.94-5.31,3.01-7.92,1.59-3.87,1.43-5.67.12-9.55-.11-.33.07-.52.05-.55-.02-.04-.37.12-.41.07-.18-.19-.42-1.49-.66-1.76-.03-.03-.4.09-.71-.33-.29-.39-.44-.64-.6-.87-.32-.45-2.09-3.17-2.13-3.37-.37-1.54.42-4.7.36-6.17-.02-.41-.46-.68-.33-1.37.05-.28.86-1.43,1.1-1.62,1.55-1.2,6.76-1.95,8.9-2.26,2.03-.29,4.48.56,5.39-1.79.43-1.12.18-3.09-1.07-3.49-.29-.09-.6.05-.84,0-.32-.06-.56-.41-.96-.36-.24.03-.01.51-.25.5s-.01-.38-.23-.45c-.42-.13-2.77.21-3.61.09-5.01-.7-9.92-6.08-12.76-9.64-.38-.48-1.07-1.55-1.45-1.87-.05-.04-.99-.45-1.05-.47ZM21.85,3.6v.24l.12-.12-.12-.12ZM18.98,6.48c-.54.36-.3.69,0,.23.08-.12.19-.13,0-.23ZM18.15,7.43s-.17.58-.12.71c.57-.28.32-.95.12-.71ZM17.09,10.69c.22-.66.39-1.37.82-1.96.08-.68-.33-.21-.45.03-.33.69-.33,1.47-.87,2.12l-.11,3.71c.29-.01.59-1.14.6-1.31.07-1.11-.34-1.56.01-2.6ZM41.93,10.54v.24l.12-.12-.12-.12ZM54.43,13.47l-7.12-.19c2.26,1.39,5.14.89,7.65.96l-.53-.77ZM16.47,16.03c.51-.11.55-.91.11-1.19l-.11,1.19ZM57.47,15.08v.24l.12-.12-.12-.12ZM58.78,18.19c-.28-.27-.77.1-.12.48.21.03.13-.46.12-.48ZM16.59,19.63l-.96,1.9c.46-.5.93-1.21.96-1.9ZM58.43,19.86v.24l.12-.12-.12-.12ZM58.19,20.34v.24l.12-.12-.12-.12ZM56.39,21.29s.16-.58.12-.71l-.6.59c-.03.21.46.13.48.12ZM52.33,21.53c-.72.26-1.47.18-2.2.31-.25.04-.95.06-.9.41.79-.01,1.78,0,2.54-.2.4-.11.69.19.57-.51ZM53.05,21.53c-.28-.27-.77.1-.12.48.21.03.13-.46.12-.48ZM53.76,21.54c-.34-.17-.64.15-.48.23.34.17.64-.15.48-.23ZM13.79,22.68s.29-.57.17-.66l-.83.83c.09.11.64-.15.66-.17ZM15.04,22.49c.17-.34-.15-.64-.23-.48-.17.34.15.64.23.48ZM48.26,22.25c-.37-.17-.97.12-.71.23.37.17.97-.12.71-.23ZM48.62,22.25v.24l.12-.12-.12-.12ZM44.68,23.2c.55-.08,1.27-.2,1.67-.6-.53.08-1.46.01-1.67.6ZM47.19,22.49v.24l.12-.12-.12-.12ZM12.88,24.16s.22-.78.24-.95l-.95.48c.02.3.51.62.71.47ZM11.82,25.25c.25-.35.85-.7.23-1.08-.08.35-1.09.99-1.08,1.07.13.98.51.49.84.02ZM10.5,26.55c.09.12.67-.47.47-.72-.09-.12-.67.47-.47.72ZM10.14,26.8c-.54.36-.3.69,0,.23.08-.12.19-.13,0-.23ZM8.94,27.75v.24l.12-.12-.12-.12ZM43.72,27.99c-.33-.35-.44.03-.47.37-.12,1.36.52,1.43,1.04,2.54.21.45,1.68,3.88,1.86,4,.05.03.24-.13.32-.2v.7c.92-1.55-.31-.88-.36-.95-.07-.11.06-.75-.02-1.06-.47-1.96-1-3.14-2.15-4.61-.17-.22-.16-.72-.23-.78ZM7.99,28.71v.24l.12-.12-.12-.12ZM42.53,28.71c-.53-.12-.57.15-.59.59-.07,1.17.31,2.4.62,3.51l2.84,3.54c-.44-1.36-1-2.73-1.58-4.03-.5-1.12-1.89-2.46-1.28-3.61ZM16.11,34.68v.24l.12-.12-.12-.12ZM46.71,35.64v.24l.12-.12-.12-.12ZM45.87,37.07c.17-.34-.15-.64-.23-.48-.17.34.15.64.23.48ZM1.89,38.51c.04-.07.13-.75.12-.95-.64.29-.29,1.25-.12.95ZM23.4,39.71s-.58-.17-.71-.12c.28.57.95.32.71.12ZM25.08,40.18c-.33.06-1.37-.53-1.43-.48-.5.46,1.36,1.09,1.43.48ZM1.41,39.94c-.67-.69-.88,1.98,0,2.51.79.48,2.07-.19,2.87-.36-.44-.78-1.1-.15-1.89-.62-.62-.37-.87-1.41-.98-1.52ZM31.41,41.38v.24l.12-.12-.12-.12ZM5,41.62c-.5-.07-.54-.02-.48.48l.48-.48ZM32.13,41.62v.24l.12-.12-.12-.12ZM33.09,41.85v.24l.12-.12-.12-.12ZM34.4,42.1s-.58-.17-.71-.12c.28.57.95.32.71.12ZM40.74,50.7v.24l.12-.12-.12-.12ZM41.33,57.87c-.76-1.69-.19-3.49-.23-5.13,0-.25-.1-1.09-.49-1.08-.11,1.82-.69,4.04.16,5.7.17.33-.11.64.56.51ZM45.4,59.54c.17-.34-.15-.64-.23-.48-.17.34.15.64.23.48Z"/>
        <polygon points="8.7 41.14 8.82 41.26 8.7 41.38 8.7 41.14"/>
        <path d="M27.58,12.34c.48.69.95,1.74,1,2.65.01.24-.13,2.66-.17,2.8-.06.19-.35.17-.46.33-.14.21-.15.56-.31.71-.48.44-2.58,1.23-3.17,1.24-.11,0-.1-.37-.29-.44-.63-.23-1.22-.27-1.79-.73-2.11-1.68-1.61-6.2-.32-8.28s4.53.3,5.51,1.71ZM23.64,10.77s.09-.51-.12-.48c-.65.37-.16.75.12.48ZM24.48,10.54v.24l.12-.12-.12-.12ZM23.64,11.73c-.56-.49-.46.74-.58.98-.14.26-.59-.05-.6-.02-.33.57.48,2.72.94,3.18.38.38,1.68.31.5,1.36,0-1.04-1.12-.69-1.17-.75-.15-.18.02-.86-.51-.92-.25,1.91,1.87,3.27,3.54,2.95,2.36-.46,1.9-4.15.59-5.6-.1-.11-1.98-1.17-2.1-1.17-.33,0-.13.74-.24.71-.28-.08-.31-.66-.36-.71ZM22.81,11.97v.24l.12-.12-.12-.12Z"/>
        <g>
          <path d="M36.26,19.67c.58.79-.32,2.36-.9,2.95-.22.23-2.81,1.92-2.99,1.97-.17.05-3.19.07-3.35.02-.15-.05-.03-.74-.59-.45-.03.02.34.67-.24.71-.86-2.59,1.92-5.44,4.42-5.74.71-.08,3.26-.01,3.66.52ZM34.28,19.86v.24l.12-.12-.12-.12ZM35.6,21.05c.36-.36-.38-1.27-.95-.71-.11.11.52,1.15.95.71ZM33.32,21.41c-.56-.82-.25.06-.37.09-1.05.19-1.88-.55-2.93.55-1.68,1.75,2.97.86,3.53.47s-.02-.81-.22-1.11Z"/>
          <path d="M36.71,8c1.41.75,1.25,4.64.82,6.02-.04.12-1.03,2.07-1.11,2.16-.07.08-1.57,1.18-1.67,1.22-3.95,1.56-2.83-4.44-2.18-6.43.57-1.74,2.05-4.08,4.14-2.97ZM35.7,9.7c-.14-.15-.06-.4-.22-.36-.73.2-.8,1.03-.9,1.13-.13.12-.48.02-.59.11-.49.44-1.02,4.3-.45,4.99,1.12,1.35,2.08-.65,2.42-1.69.37-1.11.52-3.35-.26-4.19Z"/>
        </g>
      </g>
    </g>
  </g>
</svg>