<?xml version="1.0" encoding="UTF-8"?>
<svg id="Layer_2" data-name="Layer 2" xmlns="http://www.w3.org/2000/svg" viewBox="0 0 100 159.15">
  <defs>
    <style>
      .cls-1 {
        fill: #fff;
      }
    </style>
  </defs>
  <g id="Sketchy_Icons" data-name="Sketchy Icons">
    <g>
      <path class="cls-1" d="M68.07,2.78c8.46,6.42,10.73,20.26,11.09,30.21.26,7.09-1.1,16.99,1.49,23.42,2.89,7.17,11.19,9.64,15.44,16.24,1.88,2.92,5.46,11.4,3.19,14.49-.09.12-2.1,1.81-2.24,1.85-.23.07-4.22-.1-4.75-.17-2.61-.34-5.47-1.41-8.03-1.85-2-.34-3.19.41-5.61-1.01-.85-.5-3.79-3.09-4.29-3.82-.58-.84-2.4-5.68-2.94-5.93-5.47,5.96-.2,13.62,1.51,19.99,3.38,12.57,2.57,19.9-3.98,30.38-4.11,6.57-8.92,12.5-9.62,20.83-.47,5.61,1.29,7.18,6.79,6.5.86-.11,2.84-1.43,2.47.57-.31,1.68-1.59,1.18-2.26,1.57-1.01.58-2.63,1.93-4.05,2.32-10.39,2.82-23.51-2.12-25.99-13.42-1.3-5.91.67-14.44,2.74-19.65,2.38-6,5.81-8.95,4.71-16.09-1.2-7.8-12.23-9.4-13.19-20.36-.1-1.14.26-7.8-.01-8.11s-3.77,2.23-4.15,2.38c-1.1.44-3.1.63-4.51,1.21-.62.25-1.08.84-1.33.93-.31.12-.09-.75-.38-.78-.27-.02-3.98,1.27-4.87,1.32-1.55.09-4.31-.15-6.06-.23-.63-.03-1.19-.59-1.51-.57-.35.02-.72.79-.93.63-.06-.05.07-.56-.05-.66-.14-.13-.76.35-1.18.22-6.32-2.02-6.86-9.38-3.61-14.39,3.89-5.97,9.04-7,14.43-10.46,6.78-4.35,11.92-10.67,13.92-18.55,2.42-9.56,2.06-24.75,9.45-32.77,2.27-2.47,9.31-7.44,12.49-8.24,5.08-1.27,11.52-1.28,15.83,1.99ZM51.44,2.26v.38l.19-.19-.19-.19ZM64.7,4.28c-1.32-.76-3.49-1.42-5.01-1.59-.44-.05-2.02-.39-2.02.32.69.13,1.49.06,2.14.31,5.96,2.3,7.81,5.64,11.1,10.39,1.11,1.61,2.28,3.25,3.53,4.76-.6-1.37-.68-3.17-1.2-4.52-.32-.84-1.65-3.11-1.8-3.27-1.14-1.22-2.01-2.13-3.23-2.97-.38-.26-.02-.76-.11-.85-.23-.21-3.2-2.48-3.4-2.59ZM55.1,4.38c-.07-.01-.08-.63-.26-.61-1.18.15-4.76.94-5.76,1.42-1.67.81-6.29,4.33-7.15,5.67-2.1,3.28-6.27,12.45-6.85,16.15-2.18,13.8-2.24,21.09-11.94,32.23-.53.61-1.51,1.76-2.2,2.49-4.94,5.26-8.17,4.98-13.77,7.51-4.03,1.82-5.9,5.27-3.42,9.43,4.64,7.77,20.13,4.52,25.96-.44.73-.62,1.79-2.75,2.49-1.64.45.7.36,5.98.69,7.61,1.43,7.14,6.03,9.92,10.43,14.46,2.97,3.06,4.27,7.7,3.59,11.89-1.23,7.58-5.04,15.98-6.04,23.19-.56,4.03.1,8.06,1.68,11.73,2.42,5.6,6.45,9.29,12.64,9.98-3.11-4.91-1.5-11.35,1.17-16.19,7.19-13.05,18.62-22.44,15.13-39.37-1.27-6.14-5.39-9.34-5.52-16.36-.05-2.52.96-6.15,2.16-8.33.83-1.51,2.12-3.44,4.2-2.93,1.35.33,1.57,2.54,2.34,3.7.24.37,4.63,5.1,5.09,5.53,2.8,2.63,5.47,3.8,9.34,3.21,5.74-.87,5.55-2.74,3.39-7.74-2.66-6.16-6.24-6.02-10-9.71-10.22-10.02-2.73-32.87-8.15-45.39-.78-1.79-8.98-13.37-10.31-14.14-.53-.31-1.26-.09-1.48-.22-.04-.02.37-.61.02-.92-.72-.66-2.05-.42-2.28-.59-.1-.07.5-.71-1.52-1.32-.92-.28-2.77-.13-3.68-.31ZM84.79,64.89c.22-.43-.24-.87-.57-1.12-.16.38.38,1.48.57,1.12ZM14.7,64.52c-.53-.27-1.01.24-.75.37.53.27,1.01-.24.75-.37ZM13.38,64.9v.38l.19-.19-.19-.19ZM86.3,65.65c.19-.15-.74-1.06-1.13-.75-.19.15.74,1.06,1.13.75ZM12.25,65.27v.38l.19-.19-.19-.19ZM11.5,65.65v.38l.19-.19-.19-.19ZM87.42,67.16c.5-.71-.51-1.96-1.5-1.13-.24.2,1.44,1.21,1.5,1.13ZM10.56,66.41c-.53-.27-1.01.24-.75.37.53.27,1.01-.24.75-.37ZM88.55,67.91c.22-.43-.24-.87-.57-1.12-.16.38.38,1.48.57,1.12ZM94.39,76.98c-.37.26.2.52.38.74.37-.25-.18-.5-.38-.74ZM95.34,87.16c.3.28,2.62-1.19,2.86-1.67.47-.95-.51-4.81-1.17-5.86l-.29,4.98c.3.76-1.81,2.17-1.4,2.55ZM94.4,84.9c-.85.57-.47,1.08,0,.37.13-.19.3-.2,0-.37ZM92.51,85.65v.38l.19-.19-.19-.19ZM93.27,85.65v.38l.19-.19-.19-.19ZM35.8,96.21c-.62-2.27-1.92-4.57-3.38-6.41.28,2.47,1.41,4.86,3.38,6.41ZM43.91,104.52v.38l.19-.19-.19-.19ZM44.66,106.4v.38l.19-.19-.19-.19ZM69.53,120.74v.38l.19-.19-.19-.19ZM41.96,150.04c-1.06-1.18-2.8-6.42-3.06-8.1-.5-3.31.65-7.29.1-10.63-.64.42-.48,1.08-.61,1.69-1.81,8.52-1.49,15.28,5.93,20.89.46.34,1.45,1.16,2.02.62-.78-2.03-3.25-3.2-4.39-4.47ZM60.67,137.72c.27-.53-.24-1.01-.37-.75-.27.53.24,1.01.37.75ZM58.98,140.59c.06-.15,1.81-3.18.37-2.11-1.35,2.71-2.6,5.42-2.72,8.49-.02.53.15,3.8.27,3.96.14.17,1.04.09.75-.57l.84-9.43c.02-.23.43-.2.49-.34ZM57.85,151.68v.38l.19-.19-.19-.19ZM58.04,154.7l-1.88-1.32c.76.74.58,1.64,1.88,1.32Z"/>
      <path class="cls-1" d="M48.48,40.23c-.14.15-3.06,2.42-3.25,2.52-.58.31-2.01.23-2.09.29-.11.08.24.69.2.71-.14.09-3.05-.64-3.17-.75-2.69-2.4-1.51-8.29-.08-11.19.67-1.35,5.41-6.28,6.76-7,7.19-3.84,7.77,4.53,5.61,9.39-.47,1.05-3.2,5.19-3.98,6.02ZM40.76,40.32c.43.67,2.56.68,3.42.34,3.33-1.35,8.31-11.15,5.79-13.51-.69-.64-3.32.46-3.87.89-.71.56-.41,1.91-1.61,1.57.54.92.57,1.27-.36.58-.64,1.91-2.08,2.97-2.77,4.98-.37,1.08-1.15,4.28-.6,5.14ZM52.2,28.67v.38l.19-.19-.19-.19Z"/>
      <path class="cls-1" d="M64.95,26.28c2.23,1.71,4.67,4.42,5.41,7.22.21.79.74,5.46.66,6.18-.05.49-1.48,3.79-1.76,4-.12.09-2.66-.01-2.91-.1-4.76-1.73-7.55-10.92-7.21-15.48.23-3.04,2.1-4.77,4.92-2.94.5.32.58.9.87,1.12ZM61.43,31.69s-.05,0,0,.38c.33,2.34,2.08,5.85,3.92,7.38,1.44,1.2,3.1,2.61,3.52-.01.77-4.74-3.31-10.5-7.06-13.03-.56,1.88-.48,3.33-.38,5.28Z"/>
      <path class="cls-1" d="M61.43,32.07s-.02-.37,0-.38c.35-.16.35.54,0,.38Z"/>
      <path class="cls-1" d="M56.41,49.17c.64.77,1.75,3.27,1.88,4.27.07.53-.43,5.95-.67,6.13-.19.14-.86.02-1.28.42s-.42,1.32-.6,1.5c-.11.11-3.06-.03-3.2-.11-.57-.31-2.27-3.46-2.39-4.25-.23-1.58,0-9.77,1.56-10.47.46-.21,1.02-.33,1.52-.19.2.05,2.98,2.48,3.17,2.7ZM53.14,48.29s.14-.8-.18-.75l-.94.95c.2.07,1.08-.15,1.12-.19ZM54.45,49.98c-.15-.16-.25-.56-.36-.55-2.16.18-2.71,8.32-.38,8.32,1.96,0,2.03-6.39.75-7.77ZM56.9,56.97l-.37-3.39c.05,1.02-.9,2.81.37,3.39ZM56.53,57.35c-1.18-.24-.57.9-1.29,1.54-.28.25-2.19.38-1.34,1.47.13.16,3.06-2.14,2.63-3.02Z"/>
      <polygon class="cls-1" points="61.62 3.39 61.8 3.58 61.62 3.77 61.62 3.39"/>
    </g>
  </g>
</svg>