<?xml version="1.0" encoding="UTF-8"?>
<svg id="Layer_2" data-name="Layer 2" xmlns="http://www.w3.org/2000/svg" viewBox="0 0 63.46 100.99">
  <g id="Ghosts">
    <g id="Layer_42_Image" data-name="Layer 42 Image">
      <g>
        <path d="M43.19,1.77c5.37,4.07,6.81,12.86,7.03,19.17.16,4.5-.7,10.78.94,14.86,1.83,4.55,7.1,6.11,9.8,10.3,1.19,1.86,3.47,7.23,2.02,9.19-.05.07-1.33,1.15-1.42,1.18-.14.04-2.68-.06-3.02-.11-1.66-.22-3.47-.89-5.1-1.17-1.27-.22-2.03.26-3.56-.64-.54-.32-2.41-1.96-2.72-2.42-.37-.54-1.53-3.6-1.87-3.76-3.47,3.78-.13,8.64.96,12.69,2.15,7.98,1.63,12.63-2.53,19.28-2.61,4.17-5.66,7.93-6.1,13.22-.3,3.56.82,4.55,4.31,4.12.54-.07,1.8-.91,1.57.36-.2,1.07-1.01.75-1.44.99-.64.37-1.67,1.23-2.57,1.47-6.59,1.79-14.92-1.35-16.49-8.52-.82-3.75.42-9.16,1.74-12.47,1.51-3.81,3.68-5.68,2.99-10.21-.76-4.95-7.76-5.96-8.37-12.92-.06-.72.17-4.95,0-5.14s-2.39,1.42-2.63,1.51c-.7.28-1.96.4-2.86.77-.39.16-.68.53-.84.59-.2.08-.06-.48-.24-.49-.17-.01-2.53.81-3.09.84-.99.06-2.74-.09-3.84-.15-.4-.02-.76-.38-.96-.36-.22.01-.46.5-.59.4-.04-.03.04-.35-.03-.42-.09-.08-.48.22-.75.14-4.01-1.28-4.36-5.95-2.29-9.13,2.47-3.79,5.73-4.44,9.15-6.64,4.3-2.76,7.56-6.77,8.83-11.77,1.54-6.07,1.31-15.71,6-20.8,1.44-1.57,5.91-4.72,7.92-5.23,3.22-.81,7.31-.81,10.05,1.26ZM32.64,1.43v.24l.12-.12-.12-.12ZM41.05,2.72c-.84-.48-2.22-.9-3.18-1.01-.28-.03-1.28-.25-1.28.21.44.08.95.04,1.36.2,3.78,1.46,4.96,3.58,7.04,6.59.71,1.02,1.44,2.06,2.24,3.02-.38-.87-.43-2.01-.76-2.87-.21-.53-1.05-1.97-1.14-2.08-.72-.77-1.28-1.35-2.05-1.88-.24-.17-.01-.48-.07-.54-.14-.13-2.03-1.57-2.16-1.64ZM34.97,2.78s-.05-.4-.16-.39c-.75.09-3.02.6-3.65.9-1.06.51-3.99,2.75-4.54,3.6-1.33,2.08-3.98,7.9-4.35,10.25-1.38,8.76-1.42,13.39-7.57,20.45-.34.39-.96,1.12-1.4,1.58-3.13,3.34-5.19,3.16-8.74,4.77-2.55,1.15-3.74,3.34-2.17,5.98,2.94,4.93,12.78,2.87,16.47-.28.46-.39,1.13-1.74,1.58-1.04.28.45.23,3.79.44,4.83.91,4.53,3.83,6.3,6.62,9.18,1.88,1.94,2.71,4.89,2.28,7.54-.78,4.81-3.2,10.14-3.83,14.71-.36,2.56.06,5.11,1.07,7.44,1.54,3.55,4.09,5.89,8.02,6.33-1.97-3.12-.95-7.21.74-10.28,4.56-8.28,11.82-14.24,9.6-24.98-.8-3.9-3.42-5.92-3.5-10.38-.03-1.6.61-3.9,1.37-5.28.53-.96,1.35-2.18,2.66-1.86.85.21.99,1.61,1.49,2.35.15.23,2.94,3.24,3.23,3.51,1.78,1.67,3.47,2.41,5.93,2.04,3.64-.55,3.52-1.74,2.15-4.91-1.69-3.91-3.96-3.82-6.34-6.16-6.49-6.36-1.73-20.86-5.17-28.8-.49-1.14-5.7-8.48-6.54-8.97-.34-.19-.8-.06-.94-.14-.03-.01.23-.39.01-.58-.46-.42-1.3-.27-1.45-.38-.06-.05.32-.45-.97-.84-.58-.18-1.76-.08-2.34-.19ZM53.8,41.18c.14-.28-.15-.55-.36-.71-.1.24.24.94.36.71ZM9.33,40.94c-.34-.17-.64.15-.48.23.34.17.64-.15.48-.23ZM8.49,41.18v.24l.12-.12-.12-.12ZM54.76,41.66c.12-.1-.47-.67-.72-.47-.12.1.47.67.72.47ZM7.78,41.42v.24l.12-.12-.12-.12ZM7.3,41.66v.24l.12-.12-.12-.12ZM55.48,42.62c.31-.45-.32-1.24-.95-.72-.15.13.91.77.95.72ZM6.7,42.14c-.34-.17-.64.15-.48.23.34.17.64-.15.48-.23ZM56.19,43.1c.14-.28-.15-.55-.36-.71-.1.24.24.94.36.71ZM59.9,48.85c-.24.17.13.33.24.47.24-.16-.11-.32-.24-.47ZM60.5,55.31c.19.18,1.66-.75,1.81-1.06.3-.6-.32-3.05-.74-3.72l-.18,3.16c.19.48-1.15,1.37-.89,1.62ZM59.9,53.88c-.54.36-.3.69,0,.23.08-.12.19-.13,0-.23ZM58.71,54.35v.24l.12-.12-.12-.12ZM59.18,54.35v.24l.12-.12-.12-.12ZM22.72,61.05c-.39-1.44-1.22-2.9-2.15-4.07.18,1.57.89,3.09,2.15,4.07ZM27.86,66.32v.24l.12-.12-.12-.12ZM28.34,67.52v.24l.12-.12-.12-.12ZM44.12,76.62v.24l.12-.12-.12-.12ZM26.63,95.21c-.67-.75-1.78-4.07-1.94-5.14-.32-2.1.41-4.63.06-6.75-.41.27-.3.69-.39,1.07-1.15,5.4-.94,9.69,3.77,13.26.29.22.92.74,1.28.4-.5-1.29-2.06-2.03-2.78-2.84ZM38.5,87.39c.17-.34-.15-.64-.23-.48-.17.34.15.64.23.48ZM37.43,89.21c.04-.1,1.15-2.02.24-1.34-.86,1.72-1.65,3.44-1.73,5.39-.01.34.09,2.41.17,2.51.09.11.66.06.48-.36l.53-5.98c.01-.15.27-.13.31-.22ZM36.71,96.25v.24l.12-.12-.12-.12ZM36.83,98.16l-1.19-.84c.48.47.37,1.04,1.19.84Z"/>
        <path d="M30.76,25.53c-.09.1-1.94,1.54-2.06,1.6-.37.19-1.27.15-1.33.19-.07.05.15.44.13.45-.09.06-1.94-.41-2.01-.48-1.71-1.52-.96-5.26-.05-7.1.43-.86,3.43-3.98,4.29-4.44,4.56-2.44,4.93,2.87,3.56,5.96-.3.67-2.03,3.29-2.52,3.82ZM25.86,25.58c.28.43,1.63.43,2.17.21,2.12-.86,5.27-7.08,3.67-8.57-.44-.41-2.11.29-2.45.57-.45.36-.26,1.21-1.02,1,.34.58.36.8-.23.37-.41,1.21-1.32,1.89-1.76,3.16-.23.69-.73,2.72-.38,3.26ZM33.12,18.2v.24l.12-.12-.12-.12Z"/>
        <path d="M41.22,16.67c1.41,1.09,2.97,2.8,3.44,4.58.13.5.47,3.46.42,3.92-.03.31-.94,2.41-1.12,2.54-.07.06-1.69,0-1.84-.07-3.02-1.1-4.79-6.93-4.57-9.82.15-1.93,1.33-3.03,3.12-1.87.32.2.37.57.55.71ZM38.98,20.11s-.03,0,0,.24c.21,1.48,1.32,3.71,2.49,4.68.91.76,1.96,1.66,2.23,0,.49-3.01-2.1-6.67-4.48-8.27-.36,1.19-.3,2.11-.24,3.35Z"/>
        <path d="M38.98,20.35s-.01-.23,0-.24c.22-.1.22.34,0,.24Z"/>
        <path d="M35.79,31.2c.41.49,1.11,2.07,1.19,2.71.04.33-.27,3.77-.43,3.89-.12.09-.54.01-.81.26s-.27.84-.38.95c-.07.07-1.94-.02-2.03-.07-.36-.19-1.44-2.19-1.51-2.69-.14-1.01,0-6.2.99-6.64.29-.13.65-.21.97-.12.13.03,1.89,1.57,2.01,1.72ZM33.72,30.64s.09-.51-.12-.48l-.59.6c.13.04.69-.1.71-.12ZM34.55,31.72c-.1-.1-.16-.36-.23-.35-1.37.11-1.72,5.28-.24,5.28,1.24,0,1.29-4.05.47-4.93ZM36.11,36.15l-.23-2.15c.03.65-.57,1.79.23,2.15ZM35.87,36.39c-.75-.15-.36.57-.82.98-.18.16-1.39.24-.85.93.08.1,1.94-1.36,1.67-1.91Z"/>
        <polygon points="39.1 2.15 39.22 2.27 39.1 2.39 39.1 2.15"/>
      </g>
    </g>
  </g>
</svg>