<?xml version="1.0" encoding="UTF-8"?>
<svg id="Layer_2" data-name="Layer 2" xmlns="http://www.w3.org/2000/svg" viewBox="0 0 55.12 76.94">
  <g id="Ghosts">
    <g id="Layer_36_Image" data-name="Layer 36 Image">
      <g>
        <path d="M18.08,2.12c.42-.46.51-1.1,1.19-1.29.29-.08.65.15.8.09.2-.08.17-.36.29-.4,1.76-.51,3.37-.79,5.13-.14,1.18.44,5.57,2.58,6.15,3.48,2.09,3.29,2.11,6.49,3.61,9.9s2.8,5.34,5.66,7.49c2.18,1.64,5.54,3.73,8.18,5.21,1.02.57,2.61,1,3.63,1.63,2.03,1.26,3.3,4.73,1.61,6.73-.79.93-2.98.95-4.21.95-3.66.01-7.07-1.44-9.97-3.47-1.07-.75-1.75-1.38-1.59.4.32,3.63,2.98,7.55,3.57,11.45.37,2.5.15,5.15.09,7.62-.07,2.95.22,4.32-.91,7.2-1.62,4.13-6.99,9.49-6.74,13.59.02.26.13,1.03.41,1.09.34.08,1.96.05,2.3-.06.76-.23,1.04-1.8,1.13-1.86,1.33-.84.78,2.75,0,3.7-1.74,2.11-7.45,1.7-9.5.43-2.61-1.62-3.18-6.75-2.68-9.51.64-3.5,4.5-8.64,3.75-12.16-.22-1.06-1-2.53-1.98-3.04-4.2-2.19-9.8-2.85-11.01-8.6-.16-.76-.07-3.34-.58-3.73-.37-.28-2.26-.2-2.63,0-.3.15-.36.62-.56.77-2.32,1.77-2.74,2.43-4.55,4.54-.42.49-1.27.97-1.59,1.39-.23.29-.19.82-.23.85-.1.1-.66-.28-.71-.24-.12.09-.02.88-.05.92-.08.09-2.01,1.05-2.16,1.09-.59.13-.76-.41-.89-.32-.06.05.13.58-.35.46-1.2-.29-2.03-2.28-2.35-3.39-.81-2.81-.14-6.02,1.82-8.24,3.67-4.16,6.87-4.14,7.56-11.21s-.42-11.16,3.21-17.99c.36-.67,1.59-1.47,1.76-1.8.35-.68.61-1.36,1.02-1.94.06-.08,1.11-1.19,1.18-1.24.23-.17.42.14.48.12-.06.18-.42.62-.12.72.21-.12.22-.49.36-.72.3-.07.33-.32.48-.48ZM24.77,1.16c-.21-.23-.65.39-.83.39-.12,0-.33-.23-.53-.29-.25-.07-.41.13-.44.13-.28-.06.34-.62,0-.71-.33.46-.59.38-1.08.24.63.84-.63.19-1.47.5-.52.19-1.48,1.47-1.62,1.53-.37.17-.88-.64-.73.6l-.47.23c1.67-.98,3.57-.65,5.26-1.07.4-.1,2.52-.89,1.91-1.56ZM25.37,1.88v.24l.12-.12-.12-.12ZM27.35,2.91l-2.34-.07,2.99,1.19c1.18-.29-.55-.73-.65-1.12ZM29.7,5.8c-1.66-1.26-6.33-2.27-8.28-1.65-.5.16-2.89,1.78-3.32,2.18-.92.84-3.64,4.2-4.1,5.22-2.73,6.02-1.78,13.35-3.68,19.53-.04.13-1.05,1.78-1.24,2.09-2.07,3.26-5.46,6.68-6.63,10.33-.04.12-.17,2.37-.15,2.5.04.25.59.33.81.32,3.11-.11,7.22-7.05,10.31-8.54,5-2.42,3.92,1.66,5.02,4.31.39.93,2.15,3.9,2.87,4.54,2.45,2.18,6.05,1.82,8.73,4.48,1.54,1.54,2.1,2.75,2.14,4.96.11,5.32-2.61,6.6-3.64,11.14-.13.57-.48,3.46-.42,3.93.02.15.4.11.45.32.49,1.88.52,2.12,2,3.58l3.28.54c-2.07-5.63,2.16-9.58,4.35-14.19,3.44-7.27,3.31-12.36,1.81-20.08-.43-2.19-1.86-3.86-2.28-5.62-.23-.95-.13-4.67-.3-4.85-.2-.22-1.3.74-.92-.32.74-2.02,5.25-.07,6.59.49,2.14.9,4.23,2.07,6.75,2.36,1.16.14,3-.59,2.89-1.94,0-.11-1.19-1.67-1.29-1.73-1.11-.68-2.14-1.47-3.35-2.23-5.56-3.49-10.23-5.15-13.6-11.55-1.49-2.83-1.7-5.9-3.44-8.52-.29-.44-.99-1.3-1.38-1.6ZM28.96,3.79v.24l.12-.12-.12-.12ZM30.03,4.51c.17-.34-.15-.64-.23-.48-.17.34.15.64.23.48ZM19.04,4.75s.09-.51-.12-.48c-.65.37-.16.75.12.48ZM19.4,4.27v.24l.12-.12-.12-.12ZM29.44,4.27v.24l.12-.12-.12-.12ZM17.03,6.32c.18-.56,1.74-1.2,1.29-1.81-.22-.3-3.5,2.66-3.1,3.59l1.81-1.78ZM30.39,4.51v.24l.12-.12-.12-.12ZM15.1,4.99v.24l.12-.12-.12-.12ZM30.75,4.99c-.34-.17-.64.15-.48.23.34.17.64-.15.48-.23ZM14.73,9.05c.22-.24.27-.93-.23-.96-.06.28-.02,1.24.23.96ZM10.08,30.59v.24l.12-.12-.12-.12ZM48.31,33.94v.24l.12-.12-.12-.12ZM6.25,34.42v.24l.12-.12-.12-.12ZM6.13,34.9c-.69-.08-1.23.56-1.72.97-1.77,1.47-4.11,4.53-3.54,6.92l1.29-3.01c1.55-1.49,2.74-3.17,3.97-4.88ZM1,43.27v.24l.12-.12-.12-.12ZM31.22,54.52c-.76.25-.23,1.03-.29,1.54-.08.63-.14,1.48-.3,2.05-.63,2.24-2.68,5.23-3.37,7.64l.02,2.16c.59-.44.24-1.14.42-1.73,1.18-3.87,4.36-7.26,3.52-11.67ZM40.67,57.15v.24l.12-.12-.12-.12ZM27.05,68.63v.24l.12-.12-.12-.12ZM27.28,69.83v.24l.12-.12-.12-.12ZM27.28,70.55v.24l.12-.12-.12-.12ZM27.52,71.98v.24l.12-.12-.12-.12Z"/>
        <path d="M17.37,2.59c.09-.23-.07-.77.36-.95.36-.16.51.26.35.48-.02.03-.11-.14-.48.48-.08.02-.16-.01-.24,0Z"/>
        <path d="M30.43,21.44c-.62.76-2.44.43-3.1-.17-.2-.18-.13-.52-.24-.63-2.15-2.15-3.78-4.59-3.25-7.86.24-1.49,1.93-1.62,2.98-.86.2.15,2.22,2.88,2.46,3.28.31.52,1.26,2.6,1.37,3.19s.08,2.7-.22,3.06ZM27.97,15.91c-.14-.28-.09-.63-.22-.85-.6-1.02-1.45-1.94-2.38-2.65,0,.71-.56.2-.59.24-.07.08.1,1.95.15,2.17.25,1.04,1.84,4.3,2.7,4.9,2.1,1.48,1.17-2.31.78-3.38-.12-.32-.39-.34-.43-.43Z"/>
        <path d="M17.68,23.81c-1.63-1.91-1.78-6.37-.74-8.6.05-.1.86-1.31.92-1.36.45-.33,2.08,1.06,2.42,1.74,1.01,2.05,1.22,4.76.86,6.92-.13.78-.91,2.25-1.74,2.26-.1,0-1.6-.82-1.72-.95ZM18.99,15.81c-.17-.1-1.08-.1-1.15-.05-.04.03.25.47.2.78-.06.42-.86,1.34-.92,1.97,1.39-.45.47.95.54,1.72.03.35.32.58.4.92s-.05,1.25.01,1.31c.47.47,1.5-.76,1.64-1.15.15-.42.33-3.03.26-3.49-.03-.2-.91-1.95-1-2.01ZM17.49,16.47v.24l.12-.12-.12-.12ZM17.25,19.58v.24l.12-.12-.12-.12ZM19.99,24.13c.16-.35-.08-1.29-.23-.95-.16.35.08,1.29.23.95Z"/>
        <path d="M27.38,23.2c.14.12.58,2.1.47,2.43-.27.84-2.08,1.32-2.72,1.84v-.48c-1.23.54-1.43.27-2.39,0-.17-.05-.06.5-.23.48-.54-.05-1.15-1.02-.92-1.62.29-.78,5.24-3.16,5.79-2.67ZM27.16,24.85c-.16-.13-3.61.72-4.06.85-1.39.4.28.9.95.11-.51,1.64.29.27.54.16.49-.21,1.37.16,2.14-.41.18-.13.49-.66.44-.71Z"/>
      </g>
    </g>
  </g>
</svg>