<?xml version="1.0" encoding="UTF-8"?>
<svg id="Layer_3" data-name="Layer 3" xmlns="http://www.w3.org/2000/svg" viewBox="0 0 55.03 87.74">
  <g id="Ghosts">
    <g id="Layer_41_Image" data-name="Layer 41 Image">
      <g>
        <path d="M49.99,86.77c-1.55.99-3.36.36-4.9.96-.21.08-.04-.54-.23-.48-.17.05-.37.37-.71.38-3.5.04-6.4-1.73-7.98-4.84-2.33-4.59-3.8-10.12-3.62-15.27s3.83-16.39-1.3-19.76c-.62-.41-1.81-.61-2.56-.98-.18-.09-.97-1.13-1.4-.69-.24.25.5,6.07.19,6.99-.31.53-.65,1.04-1.01,1.53-.58.78-2.45,2.21-3.3,2.73-.27.16-.81.58-1.07.71-.67.36-.68-.18-.91-.23-.17-.04.15.63-.23.68-.08.01-1.53.02-1.64.01-4.23-.42-5.4-5.79-4.59-9.33.44-1.93,2.02-3.6,1.7-5.72-.76-5-4.97-9.32-7.6-13.22C4.59,23.96-1.44,15.99.31,7.95,2.44-1.83,11.91-1.91,18.36,4.04c1.39,1.29,2.94,2.77,4.35,4.14,1.31,1.27,4.58,5.39,5.87,5.84.64.22,5.39,1.37,5.99,1.42,3.26.28,9.33-1.65,12.34-.63.38.13,1.17.45,1.35.8.06.12.48,2.36.49,2.57.09,2.07-.81,5.14-2.01,6.83-.25.35-1.37.98-1.3,1.33.03.15,2.11,1.46,2.54,1.87,4.23,4.12,5.37,8.38,5.46,14.17.05,3.15-.3,6.26-1.03,9.39-2.11,9.16-8.44,14.98-6.64,25.74.68,4.09,3.05,6.02,7.23,4.03.33-.16,1.76-1.59,1.97-.61.02.07.09,1.48.03,1.53-.08.06-.52-.04-.72,0,.1.47.64,0,.48.82-.32,1.59-3.09,2.97-4.54,3.48.1-.54-.22-.01-.24,0ZM9.84,1.09c-.88.25-2.91.15-3.63.48-.4.19-3.31,2.64-3.54,3.05-.16.3-1.44,3.34-1.42,3.53,0,.08.39.43.46.35.06-.06.29-1.12.62-1.65,1.21-1.93,3.12-3.12,4.83-4.49l2.67-1.27ZM11.63,1.32v.24l.12-.12-.12-.12ZM11.99,2.76c-.62-.21-1.76-.51-2.15.23l2.15-.23ZM9.6,2.76c-.63-.08-1.2.09-1.43.71.53.03,1.23-.18,1.43-.71ZM7.93,3.48c-1.43.28-2.24,1.64-3.18,2.56-.27.26-.85.35-1.26.88-.92,1.21-1.51,3.16-1.53,4.69l1.91-3.7L7.93,3.48ZM42.1,28.85c-1.1-.4-.87-1.1-1.18-1.33-.15-.11-.48.17-.66.07-.21-.12-1.1-.9-1.15-1.11-.03-.13.1-.72.13-.74.55-.37.77.45.82.45.75-.03,4.29-.64,4.44-1.53.16-.96-.96-.17-1.32-.15-.19,0-1.24-.14-1.28-.23-.07-.13-.06-.87-.02-.92.16-.18,3.38-.23,4.27-1.85.11-.2.31-3.27.26-3.53-.23-1.27-3.23-1.71-4.18-1.53-.14.03-1.83,1.09-1.95,1.13-3.3.96-11.35-1.22-14.06-3.34-1.15-.9-2-2.32-3.19-3.33s-2.53-1.69-3.75-2.65c-2.01-1.57-2.7-3.02-5.6-3.93-.44-.14-.84.14-1.06.1-.18-.04-.15-.4-.27-.42-.95-.2-2.86.27-3.74.76-1.17.65-3.8,3.34-4.37,4.48-.27.55-.31,1.55-.61,2-.25.37-.01-.48-.36.61-.77,2.45-1.02,2.92.04,5.44.53,1.27,1.89,4,2.6,5.3,2.8,5.14,8.71,9.19,11.02,14.56.12.29.47.25.53.47.71,2.28.21,4.26.24,6.41.02,1.3.35,2.77.27,4.07-.17,2.65-2.37,7.18,2.33,6.65,1.79-.2,3.14-2.81,3.79-4.34.46-1.08,1.46-5.1,2.15-5.5,2.49-1.45,7.23.24,8.69,2.7,2.98,5.02,1.53,11.36,1.67,16.76.12,4.93,1.36,12.83,4.31,16.75,1.01,1.35,3.49,4.07,5.12,4.32.11.02,1.17-.02,1.08-.36-5.86-3.17-5.25-13.28-4.24-18.97,1.65-9.32,8.52-14.77,8.22-25.23-.1-3.36-2.6-8.36-5.53-10.15-.45-.28-3.03-.97-3.18-1.23-.06-.1.25-.31-.05-.68-.14-.18-.32-.45-.24,0ZM2.07,11.86v.24l.12-.12-.12-.12ZM47.6,17.12l-.83-1.43c-.48.48-.42.18-.08.51.31.3.58.71.92.92ZM41.75,27.41v.24l.12-.12-.12-.12ZM45.57,29.09v.24l.12-.12-.12-.12ZM46.64,29.57c-.5-.52-1.36.02-.12.47.21.03.14-.46.12-.47ZM49.27,32.2c.23-.69-2.28-2.53-2.39-2.39-.49.63,1.23,1.14,1.6,1.51s.05,1.06.79.89ZM49.39,32.44v.24l.12-.12-.12-.12ZM12.11,32.92v.24l.12-.12-.12-.12ZM13.9,34.6s-.79-.38-.95-.36c.09.5,1.31.74.95.36ZM14.14,35.79c.17-.37-.12-.97-.23-.72-.17.37.12.97.23.72ZM16.29,38.9c-.65-2.8-3.35-5.03-.59-.47.18.3-.05.61.59.47ZM16.06,39.14c-.14.28.15.55.36.71.1-.24-.24-.94-.36-.71ZM28.36,45.84v.24l.12-.12-.12-.12ZM29.56,45.84v.24l.12-.12-.12-.12ZM30.51,45.85c-.36,0-.36.71,0,.71s.36-.71,0-.71ZM31.43,46.47l-.21.11,1.8,1.66c-.04-1.1-.86-1.3-1.59-1.77ZM26.33,48.48c.17-.37-.12-.97-.23-.72-.17.37.12.97.23.72ZM24.58,53.91c.38-.57,1.52-3.6,1.6-4.28.05-.39.24-.6-.21-.91-.57,1.08-.77,2.4-1.31,3.48-.17.35-1.04,1.87-1.22,2.12-.42.58-1.69.65-1.29,1.34.24-.59,1.13-.48,1.32-.62.06-.05,1.07-1.06,1.12-1.13ZM16.05,49.67c.27-.28-.1-.77-.48-.12-.03.21.46.13.48.12ZM16.29,54.22c-.38-1.42-.27-2.85-.36-4.31-.71,1.11-.64,3.43.36,4.31ZM50.7,50.87c.04-.07.13-.75.12-.95-.64.29-.29,1.25-.12.95ZM50.47,52.31s.17-.8.16-.85c-.17-1.47-1.08,1.74-.16.85ZM35.65,53.26l-.71-1.91c.37.46-.15,2.08.71,1.91ZM50.23,52.79c-1.13-.27-.68.68-.98,1.24-2.96,5.43-5.06,9.22-5.7,15.64-.12,1.22-.13,2.49,0,3.71l1.36-6.18c1.68-4.85,3.43-9.64,5.33-14.4ZM19.88,57.33c.34-.32-.27-.52-.47-.62-.75-.36-1.7-.53-2.38-1.19-.39-.39-.31-.95-.73-1.06-.24.35.9,2.26,1.01,2.34s2.48.62,2.57.53ZM20.83,56.86c-.37-.17-.97.12-.71.23.37.17.97-.12.71-.23ZM35.17,57.33c.17-.34-.15-.64-.23-.48-.17.34.15.64.23.48ZM34.46,72.65c-.64-4.92,1.74-9.83.71-14.84l-.5,2.96c-.71,3.07-1.3,7.82-.82,10.99.06.42-.05,1.04.6.88ZM36.13,67.39c-.39-.32-.66.3-.48.71.12.26.51-.68.48-.71ZM36.13,68.34c-.7-.11-.4.16-.49.59-.66,3.14-.27,9.22,1.58,11.84,1.4,2,4.39,4.28,6.8,4.79-.29-.48-.99-.64-1.44-1.07-.52-.5-1.68-1.82-2.14-2.41-2.99-3.85-3.91-8.98-4.31-13.76ZM34.45,72.89c-.34-.17-.64.15-.48.23.34.17.64-.15.48-.23ZM34.45,73.85c.17-.34-.15-.64-.23-.48-.17.34.15.64.23.48ZM43.78,74.57c-.9-.5-.14,1.53,0,1.19.02-.05.05-1.16,0-1.19ZM43.66,76v.24l.12-.12-.12-.12ZM47.02,82.8l-2.28-1.9c.75,1.93,2.48,3.14,4.53,3.47l-2.25-1.57ZM38.42,83.77c-1.21-.87-.41.31.28.85.57.45,1.46,1,2.2,1.08-.42-.13-.84-.9-1-1-.39-.26-.85-.48-1.48-.93ZM52.86,83.42l-.95.36c.36.59.67.16.95-.36ZM47.48,85.34v.24l.12-.12-.12-.12ZM48.2,85.34v.24l.12-.12-.12-.12Z"/>
        <path d="M49.99,86.77s.24.01.24,0c-.02,0-.34.55-.24,0Z"/>
        <path d="M42.1,28.85s.24-.01.24,0c.1.55-.21,0-.24,0Z"/>
        <path d="M11.67,14.09c1.69,2.08,3.33,5.48,3.31,8.2-.03,3.37-3.51,1.22-4.78-.13-1.81-1.92-3.37-5.83-3.19-8.48.3-4.25,3.16-1.44,4.67.41ZM11.14,15.58c-.6-.78-1.33-2.22-2.36-2.3-1.24-.1-.23,1.23-.6,2.16,1.83-.52.94-.16,1.11.92.14.88.71,1.81.33,2.56.73-.2.98,1.28,1.43,1.84,1.96,2.48,3.25,1.93,2.44-1.18-.39-1.49-1.42-2.83-2.33-4.01Z"/>
        <path d="M17.12,8.87c.63.52,1.83,1.54,2.28,2.15,1.04,1.38,2.62,6.62.3,7.26-1.03.29-2.53-1.14-3.04-1.89-.96-1.43-2.3-4.98-2.66-6.67-.82-3.87,1.4-2.25,3.11-.84ZM16.64,10.31c-.32-.29-.54-.74-1.06-.85.28.39.01,1.17.05,1.32.02.08.36,1.05.48,1.38.24.7,1.95,3.7,2.52,3.99,1.75.91.97-1.41.51-2.48-.5-1.17-1.56-2.53-2.49-3.37Z"/>
        <path d="M20.3,26.13c-.08.07-.41-.14-.54.06-.24.39-.18,1.1-.4,1.56-.18.37-.47.15-.58.27-.03.03.15.34.14.35-.05.04-1.28-.16-1.38-.29-.73-.93-.09-3.94.91-4.6.72-.47,2.76-.48,3.31.25,1.47,1.96-.34,1.47-1.01,1.81-.29.15-.32.48-.46.59ZM18.8,24.78v.24l.12-.12-.12-.12Z"/>
      </g>
    </g>
  </g>
</svg>