<?xml version="1.0" encoding="UTF-8"?>
<svg id="Layer_3" data-name="Layer 3" xmlns="http://www.w3.org/2000/svg" viewBox="0 0 50.66 72.54">
  <g id="Ghosts">
    <g id="Layer_37_Image" data-name="Layer 37 Image">
      <g>
        <path d="M29.68,1c4.87,2.54,6.5,9.99,6.41,15.09-.04,2.4-1.43,5.68,1.85,6.89,3.75,1.39,8.59.15,11.42,3.86.76.99,1.39,2.24,1.3,3.52-.2,2.9-2.16,2.59-4.22,3.33-.49.18-2.37,1.27-2.74,1.36-.25.06-2.45.29-2.58.25-.2-.06-.01-.51-.23-.43-.41.15-.45.98-.71,0-.42.46-1.51.45-2.12.39-.92-.1-2.77-.82-3.66-.79-.13,0-1.92.24-2,.3-.07.05-1.1,1.15-1.14,1.23-.42.82-.53,6.18-.23,7.08s1.86,2.03,2.44,2.82c3.86,5.24,4.82,10.72,3.43,17.02-.48,2.18-2.5,5.15-4.31,6.57-.11.09-.49-.09-.72.06-1.29.86-3.02,2.12-4.5,2.75-.57.24-2.96.3-3.68.24-2.1-.18-2.27-.58-3.76-1.69-1.04-.78-1.32-1.37-2.33-2.41-.15-.16-.12-.6-.3-.73-.06-.04-1.26-.14-.66-.76.09-.1.98.1,1.2,0,.04-.02-.29-.9.13-.96.71-.1.8,1.14,2.08.92.56-.09,5.24-2.09,5.6-2.42,1.06-.98,1.66-5.19.75-6.35-.03-.04-.33.11-.43.04-2.28-1.61-3.28-1.01-5.57-1.52-.33-.07-3.44-2.62-3.77-3.04-1.23-1.59-1.8-3.91-1.91-5.92-.16-2.92.92-8.2.08-10.6-.19-.53-.8-.57-1.03-.69-.18-.09-.21-.5-.27-.53-.09-.04-.51.21-.8.2-.32,0-.65-.21-.93-.17-.64.09-1,.98-1.17,1.07-.27.14-.73-.03-.87.1-.11.1.11.56-.18.69-.25.11-.82.03-1.19.19-.29.13-.33.39-.46.44-.69.25-3.68.75-4.29.69-1.08-.1-2.65-1.83-3.08-2.78-2.48-5.53,4.37-7.69,7.39-10.26,1.52-1.29,6.1-7.13,6.3-9,.08-.8-.18-1.54-.12-2.09C14.83,8.15,17.62-.54,25.89.03c1.15.08,2.77.44,3.79.97ZM29.53,3.05c.39-.36-.34-.51-.48-.6-1.84-1.2-3.62-1.15-5.73-.83.38.69,1.57.37,2.25.5.63.12,3.81,1.07,3.96.93ZM22.84,2.34c.17-.34-.15-.64-.23-.48-.17.34.15.64.23.48ZM29.89,2.82v.24l.12-.12-.12-.12ZM30.62,5.32c-.77-.5-1.01-.9-2.03-1.2s-4.25-.53-5.4-.57c-.11,0-.07.43-.26.46-1.61.31-1.01.32-2.23.81-.23.09-.66-.17-.72-.1s.08.51-.05.66c-.16.18-.8.08-1.1.36-.07.07-.95,1.39-1.11,1.64-.15.22-.11.66-.14.69-.02.02-.45-.27-.47-.24-.07.09-.22,1.71-.3,2.04-.03.13-.34.08-.36.23-.08.41-.4,3.56-.29,3.71.01.02.31-.25.47-.13-.46.72-.14,1.62-.24,2.4-.18,1.44-.85,2.71-1.16,4.09-.12.53-.02,1.56-.05,1.66-.02.07-1.22.13-1.06-.36-1.56,1.94-2.69,3.99-4.42,5.86-.74.8-.43.67-.51.79-.76,1.07-4.47,1.93-5.9,4.5-.58,1.05-.5,4.01.6,4.38.55.19,3.09-.29,3.74-.51,2.39-.83,5.02-4,7.59-3.19,1.87.59,2.65,3.75,2.6,5.51-.12,4.05-2.83,7.95-.89,12.15s5.99,3.38,9.58,4.01c.19.03.14.44.27.44.19,0,.46-.27.9-.17.29.07,1.03.67,1.25.93,1.43,1.74.83,5.07-.15,6.87-.03.06-.37-.11-.39-.07-.03.06.08.83-.35,1.25-.29.28-1.07.36-1.39.88-.28.48-.12.9-.29,1.26-.05.11-1.68,1.45-1.79,1.52-1.15.76-2.8.77-3.97.7-.14,0-.22-.77-.86-.47,3.38,3.91,10.24.74,13.01-2.4.26-.29,2.12-2.75,2.27-3.05.85-1.69.71-2.82.43-4.67-1.02-6.76-5.85-10.11-6.61-16.54.8-2.9-.92-6.17,1.67-8.38,2.17-1.85,7.11-.93,9.88-.6.48.06.85.41,1.44.47.55.06,2.67.09,3.08-.04.96-.32.32-3.41-.56-4.19-.33-.29-.67-.1-.69-.13-.12-.16-.02-.59-.26-.8-.29-.26-4.94-.85-5.98-1.21-.15-.05-1.42-.54-1.49-.58-.5-.27-2.11-1.84-2.32-2.34-1.05-2.45.43-6.39.66-9.05.36-4.23-.01-6.94-3.66-9.31ZM35.5,23.63s-.5-.09-.47.11c.23.04,1.2,1.36,1.43,1.08.14-.17,0-.81-.39-.9-.14-.03-.44.2-.53.13-.09-.07,0-.38-.04-.41ZM38.85,25.31c-.08-.08-2.07-.8-2.15-.72-.69.66,3.05,1.63,2.15.72ZM43.57,25.63c-.51-.09-3.1-.15-3.83-.17-.33-.01-.53-.18-.66.33,3.67.22,8.16,1.8,7.28,6.22,1.12-.39,1.01-1.88.73-2.88-.04-.15-1.52-2.44-1.63-2.56-.23-.25-1.32-.49-1.72-.62-.14-.04-.14-.31-.18-.32ZM46.85,26.26v.24l.12-.12-.12-.12ZM47.68,26.5s-.48-.09-.48.12c.02,1.17,1.52,2.15,1.15,4.49-.05.31-.9,1.28-.07,1.13,1.13-.2,1.64-2.67,1.19-3.36-.18-.28-.95-.1-.36-.84-.83.25-.32-.35-.47-.59-.01-.02-.36.24-.43.2-.18-.11-.46-1.09-.53-1.15ZM3.6,29.95c-.04.06-.54.72-.11.5l.71-1.08c-.19,0-.51.44-.61.58ZM2.54,31.52c.13-.26.61-.47.48-.96-.26.1-.48.47-.71.72-.82.87-1.19,1.55-1.19,2.87.61.11.43-.1.58-.48.3-.74.47-1.37.85-2.15ZM34.31,32.96c-.3-.14-1.38-.02-1.43.47.3-.02,1.78-.31,1.43-.47ZM35.15,32.96v.24l.12-.12-.12-.12ZM36.34,32.96v.24l.12-.12-.12-.12ZM1.34,34.87c.17-.34-.15-.64-.23-.48-.17.34.15.64.23.48ZM13.89,34.87v.24l.12-.12-.12-.12ZM14.96,34.88c-1.15-.68.35,1.87.72,1.43.14-.16-.65-1.39-.72-1.43ZM15.91,37.02c.17-.34-.15-.64-.23-.48-.17.34.15.64.23.48ZM30.85,44.44v.24l.12-.12-.12-.12ZM32.64,47.31c-.23-.53-.22-1.04-.9-1.85-1.59-1.86,0,1.49.48,1.8.17.11.33.02.42.05.8,1.84,1.83,2.99,2.75,4.78-.08-1.92-1.36-3.1-2.08-4.74-.19-.14-.51,0-.67-.04ZM24.16,55.68v.24l.12-.12-.12-.12ZM24.63,55.69c-.24.17.13.33.24.47.24-.16-.11-.32-.24-.47ZM26.55,55.92v.24l.12-.12-.12-.12ZM27.5,56.16v.24l.12-.12-.12-.12ZM27.38,57.36s-.5-.09-.47.11l.95,2.03c.14-.45-.19-1.91-.48-2.15ZM27.74,59.75v.24l.12-.12-.12-.12ZM28.81,60.95c.16-.35-.08-1.29-.23-.95-.16.35.08,1.29.23.95ZM28.46,61.19v.24l.12-.12-.12-.12ZM33.95,66.22c-.54.36-.3.69,0,.23.08-.12.19-.13,0-.23ZM33.24,66.93c-.54.36-.3.69,0,.23.08-.12.19-.13,0-.23ZM32.28,67.88v.24l.12-.12-.12-.12ZM31.8,68.12v.24l.12-.12-.12-.12Z"/>
        <path d="M2.54,31.52l-.24-.24.24.24Z"/>
        <path d="M23.74,15.7c-.14.13-.5.13-.73.28-.16.1-.15.45-.34.48-2.65.52-3.37-3.68-3.16-5.61.08-.74.72-3.39,1.16-3.85.32-.34,1-.61,1.45-.49s1.98,2.83,2.09,3.43c.06.32.2,3,.18,3.3-.01.15-.56,2.38-.66,2.46ZM21.17,8.32c-.73.63-.05,6.69,1.31,6.46.4-.07.12-2.3.37-2.75.19-.69-.71-4.55-1.68-3.71Z"/>
        <path d="M29.94,6.96c.69.72,1.45,4,1.42,5.03-.01.33-.38,2.76-.45,2.97-.03.09-1.18.93-1.17,1.44-.85.13-1.62-.59-2-1.38-.17-.36-1.11-4.19-1.09-4.41.01-.14.51-.1.51-.25,0-.33-.38-.52-.4-.72-.01-.11.56-2.06.61-2.16.55-.96,1.72-1.41,2.57-.52ZM29.05,7.84c-.88.68-.84,2.66-.82,3.71.08,4.21,1.91,4.38,1.79.23-.04-1.41-.62-2.61-.97-3.94Z"/>
        <path d="M27.02,18.26c.51.68.51,1.57.13,2.39-.29.63-1.32,1.26-1.92.95-2.09-1.08-.28-6.12,1.79-3.34ZM25.71,20.28c.6-.2.91-.99.35-1.43l-.35,1.43Z"/>
      </g>
    </g>
  </g>
</svg>