<?xml version="1.0" encoding="UTF-8"?>
<svg id="Layer_2" data-name="Layer 2" xmlns="http://www.w3.org/2000/svg" viewBox="0 0 100 123.04">
  <defs>
    <style>
      .cls-1 {
        fill: #fff;
      }
    </style>
  </defs>
  <g id="Sketchy_Icons" data-name="Sketchy Icons">
    <g>
      <path class="cls-1" d="M60.67,116.86c-1.13.88-2.11,2.36-3.86,2.57-.33.04-.22-1.06-.48-1.03-.86.08-3.43,1.27-4.89,1.04l1.02.76c-1.59.2-1.91,2.71-2.06,2.83-.17.13-1.85-.42-1.96-.6-.42-.69,0-4.49-1.08-6.36-.79-1.36-4.24-4-5.47-5.55-6.19-7.81-11.02-18.57-17.41-26.97-3.32-4.36-7.89-8-11.27-12.34C2.47,57.39-6,34.05,5.5,18.54c1.55-2.09,6.76-5.25,7.52-6.58,1.67-2.91,1.78-5.61,4.84-8.54.17-.16,3.51-2.12,3.85-2.27,2.43-1,6.32-1.66,8.81-.66.51.2,3.69,2.02,4.28,2.43,5.93,4.01,11.3,13.98,14.44,20.95.39.86.64,1.73.66,2.67.9-.2.81-1.59,1.52-2.37.53-.58,1.42-.28,1.45-.42.04-.17-.45-.88-.07-1.68.1-.21,2.63-3.32,2.88-3.58,2.55-2.68,15.26-11.26,18.54-12.2,2-.57,12.24-1.63,13.76-.8.43.24.18,1.14.6,1.05.55-.12.09-.79.26-1.03.39-.55.57.89.86,1.07.63.39,3.44.92,4.27,1.69,9.26,8.49,6.18,37.39,1.53,48.04-.02.05-1.17.72,0,.51-3.8,15.41-15.29,39.09-24.59,51.69-.51.7-.69,2.16-1.18,2.56-.12.1-2.83,1.28-2.93,1.16-.12-.13-.16-2.5-1.54-2.57-.16,2.56-2.2,5.5-4.11,7.18.21-1.16-.47-.03-.51,0ZM34.19,5.33c-.38-.29-.52-.98-1.01-1.27-2.37-1.4-6.35-2.83-9.04-2.1-.38.1-.39.74-.56.81-3.03,1.16-3.56,1.16-5.47,3.49-5.5,6.74-3.37,4.29,1.83,3.85,1.12-.09,5.7.13,6.7.45.56.18,2.06,1.76,2.69,2.06,4.82,2.28,8.83,3.66,12.89,7.51.67.64,4.87,6.61,5.63,5.9-2.42-4.28-3.97-9-6.55-13.21-.5-.81-1.44-1.09-1.53-1.27-.35-.67.02-1.7-.13-1.94-.03-.05-.8.52-.94.43-.21-.13-2.05-3.23-2.63-3.79-.65-.62-1.39-.55-1.88-.93ZM94.3,11.36c-.19-.25-1.69-1.75-1.92-1.92-.32-.24-5.52-2.82-5.84-2.89-.37-.09-.17.81-.33.91-.2.12-.79-.58-.93-.39-.47.59,3.01,4.55,3.35,5.62,4.89,15.16,6.55,22.83,1.67,37.65-4.28,12.99-11.75,27.11-16.77,39.24-.58,1.41-1.58,3.45-1.99,4.57-.26.72.03,1.95-.11,2.2-.04.07-.97-.55-1.01-.52-.43.31-.36,3.11-.61,3.78-.16.42-.66.98-1.21,2.34-.64,1.6-3.17,5.39-1.26,7.23.87.84,2.56-3.35,3.56-3.47,13.12-22.75,27.84-50.83,27.5-77.8-.05-4.24-1.53-13.19-4.09-16.53ZM82.5,8.28c-1.71-.84-3.92-.23-5.68.34-.66.21-.95-.45-.78,1.01.97-.02,3.99,1.15,4.76,1.65.92.6,5.57,5.49,6.52,4.5,1.23-1.29-3.29-6.76-4.82-7.5ZM77.07,11.68c-1.73-1.38-11.49.69-11.28,4.1,1.65-.98,4.76-2.42,6.62-2.86.57-.14,6.22.01,4.66-1.24ZM20.21,14.69c-.16-.14.06-.8-.05-.96-.39-.61-.53.85-.59.89-.23.14-2.5.29-2.9.44-1.13.41-1.02.93-1.25,1.07-.21.13-.61-.44-.91-.06-1.56,1.94-1.55,6.06-1.51,8.44,5.8-3.75,12.49-6.05,19.47-4.62-.13-3.66-2.93-4.42-5.74-5.28-.63-.19-.97-.79-1.18-.87-.46-.18-.07.85-.49.94-.27.06-2.36-.4-3.09-.41-.6,0-1.68.49-1.76.43ZM54.51,53.24c-.48,1.62.26,10.24.22,12.75-.04,2.05.27,5.63-1.76,3.29-1.03-10-.13-20.17-3.09-29.89-1.11.45-.94,2.45-1.31,3.55-.14.43-.96.81-1.14,1.42-.63,2.12,1.06,3.24-1.64,3.23-.15-.26,1.01-5.21,1.23-5.94s1.57-2.29,1.81-4.64c.1-.98-.37-3.83-1.51-2.77-.48.45-.16,4.13-2.04,3.32,1.41,1.78-.35,1.7-.5,2.19-.31,1.02-.83,6.07-1.06,6.29s-1.52-.6-2.04-.51c-.42,1.77.99.44,1.02.51.09.22-.09,3.83.06,4.83.27,1.9,1.2,3.75.97,5.95-1.06.34-2.23-2.43-2.41-2.97-.73-2.32-.83-5.35-1.43-7.79-1.12,1.54-1.31,3.64-1.95,5.36-.11.29-.86.23-.89.61-.04.54.59,1.25.29,1.75-.17.28-1.01.32-1.19.56-.13.17.43,3.44.42,4.26,0,.6.36,1.94-.52,1.82-.33-1.67-.67-4.23-.56-5.88.12-1.78,1.22-3.34,1.53-4.26.72-2.16,2.67-6.66,2.63-8.55-.06-2.89-2.04-9.49-2.85-12.6-.4-1.51-.46-1.22-.71-1.93-.41-1.18-.26-2.37-.89-3.67-1.59-3.27-8.8-1.06-11.76-1.94-1.05,2.35-1.9.65-3.37,1.14-.3.1-3.09,1.34-3.5,1.53-.72.34-2.79,2.69-2.86,3.56-.05.63.8,5.64,1.03,6.61,3.76,16.48,12.2,29.9,23.02,42.75l23.4,22.75c.71-1.37,1.27-3.08,2.04-4.38,12.72-21.37,28.51-46.98,22-73.3-1.27-5.12-3.51-8.8-9.35-7.85-.64.1-2.04,1.22-2.38.86-.08-.08.12-2.91-1.02-1.54-.11.13.2,1.08-.09,1.41-.11.12-2.55,1.18-2.97,1.35-2.23.89-4.97,1.52-7.29,3.41-1.24,1-4.01,4-4.84,5.3s-.74,4.57-2.73,4.17c1.14,1.23-.36,2.09-.5,3.12-.45,3.27,2.29,8.62,3.08,12.31.91,4.26,1.26,12.53.78,16.84-.1.93-.76,5.74-1.59,3.93-.96-2.08.12-13.27-.76-14.38-.94-1.19-.98,1.32-1.02,1.54-.02.11-.39.24,0,.51ZM11.96,15.78s.2-1.09-.25-1.02c-1.4.8-.34,1.6.25,1.02ZM59.9,16.81v.51l.26-.26-.26-.26ZM34.27,17.32v.51l.26-.26-.26-.26ZM85.98,18.12c-.23-.19-.15-1.41-.72-.53l1.83,4.84,1.26,6.69c.22-4.23,1.19-8.13-2.36-11ZM8.12,18.35v.51l.26-.26-.26-.26ZM38.33,20.2c-.55-.63-2.34-2.69-3.29-1.85-.95.85,3.57,3.53,4.1,3.07.91-.79-.65-1.04-.81-1.22ZM58.87,18.35v.51l.26-.26-.26-.26ZM8.37,33.22c-.25-2.72,2.82-5.39,3.39-6.92.1-.27.27-5.16.25-5.65-.24-5.73-4.71,4.4-4.97,6.4l1.33,6.17ZM58.09,20.9c.06-.05.23-1.5-.24-1.53l-1.79,3.07c.98.17.21-1.05.59-1.47.26-.28,1.31.05,1.44-.08ZM20.67,76.33c-2.68-7.17-6.23-14.03-8.73-21.28-3.02-8.78-5.66-18.5-6.68-27.72l1.83-7.45c-1.2,1.94-3.84,3.92-3.58,6.15-5.74,18.36,3.33,32.11,13.52,45.99,1.07,1.46.53.99,1.59,2.05.72.72,1,1.91,2.05,2.26ZM55.53,22.96c.37-.72-.32-1.37-.5-1.02-.37.72.32,1.37.5,1.02ZM43.23,39.9c.15-.22-.49-1.29-.3-2.07.41-1.64,4.42-4.81,3.81-7.28s-7.57-8.78-9.66-7.06c-.16.13.73.95.88,1.42,1.47,4.63,2.93,10.16,3.22,15,.62-.67,1.98.08,2.04,0ZM90.66,25.02v.51l.26-.26-.26-.26ZM91.42,27.06l-1.02-1.02c-.15,1.07-.05,1.17,1.02,1.02ZM90.14,27.58v.51l.26-.26-.26-.26ZM86.8,54.77c3.3-8.87,5.87-17.62,4.62-27.19-.68.36-1.32,2.78-1.42,3.45-.78,5.34-1.02,9.92-2.13,15.3-.33,1.6.71,3.52-1.05,2.28v6.16ZM51.95,29.63c.57.47,2.3-.85.77-1.53-.1-.05-.83,1.48-.77,1.53ZM22.43,59.2c-3.78-6.9-7.54-16.66-9.29-24.32-.37-1.63-.56-3.57-.66-5.24-4.51,2.73-2.52,11.33-.97,15.5,4.76,12.79,18.6,37.47,28.17,47.88,3.45,3.75,8.25,6.69,11.53,9.99.76.76,4.58,6.38,5.37,5.66.07-.07.06-1.28.41-1.89,1.01-1.77,3.46-4.27,2.42-6.32-1.9-1.12-2.93-2.87-4.41-4.3-12.14-11.79-24.07-21.44-32.55-36.94ZM88.09,30.15v.51l.26-.26-.26-.26ZM50.16,37.84v.51l.26-.26-.26-.26ZM42.2,45.02l.51-3.58c-.78.03-1.56,3.55-.51,3.58ZM55.53,50.67c.34-.76-.18-2.76-.5-2.05-.34.76.18,2.76.5,2.05ZM13.76,55.29v.51l.26-.26-.26-.26ZM85.78,57.34c.37-.72-.32-1.37-.5-1.02-.37.72.32,1.37.5,1.02ZM14.78,57.34v.51l.26-.26-.26-.26ZM16.58,59.9l-1.02-1.02c-.15,1.07-.05,1.17,1.02,1.02ZM16.57,60.42l-1.01.25c4.13,7.1,6.59,15.2,11.37,21.98,2.89,4.09,7.66,7.5,10.67,11.64-.42-2.23-3.1-4.03-4.41-5.87-2.29-3.22-3.98-7.01-6.54-10.1l-10.08-17.89ZM70.15,87.62v.51l.26-.26-.26-.26ZM69.37,90.18l-6.32,10.35c-1.3.78,1.25,3.48,1.46,3.5.96.07,3.89-10.52,5.17-11.78l-.31-2.06ZM31.7,90.7v.51l.26-.26-.26-.26ZM33.45,92.28c-.05-.06-1.44-.62-1.48-.56-.35.47,2.91,4.54,3.5,5.47,2.5,3.87,5.44,9.31,8.45,12.81.59.69,2.48,2.53,3.42,2.76-1.62-1.57-1.86-5.1-3.57-6.52-1.94-3.65-4.97-8.21-7.89-11.24-.59-.61-2.68-1.62-2.8-1.81-.09-.14.44-.82.38-.89ZM39.54,95.43c-.05-.05-1.22-.62-1.42-.37l1.79,1.79c.24-.2-.32-1.36-.37-1.42ZM43.09,98.02c-.39-.37-1.75-.36-2.16-1.16-.78.15-.26,2.42-.16,2.49.21.16,1.05-.04,1.26.21.86,1,1.26,2.43,2.53,3.07l5.31,12.83c2.15,2.93,4.87-3.81,4.39-5.24-.08-.23-2.39-3.74-2.67-4.07-1.66-1.99-5.53-4.4-7.57-6.26-.5-.46-.48-1.44-.94-1.87ZM34.78,97.37v.51l.26-.26-.26-.26ZM61.19,103.53c-.35.24-3.96,7.1-4,7.52-.07.78,1.27,2.73,1.68,2.73.46,0,4.65-5.88,4.8-6.52.25-1.06-1.51-4.4-2.48-3.73ZM58.61,115.83c-.93.78-1.63-1.8-2.36-1.99-2.09-.56-2.67,3.32-1.42,3.57.67.14,6.19-1.25,3.79-2.6-.06.29.08.94,0,1.02Z"/>
      <path class="cls-1" d="M60.67,116.86s.51.03.51,0c-.08.07-.72,1.15-.51,0Z"/>
      <path class="cls-1" d="M95.53,56.83s-.03-.51,0-.51c1.18-.21.01.46,0,.51Z"/>
      <path class="cls-1" d="M54.51,53.24v-.51c.99.37.06.31,0,.51Z"/>
      <path class="cls-1" d="M45.29,52.21c.05-1.14-.33-3.58,1.02-4.1-.51,1.29.61,3.46-1.02,4.1Z"/>
    </g>
  </g>
</svg>