<?xml version="1.0" encoding="UTF-8"?>
<svg id="Layer_3" data-name="Layer 3" xmlns="http://www.w3.org/2000/svg" viewBox="0 0 100 99.48">
  <defs>
    <style>
      .cls-1 {
        fill: #fff;
      }
    </style>
  </defs>
  <g id="Sketchy_Icons" data-name="Sketchy Icons">
    <g>
      <path class="cls-1" d="M48.13,90.57c-1.49-1.32-3.36-4.56-4.64-5.84-3.57-3.54-9.02-6.02-12.64-9.8-10.92-11.39-17.61-28.93-25.02-42.54C2.14,25.64-3.37,15.6,2.74,8.51c1.35-1.56,3.85-1.89,5.48-3.01,1.02-.7,2.16-2.94,3.31-3.66C15.17-.43,20.81-.39,24.79.84c7.21,2.22,18.92,12.18,23.83,18.16.91,1.11,2.76,5.05,3,5.23.77.58,1.59-3.09,1.79-3.46,4.03-7.51,16.51-15.3,24.8-17.56,5.59-1.52,11.7-2.74,16.9.6,1.08.69,4.52,5.33,4.8,6.32.31,1.1-.33,1.93-.26,2.82.63,7.93-.98,9.9-4.09,16.67-5.39,11.75-11.27,21.26-17.12,32.16-.32.59-.33,1.78-.4,1.85-.05.05-.93-.55-.98-.5-.09.07-.27,1.62-.61,2.17-.66,1.08-1.82.94-1.4,3.32-1.24-1.27-1.7,1.82-2.57,3.16-1.11,1.71-2.54,3.37-3.56,4.94-1.37,2.1-5.87,8.27-6.47,10.03-.37,1.09,1.18,2.28.63,2.82-.14.14-1.34-.15-1.49,0-.4.41.68,2.83.49,2.98-.19.16-1.43-.24-1.92.07-.73.46-1.15,9.12-3.31,3.43-2.41,1.09-1.44,2.44-1.83,2.9-1.37,1.63-3.53-1.08-.93-.64-1.05-.81.05-2.76-.24-3.29-.13-.24-.94-.36-1.28-.82-.31-.42-.27-1.31-.53-1.56-.08-.09-2.02.31-2.39-.12-.52-.6.96-1.29-1.04-1.95-.05-.02-.7-1.14-.5,0ZM31.46,6.5C26.43,3.68,19.29.65,13.71,3.03c-6.19,2.64.48,2.56,2.52,3.08,6.04,1.53,18.36,4.63,22.04,8.49,1.16,1.22,6.61,2.21,6.87,5.15,2.05-1.2.34-.79-.26-1.48-3.37-3.86-8.95-9.25-13.43-11.76ZM93.38,4.89c-.43-.19-1.13.26-1.76.06-4.04-1.28-8.78-1.95-12.15.72l-4.41.1c.18,2.91-.51.49-1.49.73-1.27.32-2.63,2.31-3.11,2.61-.21.13-1.7-.15-2.53.26-.38.18-6.13,4.08-6.58,4.55-.12.12.19.75.02.77-.26.04-.74-.59-1.56.01-.22.16-2.38,3.27-2.86,3.85-1.54,1.86-3.82,2.61-3.82,5.68,9.24-5.87,18.49-11.59,29.23-13.91,8.19,1.38,13.9-3.7,13.15,8.17-.37,5.83-3.65,11.03-4.73,16.71,4.34-7.63,10.91-20.06,4.74-28.17-.13-.17-1.99-2.07-2.13-2.13ZM78.8,4.28v.5l.25-.25-.25-.25ZM15.15,7.39c-1.85.66-2.58-.84-4.63-.08-1.88.69-1.49,1.64-1.87,1.9-.12.08-.88-.49-.92-.43-.24.36.15,3.98-.1,4.77-.11.33-2.06.24.05.93-1.53,11.05,1.92,23.71,10.51,31.21l-4.72-11.48c-1.9-8.62-6.5-21.13,4.72-25.18-.99.03-1.32-1.6-1.51-1.74-.37-.29-1.61,2.16-1.55.11ZM7.23,31.21c-.66-3.95-1.84-8.22-1.94-12.22-.09-3.71.74-7.54,1.2-11.21-7.56,4.73-4.24,12.82-1.95,19.4l2.69,4.04ZM24.52,10.95c-1.92-.71-7.43.11-9,1.27-.43.32-.21,1-.47,1.34-.38.48-1,.48-1.39,1.37-.48,1.1-.19,2.55-.93,3.57,1.73-.58,2.19-2.82,3.46-4.02,2.38-2.25,6.4-2.91,9.5-2.23.02-.3-1.08-1.28-1.16-1.31ZM93.51,19.24c.39-4.28,1.16-7.68-4.48-7.47.15,2.24,2.87,3.02,3.37,3.6.75.88.07,3.34,1.11,3.87ZM80.04,13.75c.36-.7-.31-1.33-.49-.99-.36.7.31,1.33.49.99ZM22.86,14.07c-.22-.12-.18-.85-.4-.82-.26.04-4.45,2.04-4.74,2.25-.93.68-2.11,2.51-2,3.73,1.58-.42,1.77-1.77,3.13-2.6,1.59-.97,3.68-.98,4.85-1.63,1.42-.79-.3-.65-.84-.93ZM88.52,14.26c-.12-.13-2.71-1-3.19-.99-1.89.06-10.43,4.31-12.4,5.48-.33.19-.4.81-.73,1.01-.62.37-3.13.36-3.12,2.47,5.69-3.31,13.02-4.04,18.74-6.94.4-.2,1.52-.16.7-1.04ZM76.43,15.63c.29-.2.82-1.62.62-1.87-.09-.11-1.65,1.1-2.48,1.29-.64.14-1.46-.36-1.51-.3-.16.22.16,1.32,0,1.51-.12.14-1-.43-1.5-.22-3.08,1.29-6.07,3.55-8.6,4.81-.65.33-2.74.35-2.81.48-.16.27.11,1.08-.12,1.31-.26.26-1.35.03-1.9.36-1.23.74-2.82,2.69-4.42,3.31l1.41,3.9c6-5.47,12.51-9.98,19.5-14.18.51-.31,1.41-.13,1.81-.4ZM78.55,13.76c-1.04-.14-1.14-.05-.99.99l.99-.99ZM26.18,14.26c-.77-.35-2.03.24-1.49.49.77.35,2.03-.24,1.49-.49ZM26.93,14.26v.5l.25-.25-.25-.25ZM36.16,14.76c-.7-.36-1.33.31-.99.49.7.36,1.33-.31.99-.49ZM26.8,17.11c-.16-.1-.07-.92-.35-.86-.25.05-.75.74-1.23.79-2.15.23-2.56-.34-4.95,1.02-4.71,2.66-4.97,7.94-4,12.86,3.26,16.65,23.99,39.22,37.25,49.15.52.39,2.98,2.08,3.31,2.01.57-.13,5.9-8.34,6.79-9.58,8.93-12.29,23.13-33,25.61-48.21.86-5.3-.22-6.23-5.45-5.11-.28.06-2.35,1.36-2.64,1.5-7.13,3.49-22.76,12.56-25.31,19.97-.31.91-.1,2.04-.45,3.03-.53,1.46-.97-1.39-2.25-.5-.24.17,2.06,4.79-.99,4.98-.61-.44-1.23-12.23-2.87-14.82-1.65-2.6-.17,2.91-2.12,3.35,1.04-1.76-.4-1.47-.43-1.74-.17-1.28,1.27-3.03.83-4.86-.35-1.44-3.01-3.81-3.64-5.37-1.11-1.15-.29.92-.19,1.19.16.42,2.67,6.19.45,4.29-.73-.62-2.32-5.02-3.08-6.15-1.93-2.89-6.44-5.91-9.82-6.66-1.15-.26-4.25-.17-4.45-.3ZM88.78,16.75v.5l.25-.25-.25-.25ZM41.89,18.74v.5l.25-.25-.25-.25ZM12.47,19.24v.5l.25-.25-.25-.25ZM46.38,19.74v.5l.25-.25-.25-.25ZM47.38,20.74v.5l.25-.25-.25-.25ZM68.57,22.73s.19-1.06-.24-.99l-1.24,1.25c.27.09,1.43-.2,1.48-.26ZM2.49,22.24v.5l.25-.25-.25-.25ZM46.38,22.24v.5l.25-.25-.25-.25ZM48.88,22.24v.5l.25-.25-.25-.25ZM74.06,22.24l-9.6,3.97c-.98,1.55-4.2,2.53-5.37,3.33-1.09.74-4.46,3.35-2.46,4.65,1.11.72,3.17-1.52,3.97-2.14,2.07-1.62,6-5.22,8.84-6.49l4.62-3.31ZM66.33,23.23v.5l.25-.25-.25-.25ZM64.84,24.23v.5l.25-.25-.25-.25ZM51.86,29.73c-.49.35.27.69.51.98.49-.33-.23-.66-.51-.98ZM53.61,33.21c.35-.77-.24-2.03-.49-1.49-.35.77.24,2.03.49,1.49ZM51.87,34.21v.5l.25-.25-.25-.25ZM55.11,34.71c-1.52-1.74-.45,2.48,0,1.49.08-.17.05-1.43,0-1.49ZM56.61,36.2c1.09-.42,1.18-.83.24-1.49l-.24,1.49ZM55.36,37.2v.5l.25-.25-.25-.25ZM54.11,38.2c-2.57-1.28-1.37,1.05-.99,2.98,1.18-.03-.07-1.73-.04-2.21.04-.55,1.25.08,1.02-.77ZM85.28,43.68v.5l.25-.25-.25-.25ZM84.79,44.68v.5l.25-.25-.25-.25ZM14.96,45.18v.5l.25-.25-.25-.25ZM19.4,50.97c-1.19-1.43-2.3-3.03-3.69-4.29.28,3.1,2.54,5.33,3.94,7.83,3.44,6.14,7.68,13.84,13.01,19.34,1.22,1.26,3.34,2.58,4.74,3.74.25-2.25-1.82-2.28-2.28-2.8-1.49-1.7-4.99-7.28-6.09-9.31-.25-.47.15-1.27.1-1.31-.2-.14-.99.21-1.51-.35-.16-.18-1.26-3.42-1.65-4.05-1.77-2.85-4.36-6.14-6.58-8.8ZM18.95,47.17v.5l.25-.25-.25-.25ZM82.79,47.67v.5l.25-.25-.25-.25ZM19.95,48.17v.5l.25-.25-.25-.25ZM81.8,49.68c-1.12.76-.62,1.43,0,.49.17-.25.4-.26,0-.49ZM75.81,61.64v.5l.25-.25-.25-.25ZM75.31,62.63v.5l.25-.25-.25-.25ZM74.31,63.63v.5l.25-.25-.25-.25ZM73.06,67.12c.36-.7-.31-1.33-.49-.99-.36.7.31,1.33.49.99ZM72.06,68.62c.36-.7-.31-1.33-.49-.99-.36.7.31,1.33.49.99ZM37.65,72.6c.19-.18-2.29-2.68-2.49-2.49-.5.48,2.07,2.87,2.49,2.49ZM40.4,70.61v.5l.25-.25-.25-.25ZM41.83,77.4c-.96-.9-1.86-2.01-2.78-2.95-.34-.35-.75-1.49-1.4-.6,3.17,1.8,4.82,10.15,8.97,7.48-1.82-.8-3.26-2.49-4.8-3.93ZM45.13,76.6c.41-.52-.79-1.75-.99-1.5-.41.52.79,1.75.99,1.5ZM45.88,76.1v.5l.25-.25-.25-.25ZM47.63,79.09c.05.05,1.22.34,1.48.26l-1.24-1.25c-.43-.06-.28.96-.24.99ZM59.09,83.08c.36-.7-.31-1.33-.49-.99-.36.7.31,1.33.49.99ZM55.02,83.67c-.15-.21-2.75-1.16-3.4-.58.55.64,2.06,2.33,2.75,2.48,1.21.26.86-1.6.65-1.9ZM55.54,89.13c-.13-.14-1.17-.13-1.67-.54-2.45-2.01-4.81-5.44-8.23-5.5-.53,1.49.92.6.96.73.03.11-.5.72.29,1.72,2,2.57,5.93,4.87,7.24,8.02.9-.46,1.92-3.85,1.42-4.42ZM57.85,83.08v.5l.25-.25-.25-.25ZM57.1,87.57c.31-.36-.24-1.98-.75-1.98-1.51-.01-.1,2.95.75,1.98ZM58.1,93.06c-1.29-1.48-1.29,2.97,0,1.49.05-.06.05-1.43,0-1.49ZM54.36,97.05v.5l.25-.25-.25-.25Z"/>
      <path class="cls-1" d="M48.13,90.57s.49-.03.5,0c.2,1.12-.42.07-.5,0Z"/>
    </g>
  </g>
</svg>