<?xml version="1.0" encoding="UTF-8"?>
<svg id="Layer_2" data-name="Layer 2" xmlns="http://www.w3.org/2000/svg" viewBox="0 0 46.58 57.32">
  <g id="Hearts">
    <g id="Layer_11_Image" data-name="Layer 11 Image">
      <g>
        <path d="M28.26,54.44c-.53.41-.98,1.1-1.8,1.2-.15.02-.1-.49-.22-.48-.4.04-1.6.59-2.28.48l.48.35c-.74.09-.89,1.26-.96,1.32-.08.06-.86-.19-.91-.28-.2-.32,0-2.09-.5-2.96-.37-.63-1.98-1.86-2.55-2.59-2.88-3.64-5.13-8.65-8.11-12.56-1.55-2.03-3.68-3.73-5.25-5.75C1.15,26.73-2.79,15.86,2.56,8.64c.72-.97,3.15-2.45,3.5-3.06.78-1.35.83-2.62,2.25-3.98.08-.07,1.63-.99,1.79-1.06,1.13-.47,2.94-.77,4.11-.31.24.1,1.72.94,1.99,1.13,2.76,1.87,5.26,6.51,6.73,9.76.18.4.3.81.31,1.25.42-.09.38-.74.71-1.1.25-.27.66-.13.68-.2.02-.08-.21-.41-.03-.78.05-.1,1.23-1.55,1.34-1.67,1.19-1.25,7.11-5.25,8.64-5.68.93-.26,5.7-.76,6.41-.37.2.11.08.53.28.49.25-.06.04-.37.12-.48.18-.26.27.41.4.5.29.18,1.6.43,1.99.79,4.32,3.96,2.88,17.42.71,22.38-.01.02-.55.34,0,.24-1.77,7.18-7.12,18.21-11.46,24.08-.24.32-.32,1.01-.55,1.19-.06.05-1.32.6-1.37.54-.06-.06-.08-1.16-.72-1.2-.07,1.19-1.03,2.56-1.91,3.35.1-.54-.22-.02-.24,0ZM15.93,2.48c-.18-.14-.24-.46-.47-.59-1.11-.65-2.96-1.32-4.21-.98-.18.05-.18.35-.26.38-1.41.54-1.66.54-2.55,1.63-2.56,3.14-1.57,2,.85,1.79.52-.04,2.66.06,3.12.21.26.08.96.82,1.25.96,2.24,1.06,4.11,1.71,6,3.5.31.3,2.27,3.08,2.62,2.75-1.13-1.99-1.85-4.19-3.05-6.15-.23-.38-.67-.51-.71-.59-.16-.31,0-.79-.06-.9-.02-.02-.37.24-.44.2-.1-.06-.96-1.51-1.23-1.76-.3-.29-.65-.26-.88-.43ZM43.93,5.29c-.09-.12-.79-.82-.89-.9-.15-.11-2.57-1.31-2.72-1.35-.17-.04-.08.38-.16.42-.1.05-.37-.27-.43-.18-.22.28,1.4,2.12,1.56,2.62,2.28,7.06,3.05,10.64.78,17.54-1.99,6.05-5.47,12.63-7.81,18.28-.27.66-.73,1.61-.93,2.13-.12.33.02.91-.05,1.03-.02.03-.45-.26-.47-.24-.2.14-.17,1.45-.28,1.76-.07.2-.31.45-.56,1.09-.3.75-1.48,2.51-.59,3.37.41.39,1.19-1.56,1.66-1.62,6.11-10.6,12.97-23.68,12.81-36.24-.03-1.97-.71-6.14-1.91-7.7ZM38.43,3.85c-.8-.39-1.83-.1-2.65.16-.31.1-.44-.21-.36.47.45,0,1.86.53,2.22.77.43.28,2.6,2.56,3.04,2.1.58-.6-1.53-3.15-2.24-3.49ZM35.9,5.44c-.8-.64-5.35.32-5.25,1.91.77-.46,2.22-1.13,3.08-1.33.27-.06,2.9,0,2.17-.58ZM9.41,6.84c-.07-.07.03-.37-.02-.45-.18-.28-.25.4-.28.41-.11.07-1.16.13-1.35.2-.53.19-.47.43-.58.5-.1.06-.28-.21-.43-.03-.73.9-.72,2.82-.7,3.93,2.7-1.75,5.82-2.82,9.07-2.15-.06-1.7-1.36-2.06-2.67-2.46-.29-.09-.45-.37-.55-.41-.21-.08-.03.4-.23.44-.13.03-1.1-.19-1.44-.19-.28,0-.78.23-.82.2ZM25.39,24.8c-.22.75.12,4.77.1,5.94-.02.96.13,2.62-.82,1.53-.48-4.66-.06-9.39-1.44-13.92-.52.21-.44,1.14-.61,1.65-.07.2-.45.38-.53.66-.29.99.49,1.51-.76,1.51-.07-.12.47-2.43.58-2.77s.73-1.07.84-2.16c.05-.46-.17-1.78-.7-1.29-.22.21-.07,1.92-.95,1.55.66.83-.16.79-.23,1.02-.14.48-.39,2.83-.49,2.93s-.71-.28-.95-.24c-.19.82.46.2.47.24.04.1-.04,1.79.03,2.25.13.89.56,1.75.45,2.77-.5.16-1.04-1.13-1.12-1.39-.34-1.08-.39-2.49-.67-3.63-.52.72-.61,1.7-.91,2.5-.05.14-.4.11-.41.28-.02.25.27.58.13.81-.08.13-.47.15-.56.26-.06.08.2,1.6.2,1.98,0,.28.17.9-.24.85-.15-.78-.31-1.97-.26-2.74.06-.83.57-1.56.71-1.99.34-1,1.24-3.1,1.22-3.99-.03-1.35-.95-4.42-1.33-5.87-.18-.7-.21-.57-.33-.9-.19-.55-.12-1.1-.41-1.71-.74-1.52-4.1-.49-5.48-.9-.49,1.1-.88.3-1.57.53-.14.05-1.44.62-1.63.71-.33.16-1.3,1.25-1.33,1.66-.02.29.37,2.63.48,3.08,1.75,7.68,5.68,13.93,10.72,19.91l10.9,10.6c.33-.64.59-1.43.95-2.04,5.92-9.96,13.28-21.88,10.25-34.14-.59-2.38-1.63-4.1-4.35-3.65-.3.05-.95.57-1.11.4-.04-.04.06-1.36-.48-.72-.05.06.1.5-.04.66-.05.06-1.19.55-1.38.63-1.04.41-2.31.71-3.4,1.59-.58.47-1.87,1.86-2.25,2.47s-.34,2.13-1.27,1.94c.53.57-.17.97-.23,1.45-.21,1.52,1.07,4.02,1.43,5.73.42,1.98.59,5.84.37,7.84-.05.43-.35,2.67-.74,1.83-.45-.97.05-6.18-.36-6.7-.44-.55-.46.62-.48.72,0,.05-.18.11,0,.24ZM5.57,7.35s.09-.51-.12-.48c-.65.37-.16.75.12.48ZM27.9,7.83v.24l.12-.12-.12-.12ZM15.96,8.07v.24l.12-.12-.12-.12ZM40.05,8.44c-.11-.09-.07-.65-.34-.25l.85,2.26.58,3.12c.1-1.97.56-3.79-1.1-5.12ZM3.78,8.55v.24l.12-.12-.12-.12ZM17.85,9.41c-.26-.29-1.09-1.25-1.53-.86s1.66,1.64,1.91,1.43c.42-.37-.3-.49-.38-.57ZM27.42,8.55v.24l.12-.12-.12-.12ZM3.9,15.48c-.12-1.27,1.32-2.51,1.58-3.22.05-.12.13-2.41.12-2.63-.11-2.67-2.2,2.05-2.32,2.98l.62,2.87ZM27.06,9.74s.11-.7-.11-.71l-.83,1.43c.46.08.1-.49.28-.69.12-.13.61.02.67-.04ZM9.63,35.55c-1.25-3.34-2.9-6.54-4.07-9.91-1.41-4.09-2.64-8.62-3.11-12.91l.85-3.47c-.56.9-1.79,1.83-1.67,2.86-2.67,8.55,1.55,14.96,6.3,21.42.5.68.25.46.74.95.34.34.47.89.96,1.05ZM25.87,10.7c.17-.34-.15-.64-.23-.48-.17.34.15.64.23.48ZM20.14,18.58c.07-.1-.23-.6-.14-.96.19-.76,2.06-2.24,1.77-3.39s-3.53-4.09-4.5-3.29c-.07.06.34.44.41.66.68,2.16,1.36,4.73,1.5,6.99.29-.31.92.04.95,0ZM42.23,11.65v.24l.12-.12-.12-.12ZM42.59,12.61l-.48-.48c-.07.5-.02.54.48.48ZM41.99,12.85v.24l.12-.12-.12-.12ZM40.44,25.51c1.54-4.13,2.73-8.21,2.15-12.67-.31.17-.62,1.3-.66,1.61-.36,2.49-.47,4.62-.99,7.13-.15.74.33,1.64-.49,1.06v2.87ZM24.2,13.8c.26.22,1.07-.4.36-.71-.05-.02-.39.69-.36.71ZM10.45,27.57c-1.76-3.21-3.51-7.76-4.33-11.33-.17-.76-.26-1.66-.31-2.44-2.1,1.27-1.18,5.28-.45,7.22,2.22,5.96,8.66,17.46,13.12,22.3,1.61,1.75,3.84,3.12,5.37,4.65.35.36,2.13,2.97,2.5,2.64.03-.03.03-.6.19-.88.47-.83,1.61-1.99,1.13-2.94-.88-.52-1.37-1.33-2.05-2-5.66-5.49-11.21-9.99-15.16-17.21ZM41.04,14.04v.24l.12-.12-.12-.12ZM23.36,17.63v.24l.12-.12-.12-.12ZM19.66,20.97l.24-1.67c-.36.01-.73,1.65-.24,1.67ZM25.87,23.6c.16-.35-.08-1.29-.23-.95-.16.35.08,1.29.23.95ZM6.41,25.76v.24l.12-.12-.12-.12ZM39.96,26.71c.17-.34-.15-.64-.23-.48-.17.34.15.64.23.48ZM6.89,26.71v.24l.12-.12-.12-.12ZM7.72,27.9l-.48-.48c-.07.5-.02.54.48.48ZM7.72,28.15l-.47.12c1.93,3.31,3.07,7.08,5.29,10.24,1.35,1.91,3.57,3.49,4.97,5.42-.2-1.04-1.44-1.88-2.05-2.74-1.07-1.5-1.85-3.27-3.04-4.71l-4.69-8.33ZM32.68,40.81v.24l.12-.12-.12-.12ZM32.32,42.01l-2.94,4.82c-.6.36.58,1.62.68,1.63.45.03,1.81-4.9,2.41-5.49l-.14-.96ZM14.77,42.25v.24l.12-.12-.12-.12ZM15.58,42.99s-.67-.29-.69-.26c-.16.22,1.35,2.12,1.63,2.55,1.16,1.8,2.53,4.34,3.93,5.97.28.32,1.16,1.18,1.59,1.29-.76-.73-.87-2.37-1.66-3.04-.91-1.7-2.31-3.82-3.67-5.24-.27-.28-1.25-.75-1.31-.84-.04-.07.21-.38.18-.42ZM18.42,44.45s-.57-.29-.66-.17l.83.83c.11-.09-.15-.64-.17-.66ZM20.07,45.66c-.18-.17-.81-.17-1.01-.54-.36.07-.12,1.13-.07,1.16.1.07.49-.02.59.1.4.47.59,1.13,1.18,1.43l2.47,5.98c1,1.36,2.27-1.78,2.05-2.44-.04-.11-1.11-1.74-1.24-1.9-.77-.93-2.57-2.05-3.53-2.92-.23-.21-.22-.67-.44-.87ZM16.2,45.35v.24l.12-.12-.12-.12ZM28.5,48.22c-.16.11-1.84,3.31-1.86,3.5-.03.36.59,1.27.78,1.27.21,0,2.17-2.74,2.24-3.04.12-.49-.71-2.05-1.16-1.74ZM27.3,53.96c-.43.36-.76-.84-1.1-.93-.97-.26-1.24,1.54-.66,1.66.31.06,2.88-.58,1.77-1.21-.03.13.04.44,0,.48Z"/>
        <path d="M28.26,54.44s.24.01.24,0c-.04.03-.33.54-.24,0Z"/>
        <path d="M44.5,26.47s-.01-.24,0-.24c.55-.1,0,.21,0,.24Z"/>
        <path d="M25.39,24.8v-.24c.46.17.03.15,0,.24Z"/>
        <path d="M21.1,24.32c.02-.53-.15-1.67.47-1.91-.24.6.29,1.61-.47,1.91Z"/>
      </g>
    </g>
  </g>
</svg>