<?xml version="1.0" encoding="UTF-8"?>
<svg id="Layer_2" data-name="Layer 2" xmlns="http://www.w3.org/2000/svg" viewBox="0 0 50.69 60.12">
  <g id="Hearts">
    <g id="Layer_5_Image" data-name="Layer 5 Image">
      <path d="M23.39,5.33c.3.32,2.03,2.84,2.2,3.23.26.57.64,2.59.75,2.67.13.1,2.33-1.45,2.74-1.67,3.87-2.1,9.59-3.94,13.99-4.19,2.31-.13,5.4.18,6.78,2.29,1.95,2.97-.02,9.29-1.14,12.47-.83,2.35-.87,2.22-1.38,4.83-1.36,7.05-3.89,11.12-7.2,17.19-.15.28-.16.85-.19.89-.02.02-.45-.26-.47-.24-.04.04-.07.68-.28,1.04-2.41,4.16-5.38,8.14-7.24,12.35-.28.64-.79,2.42-1.55,1.66-.13-.13.73-3.12.94-3.57-1.46-.32-1.02-.19-1.73.39-.06.05-.34-.09-.37-.04-.05.08-.02,1.33-.28,1.45-.14.06-.7-.1-.72-.12-.2-.23.96-2.06.72-2.39-.02-.03-.32.22-.43.17-2.94-1.48-5.22-3.18-7.44-5.11-1.11-.97-2.47-2.23-3.51-3.26-.34-.34-.36-1.01-.8-1.11.12.82.76,1.8,1.2,2.5,2.16,3.43,4.32,6.5,8.06,8.19.89.4,2.43.23,1.13,1.26v-.71c-.81.95-.49.12-.7.05-.06-.02-1.41-.17-1.32.19,1.09.53,2.07,1.67,3.11,2.22,1.52.8,3.56,1.25,5.25,1.13.08.9-2.38,1.15-2.9,1.06-2.85-.47-6.7-2.86-8.66-5.16-1.06-1.24-2.84-2.67-4.21-4.16C9.93,42.3-.76,22.91.04,11.11.34,6.8,1.79,2.92,5.87.9c4.99-2.47,13.91.5,17.52,4.43ZM10.33.95C4.15.84,1.1,5.99.92,11.67c-.06,1.89.36,4.42.93,6.24-.25-4.01-.1-7.51,1.74-11.16,1.55-3.08,3.15-3.94,6.21-5.27.34-.15.66.16.53-.54ZM17.45,2.93c-.11-.05-.4.16-.65.05-2.78-1.29-4.45-1.54-7.45-.5-.37.45-3.32,1.82-3.32,2.18s.5.26.71.25c4.76-.23,12.94,1.62,16.46,5.04.81.79,1.26,1.6,1.93,2.49-.24-.41-.64-2.29-.72-2.39-.02-.02-.46.26-.47.24-.04-.05.08-.41-.08-.64-1.08-1.61-2.21-2.61-3.56-3.9-.4-.39-2.68-2.71-2.86-2.8ZM21.2,4.53v.24l.12-.12-.12-.12ZM5.67,5.01v.24l.12-.12-.12-.12ZM21.91,5.38c-.17-.17,0-.45-.34-.37-.08.43.26.79.71.71.08-.34-.19-.17-.37-.34ZM9.85,5.97c-.09-.1-2.48-.27-2.72-.24-2.67.29-2.25,3.36-2.05,5.26.33.4,1.53-2.05,1.75-2.31.61-.71,1.98-1.52,2.72-2.16.13-.11.64-.16.3-.55ZM22.28,6.44s.58.16.71.12l-.59-.6c-.21-.03-.13.46-.12.48ZM42.58,6.21c-.05-.06-.92.2-.95.24-.62.76,1.73.61.95-.24ZM49.27,15.05c.06-.05.29-1.16.34-1.41.08-.41.2-3.15.17-3.49-.02-.24-.74-2.13-.86-2.28-.09-.1-2.06-1.33-2.2-1.37-.48-.13-3.62-.28-3.89-.05-.83.67,1.45.28,1.6.31,1.55.24,3.93,1.62,4.31,3.23.09.39-.1.73-.05,1.03.21,1.31.58,2.68.11,4.02.15-.01.43.04.47,0ZM41.39,6.44c-.15-.15-2.41.86-2.75.24.35,1.01-1.38.44-1.88.48-.15.01-2.32,1.25-2.59,1.34-.11.04-1.2.31-1.27.31-.23.02.07-.58-.34-.47.03.81-.34,1.23-1.09.72-.11.13.12.41.09.44-.1.09-1.94.64-2.51.94-.3.16-2.32,1.56-2.4,1.78-.26.7.29,1.24.51,1.84.1.26-.42,1.07.85.12,5.13-3.86,6.46-4.97,12.78-7.05.26-.09.93-.39.61-.71ZM15.35,8.12c-.07.06-1.07-.73-1.61-.87-2.45-.65-6.02,1.59-7.13,3.83-.95,1.92-.83,2.45-.21,4.45,1.4,4.54,4.86,9.87,7.23,14.04,3.64,6.4,8.11,15.11,13.78,19.42.38.29,2.47,1.92,2.63,1.91.43,0,3.35-6.66,3.87-7.58,2.29-4.02,5.28-7.97,7.57-12.03,2.83-5.01,7.02-10.84,3.09-16.42-.35-.49-2.26-2.32-2.83-2.46-.13-.03-.09.87-.6.48-.15-.12.6-.38-.06-.43-.9-.07-1.91-.29-2.8-.19-1.66.19-3.15,1.05-4.78,1.33.6.6-.73.66-1.4,1.1-1.13.74-3.52,2.96-3.92,4.23-.26.82.46,1.78-.54,1.84-.22.01.05-.59-.35-.48-.03.56-.19,3.57-.96,1.97-.6-1.26-.34-6.65-1.93-2.08l-.46,2.03c-.92-1.54.96-3.75.97-4.66.02-1.07-1.2-2.31-1.4-3.39-1.88-2.91-3.77-3.6-6.35-5.13-.64-.38-1.21-.85-1.71-1.4-.25-.02-.05.41-.12.48ZM23.35,6.92v.24l.12-.12-.12-.12ZM4,7.64v.24l.12-.12-.12-.12ZM45.84,8.23c-1.84-.62-2.69-.49-4.54-.25-3.41.44-9.81,3.85-12.35,6.21-.37.34-1.8,1.85-1.42,2.29.16.19,3.59-2.63,3.98-2.83,5.73-3.35,16.02-7.9,15.96,3.06.84-2.31.84-5.79-.7-7.77-.13-.16-.79-.67-.94-.72ZM4.6,23.66c-.45-2.88-.46-5.58-.36-8.49.02-.54.35-1.09.36-1.67.04-1.71-.81-3.41-.83-5.14-.45.58-.63,1.62-.77,2.33-.57,2.93-.36,5.61.06,8.54l1.54,4.43ZM21.32,9.79l-.71-.71c-.08.45.28.8.71.71ZM22.99,10.99c-.51.38-.75-1.13-1.43-.95.55.86,1.3,1.42,2.03,2.14l-.36-1.67c-.42-.1-.16.42-.24.47ZM45.37,12.26c-1.51-1.99-3.24-1.35-5.41-1.27-.2.71.08.29.37.39,2.49.81,3.73.79,5.29,3.28.09.15.68,2.26,1.03,1.47.17-.38-.91-3.38-1.27-3.87ZM49.03,15.77c.17-.34-.15-.64-.23-.48-.17.34.15.64.23.48ZM5.67,16.35c-.16-.18-.04-.42-.35-.35-.07,4.96,1.47,10.06,3.46,14.58,2.87,6.52,8.16,13.1,13.5,17.81.71.63,6.49,5.05,7.17,4.42.05-.05.47-1.25.47-1.32,0-.13-1.96-.77-2.36-.98-.24-.13-2.55-1.76-2.66-1.88-.42-.45.05-1.07-.67-.65-.68-1.56-2.41-2.82-3.3-4.1-.22-.32-.34-.81-.61-1.19-1.1-1.56-2.7-3.8-3.78-5.58-.71-1.17-1.6-3.74-2.27-4.63-.17-.22-.53.02-.56-.02-.4-.48-1.05-3.23-1.23-3.55-.01-.03-.37.28-.58.01-.85-1.06-1.55-3.12-2.18-4.3-.96-1.79-2.09-3.58-2.93-5.43-.46-1-.37-2-1.11-2.85ZM48.44,17.44v.24l.12-.12-.12-.12ZM2.45,18.16c-.81-.6-1.06.94-.12,1.43-.32-.31.17-1.38.12-1.43ZM48.2,18.16v.24l.12-.12-.12-.12ZM2.33,19.83v.24l.12-.12-.12-.12ZM2.69,20.31c-.77-.68-.37,1.23.24.71.03-.02-.21-.69-.24-.71ZM2.93,23.18c.79-.23.3-1.44-.24-1.67l.24,1.67ZM3.64,24.37c.17-.34-.15-.64-.23-.48-.17.34.15.64.23.48ZM4.96,24.37v.24l.12-.12-.12-.12ZM4,25.33v.24l.12-.12-.12-.12ZM4.84,26.53c-.34-.17-.64.15-.48.23.34.17.64-.15.48-.23ZM5.07,27.48c.17-.34-.15-.64-.23-.48-.17.34.15.64.23.48ZM5.1,28.16c-.07-.07-.02-.31-.03-.44l.48.95c.19-1.16-.35-.42-.45-.52ZM6.44,29.7c-.1-.23-.89-.1-.41-1.02-1.05.5.07,2.01.44,2.79,1.48,3.08,3.43,6.08,4.89,9.09l2.31,2.94c-1-1.95-2.05-3.88-3.1-5.81-1.31-2.39-2.89-5.27-4.13-8ZM45.33,28.92v.24l.12-.12-.12-.12ZM43.9,29.39v.24l.12-.12-.12-.12ZM45.21,30.11c.17-.34-.15-.64-.23-.48-.17.34.15.64.23.48ZM42.97,32.65c.22-.48.64-1.51.76-2,.06-.23.23-.85-.18-.78-.07.31-.11.74-.26,1-2.92,5.07-6.43,9.91-9.34,15.09-.85,1.51-3.03,5.28-3.26,6.8-.11.7.52,1.18.97.46.68-1.09,1.01-1.95,1.57-2.95,3.2-5.73,7.04-11.7,9.75-17.61ZM44.97,30.35c-.26-.26-.74.21-.48.48s.74-.21.48-.48ZM44.38,31.55v.24l.12-.12-.12-.12ZM43.9,32.74v.24l.12-.12-.12-.12ZM43.42,33.22v.24l.12-.12-.12-.12ZM43.3,33.7c-.04.07-.13.75-.12.95.64-.29.29-1.25.12-.95ZM42.82,35.61c.17-.34-.15-.64-.23-.48-.17.34.15.64.23.48ZM42.23,36.09v.24l.12-.12-.12-.12ZM41.15,38.96l.72-2.15c-.29.19-.71,1.13-.82,1.45-.08.24-.37.73.1.7ZM38.88,42.3v.24l.12-.12-.12-.12ZM16.3,43.98c.17-.34-.15-.64-.23-.48-.17.34.15.64.23.48ZM14.5,44.6c-.21-.22-.29-.57-.58-.62-.18.81.29.86.95.95.09-.35-.24-.19-.37-.33Z"/>
    </g>
  </g>
</svg>