<?xml version="1.0" encoding="UTF-8"?>
<svg id="Layer_2" data-name="Layer 2" xmlns="http://www.w3.org/2000/svg" viewBox="0 0 100 78.29">
  <defs>
    <style>
      .cls-1 {
        fill: #fff;
      }
    </style>
  </defs>
  <g id="Sketchy_Icons" data-name="Sketchy Icons">
    <g>
      <path class="cls-1" d="M36.03,2.13c2.06,1.19,4.55,3.84,6.16,5.64,2.1,2.37,5.16,6.32,6.71,9.41.29.59,0,1.18.05,1.21.15.1.73-.09.98.11.3.25,3.1,6.23,3.3,7.01.58,2.19-.54,4.24,2.02,2.05,4.93-4.21,8.98-9.4,14.07-13.66,3.75-3.13,7.2-5.49,12.65-6.72.31-.07.26-.73.48-.74,3.07-.1,6.8,1.55,8.78,3.93s.72,1.62,3.49,3.58c5.2,3.67,6.16,10.73,4.57,16.83-.27,1.04-2.73,7.09-3.16,7.62-.32.39-.89.13-1.1.27-.07.04.19.77-.42,1.54-3.02,3.85-7.11,6.76-9.55,11.17-.48.87.31,1.67-.94,1.27,1.04,1.94-.21,1.04-.72,1.35-.04.02.25.56,0,.92-.38.55-1.25.74-1.43,1.03-2.3,3.61-2.86,4.85-6.72,7.5-.31.21-.36.81-.69,1-.35.2.08-.95-.56-.74-.05.37.37.69.28,1.05-.14.58-4.58,2.14-4.73,2.37-.22.34.09,1.28-.05,1.43-.08.09-2.29.41-2.41.4-.23-.02-.21-.78-.38-.76-.63.05-2.75,1.1-3.39,1.09-.87-.02-1.56-.91-2.3-.99-1.13-.11-2.07,1.11-3.13-.11-1.15,2,1.44.96,1.87,1.5,1,1.29-6.49,1.04-6.93,0v.74s-8.08-1.73-8.08-1.73c-1.28-.26-9.3-3.83-9.7-3.51-.25.21,2.88,4.16,3.18,4.49,1.65,1.82,4.73,4.65,6.37,5.59.35.2,4.24,1.95,3.55,2.64-.57.57-5.99-2.78-6.82-3.37-2.67-1.9-4.45-4.36-6.67-6.81-4.16-4.58-4.22-3.89-9.23-6.58-6.51-3.49-12.25-9.06-15.99-15.46C4.86,37.84,2.36,30.55.51,21.72-1.15,13.78,1.07,6,9.84,4.26c3.14-.62,3.87.16,7.08-1.53.32-.17.41-.88.62-1.04.23-.17,4.85-1.42,5.56-1.49,4.34-.45,9.07-.31,12.93,1.92ZM29.5,1.87c-.1-.06.04-.7-.23-.66-.69.12-1.53,1.25-3,.38l-2.43.55c1.06.94,2.51.84,3.76,1.48,4.17,2.1,7.02,7.5,9.71,11.15,1.99,2.71,4.4,5.01,6.24,8.26,1.62,2.85,2.72,6.02,3.67,9.06l1.69,3.53c.69-2.16,3.26-3.86,3.41-6.16.28-4.5-3.43-9.51-5.67-13.09-.44-.71-1.71-3.78-1.86-3.95-.03-.03-.56.39-.68.31-.31-.19-3.58-4.78-4.53-5.75-.7-.72-2.26-1.51-2.66-1.92-.34-.35-.69-1.55-.77-1.59-.12-.07-.69.45-1.03.31-.15-.07-2.06-1.65-2.55-1.79-.51-.14-2.94-.05-3.08-.13ZM23.46,2.34c-.33-1.33-2.26-.67-1.5,0,.11.1,1.13-.06,1.5,0ZM25.52,3.46v.37l.19-.19-.19-.19ZM27.95,5.34c-.08-.06-1.79-.82-1.87-.75-1.07.97,3.41,2,1.87.75ZM24.47,5.82l-4.76-.86c-.23,1.02.31.64.74.92,1.35.89,5.12,3.23,6.59,3.17,2.7-.12-2.22-2.47-2.57-3.24ZM12.59,5.33c-1.11.94-1.56.1-3.17.5-1.92.48-2.48,1.14-4.04,2.36-.12.1-.58-.13-.87.11-.52.43-.19.95-.28,1.07-.2.25-.84.27-1.17.85-1.12,1.97-1.38,4.01-1.93,6.15l.97,6.55,2.61-7.3c2-3.55,4.08-6.82,7.24-9.21.43-.32.78-.39.62-1.07ZM20.15,7.9c-.31-.25.78.02-.7-.61-1.33-.57-2.37-1.42-3.97-.48-.94.55-2.01,6.15-1.76,6.37.4.36,3.34-2.35,4.16-2.76s4.3-1.18,4.45-1.36c.46-.58-2.08-1.09-2.18-1.17ZM29.07,6.46c-.43-.42-1.21.16-.18.74.33.05.21-.72.18-.74ZM30.19,7.21s-.79-.14-.74.18c.53.62.83,1.41,1.33,2.05.14.17,1.75,1.81,2.04,1.51-.62-.64-2.26-3.42-2.63-3.73ZM83.08,8.18c-.11-.04-.1-.57-.25-.57-.6,0-1.55.38-1.13,1.07-3.6.13-6.48,2.61-9.28,4.6-.23.16-.78-.03-.85,0-.12.08.14.64-.16.83-.15.1-.66-.2-.72-.13-.2.23-.29,1.69-.44,1.8-.05.03-.62-.4-1.09-.19-.43.19-.88.98-1.33,1.35-.32.26-.93-.09-.92.16,0,.18.48.58.32.87-.14.25-2.16.84-1.83,1.95,8.61-2.44,16.05-9.38,25.46-7.48-1.09-1.81-3.44-4.03-5.59-4.31-.91-.12-.82.57-2.18.05ZM11.69,16.79c.88-2.73.57-4.8,1.27-7.53-1.56-.12-.9,1.05-1.31,1.66-3.11,4.56-4.94,8.02-5.41,13.69-.58,7.04.73,9.68,4.48,15.24,1.06,1.57,2.88,3.49,4.07,5.01,3.51,4.53,7.08,9.29,12.23,12.09-.7-1.09-1.35-2.46-2.12-3.49-2.32-3.09-5.16-5.75-7.33-9.12-.46-.72-1.82-4.05-2-4.19-.07-.06-.66.39-.7.35-1.4-1.36-4.7-12.41-4.89-14.77-.37-4.58.55-5.3,1.73-8.95ZM27.07,12.2c-3.79-3.17-8.03-1.61-11.25,1.58-.22.21-.81.18-1.12.55-.39.45-.87,1.73-.94,2.37-.31,2.92,2.44,12.65,3.43,15.76,1.51,4.72,4.45,11.22,7.12,16,4.6,8.24,11.99,14.05,21.24,16.54,3.42.92,11.04,2.48,14.37,2.04.52-.07,3.13-1.24,3.22-1.1.2.29-1.2,1.4.93,1.42,3.46.03,8.47-3.09,11.13-5.19,2.03-1.6,6.24-6.57,7.42-8.77.28-.53.51-1.35-.19-1.3-.42.03-1.62,2.28-2.05,2.72-.37.37-1.82.89-2.26,1.28-1.14,1.03-1.58,3.34-3.73,2.91,1.41,1.37.47.64-.24,1.08-1.86,1.14-3.22,2.9-5.4,4.09-.39.22-1.05.05-1.27.21-.44.32-.14,1.09-.23,1.18-.15.15-.78-.4-1.06-.3-.12.04-.47,1.19-2.12,1.04-2.06-.18.03-.99.3-1.59.21-.49-.21-1.28-.1-1.38.08-.07.63.06.95-.16,5.14-3.57,9.34-5.96,12.84-11.33,3.42-5.25,7.1-12.67,8.57-18.75.46-1.92.64-4.11.85-6.07l-2.42,4.89c-1.15,4.06-4.73,7.97-7.15,11.55-.19.28-.82.34-.87.43-.22.41.69-.07-.73,1.69-2.87,3.53-5.84,6.49-8.35,9.8-.08.11-.67-.34-.9.06-.07.13.27.71.2.75-.23.13-.68-.42-1.13-.2-.35.17.02,1.21-.56,1.32s-1.18-.79-.93-1.11c.03-.04.63-.06.94-.38,6.52-6.88,17.94-20.25,20.3-29.48.64-2.51-.49-3.46-2.75-4.54-2.42-1.16-6.61-1.75-9.3-.98-3.93,1.14-9.05,5.5-11.29,8.95-.32.49-.45,1.69-.52,1.74-.19.14-1.03-.47-1.12-.38-.05.05-.07.93-.3,1.39-1.24,2.4-3.19,4.67-4.49,6.73-.43.68-1.05,2.71-1.55,3.25-.41.45-1.03.15-1.16.24-.07.05.51.8.03,1.59-.59.97-2.77,1.46-2.88,1.58-.25.25-1.31,5.96-1.47,6.9-.1.58.57,3.25-1.3,2.09-1.16-.72.03-2.35-1.11-2.82-.31.96,0,2.03-1.12,1.67.92,2.04-1.33,1.2-1.8-.44-1.2-4.1-1.5-10.6-2.49-15.09-2.14-9.61-6.47-19.58-14.19-26.04ZM29.39,10.65c-.08-.05-1.49.23-1.81-.27,2.34,2.56,8.77,9.71,3.26,1.48-1.16.27-1.15-1.01-1.46-1.21ZM7.72,14.31c.27-.53-.24-1-.37-.74-.27.53.24,1,.37.74ZM90.8,13.67c-.28-.11-.83.31-1.24.28-3.55-.3-4.95-.4-8.44.66-4.21,1.28-.95.94.85,1.3,3.6.72,5.91,2.58,6.91,6.19.52,1.89,1.69,8.42,1.8,10.35.06,1.02-1.13,2.65.37,2.83.72-.5-1-.3-.55-.75.04-.04.6.11.86-.47,2.09-4.52,2.4-13.85.8-18.6-.7-2.07-.69-1.05-1.22-1.26-.1-.04-.07-.5-.14-.53ZM41.43,28.9c-2.25-4.65-3.44-9.83-6.17-14.22-2.7-1.81-.44.73.22,2.07.25.5.46,1.07.7,1.57,1.54,3.27,2.63,6.67,4.32,9.85.28.53-.02.92.94.73ZM95.6,16.67c-.16-.19-1.29-1.38-1.37-1.43-.68-.42-.78,1.15-.66,1.5,2.04,5.62.52,14.66-1.42,19.67-.78,2.02-2.23,3.98-2.23,6.32,5.71-5.24,9.93-13.02,8.26-20.96-.26-1.25-.84-1.98-1.16-2.98-.19-.58.2-.89.19-.94-.1-.41-.86.36-1.08.19-.09-.07-.16-.93-.53-1.38ZM6.98,15.81s-1.15-.15-1.05.17c-.82,3.87-3.58,8.75-1.38,12.54.35-3.63.54-7.23,1.57-10.77.14-.48.95-1.88.86-1.94ZM78.31,15.81v.37l.19-.19-.19-.19ZM33.94,16.56c-.78-.11-.85-.04-.74.74l.74-.74ZM78.78,17.54c-.57.14-1.22-.18-1.59-.61.36,1.25-.53.54-1.68.93-.57.19-2.13.43-1.87,1.31.89-.61,7.22-1.22,7.49-1.5.82-.88-1.77-.76-2-.71-.26.05-.27.57-.34.58ZM21.21,46.48c-2.07-5.27-4.53-10.32-6.1-15.79l-3.08-12.63c.36,1.32-.57,2.55-.71,3.57-1.12,8.13,4.05,16.03,8.01,22.71l1.88,2.15ZM7.17,18.8v.37l.19-.19-.19-.19ZM73.26,19.55s.14-.79-.18-.74c-1.02.58-.25,1.17.18.74ZM80.19,18.8v.37l.19-.19-.19-.19ZM86.36,22.17c.08-.11.04-1.32-.06-1.62-.71-2-9.31-1.76-3.34-.4.42.15,3.22,2.25,3.4,2.02ZM46.67,41.25c-.29-1.46,1.2-2.61,1.02-3.99-.46-3.56-3.16-7.83-4.24-11.3l-4.26-6.4c1.16,2.76,2.41,5.56,3.38,8.4,1.17,3.4,1.64,6.84,2.71,10.37.26.86.64,2.43,1.4,2.93ZM69.14,19.93c-.82-.69-1.35.85-1.48.91-.77.38-2.26,1.04-2.93,1.3-.52.2-1.89.34-1.96.41-.03.02.36.49.27.66-.34.62-2.69,1.66-3.37,2.32l-2.5,3.75,7.57-6.6c.18-.12.65.11.92-.05.3-.18,4.27-2.04,3.49-2.7ZM64.46,20.3v.37l.19-.19-.19-.19ZM61.77,28.27c.44-.58,2.14-1.06,1.95-2.35-2.68,1.81-5.03,3.98-6.95,6.53-.51.68-2.85,4.3-3.21,5.05s-.61,2.9-.95,3.3c-.5.59.03-.8-.57.74-.46,1.18-1.45,3.49.42,1.18,3.24-4.02,6.02-10.1,9.31-14.45ZM41.24,29.28v.37l.19-.19-.19-.19ZM54.35,30.02v.37l.19-.19-.19-.19ZM82,49.23c.25-.32.82-.43,1.16-.89,3.68-4.98,6.67-11.26,5.82-17.57l-2.61,8.05c-1.77,3.96-3.3,7.96-5.64,11.5-.15.23-1.96,1.3.01,1.4.35-.64.88-2.01,1.26-2.49ZM52.1,32.64v.37l.19-.19-.19-.19ZM5.48,33.4c-.53-.27-1,.24-.74.37.53.27,1-.24.74-.37ZM51.54,35.63c.06-.07.06-1.74,0-1.87-.35-.77-1.21,3.23,0,1.87ZM42.18,35.64c1.17,3.71,1.05,7.61,2.43,11.22l-.59-6.51-1.84-4.7ZM49.67,37.88c1-.42,1.11-1.35.74-2.24-.79.14-.71,1.63-.74,2.24ZM8.66,39.39c.12.93.92,1.9,1.51,2.6-.08-.98-.79-1.97-1.51-2.6ZM47.05,42.37c.74.67,1.86-1.96,1.49-2.61-.26.32-1.61,2.51-1.49,2.61ZM10.72,43.12c.27-.53-.24-1-.37-.74-.27.53.24,1,.37.74ZM11.1,42.75c-.22.43.24.86.56,1.11.15-.37-.38-1.47-.56-1.11ZM47.79,42.75c-.41-.41-1.15.34-.74.74s1.15-.34.74-.74ZM47.23,43.87v.37l.19-.19-.19-.19ZM13.53,45.74v.37l.19-.19-.19-.19ZM12.78,47.23v.37l.19-.19-.19-.19ZM44.8,51.72c.7-.3,1.6-2.66,1.49-3.17-.12-.53-.92-.27-1.13-.42-.38-.28-.16-1.01-.74-.9l.37,4.49ZM14.64,49.69l-1.66-1.53c2.66,3.36,6,6.72,9.56,9.17.59.41,1.68,1.17,2.42,1.12l-10.31-8.76ZM48.36,48.73v.37l.19-.19-.19-.19ZM83.74,52.09l-.74-.74c-.11.78-.04.85.74.74ZM79.44,52.1v.37l.19-.19-.19-.19ZM26.82,59.21c-.79-.81-2.13.03-.18.74.32.05.21-.71.18-.74ZM31.32,59.21s-.79-.14-.74.18c.58,1.02,1.17.25.74-.18ZM31.88,59.58v.37l.19-.19-.19-.19ZM33.94,60.71c-.58-.26-1.52.18-1.12.37.58.26,1.52-.18,1.12-.37ZM35.63,61.82v.37l.19-.19-.19-.19ZM62.21,66.69v.37l.19-.19-.19-.19Z"/>
      <path class="cls-1" d="M70.26,68.18c-.13.25-.64-.22-.37-.74.13-.25.64.22.37.74Z"/>
      <path class="cls-1" d="M48.91,77.91c-.13.25-.64-.22-.37-.74.13-.25.64.22.37.74Z"/>
      <polygon class="cls-1" points="71.2 68.56 71.39 68.75 71.2 68.93 71.2 68.56"/>
      <polygon class="cls-1" points="49.48 77.91 49.67 78.1 49.48 78.29 49.48 77.91"/>
      <path class="cls-1" d="M64.65,57.71c-.78.11-.85.04-.74-.74l.74.74Z"/>
    </g>
  </g>
</svg>