<?xml version="1.0" encoding="UTF-8"?>
<svg id="Layer_3" data-name="Layer 3" xmlns="http://www.w3.org/2000/svg" viewBox="0 0 41.46 46.58">
  <g id="Hearts">
    <g id="Layer_8_Image" data-name="Layer 8 Image">
      <g>
        <path d="M17.28,5.53c1.29,1.24,2.62,3.08,3.44,4.67.64-.39,1.44-1.68,1.96-2.07.06-.05,1.05-.62,1.29-.76.77-.45,1.67-.26.74.51-.53.43-3.48,2.38-3.53,2.72-.05.31.59,1.61.73,2.15.4,1.59.6,3.15,1.56,4.62,1.09-3.45,2.71-6.73,5.8-8.75.58-.38,2.93-1.66,3.32-1.74.6-.13,2.14.07,2.21-.02.05-.06.09-.83-.14-.98-.68-.46-1.71-.18-2.32-.29-.26-.04-.4-.35-.53-.4-.19-.08-.05.47-.26.5-.3.04-.66-.27-.92-.27-.07,0-.11.77-1.18.49-.28-.07,0-.58-.39-.48-.15,1.28-.38.69-.88.9-.4.17-2.83,1.11-2.94,1-.24-.24.07-.69.41-.9.62-.38,3.49-1.35,4.23-1.52,1.89-.43,4.31-.49,5.92.74,1.38,1.06,3.14,3.35,3.66,5.02.1.34-.11.81-.02.96.2.35,1.24.5,1.55.83.49.52.53,2.51.38,3.22-.34,1.55-1.38,3.65-2.08,5.1-2.28,4.71-4.74,8.15-7.69,12.39-1.81,2.61-3.41,5.4-5.17,8.06-.75.15-.47-.38-.31-.91.49-1.65,1.8-2.96,2.35-4.58l-4.47,5.55c0,.28-.48,1.31-.43,1.36.09.09,1.15-.06.95.72-.4.11-.07-.74-.59-.48-.24.12-1.05,1.22-.99,1.56.13.71,1.63.61,1.58,1.54-.54.22-2.76-.83-2.86-.72-.04.05.08.52-.25.83-.64.62-2.05.5-2.85.23-.58-.19-1.02-.84-1.26-.99-.41-.25-1.18-.56-1.77-1.11-.42-.39-1.32-1.13-.81-1.47-.15-.21-.28.16-.48-.02-2.87-2.65-5.58-10.78-7.22-14.47-.99-2.23-2.88-4.8-3.56-7.19-.13-.45-.1-1.91-.2-2.07-.01-.02-.33.2-.4.11-.39-.48-1.49-4.38-1.72-5.29C.69,11.97-.05,8.71,0,6.71c.03-1.17.78-3.52,1.52-4.37C2,1.79,4.52.15,5.17.06c3.97-.55,9.35,2.83,12.11,5.47ZM8.24,1.48c-1-.35-3.33-.44-3.96.51-1.12,1.69.11.7.39.63,3.99-.94,8.39,2.93,11.51,4.84-1.38-.87-2.68-3.01-3.9-3.85-.44-.3-3.51-1.94-4.04-2.13ZM.91,7.34c.62-.33.35-1.21.62-1.89.42-1.05,1.63-1.85,1.53-3.13-1.92.84-1.99,3.15-2.14,5.01ZM6.39,3.04c-.5-.34-.45.44-.63.48-.58.13-1.41-.5-2.07.7-.29.53.03,3.09.09,3.83.42-.03.18-.65.46-1.09.33-.54,2.38-1.88,3.02-1.99.55-.1,3.43.29,2.01-.86-.2-.16-.88.09-1.24-.11-.28-.15-.39-.71-.55-.71-.06,0-.25.4-.61.36-.52-.05-.44-.58-.47-.61ZM10.45,4.95c0-.16-.26-.44-.36-.47-.56-.19-.6.75.36.47ZM11.17,4.95c-.34-.17-.64.15-.47.23.34.17.64-.15.47-.23ZM4.25,18.32c-.07-.11.07-.75-.01-1.06-1.13-4.16-1.1-6.8-1.3-11.02-.09-1.98-.68-.48-.92.67-.37,1.81.03,5.65.48,7.52s1.42,3.77,1.99,5.55c1.08.18-.57-.99.23-1.8-.15-.13-.46.15-.47.13ZM11.53,5.43v.24l.12-.12-.12-.12ZM9.45,5.72c-.58-.41-3.6.63-4.24,1.27-.35.35-1.01,2.19-1.11,2.74-.99,5.58,5.92,16.78,9.16,21.43,1.46,2.1,3.15,4.38,4.84,6.32.43.49,3.87,4.01,4.16,4.01.48,0,.95-2.28,1.12-2.69,2.56-6.03,6.91-11.68,9.77-17.69.5-1.04,3.1-6.88,2.59-7.55-.03-.05-1.09.05-1.14.07-.1.03-1.36.89-1.53.96-2.07.84-4.4,1.39-6.03,3.03-.26-1.18-.55.49-1.31.12,1.3-1.47,3.51-1.82,4.97-2.96l5.23-2c1.27-2.41-.21-2.3-2.17-1.83-2.3.55-5.3,2.44-7.05,3.96-.95.82-1.7,2.04-2.41,3.08.33.47,1.02-.36,1.07-.35.14,0,.49.53.36.71-.04.05-.95.15-1.2.36-.89.75.33,3.25.24,4.06-.05.5-1.08,1.2-.95,1.31.52.47.4-.94.95-.36-.61.47-.3,1.89-1.19,1.67.73,1.26.05,3.36.59,4.76l-.36,2.28c-.23-1.86-.22-3.75-.37-5.61-.09-1.19.03-1.61,0-2.54-.02-.71-.6-2.7-1.31-3.07-.34,1.5-.37,3.01-.36,4.54l-1.3-.11c-.08-.79.41-.89.42-.95.11-.73.57-3.58.54-4.07,0-.2-.64-.74-.8-1.31-.34-1.24-.1-3.33-.9-4.59-1.01-1.56-.42.68-.47.77-.01.02-.44-.21-.47-.12-.07.17.28,1.72-.37,2.03.07-2.67.9-4.14-.83-6.5-.85-1.16-3.47-3.46-4.71-4.22-.59-.37-1.45-.22-1.93-.41-.29-.12-.29-.56-.43-.57-.52-.05-.97.56-1.05.49-.03-.03.04-.36-.05-.42ZM16.78,6.38v.24l.12-.12-.12-.12ZM1.03,7.58v.24l.12-.12-.12-.12ZM36.47,9.72c.07-2.32-1.29-2.3-3.14-1.99-.78.13-3.38,1.18-3.95,1.6-.33.25-2.77,2.68-2.88,2.91-.05.11.03.75-.07.83-.02.02-.45-.27-.47-.24-.09.1-.87,2.26-.95,2.63,3.2-2.89,6.86-5.87,11.45-5.73ZM38.61,10.92c.08-.09-.96-2.2-1.07-2.15-1.33.57.78,2.49,1.07,2.15ZM38.5,9.49v.24l.12-.12-.12-.12ZM19.88,10.44v.24l.12-.12-.12-.12ZM37.85,11.68c-.57-.72-1.26.26-.07.67-.03-.18.09-.64.07-.67ZM34.22,26.62c1.66-2.84,4.39-9.02,4.41-12.24,0-.44-.06-1.47-.61-1.5-.07,0-1.21.66-1.25.71-.12.15-.68,3.21-.9,3.78-2.3,6.03-6.13,11.13-9.01,16.53-.29.54-.59,2.01-.66,2.09-.02.02-.45-.27-.47-.24-.47,1.36-1.11,2.53-1.67,3.82l7.88-9.49c.39-1.31,1.64-2.36,2.29-3.47ZM40.28,12.83c-.42-.4-.4.11-.48.35-.45,1.27.02,3.46-.47,4.91.39-.11.59-.95.72-1.31.34-.95,1.07-3.15.23-3.94ZM20.71,14.74c.14-.28-.15-.55-.36-.71-.1.24.24.94.36.71ZM21.19,15.93c.14-.28-.15-.55-.36-.71-.1.24.24.94.36.71ZM21.43,17.13c.17-.34-.15-.64-.23-.48-.17.34.15.64.23.48ZM21.31,17.84v.24l.12-.12-.12-.12ZM39.33,18.8c.17-.34-.15-.64-.23-.48-.17.34.15.64.23.48ZM5.8,19.76c-.24.17.13.33.24.47.24-.16-.11-.32-.24-.47ZM23.34,19.99c-.28-.27-.77.1-.12.48.21.03.13-.46.12-.48ZM6.16,20.71c-1.03-.18.09,1.61.22,2.06,2.43,8.21,7.89,15.85,14.96,21.08.77.57,1.11-.02,1.06-.8,0-.14-.38-.13-.41-.19-.05-.12.15-.32.11-.37-.29-.38-1.4-1.02-1.77-1.33-.22-.18-.79-1.02-.85-1.05-.19-.1-.57.69-.43-.77-.42-.12-.12.58-.35.48-.3-.13-.42-.74-.61-1.02-.52-.8-1.93-1.87-2.48-2.55-.42-.52-.55-1.84-.61-1.92-.1-.12-.56.36-.7.13-.01-.02.2-.28,0-.49-1.48-1.6-2.82-3.77-4.09-5.7-.18-.27-.2-.83-.23-.86-.02-.02-.39.25-.44.22-.25-.18-.25-1.1-.33-1.28-.17-.41-.63-1.38-1-1.31l-2.04-4.31ZM5.09,21.19v.24l.12-.12-.12-.12ZM23.82,22.14c-.34-.17-.64.15-.47.23.34.17.64-.15.47-.23ZM21.55,24.53v.24l.12-.12-.12-.12ZM11.29,28.83v.24l.12-.12-.12-.12ZM10.1,33.84v.24l.12-.12-.12-.12ZM28.95,35.04v.24l.12-.12-.12-.12ZM13.72,38.23c-.18-.22-.51-.29-.75-.57-.57-.7-1.02-1.7-1.68-2.38-.61.44-.15.4-.03.74.95,2.7,5.35,9.09,8.2,9.7.4.09,1.58-.08,1.86-.41.53-.65-.42-.35-.63-.62-.13-.17-.09-.59-.25-.76-.06-.07-1.27-.21-1.72-.56-.51-.38-.44-.86-.69-1.1-.3-.28-1.87-1.01-2.3-1.4-.53-.49-1.52-2.06-2.01-2.64ZM23.46,39.81v.24l.12-.12-.12-.12ZM13.92,41.48v.24l.12-.12-.12-.12ZM21.79,44.35v.24l.12-.12-.12-.12Z"/>
        <path d="M25.73,46.26c-.08.16-.41-.14-.23-.48.08-.16.41.14.23.48Z"/>
      </g>
    </g>
  </g>
</svg>