<?xml version="1.0" encoding="UTF-8"?>
<svg id="Layer_2" data-name="Layer 2" xmlns="http://www.w3.org/2000/svg" viewBox="0 0 100 139.8">
  <defs>
    <style>
      .cls-1 {
        fill: #fff;
      }
    </style>
  </defs>
  <g id="Sketchy_Icons" data-name="Sketchy Icons">
    <g>
      <path class="cls-1" d="M80.16,8.94c.77.82,1.51,2.44,2.22,3.46,8.92,12.77,14.93,29.61,16.7,45.8.3,2.72,1.5,5.1-.05,7.95l.97-.26c-.7,2.11-.17,4.4-.29,6.47-.78,14.01-3.99,27.74-7.88,40.2-.35,1.13-2.03,7.3-2.41,7.5-1.51.77-.68-3.61-.59-4.04.66-3.29,2.37-7.01,3.17-10.12,8.73-33.89,8.38-62.31-11.37-92.26-.3-.45-.25-1.35-.31-1.41-.05-.05-.83.53-.92.46-.11-.08-.55-1.67-1.25-2.46-2.17-2.44-7.37-5.97-10.33-7.11-.97-.37-2.63.11-3.46-1.23-1.16,2.29.92,1.98,2.23,3.19,1.73,1.58,3.16,4.2,4.27,5.21,1.48,1.35,4.65,1.76,6.76,3.43,18.67,14.72,15.61,63.58,11.23,84.69-.38,1.84-1.88,5.61-2.1,6.73-.45,2.26-1.41,14.9-1.99,15.42-2.18,1.97-.82-7.37-1.23-7.39-.2,1.51-2.04,2.78-2.5,3.58-.39.68-1.03,3.72-1.78,4.22-.1.07-2.37,0-2.36-.17.03-.41.67-.09.95-.63,5.68-10.74,8.27-17.6,9.37-29.91,2.25-25.14-.34-49.59-13.08-71.59-2.71-4.68-4.26-7.99-9-2.61-4.39,4.97-6.79,14.3-7.67,20.74-.78,5.75,1.08,7.87,2.09,12.72.68,3.25,2.56,14.95-.86,16.64-.7.34-4.56-3.47-4.9-4.09-3.87-6.95-2.62-17.9-3.5-25.45-.62-5.36-7.86-11.1-12.76-12.75-4.18-1.41-8.43-1.59-13.23.33-.31.12-.9-.21-.96-.12-.14.21.13.94-.17,1.3-.54.66-1.38.38-2.83,2.71-6.9,11.08-8.38,22.31-6.35,36.52,3.73,26.07,21.39,53.22,47.58,62.66,6.71,2.42,13.61,3.93,20.73,4.11.61,1.3-1.14.85-.98,1.23.49,1.18,1.88.17,1.96.25.59.65-1.96,2.51-2.71,2.44-.88-.07-1.13-.82-1.47-.97-.42-.18-.07.95-.52,1-1.36.14-4.19-.75-5.49-.89-11.87-1.26-19.38-4.73-29.29-10.31-.56-.31-1.56.04-1.79-.18-.33-.31.43-1.6-.53-1.43-.16,1.09.02,1.66.7,2.51.68.85,4.37,3.59,5.45,4.38,3.93,2.9,9.1,6.01,13.76,7.62.92.32,5.95,1.01,6.15,1.25.06.08-.6,1.84-.98,1.46-.09-.09.16-.77-.23-.9-.6-.19-3.3.45-3.96.33-13.72-2.43-25.09-16.65-34.52-25.22C6.43,94.49-8.52,69.28,5.41,39.37c5.03-10.79,22.31-27.02,35.08-21.86.87.35,5.24,3.09,5.78,3.69,1.18,1.3,2.5,4.95,4.06,6.28.84-6.6.98-17.52,4.71-23.12C55.73,3.32,59.82.15,61.01,0c.3-.04,4.03.16,4.46.25,4.48.85,11.56,5.39,14.68,8.69ZM61.4,1.88v.49l.25-.25-.25-.25ZM63.37,2.37v.49l.25-.25-.25-.25ZM61.53,3.96c-1.94-.67-4.87,2.62-5.71,4.15-1.52,2.76-3.24,18.99-2.99,22.55.11,1.57,1.66,5.38,2.68,6.68,2-7.48,3.08-16.21,8.11-22.4,1.38-1.7,5.12-3.27,5.4-3.95.2-.49-3.34-3.51-3.61-4.5-.96-.94-2.22-1.19-3.38-1.69-.37-.16-.42-.8-.5-.83ZM76.78,14.84c-.14-.1-.59.13-.86,0-.93-.45-1.07-1.61-2.47-.41,1.42,1.82,2.88,3.85,3.93,5.9,6.23,12.09,10.98,26.77,11.88,40.32l.9,4.26c.36-2.99.16-6.08.01-9.13-.49-10.08-1.81-20.38-5.82-29.61-.91-2.1-5.87-10.1-7.57-11.32ZM34.11,17.64c-.05.06-.35,1.2-.26,1.46,1.17-.57.66-1.96.26-1.46ZM45.91,25.02c.58-2-8.01-7.34-8.35-6.89-1.27,1.66,2.25,1.88,2.91,2.26.64.37,3.22,2.13,3.39,2.28.48.42.9,2.18,2.06,2.36ZM30.42,18.62v.49l.25-.25-.25-.25ZM36.81,18.62v.49l.25-.25-.25-.25ZM25.99,20.1v.49l.25-.25-.25-.25ZM36.08,21.57l-.98-.98c-.14,1.03-.05,1.12.98.98ZM37.05,22.06c.35-.69-.31-1.31-.48-.98-.35.69.31,1.31.48.98ZM39.27,22.07v.49l.25-.25-.25-.25ZM40.75,23.05v.49l.25-.25-.25-.25ZM46.64,25.52c-.48.34.26.68.5.96.49-.32-.23-.65-.5-.96ZM25.74,108.73c.31-.45-4.65-8.18-5.34-9.66-8.7-18.75-12.53-44.58-7.22-64.72.46-1.74,1.66-3.21,1.5-4.9C5.39,38.37,1.93,51.4,2.36,64.69c.57,17.27,9.28,30.58,21.41,42.35.52.5.38,1.34.59,1.6.04.05,1.34.15,1.38.1ZM53.53,43.24v.49l.25-.25-.25-.25ZM54.76,54.57v-7.63c0-.17-1.3-4.09-1.49-1.95l.03,3.87,1.46,5.72ZM57.71,59.49c.35-.69-.31-1.31-.48-.98-.35.69.31,1.31.48.98ZM57.47,61.95v.49l.25-.25-.25-.25ZM89.92,65.4v.49l.25-.25-.25-.25ZM89.92,66.39v.49l.25-.25-.25-.25ZM89.92,68.35v.49l.25-.25-.25-.25ZM90.16,71.31c.34-.76-.24-2.01-.48-1.47-.34.76.24,2.01.48,1.47ZM15.18,77.71v.49l.25-.25-.25-.25ZM15.91,80.17c.35-.69-.31-1.31-.48-.98-.35.69.31,1.31.48.98ZM16.65,82.14v.49l.25-.25-.25-.25ZM16.9,83.62c-.3.65.11,1.58.74,1.96.18-.55-.46-2.56-.74-1.96ZM18.86,88.54c.35-.69-.31-1.31-.48-.98-.35.69.31,1.31.48.98ZM19.35,89.04c-.06-.05-1.03-.18-.97.24,2.29,3.81,3.68,8.66,5.71,12.5,1.78,3.37,7.48,12.11,10.28,14.33,4.51,3.59,10.98,6,15.74,9.35-.78-2.98-4.72-3.77-6.89-5.41-8.7-6.57-16.09-16.38-21.65-26.08-.5-.86-1.97-4.73-2.21-4.93ZM26.98,109.72v.49l.25-.25-.25-.25ZM39.76,121.54v.49l.25-.25-.25-.25ZM40.25,122.53c-.48.34.26.68.5.96.49-.32-.23-.65-.5-.96ZM51.57,124.98v.49l.25-.25-.25-.25ZM52.79,125.97c.35-.69-.31-1.31-.48-.98-.35.69.31,1.31.48.98ZM53.77,126.95c.35-.69-.31-1.31-.48-.98-.35.69.31,1.31.48.98ZM54.52,126.46v.49l.25-.25-.25-.25ZM59.43,128.43v.49l.25-.25-.25-.25ZM69.76,131.88v.49l.25-.25-.25-.25ZM74.19,131.88v.49l.25-.25-.25-.25ZM80.58,131.88v.49l.25-.25-.25-.25ZM75.66,132.37v.49l.25-.25-.25-.25ZM76.64,132.38c-.48.34.26.68.5.96.49-.32-.23-.65-.5-.96ZM79.84,132.37c-.54-.54-1.51.44-.98.98s1.51-.44.98-.98Z"/>
      <path class="cls-1" d="M84.26,132.86c-.2.25-1.38-.96-.97-1.48.2-.25,1.38.96.97,1.48Z"/>
      <path class="cls-1" d="M69.51,138.28c-.42,1.07-.82,1.17-1.47.24l1.47-.24Z"/>
      <path class="cls-1" d="M71.48,139.26s-1.04.19-.98-.24c.77-1.34,1.54-.33.98.24Z"/>
    </g>
  </g>
</svg>