<?xml version="1.0" encoding="UTF-8"?>
<svg id="Layer_2" data-name="Layer 2" xmlns="http://www.w3.org/2000/svg" viewBox="0 0 63.86 49.99">
  <g id="Hearts">
    <g id="Layer_7_Image" data-name="Layer 7 Image">
      <g>
        <path d="M23.01,1.36c1.32.76,2.91,2.45,3.93,3.6,1.34,1.51,3.29,4.04,4.29,6.01.19.37,0,.75.03.78.1.06.47-.06.63.07.19.16,1.98,3.98,2.11,4.48.37,1.4-.35,2.71,1.29,1.31,3.15-2.69,5.74-6,8.98-8.72,2.39-2,4.6-3.51,8.08-4.29.2-.04.17-.47.31-.47,1.96-.07,4.34.99,5.61,2.51s.46,1.03,2.23,2.29c3.32,2.35,3.94,6.85,2.92,10.75-.17.66-1.74,4.53-2.02,4.86-.2.25-.57.08-.7.17-.04.03.12.49-.27.98-1.93,2.46-4.54,4.32-6.1,7.13-.31.56.2,1.07-.6.81.66,1.24-.13.66-.46.86-.02.02.16.36,0,.58-.24.35-.8.47-.91.66-1.47,2.3-1.83,3.1-4.29,4.79-.2.14-.23.52-.44.64-.23.13.05-.61-.36-.48-.03.24.24.44.18.67-.09.37-2.93,1.36-3.02,1.51-.14.22.06.82-.03.91-.05.06-1.46.26-1.54.26-.15-.01-.13-.5-.24-.49-.4.03-1.75.7-2.16.69-.56-.01-1-.58-1.47-.63-.72-.07-1.32.71-2-.07-.74,1.28.92.61,1.19.96.64.82-4.15.66-4.43,0v.48s-5.16-1.1-5.16-1.1c-.82-.17-5.94-2.45-6.2-2.24-.16.13,1.84,2.66,2.03,2.87,1.06,1.16,3.02,2.97,4.07,3.57.22.13,2.71,1.24,2.27,1.68-.36.36-3.83-1.77-4.35-2.15-1.7-1.21-2.84-2.79-4.26-4.35-2.66-2.93-2.69-2.48-5.89-4.2-4.16-2.23-7.83-5.79-10.21-9.87C3.11,24.17,1.51,19.51.33,13.87-.74,8.8.68,3.83,6.28,2.72c2.01-.4,2.47.1,4.52-.98.2-.11.26-.56.39-.66.15-.11,3.1-.9,3.55-.95,2.77-.29,5.79-.2,8.26,1.23ZM18.84,1.2c-.06-.04.02-.45-.15-.42-.44.08-.98.8-1.92.24l-1.55.35c.68.6,1.6.54,2.4.94,2.66,1.34,4.48,4.79,6.2,7.12,1.27,1.73,2.81,3.2,3.99,5.28,1.03,1.82,1.74,3.85,2.34,5.79l1.08,2.26c.44-1.38,2.08-2.46,2.18-3.93.18-2.87-2.19-6.07-3.62-8.36-.28-.45-1.09-2.42-1.19-2.52-.02-.02-.36.25-.44.2-.2-.12-2.29-3.06-2.89-3.67-.45-.46-1.44-.96-1.7-1.23-.22-.23-.44-.99-.49-1.02-.08-.05-.44.29-.66.2-.1-.04-1.32-1.05-1.63-1.14-.33-.09-1.88-.03-1.96-.08ZM14.98,1.49c-.21-.85-1.44-.43-.96,0,.07.06.72-.04.96,0ZM16.29,2.21v.24l.12-.12-.12-.12ZM17.85,3.41s-1.15-.52-1.19-.48c-.69.62,2.18,1.28,1.19.48ZM15.63,3.72l-3.04-.55c-.14.65.2.41.47.59.86.57,3.27,2.07,4.21,2.03,1.73-.08-1.42-1.58-1.64-2.07ZM8.04,3.41c-.71.6-1,.06-2.02.32-1.23.3-1.59.73-2.58,1.51-.08.06-.37-.08-.55.07-.33.28-.12.61-.18.68-.13.16-.53.17-.74.54-.71,1.26-.88,2.56-1.23,3.93l.62,4.18,1.67-4.66c1.28-2.27,2.6-4.36,4.63-5.88.27-.21.5-.25.4-.68ZM12.87,5.04c-.2-.16.5.01-.44-.39-.85-.36-1.52-.91-2.54-.3-.6.35-1.28,3.93-1.12,4.07.26.23,2.13-1.5,2.66-1.76s2.75-.75,2.84-.87c.29-.37-1.33-.7-1.39-.75ZM18.56,4.12c-.28-.27-.77.1-.12.48.21.03.13-.46.12-.48ZM19.28,4.6s-.5-.09-.47.12c.34.4.53.9.85,1.31.09.11,1.12,1.16,1.3.96-.4-.41-1.44-2.18-1.68-2.38ZM53.05,5.23c-.07-.03-.06-.36-.16-.36-.38,0-.99.24-.72.68-2.3.08-4.13,1.66-5.93,2.94-.15.1-.5-.02-.54,0-.08.05.09.41-.1.53-.1.06-.42-.13-.46-.08-.13.14-.18,1.08-.28,1.15-.03.02-.4-.26-.7-.12-.27.12-.56.63-.85.86-.2.16-.59-.06-.59.1,0,.11.31.37.2.55-.09.16-1.38.54-1.17,1.24,5.5-1.56,10.25-5.99,16.26-4.78-.7-1.16-2.2-2.57-3.57-2.75-.58-.08-.52.37-1.39.03ZM7.47,10.72c.56-1.74.37-3.07.81-4.81-1-.07-.57.67-.84,1.06-1.98,2.91-3.16,5.12-3.45,8.74-.37,4.5.46,6.18,2.86,9.73.68,1,1.84,2.23,2.6,3.2,2.24,2.89,4.52,5.93,7.81,7.72-.44-.7-.86-1.57-1.35-2.23-1.48-1.97-3.3-3.67-4.68-5.82-.3-.46-1.16-2.59-1.28-2.68-.05-.04-.42.25-.45.22-.89-.87-3-7.93-3.12-9.43-.23-2.92.35-3.39,1.1-5.72ZM17.29,7.79c-2.42-2.03-5.13-1.03-7.19,1.01-.14.14-.52.12-.72.35-.25.29-.55,1.11-.6,1.51-.2,1.86,1.56,8.08,2.19,10.06.96,3.01,2.84,7.16,4.55,10.22,2.93,5.26,7.66,8.97,13.57,10.56,2.18.59,7.05,1.59,9.18,1.3.33-.04,2-.79,2.06-.7.13.19-.77.89.59.91,2.21.02,5.41-1.97,7.11-3.31,1.3-1.02,3.98-4.2,4.74-5.6.18-.34.33-.86-.12-.83-.27.02-1.03,1.46-1.31,1.74-.24.24-1.16.57-1.44.82-.73.66-1.01,2.13-2.38,1.86.9.88.3.41-.15.69-1.19.73-2.06,1.85-3.45,2.61-.25.14-.67.03-.81.13-.28.2-.09.69-.14.75-.09.1-.5-.26-.68-.19-.08.03-.3.76-1.35.66-1.32-.12.02-.63.19-1.02.14-.31-.14-.82-.06-.88.05-.05.4.04.61-.1,3.28-2.28,5.97-3.81,8.2-7.23s4.54-8.09,5.47-11.97c.29-1.22.41-2.62.54-3.87l-1.55,3.13c-.73,2.59-3.02,5.09-4.56,7.38-.12.18-.53.22-.56.27-.14.26.44-.05-.47,1.08-1.83,2.26-3.73,4.14-5.33,6.26-.05.07-.43-.22-.57.04-.05.08.17.45.13.48-.15.08-.44-.27-.72-.13-.22.11.01.77-.36.84s-.75-.51-.59-.71c.02-.03.4-.04.6-.24,4.16-4.39,11.46-12.93,12.96-18.83.41-1.6-.31-2.21-1.76-2.9-1.54-.74-4.22-1.12-5.94-.62-2.51.72-5.78,3.51-7.21,5.71-.2.31-.29,1.08-.33,1.11-.12.09-.66-.3-.71-.24-.03.03-.04.59-.19.88-.79,1.53-2.04,2.98-2.87,4.3-.27.43-.67,1.73-.99,2.08-.26.29-.66.1-.74.15-.04.03.32.51.02,1.02-.37.62-1.77.93-1.84,1.01-.16.16-.84,3.8-.94,4.41-.06.37.36,2.07-.83,1.33-.74-.46.02-1.5-.71-1.8-.2.61,0,1.3-.71,1.07.59,1.3-.85.76-1.15-.28-.76-2.62-.96-6.77-1.59-9.64-1.36-6.13-4.13-12.5-9.06-16.63ZM18.77,6.8s-.95.15-1.15-.17c1.49,1.64,5.6,6.2,2.08.94-.74.17-.73-.64-.93-.77ZM4.93,9.14c.17-.34-.15-.64-.23-.48-.17.34.15.64.23.48ZM57.98,8.73c-.18-.07-.53.2-.79.18-2.27-.19-3.16-.26-5.39.42-2.69.82-.61.6.54.83,2.3.46,3.78,1.65,4.41,3.95.33,1.21,1.08,5.37,1.15,6.61.04.65-.72,1.69.24,1.8.46-.32-.64-.19-.35-.48.03-.03.38.07.55-.3,1.33-2.89,1.54-8.85.51-11.88-.45-1.32-.44-.67-.78-.8-.06-.02-.05-.32-.09-.34ZM26.46,18.45c-1.44-2.97-2.2-6.28-3.94-9.08-1.73-1.15-.28.47.14,1.32.16.32.3.68.45,1,.98,2.09,1.68,4.26,2.76,6.29.18.34-.01.59.6.46ZM61.05,10.65c-.11-.12-.82-.88-.88-.91-.43-.27-.5.74-.42.96,1.3,3.59.33,9.36-.91,12.56-.5,1.29-1.43,2.54-1.43,4.03,3.65-3.35,6.34-8.31,5.28-13.39-.17-.8-.53-1.26-.74-1.9-.12-.37.13-.57.12-.6-.07-.26-.55.23-.69.12-.06-.04-.1-.6-.34-.88ZM4.46,10.1s-.73-.1-.67.11c-.53,2.47-2.29,5.59-.88,8.01.22-2.32.35-4.62,1-6.88.09-.31.61-1.2.55-1.24ZM50.01,10.1v.24l.12-.12-.12-.12ZM21.67,10.58c-.5-.07-.54-.02-.48.48l.48-.48ZM50.31,11.2c-.36.09-.78-.12-1.02-.39.23.8-.34.35-1.07.59-.37.12-1.36.28-1.19.84.57-.39,4.61-.78,4.78-.96.53-.56-1.13-.48-1.28-.46-.17.03-.18.36-.21.37ZM13.54,29.68c-1.32-3.36-2.89-6.59-3.89-10.08l-1.97-8.07c.23.85-.36,1.63-.45,2.28-.71,5.19,2.58,10.23,5.11,14.5l1.2,1.37ZM4.58,12.01v.24l.12-.12-.12-.12ZM46.78,12.48s.09-.51-.12-.48c-.65.37-.16.75.12.48ZM51.2,12.01v.24l.12-.12-.12-.12ZM55.15,14.16c.05-.07.03-.85-.04-1.03-.45-1.28-5.94-1.12-2.13-.26.27.09,2.06,1.44,2.17,1.29ZM29.8,26.34c-.19-.93.77-1.67.65-2.55-.29-2.27-2.02-5-2.71-7.22l-2.72-4.09c.74,1.76,1.54,3.55,2.16,5.36.74,2.17,1.05,4.37,1.73,6.62.17.55.41,1.55.89,1.87ZM44.15,12.72c-.52-.44-.86.54-.94.58-.49.25-1.44.67-1.87.83-.33.13-1.21.21-1.25.26-.02.02.23.31.17.42-.22.4-1.72,1.06-2.15,1.48l-1.6,2.39,4.83-4.22c.12-.07.42.07.58-.03.19-.11,2.73-1.31,2.23-1.72ZM41.16,12.96v.24l.12-.12-.12-.12ZM39.44,18.05c.28-.37,1.36-.68,1.24-1.5-1.71,1.16-3.21,2.54-4.44,4.17-.33.44-1.82,2.75-2.05,3.23s-.39,1.85-.61,2.11c-.32.38.02-.51-.36.47-.29.75-.92,2.23.27.75,2.07-2.57,3.85-6.45,5.95-9.23ZM26.34,18.7v.24l.12-.12-.12-.12ZM34.71,19.17v.24l.12-.12-.12-.12ZM52.36,31.44c.16-.2.53-.27.74-.57,2.35-3.18,4.26-7.19,3.72-11.22l-1.67,5.14c-1.13,2.53-2.1,5.08-3.6,7.34-.1.15-1.25.83,0,.89.22-.41.56-1.28.8-1.59ZM33.27,20.85v.24l.12-.12-.12-.12ZM3.5,21.33c-.34-.17-.64.15-.48.23.34.17.64-.15.48-.23ZM32.91,22.76s.04-1.11,0-1.19c-.22-.49-.77,2.07,0,1.19ZM26.94,22.76c.75,2.37.67,4.86,1.55,7.16l-.38-4.16-1.18-3ZM31.72,24.19c.64-.27.71-.86.47-1.43-.5.09-.46,1.04-.47,1.43ZM5.53,25.15c.07.59.59,1.21.96,1.66-.05-.62-.51-1.26-.96-1.66ZM30.04,27.05c.47.42,1.19-1.25.95-1.67-.17.2-1.03,1.61-.95,1.67ZM6.85,27.53c.17-.34-.15-.64-.23-.48-.17.34.15.64.23.48ZM7.09,27.3c-.14.28.15.55.36.71.1-.24-.24-.94-.36-.71ZM30.52,27.3c-.26-.26-.74.21-.48.48s.74-.21.48-.48ZM30.16,28.01v.24l.12-.12-.12-.12ZM8.64,29.21v.24l.12-.12-.12-.12ZM8.16,30.16v.24l.12-.12-.12-.12ZM28.61,33.03c.45-.19,1.02-1.7.95-2.02-.07-.34-.59-.17-.72-.27-.24-.18-.11-.65-.47-.57l.24,2.87ZM9.35,31.73l-1.06-.98c1.7,2.14,3.83,4.29,6.1,5.85.38.26,1.07.75,1.54.72l-6.59-5.59ZM30.88,31.12v.24l.12-.12-.12-.12ZM53.48,33.27l-.48-.48c-.07.5-.02.54.48.48ZM50.73,33.27v.24l.12-.12-.12-.12ZM17.13,37.81c-.5-.52-1.36.02-.12.47.21.03.14-.46.12-.47ZM20,37.81s-.51-.09-.48.12c.37.65.75.16.48-.12ZM20.36,38.05v.24l.12-.12-.12-.12ZM21.67,38.77c-.37-.17-.97.12-.71.23.37.17.97-.12.71-.23ZM22.75,39.48v.24l.12-.12-.12-.12ZM39.73,42.59v.24l.12-.12-.12-.12Z"/>
        <path d="M44.87,43.54c-.08.16-.41-.14-.23-.48.08-.16.41.14.23.48Z"/>
        <path d="M31.24,49.75c-.08.16-.41-.14-.23-.48.08-.16.41.14.23.48Z"/>
        <polygon points="45.47 43.78 45.59 43.9 45.47 44.02 45.47 43.78"/>
        <polygon points="31.6 49.75 31.72 49.87 31.6 49.99 31.6 49.75"/>
        <path d="M41.28,36.85c-.5.07-.54.02-.48-.48l.48.48Z"/>
      </g>
    </g>
  </g>
</svg>