<?xml version="1.0" encoding="UTF-8"?>
<svg id="Layer_2" data-name="Layer 2" xmlns="http://www.w3.org/2000/svg" viewBox="0 0 100 118.61">
  <defs>
    <style>
      .cls-1 {
        fill: #fff;
      }
    </style>
  </defs>
  <g id="Sketchy_Icons" data-name="Sketchy Icons">
    <path class="cls-1" d="M46.15,10.52c.59.64,4,5.6,4.35,6.36.51,1.13,1.26,5.1,1.47,5.27.25.19,4.6-2.86,5.41-3.3,7.63-4.14,18.93-7.77,27.61-8.27,4.56-.26,10.65.36,13.38,4.51,3.85,5.86-.04,18.32-2.24,24.6-1.63,4.64-1.72,4.38-2.72,9.54-2.69,13.92-7.67,21.93-14.2,33.91-.31.56-.32,1.68-.38,1.75-.04.04-.9-.52-.93-.48-.07.08-.14,1.35-.55,2.05-4.75,8.21-10.61,16.05-14.29,24.37-.56,1.26-1.55,4.78-3.05,3.27-.26-.26,1.44-6.15,1.86-7.04-2.89-.63-2.01-.37-3.42.77-.13.1-.68-.19-.74-.09-.09.17-.05,2.63-.55,2.86-.28.13-1.38-.19-1.43-.25-.39-.45,1.89-4.06,1.41-4.72-.05-.06-.63.44-.85.33-5.81-2.91-10.31-6.27-14.68-10.09-2.19-1.92-4.88-4.41-6.92-6.44-.67-.67-.71-1.98-1.57-2.19.24,1.62,1.5,3.55,2.38,4.94,4.27,6.77,8.53,12.82,15.9,16.15,1.76.79,4.79.46,2.22,2.48v-1.4c-1.6,1.88-.97.23-1.39.1-.13-.04-2.79-.33-2.61.37,2.15,1.04,4.08,3.3,6.13,4.38,3,1.58,7.03,2.46,10.36,2.23.15,1.79-4.7,2.27-5.71,2.1-5.63-.93-13.22-5.64-17.09-10.18-2.08-2.44-5.59-5.27-8.3-8.21C19.6,83.45-1.5,45.19.08,21.92.66,13.41,3.54,5.77,11.58,1.78c9.84-4.88,27.43.99,34.57,8.74ZM20.38,1.87C8.19,1.66,2.18,11.81,1.82,23.03c-.12,3.74.72,8.72,1.84,12.32-.5-7.91-.2-14.82,3.44-22.02,3.06-6.07,6.22-7.77,12.25-10.4.67-.29,1.29.31,1.04-1.06ZM34.43,5.77c-.21-.11-.79.32-1.28.09-5.48-2.55-8.78-3.04-14.69-.99-.73.88-6.54,3.6-6.55,4.31s.98.51,1.4.49c9.38-.45,25.52,3.2,32.48,9.94,1.61,1.56,2.48,3.15,3.81,4.9-.47-.81-1.27-4.52-1.41-4.72-.03-.04-.9.52-.94.48-.07-.09.15-.81-.15-1.26-2.13-3.18-4.37-5.16-7.03-7.7-.79-.76-5.28-5.35-5.64-5.53ZM41.83,8.94v.47l.24-.24-.24-.24ZM11.2,9.88v.47l.24-.24-.24-.24ZM43.22,10.61c-.34-.34-.01-.89-.68-.73-.16.86.52,1.56,1.41,1.41.16-.67-.38-.34-.73-.68ZM19.44,11.78c-.18-.2-4.88-.53-5.37-.47-5.27.58-4.43,6.63-4.05,10.37.65.8,3.02-4.04,3.46-4.55,1.21-1.4,3.9-3,5.37-4.27.25-.21,1.27-.32.6-1.08ZM43.95,12.71c.05.05,1.15.33,1.4.24l-1.17-1.18c-.41-.06-.27.9-.23.94ZM84.01,12.25c-.1-.11-1.82.4-1.88.48-1.22,1.5,3.4,1.21,1.88-.48ZM97.2,29.69c.11-.1.57-2.28.67-2.78.16-.8.39-6.21.33-6.89-.04-.47-1.45-4.21-1.7-4.5-.17-.2-4.07-2.63-4.34-2.7-.94-.25-7.14-.54-7.68-.11-1.64,1.33,2.86.56,3.16.61,3.07.46,7.75,3.19,8.51,6.38.18.77-.19,1.44-.1,2.04.41,2.59,1.14,5.29.21,7.94.29-.02.86.07.94,0ZM81.65,12.71c-.3-.29-4.75,1.69-5.43.48.68,1.99-2.72.86-3.7.95-.3.03-4.58,2.47-5.11,2.65-.23.08-2.38.61-2.5.62-.46.05.14-1.15-.68-.93.06,1.59-.68,2.43-2.14,1.43-.21.25.24.81.18.87-.2.18-3.84,1.26-4.96,1.86-.59.31-4.57,3.09-4.73,3.51-.52,1.38.58,2.44,1.02,3.63.19.51-.82,2.12,1.67.24,10.12-7.62,12.75-9.8,25.21-13.91.52-.17,1.83-.77,1.2-1.39ZM30.28,16.02c-.13.12-2.11-1.43-3.18-1.72-4.83-1.28-11.88,3.13-14.07,7.55-1.87,3.79-1.64,4.83-.42,8.79,2.77,8.95,9.58,19.47,14.27,27.7,7.18,12.62,16.01,29.81,27.2,38.32.75.57,4.88,3.78,5.2,3.78.84-.01,6.6-13.14,7.64-14.96,4.52-7.92,10.41-15.72,14.94-23.73,5.59-9.88,13.86-21.39,6.1-32.39-.69-.97-4.46-4.58-5.59-4.85-.25-.06-.18,1.72-1.18.94-.29-.23,1.18-.75-.12-.84-1.78-.13-3.76-.57-5.53-.37-3.27.38-6.22,2.06-9.43,2.63,1.18,1.18-1.44,1.31-2.77,2.18-2.24,1.46-6.94,5.84-7.73,8.34-.51,1.62.91,3.51-1.06,3.64-.44.03.1-1.17-.69-.95-.06,1.11-.38,7.05-1.88,3.88-1.18-2.49-.66-13.12-3.8-4.11l-.91,4c-1.82-3.03,1.89-7.4,1.92-9.19.03-2.11-2.38-4.55-2.76-6.7-3.72-5.74-7.44-7.1-12.53-10.12-1.26-.75-2.39-1.68-3.37-2.76-.48-.05-.1.82-.24.94ZM46.07,13.66v.47l.24-.24-.24-.24ZM7.9,15.07v.47l.24-.24-.24-.24ZM90.44,16.24c-3.63-1.22-5.31-.97-8.96-.5-6.73.87-19.36,7.6-24.37,12.26-.72.67-3.54,3.65-2.79,4.52.31.37,7.08-5.19,7.86-5.57,11.31-6.61,31.61-15.58,31.49,6.05,1.66-4.56,1.66-11.43-1.39-15.33-.25-.32-1.55-1.32-1.85-1.42ZM9.07,46.67c-.89-5.68-.92-11-.71-16.75.04-1.07.69-2.15.71-3.3.08-3.38-1.59-6.74-1.65-10.14-.88,1.14-1.24,3.19-1.52,4.6-1.13,5.77-.72,11.07.12,16.84l3.04,8.74ZM42.07,19.31l-1.41-1.41c-.16.89.55,1.57,1.41,1.41ZM45.36,21.67c-1,.75-1.49-2.23-2.82-1.88,1.08,1.7,2.57,2.8,4.01,4.23l-.72-3.29c-.83-.21-.31.82-.47.94ZM89.5,24.19c-2.98-3.93-6.4-2.66-10.67-2.52-.4,1.39.16.58.72.76,4.91,1.6,7.36,1.55,10.43,6.48.18.29,1.35,4.46,2.04,2.9.33-.76-1.79-6.68-2.51-7.63ZM96.73,31.11c.34-.66-.3-1.26-.46-.94-.34.66.3,1.26.46.94ZM11.19,32.27c-.32-.36-.08-.83-.7-.68-.14,9.79,2.9,19.84,6.83,28.77,5.66,12.87,16.11,25.84,26.62,35.14,1.4,1.24,12.81,9.96,14.14,8.72.1-.09.93-2.46.94-2.6,0-.25-3.87-1.52-4.65-1.93-.47-.25-5.03-3.48-5.25-3.72-.82-.89.09-2.11-1.32-1.28-1.34-3.07-4.75-5.56-6.51-8.1-.44-.63-.67-1.59-1.21-2.36-2.16-3.08-5.33-7.49-7.47-11.02-1.4-2.31-3.15-7.37-4.47-9.13-.33-.44-1.04.04-1.11-.03-.79-.94-2.07-6.37-2.42-7.01-.03-.05-.74.55-1.15.03-1.67-2.09-3.06-6.15-4.3-8.48-1.9-3.54-4.12-7.06-5.79-10.71-.9-1.97-.73-3.94-2.19-5.62ZM95.56,34.41v.47l.24-.24-.24-.24ZM4.83,35.83c-1.59-1.18-2.09,1.85-.23,2.82-.63-.6.34-2.73.23-2.82ZM95.09,35.83v.47l.24-.24-.24-.24ZM4.6,39.13v.47l.24-.24-.24-.24ZM5.3,40.07c-1.51-1.33-.74,2.43.48,1.41.06-.05-.42-1.36-.48-1.41ZM5.78,45.73c1.56-.45.59-2.84-.47-3.3l.47,3.3ZM7.18,48.09c.34-.66-.3-1.26-.46-.94-.34.66.3,1.26.46.94ZM9.78,48.09v.47l.24-.24-.24-.24ZM7.9,49.98v.47l.24-.24-.24-.24ZM9.54,52.34c-.66-.34-1.26.3-.94.46.66.34,1.26-.3.94-.46ZM10.01,54.22c.34-.66-.3-1.26-.46-.94-.34.66.3,1.26.46.94ZM10.07,55.56c-.14-.14-.04-.61-.06-.86l.94,1.88c.37-2.3-.7-.83-.88-1.02ZM12.71,58.59c-.2-.45-1.75-.2-.81-2.01-2.08.99.14,3.97.87,5.5,2.91,6.09,6.76,12,9.66,17.93l4.55,5.81c-1.97-3.85-4.05-7.66-6.13-11.46-2.58-4.72-5.71-10.4-8.15-15.78ZM89.43,57.05v.47l.24-.24-.24-.24ZM86.61,57.99v.47l.24-.24-.24-.24ZM89.19,59.41c.34-.66-.3-1.26-.46-.94-.34.66.3,1.26.46.94ZM84.77,64.42c.43-.95,1.26-2.98,1.5-3.94.11-.45.46-1.67-.36-1.54-.14.61-.22,1.45-.52,1.98-5.76,10.01-12.69,19.56-18.43,29.77-1.68,2.98-5.97,10.41-6.43,13.41-.21,1.38,1.02,2.33,1.92.91,1.35-2.15,1.99-3.84,3.1-5.83,6.31-11.31,13.88-23.08,19.23-34.75ZM88.72,59.88c-.51-.51-1.45.42-.94.94s1.45-.42.94-.94ZM87.55,62.24v.47l.24-.24-.24-.24ZM86.61,64.6v.47l.24-.24-.24-.24ZM85.66,65.54v.47l.24-.24-.24-.24ZM85.43,66.49c-.07.13-.26,1.48-.25,1.87,1.25-.57.56-2.47.25-1.87ZM84.48,70.25c.34-.66-.3-1.26-.46-.94-.34.66.3,1.26.46.94ZM83.31,71.2v.47l.24-.24-.24-.24ZM81.18,76.86l1.41-4.24c-.58.37-1.39,2.23-1.61,2.86-.16.47-.74,1.44.2,1.38ZM76.71,83.46v.47l.24-.24-.24-.24ZM32.16,86.76c.34-.66-.3-1.26-.46-.94-.34.66.3,1.26.46.94ZM28.6,88c-.41-.44-.57-1.13-1.14-1.23-.36,1.6.57,1.69,1.88,1.88.18-.7-.47-.37-.73-.65Z"/>
  </g>
</svg>