<?xml version="1.0" encoding="UTF-8"?>
<svg id="Layer_2" data-name="Layer 2" xmlns="http://www.w3.org/2000/svg" viewBox="0 0 100 113.63">
  <defs>
    <style>
      .cls-1 {
        fill: #fff;
      }
    </style>
  </defs>
  <g id="Sketchy_Icons" data-name="Sketchy Icons">
    <g>
      <path class="cls-1" d="M39.29,3.28c6.14,4.64,9.64,16.18,11.5,23.4.31,1.21-.1,4.08,1.41,1.89s2.73-5.37,4.59-7.82c5.75-7.57,15.6-12.66,24.72-7.67.81.44,2.55,2.28,3.12,2.39.88.17,2.98-.79,4.65-.52,7.88,1.31,9.97,9.8,10.49,16.69.93,12.4-.86,21.52-5.86,32.65-.22.5-.8.42-.97.86-.84,2.26-.17.45-.75,1.16-.03.03.14.54-.1.87-5.93,8.22-8.65,16.1-16.18,23.43-.48.47-.79,2.25-1.01,2.43-.07.06.09-.58-1.24.67-5.79,5.43-10.56,8.15-17.61,11.84-1.08.56-2.69,1.64-3.58,2.51l-.22-2.14-.43,1.28c-.75.22-.21-1.03-.64-.85-.21.09-3.35,2.78-3.44,2.99-.59,1.46,1.41,1.23,1.51,1.3.05.04-.39,1.23-.43,1.28-.17.19-2.39-1.63-4.86.05-.45.3-.62,1.04-.81,1.15-.28.16-1.74-.48-2.26.5-.43-.67.88-.73.99-.91.89-1.41-2.6-2.02-3.78-2.71-15.63-9.02-23.72-22.15-30.76-38.64C.8,56.04-5.67,22.35,8.3,9.71c3.26-2.95,5.92-2.07,8.82-3.38,1.32-.59,2.92-2.84,4.35-3.78,5.62-3.67,12.43-3.32,17.81.74ZM34.59,2.86c-2.68-.91-8.29-.81-10.44.44-3.07,1.78,1.69,1.05,2.59,1.18,6.03.88,6.41,4.74,9.83,8.38.44.47,1.27.6,1.66,1.02,6.74,7.13,7.15,13.85,8.59,23.2.08.5.1,2.08.72,2.05,2.36-4.72,2.25-7.52,1.16-12.5-1.39-6.37-4.84-16.55-9.87-20.74-.5-.41-4-2.94-4.25-3.02ZM31.47,9.39c-1.62-1.87-5.24-3.53-7.72-3.24-.9.11-.37,1.44-2.31.43l4.56,3.36c2.04,1.2,4.3.93,6.57.92-.08-.75-.73-1.05-1.1-1.47ZM13.31,9.14C5.37,13.5,3.17,20.58,2.18,29.49c-.33,3,.31,6.86-.85,9.42.24.43.8-.28.84-.22.16.21-.08,4.45,0,5.35.7,7.23,2.75,14.2,4.71,21.2.76.09.46-1.47.39-1.89-1.82-10.51-2.31-23.56-1.69-34.31.53-9.25,3.05-12.51,8.15-19.47.84-1.15.5-.94-.43-.43ZM24.43,10.87c-.08-.12-2.25-1.37-2.51-1.47s-3.12-.65-3.29-.64c-2.09.09-5.89,10.12-6.17,12.39l4.83-5.44c1.68-1.57,4.94-2.33,6.44-3.61.32-.27,1.09-.67.7-1.21ZM34.16,13.55c-.61-.46-4.18-1.5-4.15-.34.01.41,4.48,5.54,4.77,6.78l4.2,8.42c-1.01-3.18-2.4-13.03-4.82-14.86ZM76.55,13.14c-1.87-.36-5.56-.5-7.39-.04-1.48.37-4.13,2.85-5.34,3.52-1.06.58-2.15-.34-1.35,1.02-.55.28-4.05,3.3-4.13,3.56-.11.33.49.93.34,1.22-.05.1-.63-.31-.86-.17-1.32.77-2.02,3.97-2.7,5.18-.58,1.04-2.66,3.5-3.08,4.88-.49,1.61.69,5.38.22,7.25,4.47-5.22,9.04-10.25,14.45-14.56l15.94-8.78c-1.45-.64-2.76-2.13-4.27-2.6-.41-.13-1.72-.45-1.83-.47ZM56.11,99.08c-2.16.75-1.76.94-3.56,1.94-2.57,1.43-5.28,2.57-7.79,4.05-.29-2.75.77-1.71,2.17-2.53,17.14-10.02,41.52-33.06,43.84-53.79.51-4.59,0-17.57-2.75-21.01-1.04-1.3-2.44-.77-2.16-2.74-1.54,1.58-1.62.02-2.67-.34-.97-.34-1.97-.61-2.98-.78-.59-.09-5.79.18-6.04.35-.17.12-.25.74-.53.93-2.6,1.71-3.54,2.85-5.31,5.43-.33.49-.63,1.61-.7,1.66-.08.06-.78-.45-.82-.41-.07.07-.07,1.28-.48,1.89-6.54,9.7-9.29,16.4-13.22,27.49-.27.77,0,3.49-1.5,3.18s-.46-12.36-.65-14.13c-1.23.71-.97,2.66-1.38,3.51-.83,1.72-3.87,7.05-5.23,8.06-2.84,2.11-3.04-1.81-3.22-4.08-1.29-15.54-.39-25.05-9.3-39.07-.41-.64-3.58-4.68-3.84-4.84-2.24-1.39-2.72-.16-4.27.43-2.83,1.08-6.05,3.35-8.03,5.62-6.02,6.88-5.87,18.87-4.76,27.59,2.1,16.39,10.31,29.93,19.08,43.58,1.97,1.58,7.07,11.07,8.76,11.46.7.16,1.61-.08,2.36,0l-1.71,1.7c2.75,1.33,5.71,5.47,8.96,2.76,1.45-1.21,7.06-6.6,7.74-7.89,1.01-.35,2.14-.82,2.14-2.14-.64-.1-.41.65-.89,1.04-.31.25-.98.15-1.17.32-.25.23-.01.65-.08.77ZM7.32,30.56c2.04-1.68,2.08-5.56,2.77-8.14.59-2.18,1.52-4.32,2.12-6.46.24-.85.45-1.04-.41-1.67.12,1.62-1.27,2.16-1.65,2.99-1.51,3.3-1.85,6.72-2.23,10.08-.12,1.07-.79,2.06-.61,3.21ZM38.56,16c-.6-.31-1.14.27-.85.42.6.31,1.14-.27.85-.42ZM90.23,16.97c-.58-.23-1.08.15-1.66.1-.84-.08-1.94-1.32-2.06.41-.14,1.99,4.26,3.64,5.65,4.53.96.36,4.37,5.63,5.04,5.12.38-.3-2.05-6.15-2.55-6.96-.27-.43-.99-.6-1.47-1.16-.14-.16.17-.77.12-.81-.3-.24-1.97-.31-2.61-.52-.32-.11-.36-.67-.46-.71ZM44.12,50.26c.18-2.74,1.39-4.61,1.48-7.5.15-5.34-2.07-16.75-4.29-21.59l-3.17-4.31c3.07,10.61,4.77,21.55,4.97,32.58l1.02.82ZM84.79,19.42c1.17-1.34-1.67-3.25-2.56-.64.36.18,2.48.74,2.56.64ZM77.94,21.99c3.36-.27,5.97,1.62,8.66,2.27,1.71.41,1.01-1.25.3-2.02-1.12-1.22-3.6-1.6-5.2-1.43l-3.77,1.18ZM91.64,57.54c5.02-7.51,8.25-20.47,3.79-28.85-.41-.78-5.36-6.96-5.93-6.27-.5.61,3.79,11.67,3.86,13.48l-.07,11.1-1.65,10.54ZM88.21,25.42c.31-.6-.27-1.14-.42-.85-.31.6.27,1.14.42.85ZM69.81,25.85l-6.26,4.45c-6.05,6.85-12.56,14.86-10.42,24.66l2.47-6.3c2.82-5.6,5.57-11.04,8.97-16.31l5.25-6.51ZM39.2,28.84v.43l.21-.21-.21-.21ZM8.59,41.26l.22-5.98-.67,1.9.45,4.09ZM49.06,44.07c2.04-2.44,1.49-3.64,1.05-6.66l-2.55,6.65c-.1,2.09.8.83,1.5,0ZM46.37,48.22c-.4.4-3.2,10.11-3.03,10.73.14.51.68.79,1.01,1.16l6.64-13.93-.86-1.05c.32,2.32-3.13,2.47-3.76,3.1ZM19.45,82.24c-2.03-3.97-4.37-9.84-5.84-14.08-2.23-6.44-3.55-13.22-5.57-19.7-.14-.45-.11-1.29-.72-1.19.43,13.33,2.74,27.45,10.34,38.69,2.8,4.14,7.21,9.32,11.09,12.46,1.2.97,2.82,1.78,4.04,2.81.71-.77-1.54-1.94-2.21-2.71-3.6-4.11-8.74-11.61-11.13-16.27ZM96.13,52.83v.43l.21-.21-.21-.21ZM95.7,53.68v.43l.21-.21-.21-.21ZM95.28,55.4v.43l.21-.21-.21-.21ZM94.64,56.26c-.07.12-.24,1.34-.22,1.7,1.14-.52.51-2.24.22-1.7ZM91.42,58.39v.43l.21-.21-.21-.21ZM93.99,58.82v.43l.21-.21-.21-.21ZM93.77,60.53c.31-.6-.27-1.14-.42-.85-.31.6.27,1.14.42.85ZM89.28,60.54v.43l.21-.21-.21-.21ZM90.54,64.99l-.83,1.96c1.43-1.57,2.88-3.83,3.21-5.99l-2.38,4.03ZM85.22,68.67c1.81-1.5,3.36-4.11,3.64-6.41l-1.89,2.48-1.75,3.94ZM7.53,66.1v.43l.21-.21-.21-.21ZM85.01,69.11c-.96.65-.53,1.23,0,.42.14-.22.35-.23,0-.42ZM84.15,70.39c-.96.65-.53,1.23,0,.42.14-.22.35-.23,0-.42ZM59.96,99.08c.59-.07,3.15-2.17,3.86-2.78,6.69-5.82,16.03-15.22,21.37-22.41.4-.54.97-1.07.88-1.79l-7.25,7.61c-5.57,7.38-12.99,12.57-18.86,19.36-.13.02-.57-.51-.79-.37-.46.29-1.22,2.34-2.49,2.21l-2.71,3.73c1.55-1.81,4.36-3,5.75-4.74.25-.31.17-.76.23-.83ZM82.44,72.53v.43l.21-.21-.21-.21ZM21.23,80.24v.43l.21-.21-.21-.21ZM22.72,82.8l-.85-.85c-.12.89-.04.98.85.85ZM22.94,83.23v.43l.21-.21-.21-.21ZM66.38,96.94c1.56-.78,4.45-3.02,5.78-4.3,2.33-2.24,4.77-5.4,6.42-8.11-1.45,1.63-3.23,2.92-4.77,4.43-2,1.95-5.99,5.63-7.43,7.98-2.65,1.32-.66,1.52-.08.76.21-.28.02-.67.08-.76ZM24.44,85.8l-.85-.85c-.12.89-.04.98.85.85ZM25.3,87.52c.3,1.62.96,2.58,2.35,3.42l-2.35-3.42ZM63.6,92.23v.43l.21-.21-.21-.21ZM60.61,94.8v.43l.21-.21-.21-.21ZM59.32,96.08v.43l.21-.21-.21-.21ZM63.68,99.8c.16-.12.97-1.25.78-1.56l-2.35,1.92c.33.14,1.35-.2,1.57-.36ZM29.79,101.22v.43l.21-.21-.21-.21ZM33.28,103.12c-1.59-.64-3.17-.73-1.26.69,1.25.93,3.73,2.12,5.04,2.96.63.41,4.91,3.9,5.36,3.44.4-.4-.59-1.22-.84-1.51-2.58-2.82-5.32-4.39-8.29-5.58ZM43.69,111.07l-.21-1.28c-.81.57-.73.92.21,1.28ZM46.91,110.21v.43l.21-.21-.21-.21ZM42.63,111.5v.43l.21-.21-.21-.21Z"/>
      <path class="cls-1" d="M13.74,9.57l-.43-.43.43.43Z"/>
    </g>
  </g>
</svg>