<?xml version="1.0" encoding="UTF-8"?>
<svg id="Layer_3" data-name="Layer 3" xmlns="http://www.w3.org/2000/svg" viewBox="0 0 100 119.45">
  <defs>
    <style>
      .cls-1 {
        fill: #fff;
      }
    </style>
  </defs>
  <g id="Sketchy_Icons" data-name="Sketchy Icons">
    <g>
      <path class="cls-1" d="M40.66,108.47c-6.24-3.93-14.67-13.58-18.36-20.16-.74-1.32-.4-2.92-1.73-1.86.35-1.97-1.03-2.52-1.58-3.47-2.5-4.29-5.52-8.43-6.56-13.29-1.47,1.43-1.25-2.18-1.6-3.25-.21-.64-1.5-2.12-1.86-3.13s.12-1.45.11-1.54c-.02-.19-.78.36-.95,0-1.16-2.51-2.26-7.44-3.09-10.28C2.13,41.63-1.45,25.29.61,15.01c.67-3.35,4.26-9.21,7.79-9.91,1.8-.36,8.49-.18,10.31.24,9.15,2.08,19.31,18.68,23.32,26.84.71,1.44,4.91,13.38,5.56,13.1,1.16-.49,1.49-2.65,2.15-3.61,8.67-12.7,17.41-26.32,28.81-36.1,2.75-2.36,7.82-7.34,11.84-4.93,2.85,1.71,2.09,5.43,1.91,8.04-.04.62-.43,3.69-.36,3.91.3,1.05,1.14,1.33,1.33,2.31.2,1.03-.24,2.48-.03,3.29.11.4,1.69.49,2.41,1.03,1.64,1.22,3.96,4.26,4.31,6.26.08.45.05,6.06-.11,6.33-.85,1.44-1.99,3.31-2.89,4.98-11.3,20.96-24.6,40.36-30.97,63.8-1.09,6.3-3.92,12.19-6.17,18.2-.41.84-3.29.76-3.83.44-.32-.19-.41-.9-.86-1.2-5.41-3.67-7.55-6.23-13.99-9.55-.05-.02-.67-1.09-.48,0ZM90.33,12.18c.23-.37.52-7.76-.02-8.66s-1.91-1.91-2.96-1.7c-.49.1-.85.87-1.3,1.05-8.28,3.3-21.37,19.49-26.66,27.41-2.24,3.35-4.35,6.91-6.29,10.45,1.31.21,1.17-2.16,1.49-2.57.05-.06.76.43,1.38-.25,8.17-8.97,18.4-22.7,31.07-25.44.73-.16,2.82.47,3.3-.29ZM8.85,6.51v.48l.24-.24-.24-.24ZM11.96,6.51c-3.35-.86-.9,1.5-.72,1.43.45-.17.86-.89.72-1.43ZM12.68,6.99v.48l.24-.24-.24-.24ZM19.13,8.43l-2.86-.96c-.66,1.17,2.78,1.9,2.86.96ZM11,8.91c-.39-.38-4.32.35-5.01.96-1.51,1.34-1.22,4.84-1.2,6.69.98-.79,1.44-2.09,2.38-3.12.74-.81,4.7-3.69,3.83-4.53ZM22.36,13.4c-.14-.1-2.03-1.18-2.26-1.3-.61-.3-5.17-1.78-5.46-1.77-.44,1.34-2.4,1.59-2.89,2.41-1.33,2.24-.72,9.86-.44,12.5.33,3.08,1.77,6.87,1.14,9.75,1.75-.63.62,1.25.98,2.83,5.49,24.38,19.23,53.79,41.63,66.52.65.37,5.48,2.45,5.69,2.2.08-.1-.04-1.83.12-2.52,6.06-26.02,15-50.17,24.03-75.04.99-2.73,2.55-5.82,3.6-8.6-.98.27-3.24-.14-3.98.05-6.88,1.71-19.31,13.8-23.53,19.73-.59.84-.57.39-.61.44-.5.76-2.03,4.74-2.56,5.08-.12.07-.85-.47-.88-.41-.14.23.15,1.42-.08,2.1-.2.58-1.07.67-1.2.93-1.78,3.53-3.08,6.49-4.34,9.79-1.93,5.07-2.89,9.55-3.71,14.94v6.71c-.87-.73-1.45-1.49-1.65-2.65-.87-5.19,1.05-10.97,2.33-15.83.25-.97,0-2.11.19-2.73.3-1.03,2.97-2.57-.15-3.18.47,2.48-1.13,4.15-1.82,6.09-.21.59,0,1.94-.1,2.05-.26.29-1.83-.54-1.91-.48-.54.38-.44,3.79-.59,4.57-.79,4.1-1.08,4.52-.5,9.68.09.76.45,1.65-.59.59-2.51-6.31-1.91-15.4.09-21.91.46-1.49,2.06-3.84,2.27-5.31.59-4.21-8.68-23.18-11.69-26.97-.73-.92-5.56-4.93-5.74-5.4-.3-.74.21-1.02.71-.23,1.3.84.45-.39.01-.51-.66-.18-1.28-.01-1.66-.22-1.52-.8-3.16-3-4.45-3.86ZM3.11,11.3v.48l.24-.24-.24-.24ZM24.4,12.73l-.95-.95c-.14,1-.05,1.09.95.95ZM3.35,14.65c.05-.05.19-1.41-.23-1.43-1.41.81-.41,2.16.23,1.43ZM19.61,62.99c-4.58-13.92-10.05-28.26-10.36-43.11-.04-2.05,1.09-4.77.08-6.67-1.45.58-1.13,2.36-1.35,2.77-.09.17-.86.24-1.16.92-5.11,11.56,4.36,31.06,9.75,41.71l3.04,4.37ZM25.59,13.7c-.47.33.26.66.49.94.47-.31-.22-.63-.49-.94ZM85.86,14.65v.48l.24-.24-.24-.24ZM3.35,15.13c-1.88-.11-.98,1.5-1.18,2.64-1.06,6.11.46,19.14,1.96,25.54,1.28,5.47,4.12,10.86,4.5,16.11,1.68-.55.56.42.97,1.28,5.87,12.55,12.64,26.72,21.97,37.34.94,1.07,2.48,1.97,3.35,3.25.15-2.11-2.56-3.59-3.35-4.67-8.66-11.71-16.93-30.71-21.75-44.64C5.63,39.94,2.09,28.08,3.35,15.13ZM27.5,15.14c-.47.33.26.66.49.94.47-.31-.22-.63-.49-.94ZM85.13,16.08c.34-.67-.3-1.28-.47-.95-.34.67.3,1.28.47.95ZM83.7,16.09c-1.11-.89-3.79,3.04-5.32,2.52l-6.63,5.85,11.08-6.96c.36-.13.93-1.36.87-1.41ZM88.96,16.57c-.34-.28-2.82.66-2.86,1.43.27-.1,4.05-.47,2.86-1.43ZM96.01,21.96c-.27-.28-2.69-1.13-2.95-1.06-1.46,3.35-2.09,7.42-2.86,11.12l-10.09,29.05c2.72-4.04,4.83-8.78,7.55-12.56,2.84-7.11,12.57-15.7,9.78-23.91-.05-.16-1.33-2.52-1.43-2.63ZM89.68,22.79v.48l.24-.24-.24-.24ZM88.97,23.75c-.4.47-.51,1.65.24,1.9.09-.55.32-2.54-.24-1.9ZM71.03,24.7v.48l.24-.24-.24-.24ZM69.35,82.14c4.81-16.04,11.97-31.26,17.25-47.12.96-2.87,2.67-6.5,1.88-9.35-.7-.11-.65.85-.8,1.34-4.12,13.78-10.7,27.92-14.73,40.77-1.21,3.87-2.43,7.76-3.73,11.6l.13,2.77ZM69.83,26.14c-.5-.39-1.68.76-1.43.95.5.39,1.68-.76,1.43-.95ZM66.25,28.53v.48l.24-.24-.24-.24ZM57.64,40.5v.48l.24-.24-.24-.24ZM51.66,42.41c-.05.06-.34,1.17-.25,1.42,1.14-.55.64-1.91.25-1.42ZM56.92,42.41c-1.54-.38-.62.93-1.06,1.33-2.41,2.2-4.04,4.04-5.58,7.58-.9,2.06-1.62,4.81.84,1.8l5.81-10.7ZM50.7,45.28c.34-.67-.3-1.28-.47-.95-.34.67.3,1.28.47.95ZM14.59,59.18c-.47.33.26.66.49.94.47-.31-.22-.63-.49-.94ZM15.55,60.6v.48l.24-.24-.24-.24ZM15.55,61.56v.48l.24-.24-.24-.24ZM19.17,67.27c-.13-.09-.81-2.39-1.12-2.96l-1.78-2.76c-.22,2.13.77,4.32,1.57,6.32,3.54,8.93,11.33,22.4,17.29,29.59.3.37,1.71,1.84,2.18,1.41-2.33-3.88-5.25-7.52-7.36-11.53-3.4-6.47-5.23-11.18-9.04-17.78-.47-.82-.72-2.65-.82-2.75-.05-.05-.82.52-.91.45ZM79.87,62.51c.34-.67-.3-1.28-.47-.95-.34.67.3,1.28.47.95ZM79.16,62.99v.48l.24-.24-.24-.24ZM68.64,82.62v.48l.24-.24-.24-.24ZM32.52,85.5c-.29-.26-1.27-.1-.94.71,2.74,3.82,5.01,8.64,7.73,12.39,4.09,5.65,10,13.31,17.82,12.24.33-.04,2.58-.83,2.66-.94.7-.94-6.21-3.52-6.77-3.86-4.95-3-12.23-9.58-15.74-14.06-.46-.59-.39-1.64-.45-1.7-.09-.09-1.18.66-1.42.49s-1.95-4.44-2.89-5.27ZM38.26,99.38c-.05-.05-1.41-.19-1.43.23.81,1.41,2.16.41,1.43-.23ZM35.87,102.24c.33-.74-.23-1.95-.47-1.43-.33.74.23,1.95.47,1.43ZM38.03,103.2v.48l.24-.24-.24-.24ZM58.83,117.08c.15-.16.69-3.56.73-4.28-1.07.04-2.51.95-3.36.98-1.53.06-2.14-1.24-3.58-.53l3.62,3.29c.45.4,2.36.77,2.59.54Z"/>
      <path class="cls-1" d="M40.66,108.47s.47-.03.48,0c.2,1.09-.43.03-.48,0Z"/>
      <path class="cls-1" d="M45.44,65.86c-.39.49-.89-.87.25-1.42.09.25-.2,1.37-.25,1.42Z"/>
      <polygon class="cls-1" points="45.68 66.35 45.92 66.58 45.68 66.82 45.68 66.35"/>
    </g>
  </g>
</svg>