<?xml version="1.0" encoding="UTF-8"?>
<svg id="Layer_2" data-name="Layer 2" xmlns="http://www.w3.org/2000/svg" viewBox="0 0 55.83 63.45">
  <g id="Hearts">
    <g id="Layer_13_Image" data-name="Layer 13 Image">
      <g>
        <path d="M21.94,1.83c3.43,2.59,5.38,9.03,6.42,13.06.17.68-.06,2.28.79,1.05s1.52-3,2.56-4.37c3.21-4.22,8.71-7.07,13.8-4.28.45.25,1.43,1.27,1.74,1.33.49.09,1.67-.44,2.6-.29,4.4.73,5.57,5.47,5.85,9.32.52,6.92-.48,12.02-3.27,18.23-.13.28-.45.24-.54.48-.47,1.26-.1.25-.42.65-.02.02.08.3-.06.49-3.31,4.59-4.83,8.99-9.03,13.08-.27.26-.44,1.26-.56,1.36-.04.03.05-.33-.69.37-3.23,3.03-5.9,4.55-9.83,6.61-.6.31-1.5.92-2,1.4l-.12-1.19-.24.71c-.42.12-.12-.58-.35-.48-.12.05-1.87,1.55-1.92,1.67-.33.82.79.68.84.72.03.02-.22.69-.24.72-.1.11-1.33-.91-2.71.03-.25.17-.35.58-.45.64-.15.09-.97-.27-1.26.28-.24-.37.49-.41.55-.51.5-.79-1.45-1.13-2.11-1.51-8.73-5.04-13.24-12.37-17.18-21.57C.45,31.29-3.16,12.48,4.64,5.42c1.82-1.65,3.3-1.16,4.93-1.89.74-.33,1.63-1.59,2.43-2.11,3.14-2.05,6.94-1.85,9.94.41ZM19.31,1.6c-1.5-.51-4.63-.45-5.83.25-1.71,1,.94.59,1.44.66,3.37.49,3.58,2.65,5.49,4.68.24.26.71.34.93.57,3.76,3.98,3.99,7.73,4.8,12.95.04.28.06,1.16.4,1.14,1.32-2.64,1.25-4.2.65-6.98-.77-3.56-2.7-9.24-5.51-11.58-.28-.23-2.23-1.64-2.37-1.69ZM17.57,5.24c-.91-1.05-2.93-1.97-4.31-1.81-.5.06-.21.8-1.29.24l2.54,1.88c1.14.67,2.4.52,3.67.51-.05-.42-.41-.58-.61-.82ZM7.43,5.11C3,7.54,1.77,11.49,1.22,16.47c-.19,1.68.18,3.83-.48,5.26.13.24.44-.16.47-.12.09.12-.04,2.48,0,2.99.39,4.04,1.53,7.93,2.63,11.84.43.05.26-.82.22-1.05-1.01-5.87-1.29-13.15-.94-19.16.3-5.17,1.7-6.98,4.55-10.87.47-.64.28-.52-.24-.24ZM13.64,6.07c-.05-.07-1.26-.77-1.4-.82s-1.74-.36-1.84-.36c-1.17.05-3.29,5.65-3.45,6.92l2.7-3.04c.94-.88,2.76-1.3,3.6-2.02.18-.15.61-.37.39-.68ZM19.07,7.57c-.34-.26-2.34-.84-2.32-.19,0,.23,2.5,3.09,2.67,3.78l2.35,4.7c-.56-1.78-1.34-7.28-2.69-8.3ZM42.74,7.34c-1.04-.2-3.1-.28-4.12-.02-.82.21-2.31,1.59-2.98,1.96-.59.33-1.2-.19-.76.57-.31.16-2.26,1.84-2.31,1.99-.06.19.27.52.19.68-.03.06-.35-.17-.48-.1-.74.43-1.13,2.21-1.51,2.89-.32.58-1.48,1.95-1.72,2.72-.27.9.39,3,.12,4.05,2.5-2.91,5.05-5.72,8.07-8.13l8.9-4.9c-.81-.36-1.54-1.19-2.38-1.45-.23-.07-.96-.25-1.02-.26ZM31.33,55.32c-1.2.42-.98.52-1.99,1.08-1.43.8-2.95,1.44-4.35,2.26-.16-1.53.43-.95,1.21-1.41,9.57-5.59,23.18-18.46,24.48-30.03.29-2.56,0-9.81-1.54-11.73-.58-.72-1.36-.43-1.2-1.53-.86.88-.91.01-1.49-.19-.54-.19-1.1-.34-1.66-.43-.33-.05-3.24.1-3.37.2-.09.07-.14.41-.3.52-1.45.95-1.98,1.59-2.96,3.03-.19.27-.35.9-.39.93-.04.03-.43-.25-.46-.23-.04.04-.04.72-.27,1.05-3.65,5.42-5.19,9.16-7.38,15.35-.15.43,0,1.95-.84,1.77s-.26-6.9-.36-7.89c-.69.4-.54,1.48-.77,1.96-.47.96-2.16,3.93-2.92,4.5-1.58,1.18-1.7-1.01-1.8-2.28-.72-8.68-.22-13.99-5.19-21.82-.23-.36-2-2.61-2.15-2.7-1.25-.78-1.52-.09-2.38.24-1.58.6-3.38,1.87-4.49,3.14-3.36,3.84-3.28,10.53-2.66,15.4,1.17,9.15,5.76,16.71,10.65,24.33,1.1.88,3.95,6.18,4.89,6.4.39.09.9-.05,1.32,0l-.95.95c1.53.74,3.19,3.05,5,1.54.81-.68,3.94-3.68,4.32-4.4.56-.2,1.19-.46,1.19-1.19-.36-.06-.23.36-.5.58-.17.14-.55.08-.65.18-.14.13,0,.36-.04.43ZM4.09,17.06c1.14-.94,1.16-3.11,1.55-4.54.33-1.22.85-2.41,1.18-3.61.13-.47.25-.58-.23-.93.07.9-.71,1.2-.92,1.67-.84,1.84-1.03,3.75-1.25,5.63-.07.6-.44,1.15-.34,1.79ZM21.53,8.93c-.34-.17-.64.15-.48.23.34.17.64-.15.48-.23ZM50.38,9.47c-.33-.13-.61.08-.92.06-.47-.04-1.08-.74-1.15.23-.08,1.11,2.38,2.03,3.15,2.53.54.2,2.44,3.15,2.81,2.86.21-.17-1.14-3.43-1.42-3.89-.15-.24-.55-.33-.82-.65-.08-.09.09-.43.07-.45-.17-.13-1.1-.17-1.46-.29-.18-.06-.2-.37-.26-.39ZM24.64,28.06c.1-1.53.78-2.57.82-4.19.09-2.98-1.16-9.35-2.39-12.06l-1.77-2.41c1.71,5.93,2.66,12.03,2.77,18.19l.57.46ZM47.34,10.84c.65-.75-.93-1.81-1.43-.36.2.1,1.38.41,1.43.36ZM43.52,12.28c1.87-.15,3.33.9,4.84,1.27.96.23.56-.7.17-1.13-.63-.68-2.01-.89-2.9-.8l-2.1.66ZM51.17,32.13c2.8-4.19,4.61-11.43,2.12-16.11-.23-.44-2.99-3.88-3.31-3.5-.28.34,2.12,6.52,2.16,7.52l-.04,6.2-.92,5.89ZM49.25,14.19c.17-.34-.15-.64-.23-.48-.17.34.15.64.23.48ZM38.98,14.43l-3.5,2.49c-3.38,3.82-7.01,8.3-5.82,13.77l1.38-3.52c1.58-3.13,3.11-6.16,5.01-9.11l2.93-3.64ZM21.89,16.1v.24l.12-.12-.12-.12ZM4.8,23.04l.12-3.34-.37,1.06.25,2.28ZM27.39,24.61c1.14-1.36.83-2.03.59-3.72l-1.42,3.72c-.05,1.17.45.47.84,0ZM25.89,26.92c-.22.22-1.79,5.64-1.69,5.99.08.28.38.44.56.65l3.71-7.78-.48-.59c.18,1.29-1.75,1.38-2.1,1.73ZM10.86,45.92c-1.14-2.22-2.44-5.5-3.26-7.86-1.24-3.59-1.98-7.38-3.11-11-.08-.25-.06-.72-.4-.67.24,7.44,1.53,15.32,5.77,21.6,1.56,2.31,4.03,5.21,6.19,6.96.67.54,1.58,1,2.26,1.57.4-.43-.86-1.08-1.23-1.51-2.01-2.3-4.88-6.48-6.21-9.09ZM53.67,29.5v.24l.12-.12-.12-.12ZM53.44,29.97v.24l.12-.12-.12-.12ZM53.2,30.93v.24l.12-.12-.12-.12ZM52.84,31.41c-.04.07-.13.75-.12.95.64-.29.29-1.25.12-.95ZM51.05,32.6v.24l.12-.12-.12-.12ZM52.48,32.84v.24l.12-.12-.12-.12ZM52.36,33.8c.17-.34-.15-.64-.23-.48-.17.34.15.64.23.48ZM49.85,33.8v.24l.12-.12-.12-.12ZM50.55,36.29l-.46,1.09c.8-.88,1.61-2.14,1.79-3.34l-1.33,2.25ZM47.58,38.34c1.01-.84,1.87-2.3,2.03-3.58l-1.05,1.38-.98,2.2ZM4.2,36.91v.24l.12-.12-.12-.12ZM47.46,38.59c-.54.36-.3.69,0,.23.08-.12.19-.13,0-.23ZM46.99,39.3c-.54.36-.3.69,0,.23.08-.12.19-.13,0-.23ZM33.48,55.32c.33-.04,1.76-1.21,2.15-1.55,3.74-3.25,8.95-8.5,11.93-12.51.22-.3.54-.6.49-1l-4.05,4.25c-3.11,4.12-7.25,7.02-10.53,10.81-.07,0-.32-.29-.44-.21-.26.16-.68,1.31-1.39,1.23l-1.52,2.08c.87-1.01,2.43-1.67,3.21-2.65.14-.17.09-.42.13-.46ZM46.03,40.49v.24l.12-.12-.12-.12ZM11.85,44.8v.24l.12-.12-.12-.12ZM12.69,46.23l-.48-.48c-.07.5-.02.54.48.48ZM12.81,46.47v.24l.12-.12-.12-.12ZM37.07,54.12c.87-.43,2.49-1.68,3.23-2.4,1.3-1.25,2.66-3.02,3.59-4.53-.81.91-1.8,1.63-2.67,2.47-1.12,1.09-3.34,3.14-4.15,4.46-1.48.74-.37.85-.05.42.12-.15.01-.37.05-.42ZM13.64,47.91l-.48-.48c-.07.5-.02.54.48.48ZM14.12,48.86c.17.9.54,1.44,1.31,1.91l-1.31-1.91ZM35.51,51.49v.24l.12-.12-.12-.12ZM33.84,52.93v.24l.12-.12-.12-.12ZM33.12,53.65v.24l.12-.12-.12-.12ZM35.56,55.72c.09-.07.54-.7.44-.87l-1.31,1.07c.18.08.75-.11.87-.2ZM16.63,56.52v.24l.12-.12-.12-.12ZM18.58,57.58c-.89-.36-1.77-.41-.7.39.7.52,2.08,1.18,2.81,1.65.35.23,2.74,2.18,2.99,1.92.22-.23-.33-.68-.47-.84-1.44-1.57-2.97-2.45-4.63-3.12ZM24.4,62.02l-.12-.72c-.45.32-.41.51.12.72ZM26.19,61.54v.24l.12-.12-.12-.12ZM23.8,62.25v.24l.12-.12-.12-.12Z"/>
        <path d="M7.67,5.34l-.24-.24.24.24Z"/>
      </g>
    </g>
  </g>
</svg>