<?xml version="1.0" encoding="UTF-8"?>
<svg id="Layer_3" data-name="Layer 3" xmlns="http://www.w3.org/2000/svg" viewBox="0 0 100 86.08">
  <defs>
    <style>
      .cls-1 {
        fill: #fff;
      }
    </style>
  </defs>
  <g id="Sketchy_Icons" data-name="Sketchy Icons">
    <g>
      <path class="cls-1" d="M9.18,53.39C3.13,46.82-1.45,37.81.42,28.54c.37-1.81,2.26-5.31,2.39-6.81.08-.96-.43-2.08-.36-3.26C2.98,9.61,6.99.76,16.95.05c5.49-.39,14.14,1.86,19.59,3.23,6.65,1.67,6.77,3.76,10.71,8.4,2.62,3.08,4.41,3.99,6.18,8.16.46,1.08,1.97,7.54,2.4,7.64.65.15,5.4-5.52,6.51-6.44,4.72-3.92,10.19-4.99,14.83-8.6.99-.77,1.98-1.93,3.35-2.92,2.31-1.68,6.65-5.09,9.53-3.28,1.27.8,1.74,4.3,2.01,4.47.22.14,3.45.34,4.63.92,1.89.93,2.99,3.65,3.22,5.66.56,4.77-1.98,10.11-3.63,14.27-.52,1.32.75,2.08-1.34,1.56.32.28.41.76.31,1.15-1.75,6.32-11.49,18.36-15.66,23.9-.48.63.42,1.46-.9.76-1.37,2.84-4.23,4.66-5.64,7.32-2.92,2.52-5.22,5.19-8.23,7.46-.45.34-1.31,2.77-1.05-.22-2.44.15-.21,1.06-.22,1.45-.04,1.82-1.12-.54-1.66-.42,1.17,1.79-.52.32-.75,1.31-.06.28.3.67.28.8-.02.15-.59-.14-.68-.05-2.82,2.55-4.4,5.56-6.61,8.6-1.6.65,1.15-3.77,1.05-4.17-1.39-.38-.63,1.06-.84,1.25-.12.1-1.43.36-1.26-.63.2-1.13,3.23-3.16,2.51-3.96-.22-.25-1.78.93-2.51,1.09-3.81.87-11.79-2.59-15.27-4.43-1.63,1.57.05,1,.86,1.64.62.49.8,1.27,1.35,1.71,1.89,1.51,5.07,2.47,5.96,4.59.73.21.2-1,.62-.83.78.31,2.61,1.83,3.56,2.3-.54.58-1.27-.36-1.94-.51-3.34-.74-3.93-1.55-6.83-3.25-.38-.22-1.15.34-1.27.21-.08-.09.14-.81-.09-1.14s-1.16-.37-1.59-.74c-1.98-1.75-4.19-4.8-6-6.34-2.85-2.43-8.1-4.75-11.24-7.25-3.3-2.63-8.91-8-11.63-10.87,1.64.51-.93-2.06-.42-.42ZM16.71,1.55c-.57-.47-5.28,2.33-6.21,2.17.26,1.89-1.57,1.12-1.68,1.23-.23.24-.18,1.02-.44,1.31-1.28,1.41-3.2,3.78-3.69,5.52-.57,2.03-.57,5.9-.74,8.15.96-1.35,3.69-3.58,4.34-4.85,1.85-3.57,1.51-7.47,5.08-10.79.18-.17,4.17-2.05,3.34-2.74ZM25.91,4.47c.9-1.16-4.36-2.21-5.25-2.1-.83.1-.57.69-.68.74-.18.08-2.96.18-3.71.77-.58.46-.51,1.26-.79,1.57-.48.54-2.45,1.74-3.12,2.82-.24.39-2.12,4.4-1.93,4.56.33.28,6.02-4.38,7.01-4.9,1.15-.6,8.18-3.1,8.46-3.46ZM41.76,7.01c-.15-.12-.96.35-1.51.1-.79-.36-.9-1.24-1.36-1.54-.13-.08-2.84-.79-2.93-.67-.96,1.19,5.98,3.56,6.27,3.34.05-.04-.42-1.18-.47-1.22ZM28.42,5.31c-.49-.47-1.35.18-.2.83.36.05.24-.8.2-.83ZM26.54,5.73v.42l.21-.21-.21-.21ZM90.33,11.16c.24-.43-.45-2.25-.82-2.73-2.01-2.57-8.62,2.75-10.35,4.3-.27.24-1.5.88-.95,1.35.7.61,9.42-2.65,10.99-3.04.51-.13,1.11.17,1.14.12ZM42.86,8.24v.42l.21-.21-.21-.21ZM37.21,8.66c-.59-.3-1.12.26-.83.41.59.3,1.12-.26.83-.41ZM38.88,71.78c-2.08-1.37-4.89-2.21-6.9-3.75-1.33.62.94,1.93,1.52,2.24,4.55,2.48,15.61,7.23,20.61,6.83.59-.05,1.1-.78,1.72-.74.25.02.18.76.25.81.83.6.78-.49,1.06-.74.35-.31,1.34-.59.99-.87-.12-.1-.81.16-.81-.19-.04-1.41,2.25-2.44,3.16-3.34,7.14-7.01,13.89-14.21,19.54-22.51,3.89-5.72,9.84-15.31,9.03-22.22-.61-5.21-2.31-6.6-7.69-6.1-7.39.68-12.6,5.13-17.6,10.02-.35.34-.88.09-1.21.43-1.25,1.3-1,3.57-2.74,2.51,1.37,2.29-2.11.59-.84,2.92-1.27-1.02-1.03,1.29-1.88,2.51s-2.07.58-1.47,3.48c-.71-.27-.41,1.93-1.24,1.11-1.64-1.62-.17-4-.48-5.14-.26-.93-1.7-1.04-1.97-1.83-.23-.68.06-1.61-.17-2.34-2.31-7.54-9.15-20.66-16.34-23.8-1.33-.58-3.48-.27-3.01-1.58-.94,1.24-2.43.16-3.79.1-2.3-.1-5.74-.01-7.5.69-5.16,2.07-5.15,3.54-6.52,8.51-.09.34-.68.26-.72.51-.12.72.32,6.1.49,7.04,2.95,16.42,22.98,33.81,36.04,43.35.77.57,2.61,2.3,2.78,2.39.2.1.68-.4,1.39.08.61.41.76.97,0,1.27-.2.08-2.46-.72-2.85-.9-3.12-1.43-6.93-5.12-10.35-7.97-15.22-12.69-30.68-26.82-28.43-48.52.01-.14,2.02-2.08,1.68-2.37-.84-.7-2.04,1.5-2.17,1.58-.16.1-.72-.36-.75-.33-.43.44-1.72,5.88-1.68,6.88.39,11.33,15.76,32.92,24.24,40.59.68.62,2.02.96,2.09,1.06.06.08-.43.69-.37.77.05.07,1.15.29,1.63.68,3.22,2.58,5.67,5.76,9.32,7.85.43.25,1.52.23,1.58.29.42.43-.88,1.54-1.37,1.6-1.48.17-5.98-2.21-7.84-2.86-.04-.02-.59-.96-.42,0ZM44.18,11.74c-1.07-.72-2.56-.69-3.41-1.83,0,1.98,3.04,3.92,4.66,5.17l3.91,4.45c-.38-2.62-3.01-6.34-5.16-7.78ZM15.25,12.42v.42l.21-.21-.21-.21ZM91.17,15.34c-.4-4.32-.5-2.52-3.65-1.77-.6.14-2.11.03-2.2.1-1.48,1.21,5.31,1.79,5.85,1.67ZM95.27,12.5c-.11-.04-2.33-.17-2.41-.08-1.42,1.58,1.05,6.45,1.41,8.3.65,3.32.12,6.77.67,10.09l2.29-5.44c.58-2.94,2.23-8.88-.02-11.27-.49-.52-1.05-.54-1.56-.86-.27-.17-.3-.7-.4-.74ZM84.9,14.09c-.48-.25-.96.26-1.24.63.42.17,1.64-.42,1.24-.63ZM79.25,16.18v.42l.21-.21-.21-.21ZM89.33,19.29c-1.08-.92-2.46-1.42-3.59-2.28l4.81,5.43c.69-1.3-.34-2.4-1.22-3.16ZM70.26,18.28c-1.9-.77-.74.33-1.22.62-.93.57-3.96,1.63-4.8,2.27-.38.28-.14.93-.36,1.16-.35.36-1.84.33-1.99,1.38l5.14-2.61,3.22-2.81ZM85.32,19.52c-.17-1.28-3.95-1.35-4.77-1.21-.77.13-3.74,1.47-1.74,1.58,1.91.11,4.38-1,6.51-.37ZM5.84,23.29c-.24.53,0,.4,0,.42-.87,3.34,1.5,8.31,2.92,11.51,3.52,7.94,7.92,14.01,12.74,20.71,3.05,4.23,3.7,6.97,8.65,9.75,1.69.95,4.35,2.03,6.23,2.55-1.31-1.9-3.37-3.27-4.87-4.96-8.64-9.69-22.45-24.88-23.33-38.25-.11-1.66.43-3.74.17-5.5-.64.99-2.08,2.83-2.51,3.76ZM76.54,20.36c.48.25.96-.26,1.24-.63-.42-.17-1.64.42-1.24.63ZM51.01,21.2c-.49-.47-1.35.18-.2.83.36.05.24-.8.2-.83ZM71.93,21.2c-1.03-.14-1.34.98-2.08,1.4-.34.2-.91,0-1.37.26-3.86,2.06-7.32,5.14-10.77,8.49-.18.18-.77,0-1.05.29-1.03,1.11,0,2.99.22,4.19l3.14-4.17c4.15-3.2,7.8-7.1,11.92-10.45ZM61.47,24.54c.3-.59-.26-1.12-.41-.83-.3.59.26,1.12.41.83ZM5,44.61l-2.39-10.35.3-8.04c-1.6,4.86-1.42,9.54-.04,14.42l2.12,3.97ZM52.69,32.06c-.67-2.13-1.32-4.39-3.14-5.84.94,1.58,1.46,3.28,2.19,4.93.27.61-.23,1.13.95.91ZM91.59,31.23c.28-.62-.15-2.25-.41-1.67-.28.62.15,2.25.41,1.67ZM5.42,29.97c-.7-.85-1.17,1.19-1.21,1.5-.65,5.86,3.23,14.37,6.55,19.3,2.88,4.28,5.75,6.75,10.04,9.19.86.49,2.94,2.92,1.11-.26-5.18-9.01-10.98-15.87-15.3-25.68-.29-.66-1.05-3.89-1.18-4.05ZM94.53,31.23s-.3,1.02-.22,1.24c1-.48.56-1.67.22-1.24ZM52.48,36.25v.42l.21-.21-.21-.21ZM5.63,45.03v.42l.21-.21-.21-.21ZM6.46,47.12v.42l.21-.21-.21-.21ZM8.14,50.88v.42l.21-.21-.21-.21ZM25.71,65.1v.42l.21-.21-.21-.21ZM37,68.44v.42l.21-.21-.21-.21ZM38.67,70.11v.42l.21-.21-.21-.21ZM65.23,72.62c.3-.59-.26-1.12-.41-.83-.3.59.26,1.12.41.83ZM46.62,73.46v.42l.21-.21-.21-.21ZM37,73.88v.42l.21-.21-.21-.21Z"/>
      <path class="cls-1" d="M38.88,71.78s.41-.02.42,0c.17.95-.38.03-.42,0Z"/>
      <path class="cls-1" d="M5.84,23.71s-.02-.41,0-.42c.39-.18.39.59,0,.42Z"/>
      <path class="cls-1" d="M9.6,53.81c-.14-.14-.28-.27-.42-.42,0,.03.39.41.42.42Z"/>
      <path class="cls-1" d="M53.94,85.59c.28.15-.24.71-.83.41-.28-.15.24-.71.83-.41Z"/>
      <polygon class="cls-1" points="50.81 83.49 51.02 83.7 50.81 83.91 50.81 83.49"/>
    </g>
  </g>
</svg>