<?xml version="1.0" encoding="UTF-8"?>
<svg id="Layer_2" data-name="Layer 2" xmlns="http://www.w3.org/2000/svg" viewBox="0 0 48.57 67.9">
  <g id="Hearts">
    <g id="Layer_9_Image" data-name="Layer 9 Image">
      <g>
        <path d="M38.93,4.34c.37.4.73,1.18,1.08,1.68,4.33,6.2,7.25,14.38,8.11,22.24.14,1.32.73,2.48-.02,3.86l.47-.13c-.34,1.03-.08,2.14-.14,3.14-.38,6.8-1.94,13.47-3.83,19.52-.17.55-.99,3.55-1.17,3.64-.74.38-.33-1.75-.29-1.96.32-1.6,1.15-3.4,1.54-4.91,4.24-16.46,4.07-30.26-5.52-44.81-.15-.22-.12-.65-.15-.69-.02-.03-.4.26-.45.22-.05-.04-.27-.81-.61-1.19-1.05-1.18-3.58-2.9-5.02-3.45-.47-.18-1.28.05-1.68-.6-.56,1.11.44.96,1.08,1.55.84.77,1.54,2.04,2.08,2.53.72.66,2.26.86,3.29,1.67,9.07,7.15,7.58,30.88,5.45,41.13-.19.9-.91,2.72-1.02,3.27-.22,1.1-.69,7.24-.97,7.49-1.06.96-.4-3.58-.6-3.59-.1.73-.99,1.35-1.22,1.74-.19.33-.5,1.81-.87,2.05-.05.03-1.15,0-1.15-.08.01-.2.32-.04.46-.31,2.76-5.22,4.02-8.55,4.55-14.53,1.09-12.21-.17-24.09-6.35-34.77-1.32-2.27-2.07-3.88-4.37-1.27-2.13,2.42-3.3,6.95-3.72,10.07-.38,2.79.52,3.82,1.02,6.18.33,1.58,1.24,7.26-.42,8.08-.34.17-2.21-1.69-2.38-1.99-1.88-3.37-1.27-8.69-1.7-12.36-.3-2.6-3.82-5.39-6.2-6.19-2.03-.68-4.1-.77-6.43.16-.15.06-.44-.1-.47-.06-.07.1.06.46-.08.63-.26.32-.67.18-1.38,1.32-3.35,5.38-4.07,10.83-3.08,17.74,1.81,12.66,10.39,25.85,23.11,30.43,3.26,1.17,6.61,1.91,10.07,1.99.29.63-.55.41-.48.6.24.57.92.08.95.12.29.31-.95,1.22-1.32,1.19-.43-.04-.55-.4-.71-.47-.21-.09-.03.46-.25.48-.66.07-2.03-.37-2.66-.43-5.77-.61-9.41-2.3-14.23-5.01-.27-.15-.76.02-.87-.09-.16-.15.21-.78-.26-.69-.08.53,0,.8.34,1.22s2.12,1.74,2.64,2.13c1.91,1.41,4.42,2.92,6.68,3.7.45.15,2.89.49,2.99.61.03.04-.29.89-.47.71-.05-.05.08-.37-.11-.44-.29-.09-1.6.22-1.92.16-6.66-1.18-12.19-8.09-16.77-12.25C3.12,45.89-4.14,33.65,2.63,19.12c2.44-5.24,10.83-13.12,17.04-10.62.42.17,2.54,1.5,2.81,1.79.57.63,1.21,2.4,1.97,3.05.41-3.21.48-8.51,2.29-11.23C27.07,1.61,29.06.07,29.63,0c.15-.02,1.96.08,2.17.12,2.18.41,5.62,2.62,7.13,4.22ZM29.82.91v.24l.12-.12-.12-.12ZM30.78,1.15v.24l.12-.12-.12-.12ZM29.88,1.92c-.94-.33-2.37,1.27-2.77,2.01-.74,1.34-1.57,9.22-1.45,10.95.05.76.81,2.61,1.3,3.24.97-3.63,1.49-7.87,3.94-10.88.67-.83,2.49-1.59,2.62-1.92.1-.24-1.62-1.7-1.75-2.18-.47-.46-1.08-.58-1.64-.82-.18-.08-.2-.39-.25-.4ZM37.29,7.21c-.07-.05-.29.06-.42,0-.45-.22-.52-.78-1.2-.2.69.88,1.4,1.87,1.91,2.87,3.03,5.87,5.34,13,5.77,19.58l.44,2.07c.18-1.45.08-2.95,0-4.43-.24-4.9-.88-9.9-2.83-14.38-.44-1.02-2.85-4.91-3.68-5.5ZM16.57,8.57s-.17.58-.12.71c.57-.28.32-.95.12-.71ZM22.3,12.15c.28-.97-3.89-3.56-4.06-3.35-.62.81,1.09.91,1.41,1.1s1.56,1.04,1.64,1.11c.23.2.44,1.06,1,1.15ZM14.77,9.04v.24l.12-.12-.12-.12ZM17.88,9.04v.24l.12-.12-.12-.12ZM12.63,9.76v.24l.12-.12-.12-.12ZM17.52,10.48l-.48-.48c-.07.5-.02.54.48.48ZM18,10.72c.17-.34-.15-.64-.23-.48-.17.34.15.64.23.48ZM19.07,10.72v.24l.12-.12-.12-.12ZM19.79,11.2v.24l.12-.12-.12-.12ZM22.65,12.4c-.24.17.13.33.24.47.24-.16-.11-.32-.24-.47ZM12.5,52.81c.15-.22-2.26-3.97-2.59-4.69-4.23-9.11-6.08-21.65-3.51-31.43.22-.84.81-1.56.73-2.38C2.62,18.63.94,24.96,1.15,31.42c.27,8.39,4.51,14.85,10.4,20.57.25.24.18.65.29.78.02.03.65.07.67.05ZM26,21v.24l.12-.12-.12-.12ZM26.6,26.5v-3.71c0-.08-.63-1.99-.72-.95v1.88s.72,2.78.72,2.78ZM28.03,28.89c.17-.34-.15-.64-.23-.48-.17.34.15.64.23.48ZM27.91,30.09v.24l.12-.12-.12-.12ZM43.67,31.76v.24l.12-.12-.12-.12ZM43.67,32.24v.24l.12-.12-.12-.12ZM43.67,33.2v.24l.12-.12-.12-.12ZM43.79,34.63c.17-.37-.12-.97-.23-.72-.17.37.12.97.23.72ZM7.37,37.74v.24l.12-.12-.12-.12ZM7.73,38.94c.17-.34-.15-.64-.23-.48-.17.34.15.64.23.48ZM8.09,39.9v.24l.12-.12-.12-.12ZM8.21,40.61c-.14.32.05.77.36.95.09-.27-.22-1.24-.36-.95ZM9.16,43c.17-.34-.15-.64-.23-.48-.17.34.15.64.23.48ZM9.4,43.25s-.5-.09-.47.12c1.11,1.85,1.79,4.21,2.77,6.07.86,1.63,3.63,5.88,4.99,6.96,2.19,1.74,5.33,2.92,7.64,4.54-.38-1.45-2.29-1.83-3.34-2.63-4.23-3.19-7.81-7.96-10.52-12.67-.24-.42-.96-2.3-1.07-2.39ZM13.1,53.29v.24l.12-.12-.12-.12ZM19.31,59.03v.24l.12-.12-.12-.12ZM19.55,59.51c-.24.17.13.33.24.47.24-.16-.11-.32-.24-.47ZM25.05,60.7v.24l.12-.12-.12-.12ZM25.64,61.18c.17-.34-.15-.64-.23-.48-.17.34.15.64.23.48ZM26.12,61.66c.17-.34-.15-.64-.23-.48-.17.34.15.64.23.48ZM26.48,61.42v.24l.12-.12-.12-.12ZM28.87,62.38v.24l.12-.12-.12-.12ZM33.88,64.05v.24l.12-.12-.12-.12ZM36.03,64.05v.24l.12-.12-.12-.12ZM39.14,64.05v.24l.12-.12-.12-.12ZM36.75,64.29v.24l.12-.12-.12-.12ZM37.22,64.3c-.24.17.13.33.24.47.24-.16-.11-.32-.24-.47ZM38.78,64.29c-.26-.26-.74.21-.48.48s.74-.21.48-.48Z"/>
        <path d="M40.93,64.53c-.09.12-.67-.47-.47-.72.09-.12.67.47.47.72Z"/>
        <path d="M33.76,67.16c-.2.52-.4.57-.72.12l.72-.12Z"/>
        <path d="M34.72,67.64s-.51.09-.48-.12c.37-.65.75-.16.48.12Z"/>
      </g>
    </g>
  </g>
</svg>