<?xml version="1.0" encoding="UTF-8"?>
<svg id="Layer_3" data-name="Layer 3" xmlns="http://www.w3.org/2000/svg" viewBox="0 0 100 95.73">
  <defs>
    <style>
      .cls-1 {
        fill: #fff;
      }
    </style>
  </defs>
  <g id="Sketchy_Icons" data-name="Sketchy Icons">
    <g>
      <path class="cls-1" d="M29.97,77.1c-.5-.48-.81-1.19-1.24-1.53-.62-.49-1.65-.41-1.77-.51-.06-.06.54-.94.49-.97-.15-.11-.98.21-1.39-.13-.22-.18-.08-.97-.48-1.37C15.21,62.19,8.27,53.13,2.96,38.86c-.18-.48-1.03-.87-1.15-1.41-.17-.77.47-1.43.46-1.89-.01-.56-1.25.09-1.03-.78l1-.5c-1.36.14-1.73-2.25-1.88-3.41-.8-6-.68-11.96,4.54-15.89,1.39-1.04,2.71-1.34,3.87-2.14,3.12-2.14,3.88-4.78,8.79-4.22,5.01.57,7.53,3.24,11.55,5.09,7.91,3.65,16.15,6.36,23.87,10.4l4.68,3.11c1.75-3.06,2.21-6.67,4.06-9.69,1.03-1.68,5.82-6.52,7.45-7.93,5.17-4.48,15.13-11.23,22.19-9.24,1.57.44,6.84,4.75,7.54,6.06,2.18,4.07.66,10.18-.54,14.36-1.87,6.49-4.83,11.98-7.8,17.9-.73,1.46-.63,4.43-2.13,3.15,1.04,1.93-1.2,2.67-1.83,3.71-5.45,9-11.64,17.98-18.32,25.75-.77,2.26-8.25,9.36-8.5,10.71-.43,2.29,6.89,4.42,5.01,6.84-.12.15-3.15,1.69-3.37,1.71-.83.1-2.52-.53-3.57-.68-2.3-.32-1.11-.31-1.92-.6-1.02-.37-2.12,1.34-3.02,1.42-.78-5.28-1.68.34-2.54,1.52-.12.16-1.69.56-1.74.49-.85-1.42,2.29-3.38,1.76-5.03-1.09,1.02-3.76,2.12-4.62,3.13-.1.12-.53,2.35-1.27,2.82-.17.11-.87-.46-.91-.42-.14.14-.12,2.21-.76,2.52-4.19-2.35,4.52-7.24,3.55-9.07-.63-1.21-2.29-.78-3.27-1.28-4.3-2.22-9.42-5.32-12.63-8.28-.1-.1-.7-1.11-.5,0ZM90.94,2.54c-.21-.23-2.38-.03-2.77-1,.54,1.98-1.13.45-2.49.75-4.28.92-13.82,7.41-17.2,10.55-1,.92-6.93,7.56-6.25,8.34.34.4,5.49-4.65,6.18-5.18,7.59-5.92,12.76-9.14,21.79-12.44.49-.18,1.59-.11.74-1.01ZM95.97,15.13c.56-.67-.32-7.28-.81-8.08-1.21-1.98-2.63-1.06-3.99-1.22-.55-.06-.95-.94-1.24-.77-.05.03.12.73-.35,1.01-1.19.71-2.75.6-3.79,1.05-4.24,1.83-11.54,6.63-15.15,9.51-3.15,2.51-6.18,6.3-9.45,8.81-1.28,3.53-1.27,4.92,2.13,2.25,6.39-5.03,12.86-12.21,20.98-14.95,2.1-.71,6.18-1.1,8.21-.34,1.21.45,2.96,3.32,3.46,2.73ZM21.39,13.12c1.57-1.83-7.33-2.99-8.05-1.26,1.11-.18,7.79,1.57,8.05,1.26ZM12.58,11.61v.5l.25-.25-.25-.25ZM22.66,12.61v.5l.25-.25-.25-.25ZM92.81,15.28c-.69-.56-3.64-1.02-4.58-.97-6.5.32-14.68,7.41-19.47,11.4,6.59-1.24,22.99-9.57,22.11,3.21-.1,1.38-1.71,4.4.06,3.85.97-3.93,5.79-14.34,1.88-17.49ZM11.33,18.15l2.5-2.27c-1.59-.27-2.71.46-2.5,2.27ZM7.79,16.14c-.53-.55-4.83,2.83-5.03,3.4-.12.33-.96,4.11-.98,4.43-.14,2.41,1.48,10.61,2.29,12.87,5.75,15.97,21.21,35.9,36.01,43.98,2.86,1.56,5.83,3.09,9.02,3.82.17-.97-1.59-2.01-2.27-2.51C28.22,68.79,4.58,46.09,6.91,20.59c.08-.85,1.14-4.17.88-4.45ZM72.29,27.22c-2.4.88-4.2,1.83-6.19,2.8-2.92,1.42-2.81.05-4.72,3.25-.2.34-1.09.37-1.21.85-.28,1.13,1.39,5.1-.97,3.67l-1.01,5.04c-1.43-.92-.36-3.4-.51-3.52-.59-.47-1.64,2.28-4.36-.69-1.78-1.94-.3-3.28-1.23-5.03-.53-.99-3.04-3.73-3.98-4.62-.73-.69-2.89-1.68-2.97-1.83-.08-.14.64-.81.45-.93-.3-.2-1.1.54-1.44.42-.05-.02-.11-.67-.45-.9-6.01-3.96-13.12-8.51-20.01-9.49-3.25-.46-10.52.44-11.55,4.41-.63,2.41,7.96,16,9.79,18.78,5.89,8.96,15.97,22.42,23.14,29.38,3.13,3.04,6.99,5.38,9.85,8.77,10.61-12.88,26.2-25.54,32.02-41.53.88-2.43,2.59-7.61,1.4-9.97-2.09-4.11-12.21.16-15.52,1.14-.3-.42-.36-.05-.5,0ZM60.96,22.19v.5l.25-.25-.25-.25ZM41.3,22.69v.5l.25-.25-.25-.25ZM11.07,24.2v.5l.25-.25-.25-.25ZM14.22,29.83c-.1-.18-.87-.28-1.08-.62-.86-1.34-1.44-3.1-2.82-4-.7,5.27,1.32,10.43,3.83,15.06,4.11,7.58,12.37,15.97,19.23,21.18.39.3,3.43,2.22,3.64,2.04l-6.67-8.69c-6.37-7.85-11.61-16.86-16.12-24.97ZM54.4,27.23c-.5.35.27.69.51.99.5-.33-.23-.67-.51-.99ZM59.66,28.27c-.05-.05-1.21-.42-1.46-.3,1.08.85-.98,2.23-.52,2.78.21.25,3.32-1.02,1.98-2.48ZM52.13,28.23c-.58-.57-1.62.22-.25,1,.44.06.28-.97.25-1ZM54.09,29.81c-2.92-1.93-.04,3.05.32,2.95,1.2-.34-.19-2.87-.32-2.95ZM57.17,38.31c.61-.9.61-5.23-1-4.02-.17.13.02,4.1,1,4.02ZM19.64,51.4v.5l.25-.25-.25-.25ZM34.38,64.65c-.96-1.14-7.6-5.34-9.41-7-1.61-1.49-3.26-3.87-5.08-5.24.13,1.33,1.71,3.63,2.51,4.65,5.53,7.12,14.07,15.46,21.55,20.51.82.55,6.68,4.26,7.15,4.35,1.02.22,1.77-1.17,1.29-2.29-.57-1.32-5.79-5.85-7.13-7.01-3.28-2.84-8.93-5.64-10.88-7.98ZM38.53,64c-.71-.36-1.34.32-1,.49.71.36,1.34-.32,1-.49ZM52.64,85.16c-.71-.36-1.34.32-1,.49.71.36,1.34-.32,1-.49ZM61.29,87.63c-.15-.09-.22-.93-.61-1.17-.32-.2-2.61-1.28-2.76-1.29-.21-.02-.7,1.74-1.74,1.51l5.3,1.5,1.25-1.01c-.47-.02-1.03.69-1.42.46ZM49.87,91.2v.5l.25-.25-.25-.25Z"/>
      <path class="cls-1" d="M72.29,27.22h.5c-.19.06-.14.97-.5,0Z"/>
      <path class="cls-1" d="M29.97,77.1s.5-.03.5,0c.2,1.11-.38.12-.5,0Z"/>
    </g>
  </g>
</svg>