<?xml version="1.0" encoding="UTF-8"?>
<svg id="Layer_3" data-name="Layer 3" xmlns="http://www.w3.org/2000/svg" viewBox="0 0 57.14 49.18">
  <g id="Hearts">
    <g id="Layer_6_Image" data-name="Layer 6 Image">
      <g>
        <path d="M5.25,30.5C1.79,26.75-.83,21.6.24,16.31c.21-1.03,1.29-3.03,1.37-3.89.05-.55-.25-1.19-.21-1.86C1.7,5.49,3.99.43,9.68.03c3.14-.22,8.08,1.06,11.2,1.84,3.8.96,3.87,2.15,6.12,4.8,1.5,1.76,2.52,2.28,3.53,4.66.26.62,1.12,4.31,1.37,4.36.37.09,3.08-3.15,3.72-3.68,2.7-2.24,5.82-2.85,8.47-4.92.56-.44,1.13-1.1,1.92-1.67,1.32-.96,3.8-2.91,5.45-1.87.73.46.99,2.46,1.15,2.56.12.08,1.97.19,2.65.53,1.08.53,1.71,2.08,1.84,3.23.32,2.72-1.13,5.78-2.07,8.15-.3.75.43,1.19-.77.89.18.16.24.43.18.66-1,3.61-6.56,10.49-8.95,13.65-.27.36.24.83-.51.43-.78,1.62-2.42,2.66-3.22,4.18-1.67,1.44-2.98,2.96-4.7,4.26-.26.19-.75,1.58-.6-.12-1.39.09-.12.6-.13.83-.02,1.04-.64-.31-.95-.24.67,1.02-.3.18-.43.75-.04.16.17.38.16.46-.01.09-.34-.08-.39-.03-1.61,1.46-2.51,3.18-3.77,4.91-.91.37.66-2.15.6-2.38-.8-.22-.36.61-.48.71-.07.06-.82.2-.72-.36.11-.65,1.85-1.81,1.44-2.27-.13-.14-1.02.53-1.43.62-2.17.5-6.73-1.48-8.73-2.53-.93.9.03.57.49.93.35.28.46.73.77.98,1.08.86,2.89,1.41,3.41,2.62.42.12.11-.57.35-.47.45.18,1.49,1.05,2.03,1.31-.31.33-.73-.21-1.11-.29-1.91-.42-2.25-.89-3.9-1.86-.22-.13-.66.19-.73.12-.05-.05.08-.46-.05-.65s-.66-.21-.91-.42c-1.13-1-2.39-2.74-3.43-3.62-1.63-1.39-4.63-2.72-6.42-4.15-1.89-1.5-5.09-4.57-6.64-6.21.94.29-.53-1.18-.24-.24ZM9.55.89c-.33-.27-3.01,1.33-3.55,1.24.15,1.08-.89.64-.96.7-.13.13-.1.58-.25.75-.73.8-1.83,2.16-2.11,3.16-.33,1.16-.32,3.37-.42,4.65.55-.77,2.11-2.05,2.48-2.77,1.06-2.04.86-4.27,2.9-6.17.1-.1,2.38-1.17,1.91-1.56ZM14.81,2.55c.51-.67-2.49-1.26-3-1.2-.47.05-.33.4-.39.42-.1.05-1.69.1-2.12.44-.33.26-.29.72-.45.9-.27.31-1.4.99-1.78,1.61-.14.22-1.21,2.52-1.1,2.61.19.16,3.44-2.5,4.01-2.8.66-.34,4.68-1.77,4.84-1.98ZM23.86,4.01c-.08-.07-.55.2-.86.06-.45-.2-.51-.71-.78-.88-.07-.05-1.62-.45-1.67-.38-.55.68,3.41,2.03,3.58,1.91.03-.02-.24-.68-.27-.7ZM16.24,3.04c-.28-.27-.77.1-.12.48.21.03.13-.46.12-.48ZM15.17,3.27v.24l.12-.12-.12-.12ZM51.61,6.38c.14-.24-.25-1.29-.47-1.56-1.15-1.47-4.92,1.57-5.91,2.46-.15.14-.86.5-.54.77.4.35,5.38-1.51,6.28-1.74.29-.07.63.1.65.07ZM24.49,4.71v.24l.12-.12-.12-.12ZM21.26,4.95c-.34-.17-.64.15-.48.23.34.17.64-.15.48-.23ZM22.22,41.02c-1.19-.78-2.79-1.26-3.94-2.14-.76.36.54,1.1.87,1.28,2.6,1.42,8.92,4.13,11.78,3.9.34-.03.63-.45.98-.42.14,0,.1.43.14.46.47.34.45-.28.61-.42.2-.18.77-.34.57-.5-.07-.06-.46.09-.47-.11-.02-.8,1.28-1.39,1.81-1.91,4.08-4.01,7.94-8.12,11.16-12.86,2.22-3.27,5.62-8.75,5.16-12.7-.35-2.98-1.32-3.77-4.4-3.49-4.22.39-7.2,2.93-10.06,5.73-.2.19-.5.05-.69.25-.72.75-.57,2.04-1.57,1.43.78,1.31-1.21.33-.48,1.67-.72-.59-.59.74-1.08,1.44s-1.19.33-.84,1.99c-.4-.16-.24,1.1-.71.64-.94-.93-.1-2.29-.27-2.93-.15-.53-.97-.59-1.12-1.05-.13-.39.03-.92-.1-1.34-1.32-4.31-5.23-11.8-9.34-13.6-.76-.33-1.99-.15-1.72-.9-.54.71-1.39.09-2.16.06-1.32-.06-3.28,0-4.29.4-2.95,1.18-2.94,2.02-3.73,4.86-.05.2-.39.15-.41.29-.07.41.18,3.49.28,4.02,1.69,9.38,13.13,19.32,20.59,24.77.44.32,1.49,1.31,1.59,1.36.11.06.39-.23.8.04.35.23.43.55,0,.72-.11.04-1.41-.41-1.63-.51-1.78-.82-3.96-2.92-5.91-4.55C14.94,29.64,6.11,21.57,7.39,9.17c0-.08,1.16-1.19.96-1.35-.48-.4-1.17.85-1.24.9-.09.06-.41-.21-.43-.19-.25.25-.98,3.36-.96,3.93.23,6.48,9.01,18.81,13.85,23.19.39.35,1.16.55,1.2.6.03.04-.25.4-.21.44.03.04.66.17.93.39,1.84,1.47,3.24,3.29,5.33,4.48.25.14.87.13.9.17.24.25-.51.88-.78.91-.85.1-3.42-1.26-4.48-1.63-.02,0-.34-.55-.24,0ZM25.24,6.71c-.61-.41-1.46-.39-1.95-1.05,0,1.13,1.74,2.24,2.66,2.95l2.24,2.54c-.21-1.5-1.72-3.62-2.95-4.45ZM8.71,7.1v.24l.12-.12-.12-.12ZM52.09,8.77c-.23-2.47-.29-1.44-2.09-1.01-.34.08-1.21.02-1.26.06-.85.69,3.03,1.02,3.34.95ZM54.43,7.14c-.06-.03-1.33-.1-1.37-.05-.81.9.6,3.69.81,4.74.37,1.9.07,3.87.39,5.77l1.31-3.11c.33-1.68,1.27-5.08,0-6.44-.28-.3-.6-.31-.89-.49-.15-.1-.17-.4-.23-.42ZM48.51,8.05c-.28-.14-.55.15-.71.36.24.1.94-.24.71-.36ZM45.28,9.25v.24l.12-.12-.12-.12ZM51.04,11.02c-.61-.53-1.41-.81-2.05-1.3l2.75,3.1c.39-.74-.19-1.37-.7-1.8ZM40.14,10.44c-1.09-.44-.42.19-.7.35-.53.32-2.26.93-2.74,1.29-.21.16-.08.53-.2.66-.2.21-1.05.19-1.14.79l2.94-1.49,1.84-1.61ZM48.75,11.15c-.1-.73-2.26-.77-2.73-.69-.44.08-2.14.84-.99.91s2.5-.57,3.72-.21ZM3.33,13.31c-.14.3,0,.23,0,.24-.5,1.91.86,4.75,1.67,6.58,2.01,4.54,4.53,8.01,7.28,11.83,1.74,2.42,2.12,3.98,4.94,5.57.96.54,2.48,1.16,3.56,1.46-.75-1.08-1.92-1.87-2.78-2.83-4.94-5.54-12.83-14.21-13.33-21.85-.06-.95.25-2.13.1-3.14-.36.57-1.19,1.62-1.43,2.15ZM43.73,11.63c.28.14.55-.15.71-.36-.24-.1-.94.24-.71.36ZM29.15,12.11c-.28-.27-.77.1-.12.48.21.03.13-.46.12-.48ZM41.1,12.11c-.59-.08-.77.56-1.19.8-.19.11-.52,0-.78.15-2.21,1.18-4.18,2.94-6.16,4.85-.11.1-.44,0-.6.17-.59.64,0,1.71.13,2.39l1.79-2.38c2.37-1.83,4.46-4.05,6.81-5.97ZM35.12,14.02c.17-.34-.15-.64-.23-.48-.17.34.15.64.23.48ZM2.85,25.49l-1.36-5.91.17-4.59c-.92,2.78-.81,5.45-.02,8.24l1.21,2.27ZM30.1,18.32c-.38-1.21-.75-2.51-1.79-3.34.54.9.83,1.87,1.25,2.82.15.35-.13.65.54.52ZM52.33,17.84c.16-.35-.08-1.28-.23-.95-.16.35.08,1.28.23.95ZM3.09,17.13c-.4-.49-.67.68-.69.86-.37,3.35,1.84,8.21,3.74,11.03,1.65,2.44,3.28,3.85,5.73,5.25.49.28,1.68,1.67.63-.15-2.96-5.15-6.27-9.07-8.74-14.67-.17-.38-.6-2.22-.68-2.31ZM54.01,17.85s-.17.58-.12.71c.57-.28.32-.95.12-.71ZM29.98,20.71v.24l.12-.12-.12-.12ZM3.22,25.73v.24l.12-.12-.12-.12ZM3.69,26.92v.24l.12-.12-.12-.12ZM4.65,29.07v.24l.12-.12-.12-.12ZM14.69,37.19v.24l.12-.12-.12-.12ZM21.14,39.1v.24l.12-.12-.12-.12ZM22.1,40.06v.24l.12-.12-.12-.12ZM37.27,41.49c.17-.34-.15-.64-.23-.48-.17.34.15.64.23.48ZM26.64,41.97v.24l.12-.12-.12-.12ZM21.14,42.21v.24l.12-.12-.12-.12Z"/>
        <path d="M22.22,41.02s.24-.01.24,0c.1.54-.22.01-.24,0Z"/>
        <path d="M3.33,13.54s-.01-.23,0-.24c.22-.1.22.34,0,.24Z"/>
        <path d="M5.49,30.74c-.08-.08-.16-.16-.24-.24,0,.02.22.23.24.24Z"/>
        <path d="M30.82,48.9c.16.08-.14.41-.48.23-.16-.08.14-.41.48-.23Z"/>
        <polygon points="29.03 47.7 29.15 47.82 29.03 47.94 29.03 47.7"/>
      </g>
    </g>
  </g>
</svg>