<?xml version="1.0" encoding="UTF-8"?>
<svg id="Layer_3" data-name="Layer 3" xmlns="http://www.w3.org/2000/svg" viewBox="0 0 47.89 47.64">
  <g id="Hearts">
    <g id="Layer_12_Image" data-name="Layer 12 Image">
      <g>
        <path d="M23.05,43.37c-.71-.63-1.61-2.18-2.22-2.79-1.71-1.7-4.32-2.88-6.05-4.69-5.23-5.45-8.43-13.85-11.98-20.37C1.02,12.28-1.62,7.47,1.31,4.08c.65-.75,1.85-.9,2.62-1.44.49-.34,1.04-1.41,1.58-1.75C7.27-.21,9.97-.19,11.87.4c3.45,1.07,9.06,5.83,11.41,8.7.44.53,1.32,2.42,1.44,2.51.37.28.76-1.48.86-1.66,1.93-3.6,7.91-7.33,11.88-8.41,2.68-.73,5.6-1.31,8.09.29.52.33,2.17,2.55,2.3,3.03.15.53-.16.92-.12,1.35.3,3.8-.47,4.74-1.96,7.98-2.58,5.63-5.4,10.18-8.2,15.4-.15.28-.16.85-.19.89-.02.03-.44-.26-.47-.24-.04.03-.13.77-.29,1.04-.32.52-.87.45-.67,1.59-.6-.61-.81.87-1.23,1.51-.53.82-1.21,1.61-1.71,2.37-.66,1.01-2.81,3.96-3.1,4.8-.18.52.56,1.09.3,1.35-.07.07-.64-.07-.71,0-.19.2.32,1.36.24,1.43-.09.07-.69-.11-.92.03-.35.22-.55,4.37-1.59,1.64-1.15.52-.69,1.17-.87,1.39-.66.78-1.69-.52-.45-.31-.5-.39.03-1.32-.11-1.57-.06-.11-.45-.17-.62-.39-.15-.2-.13-.63-.25-.75-.04-.04-.97.15-1.14-.06-.25-.29.46-.62-.5-.93-.02,0-.34-.55-.24,0ZM15.06,3.11C12.66,1.76,9.24.31,6.57,1.45c-2.97,1.26.23,1.23,1.21,1.47,2.89.73,8.79,2.21,10.56,4.06.56.58,3.17,1.06,3.29,2.46.98-.57.16-.38-.12-.71-1.61-1.85-4.29-4.43-6.43-5.63ZM44.72,2.34c-.21-.09-.54.12-.84.03-1.94-.62-4.2-.94-5.82.35l-2.11.05c.09,1.39-.25.23-.71.35-.61.15-1.26,1.11-1.49,1.25-.1.06-.81-.07-1.21.12-.18.09-2.94,1.95-3.15,2.18-.06.06.09.36,0,.37-.12.02-.35-.28-.75,0-.11.08-1.14,1.57-1.37,1.84-.74.89-1.83,1.25-1.83,2.72,4.43-2.81,8.86-5.55,14-6.66,3.92.66,6.66-1.77,6.29,3.91-.18,2.79-1.75,5.28-2.27,8,2.08-3.65,5.22-9.61,2.27-13.49-.06-.08-.95-.99-1.02-1.02ZM37.73,2.05v.24l.12-.12-.12-.12ZM7.25,3.54c-.89.32-1.23-.4-2.22-.04-.9.33-.71.79-.89.91-.06.04-.42-.23-.44-.21-.12.17.07,1.9-.05,2.28-.05.16-.99.12.02.45-.73,5.29.92,11.36,5.03,14.95l-2.26-5.5c-.91-4.13-3.11-10.12,2.26-12.06-.47.01-.63-.77-.72-.83-.18-.14-.77,1.04-.74.05ZM3.46,14.95c-.31-1.89-.88-3.94-.93-5.85-.04-1.78.36-3.61.57-5.37-3.62,2.27-2.03,6.14-.93,9.29l1.29,1.93ZM11.74,5.24c-.92-.34-3.56.05-4.31.61-.2.15-.1.48-.23.64-.18.23-.48.23-.67.66-.23.53-.09,1.22-.44,1.71.83-.28,1.05-1.35,1.65-1.93,1.14-1.08,3.06-1.39,4.55-1.07,0-.14-.52-.61-.56-.63ZM44.78,9.21c.18-2.05.56-3.68-2.15-3.58.07,1.07,1.37,1.44,1.61,1.73.36.42.04,1.6.53,1.85ZM38.33,6.59c.17-.34-.15-.64-.23-.48-.17.34.15.64.23.48ZM10.95,6.74c-.1-.06-.09-.41-.19-.39-.12.02-2.13.98-2.27,1.08-.44.33-1.01,1.2-.96,1.79.76-.2.85-.85,1.5-1.25.76-.47,1.76-.47,2.32-.78.68-.38-.14-.31-.4-.45ZM42.39,6.83c-.06-.06-1.3-.48-1.53-.47-.9.03-4.99,2.06-5.94,2.62-.16.09-.19.39-.35.48-.29.18-1.5.17-1.5,1.18,2.73-1.59,6.23-1.93,8.97-3.32.19-.1.73-.08.34-.5ZM36.6,7.49c.14-.09.39-.78.3-.9-.04-.05-.79.53-1.19.62-.3.07-.7-.17-.72-.14-.08.11.07.63,0,.72-.06.07-.48-.21-.72-.11-1.47.62-2.91,1.7-4.12,2.3-.31.16-1.31.17-1.35.23-.08.13.05.52-.06.63-.12.12-.64.01-.91.17-.59.35-1.35,1.29-2.12,1.59l.67,1.87c2.87-2.62,5.99-4.78,9.34-6.79.24-.15.68-.06.87-.19ZM37.62,6.59c-.5-.07-.54-.02-.48.48l.48-.48ZM12.54,6.83c-.37-.17-.97.12-.71.23.37.17.97-.12.71-.23ZM12.9,6.83v.24l.12-.12-.12-.12ZM17.31,7.07c-.34-.17-.64.15-.48.23.34.17.64-.15.48-.23ZM12.83,8.19c-.08-.05-.03-.44-.17-.41-.12.02-.36.35-.59.38-1.03.11-1.22-.16-2.37.49-2.25,1.28-2.38,3.8-1.92,6.16,1.56,7.97,11.49,18.78,17.84,23.54.25.19,1.43,1,1.59.96.27-.06,2.82-4,3.25-4.59,4.28-5.88,11.08-15.8,12.26-23.08.41-2.54-.11-2.98-2.61-2.45-.13.03-1.13.65-1.26.72-3.41,1.67-10.9,6.02-12.12,9.56-.15.44-.05.98-.22,1.45-.25.7-.46-.67-1.08-.24-.12.08.99,2.29-.47,2.39-.29-.21-.59-5.85-1.38-7.1s-.08,1.39-1.02,1.6c.5-.84-.19-.7-.21-.83-.08-.61.61-1.45.4-2.33-.17-.69-1.44-1.82-1.74-2.57-.53-.55-.14.44-.09.57.08.2,1.28,2.96.22,2.06-.35-.3-1.11-2.4-1.48-2.95-.93-1.39-3.08-2.83-4.7-3.19-.55-.12-2.03-.08-2.13-.14ZM42.51,8.02v.24l.12-.12-.12-.12ZM20.06,8.98v.24l.12-.12-.12-.12ZM5.97,9.21v.24l.12-.12-.12-.12ZM22.21,9.45v.24l.12-.12-.12-.12ZM22.69,9.93v.24l.12-.12-.12-.12ZM32.84,10.89s.09-.51-.12-.48l-.59.6c.13.04.68-.1.71-.12ZM1.19,10.65v.24l.12-.12-.12-.12ZM22.21,10.65v.24l.12-.12-.12-.12ZM23.4,10.65v.24l.12-.12-.12-.12ZM35.47,10.65l-4.6,1.9c-.47.74-2.01,1.21-2.57,1.59-.52.35-2.13,1.61-1.18,2.23.53.34,1.52-.73,1.9-1.03.99-.78,2.87-2.5,4.23-3.11l2.21-1.59ZM31.76,11.13v.24l.12-.12-.12-.12ZM31.05,11.6v.24l.12-.12-.12-.12ZM24.84,14.24c-.24.17.13.33.24.47.24-.16-.11-.32-.24-.47ZM25.67,15.9c.17-.37-.12-.97-.23-.71-.17.37.12.97.23.71ZM24.84,16.38v.24l.12-.12-.12-.12ZM26.39,16.62c-.73-.83-.21,1.19,0,.71.04-.08.02-.69,0-.71ZM27.11,17.34c.52-.2.57-.4.12-.72l-.12.72ZM26.51,17.81v.24l.12-.12-.12-.12ZM25.91,18.29c-1.23-.61-.66.5-.47,1.43.57-.02-.03-.83-.02-1.06.02-.27.6.04.49-.37ZM40.84,20.92v.24l.12-.12-.12-.12ZM40.6,21.4v.24l.12-.12-.12-.12ZM7.16,21.63v.24l.12-.12-.12-.12ZM9.29,24.41c-.57-.68-1.1-1.45-1.77-2.05.13,1.49,1.22,2.55,1.89,3.75,1.65,2.94,3.68,6.63,6.23,9.26.58.6,1.6,1.23,2.27,1.79.12-1.08-.87-1.09-1.09-1.34-.72-.81-2.39-3.48-2.91-4.46-.12-.23.07-.61.05-.63-.09-.07-.47.1-.72-.17-.08-.08-.6-1.64-.79-1.94-.85-1.36-2.09-2.94-3.15-4.21ZM9.08,22.59v.24l.12-.12-.12-.12ZM39.65,22.83v.24l.12-.12-.12-.12ZM9.55,23.07v.24l.12-.12-.12-.12ZM39.17,23.79c-.54.36-.3.69,0,.23.08-.12.19-.13,0-.23ZM36.3,29.52v.24l.12-.12-.12-.12ZM36.06,29.99v.24l.12-.12-.12-.12ZM35.59,30.47v.24l.12-.12-.12-.12ZM34.99,32.14c.17-.34-.15-.64-.23-.48-.17.34.15.64.23.48ZM34.51,32.86c.17-.34-.15-.64-.23-.48-.17.34.15.64.23.48ZM18.03,34.77c.09-.08-1.1-1.28-1.19-1.19-.24.23.99,1.37,1.19,1.19ZM19.34,33.81v.24l.12-.12-.12-.12ZM20.03,37.07c-.46-.43-.89-.96-1.33-1.41-.16-.17-.36-.71-.67-.29,1.52.86,2.31,4.86,4.3,3.58-.87-.38-1.56-1.19-2.3-1.88ZM21.61,36.68c.2-.25-.38-.84-.47-.72-.2.25.38.84.47.72ZM21.97,36.44v.24l.12-.12-.12-.12ZM22.81,37.87s.58.16.71.12l-.59-.6c-.21-.03-.13.46-.12.48ZM28.3,39.78c.17-.34-.15-.64-.23-.48-.17.34.15.64.23.48ZM26.35,40.07c-.07-.1-1.32-.56-1.63-.28.27.31.99,1.12,1.32,1.19.58.12.41-.77.31-.91ZM26.59,42.68c-.06-.07-.56-.06-.8-.26-1.17-.96-2.3-2.61-3.94-2.64-.25.71.44.29.46.35.02.05-.24.34.14.83.96,1.23,2.84,2.33,3.47,3.84.43-.22.92-1.84.68-2.12ZM27.7,39.79v.24l.12-.12-.12-.12ZM27.34,41.93c.15-.17-.11-.95-.36-.95-.72,0-.05,1.41.36.95ZM27.82,44.56c-.62-.71-.62,1.42,0,.71.02-.03.02-.69,0-.71ZM26.03,46.47v.24l.12-.12-.12-.12Z"/>
        <path d="M23.05,43.37s.24-.01.24,0c.1.53-.2.04-.24,0Z"/>
      </g>
    </g>
  </g>
</svg>