<?xml version="1.0" encoding="UTF-8"?>
<svg id="Layer_3" data-name="Layer 3" xmlns="http://www.w3.org/2000/svg" viewBox="0 0 100 112.35">
  <defs>
    <style>
      .cls-1 {
        fill: #fff;
      }
    </style>
  </defs>
  <g id="Sketchy_Icons" data-name="Sketchy Icons">
    <g>
      <path class="cls-1" d="M41.67,13.34c3.12,2.98,6.32,7.43,8.31,11.26,1.55-.95,3.47-4.05,4.72-4.99.15-.11,2.54-1.51,3.12-1.84,1.86-1.08,4.02-.62,1.78,1.22-1.27,1.05-8.39,5.73-8.52,6.56-.12.74,1.43,3.89,1.75,5.18.97,3.83,1.44,7.6,3.77,11.15,2.63-8.33,6.53-16.23,13.99-21.11,1.41-.92,7.06-3.99,8-4.19,1.45-.31,5.17.17,5.34-.04.12-.14.21-1.99-.33-2.36-1.63-1.12-4.12-.43-5.59-.69-.62-.11-.97-.85-1.27-.98-.45-.2-.13,1.14-.62,1.21-.72.1-1.58-.65-2.21-.65-.17,0-.25,1.85-2.84,1.18-.68-.18,0-1.4-.94-1.16-.35,3.08-.93,1.68-2.12,2.18-.96.41-6.83,2.69-7.1,2.42-.58-.59.16-1.66.98-2.17,1.48-.92,8.42-3.26,10.2-3.67,4.55-1.05,10.4-1.18,14.29,1.79,3.33,2.55,7.58,8.08,8.82,12.12.25.82-.26,1.94-.04,2.33.49.84,2.99,1.2,3.73,1.99,1.18,1.26,1.29,6.05.91,7.76-.82,3.73-3.33,8.81-5.01,12.31-5.49,11.37-11.43,19.65-18.54,29.9-4.38,6.31-8.24,13.03-12.48,19.43-1.8.36-1.13-.91-.75-2.19,1.18-3.99,4.34-7.14,5.66-11.04l-10.78,13.4c-.02.69-1.16,3.17-1.03,3.29.22.21,2.76-.14,2.3,1.73-.97.28-.18-1.79-1.43-1.15-.58.3-2.53,2.95-2.38,3.76.32,1.71,3.93,1.48,3.81,3.72-1.31.54-6.67-2.01-6.9-1.73-.1.12.19,1.24-.59,1.99-1.55,1.49-4.95,1.2-6.86.57-1.39-.46-2.46-2.03-3.05-2.38-.99-.6-2.84-1.35-4.26-2.68-1-.93-3.18-2.73-1.95-3.55-.37-.5-.68.38-1.15-.05-6.92-6.4-13.47-26-17.41-34.91-2.39-5.39-6.94-11.59-8.59-17.33-.32-1.1-.24-4.62-.49-4.99-.03-.04-.79.47-.96.27-.95-1.16-3.6-10.56-4.16-12.76C1.66,28.88-.12,21.01,0,16.19c.07-2.82,1.88-8.5,3.67-10.55C4.83,4.33,10.9.36,12.46.14c9.57-1.33,22.54,6.82,29.21,13.2ZM19.86,3.57c-2.4-.85-8.03-1.06-9.55,1.23-2.7,4.09.26,1.68.95,1.51,9.63-2.27,20.23,7.07,27.76,11.68-3.34-2.1-6.46-7.25-9.4-9.28-1.06-.73-8.47-4.69-9.75-5.14ZM2.2,17.7c1.49-.8.83-2.92,1.49-4.56,1.01-2.54,3.92-4.47,3.68-7.54-4.64,2.02-4.79,7.6-5.17,12.1ZM15.42,7.34c-1.2-.81-1.08,1.06-1.52,1.17-1.4.32-3.4-1.2-5,1.69-.71,1.27.07,7.45.21,9.23,1.01-.08.44-1.57,1.1-2.64.81-1.3,5.74-4.54,7.28-4.81,1.33-.23,8.27.69,4.84-2.07-.48-.39-2.12.21-2.98-.26-.69-.37-.94-1.7-1.32-1.72-.15,0-.59.95-1.47.88-1.26-.11-1.05-1.41-1.13-1.46ZM25.22,11.93c0-.38-.63-1.06-.87-1.14-1.36-.46-1.46,1.81.87,1.14ZM26.94,11.94c-.81-.41-1.54.36-1.15.56.81.41,1.54-.36,1.15-.56ZM10.25,44.19c-.17-.27.17-1.8-.03-2.56-2.73-10.04-2.66-16.4-3.14-26.57-.22-4.77-1.63-1.16-2.21,1.62-.9,4.35.07,13.62,1.15,18.15s3.42,9.09,4.8,13.39c2.6.42-1.37-2.4.56-4.34-.35-.32-1.1.36-1.14.31ZM27.81,13.09v.58l.29-.29-.29-.29ZM22.8,13.79c-1.4-.98-8.69,1.52-10.23,3.05-.84.84-2.43,5.28-2.67,6.6-2.39,13.45,14.28,40.48,22.09,51.69,3.52,5.06,7.61,10.56,11.68,15.24,1.03,1.19,9.34,9.67,10.04,9.67,1.16,0,2.28-5.5,2.7-6.5,6.17-14.55,16.67-28.17,23.57-42.66,1.2-2.52,7.48-16.58,6.25-18.22-.08-.11-2.63.13-2.76.16-.23.06-3.29,2.15-3.7,2.32-5,2.04-10.62,3.35-14.55,7.31-.62-2.85-1.32,1.19-3.16.29,3.14-3.56,8.46-4.38,11.98-7.14l12.61-4.83c3.07-5.82-.5-5.55-5.24-4.42-5.54,1.32-12.79,5.89-17,9.55-2.29,1.99-4.11,4.92-5.8,7.42.8,1.13,2.45-.86,2.59-.86.34,0,1.19,1.27.86,1.71-.09.12-2.29.36-2.88.87-2.14,1.81.78,7.83.58,9.79-.12,1.2-2.61,2.9-2.3,3.17,1.26,1.14.96-2.27,2.3-.86-1.46,1.13-.72,4.55-2.86,4.03,1.77,3.04.13,8.1,1.43,11.49l-.86,5.51c-.57-4.48-.53-9.04-.88-13.52-.23-2.88.07-3.88,0-6.13-.06-1.72-1.45-6.52-3.15-7.41-.83,3.63-.88,7.25-.86,10.94l-3.13-.27c-.2-1.92.98-2.16,1.01-2.3.26-1.75,1.37-8.64,1.31-9.83-.02-.48-1.55-1.79-1.93-3.16-.83-2.99-.23-8.04-2.18-11.06-2.43-3.77-1,1.65-1.14,1.85-.03.05-1.05-.5-1.13-.3-.16.42.67,4.15-.89,4.9.18-6.44,2.17-9.99-2-15.68-2.05-2.8-8.37-8.33-11.35-10.18-1.43-.88-3.51-.54-4.65-1-.69-.28-.7-1.35-1.03-1.39-1.26-.12-2.34,1.35-2.54,1.17-.08-.07.09-.86-.13-1.01ZM40.47,15.39v.58l.29-.29-.29-.29ZM2.48,18.27v.58l.29-.29-.29-.29ZM87.97,23.45c.16-5.59-3.11-5.56-7.56-4.8-1.89.32-8.14,2.84-9.52,3.85-.81.59-6.69,6.47-6.94,7.02-.12.25.07,1.8-.17,2-.06.05-1.08-.64-1.14-.58-.23.25-2.11,5.44-2.3,6.34,7.72-6.96,16.56-14.17,27.63-13.83ZM93.14,26.34c.19-.22-2.32-5.29-2.58-5.18-3.22,1.38,1.88,6,2.58,5.18ZM92.86,22.88v.58l.29-.29-.29-.29ZM47.96,25.18v.58l.29-.29-.29-.29ZM91.3,28.17c-1.37-1.73-3.04.63-.17,1.61-.07-.43.22-1.55.17-1.61ZM82.55,64.2c3.99-6.84,10.58-21.75,10.64-29.51,0-1.07-.15-3.55-1.48-3.63-.17-.01-2.91,1.59-3.02,1.72-.29.37-1.64,7.75-2.16,9.11-5.55,14.54-14.8,26.83-21.73,39.87-.69,1.31-1.41,4.86-1.6,5.05-.05.05-1.08-.64-1.13-.58-1.14,3.27-2.68,6.09-4.04,9.22l19-22.89c.94-3.15,3.96-5.7,5.51-8.36ZM97.16,30.95c-1.01-.96-.95.27-1.16.83-1.1,3.05.04,8.34-1.13,11.83.93-.27,1.42-2.29,1.73-3.16.82-2.29,2.57-7.6.56-9.51ZM49.96,35.55c.34-.66-.36-1.32-.86-1.71-.24.58.58,2.26.86,1.71ZM51.12,38.43c.34-.66-.36-1.32-.86-1.71-.24.58.58,2.26.86,1.71ZM51.69,41.31c.41-.81-.36-1.54-.56-1.15-.41.81.36,1.54.56,1.15ZM51.41,43.04v.58l.29-.29-.29-.29ZM94.87,45.34c.41-.81-.36-1.54-.56-1.15-.41.81.36,1.54.56,1.15ZM13.99,47.66c-.57.4.31.79.59,1.13.57-.38-.27-.76-.59-1.13ZM56.3,48.23c-.67-.65-1.85.25-.28,1.15.5.07.32-1.1.28-1.15ZM14.85,49.95c-2.48-.44.22,3.89.54,4.98,5.85,19.8,19.04,38.22,36.08,50.84,1.86,1.38,2.67-.06,2.55-1.92-.02-.34-.91-.32-.98-.47-.12-.28.36-.76.26-.9-.69-.91-3.37-2.46-4.26-3.2-.52-.43-1.91-2.46-2.06-2.53-.46-.23-1.37,1.66-1.04-1.86-1-.3-.28,1.4-.85,1.15-.73-.32-1.01-1.78-1.46-2.46-1.27-1.92-4.64-4.51-5.99-6.16-1.02-1.25-1.32-4.45-1.48-4.63-.25-.29-1.34.87-1.68.3-.03-.05.47-.68,0-1.19-3.56-3.86-6.81-9.1-9.87-13.75-.44-.66-.49-1.99-.56-2.07-.06-.06-.95.61-1.07.52-.59-.44-.61-2.65-.8-3.1-.41-.98-1.51-3.33-2.41-3.16l-4.92-10.39ZM12.27,51.1v.58l.29-.29-.29-.29ZM57.45,53.41c-.81-.41-1.54.36-1.15.56.81.41,1.54-.36,1.15-.56ZM51.99,59.17v.58l.29-.29-.29-.29ZM27.23,69.53v.58l.29-.29-.29-.29ZM24.35,81.63v.58l.29-.29-.29-.29ZM69.83,84.51v.58l.29-.29-.29-.29ZM33.09,92.22c-.44-.52-1.24-.7-1.8-1.38-1.39-1.69-2.45-4.11-4.06-5.73-1.46,1.06-.36.96-.07,1.78,2.29,6.51,12.91,21.93,19.79,23.41.97.21,3.81-.19,4.48-1,1.28-1.57-1.01-.84-1.52-1.5-.31-.41-.21-1.41-.6-1.84-.15-.16-3.05-.51-4.16-1.34-1.22-.92-1.05-2.07-1.68-2.65-.73-.68-4.51-2.44-5.54-3.38-1.28-1.17-3.66-4.97-4.84-6.36ZM56.59,96.03v.58l.29-.29-.29-.29ZM33.56,100.06v.58l.29-.29-.29-.29ZM52.56,106.97v.58l.29-.29-.29-.29Z"/>
      <path class="cls-1" d="M62.05,111.58c-.2.39-.98-.34-.56-1.15.2-.39.98.34.56,1.15Z"/>
    </g>
  </g>
</svg>