<?xml version="1.0" encoding="UTF-8"?>
<svg id="Layer_3" data-name="Layer 3" xmlns="http://www.w3.org/2000/svg" viewBox="0 0 47.39 45.37">
  <g id="Hearts">
    <g id="Layer_14_Image" data-name="Layer 14 Image">
      <g>
        <path d="M14.2,36.54c-.24-.23-.38-.57-.59-.73-.29-.23-.78-.19-.84-.24-.03-.03.25-.44.23-.46-.07-.05-.46.1-.66-.06-.1-.08-.04-.46-.23-.65C7.21,29.47,3.92,25.18,1.4,18.42c-.08-.23-.49-.41-.54-.67-.08-.37.22-.68.22-.89,0-.26-.59.04-.49-.37l.48-.24c-.65.07-.82-1.07-.89-1.62-.38-2.84-.32-5.67,2.15-7.53.66-.49,1.29-.64,1.84-1.01,1.48-1.01,1.84-2.27,4.17-2s3.57,1.53,5.47,2.41c3.75,1.73,7.65,3.01,11.31,4.93l2.22,1.48c.83-1.45,1.05-3.16,1.92-4.59.49-.8,2.76-3.09,3.53-3.76,2.45-2.12,7.17-5.32,10.51-4.38.74.21,3.24,2.25,3.57,2.87,1.03,1.93.31,4.82-.26,6.81-.89,3.07-2.29,5.68-3.7,8.48-.35.69-.3,2.1-1.01,1.49.49.92-.57,1.27-.87,1.76-2.58,4.27-5.52,8.52-8.68,12.2-.37,1.07-3.91,4.44-4.03,5.08-.2,1.09,3.26,2.1,2.37,3.24-.06.07-1.49.8-1.6.81-.39.05-1.19-.25-1.69-.32-1.09-.15-.53-.15-.91-.29-.49-.18-1.01.64-1.43.68-.37-2.5-.8.16-1.21.72-.06.08-.8.27-.82.23-.4-.67,1.09-1.6.84-2.38-.52.48-1.78,1-2.19,1.48-.05.06-.25,1.11-.6,1.34-.08.05-.41-.22-.43-.2-.07.06-.06,1.05-.36,1.19-1.99-1.11,2.14-3.43,1.68-4.3-.3-.57-1.09-.37-1.55-.61-2.04-1.05-4.47-2.52-5.99-3.92-.05-.05-.33-.53-.24,0ZM43.1,1.21c-.1-.11-1.13-.01-1.31-.48.26.94-.53.21-1.18.35-2.03.44-6.55,3.51-8.15,5-.47.44-3.28,3.58-2.96,3.95.16.19,2.6-2.2,2.93-2.46,3.6-2.8,6.05-4.33,10.33-5.89.23-.08.75-.05.35-.48ZM45.49,7.17c.27-.32-.15-3.45-.38-3.83-.57-.94-1.25-.5-1.89-.58-.26-.03-.45-.45-.59-.37-.02.01.06.35-.17.48-.57.34-1.3.29-1.8.5-2.01.87-5.47,3.14-7.18,4.51-1.49,1.19-2.93,2.99-4.48,4.18-.61,1.67-.6,2.33,1.01,1.07,3.03-2.38,6.09-5.78,9.94-7.08,1-.34,2.93-.52,3.89-.16.57.21,1.41,1.57,1.64,1.29ZM10.14,6.22c.75-.87-3.47-1.42-3.82-.6.53-.08,3.69.74,3.82.6ZM5.96,5.5v.24l.12-.12-.12-.12ZM10.74,5.98v.24l.12-.12-.12-.12ZM43.99,7.24c-.33-.26-1.73-.48-2.17-.46-3.08.15-6.96,3.51-9.23,5.4,3.12-.59,10.9-4.54,10.48,1.52-.05.66-.81,2.09.03,1.82.46-1.86,2.74-6.8.89-8.29ZM5.37,8.6l1.19-1.08c-.75-.13-1.29.22-1.19,1.08ZM3.69,7.65c-.25-.26-2.29,1.34-2.38,1.61-.06.16-.46,1.95-.47,2.1-.06,1.14.7,5.03,1.09,6.1,2.72,7.57,10.05,17.01,17.07,20.85,1.35.74,2.76,1.47,4.28,1.81.08-.46-.75-.95-1.08-1.19C13.37,32.6,2.17,21.84,3.28,9.76c.04-.4.54-1.98.42-2.11ZM34.26,12.9c-1.14.42-1.99.87-2.94,1.33-1.39.67-1.33.03-2.24,1.54-.1.16-.52.18-.57.4-.13.54.66,2.42-.46,1.74l-.48,2.39c-.68-.43-.17-1.61-.24-1.67-.28-.22-.78,1.08-2.07-.33-.84-.92-.14-1.55-.58-2.38-.25-.47-1.44-1.77-1.89-2.19-.35-.33-1.37-.8-1.41-.87-.04-.07.3-.38.21-.44-.14-.09-.52.26-.68.2-.02,0-.05-.32-.21-.43-2.85-1.88-6.22-4.03-9.49-4.5-1.54-.22-4.98.21-5.47,2.09-.3,1.14,3.77,7.58,4.64,8.9,2.79,4.25,7.57,10.62,10.97,13.92,1.49,1.44,3.31,2.55,4.67,4.16,5.03-6.11,12.42-12.1,15.17-19.68.42-1.15,1.23-3.61.66-4.73-.99-1.95-5.79.08-7.36.54-.14-.2-.17-.02-.24,0ZM28.89,10.51v.24l.12-.12-.12-.12ZM19.58,10.75v.24l.12-.12-.12-.12ZM5.25,11.47v.24l.12-.12-.12-.12ZM6.74,14.14c-.05-.08-.41-.13-.51-.29-.41-.63-.68-1.47-1.34-1.9-.33,2.5.63,4.94,1.81,7.14,1.95,3.59,5.86,7.57,9.11,10.04.18.14,1.62,1.05,1.72.97l-3.16-4.12c-3.02-3.72-5.5-7.99-7.64-11.84ZM25.78,12.91c-.24.17.13.33.24.47.24-.16-.11-.32-.24-.47ZM28.28,13.4s-.57-.2-.69-.14c.51.4-.47,1.06-.25,1.32.1.12,1.57-.48.94-1.18ZM24.71,13.38c-.28-.27-.77.1-.12.47.21.03.13-.46.12-.47ZM25.63,14.13c-1.38-.91-.02,1.45.15,1.4.57-.16-.09-1.36-.15-1.4ZM27.1,18.15c.29-.43.29-2.48-.47-1.91-.08.06,0,1.94.47,1.91ZM9.31,24.36v.24l.12-.12-.12-.12ZM16.3,30.64c-.45-.54-3.6-2.53-4.46-3.32-.76-.7-1.54-1.83-2.41-2.48.06.63.81,1.72,1.19,2.21,2.62,3.37,6.67,7.33,10.21,9.72.39.26,3.17,2.02,3.39,2.06.48.1.84-.55.61-1.09-.27-.63-2.74-2.77-3.38-3.32-1.55-1.34-4.23-2.67-5.16-3.78ZM18.26,30.33c-.34-.17-.64.15-.48.23.34.17.64-.15.48-.23ZM24.95,40.36c-.34-.17-.64.15-.48.23.34.17.64-.15.48-.23ZM29.05,41.53c-.07-.04-.1-.44-.29-.55-.15-.09-1.24-.61-1.31-.61-.1-.01-.33.83-.83.71l2.51.71.59-.48c-.22,0-.49.33-.68.22ZM23.64,43.23v.24l.12-.12-.12-.12Z"/>
        <path d="M34.26,12.9h.24c-.09.03-.06.46-.24,0Z"/>
        <path d="M14.2,36.54s.24-.01.24,0c.09.52-.18.06-.24,0Z"/>
      </g>
    </g>
  </g>
</svg>