<?xml version="1.0" encoding="UTF-8"?>
<svg id="Layer_3" data-name="Layer 3" xmlns="http://www.w3.org/2000/svg" viewBox="0 0 49.94 59.66">
  <g id="Hearts">
    <g id="Layer_10_Image" data-name="Layer 10 Image">
      <g>
        <path d="M20.31,54.17c-3.12-1.96-7.33-6.78-9.17-10.07-.37-.66-.2-1.46-.86-.93.17-.98-.51-1.26-.79-1.73-1.25-2.14-2.76-4.21-3.28-6.64-.73.72-.62-1.09-.8-1.62-.11-.32-.75-1.06-.93-1.56s.06-.73.05-.77c-.01-.09-.39.18-.48,0-.58-1.26-1.13-3.72-1.54-5.13C1.06,20.79-.72,12.63.3,7.5c.34-1.68,2.13-4.6,3.89-4.95.9-.18,4.24-.09,5.15.12,4.57,1.04,9.64,9.33,11.65,13.41.35.72,2.45,6.68,2.78,6.54.58-.25.74-1.32,1.07-1.81,4.33-6.34,8.7-13.14,14.39-18.03,1.37-1.18,3.91-3.67,5.91-2.46,1.42.85,1.04,2.71.96,4.02-.02.31-.21,1.84-.18,1.95.15.53.57.67.66,1.15.1.51-.12,1.24-.01,1.64.05.2.84.25,1.2.51.82.61,1.98,2.13,2.15,3.12.04.23.02,3.03-.06,3.16-.43.72-.99,1.65-1.44,2.49-5.64,10.47-12.28,20.16-15.47,31.86-.55,3.14-1.96,6.09-3.08,9.09-.2.42-1.64.38-1.91.22-.16-.09-.21-.45-.43-.6-2.7-1.83-3.77-3.11-6.99-4.77-.02-.01-.34-.54-.24,0ZM45.12,6.09c.12-.18.26-3.87,0-4.33s-.96-.95-1.48-.85c-.25.05-.42.44-.65.53-4.14,1.65-10.67,9.74-13.31,13.69-1.12,1.67-2.17,3.45-3.14,5.22.66.1.58-1.08.74-1.28.02-.03.38.22.69-.13,4.08-4.48,9.19-11.34,15.51-12.71.36-.08,1.41.23,1.65-.15ZM4.42,3.25v.24l.12-.12-.12-.12ZM5.97,3.25c-1.67-.43-.45.75-.36.71.22-.09.43-.44.36-.71ZM6.33,3.49v.24l.12-.12-.12-.12ZM9.55,4.21l-1.43-.48c-.33.58,1.39.95,1.43.48ZM5.49,4.45c-.2-.19-2.16.17-2.5.48-.75.67-.61,2.42-.6,3.34.49-.39.72-1.04,1.19-1.56.37-.4,2.35-1.85,1.91-2.26ZM11.17,6.69c-.07-.05-1.02-.59-1.13-.65-.3-.15-2.58-.89-2.73-.88-.22.67-1.2.79-1.44,1.21-.66,1.12-.36,4.93-.22,6.24.17,1.54.89,3.43.57,4.87.88-.31.31.62.49,1.41,2.74,12.17,9.6,26.87,20.79,33.22.32.18,2.74,1.22,2.84,1.1.04-.05-.02-.91.06-1.26,3.03-12.99,7.49-25.06,12-37.48.5-1.37,1.27-2.91,1.8-4.3-.49.13-1.62-.07-1.99.02-3.44.86-9.64,6.89-11.75,9.85-.3.42-.29.19-.3.22-.25.38-1.01,2.37-1.28,2.54-.06.04-.42-.23-.44-.21-.07.12.08.71-.04,1.05-.1.29-.53.34-.6.46-.89,1.76-1.54,3.24-2.17,4.89-.96,2.53-1.44,4.77-1.85,7.46v3.35c-.43-.37-.73-.75-.82-1.32-.44-2.59.52-5.48,1.16-7.91.13-.48,0-1.05.1-1.37.15-.51,1.48-1.28-.08-1.59.23,1.24-.56,2.07-.91,3.04-.1.29,0,.97-.05,1.02-.13.14-.91-.27-.95-.24-.27.19-.22,1.89-.29,2.28-.39,2.05-.54,2.26-.25,4.84.04.38.22.83-.29.29-1.25-3.15-.95-7.69.04-10.94.23-.74,1.03-1.92,1.13-2.65.29-2.1-4.33-11.58-5.84-13.47-.37-.46-2.78-2.46-2.87-2.7-.15-.37.1-.51.36-.12.65.42.23-.2,0-.26-.33-.09-.64,0-.83-.11-.76-.4-1.58-1.5-2.22-1.93ZM1.55,5.64v.24l.12-.12-.12-.12ZM12.18,6.36l-.48-.48c-.07.5-.02.54.48.48ZM1.67,7.31s.1-.7-.12-.71c-.7.4-.2,1.08.12.71ZM9.79,31.46c-2.29-6.95-5.02-14.11-5.17-21.53-.02-1.02.54-2.38.04-3.33-.72.29-.56,1.18-.68,1.38-.05.08-.43.12-.58.46-2.55,5.77,2.18,15.51,4.87,20.83l1.52,2.18ZM12.78,6.84c-.24.17.13.33.24.47.24-.16-.11-.32-.24-.47ZM42.88,7.32v.24l.12-.12-.12-.12ZM1.67,7.56c-.94-.06-.49.75-.59,1.32-.53,3.05.23,9.56.98,12.75.64,2.73,2.06,5.42,2.25,8.05.84-.28.28.21.48.64,2.93,6.27,6.31,13.34,10.97,18.65.47.53,1.24.99,1.67,1.62.07-1.06-1.28-1.8-1.67-2.33-4.33-5.85-8.45-15.34-10.86-22.29C2.81,19.95,1.04,14.02,1.67,7.56ZM13.73,7.56c-.24.17.13.33.24.47.24-.16-.11-.32-.24-.47ZM42.52,8.03c.17-.34-.15-.64-.23-.48-.17.34.15.64.23.48ZM41.8,8.04c-.55-.45-1.89,1.52-2.66,1.26l-3.31,2.92,5.53-3.48c.18-.07.47-.68.43-.71ZM44.43,8.27c-.17-.14-1.41.33-1.43.71.13-.05,2.02-.23,1.43-.71ZM47.95,10.97c-.13-.14-1.34-.56-1.47-.53-.73,1.67-1.04,3.71-1.43,5.55l-5.04,14.51c1.36-2.02,2.41-4.39,3.77-6.27,1.42-3.55,6.28-7.84,4.88-11.94-.03-.08-.66-1.26-.71-1.31ZM44.79,11.38v.24l.12-.12-.12-.12ZM44.43,11.86c-.2.23-.25.83.12.95.05-.27.16-1.27-.12-.95ZM35.47,12.34v.24l.12-.12-.12-.12ZM34.63,41.02c2.4-8.01,5.98-15.61,8.61-23.53.48-1.43,1.34-3.25.94-4.67-.35-.06-.33.42-.4.67-2.06,6.88-5.35,13.94-7.36,20.36-.61,1.93-1.21,3.88-1.86,5.79l.06,1.38ZM34.88,13.06c-.25-.2-.84.38-.72.47.25.2.84-.38.72-.47ZM33.09,14.25v.24l.12-.12-.12-.12ZM28.79,20.23v.24l.12-.12-.12-.12ZM25.8,21.18s-.17.58-.12.71c.57-.28.32-.95.12-.71ZM28.43,21.18c-.77-.19-.31.46-.53.66-1.21,1.1-2.02,2.02-2.79,3.78-.45,1.03-.81,2.4.42.9l2.9-5.34ZM25.32,22.61c.17-.34-.15-.64-.23-.48-.17.34.15.64.23.48ZM7.28,29.55c-.24.17.13.33.24.47.24-.16-.11-.32-.24-.47ZM7.76,30.27v.24l.12-.12-.12-.12ZM7.76,30.74v.24l.12-.12-.12-.12ZM9.58,33.6c-.06-.05-.41-1.19-.56-1.48l-.89-1.38c-.11,1.06.39,2.16.78,3.16,1.77,4.46,5.66,11.19,8.63,14.78.15.18.85.92,1.09.71-1.17-1.94-2.62-3.75-3.68-5.76-1.7-3.23-2.61-5.58-4.51-8.88-.23-.41-.36-1.32-.41-1.38-.02-.02-.41.26-.45.23ZM39.89,31.22c.17-.34-.15-.64-.23-.48-.17.34.15.64.23.48ZM39.53,31.46v.24l.12-.12-.12-.12ZM34.28,41.26v.24l.12-.12-.12-.12ZM16.24,42.7c-.15-.13-.64-.05-.47.35,1.37,1.91,2.5,4.31,3.86,6.19,2.04,2.82,4.99,6.65,8.9,6.11.16-.02,1.29-.41,1.33-.47.35-.47-3.1-1.76-3.38-1.93-2.47-1.5-6.11-4.78-7.86-7.02-.23-.29-.2-.82-.23-.85-.05-.05-.59.33-.71.25s-.97-2.22-1.44-2.63ZM19.11,49.63s-.7-.1-.71.12c.4.7,1.08.2.71-.12ZM17.91,51.06c.17-.37-.12-.97-.23-.71-.17.37.12.97.23.71ZM18.99,51.54v.24l.12-.12-.12-.12ZM29.38,58.47c.08-.08.35-1.78.37-2.14-.53.02-1.25.47-1.68.49-.76.03-1.07-.62-1.79-.26l1.81,1.64c.23.2,1.18.38,1.29.27Z"/>
        <path d="M20.31,54.17s.24-.01.24,0c.1.54-.22.01-.24,0Z"/>
        <path d="M22.69,32.89c-.2.24-.44-.43.12-.71.04.13-.1.68-.12.71Z"/>
        <polygon points="22.81 33.13 22.93 33.25 22.81 33.37 22.81 33.13"/>
      </g>
    </g>
  </g>
</svg>