<?xml version="1.0" encoding="UTF-8"?>
<svg id="Layer_3" data-name="Layer 3" xmlns="http://www.w3.org/2000/svg" viewBox="0 0 90.25 107.67">
  <g id="Moons">
    <g id="Moons_Image" data-name="Moons Image">
      <g>
        <path d="M32.32,105.75s.23.01.24,0c-.03,0,.2.14-.24,0Z"/>
        <path d="M32.32,105.75c-1.77-.56-2.94-1.41-4.55-2.04-1.31-.51-.77-.54-.83-.57-.05-.02-.5.15-1.02-.2-.58-.39-.93-.92-1.36-1.28-.54-.45-1.13.2-.62-.94l-.47.48c.08-.64-.53-.5-.78-.71-3.45-2.81-6.33-7.16-8.36-11.1-.45-.86-.6-1.75-1.19-2.52-.04-.05-.34.15-.57-.03-.81-.64-2.51-2.4-3.38-3.22-.34-.32-.57-1.02-.88-1.29-.14-.12-.53-.01-.6-.09-.15-.17.08-.73-.06-.9-.09-.11-.64,0-.82-.26-.24-.35-.07-.5-.65-1.22-.46-.57-.98-1.65-1.26-2.06-2.36-3.45-3.5-7.05-4.24-10.93C-3.78,43.46,14.56,18.8,34.17,8.29,46.11,1.9,60.55-3.96,73.2,3.48c.65.38,1.57.21,1.49,1.45.38.1.11-.87.71-.47.04.03.25.64.57.86.3.2.73.16.94.32.69.52,1.27,1.37,1.84,1.84,2.3,1.88,4.56,5.56,5.97,8.16s2.58,5.16,3.56,8.14c.38,1.17,1.9,4.95,1.96,5.82,0,.08,0,.16,0,.24,0,.03-.22.19-.22.38-.02.47,0,2.29-.26,2.5-.12.09-.7-.74-.95-.48-.61.62.88.89.94,1.09.28.92-.39.77-.45,1-.07.25.05.71,0,.79-.13.17-1.51-.68-1.67-.85-.26-.27-.14-1-.24-1.06-.2-.14-.68.22-.85.22-.12,0-.06-.47-.24-.47-.35.02-.63.58-.58-.23-1.08.99-.91.07-1.07.04-2.44-.44-7.85.13-9.96.8-1.21.39-2.59,1.03-3.81,1.55.12-.28-.36-.28-.24,0-2.31,1.09-4.95,2.64-7.04,4.1-.28.2-.36.63-.41.66-.09.06-.63-.32-.69-.21-.05.09.08.46-.05.65-.13.18-1.44.61-1.59.83-.93,1.33-2.88,2.89-4.26,4.37-.83.9-1.84,2.07-2.69,3.16-1.66,2.16-3.56,5.18-4.51,7.7-.61,1.61-1.31,3.34-1.03,5.08l-.47-.13c-.12,3.16-.67,6.38-.39,9.55.26,2.93.92,5.36,1.99,8.01.41,1.02-.03,1.93.06,1.97.14.07.52-.13.74.15.39.49.39,1.42.49,1.66.02.05.36-.12.4-.08.17.2.72,1.53.76,1.87.51.17.48-.08.72.72-.49.05-.13.64,0,.48-.03.13.02.33,0,.48-.18.16-.79-.96-.83-1.18-.05-.28.12-.45.12-.49-.16-.06-.42.06-.71-.12-.55-.35-2.75-3.7-2.17-4.56-.81.24-.32-.11-.49-.69-.63-2.12-1.29-3.61-1.63-5.79-.5-3.21-.53-6.47-.03-9.68-.32-.06-.37.44-.41.66-.29,1.65-.67,3.29-.79,4.96-.41,5.76.44,11.12,3.65,16.01,1.39,2.12,5.64,6.86,8.09,7.49.5.13,1.04-.1,1.21-.02.27.12.41.7.73.93,3.06,2.21,7.94,2.73,11.57,3.03.91.07,1.87-.03,2.76-.14-1.21,1.19-2.38,2.42-3.58,3.62-.23.23-.57.16-.62.22-.05.06-.12.81-.38,1.01-.1.07-1.64.16-2.34.48-.64.29-1.22.88-1.7,1.11-3.73,1.77-8.37,3.21-12.67,3.97.1-.22-.34-.22-.24,0-2.98.49-6.47.78-8.97.71-1.94-.05-4.7-.42-6.52-.87-.23-.06-.58.22-.8.05-.26-.2-.11-.72-.47-.62.07.98-.42.22-.84.13-.9-.2-1.29-.39-2.03-.61.12-.28-.36-.28-.24,0ZM17,28.88c-.11.12-.84.42-1.1.82-.47.7-.32,1.34-.41,1.53-.03.07-1.47.98-.17,1-.43-.47.44-.86.71-1.2-.28.87-.21,2.04-1.19,1.44l.24.72-.95-.36c.97.86-.07,2.49-.64,3.42-.32.53-.57.91-.78,1.43-1.66,4.13-2.77,8.83-3.14,13.34-.28,3.4-.22,9.3.53,12.64.08.33.29.8.66.89.26-3.06.77-6.16,1.5-9.15.28-1.15,1.15-4.73,1.6-5.57.17-.32.17.5.34-.43.55-3.05,2.86-6.47,3.85-9.03.36-.93,1.46-2.52,2.06-3.41.16-.24.66-.26.47-.9.86.53.19,0,.45-.61.58-1.37,2.67-3.62,3.62-4.84,6.6-8.48,14.39-15.07,24.36-18.95,1.34-.52,2.69-1.02,4.12-1.22l-.72-.95c.42-.41.96,1.23,1.2.95.12-.14-.34-.54-.12-.71,1.11.68,2.5-.06,3.54-.17,3.09-.31,6.76-.38,9.78.31,1.5.34,3,.96,4.34,1.34,3.7,1.04,9.4,7.11,11.56,10.25.08.12.18.91.59.48.05-.05-.41-1.28-.46-1.33-1.05-1.14-.39-.79-.78-1.5-.22-.4-1.23-.83-1.72-1.99-.47-1.1-.19-.22-.76-.9-.26-.31-.69-1.09-.7-1.46-.74.56-.53-.09-.84-.37-1.62-1.46-1.86-2.36-3.95-3.46-.13-.07-1.16-1.55-1.86-1.87-.33-.15-.77,0-.9-.07-.03-.01.28-.41.02-.59-.58-.42-2.87-1-3.27-1.56-.09-.13.04-.81.49-.73.28.05,1.47.65,1.81.83,1.52.82,3.75,2.4,4.56,3.7.02.03.33-.13.48-.08.17.06,2.4,2.12,2.49,2.26.37.62-.31,1.29.82.73.81,1.42,2.02,2.54,2.96,3.87,1.03,1.47,1.62,2.96,2.35,4.07,1.37,2.09,1.84,3.95,2.98,6.17.48.93,1.04,1.92,2.27,1.56-.47-1.19-.99-2.4-1.34-3.63-.42-1.51-.54-2.71-1.19-4.13-1.22-2.66-3.39-7.29-4.89-9.18-.25-.31-1.15-.92-1.28-1.14-.14-.24-.03-.81-.17-.94-.03-.02-.33.22-.57-.01-.49-.47-1.8-2.47-2.36-2.82-.43-.27-.93.33-.4-.78-1.28.4-.95-.75-1.24-.93-.17-.11-.56.03-.85-.1-.08-.04-.15-.38-.37-.5-.38-.21-1.26-.4-1.45-.61-.49-.53.39-.93-1.12-.5-.03-.05.27-.45.24-.47-.36-.34-2.47-.29-2.4-1.2l-.47.48c.1-1.14-.1-.52-.96-.48l.48-.47c-.46.03-1.58.11-2-.03-1.31-.42-2.06-.51-3.62-.69-1.77-.21-3.49-.33-5.26-.48l.12.48c-.06.08-1.78-.26-2.02-.24-.07,0-.08.2-1.08.32-1.81.2-4.51.93-6.3,1.44-.48.14-1.43.41-1.62.87,3.01-.19,6.92-1.04,9.93-.47.34.06.77.52.84.47.03-.02-.04-.33.05-.41.35-.32,6.67,1.33,7.66,1.69.44.16,2.12.81,2.36,1,.73.61-.53,1.12-1.5.59-.28-.16-.31-.63-.56-.68-.24-.05-.63.29-.79.19-.1-.06-.14-.56-.39-.7-.23-.13.05.61-.35.48-.05-1.04-.72-.46-.91-.55-.05-.03-.01-.32-.2-.38s-.72.16-1.16-.26v.48c-.71-.9-1.8-.49-2.6-.71-.3-.08,0-.59-.4-.48.13.84-.43.19-1.08.11-1.52-.2-2.52.25-4.07-.35-.21-.08-.06.49-.22.47-.6-.09-1.28-.83-1.44-.03-.56-.38-1.74.11-2.15.04-.28-.05.03-.59-.38-.48-.21,1.08-2.41.7-3.15.87-3.75.82-7.47,2.37-10.34,4.2-4.13,2.64-7.47,5.39-10.93,8.94-1.79,1.84-8.65,9.17-8.38,11.13,0,.07.01.23,0,.24ZM46.57,3.49v.24c.16-.08.16-.16,0-.24ZM71.94,8.52v.24c.16-.08.16-.16,0-.24ZM61.72,10.02c-.12-.06-2.22.26-2.7.29-.9.06-1.7-.51-2.4.61-.24-.34.03-.61-.6-.48.52,1.26-1.21.3-1.55.33-.27.02-.51.45-.82.49-1.53.23-5.03,1.02-6.12,1.63-.78.43-1.34,1.57-2.52.89,0,.19.07.54-.04.67-.08.09-1.81.77-2.24,1.01-3.54,1.98-7.76,5.06-10.71,7.9-3.75,3.62-7.04,7.52-9.76,11.62-4.21,6.36-7.02,12.58-8.93,20.05-1.4,5.49-2.95,11.55-.9,17.09.47,1.27,1.37,2.56,1.92,3.65.29.57,1.99,4.2,2.18,4.35.04.03.43-.25.45-.22.06.06.36.99.74,1.49,1.7,2.23,3.59,3.69,5.72,5.35,1.36,1.06,1.19,1.19,2.73,1.86.63.27,2.35,1.11,1.12,1.6.13-1.08-.22-.49-.47-.64-.91-.52-4.07-2.03-4.5-2.66-.26-.39.34-.73-.78-.29l.24-.48c-.78.19-.71-.38-1.09-.72-1.95-1.72-3.42-3.27-4.82-5.22-.84-1.17-1.43-2.13-2.08-3.17-.52-.84-1.59-2.91-1.95-3.83-.12-.3-.09-.92-.12-.96-.08-.1-.49-.23-.42.31.49,3.91.65,8.83,2.37,12.47.9,1.91,2.29,3.24,4.1,4.29,8.65,5.02,22.32,7.3,32.09,5.4.35-.07,1.85-.23,1.84-.56-1.42-.93-2.95-2.54-3.35-4.19l-.47.48c.01-1.11-.93-1.84-1.39-2.8-1.09-2.22-2.22-5.2-2.65-7.63-.61-3.45-.26-7.56-1.19-10.52-.08-.25-.06-4.79-.03-5.27.85-13.85,8.84-25.87,20.61-32.31,3.41-1.86,7.8-3.52,11.63-4.19,3.36-.59,7.06-.62,10.37.21-.29-.37-.31-.9-.5-1.25-1.27-2.37-2.4-4.12-4.05-6.34-.36-.49.04-1.03-.71-.55.49-1.13-.42-.82-.9-1.28-.09-.08-.59-1.32-.69-1.38-.21-.14-.61.03-.75-.05-.67-.4-.96-1.32-1.25-1.84-.02-.03-.47.29-.71.14-.21-.13-.33-.64-.59-.87-.86-.76-2.13-1.15-2.88-1.64-.26-.17-.46-.53-.72-.73-.2-.06.34.75-.23.47-1.84-.9-3.64-1.69-5.51-2.39-.16.87-1.34.11-2.19.04-1.06-.09-.93.21-1.81-.22ZM31.73,10.68v.24c.16-.08.16-.16,0-.24ZM7.19,55.22l.72-5.03.47.13c-.83-1.02.44-1.28.49-1.45.18-.6-.04-.68-.49-.36.15-.44.13-1.11.26-1.49.79-2.29,1.4-4.79,2.16-7.24,3.07-10.02,9.28-18.99,17-25.84.24-.21,3.72-2.67,3.32-3.02l-1.31.71c-1.98,1.34-3.76,2.97-5.69,4.32-.16.12-.18.43-.2.44-.14.05-.61-.31-.69-.21-.04.06.05.49-.25.83-.64.75-3.21,2.76-4.03,3.27-.04.03.23.43-.13.7-.26.19-.73.16-.88.38-.4.59.23,1.31-1.18,1.05.04.11.19.28.18.35-.03.15-1.4,1.95-1.68,2.21-.24.23-.74.2-.84.35-.12.18,0,.61-.17.9-.36.6-2.11,2.19-2.62,2.89-.34.47-.5,1.13-.74,1.44-.19.25-.56-.03-.58,0-.05.09-.68,1.47-.79,1.74s.08.62.05.63c-.14.07-.58-.08-.68.03s.05.57-.1.86c-.47.91-1.99,2.63-2.38,3.49-.3.67.11,1.29-.65,1.01.16,1.06-1.08,2.64-1.56,3.74-.17.39-.28.62-.44.99-.27.65-.29,1.48-.64,2.18-.08.16-.43.17-.44.2-.04.11.24.56.16.98-.06.37-.46.75-.56,1.14C.97,52.36.05,58.54.59,63.38c.09.8.75,1.7.14,2.51,1.1-.37.4,1.81.51,2.15.06.2.54.17.65.51.13.38-.04.9.09,1.35.18.61.81,1.01.42,1.86.87-.51.25-.02.39.48.74,2.58,3.67,6.88,5.5,9.08l4.05,4.09c.31-.13-.01-.64-.11-.85-.53-1.1-1.2-2.01-1.68-3.22.36.48.73.05.48-.24.04.04.27-.08.33,0,.16.2.16.73.39.36-.39-1.59-.95-3.29-.48-4.91l-.47.48c.01-1.06-.03-2.13-.11-3.18-.35-4.79-1.14-8.24-1.66-12.75-.28-2.46.15-6.69-.19-8.38-.01-.07-.48-.19-.39-1.2,0-.05,1.15-.68.08-.83-.62.52-.09,1.78-.12,2.25-.01.15-.36.13-.39.2-.33.68-.27,4.39-.37,5.74-.03.37-.37.79-.41,1.29-.1,1.35.53,3.02-.26,4.29l.47-.13c.15,2.93.32,6.35,1.06,9.17.35,1.33,1.17,2.83,1.49,4.24.09.42-.15.89-.12.93.06.08.57.1.89.68.25.46.14,1.61.28,1.74-.02-.02-.4-.02-.48,0-1.03-1.86-2.62-6.18-2.98-8.27-.09-.56.03-1.44.11-2.02l-.47.13c.19-1.37-.54-3.01-.01-4.32l-.47.13.23-2.76h-.48c.31-1.94.25-3.93.39-5.89.05-.68.16-2.03.33-2.6.02-.06.2-.11,0-.24ZM70.5,11.64v.24c.16-.08.16-.16,0-.24ZM76.73,12.12v.24c.16-.08.16-.16,0-.24ZM81.28,17.38v.24c.16-.08.16-.16,0-.24ZM85.58,18.1v.24c.16-.08.16-.16,0-.24ZM37.71,18.34v.24c.16-.08.16-.16,0-.24ZM20,19.06v.24c.16-.08.16-.16,0-.24ZM84.19,23.43c.04.07-.34.57.07.3l.23-.24-.95-1.56c-.35,1.12.4,1.12.64,1.49ZM83.19,23.13v.24c.16-.08.16-.16,0-.24ZM85.34,25.77v.24c.16-.08.16-.16,0-.24ZM67.27,31.75c.23-.21,1.84-.06,2.16-.15,4.6-1.24,9.16-3.61,14.13-2.64.27.05.91.29.94-.21,0-.1-1.7-.17-1.79-.84-.3.94-1.87.24-2.88.22-1.14-.02-5.49.25-6.4.54-.36.11-.63.64-.77.64-.16,0-.43-.54-.59-.45-.03.02.11.36-.3.55-.8.37-2.64.68-3.68,1.09s-1.8.91-2.5,1.33c-.15.09-2.61.92-2.14,1.34.21.19.84-.47,1.17-.58.39-.13,1.48-.21,1.94-.26.33-.04.06-.13,0-.35l.72.72c-.37.18-1.31-.05-1.52.01-.08.02-.89.61-1.05.69-.49.22-2.09,1.08-2.38,1.17-.57.17-1.53-.48-1.5,1.01l-.47-.48c-.23.24-.68,1.37-.74,1.42-.02.02-.33-.16-.54-.12-1.33.27-.79.65-1.12.96-.24.22-1.69,1.52-1.8,1.57-.56.23-.16-.58-.59-.48.53,1.09-.1.88-.16,1.01-.05.1.14.3.09.37-.74.94-1.07.49-1.12.54-1.41,1.54-4.02,5.87-5,7.82-2.23,4.44-2.86,7.47-3.87,12.13-.04.18-.38.17-.41.22-.1.15.48,1.33.65.3.43-2.61,2.33-5.94,3.61-8.32,4.21-7.83,9.23-14.17,16.82-19.25.54-.36,1.42-.04,1.61-.92.01-.06-.93-.18-.48-.59ZM83.43,29.36v.24c.16-.08.16-.16,0-.24ZM80.91,30.08c-.43-.35-.45.1-.35.47l-1.56-.23c.27,1.12,1.14,1.06-.37,1.19.22-.7-.1-.57-.71-.24-.22-.17.24-.58.12-.71-.02-.03-.71.08-.71.11,0,.12.35.54.23.84-.41.1-.15-.34-.26-.43-.05-.04-.82.27-1.17-.29.1,1.21-.17.5-.81.56-.99.09-1.08.2-2.2.17-.11,0,.13.61-.25.69-3.85.85-7.54,3.66-10.46,6.18-.6.52-1.9,1.3-2.48,1.84-1.68,1.56-3.12,3.44-4.63,5.17l6.64-5.98c4.09-3.16,10.71-6.61,15.79-7.38,1.23-.18,2.57.49,2.22-1.02l.24.72.6-.72c.54.85,1.1.41,1.64.51,1.51.28,3.03.43,4.46.92-.14-1.57-1.21-1.67-2.54-1.88-.96-.15-2.46.01-3.33-.07-.19-.02-.06-.4-.11-.44ZM78.64,30.56v.24c.16-.08.16-.16,0-.24ZM62.96,32.95l-1.43,1.08c.83.08,1.53-.02,1.43-1.08ZM14.13,33.91c.17-.34-.15-.64-.23-.48-.17.34.15.64.23.48ZM60.81,34.39c-.34-.17-.64.15-.48.23.34.17.64-.15.48-.23ZM13.29,35.11v.24c.16-.08.16-.16,0-.24ZM64.16,35.59c-.34-.17-.64.15-.48.23.34.17.64-.15.48-.23ZM58.54,35.82v.24c.16-.08.16-.16,0-.24ZM57.22,37.26c-.34-.17-.64.15-.48.23.34.17.64-.15.48-.23ZM56.14,37.98v.24c.16-.08.16-.16,0-.24ZM61.17,37.98v.24c.16-.08.16-.16,0-.24ZM55.06,39.41c.17-.34-.15-.64-.23-.48-.17.34.15.64.23.48ZM54.23,39.9v.24c.16-.08.16-.16,0-.24ZM58.77,40.13v.24c.16-.08.16-.16,0-.24ZM53.27,41.1s-.36.33-.36.36c0,.33.69-.36.36-.36ZM52.55,41.82s-.36.33-.36.36c0,.33.69-.36.36-.36ZM52.07,42.53v.24c.16-.08.16-.16,0-.24ZM51.59,42.77v.24c.16-.08.16-.16,0-.24ZM51.71,43.25c-.46-.1-.57.23-.81.5-.44.48-1.2,1.5-1.55,2.05-2.94,4.64-5.6,12.18-5.65,17.68,0,.71.23,1.52.11,2.28.74-.23.24-1.25.3-1.73.81-6.5,2.5-12.81,5.88-18.29.54-.87,1-1.74,1.71-2.48ZM55.3,46.12c.27-.28-.1-.77-.48-.12-.03.21.46.13.48.12ZM53.63,47.56c.11.12,1.25-.96.95-1.44-.41-.02-.17.46-.48.83-.07.09-.88.17-.47.6ZM53.39,48.04h-.48c-.05,1.48.16,1.14.48,0ZM52.31,49.47v.24c.16-.08.16-.16,0-.24ZM46.33,60.97v.24c.16-.08.16-.16,0-.24ZM45.01,62.17c.52-.2.57-.4.12-.72l-.12.72ZM46.44,62.4c.17-.34-.15-.64-.23-.48-.17.34.15.64.23.48ZM45.73,62.65c-.03.05-.17.59-.12.71.63-.33.25-.96.12-.71ZM45.61,63.6v.24c.16-.08.16-.16,0-.24ZM45.49,64.32c-.03.05-.17.59-.12.71.63-.33.25-.96.12-.71ZM10.66,65.04v.24c.16-.08.16-.16,0-.24ZM45.49,66.24l-.12-.72c-.45.32-.41.51.12.72ZM44.05,66c-.26-.26-.74.22-.48.48s.74-.22.48-.48ZM10.9,66.24v.24c.16-.08.16-.16,0-.24ZM45.25,67.19c.17-.34-.15-.64-.23-.48-.17.34.15.64.23.48ZM43.81,68.15c.06-.14.06-.89.12-1.19-.64.29-.29,1.55-.12,1.19ZM45.13,67.67v.24c.16-.08.16-.16,0-.24ZM43.69,68.63v.24c.16-.08.16-.16,0-.24ZM5.63,78.45v.24c.16-.08.16-.16,0-.24ZM47.5,85.79c-.91-2.07-1.63-4.24-2.37-6.38-.54-.51-.34-.13-.27.27.78,4.23,2.61,7.97,5.07,11.46l2.5,2.4c.09-.75-1.18-1.42-1.38-1.72-1.07-1.61-2.67-4.02-3.55-6.02ZM11.86,81.8v.24c.16-.08.16-.16,0-.24ZM50.16,82.04v.24c.16-.08.16-.16,0-.24ZM50.88,83v.24c.16-.08.16-.16,0-.24ZM20,84.2v.24c.16-.08.16-.16,0-.24ZM49.68,87.79v.24c.16-.08.16-.16,0-.24ZM51,89.95c.92,1.36,2.17,2.49,3.15,3.79.81-.15,2.37.29,1.24-.64-.38-.32-.92-.38-1.2-.6-.8-.63-2.3-2.01-2.96-2.79-.28-.33-.52-1.31-.96-.96-.11.09.6,1.02.72,1.2ZM15.45,88.99v.24c.16-.08.16-.16,0-.24ZM17.12,89.47v.24c.16-.08.16-.16,0-.24ZM24.9,96.65c-.2.06-.21.45-.24.48-.19.16-.55-.76-.78-.88-.54-.28-1.08.25-1.13-1.03l-.6.47c.2-.74-.52-.57-.93-.95-.16-.14.05-.45-.02-.47-.03-.01-.28.19-.67,0-.26-.13-1.2-1.41-1.49-1.69l-.36.48c-.04-.23-.09-.63-.23-.79-.36-.43-1.63-1.4-1.8-1.61-.29-.36.19-.48-.66-.77-.27-.1-.57-.38-.43.19.07.3,1.84,3.11,2.17,3.58,9.28,13.42,25.55,15.43,40.5,11.07,1.78-.52,6.77-2.35,8.08-3.41.11-.09.33-.25.25-.35-.89-.12-1.89-.64-2.75-.48.28-1.11-.38-.12-.72-.09-.31.03-.7-.37-1.11-.28-.56.13-.59.69-.74.79-.07.04-.34-.19-.4-.14-.13.12.13.54-.27.43-.38-1.27-.63.1-.69.13-.15.08-1.4.33-1.84.45-.14.04-.43-.16-.54-.06-.13.12-.01.98-.4-.04-.73.81-1.89.58-2.82.77-.82.17-.81.96-1.01-.29-.38,1.03-.86.54-1.66.61-.63.06-1.02.08-1.69.11-1.35.07-3.23.33-4.53.24-.27-.02-.08-.49-.13-.72,3.29.17,8.37-.33,11.56-1.06.56-.13,4.38-1.18,4.58-1.32.28-.19.11-.47.14-.74-.93.58-1.52-.32-1.86-.46-1.08-.42-2.77-.86-3.81-1.41-1.14-.6-2.57-2.16-3.78-2.15-2.31.01-4.55.66-7.06.67-.06,0-.2,0-.24,0-.36-.02-.56-.52-.24.24-.88-.52-3.66.14-4.2-.04-.19-.07-.02-.52-.23-.44-.12.05-.26.37-.51.42-.62.11-2.05-.3-2.66-.37-.79-.09-1.74.36-2.58-.53l.12.47c-.52.07-.52.02-.49-.47-.24,0-.35.37-.59.4-.52.05-3.53-.95-4.29-1.15-2.12-.57-4.99-1.1-6.91-2.12-.92-.48-2.24-.83-3.32-1.46-.37-.21-.51-.86-1.27-.7-.54.39.08.43.15.52.31.37.71.59,1.06.9.85.75,1.91,1.89,2.92,2.66,1.07.82,2.53,1.21,3.17,2.39ZM18.08,91.38v.24c.16-.08.16-.16,0-.24ZM50.64,92.82v.24c.16-.08.16-.16,0-.24ZM52.79,93.54v.24c.16-.08.16-.16,0-.24ZM57.64,94.09c-.18-.1-1.65.14-1.86.29-.85.58.74,1.12,1.05,1.35,1.47,1.12,3.07,2.18,4.93,2.72,2.23.65,2.82-.11,4.79-.85.25-.23.2-.44-.29-.41-1.77.08-6.43-1.92-8.27-2.63-.28-.11-.3-.44-.35-.47ZM51.11,94.97v.24c.16-.08.16-.16,0-.24ZM54.47,94.97v.24c.16-.08.16-.16,0-.24ZM71.82,97.61c-.78-.16-1.51,0-2.26,0-.34,0-.7-.24-.99-.22-.31.02-.51.34-.75.39-.26.05-.63-.24-.76-.15-.07.05-.16.5-.38.72-.25.24-.88.02-1.09.34.93.71,4.39.53,5.25,0,.33-.21.77-.71.97-1.06ZM29.57,104.07v.24c.16-.08.16-.16,0-.24Z"/>
        <path d="M45.25,102.4c-.08,0-.16,0-.24,0,.11-.29.17-.34.24,0Z"/>
        <path d="M70.62,35.11s.23.01.24,0c-.45.19-.22-.01-.24,0Z"/>
        <path d="M24.9,96.65c.2-.06,1.81.46,1.87.53.14.16-.01.58.04.66.02.04.44-.23.9-.09.53.15.78.59,1.2.75,5.12,1.99,10.53,3.56,16.09,3.9-.6,1.57-.99.22-1.07.24-.44.11-1.22,1.13-.97,0-1.04.42-1.7.08-2.63-.1-.46-.09-.7.49-.48-.37-.63.18-1.52.57-1.2-.24-.63.63-1.1-.11-1.48-.18-.53-.09-.89.62-.67-.3-.7.6-.47-.26-.96-.28-.42-.01-.74.23-.98.24-.06,0-.54-.63-.94-.69-.26.95-.3.17-.83-.09-.97-.47-3.3-.94-4.07-1.5-.46-.33-.54-1.38-.84-.33-.37-.81-.96-.43-1.16-.5s-.1-.34-.28-.39c-.07-.02-.31.2-.33.17-.07-.08.03-.65-.24-.85-.11-.08-.54.16-.74.03-.27-.17-.16-.49-.23-.61Z"/>
        <path d="M44.77,95.93s.23-.01.24,0c.1.22-.34.22-.24,0Z"/>
        <path d="M7.19,55.46c-.22.01-.34-.17,0-.24,0,.08.01.24,0,.24Z"/>
        <path d="M10.54,81.32s-.49-.1,0-.24c.03.06-.04.19,0,.24Z"/>
        <path d="M52.19,106.95s.23.01.24,0c-.17.03-.23,0-.24,0Z"/>
        <path d="M52.67,85.63s-.02-.33,0-.48c.02.05.18.09.19.19.03.19-.18.24-.19.29Z"/>
        <path d="M51,89.95l.24-.24-.24.24Z"/>
        <path d="M17,28.64c.35-.4.71-.07.71.12,0,.15-1.28,2.46-1.9,1.92.27-.78.76-1.08,1.19-1.8.13-.23,0-.23,0-.24Z"/>
        <path d="M53.87,87.07c-.21.23-1.03-.81-.96-1.2.54-.19,1.21.9.96,1.2Z"/>
        <path d="M54.35,87.79s-.51.09-.48-.12c.37-.65.75-.16.48.12Z"/>
        <path d="M54.71,87.55c.16.08.16.16,0,.24v-.24Z"/>
        <path d="M54.71,88.03c.16.08.16.16,0,.24v-.24Z"/>
        <path d="M58.65,11.88c.07.05.84,1.23.84,1.43l-1.32-1.31c-.03-.2.42-.15.47-.11Z"/>
        <path d="M28.97,89.95c.27.28-.1.77-.48.12-.03-.21.46-.13.48-.12Z"/>
        <polygon points="63.44 16.19 64.04 17.38 62.96 16.31 63.44 16.19"/>
        <path d="M64.16,17.63c.11-.23.46.47.36.71-.21-.17-.5-.43-.36-.71Z"/>
        <path d="M61.29,14.03c.23.12-.47.46-.71.36.44-.29-.07-.33.11-.6.16.31.49.18.6.24Z"/>
        <path d="M56.86,11.4c.16.08.16.16,0,.24v-.24Z"/>
        <path d="M60.21,13.31c.16.08.16.16,0,.24v-.24Z"/>
        <path d="M61.64,14.75s.36.33.36.36c0,.33-.69-.36-.36-.36Z"/>
        <path d="M61.89,15.47c.16.08.16.16,0,.24v-.24Z"/>
        <path d="M21.86,23.46c-.54.36-1.3,1.83-1.78,2.4-.35.42-.7.9-1.01,1.26-.34.4-.98.82-1.34,1.28.74-2.05,2.62-3.58,3.83-5.39l.72.49c-.12.24-.29-.12-.41-.03Z"/>
        <path d="M31.37,14.75c.61.66-1.04,1.02-1.26,1.19-.31.24-.36.68-.81.95-.41.25-.66.02-.69.03-.07.03.12.42.1.44-.18.21-.86.03-.89.06-.26.26-.41,1.51-1.47,1.4.11-1.13.91-1.08,1.57-1.67.24-.22.33-.68.38-.71.18-.12.66.59,1.07-.46.49.04,1.6-1.66,2.01-1.23Z"/>
        <path d="M38.31,11.16c0,1.21-.56.61-1.31.84-1.17.36-3.85,2.1-4.75,2.91-.1.09-.62.35-.64.32-.35-1.15.97-1.34,1.91-1.44.02-.04-.25-.38-.21-.44.09-.14,2.48-1.23,2.96-1.48.33-.17.69.16.6-.46.46-.12,0,.53.47.47-.03-.51.48-.75.96-.71Z"/>
        <path d="M23.23,21.7c.34-.74,1.23-1.58,1.91-2.16l-.78,1.62c-.91-.07-.71.77-.77.77-.05,0-.23-.22-.36-.23-.09.2-.2.91-.25.95-.11.09-.48-.72-.59.48-.9-.44.46-1.47.84-1.44Z"/>
        <path d="M40.94,10.2c.36.43-1.03,1.36-1.43.59-.1-.7.41-.06.82-.09.11,0,.22-.97.62-.5Z"/>
        <path d="M44.05,9.48l-1.67.84c.02-1.14.87-.51,1.67-.84Z"/>
        <path d="M42.14,9.96c0,.3-.92.76-.96.72-.27-.34.48-.93.96-.72Z"/>
        <path d="M39.03,11.64c-.74.17-.63-.56-.12-.96l.12.96Z"/>
        <path d="M26.1,18.82c.3.35-.09,1-.72.71.1-.32.39-1.09.72-.71Z"/>
        <path d="M46.69,9c.36.36-.68.99-.95.36.1-.18.89-.43.95-.36Z"/>
        <path d="M44.77,9.24s.02.69,0,.72c-.62.71-.62-1.43,0-.72Z"/>
        <path d="M47.88,9.01l-.48.71c-.83-.33-.27-.83.48-.71Z"/>
        <path d="M52.19,9.24c.16.3-.38.83-.48.72-.02-.58-.15-.83.48-.72Z"/>
        <path d="M48.84,9.01c.12.1-.47.67-.72.47-.12-.1.47-.67.72-.47Z"/>
        <path d="M45.49,9.24l-.48.48c-.07-.5-.02-.54.48-.48Z"/>
        <path d="M50.04,9.48c-.5.07-.54.02-.48-.48l.48.48Z"/>
        <path d="M50.4,9c.16.08.16.16,0,.24v-.24Z"/>
        <path d="M50.88,9.24c.16.08.16.16,0,.24v-.24Z"/>
      </g>
    </g>
  </g>
</svg>