<?xml version="1.0" encoding="UTF-8"?>
<svg id="Layer_3" data-name="Layer 3" xmlns="http://www.w3.org/2000/svg" viewBox="0 0 101.98 119.98">
  <g id="Moons">
    <g id="Layer_1_Image" data-name="Layer 1 Image">
      <g>
        <path d="M15.78,20.31c.47-1.13,1.12-1.92,2.05-2.86C33.42,1.49,50.84-2.44,72.48,1.32c1.06.18,3.36.55,4.23,1.01.17.09.68.6,0,.49-.45-.8-1.02-.02-1.45-.07-.22-.03-.41-.47-.75-.57-.28-.09-.9.18-1.16.12-.06-.01-.67-.56-.96-.67-.18-.07-.08.49-.23.48-.2,0-1.22-.55-1.74-.63-.46-.07-.86.13-1.27.15-.05,0-.08-.47-.24,0-.33-.15-.71-.05-.72-.72-.43-.06,0,.52-.59.5-.64-.02-.73-.41-.96-.5-.21-.08-.04.36-.23.44-.29.13-1.02-.4-1.21-.45-.16-.04-.07.53-.23.48-.82-.24-.66-.16-1.42-.26-.19-.02-3.11-.88-2.29.02.35.39,4.4.91,5.38,1.19,3.15.89,6.05,2.52,9.13,3.59l6.69-.93c.37-.22.38-.61-.01-.73-.26-.08.11.42-.35.37-1.12-.11-.59-.69-.72-.85-.11-.13-.56.58-.71.48-.02-.01.06-.35-.16-.48-.4-.24-1.11-.14-1.28-.71.8.18,3.5.89,4.08,1.32.34.25-.02.56,0,.83.39.11.11-.42.39-.48.4-.1,3.66-.15,3.09.73-.44.68-4.71.25-5.71.33-.87.06-2.17.38-2.74.46-1.82.26-.08.68.26,1.28,1.18-.01,1.56.76,2.25,1.28.23.17.76.21.79.24.09.1-1.25,1.2.36.48-.34,1.82.19.38.6.58.28.13,1.46,2,1.33,2.29-.09.21-.7.64-.85.47-.28-.31.61-1.31-.12-1.19-.52.23-.05.86-.12.95-.27.39-3.07.27-3.59,0,.25.64.9,1.02,1.3,1.44.36.37.53.29.01.71-.4-.15-.11-.64-.16-.68-.28-.2-.96-.17-1.28-.99-.27.93-.51.26-1.06.13-.23-.05-.56.17-.68.06-.07-.06-.04-.79-.53-.42-.03.02.06.47-.15.49-.25.03-.52-.22-.71-.23-.12,0-.07.38-.28.44-.88.23-1.82.43-2.7.25.29-1.03,3.42-.99,3.59-1.2.5-.62-.68-.91-.72-.96-.34-.47,1.65-.79.96.96.47.08.13-.6.24-.72.14-.16,1.2.33,1.56.36.52.04,3.24-.03,3.54-.11.79-.21.05-.73.03-.78-.07-.16.1-.43-.09-.54-.36-.21-.91-.12-1.29-.36s-1.81-1.44-1.61-1.92c-.62-.09.02,1.24-.59.95-.92-.42.06-.37.11-.71-2.8-2.66-5.21-1.34-8.38-.24-.1,1.12,1.4.63,1.43.71.07.15-.2.56-.19.84s.3.96.19,1.08c-.05.05-1.04-.25-1.31-.18-.6.15-2.52,1.15-3.31,1.43-1.4.5-3.03,1.05-4.37,1.39.27.78-.27.33-.83.58-2.63,1.18-4.47,3.45-6.32,5.54-.69.78-1.43.93-1.94,2.01-.63-1.11.77-1.47.95-2.4.25-1.26-.63.21-.7.27-.23.19-.68.14-.8.28-.15.17,0,.58-.05.66-.01.02-.33-.22-.42-.16-.34.21-.9,1.31-1.37,1.62-.28.19-.57-.04-.59-.01-.07.14.05.54-.06.78-.16.38-.55.39-.78.67-.16.2-.09.61-.15.69-.03.04-.44-.25-.46-.23-.04.04.06.42-.08.63-.68.99-2.1,2.13-2.74,3.01-.09.13.18.59.1.8-.12.28-.88.66-1.09,1.03-.54.94-1.32,2.68-1.74,3.71-1.19,2.88-1.85,5.68-2.24,8.68-.08.64-.41,4.05-.12,4.42.33.42.41.04.44-.34.25-2.7,1.24-5.37,1.95-7.94.14-.13.31-.1.49-.1-.14-1.84.66-2.41,1.37-4.02.26-.59.54-1.53.8-2.05,1.79-3.53,4-6.79,6.32-9.99.63-.68.79.15.61.79-.04.13-1.66,1.66-1.91,2.02-.96,1.35-1.63,2.8-2.44,4.23-.19.33-.62.37-.64.42-.06.11.24.37.15.63-.17.51-1.44,2.08-1.86,3.18-.28-.12-.28.36,0,.24-.55,1.41-1.41,2.93-2,4.13-.14.28.08.52.07.55-.08.26-.34-.12-.47-.12.11,1.45-.02.83-.31,1.96-.13.51-.57,2.92-.66,3.05-.01.02-.33-.16-.45-.11.32,2.23-.76,4.43-.84,6.63s.57,5.34,1.23,7.41c.17.52.29,1.4.8,1.66l-.41-7.78c.67-16.11,12.52-32.21,27.28-36.84.6-.19,1.23-.37,1.86-.41l-1.32,1.2c-.3-1.19-.51.35-.98.44-.25.05-.61-.24-.9-.21-.15.01-.13.39-.34.47-.69.25-1.52.53-2.21.26.62.66-.89.82-1.43,1.13-3.36,1.92-8.43,5.56-10.47,8.29-.15.2-.03.59-.07.64-.02.03-.41-.26-.45-.22-.07.06-.1.56-.29.79-1.78,2.14-3.51,4.49-4.85,6.88-.22.4-.65,1.79-.9,2.08-.04.05-.41-.12-.43-.07-.41.9-1.08,3.57-1.51,4.8-6.01,17.18-.02,28.05,11.3,40.97.21.24.68.34.83.59.1.17-.12.47-.1.48.16.09.78-.13.95.03.11.1-.05.62.02.69s.53-.24.73-.13.32.65.58.85c.75.59,2.91,1.7,3.25,2.03.29.28.17.74.25.83.06.07,1.45-.6,1.19.72,1.04-.87.55-.21.78-.07,1.33.79,3.39,1.42,5.01,2.02s3.57,1.26,4.86,1.6c3.49.91,7.7,1.49,11.27,1.73.86.06,2.07-.69.91.67-1.62-.09-3.24-.09-4.87-.2-.23-.02-.21,0-.24,0-2.31-.19-4.46-.93-6.59-.73-.14.01.14-.63-.24-.7-.15-.03-.49.19-.84.12-1.19-.26-3.56-.84-4.07-1.81-.4-.11-.15.35-.26.44-.17.14-3.47-1.32-3.93-1.64-.45.39.6.87.87,1.04,1.51.98,3.34,1.61,4.58,2.46.17.12.86-.26.66.81-.62.26-.41-.47-.58-.45-.54.05-.68.67-.61-.5-1.05.85-.47.28-.97-.1-.19-.14-.53-.08-.65-.18-.06-.05.23-.53-.17-.68-.21-.08-.02.41-.27.48-.06.02-1.21-.22-1.25-.27-.04-.04.21-.39-.02-.58-.05-.04-.77-.07-1.15-.28-1.71-.95-3.73-2.59-5.61-3.76-.65-.4-3.31-1.66-3.56-1.95-.21-.24-.24-.54-.24-.84-.42-.09-.15.33-.24.48-.16.28-.29-.43-.39-.49-.41-.23-.95-.16-1.41-.46-1.15-.75-4.15-3.38-5.11-4.47-.17-.19-.05-.55-.13-.55-.12,0-.49.32-.59.22-.03-.03-.02-.56-.24-.85-.21-.28-1.09-.75-1.31-1.08-.74-1.12-.37-.5-1.11-1.29s-3.18-5.09-3.68-6.15c-2.84-6.02-3.19-13.85-3.5-20.45-.59-12.27,3.32-21.01,12.37-28.97.45-.39,2.82-2.67,3.02-2.75.38-.15.03.32.85-.26,3.33-2.34,6.37-5.06,10-6.95.45,1.48-.15.63-.59.82-.2.09-1.03.92-1.46,1.19-.3.19-.91.34-.94.38-.02.03.22.68.24.71.08.09,1.81-.89,2.2-1.03.84-.29,3.48-1.21,4.2-1.33.32-.05.74.25.78.2.1-.11-.13-.98-.28-1.14-.09-.09-2.34-.28-2.54-.23-.06.01-.83.88-.89.89-.38.1-.6-.55-.59-.6.02-.25.63-.3.71-.36.17-.13-.89-.4-.48-.95.87.03.75,1.57,1.36.22l5.34-1.9c-.35-.74-1.2-.73-1.92-1.19-.02-.01-.24-.53-.24,0-.61-.24-1.27-.27-1.91-.24.4-.7-.24-.23-.82-.37-1.94-.48-3.49-.84-5.26-1.1-2.21-.32-4.46-.64-6.73-.57-1.76-.62-.52-1.16.68-.84.25.07.12.43.16.48.23.32.21-.45.24-.48.11-.1.36.36.58.37.35.02.78-.19,1.21-.16.93.07,2.6.86,2.28-.46-1.06.29-2.09-.22-3-.48-.18-.05-.03.56-.23.48-1.73-.66-2.74-.23-4.56-.22-.41,0-1.03-.3-1.07-.26-.08.08-.3.91.12.96.33.04,2.14-.54,2.51-.24.04.03.04.93,0,.96-.19.1-1.36-.43-1.81-.37-.36.05-.91.97-.7-.1-.8.59-1.86.25-2.61.33-9.91,1.08-17.12,5.6-24.22,12.14-4.91,4.53-9.41,9.97-12.77,16.19-1.14,2.11-2.27,5.13-3.38,6.9-.2.32-.16-.49-.34.44-.25,1.32-.86,2.84-1.29,4.16-1.44,4.43-2.56,8.43-3.03,13.44-1.38,14.64,3.65,29.9,12.48,41.9,3.72,5.06,6.77,7.14,12.47,9.81.81.38,1.79.44,2.63.95.38.23.28.53.3.55.25.26.2-.5.35-.47,1.22.24,2.99,1.04,4.31,1.31,6.67,1.4,13.1,1.57,19.88,1.24.42-.02.78-.35,1-.36.41,0,.67.52.79.43.02-.01-.07-.42.16-.48.88-.23,2.72-.14,3.76-.33,4.29-.78,8.99-2.33,12.67-3.35,3.28-.92,6.24-2.61,9.52-3.5-.63.98-2.15,1.64-3.28,1.82-.19.03-.53-.18-.55-.15-.07.1.16.57-.15.73-.65.35-2.64.75-3.44,1.06-4.85,1.89-10.8,4.1-15.54,5.49-1.38.4-7.49,1.81-8.55,1.8-.14,0-.04-.51-.21-.46-.17.05-.42.39-.79.44-1.15.15-2.43-.33-3.53.28v-.48c-.2.23-.4.36-.72.39-1.02.09-3.78.07-4.78-.04-2.77-.3-5.34-1.04-8.18-1.79-.54-.14-1.44-.09-1.83-.25-.31-.13-.03-.56-.41-.47-.41,1.08-.16.52.64.91,8.51,4.11,13.21,5.89,22.94,5.56.9-.03,2.01-.39,2.89-.37.33,0,.68.43.81.36,1.59-.96,2.42-.58,4.14-1.01,8.98-2.2,16.99-7.03,24.3-12.26.8-.57,1.45-1.34,2.35-1.81.37.22-.06.55-.23.73-.43.44-1.71,1.21-1.82,1.32-2.44,2.44-5.8,4.57-9.09,6.1-.02.01.2.33.12.4-.41.35-2.17.84-2.7,1.12-1.94,1.02-3.47,2.04-5.56,2.91-1.39.57-2.89.79-4.19,1.56-.39-1.06-.26-.14-.58.11-.06.04-1.08.27-1.35.34-2.79.77-5.79.87-8.61,1.43-.23-.91-.3-.08-.74-.03-1.43.17-4.8.08-6.3-.06-2.67-.26-5.34-1.24-8.03-1.55.07-.8-.13-.15-.85-.34-.87-.23-1.58-1.3-2.52-.63.2-.88-.08-.26-.63-.36-.43-.08-.4-.47-.51-.53-.27-.15-.75.02-.87-.1-.1-.09.03-.5-.05-.65-.04-.08-1.42-.26-1.83-.45-1.49-.68-2.55-1.91-3.71-2.61-.2-.12-1.06-.11-1.1-.15-.18-.19-.13-.72-.33-.86-.17-.12-.63-.01-.89-.17-1.59-.98-2.99-2.57-4.79-3.24.51-.72-.25-.41-.81-.74-.31-.18-.35-.56-.44-.62-.09-.06-.41.2-.43.18-.26-.33-.56-1.14-1.21-1.77-2.51-2.43-6.07-5.54-8.09-8.69-.4-.62-.47-1.45-.52-1.52-.05-.06-.75.39-.95.24-.06-.05-.1-.79-.25-1.01-.61-.93-1.89-2.2-2.34-3.26-.23-.55,0-.98-.05-1-.19-.1-.58.38-.71.12-.02-.03.23-.22-.03-.68-.61-1.06-2.37-2.99-2.55-4.15-.08-.52.61-.93-.3-.68.53-1.17-1.24-1.09-.49-2.28-.86.37-1.25-2.93-1.54-3.36-.12-.17-.53-.18-.59-.26-.06-.09.25-.52.23-.78-.01-.16-.45-.12-.49-.31-.13-.57-.23-1.67-.4-2.18-.15-.42-1.14-.17-.09-1.14-.13-.24-.42.16-.46.12-.08-.1-.57-2.27-.26-2.52-.15-.1-.45.14-.47.12-.06-.09-.32-1.74-.36-2.04-.09-.69.46-1.67-.36-1.07l-.12-3.24c-.58-.9-.33-1.72-.43-2.56-.05-.46-.45-1.51-.42-1.73.03-.24,1.01.1.01-.73,1.07-.38.06-.27,0-.51-.23-.9-.05-3.23.02-4.27.02-.29-.26-.74-.23-.82.03-.07.56-.13.69-.39.1-.19-.42-.03-.48-.27-.15-.63.21-1.45.25-2-.1.54.22.02.24,0s.34-.04.24-.24c-.39,7.44.74,12.8,1.89,20.03.05.35-.03,1.2.03,1.29.02.03.46-.26.47-.24.13.14.67,3.1.89,3.78.98,2.94,2.67,5.6,3.68,8.3.21.56.18,1.74.22,1.82.01.02.32-.22.42-.17.74.42.45,1.45.57,1.58.06.07.48-.08.71.17.1.11,1.37,2.45,1.38,2.6.02.19-.24.57-.21.6s.53-.05.84.24c.21.2.84,2.1,1.32,1.68.02-.02-.1-.57-.12-.6s-.3.14-.37,0c-.34-.65-.47-1.83-.86-2.68-.15-.33-1.06-1.36-1.23-1.91-.12-.4-.03-.86-.05-1.27-.74.52-.41-.18-.74-.77-.59-1.07-.67-1.83-1.18-3.06.54.1.01-.22,0-.24-1.78-2.74-3.36-11.15-3.96-14.5-.11-.62.19-1.51.13-1.87-.03-.17-.44-.13-.49-.32-.13-.53.28-2.08-.24-2.83h.48c-.53-.49-.03-1.09-.02-1.46,0-.13-.39-.1-.4-.21-.07-.85.2-7.83.35-8.22.11-.3.52-.27.53-.4.01-.5-.41-1.31-.34-2.06.05-.56.5-2.43.66-3.15.96-4.45,2.7-8.83,4.64-12.85.27-.55.52-1.9.81-2.26.26-.33.65-.11.72-.17.03-.03-.31-.47-.14-.72.34-.5.9-1.19,1.31-1.87s.87-2.15,1.56-2.59c.22-.14.6-.06.63-.09.04-.04-.28-.49-.21-.79.02-.08.85-1.39.91-1.46.31-.35.22-.08.73-.74C23.48,15.27,34.4,6.13,46.06,2.49c1.23-.38,2.7-.75,3.96-.87.07-.82-.14-.31-.4-.35-.86-.11-2.43-.01-2.95.59l-.24-.48c-.09,1.01-2.05.7-2.66.86-3.83,1.05-6.31,2.54-9.75,3.85-.25.1-.7.03-.77.07-.03.02.26.45.24.47-.11.15-.95-.01-1.19.13-.17.1-.22.48-.43.6-1.15.67-2.21,1.44-3.23,2.08-.09.05-.41-.2-.43-.18-.08.11.07.62,0,.73-.01.02-.32-.22-.42-.17-1.85,1.06-5.13,3.87-6.73,5.34-.8.73-4.68,5.07-5.3,5.12-.47,1.14-1.92,2.48-2.72,3.5-4.12,5.28-7.88,11.04-10.09,17.82-.3.94-.72,4.35-.85,4.54-.01.02-.32-.22-.47-.12l.14.85-.74,2.39c-.27-.15-.34-1.69-.32-1.8.03-.14.39-.09.43-.28.59-2.79.94-6.93,2.57-8.82.28-.32.45-2.44.55-2.52.02-.02.46.28.47.24.16-.29-.26-1.68.95-1.55-.22-.26-.29-.59-.2-.91.44-1.63,5.8-8.87,7.15-10.59.31-.4,2.26-2.88,2.42-2.98.08-.05.45.24.7.22ZM53.73.43v.24l.12-.12-.12-.12ZM54.45.67v.24l.12-.12-.12-.12ZM55.53,1.15c.17-.34-.15-.64-.23-.48-.17.34.15.64.23.48ZM56.13.67v.24l.12-.12-.12-.12ZM57.21.67c-.34-.17-.64.15-.48.23.34.17.64-.15.48-.23ZM60.32,1.14c-.25-.73-1.12-.24-1.67-.36.75.35.79.67,1.67.36ZM50.74.91c-.37-.39-.63.34-.48.72.31,0,.62-.56.48-.72ZM51.94.91c-.56-.09-1.02.11-.95.72.49.03-.07-.39.49-.39.31,0,.54.51.46-.32ZM52.3.91v.24l.12-.12-.12-.12ZM52.9,1.38c.15.15.6-.15.71-.36-.34-.08-1.19-.12-.71.36ZM53.97.91v.24l.12-.12-.12-.12ZM54.93.91v.24l.12-.12-.12-.12ZM60.68.91v.24l.12-.12-.12-.12ZM52.9,1.87c-.36-.31-1.26.45-.96.72.36.31,1.26-.45.96-.72ZM50.62,2.11c-.54.36-.3.69,0,.23.08-.12.19-.13,0-.23ZM51.7,2.11s-.69-.02-.72,0c-.71.62,1.43.62.72,0ZM63,2.52c-.09-.04.05-.48-.16-.41-1.58.53,1.45,1.24,2.03,1.19-.26-1.13-1.65-.68-1.87-.78ZM50.02,2.35l-1.67.47c.42-.13,1.5.07,1.67-.47ZM65.11,3.06s.58.17.71.12l-.59-.6c-.21-.03-.13.46-.12.48ZM47.03,2.82v.24l.12-.12-.12-.12ZM67.02,3.54s-.08-.72-.12-.71c-1.59.19-.64,1.17.12.71ZM68.7,4.02c.17-.34-.15-.64-.23-.48-.17.34.15.64.23.48ZM68.1,3.78v.24l.12-.12-.12-.12ZM70.5,4.74v.24l.12-.12-.12-.12ZM78.64,8.33v.24l.12-.12-.12-.12ZM63.91,12.88c.08-.1-.35-.55-.47-.47-.04.02-.3.57-.48.71.18-.03.93-.2.96-.24ZM55.41,18.87v.24l.12-.12-.12-.12ZM19.49,22.22v.24l.12-.12-.12-.12ZM17.58,23.66v.24l.12-.12-.12-.12ZM14.59,29.17l-.48-.48c-.07.5-.02.55.48.48ZM12.55,31.57v.24l.12-.12-.12-.12ZM12.55,32.05v.24l.12-.12-.12-.12ZM11.95,33.48c.27-.28-.1-.77-.48-.12-.03.21.46.13.48.12ZM10.99,34.44c.26.22,1.07-.4.36-.71-.05-.02-.39.69-.36.71ZM10.51,36.59c.1-.11.26-.95.24-1.2-.69.11-.53,1.51-.24,1.2ZM10.16,37.31v.24l.12-.12-.12-.12ZM9.44,37.55v.24l.12-.12-.12-.12ZM9.56,38.51c-.39-.32-.66.3-.48.71.12.26.51-.68.48-.71ZM9.03,40.87s.02-1.48-.31-.92c-.4,1.3-1.55,2.68-1.31,4.07l1.01-2.71c.15-.32.58-.38.61-.44ZM41.52,40.67v.24l.12-.12-.12-.12ZM7.16,45.94l.12-1.68c-.18-.06-.93,2.58-.12,1.68ZM6.32,46.66v.24l.12-.12-.12-.12ZM6.32,47.38v.24l.12-.12-.12-.12ZM6.2,50.01s.17-.8.16-.85c-.17-1.47-1.08,1.75-.16.85ZM5.96,51.45c.14-.28-.15-.55-.36-.71-.1.24.24.94.36.71ZM5.61,51.69v.24l.12-.12-.12-.12ZM5.61,52.41v.24l.12-.12-.12-.12ZM5.48,53.6c.17-.34-.15-.64-.23-.48-.17.34.15.64.23.48ZM45.09,64.05c-.4-.9-.86-1.83-1.22-2.74-.62-1.56-1.02-3.26-1.63-4.83-.91,1.86.81,4.38.37,6.35.92-.31.26.46.35,1.11.06.42.52.38.59.61.21.75.15,1.59.51,2.51,1.07,2.71,4.7,8.42,6.52,10.18,1.02.99,2.6,2.55,3.64,3.43.9.76,2.59,1.53,3.47,2.28.24.2-.09.61.12.58.26-.03.49-.64.33-.92-.03-.05-.49-.14-.69-.38-5.1-6.24-8.99-10.64-12.35-18.19ZM4.89,58.87v.24l.12-.12-.12-.12ZM44.4,59.83v.24l.12-.12-.12-.12ZM44.88,60.55c-.54.36-.3.69,0,.23.08-.12.19-.13,0-.23ZM5.61,69.17v.24l.12-.12-.12-.12ZM63.07,85.46c-.24.17.13.33.24.47.24-.16-.11-.32-.24-.47ZM66.66,88.33v.24l.12-.12-.12-.12ZM14.1,93.12c.17-.34-.15-.64-.23-.48-.17.34.15.64.23.48ZM13.63,94.08s-.51-.09-.48.12c.37.65.75.16.48-.12ZM15.78,95.52c-.37-.34-.94.43.12.71.04-.13-.1-.69-.12-.71ZM16.38,96.72v.24l.12-.12-.12-.12ZM16.98,98.15c.15-.31-.08-.9-.47-.96-.1.31.36,1.2.47.96ZM16.14,98.15v.24l.12-.12-.12-.12ZM17.7,98.16c-.32-.37-.82.31-.12.72.21,0,.14-.69.12-.72ZM18.3,99.11v.24l.12-.12-.12-.12ZM18.54,99.59v.24l.12-.12-.12-.12ZM22.37,104.38v.24l.12-.12-.12-.12ZM26.79,107.49c.17-.34-.15-.64-.23-.48-.17.34.15.64.23.48ZM28.19,107.56c-.24-.28-1.71-.6-1.04.42.1.15,2.61,1.92,2.96,2.13,2.91,1.71,6.54,2.48,9.8,3.31,7.85,1.5,15.83.9,23.52-1.14.28-1.17-.65-.4-1.58-.26-.7.11-2,.43-2.41.47-.36.03-.49-.35-.68-.44-.15-.07.36.81-.36.47l-.24-.47c.08.69-1.96.69-2.54.72-6.93.31-12.29-.53-18.91-2.02-.27-.06-1.76-.08-1.91-.14-.04-.02.07-.36.13-.47-.91.49-.63-.17-.88-.23-2.44-.58-3.1-.99-5.11-1.81-.32-.13-.68.15-.71.12-.05-.07.09-.5-.05-.66ZM29.55,107.98v.24l.12-.12-.12-.12ZM65.35,111.33c-.25-.2-.84.38-.72.47.25.2.84-.38.72-.47ZM65.95,111.33v.24l.12-.12-.12-.12ZM64.39,112.29c.24-.24-.47-.96-.72-.72s.47.96.72.72ZM33.62,112.29v.24l.12-.12-.12-.12ZM34.1,113.72v.24l.12-.12-.12-.12Z"/>
        <path d="M.7,52.17c-.04-.63-.64-2.33.36-2.64.29.82-.07,1.8-.12,2.64-.02-.04-.18.03-.24,0Z"/>
        <path d="M8.6,83.54s-.55-.34,0-.24c.01,0-.01.24,0,.24Z"/>
        <path d="M.7,52.17c0,.07.01.17,0,.24,0,.02-.24-.01-.24,0,.01-.15-.36-.34-.12-.47.08.15.25.17.36.23Z"/>
        <path d="M68.94,1.63h.24c-.15.25-.17.03-.24,0Z"/>
        <path d="M46.67,33.48s.01-.23,0-.24c0,.02.18-.21,0,.24Z"/>
        <path d="M71.81,5.46c.07.03.22-.03.24,0,.09.19-.24.39-.24,0Z"/>
        <path d="M27.04,21.03c.11-.12.39-.93.72-1.25,7.14-7.1,18.73-13.63,29.33-12.9.51.04,1.02.53,1.07.5.03-.03-.06-.4.16-.47.2-.06,2.47.15,2.37.71.67.14.08-.46.12-.48.05-.03,1.17-.06,1.2,0,.45.88-.91.75-1.54.7-.31-.02-.53-.34-.74-.36-.12-.01-2.09.51-2.27.38-.02-.01.23-.31.13-.47-.42.39-.96-.02-1.4.04-.34.05-.66.46-1.01.44-.12,0-.13-.49-.22-.48-.48.03-1.74.62-2.37.48-.3-.07,0-.59-.39-.49.09.88-.34.26-.61.27-.18,0-.09.36-.23.39-1.89.46-4.3.51-6.06,1.17-.28.1-.26.48-.41.52-.17.05-1.22-.34-1.55-.2-.19.29.96.22.24.6-.05.02-.92.39-.96.36-.09-.07.2-.57-.24-.48-.42.98-2.15,1.38-3.15,1.95-2.69,1.53-6.6,4.13-9,6.27-.06.05-.51,1.13-.85,1.32-.18.1-.41-.21-.66-.09-.06.03-.44,1.27-.48,1.32-.04.05-.08-.34-.95.48l-.24-.24ZM50.62,7.61v.24l.12-.12-.12-.12Z"/>
        <path d="M27.04,21.03l.24.24c-.66.63-1.32,1.4-1.91,2.09-5.19,6.07-9.98,14.5-12.15,22.53-.77,2.85-.89,6.43-1.99,9.03-.08.19.47.05.5.26.04.28-.23.66-.24.98-.04,3.26-.23,6.57.07,9.83.23,2.53,1.36,5.41,1.11,7.86.14.11.44-.13.46-.11.13.16.58,3.26.8,3.93,2.5,7.62,7.88,16.41,14.64,21.1,18.18,12.62,45.95,7.28,64.37-1.88,2.15-1.07,4.24-2.28,6.29-3.53.57,1.35-1.27,1.12-1.51,1.27-.25.16-.82.99-1.41,1.32-.89.51-3.05,1.68-3.92,2.04-.42.18-.93-.13-.95-.09-.06.13.09.59-.02.69-.09.08-.78.02-1.16.16-4.61,1.76-8.12,3.4-13.2,5-.38.12-.66.55-.83.61-.21.07-.04-.53-.23-.48-.37.1-1.09.64-1.57.79-.61.19-4.3,1.18-4.5,1.07-.06-.03-.03-.44-.16-.42-.15.02-.83.5-1.31.61-8.4,1.8-19.02,1.54-27.23-.52-.18-.05-.53.2-.56.16-.08-.1.07-.62,0-.73-.02-.03-.4.2-.72.14-1.53-.29-3.19-1.01-4.35-1.75-.12-.08-.99.19-1.04.17-.07-.02.11-.39.07-.43-.61-.68-3.06-.97-3.86-1.7-.28-.25-.1-.67-.15-.74-.02-.03-.38.24-.7.12-.29-.11-2.88-1.92-3.43-2.28-.88-.58-.36-.92-.42-.95-.14-.09-.76.13-.94-.04-.07-.07.03-.48-.09-.6-.51-.52-1.56-.79-1.49-1.75-.87.6-.5-.14-.83-.56-.17-.22-.49-.28-.69-.56s-.7-1.43-.8-1.49c-.07-.05-.4.22-.43.2-.06-.04-.11-.64-.24-.83-.1-.16-.43.08-.47,0-.03-.05.08-.71-.26-1.19-1.08-1.56-2.41-3.18-3.13-4.74-.41-.89-.2-1.01-.31-1.27-.34-.8-1.04-1.49-1.62-3.04-.06-.16-1.32-.93.02-.78-.21-.25-.49-.38-.71-.6.5.09.11-.14,0-.24-1.05-.98-.66-3.39-.76-3.56-.04-.08-1.03-.47-.94-1.34.03-.24.44-.09.49-.14.24-.19-.47-.28-.63-.58-.12-.22-.88-4.31-.97-4.88-.36-2.14-.94-6.06-.79-8.06.01-.16.48-.13.47-.24-.02-.34-.41-.97-.38-1.58.03-.43.37-.71.39-.84.02-.14-.47-.09-.5-.26-.03-.2.29-3.34.35-3.99.23-2.16.69-4.81,1.34-6.88.03-.09.46-.06,0-.24,2.37-10.46,7.59-18.86,14.85-26.35ZM11.11,63.66v.24l.12-.12-.12-.12Z"/>
        <path d="M14.11,80.19c-.06-.06-.52-.33,0-.24.01,0-.01.24,0,.24Z"/>
        <path d="M12.19,47.61c-.17-.13-.01-.18,0-.24v.24Z"/>
        <path d="M83.78,94.56c.48.37-1.23.86-1.31.86-.31-.02-.55-.32-.95-.35-.52-.04-.96.67-.72-.26-.5.45-1.03-.01-1.54-.12-.55-.11-.87.57-.75-.61.76.33,5.06.32,5.27.48Z"/>
        <path d="M72.29,10.01c.93-.25,1.72.01,2.63-.24,0,.51-.58-.07-.48.59.01.1.85.23.48,1.08-.38.08-.11-.22-.36-.41-.03-.02-.25.1-.36.02-.19-.14-.19-.59-.37-.59-.5,0-2.39,1.29-1.54-.22.41-.13.16-.31,0-.24Z"/>
        <path d="M72.29,10.01s.03.18,0,.24c-.38.12-.9,0,0-.24Z"/>
        <path d="M95.52,93.13c.11.15-.26.7-.24.95-.43.1-.15-.41-.24-.48-.07-.06-1.4.96-1.67.12-.32-.96.23-.37.71-.24l-.47-.6c.34.16,1.78.06,1.92.24Z"/>
        <path d="M76.17,93.54c.1.07.92-.16,1.32.01.28.12,1.07.77.79,1.01-.39.33-1.83-.7-2.28-.84-.71-.22-2.59.18-2.26-1.55.57,1.07,1.81.64,2.16.86.14.09.18.43.28.51Z"/>
        <path d="M67.02,8.57c-.97-.54-.62.25-.84.24-.25,0-.04-.37-.14-.46-.05-.05-.67.3-1.02.23-.25-.05-.27-.6-.52-.74-.19-.1-.03.43-.27.49-.44.1-2.73-.17-2-.97.17-.18,4.47.55,4.79,1.19Z"/>
        <path d="M84.74,95.28h.24c-.16.37-.18.02-.24,0Z"/>
        <path d="M84.74,95.28c-.39-.14-.87-.15-.72-.72.99,0,2.53.29,3.46.22.46-.03.92-.46.97-.46.16,0,.5.59.36.71-.09.08-.61-.15-.84-.11-.63.12-.81.56-1.55-.13.16,1.04-.24.34-1.44.48-.04,0-.08-.47-.24,0Z"/>
        <path d="M78.76,2.58s.02.69,0,.72c-.09.09-2-.14-1.43-.96.04-.06,1.38.19,1.44.24Z"/>
        <path d="M90.49,94.32c.26.8-1.42.86-1.43.36,0-.35,1.21-.31,1.43-.36Z"/>
        <path d="M91.69,94.08c.13,1.55-.56.1-.48,0,.34-.43,1.59.65,1.2-.96,1.22.79.31,1.86-.72.96Z"/>
        <path d="M100.83,92.44s-.12,1.08-.28.09c.08-.16,1.42-1.59,1.43-.72,0,.95-1.03.59-1.15.64Z"/>
        <path d="M83.07,17.67c.07-1.14-.46-.71-.61-.77-.19-.09-.16-.6-.11-.67.07-.09,2.03.98.72,1.44Z"/>
        <path d="M87.62,103.9c-.18-.19.1-1.07.59-.96.8.18-.34,1.23-.59.96Z"/>
        <path d="M99.59,93.84c-.09-.54.21-1,.71-1.2.09.54-.21,1-.71,1.2Z"/>
        <path d="M91.45,93.12c-.5.46-1.51-.35-1.19-.72.05-.05,1.16.52,1.19.72Z"/>
        <path d="M86.89,104.38c-.39.37-.66-.57-.71-.71l1.08-.24c0,.16-.33.92-.37.95Z"/>
        <path d="M93.6,102.71s.02.69,0,.72c-.62.71-.62-1.43,0-.72Z"/>
        <path d="M90.01,92.41c-.13.48-.51.54-.96.47.13-.48.51-.54.96-.47Z"/>
        <path d="M75.64,11.69c-.2.21-.59-.58-.23-.96.2-.21.59.58.23.96Z"/>
        <path d="M98.63,91.93s.69-.27.72-.24c.58.72-1.24.68-.72.24Z"/>
        <path d="M98.15,92.17c0,.16-.26.44-.36.47-.57.19-.61-.75.36-.47Z"/>
        <path d="M96.95,92.41c.26.26-.22.74-.48.48s.22-.74.48-.48Z"/>
        <path d="M91.92,93.36c-.12.26-.4-.35-.23-.72.12-.26.4.35.23.72Z"/>
        <path d="M81.39,15.76c-.16-.66.23-.34.6-.71l-.6.71Z"/>
        <path d="M75.64,10.25c-.5.07-.55.02-.48-.48l.48.48Z"/>
        <path d="M93.12,93.12c-.08.16-.41-.14-.23-.48.08-.16.41.14.23.48Z"/>
        <path d="M92.88,103.9c-.08.16-.41-.14-.23-.48.08-.16.41.14.23.48Z"/>
        <path d="M89.77,102.71c.16.08-.14.41-.48.23-.16-.08.14-.41.48-.23Z"/>
        <path d="M83.54,18.39c-.2.24-.45-.43.12-.71.05.13-.1.68-.12.71Z"/>
        <path d="M77.08,9.53c.16.08-.14.41-.48.23-.16-.08.14-.41.48-.23Z"/>
        <path d="M84.26,19.11c-.08.16-.41-.14-.23-.48.08-.16.41.14.23.48Z"/>
        <polygon points="77.44 9.53 77.56 9.65 77.44 9.77 77.44 9.53"/>
        <path d="M82.23,15.76c.19.11.08.11,0,.23-.3.45-.54.13,0-.23Z"/>
        <polygon points="84.38 19.59 84.5 19.71 84.38 19.83 84.38 19.59"/>
        <polygon points="84.38 20.07 84.5 20.19 84.38 20.31 84.38 20.07"/>
        <polygon points="100.91 91.45 101.02 91.57 100.91 91.69 100.91 91.45"/>
        <polygon points="89.65 93.12 89.77 93.24 89.65 93.36 89.65 93.12"/>
      </g>
    </g>
  </g>
</svg>