<?xml version="1.0" encoding="UTF-8"?>
<svg id="Layer_2" data-name="Layer 2" xmlns="http://www.w3.org/2000/svg" viewBox="0 0 186.98 193.85">
  <defs>
    <style>
      .cls-1 {
        fill: #222223;
      }
    </style>
  </defs>
  <g id="Sketchy_Icons" data-name="Sketchy Icons">
    <g>
      <path class="cls-1" d="M91.92,58.72c-8.55-3.14-23.99-.41-32.29,3.05-18.45,7.69-36.47,27.61-43.34,46.08-.45,1.21-2.8,8.16-2.83,8.89-.06,1.55.79,2.72,2.16,3.29.53.22,2.74-.23,1.72,1.17-.12.16-1.16-.75-1.37-.78-.13-.02-.05,1.22-1.57.6-.41-.17-1.25-1.12-1.35-.98-.56.76,1.11,3.27-1.18,1.76.73,1.67,1.52,2.93,1.17,4.88-.89-.8-2.17-1.87-1.56-3.12-.57-.26-.31,1.21-.77.77-.69-.66-1.43-3.45-.4-4.29-3.88.8-1.06-.44-1.15-.97-.15-.86-1.11-1.5-1.38-2.34-.38-1.21-.02-4.6-.29-5.18-.17-.36-2.35-2.71-2.78-3.34-.36-.52-1.53-4.1-2.59-3.4.69,2.88.65,6.14,1.35,8.99.64,2.61,1.17,1.99,1,4.88-.01.21.68-.11.96.16.4.4,1.26,2.3-.18,1.97-.83-1.34-1.83-2.54-2.38-4.07-3.18-8.88-3.89-34.14-1.22-43.06,6.22-20.76,27.89-39.57,45.39-51.06C68.63,8.44,82.16,1.4,108.89.13c37.45-1.79,51.16,15.68,65.87,47.01,13.57,28.9,19.35,86.02-1.38,112.55-17.08,21.85-44.88,27.77-70.72,34.17-1.64-.21-.49-1.63.38-2.37,2.94-2.5,7.49-4.9,10.72-7.24,4.48-3.24,8.94-7.04,13.45-10.17.45-.31,2.12-.84,2.19-.94.26-.36-.39-1.32-.97-1.16-.22.06-.57.97-1.08,1.31-4.56,3.07-10.16,5.31-15,7.6-3.57,1.69-10.36,5.6-13.78,6.53-.59.16-2.3.41-2.35-.4-.07-1.35,7.31-4.67,8.19-6.25l-3.37.91c-.96,1.04-2.64.91-3.85,2.02-.71-1.46,1.2-.83,1.29-.89,4.56-2.69,6.91-8.4,11.3-10.73,4.46-2.37,5.81-1.77,9.73-6.08,16.69-18.37,19.85-45.93,18.39-69.94-.21-3.41-1.15-11.38-2.23-14.47-.42-1.2-2.13-2.79-3.18-3.52-.77-.54-1.43-.2-1.48-.25-.26-.25-.21-1.12-.51-1.42-.06-.06-.53.17-.7.04-3.55-2.47-7.47-5.33-11.04-7.41-.79-.46-2.58-.15-3.23-2.08-.34.21.63,1.08-.39.78-.19-.06-2.87-1.45-3.11-1.61-.56-.37-.26-1.03-.37-1.06-.99-.24-1.93-.68-2.46-.79s-1.2.41-1.27.33c-.11-.13.12-.89-.02-1.16-.05-.1-1.23.06-2.16-.35-4.37-1.92-8.66-3.31-13.44-4.35-.04,0-.39-.87-.39,0ZM117.69,2.48c.48-.57-.72-1.5-1.56-.78-.34.29,1.49.85,1.56.78ZM135.57,4.53c-.59-.35-9.35-2-10.52-2.17-1.83-.26-3.78.15-5.64-.63-2.08.8,2.35,1.12,3.16,1.36,9.03,2.62,16.5,6.96,24.67,10.65,1.13.1,8.73,6.72,9.11,6.31.82-.89-2.28-2.46-2.73-2.93-.58-.61-1.41-2.4-2.04-2.82-.16-.11-.66.31-.69.28-.23-.17-.03-1.46-.19-1.5-.11-.03-.93.42-1.51-.02-.37-.28-.27-1.03-.66-1.38-3.61-3.27-9.2-4.95-12.96-7.16ZM105.51,2.58c-.93-.43-13.15,1.63-14.79,2.08-2.28.63-5.63,1.54-7.39,2.89,6.96-1.26,14.41-1.8,21.48-1.36,2.61.16,5.64.82,8.36.98,5.82.34,11.65-.21,17.4.98-1.48-1.23-3.65-1.77-5.46-2.36-5.52-1.81-11.98-2.54-18.15-2.81-2.14-.09-.72-.06-1.45-.4ZM79.81,6.39c-.55-.28-1.04.25-.78.38.55.28,1.04-.25.78-.38ZM82.55,7.17c-.51-.16-1.96.58-1.56.77.51.24,1.47-.13,1.56-.77ZM98.17,7.95c-.2-.22-5.19.1-5.98.16-4.17.3-7.97,1.14-11.89,2.07-4.23,1-8.39,1.96-12.49,3.51-.51.19-.49.82-.53.84-.47.18-1.37-1.11-.91.44-.58-.4-1.99.03-2.56.27-4.57,1.95-7.99,5.65-11.43,8.99-.65.63-2.71.92-2.61,2.46l12.54-7.17c8.87-4.24,18.27-7.94,27.96-9.91,2.23-.45,5.09-.34,7.32-.89.46-.11,1.23-.05.59-.76ZM74.74,8.73c.28-.55-.25-1.04-.38-.78-.28.55.25,1.04.38.78ZM79.23,7.95v.39l.2-.2-.2-.2ZM80.41,7.96c-.88.59-.48,1.12,0,.38.13-.2.31-.21,0-.38ZM100.12,7.95c-.58-.26-2.1.14-1.56.38.58.26,2.1-.14,1.56-.38ZM101.88,7.95v.39l.2-.2-.2-.2ZM131.16,7.95v.39l.2-.2-.2-.2ZM73.76,8.73v.39l.2-.2-.2-.2ZM119.97,11.39c-.16.15-2.92-1.16-3.46-1.29-10.37-2.53-30.6,2.04-40.22,5.46-3.64,1.29-9.84,3.46-13.01,5.35-.42.25-.66.6-.66,1.1-.55.27-.3-1.2-.77-.77-.04.03.05.56-.48.91-4.32,2.88-9.2,4.97-13.23,7.8-1.98,1.39-3.63,2.66-5.08,4.31-8.54,9.72-16.07,21.5-21.39,32.59-2.32,4.83-4.65,9.68-5.89,14.91,2.74-2.86,5.05-6.13,7.94-8.85,10.05-9.47,26.82-19.56,39.88-24.36,27.84-10.22,60.08-8.08,72.41,22.19,1.18,2.9,1.62,7.63,2.8,9.92.54,1.04,4.65,4.36,5.69,5.53,13.09,14.7,15.16,31.31,11.68,50.62l-4.33,12.89c5-5.48,9.64-11.46,13.23-18.01,20.41-37.19,3.98-91.27-30.02-113.17-5.32-3.43-8.28-4.01-13.37-6.41-.09-.04-.9-1.24-1.46-1.43-.35-.11-.11.57-.25.71ZM142.94,14.73c-5.84-4.08-14.4-4.93-21.34-5.41,3.38,1.8,7.05,2.99,10.44,4.77,42.92,22.64,59.27,94.52,25.65,132.07l-7.45,7.59-.73,1.42c2.19-2.19,4.8-4.09,6.99-6.28,22.1-22.08,24.27-42.53,21.16-72.53-1.68-16.18-4.39-26.74-14.35-40.81-1.78-2.52-5.51-5.57-6.28-8.26-.27-.95-12.33-11.32-14.08-12.55ZM69.86,10.29v.39l.2-.2-.2-.2ZM154.2,16.54v.39l.2-.2-.2-.2ZM157.13,21.22c.28-.55-.25-1.04-.38-.78-.28.55.25,1.04.38.78ZM154.78,22.4c.13-.7-.53-1.28-1.16-1.56-.13.7.53,1.28,1.16,1.56ZM155.95,22.4s-.82-.14-.77.19l1.56,1.76c0-.33-.7-1.88-.78-1.95ZM50.53,23.18c-1.08-.25-.55.38-1.16.98l1.16-.98ZM48.97,24.35c-.39-.36-7.86,5.45-8.98,5.67-7.51,5.72-15.3,12.57-20.94,20.67-.56.81-1.21,2.83-1.33,2.95-.03.03-.6-.41-.72-.33-.48.31-1.27,2.95-1.67,3.62-6.61,11.02-11.84,23.42-13.07,36.56-.5,5.34,1.37,10.4,4.33,14.82l-.62-7.61c-2.01-29.07,9.51-45.2,30.01-63.85,3.68-3.35,8.99-6.55,12.06-10.67.2-.27.99-1.75.92-1.82ZM157.91,24.35c-.15-.17-1.07-.11-.77.58.43,1.02,2.74,2.87,3.32,4.1.84-.69.55-.55-.02-1.15-.5-.52-1.79-1.68-2.15-2.14-.4-.51-.32-1.33-.37-1.39ZM161.81,29.04c-1.11-1.38-.62,2.84,1.18,2.34-.82-.42-1.06-2.2-1.18-2.34ZM164.83,32.63c-.13-.19-1.43-.93-1.84-.86-.06,1.31,1.96,1.21,1.56,2.73.56.17.33-1.79.27-1.87ZM165.91,35.29c-.38.27.21.54.4.76.39-.26-.18-.52-.4-.76ZM166.7,36.85v.39l.2-.2-.2-.2ZM168.06,39.19c.28-.55-.25-1.04-.38-.78-.28.55.25,1.04.38.78ZM36.86,38.8l-3.37,2.48C15.35,58.38,6.08,74.55,7.38,99.9c.06,1.12.52,2.21.59,3.33l2.84-12.57c5.25-17.67,13.34-33.35,23.6-48.24.38-.55,2.85-3.12,2.44-3.61ZM87.54,45.31c-.6.04-2.9.04-3.44-.02-.5-.06-.91-.63-.97-.63-.34.03-.49,1.05-.63,1.12s-1.92-.28-3-.06c-.53.11-1,.57-1.53.73-.66.2-2.37-.4-2.06.94,4.36-.96,8.8-1.17,13.22-.97,12.67.57,26.37,2.66,35.92,11.78l3.56,4.03c-.37-1.19-.34-3.11-1.95-2.73.83-1.24-.06-.52-.79-.98-.35-.22-.09-.79-.27-.97-2.28-2.35-10.75-8.61-12.8-9.32-.16-.06-1.24.42-1.5.32-.33-.12-.4-.82-1.21-1.21-1.72-.84-7.43-1.09-9.41-1.98-.21-.09-.15-1.25-.95-.69-.08.06.17,1.26-1.49.63-.15-.06.1-.58-.28-.64-.98-.17-.42.62-.59.78-.16.14-.66-.58-1.07-.68s-8.01-.18-8.42-.1c-.27.05-.3.66-.35.66ZM103.05,44.66v.39l.2-.2-.2-.2ZM19.49,47v.39l.2-.2-.2-.2ZM72.01,48.17c.7.37,2.03-.62,1.56-1.17-.06-.07-1.56.68-1.56,1.17ZM75.13,47c-.6-.27-1.59.19-1.17.38.6.27,1.59-.19,1.17-.38ZM12.89,57.78c1.95-3.38,3.92-6.7,6.01-10l-5.71,6.77c-5.72,8.64-10.41,17.31-11.68,28.38-.2,1.78-.13,3.65-.17,5.46l1.21-6.01c2.1-8.82,5.91-16.91,10.34-24.6ZM71.61,47.79c-.55-.28-1.04.25-.78.38.55.28,1.04-.25.78-.38ZM83.52,47.78v.39l.2-.2-.2-.2ZM81.18,48.17v.39l.2-.2-.2-.2ZM67.91,48.57c-.88.59-.48,1.12,0,.38.13-.2.31-.21,0-.38ZM77.86,48.57l-11.23,2.61c-9.04,2.99-26.47,13.49-33.11,20.41-.55.58-.41,1.2-.63,1.5-.06.08-1.07-.4-1.11.46,1.65.34,2.09-1.58,2.87-2.21,10.55-8.53,23.18-15.97,35.94-20.11,2.53-.82,5.71-.51,7.27-2.67ZM79.81,48.57c-.58-.26-2.1.14-1.56.38.58.26,2.1-.14,1.56-.38ZM107.79,53.41c-11.83-4.71-17.68-5.49-29.76-2.56-12.85,3.11-26.95,10.07-37.74,18.04-10.95,8.08-28.39,27.99-28.44,41.95,0,.54,0,1.17.4,1.58-1.58.11-1.26-1.52-1.52-2.76l1.34-7.99c-1.44,2.83-2.74,8.5-1.35,11.41.37.79,1.83.51.77,2.64,1.59.1,1.19-1.49,1.34-1.96,3.13-9.44,5.87-15.24,11.31-23.48.24-.37.2-1.07.24-1.12.03-.04.74.43.77.39.06-.06.07-1.16.39-1.68,4.07-6.52,16.89-18.71,23.47-22.69,30.54-18.45,56.56-7.78,83.16,10.47.33.22,1.21.88,1.53.61.15-.12-1.96-2.95-2.12-3.16-2.19-2.86-4.95-5.56-7.06-7.77-.96-1-7.25-6.94-8.06-7.36-.21-.11-.76.45-1.05.29-.1-.05-.25-.78-.69-1.08-2.31-1.53-5.15-3.09-6.93-3.8ZM66.93,49.35c-.55-.28-1.04.25-.78.38.55.28,1.04-.25.78-.38ZM62.64,50.9c.54.26,1.95-.43,2.33-.98-.49.06-2.81.75-2.33.98ZM107.27,50.37c-.19-.11.09-.8-.5-.63l.38,1.33c2.06.72,4.24,1.79,6.12,2.9,2.13,1.26,5.33,3.27,7.25,4.76,3.17,2.46,6.07,5.71,8.89,8.59-.01-.8-.5-1.94-.93-2.59-1.96-2.89-5.3-5.24-7.95-7.3-.16-.12.02-.76-.35-1.07-2.12-1.82-6.09-2.7-8.34-4.39-1.2.01-3.46-.95-4.57-1.59ZM105.78,50.12v.39l.2-.2-.2-.2ZM61.46,51.3c-.55-.28-1.04.25-.78.38.55.28,1.04-.25.78-.38ZM59.9,52.08c-.68-.3-1.69.15-1.17.78.05.06,1.59-.59,1.17-.78ZM57.55,53.64c.28-.55-.25-1.04-.38-.78-.28.55.25,1.04.38.78ZM55.8,53.26c-.16,0-.99,1.21-.79,1.55.68-.19,2.01-1.53.79-1.55ZM54.43,54.42c-3.9,1.3-6.89,4.52-.77.97.51-.3.98.06.77-.97ZM49.75,56.76c-.48-.54-1.12.94-1.48,1.17-10.5,6.74-18.82,10.77-27.17,20.15-3.86,4.33-7.17,8.98-8.73,14.54-.45,1.58-.64,3.88-.88,5.54l4.92-9.33c7.16-10.48,15.89-18.72,26.11-26.22,2.1-1.54,4.91-3.15,6.65-4.64.25-.22,1.23-.48.58-1.21ZM129.21,62.62v.39l.2-.2-.2-.2ZM130.18,63.79c.28-.55-.25-1.04-.38-.78-.28.55.25,1.04.38.78ZM179.19,63.79v.39l.2-.2-.2-.2ZM130.38,64.18v.39l.2-.2-.2-.2ZM179.77,66.52c.28-.55-.25-1.04-.38-.78-.28.55.25,1.04.38.78ZM131.55,66.13v.39l.2-.2-.2-.2ZM179.97,68.48v.39l.2-.2-.2-.2ZM180.17,69.26c-.24.52.09,1.25.59,1.55.14-.44-.37-2.03-.59-1.55ZM183.01,84.4c-.17-.32-.53-6.01-.73-7.13l-1.72-6.06c.45,7.03,1.19,14.21.95,21.28-.73,21.13-4.86,43.88-16.94,61.3-1.3,1.88-3.74,5.59-4.91,6.84-9.13,9.73-23.16,19.74-36.22,24.68-1.89.71-4.99.99-6.23,1.49-.13.05-1.83,1.79-2.25,1.16-1.25-1.87,3.22-1.58,3.44-1.67,18.41-7.92,36.66-19.92,47.25-37.26,2.31-3.78,7.64-14.33,8.16-18.39.05-.42.43-1.34-.28-1.25-.49,1.52-1.58,2.75-2.31,4.14-.29.55-.37,1.66-.43,1.72-.04.04-.68-.43-.75-.38-.06.05-.21.91-.47,1.29-9.02,12.65-20.89,22.04-32.58,32.25-2.32,2.03-5.46,4.97-8.4,7.23-.83.64-5.21,3.13-5.38,3.4-.08.13.37.67.33.72-.14.18-1.29.02-1.47.13-1.05.64-9.43,6.66-9.95,7.27-1.11,1.29.3,2.21-2.26,1.72l-3.1,2.19c22.25-5.53,45.88-11.31,61.89-28.89,13.63-14.97,15.45-32.14,16.03-51.36.04-1.29.42-2.96.56-4.31-1.44.55-.31-.96-.34-2.33-.1-3.88-.72-17.57-1.89-19.81ZM30.23,75.51c.64-.28,1.29-.86,1.16-1.56-.64.28-1.29.86-1.16,1.56ZM135.46,74.34v.39l.2-.2-.2-.2ZM29.83,75.9c-.97-.15-.82-.06-1.3.48-3.82,4.3-7.34,8.85-10.77,13.5l-3.93,7.88,5.23-8.82c2.12-2.06,3.42-4.69,5.32-6.98,1.72-2.07,4.01-3.74,5.46-6.06ZM20.66,77.46v.39l.2-.2-.2-.2ZM15.58,82.15v.39l.2-.2-.2-.2ZM143.32,87.75c-.39-.4-2.76-2.56-2.58-1.13.27,2.25,1.59,5.21,2.09,7.58,5.3,25.32.08,59.6-22.77,74.88l-8.23,8.35c6.72-2.35,13.13-5.72,19.04-9.66,7.61-5.07,15.29-10.91,19.29-19.36,8.7-18.38,7.75-45.66-6.85-60.65ZM140.93,95.81v.39l.2-.2-.2-.2ZM136.66,146.03c4.82-10.63,5.5-23.27,6-34.78l-1.15-13.88c-.68-.09-.37.89-.39,1.36-.32,7.41.7,14.92-.43,22.25-1.46,13.09-6.58,29.18-14.4,39.86-.62.85-2.23.87-1.38,2.13,1.21-2.04,3.51-3.58,4.88-5.37,2.49-3.25,5.18-7.85,6.86-11.57ZM13.82,98.55c-.63-.53-1.08.49-.78,1.17.19.43.84-1.11.78-1.17ZM12.65,100.89c.28-.55-.25-1.04-.38-.78-.28.55.25,1.04.38.78ZM2.89,104.4l-.78-.78c-.11.82-.04.89.78.78ZM8.16,103.62v.39l.2-.2-.2-.2ZM6.99,108.7v.39l.2-.2-.2-.2ZM12.07,116.12v.39l.2-.2-.2-.2ZM11.1,118.46c-.23.45.25.9.59,1.16.16-.39-.39-1.53-.59-1.16ZM12.26,121.19l-.78-.78c-.11.82-.04.89.78.78ZM10.51,121.98v.39l.2-.2-.2-.2ZM174.51,129.01v.39l.2-.2-.2-.2ZM148.34,155.95v.39l.2-.2-.2-.2ZM129.99,171.57v.39l.2-.2-.2-.2ZM110.47,175.87c-.88.59-.48,1.12,0,.38.13-.2.31-.21,0-.38ZM109.49,176.65c-.42-.44-2.04,1.74-2.34,1.95.43.09,2.87-1.4,2.34-1.95ZM110.66,179.78c-1.1,0-2.17.49-3.14.96-.58.28-2.15.9-1.93,1.77l5.07-2.73ZM105,180.16v.39l.2-.2-.2-.2Z"/>
      <path class="cls-1" d="M91.92,58.72c.12.04.36-.06.39,0,.15.3-.39.63-.39,0Z"/>
      <path class="cls-1" d="M14.21,128.22c-.82-.14-.74-1.71-.77-2.34,1.03.43,1.16,1.4.77,2.34Z"/>
      <path class="cls-1" d="M7.18,120.42c.44.45-.17,1.26-.78.19-.05-.34.75-.22.78-.19Z"/>
      <polygon class="cls-1" points="113.98 187.19 114.18 187.39 113.98 187.58 113.98 187.19"/>
      <polygon class="cls-1" points="113.2 187.58 113.4 187.78 113.2 187.97 113.2 187.58"/>
      <polygon class="cls-1" points="11.29 112.6 11.48 112.8 11.29 113 11.29 112.6"/>
    </g>
  </g>
</svg>