<?xml version="1.0" encoding="UTF-8"?>
<svg id="Layer_2" data-name="Layer 2" xmlns="http://www.w3.org/2000/svg" viewBox="0 0 100 103.67">
  <defs>
    <style>
      .cls-1 {
        fill: #fff;
      }
    </style>
  </defs>
  <g id="Sketchy_Icons" data-name="Sketchy Icons">
    <g>
      <path class="cls-1" d="M49.16,31.4c-4.57-1.68-12.83-.22-17.27,1.63-9.87,4.12-19.5,14.77-23.18,24.65-.24.65-1.5,4.36-1.52,4.75-.03.83.42,1.46,1.15,1.76.29.12,1.46-.12.92.63-.06.09-.62-.4-.73-.42-.07,0-.02.65-.84.32-.22-.09-.67-.6-.72-.53-.3.4.6,1.75-.63.94.39.89.81,1.57.63,2.61-.48-.43-1.16-1-.83-1.67-.3-.14-.17.65-.41.41-.37-.35-.77-1.85-.21-2.29-2.07.43-.57-.24-.62-.52-.08-.46-.6-.8-.74-1.25-.2-.65-.01-2.46-.16-2.77-.09-.19-1.26-1.45-1.49-1.78-.19-.28-.82-2.19-1.38-1.82.37,1.54.35,3.28.72,4.81.34,1.39.63,1.06.54,2.61,0,.11.37-.06.51.09.22.22.68,1.23-.09,1.05-.44-.72-.98-1.36-1.27-2.18-1.7-4.75-2.08-18.26-.65-23.03,3.33-11.1,14.92-21.16,24.28-27.31C36.7,4.51,43.94.75,58.24.07c20.03-.96,27.36,8.39,35.23,25.14,7.26,15.45,10.35,46.01-.74,60.19-9.13,11.69-24,14.85-37.82,18.27-.88-.11-.26-.87.2-1.27,1.57-1.34,4-2.62,5.73-3.87,2.39-1.73,4.78-3.76,7.19-5.44.24-.17,1.14-.45,1.17-.5.14-.19-.21-.71-.52-.62-.12.03-.31.52-.58.7-2.44,1.64-5.43,2.84-8.02,4.07-1.91.9-5.54,3-7.37,3.49-.31.09-1.23.22-1.25-.21-.04-.72,3.91-2.5,4.38-3.34l-1.8.49c-.51.55-1.41.49-2.06,1.08-.38-.78.64-.45.69-.47,2.44-1.44,3.69-4.49,6.04-5.74,2.39-1.27,3.11-.95,5.2-3.25,8.92-9.83,10.62-24.56,9.84-37.4-.11-1.83-.62-6.09-1.19-7.74-.22-.64-1.14-1.49-1.7-1.88-.41-.29-.76-.11-.79-.13-.14-.14-.11-.6-.27-.76-.03-.03-.28.09-.38.02-1.9-1.32-4-2.85-5.91-3.96-.42-.25-1.38-.08-1.73-1.11-.18.11.34.58-.21.42-.1-.03-1.53-.78-1.67-.86-.3-.2-.14-.55-.2-.57-.53-.13-1.03-.36-1.32-.42s-.64.22-.68.18c-.06-.07.06-.48-.01-.62-.03-.05-.66.03-1.16-.19-2.34-1.03-4.63-1.77-7.19-2.33-.02,0-.21-.47-.21,0ZM62.94,1.33c.26-.31-.39-.8-.83-.41-.18.16.8.46.83.41ZM72.5,2.42c-.32-.19-5-1.07-5.63-1.16-.98-.14-2.02.08-3.02-.34-1.11.43,1.26.6,1.69.73,4.83,1.4,8.82,3.72,13.19,5.7.6.06,4.67,3.59,4.87,3.38.44-.48-1.22-1.31-1.46-1.57-.31-.33-.75-1.29-1.09-1.51-.09-.06-.35.16-.37.15-.13-.09-.02-.78-.1-.8-.06-.02-.5.23-.81-.01-.2-.15-.15-.55-.35-.74-1.93-1.75-4.92-2.65-6.93-3.83ZM56.43,1.38c-.49-.23-7.03.87-7.91,1.11-1.22.34-3.01.82-3.95,1.55,3.72-.67,7.71-.96,11.49-.73,1.39.09,3.02.44,4.47.52,3.11.18,6.23-.11,9.3.52-.79-.66-1.95-.94-2.92-1.26-2.95-.97-6.41-1.36-9.71-1.5-1.15-.05-.38-.03-.77-.21ZM42.68,3.42c-.29-.15-.56.13-.42.2.29.15.56-.13.42-.2ZM44.15,3.84c-.27-.09-1.05.31-.83.41.27.13.79-.07.83-.41ZM52.5,4.25c-.11-.12-2.78.05-3.2.08-2.23.16-4.26.61-6.36,1.11-2.26.54-4.48,1.05-6.68,1.88-.27.1-.26.44-.29.45-.25.1-.73-.59-.49.23-.31-.21-1.07.02-1.37.15-2.44,1.04-4.27,3.02-6.12,4.81-.35.34-1.45.49-1.4,1.32l6.71-3.84c4.75-2.27,9.77-4.25,14.95-5.3,1.19-.24,2.72-.18,3.92-.47.24-.06.66-.03.31-.41ZM39.97,4.67c.15-.29-.13-.56-.2-.42-.15.29.13.56.2.42ZM42.37,4.25v.21l.1-.1-.1-.1ZM43,4.26c-.47.32-.26.6,0,.2.07-.11.17-.11,0-.2ZM53.54,4.25c-.31-.14-1.12.07-.83.2.31.14,1.12-.07.83-.2ZM54.48,4.25v.21l.1-.1-.1-.1ZM70.15,4.25v.21l.1-.1-.1-.1ZM39.45,4.67v.21l.1-.1-.1-.1ZM64.16,6.09c-.09.08-1.56-.62-1.85-.69-5.54-1.35-16.37,1.09-21.51,2.92-1.95.69-5.26,1.85-6.96,2.86-.23.14-.35.32-.35.59-.29.15-.16-.64-.41-.41-.02.02.03.3-.26.49-2.31,1.54-4.92,2.66-7.07,4.17-1.06.74-1.94,1.42-2.72,2.31-4.57,5.2-8.59,11.5-11.44,17.43-1.24,2.58-2.49,5.18-3.15,7.97,1.46-1.53,2.7-3.28,4.24-4.73,5.38-5.07,14.34-10.46,21.33-13.03,14.89-5.47,32.13-4.32,38.72,11.87.63,1.55.86,4.08,1.5,5.31.29.56,2.49,2.33,3.04,2.96,7,7.86,8.11,16.74,6.25,27.07l-2.31,6.89c2.67-2.93,5.16-6.13,7.08-9.63,10.92-19.89,2.13-48.81-16.06-60.52-2.85-1.83-4.43-2.14-7.15-3.43-.05-.02-.48-.66-.78-.76-.19-.06-.06.31-.14.38ZM76.45,7.88c-3.12-2.18-7.7-2.64-11.41-2.89,1.81.96,3.77,1.6,5.58,2.55,22.95,12.11,31.7,50.55,13.72,70.63l-3.98,4.06-.39.76c1.17-1.17,2.57-2.19,3.74-3.36,11.82-11.81,12.98-22.74,11.32-38.79-.9-8.65-2.35-14.3-7.68-21.83-.95-1.35-2.95-2.98-3.36-4.42-.15-.51-6.59-6.05-7.53-6.71ZM37.36,5.5v.21l.1-.1-.1-.1ZM82.47,8.85v.21l.1-.1-.1-.1ZM84.03,11.35c.15-.29-.13-.56-.2-.42-.15.29.13.56.2.42ZM82.78,11.98c.07-.38-.28-.68-.62-.84-.07.38.28.68.62.84ZM83.4,11.98s-.44-.08-.41.1l.83.94c0-.18-.38-1.01-.42-1.04ZM27.02,12.4c-.58-.14-.29.2-.62.52l.62-.52ZM26.19,13.03c-.21-.19-4.21,2.92-4.8,3.03-4.01,3.06-8.18,6.72-11.2,11.05-.3.43-.65,1.52-.71,1.58-.02.02-.32-.22-.38-.18-.26.17-.68,1.58-.9,1.93-3.54,5.89-6.33,12.52-6.99,19.55-.27,2.85.73,5.56,2.32,7.93l-.33-4.07c-1.07-15.54,5.09-24.18,16.05-34.15,1.97-1.79,4.81-3.5,6.45-5.71.11-.14.53-.94.49-.97ZM84.45,13.02c-.08-.09-.57-.06-.41.31.23.54,1.46,1.53,1.77,2.19.45-.37.29-.29-.01-.62-.27-.28-.96-.9-1.15-1.14-.21-.27-.17-.71-.2-.74ZM86.54,15.53c-.6-.74-.33,1.52.63,1.25-.44-.23-.57-1.17-.63-1.25ZM88.15,17.45c-.07-.1-.77-.5-.98-.46-.03.7,1.05.65.84,1.46.3.09.17-.96.15-1ZM88.73,18.88c-.21.15.11.29.21.41.21-.14-.1-.28-.21-.41ZM89.15,19.71v.21l.1-.1-.1-.1ZM89.88,20.96c.15-.29-.13-.56-.2-.42-.15.29.13.56.2.42ZM19.71,20.75l-1.8,1.33C8.21,31.22,3.25,39.87,3.95,53.43c.03.6.28,1.18.32,1.78l1.52-6.72c2.81-9.45,7.14-17.83,12.62-25.8.2-.29,1.52-1.67,1.31-1.93ZM46.82,24.23c-.32.02-1.55.02-1.84-.01-.27-.03-.49-.34-.52-.33-.18.02-.26.56-.33.6s-1.03-.15-1.61-.03c-.29.06-.53.3-.82.39-.35.11-1.27-.22-1.1.5,2.33-.51,4.71-.63,7.07-.52,6.78.31,14.1,1.42,19.21,6.3l1.9,2.15c-.2-.64-.18-1.66-1.04-1.46.44-.67-.03-.28-.42-.52-.19-.12-.05-.42-.14-.52-1.22-1.26-5.75-4.61-6.85-4.98-.09-.03-.66.22-.8.17-.18-.06-.21-.44-.65-.65-.92-.45-3.97-.58-5.03-1.06-.11-.05-.08-.67-.51-.37-.04.03.09.67-.8.33-.08-.03.05-.31-.15-.34-.52-.09-.22.33-.32.41-.08.08-.35-.31-.57-.36s-4.28-.1-4.5-.05c-.15.03-.16.35-.19.35ZM55.11,23.88v.21l.1-.1-.1-.1ZM10.42,25.14v.21l.1-.1-.1-.1ZM38.51,25.76c.38.2,1.09-.33.83-.62-.03-.04-.84.37-.83.62ZM40.18,25.14c-.32-.15-.85.1-.62.2.32.15.85-.1.62-.2ZM6.89,30.9c1.04-1.81,2.1-3.58,3.21-5.35l-3.05,3.62c-3.06,4.62-5.57,9.26-6.25,15.18-.11.95-.07,1.95-.09,2.92l.65-3.22c1.12-4.72,3.16-9.04,5.53-13.15ZM38.3,25.56c-.29-.15-.56.13-.42.2.29.15.56-.13.42-.2ZM44.67,25.55v.21l.1-.1-.1-.1ZM43.42,25.76v.21l.1-.1-.1-.1ZM36.32,25.98c-.47.32-.26.6,0,.2.07-.11.17-.11,0-.2ZM41.64,25.97l-6,1.4c-4.84,1.6-14.15,7.21-17.71,10.92-.3.31-.22.64-.34.8-.03.04-.57-.22-.59.25.88.18,1.12-.84,1.53-1.18,5.64-4.56,12.39-8.54,19.22-10.75,1.35-.44,3.05-.27,3.89-1.43ZM42.68,25.97c-.31-.14-1.12.07-.83.2.31.14,1.12-.07.83-.2ZM57.65,28.56c-6.33-2.52-9.46-2.93-15.92-1.37-6.87,1.66-14.41,5.39-20.18,9.65s-15.18,14.97-15.21,22.44c0,.29,0,.62.22.84-.84.06-.67-.81-.82-1.47l.72-4.27c-.77,1.51-1.47,4.54-.72,6.1.2.42.98.27.41,1.41.85.05.63-.8.72-1.05,1.67-5.05,3.14-8.15,6.05-12.56.13-.2.1-.57.13-.6.02-.02.39.23.41.21.03-.03.04-.62.21-.9,2.17-3.49,9.03-10,12.55-12.13,16.33-9.87,30.25-4.16,44.47,5.6.17.12.65.47.82.33.08-.07-1.05-1.58-1.13-1.69-1.17-1.53-2.65-2.97-3.77-4.15-.51-.54-3.88-3.71-4.31-3.94-.11-.06-.41.24-.56.16-.05-.03-.13-.42-.37-.58-1.24-.82-2.75-1.65-3.71-2.03ZM35.79,26.39c-.29-.15-.56.13-.42.2.29.15.56-.13.42-.2ZM33.5,27.22c.29.14,1.04-.23,1.25-.52-.26.03-1.5.4-1.25.52ZM57.37,26.94c-.1-.06.05-.43-.27-.34l.2.71c1.1.39,2.27.96,3.28,1.55,1.14.67,2.85,1.75,3.88,2.54,1.7,1.32,3.25,3.05,4.75,4.59,0-.43-.26-1.04-.5-1.38-1.05-1.55-2.84-2.8-4.25-3.9-.08-.06.01-.41-.18-.57-1.13-.97-3.26-1.45-4.46-2.35-.64,0-1.85-.51-2.44-.85ZM56.57,26.81v.21l.1-.1-.1-.1ZM32.87,27.44c-.29-.15-.56.13-.42.2.29.15.56-.13.42-.2ZM32.03,27.85c-.36-.16-.9.08-.62.42.03.03.85-.31.62-.42ZM30.78,28.69c.15-.29-.13-.56-.2-.42-.15.29.13.56.2.42ZM29.84,28.48c-.09,0-.53.65-.42.83.37-.1,1.07-.82.42-.83ZM29.11,29.11c-2.09.7-3.68,2.42-.41.52.27-.16.52.03.41-.52ZM26.6,30.36c-.26-.29-.6.5-.79.62-5.61,3.6-10.06,5.76-14.53,10.77-2.06,2.31-3.83,4.8-4.67,7.77-.24.85-.34,2.07-.47,2.96l2.63-4.99c3.83-5.61,8.5-10.01,13.96-14.02,1.12-.82,2.62-1.68,3.56-2.48.14-.12.66-.26.31-.65ZM69.1,33.49v.21l.1-.1-.1-.1ZM69.62,34.12c.15-.29-.13-.56-.2-.42-.15.29.13.56.2.42ZM95.83,34.12v.21l.1-.1-.1-.1ZM69.73,34.33v.21l.1-.1-.1-.1ZM96.14,35.58c.15-.29-.13-.56-.2-.42-.15.29.13.56.2.42ZM70.36,35.37v.21l.1-.1-.1-.1ZM96.25,36.62v.21l.1-.1-.1-.1ZM96.36,37.04c-.13.28.05.67.31.83.08-.24-.2-1.09-.31-.83ZM97.87,45.14c-.09-.17-.28-3.21-.39-3.81l-.92-3.24c.24,3.76.64,7.6.51,11.38-.39,11.3-2.6,23.47-9.06,32.78-.7,1-2,2.99-2.63,3.66-4.88,5.2-12.39,10.56-19.37,13.2-1.01.38-2.67.53-3.33.8-.07.03-.98.96-1.2.62-.67-1,1.72-.84,1.84-.89,9.84-4.23,19.6-10.65,25.27-19.93,1.24-2.02,4.08-7.67,4.37-9.84.03-.23.23-.72-.15-.67-.26.81-.84,1.47-1.23,2.21-.15.29-.2.89-.23.92-.02.02-.37-.23-.4-.2-.03.03-.11.49-.25.69-4.82,6.76-11.17,11.78-17.42,17.25-1.24,1.09-2.92,2.66-4.49,3.87-.44.34-2.79,1.67-2.88,1.82-.04.07.2.36.18.38-.08.1-.69.01-.79.07-.56.34-5.04,3.56-5.32,3.89-.59.69.16,1.18-1.21.92l-1.66,1.17c11.9-2.96,24.54-6.05,33.1-15.45,7.29-8,8.26-17.19,8.57-27.47.02-.69.23-1.58.3-2.3-.77.29-.16-.51-.18-1.24-.05-2.07-.39-9.4-1.01-10.59ZM16.17,40.38c.34-.15.69-.46.62-.84-.34.15-.69.46-.62.84ZM72.44,39.76v.21l.1-.1-.1-.1ZM15.96,40.59c-.52-.08-.44-.03-.7.26-2.04,2.3-3.93,4.73-5.76,7.22l-2.1,4.22,2.8-4.72c1.14-1.1,1.83-2.51,2.85-3.73.92-1.11,2.14-2,2.92-3.24ZM11.05,41.43v.21l.1-.1-.1-.1ZM8.33,43.93v.21l.1-.1-.1-.1ZM76.65,46.93c-.21-.22-1.47-1.37-1.38-.61.14,1.2.85,2.79,1.12,4.06,2.84,13.54.04,31.87-12.18,40.04l-4.4,4.47c3.59-1.26,7.02-3.06,10.19-5.17,4.07-2.71,8.18-5.83,10.32-10.35,4.65-9.83,4.15-24.42-3.66-32.44ZM75.37,51.24v.21l.1-.1-.1-.1ZM73.09,78.1c2.58-5.69,2.94-12.44,3.21-18.6l-.62-7.42c-.36-.05-.2.47-.21.73-.17,3.97.37,7.98-.23,11.9-.78,7-3.52,15.61-7.7,21.32-.33.46-1.19.46-.74,1.14.65-1.09,1.88-1.91,2.61-2.87,1.33-1.74,2.77-4.2,3.67-6.19ZM7.39,52.71c-.34-.28-.58.26-.42.62.1.23.45-.6.42-.62ZM6.76,53.96c.15-.29-.13-.56-.2-.42-.15.29.13.56.2.42ZM1.55,55.83l-.42-.42c-.06.44-.02.48.42.42ZM4.37,55.42v.21l.1-.1-.1-.1ZM3.74,58.13v.21l.1-.1-.1-.1ZM6.45,62.1v.21l.1-.1-.1-.1ZM5.93,63.36c-.12.24.13.48.31.62.09-.21-.21-.82-.31-.62ZM6.56,64.81l-.42-.42c-.06.44-.02.48.42.42ZM5.62,65.23v.21l.1-.1-.1-.1ZM93.33,68.99v.21l.1-.1-.1-.1ZM79.34,83.4v.21l.1-.1-.1-.1ZM69.52,91.76v.21l.1-.1-.1-.1ZM59.08,94.06c-.47.32-.26.6,0,.2.07-.11.17-.11,0-.2ZM58.56,94.47c-.23-.23-1.09.93-1.25,1.04.23.05,1.53-.75,1.25-1.04ZM59.18,96.15c-.59,0-1.16.26-1.68.51-.31.15-1.15.48-1.03.95l2.71-1.46ZM56.16,96.35v.21l.1-.1-.1-.1Z"/>
      <path class="cls-1" d="M49.16,31.4c.06.02.19-.03.21,0,.08.16-.21.34-.21,0Z"/>
      <path class="cls-1" d="M7.6,68.57c-.44-.08-.4-.91-.41-1.25.55.23.62.75.41,1.25Z"/>
      <path class="cls-1" d="M3.84,64.4c.24.24-.09.67-.42.1-.03-.18.4-.12.42-.1Z"/>
      <polygon class="cls-1" points="60.96 100.11 61.06 100.22 60.96 100.32 60.96 100.11"/>
      <polygon class="cls-1" points="60.54 100.32 60.65 100.42 60.54 100.53 60.54 100.32"/>
      <polygon class="cls-1" points="6.04 60.22 6.14 60.33 6.04 60.43 6.04 60.22"/>
    </g>
  </g>
</svg>