<?xml version="1.0" encoding="UTF-8"?>
<svg id="Layer_2" data-name="Layer 2" xmlns="http://www.w3.org/2000/svg" viewBox="0 0 93.63 86.31">
  <g id="Moons">
    <g id="Layer_3_Image" data-name="Layer 3 Image">
      <g>
        <path d="M2.64,61.36s.02-.23,0-.24c0,.03.55.38,0,.24Z"/>
        <path d="M53.16.72c.3.03.21,0,.24,0,4.16.52,7.38,1.34,11.54,2.24.83.18.98.41,1.05.41.46.02.96-.72.69.22.38-.25,1.03-.08,1.45,0,2.84.6,6.42,1.71,8.92,3.28.53.33,1.95,2.13,2.09,1.04.28.21.37.61.6.84,1.19,1.16,2.69,2.11,3.82,3.43.46.54,1.81,2.79,1.96,2.88.07.04.42-.22.44-.2.07.11-.08.54,0,.78.09.25,1.37,1.05.96,2.1.66-.58.61.58,1,1.27s1.82,2.41,1.84,2.91c.01.33-.63.91.26.37.68,2.42,1.36,4.77,2.39,7.08-1.05.37-.14.23,0,.53.91,2.11,1.28,9.45,1.22,11.94-.31,12.94-10.64,25.45-20.75,33.38-6.99,5.48-14.09,8.21-22.77,10.05-15.12,3.21-36.91-.71-44.64-15.36-1.43-2.7-2.59-6.26-3.78-9.27l.48-.24c.13.18.27-.43.48.72-.11-.04-.48-.07-.48.12,0,.26.37.04.48.12.77.55.33.75.6,1.44.75,1.89,1.73,4.98,2.59,6.64.59,1.14,2.47,2.31,2.32,3.91.91-.69.28,1.17,1.19.48-.22,1.59.77.92.98,1.08.18.14.16.55.33.75,4.12,4.98,16.74,8.76,22.99,9.57.85.11,1.32.03,2.16.09,3.89.29,7.76.27,11.61-.46l-2.33-.42c-13.28-.96-29.23-2.67-37.49-14.47-2.12-3.02-4.64-9.68-4.58-13.18,0-.57-.91-.91-.6-1.17.71-.61.8,1.41,1.67.96.06.44-.91.19-.95.59,0,.09.54,1.11.62,1.48.18.89.09,1.42.43,2.48.1.31.56.68.55.83,0,.19-.54.48-.42.59.07.07,1.51.21,1.2,1.2.84-.05.93-1.19,0-1.08-.05-.97.56-4.11.42-4.81-.05-.22-.44-.23-.57-.4-.05-.06.1-.29.09-.3-.02-.03-1.05.19-.41-.36.05-.05.47.08.65-.05.32-.22.02-1.11.78-.91.02.08-.02.18,0,.24-.04.05-.24.06-.24.12,0,.14.23.11.24.12.54,1.21.89.56,1.77.73.18.03.13.46.3.48,1.11.16,1.84-.07,3.33.23.14.03,0-.49.46-.51.49-.02.98.27,1.47.27,8.55.01,19.03-1.38,26.6-6.15,1.31-.83,3.03-2.72,3.98-3.37.22-.15.58-.04.64-.08.03-.02-.26-.45-.24-.47.06-.05.47.07.64-.07,1.37-1.14,2.74-2.78,4.04-4.02.14-.13,1.36-.85,1.42-.93.2-.28.32-1.18.37-1.21.03-.02.36.25.43.2.16-.1,1.47-2.86,1.74-3.36,5.01-9.38,5.75-16.43-1.15-25.08-2.61-3.27-4.24-3.96-7.74-5.9-1.17-.65.09-.81.79-.62.24.06.27.5.41.56.56.25,1.83.67,2.3.97.8.51,4.14,3.29,4.42,3.66.18.25.17.99.22,1.05.02.02.36-.25.43-.2.29.18.54,1.2.68,1.39,1.5,2.17,2.34,3.31,3.34,5.96.18.48.5,2.1.57,2.19.48.61.61-1.16.64-1.39.36-2.96,0-6.1-1.98-8.43-.22-.26-2.16-1.67-2.28-1.85-.25-.35.04-.74.03-.79-.27-.07-1.14.15-1.67-.49-.07-.08.18-.32.24-.47-.65-.19-1.7-.13-2.15-.95.65.2.2-.52.35-.48.34.1,1.05.75,1.43.97.3.18.46-.02.49,0,.21.1-.06.28-.12.47.63.18,1.19-.15,1.44.96,1.37.34,2.57,2.28,3.59,3.24-.84-2.72-1.95-5.55-4.84-6.65-.58-.22-1.05-.07-1.44-.18-.2-.06-1.09-1.38-2.09-.96.1-.32.49-.72.83-.71.6.01,1.55,1.13,1.8.95.05-.03-.19-1.16-.24-1.2-.02-.02-.33.25-.43.18-.06-.04-.06-.34-.21-.42-.84-.43-1.53-.73-2.47-.48-.19.77.9.66.96.72.14.16-.2.7-.36.71-.13,0-2.38-.77-1.91-1.19l-.67.18c-.48-.37-4.44-1.28-4.49-1.51-.15-.75.78-.38,1.13-.24.51.2,1.78.75,2.68.94.7.15,2.39-.26,2.05.62,1.25-.48-.12-1.75.24-1.91.2-.09,1.33.49,1.56.56.77.21,2.21.73,2.87.88-.3.18-.75.16-.72.48.3-.05.46.02.71.17.72.41,1.34,1.06,2.08,1.47.66.36,2.47.55.8.88.29.25.53.63.83.84,1.56,1.11,3.12,1.79,4.6,2.63,1.4.79.57.38,1.32,1.15.29.3.84-.01,1.13.17.53.33,1.49,1.12,1.93,1.43.27.19-.03.59,0,.6.19.1.84-.14,1.21.11.34.23.7,1.64-.13,1.09-1.88-1.25-3.63-2.57-5.57-3.76-.48-.29-.62-.32-.94-.5-1-.57-2.04-1.43-3.19-1.73,1.07.68.38.76.52,1.14.03.09,1.25.97.68,1.62.12.04.43-.12.45-.1.42.57.54,3.68.76,4.58.1.4,1.09,2.29,1.12,2.45.12.63.12,1.45-.66,1.08-.03-.02.37-.65-.24-.72l-.95,12.35c.43.01.71-1.1.82-1.44.21-.68-.19-1.49.61-1.19-.22-1.85.73-4.57.61-6.48-.04-.65-1.32-2.67.11-2.28-.56.85.16.63.22.9,1.14,4.79-.92,8.59-2.47,12.79-2.15,5.8-2.93,8.93-7.76,13.14-9.49,8.27-20.57,17.05-33.93,16.55-1.64-.06-4.16-.44-5.65-1.03-.39-.15-2.71-1.59-2.97-1.83-.29-.28-.23-.46-.34-.73.03.03.55.05.82.27,3.3,2.69,8.25,2.77,12.49,2.4,6.53-.58,12.74-4.1,18.86-7.73l2.3-2.13c-.42-.08-.69.11-1.04.28-6.88,3.3-12.49,7.42-20.63,7.25-.65-.01-2.43.01-1.79-.82.03-.03.51.23.84.23,3.41-.04,5.67-.51,8.89-1.41.92-.26,1.96.28,1.64-.99-4,1.31-8.24,1.52-12.39,1.96l-.41.44c.63-.32,1.47-.13.96.48-.1.12-2.52-.76-2.99-.83-1.16-.17-3.42.11-4.27-.13-.22-.06-.14-.46-.16-.48-.14-.09-.34.36-.58.37-.85.04-2.78-.78-2.77.35-.19-.17-.52-.71-.6-.71-.98-.08-.46,6.43.6,7.43.05.05.33.53.24,0,.23.31,1.15,1.91,1.32,2.27.26.56-.28,1.18.83.61-.46,1.25.21.92.43,1.24.05.08-.21.42-.19.43.07.05.47-.09.65.06.22.18.37,1.29.43,1.32.07.04.47-.12.66.06,2.17,1.95,4.08,3.92,6.64,5.36.26.15,1.38.35,1.44.41.02.02-.26.45-.24.47.08.06,1.34.24,1.82.45,7.57,3.26,12.3,4.93,21.06,2.94,13.43-3.05,21.68-9.83,30.52-19.68.02-.02.33.22.41.16.65-.47,1.16-2.23,1.27-2.31.05-.04.43.25.46.23.04-.03.12-.74.27-1,2.45-4.24,4.77-7.33,6.62-12.36.53-1.44.88-2.93,1.37-4.38.71.43.7,2.41-.11,2.03.27.46.03,1.3-.13,1.8-2.77,8.65-9.5,17.83-15.98,23.41-.42.36-.96.81-1.39,1.14-3.44,2.63-7.7,5.79-11.9,7.79-5.16,2.46-10.85,4.16-16.57,4.58l.83.71c.78-.71,1.32-.1,1.95-.07,5.67.27,11.22-.59,16.59-2.42.45-.15.82.11.86.09.07-.03-.13-.44-.11-.46.19-.14,2.58-.67,3.07-.88,5.26-2.22,10.23-5.81,14.26-9.22,7.96-6.74,11.65-11.22,13.88-22.02.17-.83.35-.79.35-.85,0-.34-.39-1.03-.38-1.51.01-1.12.34-2.53.11-3.72-.17-.91-1.49-2.29-1.14-3.54l-.47.48c.37-1.01-.5-1.46-.64-1.76-.08-.17-.51-2.12-1.04-1.6-.25.25-.94,6.05-1.2,6.23-.18.12-.46-.05-.6-.25-.43-.59,1.04-5.49,1.01-6.73-.05-2.24-1.15-2.73-2.23-4.38-.25-.38-.76-1.75-.83-1.82-.02-.03-.36.24-.43.2-.11-.07-1.34-1.81-1.58-2.14-.15-.21-.1-.65-.14-.69-.02-.02-.35.24-.43.19-.11-.07-1.49-1.73-1.6-1.87-.37-.53-.17-1.15-.24-1.18-.02,0-.19.15-.39.08-1.3-.51-1.76-1.75-2.69-2.65-.28-.27-1.41-1.03-1.59-1.19-1.8-1.63-3.65-3.21-5.51-4.76-.24-.86,1.48-.22,1.64-.09.03.03-.19.36.03.55,1.17,1.04,2.74,1.98,3.82,2.91.29.25.18.66.41.85.47.39,1.06-.21.57.93,1.29-.59.77-.01.97.27.24.34.66,1.08.73,1.16.04.06.36-.36,1.11.55.05.06-.15.31-.1.36,1.06,1.1,1.5.98,2.32,2.1s2.1,2.32,2.78,3.13c.05.06.18.76.21.78s.56-.18.79.1c.38.46-.22,1.36.53.91-.49,1.1.1.53.72,1.09.14.12.79,1.24.72,1.55,1.03-.71.29-2.48.23-3.49-.41-6.83-2.89-11.03-8.02-15.44-5.75-4.95-12.59-6.36-19.98-6.72.53-.93,1.87-.33,2.69-.3.4.02,1.07-.21,1.24-.18.28.04-.03.59.38.48l.12-.48c1.01.62,2.33.26,3.61.67.5.16.42.8,1.77.28.02-.43-1.1-.37-.6-.95.67,1.2,2.05-.05,2.04,1.68l.6-.71c.48,1.13.63.37,1.13.53,1.63.51,2.82,1.67,4.34,2.15l3.63,2.82c.62.15.22-.35-.02-.69-1.75-2.46-8.55-6.12-11.5-6.95-4.19-1.17-8.44-.61-12.54-1.22.01,0,.01-.23,0-.24.46-.13.89-.36,1.38-.41.39-.04,1.9.25,1.97.17.4-.46-.47-.58-.67-.64-.95-.3-3.17-.58-4.24-.69-.71-.07-2.8-.22-3.36-.13s-.58.92-.95.94c-.12,0-1.43-.92-1.79-1.04-.33-.11-3.37-.38-3.35-.71.02-.44.77-.28.99-.3,2.32-.23,7.32.38,9.78.66ZM47.29.96v.24l.12-.12-.12-.12ZM57.7,2.87c.24-.3-.49-.94-.71-.72-.37.37.68.77.71.72ZM58.3,2.39v.24l.12-.12-.12-.12ZM52.32,4.79v.24l.12-.12-.12-.12ZM70.27,5.04c-.24.17.13.33.24.47.24-.16-.11-.32-.24-.47ZM52.56,5.27v.24l.12-.12-.12-.12ZM77.57,10.06c.82.78.95,1.65,1.86,2.21-.51.89.33,0,.64.42.87,1.2,1.81,2.82,2.62,4.1.25.39.22.93.4,1.22.3.5,1.2.94,1.5,1.64.2.46-.09.8-.07.84.03.06.6-.02,1.09.59,1.14,1.44,2.93,4.09,3.7,5.43.4.69,1.29,3.36,1.67,3.68.05.04.49.08.48-.12-.06-1.06-1.14-3.52-1.53-4.64-2.69-7.55-8.82-17.25-17.28-19.66-.54-.15-1.13-.5-1.53.1,2.07.62,4.48,2.35,5.98,3.95.08.08.15.17.24.24.02.02.34.54.24,0ZM66.68,6.47v.24l.12-.12-.12-.12ZM67.16,6.47v.24l.12-.12-.12-.12ZM77.93,12.46v.24l.12-.12-.12-.12ZM78.41,12.7v.24l.12-.12-.12-.12ZM78.89,12.94v.24l.12-.12-.12-.12ZM78.65,13.42v.24l.12-.12-.12-.12ZM79.73,13.9c.17-.34-.15-.64-.23-.48-.17.34.15.64.23.48ZM53.99,14.62v.24l.12-.12-.12-.12ZM56.87,20.61v.24l.12-.12-.12-.12ZM86.05,23.38c-.4-.57-.74-1.03-1.12-1.63-.16-.26-.38-.81-.41-.07.01.64.81.99.94,1.28.21.46.11,1.28.28,1.77.09.26,1.13,1.63,1.24,1.93,2.49,6.54,2.52,13.55,3.51,20.21v3.22c1-2.98,1.86-6.06,1.94-9.23.17-6.37-2.8-12.42-6.38-17.48ZM85.83,22.29v.24l.12-.12-.12-.12ZM58.06,22.53v.24l.12-.12-.12-.12ZM60.7,23.73v.24l.12-.12-.12-.12ZM88.54,38.53c.28-.34-.35-3.62-.5-4.32-.39-1.86-1.13-4.68-1.71-6.49-.2-.64-.53-1.75-1.09-2.09.37,1.58.37,3.06.47,4.69.13,2.1-.27,2.44.68,4.59.5,1.12,1.98,2.57,1.49,3.79.1.11.64-.15.66-.18ZM56.75,32.35c-.16.45,0,.21,0,.24-.41,1.15-.82,2.3-1.44,3.35.22.2.82-.37.96-.59.36-.56,1.64-4.53,1.43-4.68-.48-.35-.88,1.45-.96,1.68ZM58.54,30.92v.24l.12-.12-.12-.12ZM91.58,31.16v.24l.12-.12-.12-.12ZM84.75,31.88c-.34-.17-.64.15-.48.23.34.17.64-.15.48-.23ZM91.82,31.88v.24l.12-.12-.12-.12ZM85.35,34.99v.24l.12-.12-.12-.12ZM55.43,36.19v.24l.12-.12-.12-.12ZM55.67,37.39v.24l.12-.12-.12-.12ZM55.55,37.87l-1.59,1.51c-.78,2.13-2.66,3.56-3.56,5.67,2.12-2.02,4.39-4.3,5.15-7.18ZM88.58,39.54c.17-.34-.15-.64-.23-.48-.17.34.15.64.23.48ZM50.16,43.86v.24l.12-.12-.12-.12ZM48.97,44.82v.24l.12-.12-.12-.12ZM47.54,46.87c.28-.32.49-.7.82-.98.12-.61-.38-.23-.56-.08-.88.74-1.87,1.7-2.7,2.43-.45.4-.9,1.13-1.52,1.48,1.32-.64,2.99-1.75,3.96-2.86ZM89.78,47.94c-.34-.17-.64.15-.48.23.34.17.64-.15.48-.23ZM87.86,55.84c.76-2.14,1.69-4.15,1.81-6.48.02-.4.22-.63-.26-.95-.3,2.28-1.28,4.45-1.69,6.7-.05.25-.31.79.13.73ZM42.62,51.77s.28-.87.24-.96c-.2-.44-.71,1.46-.24.96ZM89.9,53.69v.24l.12-.12-.12-.12ZM32.21,55.85c-.54.36-.3.69,0,.23.08-.12.19-.13,0-.23ZM31.13,56.56s.09-.51-.12-.47c-1.25.46-.39.99.12.47ZM31.49,56.08v.24l.12-.12-.12-.12ZM86.79,56.56v.24l.12-.12-.12-.12ZM16.89,58.24v.24l.12-.12-.12-.12ZM85.61,60.54c.26-.39.6-.84.58-1.34-.44.27-.87.96-1.09,1.42-.08.17-.23.76.13.36.03-.23.31-.32.38-.44ZM84.28,62.08c.1.12.67-.47.47-.72-.1-.12-.67.47-.47.72ZM2.88,62.31c.17-.34-.15-.64-.23-.48-.17.34.15.64.23.48ZM83.79,63.27c.39-.35.4-1.81-.47-.12-.03.21.45.14.47.12ZM7.67,65.91c-.66-.07-.2,1.44-.12,1.43.55-.06.02-1.2.12-1.43ZM10.1,70.66c-.48-.29-1.08-2.57-1.95-2.83.24.81,2.01,3.71,2.63,3.96.28.11.43-.13.48-.36-1.21.25-.52-.64-.72-.96-.02-.03-.37.24-.44.2ZM78.41,67.83c-.54.36-.3.69,0,.23.08-.12.19-.13,0-.23ZM77.57,68.79c-.34-.17-.64.15-.48.23.34.17.64-.15.48-.23ZM76.74,69.27v.24l.12-.12-.12-.12ZM76.26,69.51v.24l.12-.12-.12-.12ZM10.42,69.99v.24l.12-.12-.12-.12ZM75.3,69.99v.24l.12-.12-.12-.12ZM73.74,71.9c.28.14.55-.15.71-.36-.24-.1-.94.24-.71.36ZM12.22,72.62s-.2-.5-.12-.71c-.63.35-.34,1.04.12.71ZM11.5,72.14c-.34-.17-.64.15-.48.23.34.17.64-.15.48-.23ZM73.74,72.14c-.34-.17-.64.15-.48.23.34.17.64-.15.48-.23ZM72.54,72.86c-.34-.17-.64.15-.48.23.34.17.64-.15.48-.23ZM12.82,73.34v.24l.12-.12-.12-.12ZM70.75,73.82v.24l.12-.12-.12-.12ZM14.01,74.06v.24l.12-.12-.12-.12ZM72.19,74.78v.24l.12-.12-.12-.12ZM68.12,75.5v.24l.12-.12-.12-.12ZM70.75,75.5v.24l.12-.12-.12-.12ZM67.88,75.98v.24l.12-.12-.12-.12ZM69.79,76.46v.24l.12-.12-.12-.12ZM69.19,77.41s.1-.71-.12-.72c-.71.4-.21,1.08.12.72ZM68.47,77.65c.17-.34-.15-.64-.23-.48-.17.34.15.64.23.48ZM67.76,78.13c.17-.34-.15-.64-.23-.48-.17.34.15.64.23.48ZM64.17,80.29c.11.14.75-.7.6-.95-.22.2-.81.68-.6.95ZM62.61,79.57v.24l.12-.12-.12-.12ZM61.05,80.29c-.28-.27-.77.1-.12.48.21.03.13-.46.12-.48ZM49.33,83.89c3.69-.54,7.61-1.1,10.77-3.24-1.68.54-3.36,1.17-5.08,1.62s-3.61.61-5.17,1.07c-.42.12-.62-.08-.52.55ZM46.93,84.13c.17-.34-.15-.64-.23-.48-.17.34.15.64.23.48ZM48.84,83.65c-.37-.17-.97.12-.72.23.37.17.97-.12.72-.23ZM30.29,84.85v.24l.12-.12-.12-.12Z"/>
        <path d="M56.75,32.59s-.01-.23,0-.24c.28-.12.28.36,0,.24Z"/>
        <path d="M7.43,58.48c.06.05.4-.06.48,0,.04.04-.25.45-.24.47-.05-.13-.24-.21-.24-.48Z"/>
        <path d="M77.33,9.82s-.23.03-.24,0c-.1-.54.22-.02.24,0Z"/>
        <path d="M53.39,2.87c-.22-.1-.22.34,0,.24-.04,0-.17.13-.72,0,.83-.48.45-.17.72-.24Z"/>
        <path d="M77.57,10.06s-.22.03-.24,0c-.04-.05.04-.18,0-.24.09.07.16.16.24.24Z"/>
        <path d="M1.69,60.64c-.12-.31-1.13-2.27-.96-2.39.69-.53.73,1.2.76,1.27.04.08.61.79.68.88l-.48.24Z"/>
        <path d="M6.47,56.32s.03-.17,0-.24c.03-.04.22.04.24,0-.02.03-.05.34-.24.24Z"/>
        <path d="M7.67,65.19s-.24.01-.24,0c-.08-.45.11-.17.24,0Z"/>
        <path d="M6.71,56.08c.08-.15-.1-.2-.24-.24-.46-2.19,1.41-1.47.24.24Z"/>
        <path d="M39.27,1.43c-.63.26-.41-.48-.61-.49-.11,0-2.5.29-1.54-.47.2-.16,1.63.68,2.04-.24l.12,1.19Z"/>
        <path d="M48.61,6.23c-.07.07.22.64-.36.48-.23-.06-.06-.36-.16-.45-.16-.13-.47.19-.56.17-.19-.06-.1-.33-.23-.38-.17-.07-1.81-.22-.48-.78.18-.08.04.36.3.47.41.16.83.2,1.26.25l.24.24Z"/>
        <path d="M48.37,5.99s.14-.33.48-.13c.69.42-.21.33-.24.37l-.24-.24Z"/>
        <path d="M41.04,1.33c.24.21.87.47.75.82-.78.03-1.14-.52-1.39-.64-.38-.19-.93.13-.89-.31.63-.15,1.34.62,1.2-.24.35-.09.18.24.33.37Z"/>
        <path d="M50.52,7.43c-.12.1-.85.05-1.07-.24-.07-.09.13-.44.1-.46-.22-.13-.77.2-.7-.26.34-.18,2.16.55,1.67.95Z"/>
        <path d="M.25,58c-.14-.14.21-.72.36-.71.67.01,0,1.07-.36.71Z"/>
        <path d="M42.14,6.47c-.27-.23.95-.66.95-.12,0,.35-.74.3-.95.12Z"/>
        <path d="M35.2,0c-.2.52-.4.57-.72.12l.72-.12Z"/>
        <path d="M36.4.71c-.25.2-.84-.38-.72-.47.25-.2.84.38.72.47Z"/>
        <path d="M45.97,5.27c.33.15-.6.4-.96.23-.33-.15.6-.4.96-.23Z"/>
        <path d="M36.87.72c-.08.16-.41-.14-.23-.48.08-.16.41.14.23.48Z"/>
        <path d="M41.42.72c-.08.16-.41-.14-.23-.48.08-.16.41.14.23.48Z"/>
        <path d="M43.82,6.95c-.08.16-.41-.14-.23-.48.08-.16.41.14.23.48Z"/>
        <path d="M.36,56.69c.18.17.45,0,.37.35-.45.08-.8-.28-.71-.72.34-.08.17.2.35.37Z"/>
        <polygon points="42.02 .24 42.14 .36 42.02 .48 42.02 .24"/>
        <polygon points="4.68 57.04 4.8 57.16 4.68 57.28 4.68 57.04"/>
        <polygon points="67.16 13.42 67.28 13.54 67.16 13.66 67.16 13.42"/>
      </g>
    </g>
  </g>
</svg>