<?xml version="1.0" encoding="UTF-8"?>
<svg id="Layer_2" data-name="Layer 2" xmlns="http://www.w3.org/2000/svg" viewBox="0 0 100 117.65">
  <defs>
    <style>
      .cls-1 {
        fill: #fff;
      }
    </style>
  </defs>
  <g id="Sketchy_Icons" data-name="Sketchy Icons">
    <g>
      <path class="cls-1" d="M15.48,19.91c.46-1.11,1.1-1.88,2.01-2.8C32.78,1.46,49.86-2.39,71.08,1.3c1.04.18,3.29.54,4.15.99.17.09.67.59,0,.48-.45-.78-1-.02-1.42-.07-.22-.02-.4-.46-.73-.56-.28-.09-.88.17-1.14.11-.06-.01-.66-.55-.94-.65-.18-.07-.08.48-.22.47-.2,0-1.19-.54-1.7-.62-.45-.07-.84.13-1.24.15-.05,0-.08-.46-.23,0-.32-.15-.7-.04-.71-.7-.43-.06,0,.51-.58.49-.62-.02-.72-.41-.95-.49-.21-.08-.04.35-.23.43-.29.12-1-.39-1.18-.44-.16-.04-.07.52-.22.47-.8-.23-.64-.16-1.4-.26-.18-.02-3.05-.86-2.25.02.35.38,4.31.89,5.28,1.16,3.09.87,5.94,2.47,8.95,3.52l6.56-.91c.36-.21.37-.6-.01-.72-.26-.08.11.41-.35.36-1.09-.1-.58-.68-.71-.84-.11-.13-.55.57-.7.47-.02-.01.05-.35-.16-.47-.4-.23-1.09-.14-1.25-.7.79.18,3.43.87,4,1.29.33.25-.02.55,0,.81.39.1.11-.41.38-.47.39-.09,3.59-.15,3.03.72-.43.67-4.62.25-5.6.32-.85.06-2.12.37-2.69.46-1.79.26-.08.67.25,1.26,1.16-.01,1.53.75,2.21,1.25.23.17.75.21.77.24.09.1-1.22,1.17.36.47-.33,1.78.18.38.59.57.27.13,1.43,1.96,1.3,2.25-.09.2-.68.63-.83.46-.27-.3.6-1.28-.12-1.17-.51.22-.05.84-.12.93-.27.38-3.01.27-3.52,0,.24.62.88,1,1.28,1.41.35.36.52.28.01.69-.39-.15-.1-.63-.16-.67-.27-.19-.94-.16-1.25-.97-.27.91-.5.25-1.04.13-.23-.05-.55.16-.67.06-.07-.06-.04-.78-.52-.41-.03.02.06.46-.14.48-.24.03-.51-.21-.69-.23-.11,0-.07.38-.28.43-.86.22-1.78.42-2.65.25.28-1.01,3.36-.97,3.52-1.17.49-.61-.67-.89-.7-.94-.33-.46,1.62-.77.94.94.46.08.13-.59.23-.71.14-.15,1.18.32,1.53.35.51.04,3.17-.03,3.47-.1.78-.2.05-.72.03-.77-.07-.15.1-.42-.08-.53-.35-.21-.89-.12-1.26-.35s-1.77-1.41-1.58-1.88c-.61-.09.02,1.21-.58.94-.9-.42.06-.37.11-.7-2.74-2.61-5.11-1.32-8.22-.23-.1,1.1,1.37.62,1.41.7.07.15-.2.55-.19.82s.29.94.19,1.06c-.05.05-1.02-.25-1.29-.18-.59.15-2.47,1.13-3.24,1.41-1.37.49-2.97,1.03-4.28,1.37.27.77-.26.32-.82.57-2.58,1.16-4.39,3.39-6.2,5.43-.68.76-1.41.91-1.9,1.97-.62-1.09.75-1.44.94-2.35.25-1.24-.62.21-.69.26-.22.18-.67.14-.79.28-.14.17,0,.57-.05.64-.01.02-.32-.22-.41-.16-.34.2-.88,1.28-1.35,1.59-.28.18-.56-.04-.58-.01-.07.13.04.53-.05.76-.16.37-.54.38-.77.66-.16.19-.09.6-.15.67-.03.03-.43-.25-.45-.23-.04.04.06.42-.08.62-.67.97-2.06,2.08-2.68,2.96-.09.12.18.58.1.78-.12.27-.86.65-1.07,1.01-.53.92-1.29,2.63-1.71,3.64-1.17,2.83-1.81,5.57-2.19,8.51-.08.63-.4,3.97-.11,4.33.33.41.4.04.43-.33.24-2.65,1.21-5.26,1.91-7.79.14-.13.31-.1.48-.1-.14-1.8.64-2.36,1.34-3.94.26-.58.53-1.5.78-2.01,1.76-3.46,3.92-6.66,6.2-9.8.62-.67.77.14.6.78-.04.13-1.63,1.63-1.88,1.98-.95,1.33-1.6,2.75-2.39,4.14-.18.32-.61.37-.63.42-.06.11.24.37.15.61-.17.5-1.42,2.04-1.83,3.11-.27-.12-.27.35,0,.23-.54,1.39-1.38,2.87-1.96,4.05-.13.28.08.51.07.54-.08.26-.34-.12-.46-.12.11,1.42-.02.81-.31,1.93-.13.5-.56,2.86-.65,2.99-.01.02-.32-.16-.44-.11.32,2.19-.74,4.34-.82,6.5s.56,5.23,1.2,7.26c.16.51.29,1.37.78,1.63l-.4-7.63c.66-15.8,12.28-31.58,26.75-36.12.59-.18,1.21-.37,1.82-.4l-1.29,1.17c-.29-1.17-.5.34-.96.44-.24.05-.6-.23-.89-.21-.15.01-.13.38-.33.46-.68.24-1.49.52-2.17.26.6.65-.87.8-1.4,1.11-3.3,1.89-8.27,5.45-10.27,8.13-.15.2-.03.58-.07.63-.02.02-.4-.25-.44-.22-.07.05-.1.55-.29.78-1.74,2.1-3.44,4.4-4.76,6.74-.22.39-.64,1.75-.89,2.04-.04.05-.4-.11-.42-.07-.4.89-1.06,3.5-1.48,4.71-5.89,16.85-.02,27.5,11.08,40.17.21.24.67.33.81.58.1.17-.12.46-.1.47.16.09.77-.12.93.03.11.1-.05.6.01.68s.52-.23.71-.12.31.64.57.84c.73.58,2.86,1.67,3.18,1.99.28.28.17.73.24.81.06.07,1.42-.59,1.16.71,1.02-.85.54-.2.76-.07,1.3.77,3.32,1.39,4.92,1.98s3.5,1.24,4.76,1.57c3.42.89,7.55,1.46,11.05,1.7.84.06,2.03-.67.89.66-1.59-.09-3.18-.09-4.78-.19-.22-.01-.21,0-.23,0-2.27-.19-4.37-.91-6.46-.71-.14.01.13-.62-.24-.68-.15-.03-.48.19-.82.11-1.16-.25-3.49-.82-3.99-1.77-.39-.1-.14.34-.26.44-.16.13-3.4-1.29-3.85-1.61-.44.38.59.85.86,1.02,1.48.96,3.27,1.58,4.49,2.41.17.11.84-.25.64.79-.61.26-.41-.46-.57-.45-.52.05-.66.66-.6-.49-1.03.84-.46.28-.95-.1-.18-.14-.52-.08-.64-.17-.06-.05.23-.52-.17-.66-.2-.07-.02.4-.26.47-.06.02-1.18-.22-1.23-.26-.04-.04.21-.38-.02-.56-.05-.04-.76-.07-1.13-.27-1.68-.93-3.66-2.54-5.5-3.68-.64-.4-3.24-1.63-3.49-1.91-.21-.23-.23-.53-.23-.82-.42-.09-.15.33-.23.47-.16.27-.28-.42-.39-.48-.4-.22-.93-.16-1.39-.45-1.13-.73-4.07-3.31-5.02-4.38-.17-.19-.05-.54-.13-.54-.12,0-.48.32-.58.22-.03-.03-.02-.55-.24-.84-.21-.27-1.07-.74-1.28-1.06-.73-1.1-.36-.49-1.09-1.26s-3.12-4.99-3.61-6.03c-2.79-5.9-3.12-13.59-3.43-20.05-.58-12.03,3.26-20.61,12.13-28.41.44-.39,2.77-2.62,2.96-2.69.38-.15.03.31.84-.26,3.27-2.3,6.25-4.97,9.8-6.82.44,1.45-.14.62-.58.81-.2.09-1.01.9-1.43,1.17-.3.19-.89.33-.92.37-.02.03.21.67.24.7.08.09,1.77-.87,2.16-1.01.83-.29,3.41-1.19,4.12-1.3.31-.05.73.24.76.2.09-.11-.13-.97-.27-1.12-.09-.09-2.29-.27-2.49-.23-.06.01-.81.86-.87.88-.37.1-.59-.54-.58-.59.02-.24.61-.29.7-.35.17-.13-.87-.39-.47-.93.85.03.74,1.54,1.33.22l5.24-1.87c-.34-.72-1.18-.72-1.88-1.17-.02-.01-.23-.52-.23,0-.59-.23-1.25-.26-1.88-.24.39-.69-.24-.23-.81-.37-1.9-.47-3.42-.82-5.16-1.08-2.17-.32-4.38-.63-6.6-.56-1.73-.61-.51-1.13.67-.82.24.06.12.43.15.47.23.31.21-.44.23-.47.11-.1.35.35.57.37.34.02.76-.19,1.19-.15.91.07,2.55.85,2.23-.45-1.04.28-2.05-.22-2.94-.47-.18-.05-.03.55-.23.47-1.7-.65-2.68-.22-4.47-.21-.4,0-1.01-.29-1.05-.26-.08.08-.3.89.12.94.32.04,2.1-.53,2.46-.23.04.03.04.91,0,.94-.18.1-1.33-.42-1.77-.36-.35.05-.89.95-.69-.1-.79.57-1.83.24-2.56.32-9.72,1.06-16.79,5.49-23.75,11.91-4.81,4.44-9.23,9.77-12.52,15.88-1.11,2.07-2.22,5.03-3.32,6.76-.2.31-.16-.48-.33.43-.25,1.29-.85,2.78-1.27,4.08-1.41,4.34-2.51,8.27-2.97,13.18-1.35,14.36,3.58,29.32,12.24,41.09,3.65,4.96,6.64,7,12.23,9.62.79.37,1.75.43,2.58.93.37.22.27.52.3.54.24.25.2-.49.34-.46,1.2.24,2.93,1.02,4.22,1.29,6.54,1.37,12.84,1.54,19.5,1.21.41-.02.77-.35.98-.35.4,0,.65.51.78.43.02-.01-.07-.41.16-.47.87-.23,2.67-.14,3.68-.32,4.21-.77,8.81-2.28,12.42-3.29,3.22-.9,6.12-2.56,9.33-3.43-.62.97-2.11,1.61-3.22,1.79-.19.03-.52-.17-.54-.15-.07.1.15.56-.15.72-.64.34-2.59.74-3.37,1.04-4.76,1.85-10.59,4.02-15.24,5.38-1.35.4-7.35,1.77-8.38,1.76-.14,0-.04-.5-.21-.45-.16.04-.41.38-.77.43-1.13.15-2.38-.33-3.46.28v-.47c-.2.23-.4.36-.7.38-1,.09-3.71.07-4.69-.04-2.72-.29-5.23-1.02-8.02-1.75-.53-.14-1.42-.09-1.79-.24-.31-.13-.03-.55-.41-.46-.4,1.06-.16.51.63.89,8.34,4.03,12.95,5.77,22.5,5.45.88-.03,1.97-.38,2.83-.36.33,0,.67.42.79.35,1.56-.95,2.37-.57,4.06-.99,8.81-2.16,16.66-6.89,23.83-12.02.78-.56,1.43-1.32,2.3-1.77.36.21-.06.54-.23.72-.42.43-1.68,1.19-1.78,1.29-2.39,2.4-5.68,4.48-8.91,5.98-.02.01.2.33.12.4-.4.35-2.12.82-2.64,1.1-1.9,1-3.4,2-5.46,2.85-1.36.56-2.83.78-4.11,1.53-.38-1.04-.25-.13-.57.11-.05.04-1.06.26-1.33.33-2.73.75-5.67.86-8.44,1.4-.23-.89-.29-.08-.72-.03-1.4.16-4.71.08-6.18-.06-2.62-.25-5.23-1.21-7.87-1.52.07-.78-.13-.14-.84-.33-.85-.22-1.55-1.28-2.47-.62.2-.86-.08-.26-.62-.35-.42-.08-.39-.46-.5-.52-.27-.14-.73.02-.85-.09-.1-.09.03-.49-.05-.64-.04-.08-1.39-.25-1.8-.44-1.46-.66-2.5-1.88-3.64-2.56-.19-.12-1.04-.11-1.08-.15-.18-.19-.12-.7-.32-.84-.17-.12-.62-.01-.87-.17-1.56-.96-2.93-2.52-4.7-3.18.5-.71-.24-.4-.8-.73-.3-.18-.34-.54-.44-.61-.09-.05-.4.2-.42.18-.25-.32-.55-1.12-1.18-1.73-2.46-2.39-5.95-5.43-7.94-8.52-.39-.61-.46-1.43-.51-1.49-.05-.06-.74.38-.94.24-.06-.04-.1-.78-.24-.99-.6-.91-1.85-2.15-2.29-3.19-.23-.54,0-.96-.05-.98-.19-.1-.57.37-.69.12-.01-.03.23-.22-.03-.66-.6-1.04-2.32-2.93-2.5-4.07-.08-.51.6-.91-.29-.66.52-1.15-1.22-1.07-.48-2.24-.85.36-1.23-2.87-1.51-3.29-.11-.17-.52-.18-.57-.26-.06-.08.25-.51.22-.77-.01-.15-.44-.12-.49-.3-.13-.56-.22-1.64-.39-2.14-.14-.41-1.12-.16-.08-1.12-.13-.24-.41.16-.45.11-.08-.1-.56-2.23-.25-2.47-.15-.1-.45.14-.46.12-.06-.08-.31-1.7-.35-2-.08-.68.45-1.63-.36-1.05l-.12-3.18c-.57-.88-.33-1.69-.42-2.51-.05-.45-.44-1.48-.41-1.7.03-.24,1,.1.01-.72,1.04-.37.06-.26,0-.5-.23-.89-.04-3.16.01-4.19.02-.28-.26-.73-.22-.8.03-.06.54-.13.68-.38.1-.19-.42-.03-.48-.27-.15-.62.2-1.42.24-1.96-.1.53.21.02.23,0s.34-.04.23-.23c-.38,7.3.73,12.56,1.85,19.64.05.34-.03,1.17.03,1.27.02.03.45-.26.47-.24.13.14.65,3.04.87,3.71.96,2.88,2.62,5.49,3.61,8.14.2.55.17,1.7.22,1.78.01.02.32-.22.41-.16.73.41.44,1.42.55,1.55.06.07.47-.08.69.16.1.11,1.34,2.41,1.35,2.55.02.19-.23.56-.2.59s.52-.05.82.24c.21.19.82,2.06,1.29,1.64.02-.02-.1-.56-.12-.58s-.29.14-.37,0c-.33-.64-.46-1.79-.85-2.63-.15-.32-1.04-1.33-1.2-1.87-.12-.39-.03-.84-.05-1.25-.73.51-.41-.18-.72-.75-.58-1.05-.65-1.8-1.15-3,.53.1.01-.21,0-.23-1.74-2.69-3.3-10.94-3.88-14.22-.11-.61.19-1.48.13-1.83-.03-.17-.43-.12-.48-.31-.13-.52.27-2.04-.24-2.77h.47c-.52-.48-.03-1.07-.02-1.43,0-.13-.38-.09-.39-.21-.07-.83.2-7.67.34-8.06.11-.3.51-.27.52-.39.01-.49-.4-1.28-.33-2.02.05-.55.49-2.39.65-3.09.94-4.36,2.64-8.66,4.55-12.6.26-.54.51-1.86.79-2.22.26-.32.64-.11.71-.17.03-.03-.3-.46-.13-.71.33-.49.89-1.17,1.28-1.84s.85-2.11,1.53-2.54c.22-.14.59-.06.62-.09.04-.03-.27-.48-.21-.77.02-.08.83-1.37.89-1.43.31-.34.21-.08.71-.73C23.02,14.98,33.73,6.01,45.17,2.44c1.2-.38,2.65-.74,3.89-.85.07-.81-.13-.3-.39-.34-.84-.11-2.38-.01-2.89.58l-.23-.47c-.09.99-2.01.68-2.61.85-3.75,1.03-6.19,2.49-9.56,3.78-.25.1-.69.03-.75.07-.03.02.25.44.24.47-.11.14-.93-.01-1.16.13-.17.1-.22.47-.42.59-1.12.66-2.17,1.41-3.16,2.04-.08.05-.4-.19-.42-.17-.08.1.07.6,0,.71-.01.02-.31-.22-.41-.16-1.82,1.04-5.03,3.8-6.6,5.24-.79.72-4.59,4.97-5.2,5.02-.46,1.12-1.88,2.43-2.66,3.43-4.04,5.18-7.73,10.82-9.89,17.48-.3.92-.71,4.26-.84,4.45-.01.02-.32-.22-.46-.12l.13.83-.72,2.35c-.27-.15-.33-1.66-.31-1.76.03-.14.38-.09.42-.27.58-2.73.92-6.79,2.52-8.65.27-.32.44-2.39.54-2.47.02-.02.45.27.47.24.16-.28-.25-1.65.93-1.52-.21-.25-.28-.57-.2-.89.43-1.6,5.68-8.7,7.01-10.38.31-.39,2.22-2.82,2.37-2.93.08-.05.44.24.68.22ZM52.69.42v.23l.12-.12-.12-.12ZM53.4.65v.23l.12-.12-.12-.12ZM54.45,1.12c.17-.33-.15-.63-.23-.47-.17.33.15.63.23.47ZM55.04.65v.23l.12-.12-.12-.12ZM56.1.66c-.33-.17-.63.15-.47.23.33.17.63-.15.47-.23ZM59.15,1.12c-.25-.71-1.1-.24-1.64-.35.74.34.77.65,1.64.35ZM49.76.89c-.36-.38-.62.33-.47.7.3,0,.61-.55.47-.7ZM50.93.89c-.55-.09-1,.11-.94.7.48.03-.07-.38.48-.38.3,0,.53.5.45-.32ZM51.28.89v.23l.12-.12-.12-.12ZM51.87,1.36c.14.15.59-.14.7-.35-.34-.07-1.17-.12-.7.35ZM52.93.89v.23l.12-.12-.12-.12ZM53.87.89v.23l.12-.12-.12-.12ZM59.5.89v.23l.12-.12-.12-.12ZM51.87,1.83c-.35-.31-1.24.44-.94.7.35.31,1.24-.44.94-.7ZM49.64,2.07c-.53.36-.29.67,0,.23.08-.12.19-.12,0-.23ZM50.7,2.06s-.68-.02-.7,0c-.7.61,1.4.61.7,0ZM61.78,2.47c-.09-.04.05-.47-.16-.4-1.55.52,1.42,1.21,1.99,1.17-.26-1.11-1.62-.67-1.83-.77ZM49.05,2.3l-1.64.47c.41-.13,1.47.07,1.64-.47ZM63.85,3s.57.16.7.12l-.58-.59c-.2-.03-.13.45-.12.47ZM46.12,2.77v.23l.12-.12-.12-.12ZM65.72,3.47s-.08-.7-.11-.7c-1.56.18-.62,1.15.11.7ZM67.37,3.94c.17-.33-.15-.63-.23-.47-.17.33.15.63.23.47ZM66.78,3.71v.23l.12-.12-.12-.12ZM69.13,4.65v.23l.12-.12-.12-.12ZM77.11,8.17v.23l.12-.12-.12-.12ZM62.67,12.63c.07-.1-.34-.53-.46-.46-.04.02-.29.56-.47.7.18-.03.91-.2.94-.24ZM54.34,18.51v.23l.12-.12-.12-.12ZM19.12,21.79v.23l.12-.12-.12-.12ZM17.24,23.2v.23l.12-.12-.12-.12ZM14.3,28.6l-.47-.47c-.07.49-.02.53.47.47ZM12.31,30.95v.23l.12-.12-.12-.12ZM12.31,31.42v.23l.12-.12-.12-.12ZM11.72,32.83c.27-.27-.1-.76-.47-.11-.03.2.45.13.47.11ZM10.78,33.77c.26.22,1.05-.39.35-.7-.05-.02-.38.68-.35.7ZM10.31,35.89c.1-.11.25-.93.24-1.17-.68.1-.52,1.48-.24,1.17ZM9.96,36.59v.23l.12-.12-.12-.12ZM9.25,36.83v.23l.12-.12-.12-.12ZM9.37,37.77c-.38-.32-.65.29-.47.7.12.26.5-.67.47-.7ZM8.85,40.08s.02-1.45-.3-.91c-.39,1.27-1.52,2.62-1.29,3.99l.99-2.65c.15-.32.57-.37.6-.43ZM40.72,39.88v.23l.12-.12-.12-.12ZM7.02,45.05l.12-1.64c-.18-.06-.91,2.53-.12,1.64ZM6.2,45.75v.23l.12-.12-.12-.12ZM6.2,46.46v.23l.12-.12-.12-.12ZM6.08,49.04s.16-.79.16-.83c-.17-1.44-1.06,1.71-.16.83ZM5.85,50.45c.14-.27-.15-.54-.35-.7-.1.24.24.92.35.7ZM5.5,50.68v.23l.12-.12-.12-.12ZM5.5,51.39v.23l.12-.12-.12-.12ZM5.38,52.56c.17-.33-.15-.63-.23-.47-.17.33.15.63.23.47ZM44.22,62.81c-.39-.88-.84-1.79-1.19-2.69-.61-1.53-1-3.2-1.6-4.73-.89,1.83.79,4.29.36,6.23.9-.3.26.45.35,1.09.06.42.51.37.58.6.21.74.14,1.56.5,2.46,1.05,2.66,4.61,8.26,6.39,9.98,1,.97,2.55,2.5,3.57,3.37.88.75,2.54,1.5,3.41,2.23.24.2-.09.6.11.57.25-.03.48-.63.32-.91-.03-.05-.48-.14-.67-.37-5-6.12-8.82-10.43-12.11-17.83ZM4.79,57.73v.23l.12-.12-.12-.12ZM43.54,58.67v.23l.12-.12-.12-.12ZM44.01,59.38c-.53.36-.29.67,0,.23.08-.12.19-.12,0-.23ZM5.5,67.83v.23l.12-.12-.12-.12ZM61.85,83.81c-.23.16.13.32.24.46.23-.15-.11-.31-.24-.46ZM65.37,86.62v.23l.12-.12-.12-.12ZM13.83,91.32c.17-.33-.15-.63-.23-.47-.17.33.15.63.23.47ZM13.36,92.26s-.5-.09-.47.11c.37.64.73.16.47-.11ZM15.48,93.67c-.37-.34-.92.42.12.7.04-.13-.09-.67-.12-.7ZM16.06,94.84v.23l.12-.12-.12-.12ZM16.65,96.25c.14-.31-.08-.88-.46-.94-.1.31.35,1.18.46.94ZM15.83,96.25v.23l.12-.12-.12-.12ZM17.35,96.25c-.32-.36-.81.31-.11.7.21,0,.14-.68.11-.7ZM17.94,97.19v.23l.12-.12-.12-.12ZM18.18,97.66v.23l.12-.12-.12-.12ZM21.93,102.36v.23l.12-.12-.12-.12ZM26.28,105.41c.17-.33-.15-.63-.23-.47-.17.33.15.63.23.47ZM27.64,105.47c-.23-.27-1.68-.59-1.02.42.1.15,2.56,1.88,2.9,2.08,2.86,1.68,6.42,2.43,9.61,3.25,7.7,1.47,15.52.88,23.06-1.11.28-1.15-.64-.39-1.55-.26-.69.1-1.96.42-2.36.46-.35.03-.48-.35-.67-.43-.15-.07.36.8-.35.46l-.23-.47c.08.68-1.92.68-2.49.7-6.79.3-12.06-.52-18.54-1.99-.27-.06-1.73-.08-1.88-.14-.04-.02.06-.36.12-.46-.89.48-.62-.17-.86-.23-2.4-.56-3.04-.97-5.01-1.77-.31-.13-.67.15-.69.12-.05-.07.09-.49-.05-.65ZM28.98,105.88v.23l.12-.12-.12-.12ZM64.08,109.17c-.24-.19-.82.37-.7.47.24.19.82-.37.7-.47ZM64.67,109.17v.23l.12-.12-.12-.12ZM63.14,110.11c.24-.24-.46-.94-.7-.7s.46.94.7.7ZM32.97,110.11v.23l.12-.12-.12-.12ZM33.44,111.52v.23l.12-.12-.12-.12Z"/>
      <path class="cls-1" d="M.68,51.15c-.04-.61-.63-2.28.35-2.59.28.8-.07,1.76-.12,2.59-.02-.04-.17.03-.23,0Z"/>
      <path class="cls-1" d="M8.43,81.92s-.54-.33,0-.23c.01,0-.01.23,0,.23Z"/>
      <path class="cls-1" d="M.68,51.15c0,.07.01.17,0,.23,0,.01-.23-.01-.23,0,.01-.15-.36-.33-.12-.46.08.15.24.17.35.23Z"/>
      <path class="cls-1" d="M67.6,1.59h.23c-.15.25-.16.03-.23,0Z"/>
      <path class="cls-1" d="M45.77,32.83s.01-.23,0-.23c0,.02.17-.21,0,.23Z"/>
      <path class="cls-1" d="M70.42,5.35c.07.03.22-.03.23,0,.09.18-.23.38-.23,0Z"/>
      <path class="cls-1" d="M26.51,20.62c.11-.12.38-.91.7-1.22,7-6.96,18.37-13.37,28.77-12.65.5.03,1,.52,1.05.49.03-.03-.06-.39.15-.46.2-.06,2.42.14,2.32.7.66.13.08-.45.11-.47.05-.03,1.15-.05,1.17,0,.44.87-.89.73-1.51.69-.31-.02-.52-.33-.73-.35-.11-.01-2.05.5-2.22.37-.02-.01.23-.31.13-.46-.41.38-.94-.02-1.37.04-.33.05-.64.45-.99.44-.12,0-.12-.48-.22-.47-.48.03-1.7.61-2.33.47-.29-.06,0-.58-.39-.48.08.86-.33.26-.59.27-.18,0-.09.35-.22.38-1.86.45-4.22.5-5.95,1.15-.27.1-.26.47-.4.51-.17.05-1.19-.33-1.52-.2-.18.29.95.22.23.59-.04.02-.9.38-.94.35-.09-.07.19-.56-.23-.47-.41.96-2.11,1.36-3.09,1.91-2.64,1.5-6.48,4.05-8.83,6.15-.06.05-.5,1.11-.83,1.29-.17.09-.4-.21-.65-.08-.06.03-.43,1.24-.47,1.29-.04.05-.08-.33-.93.47l-.23-.23ZM49.64,7.47v.23l.12-.12-.12-.12Z"/>
      <path class="cls-1" d="M26.51,20.62l.23.23c-.65.61-1.29,1.38-1.87,2.05-5.09,5.95-9.78,14.22-11.91,22.09-.75,2.79-.87,6.3-1.95,8.86-.08.18.46.05.49.25.04.27-.23.65-.23.96-.04,3.2-.23,6.44.07,9.64.23,2.48,1.34,5.3,1.09,7.71.14.11.43-.13.45-.11.12.15.56,3.2.78,3.86,2.45,7.47,7.73,16.1,14.36,20.69,17.83,12.37,45.06,7.14,63.12-1.85,2.11-1.05,4.16-2.23,6.17-3.46.56,1.32-1.24,1.1-1.48,1.25-.25.16-.81.97-1.38,1.3-.87.5-3,1.65-3.84,2-.42.17-.91-.13-.93-.09-.06.13.09.58-.02.68-.08.07-.77.02-1.14.16-4.52,1.73-7.96,3.34-12.94,4.91-.37.12-.65.54-.81.6-.21.07-.04-.52-.23-.47-.37.1-1.07.63-1.53.77-.59.18-4.21,1.16-4.41,1.05-.06-.03-.02-.43-.16-.41-.15.02-.82.49-1.29.59-8.24,1.76-18.65,1.51-26.7-.51-.18-.04-.52.19-.55.16-.07-.1.07-.6,0-.71-.02-.03-.39.19-.7.13-1.5-.28-3.13-.99-4.26-1.72-.12-.08-.97.19-1.02.17-.07-.02.1-.38.07-.42-.6-.66-3-.95-3.79-1.66-.28-.25-.1-.66-.15-.73-.02-.03-.37.23-.69.12-.28-.1-2.83-1.88-3.36-2.24-.86-.57-.36-.9-.41-.93-.14-.09-.74.13-.92-.04-.07-.07.03-.47-.09-.59-.5-.51-1.53-.78-1.46-1.72-.85.59-.49-.14-.81-.54-.17-.22-.48-.28-.68-.55s-.69-1.4-.78-1.46c-.07-.05-.39.22-.42.2-.06-.04-.11-.63-.23-.81-.1-.15-.42.08-.46,0-.03-.05.07-.7-.25-1.17-1.06-1.53-2.37-3.12-3.07-4.65-.4-.87-.19-.99-.3-1.25-.33-.78-1.02-1.46-1.59-2.98-.06-.16-1.29-.91.01-.76-.2-.24-.48-.37-.7-.59.49.09.11-.13,0-.23-1.03-.96-.65-3.32-.74-3.49-.04-.08-1.01-.46-.92-1.31.03-.23.43-.09.48-.13.23-.19-.47-.28-.62-.57-.11-.22-.86-4.23-.95-4.78-.35-2.1-.92-5.94-.78-7.9.01-.16.47-.13.46-.23-.02-.34-.41-.95-.37-1.55.02-.42.36-.7.38-.83.02-.13-.46-.09-.49-.25-.03-.19.28-3.28.35-3.91.23-2.12.67-4.72,1.31-6.75.03-.09.45-.06,0-.23,2.32-10.26,7.45-18.5,14.56-25.84ZM10.9,62.43v.23l.12-.12-.12-.12Z"/>
      <path class="cls-1" d="M13.83,78.64c-.06-.06-.51-.33,0-.23.01,0-.01.23,0,.23Z"/>
      <path class="cls-1" d="M11.95,46.69c-.16-.13-.01-.18,0-.23v.23Z"/>
      <path class="cls-1" d="M82.16,92.73c.47.37-1.2.85-1.29.84-.3-.02-.54-.32-.93-.34-.51-.04-.95.66-.71-.26-.5.44-1.01-.01-1.51-.11-.54-.11-.86.56-.73-.6.74.33,4.96.31,5.16.47Z"/>
      <path class="cls-1" d="M70.89,9.81c.91-.24,1.68.01,2.58-.23,0,.5-.57-.07-.47.58.01.1.83.22.47,1.06-.37.08-.11-.22-.35-.4-.03-.02-.25.09-.35.02-.19-.14-.19-.58-.37-.58-.49,0-2.34,1.27-1.51-.22.41-.13.16-.31,0-.23Z"/>
      <path class="cls-1" d="M70.89,9.81s.03.18,0,.23c-.37.12-.88,0,0-.23Z"/>
      <path class="cls-1" d="M93.67,91.32c.11.15-.26.69-.24.94-.43.09-.15-.4-.23-.47-.07-.06-1.37.94-1.64.12-.31-.94.22-.37.7-.23l-.46-.59c.33.15,1.75.06,1.88.23Z"/>
      <path class="cls-1" d="M74.69,91.72c.1.07.9-.16,1.3.01.27.12,1.05.76.77.99-.38.33-1.79-.69-2.24-.83-.7-.22-2.54.18-2.22-1.52.56,1.05,1.77.63,2.12.85.14.09.17.43.27.5Z"/>
      <path class="cls-1" d="M65.72,8.4c-.95-.53-.61.24-.82.24-.24,0-.04-.36-.14-.45-.05-.05-.65.29-1,.23-.24-.05-.27-.59-.51-.72-.19-.1-.03.42-.27.48-.43.1-2.68-.17-1.96-.95.17-.18,4.39.54,4.69,1.17Z"/>
      <path class="cls-1" d="M83.1,93.43h.23c-.15.36-.17.02-.23,0Z"/>
      <path class="cls-1" d="M83.1,93.43c-.39-.14-.85-.14-.7-.7.97,0,2.48.29,3.39.22.45-.03.9-.45.95-.45.16,0,.49.58.35.7-.09.08-.6-.15-.83-.11-.62.11-.79.55-1.52-.13.15,1.02-.24.34-1.41.47-.04,0-.08-.46-.23,0Z"/>
      <path class="cls-1" d="M77.23,2.53s.02.68,0,.7c-.08.09-1.96-.14-1.41-.94.04-.06,1.36.19,1.41.24Z"/>
      <path class="cls-1" d="M88.73,92.49c.25.78-1.39.84-1.4.35,0-.35,1.19-.31,1.4-.35Z"/>
      <path class="cls-1" d="M89.91,92.26c.13,1.52-.55.1-.47,0,.33-.42,1.56.64,1.18-.94,1.19.78.31,1.82-.7.94Z"/>
      <path class="cls-1" d="M98.87,90.65s-.12,1.06-.27.08c.08-.15,1.39-1.56,1.4-.71,0,.93-1.01.57-1.13.63Z"/>
      <path class="cls-1" d="M81.46,17.33c.07-1.12-.45-.69-.59-.76-.19-.09-.16-.59-.11-.65.06-.09,1.99.96.7,1.41Z"/>
      <path class="cls-1" d="M85.92,101.89c-.18-.19.1-1.05.58-.94.79.18-.33,1.21-.58.94Z"/>
      <path class="cls-1" d="M97.66,92.02c-.09-.53.21-.99.7-1.17.09.53-.21.99-.7,1.17Z"/>
      <path class="cls-1" d="M89.67,91.32c-.49.45-1.48-.34-1.17-.7.04-.05,1.14.51,1.17.7Z"/>
      <path class="cls-1" d="M85.21,102.36c-.39.36-.65-.56-.7-.7l1.06-.23c0,.15-.32.9-.36.93Z"/>
      <path class="cls-1" d="M91.79,100.72s.02.68,0,.7c-.61.7-.61-1.4,0-.7Z"/>
      <path class="cls-1" d="M88.27,90.62c-.13.47-.5.53-.94.46.13-.47.5-.53.94-.46Z"/>
      <path class="cls-1" d="M74.18,11.46c-.2.21-.58-.57-.23-.94.2-.21.58.57.23.94Z"/>
      <path class="cls-1" d="M96.72,90.15s.68-.27.7-.24c.57.71-1.21.67-.7.24Z"/>
      <path class="cls-1" d="M96.25,90.38c0,.16-.26.43-.36.46-.56.19-.59-.74.36-.46Z"/>
      <path class="cls-1" d="M95.07,90.62c.26.26-.21.72-.47.47s.21-.72.47-.47Z"/>
      <path class="cls-1" d="M90.14,91.55c-.11.25-.39-.34-.23-.7.11-.25.39.34.23.7Z"/>
      <path class="cls-1" d="M79.82,15.45c-.15-.65.23-.33.59-.7l-.59.7Z"/>
      <path class="cls-1" d="M74.18,10.05c-.49.07-.53.02-.47-.47l.47.47Z"/>
      <path class="cls-1" d="M91.32,91.32c-.08.16-.4-.14-.23-.47.08-.16.4.14.23.47Z"/>
      <path class="cls-1" d="M91.08,101.89c-.08.16-.4-.14-.23-.47.08-.16.4.14.23.47Z"/>
      <path class="cls-1" d="M88.03,100.72c.16.08-.14.4-.47.23-.16-.08.14-.4.47-.23Z"/>
      <path class="cls-1" d="M81.92,18.03c-.19.24-.44-.43.12-.7.04.12-.1.67-.12.7Z"/>
      <path class="cls-1" d="M75.59,9.35c.16.08-.14.4-.47.23-.16-.08.14-.4.47-.23Z"/>
      <path class="cls-1" d="M82.63,18.74c-.08.16-.4-.14-.23-.47.08-.16.4.14.23.47Z"/>
      <polygon class="cls-1" points="75.94 9.35 76.06 9.46 75.94 9.58 75.94 9.35"/>
      <path class="cls-1" d="M80.64,15.46c.19.11.08.11,0,.23-.29.44-.53.13,0-.23Z"/>
      <polygon class="cls-1" points="82.75 19.21 82.87 19.33 82.75 19.45 82.75 19.21"/>
      <polygon class="cls-1" points="82.75 19.68 82.87 19.8 82.75 19.91 82.75 19.68"/>
      <polygon class="cls-1" points="98.95 89.68 99.07 89.79 98.95 89.91 98.95 89.68"/>
      <polygon class="cls-1" points="87.91 91.32 88.03 91.44 87.91 91.55 87.91 91.32"/>
    </g>
  </g>
</svg>