<?xml version="1.0" encoding="UTF-8"?>
<svg id="Layer_3" data-name="Layer 3" xmlns="http://www.w3.org/2000/svg" viewBox="0 0 91.88 109.18">
  <g id="Moons">
    <g id="Layer_4_Image" data-name="Layer 4 Image">
      <g>
        <path d="M77.99,89.46c-.09.06-.37.08-.6.23-.32.21-.71.86-.96.97s.06-.6-.35-.48c-1.01,1.97,2.34-.99,1.68.6-.08.2-.83.38-1.04.59-3.51,3.43-6.11,4.32-10.38,6.56-.17.09-1.34,1.1-1.43,1.13-.18.05-.42-.13-.56-.13-.4,0,.07.31,0,.36-.21.14-.69-.22-.85-.22-.12,0-1.15.5-1.86.72-2.75.86-5.61,1.72-8.85,2.31-.28.05-1.99.02-2.21.09-.19.06-.08,1.04-.47-.02-.13.15-.27.33-.48.36-2.89.42-5.83.69-8.64.83-.1,0-.09-.47-.23-.48-3.65-.21-6.3-.25-9.98-1.2-.19-.05-.19-.44-.35-.47-.35-.05-.72.21-.93.18-.22-.03-.22-.51-.53-.65-.35-.15-1.96-.29-2.32-.47-.09-.04-.74-.68-1.27-.94-1.9-.94-2.96-1.23-4.42-2.82-.06-.07-.55.35-.18-.32-.92.48-.78-.28-1.01-.4-.42-.21-1.45-.2-1.26-1.03-.72.66-.89-.66-1.38-1.12-2.96-2.82-7.06-4.75-9.78-8.1-.21-.26-.52-1.61-1.18-1.8-.34.81.4.94.46,1.11,7.95,23.37,31.24,27.15,52.44,19.59,7.4-2.64,14.81-6.72,20.96-11.6-.47,2.05-2.82,3.51-4.5,4.61-12.53,8.21-32.57,14.79-47.02,10.28-2.41-.75-7.18-2.71-9.33-4.2-.38-.26-.42-1.18-1.52-.88l.47-.6-1.61-.7c-.47-.97-2.04-1.62-2.57-2.3-.33-.43-.29-1.04-.39-1.17-.03-.03-.6.24-.87-.07-.43-.51-1.16-1.95-1.62-2.57-3.17-4.26-6.24-9.6-6.82-14.98,0-.08-.34.16-.47-.02-.57-.81-1.53-4.17-1.87-5.28C-4.85,52.74,7.1,25.14,25.11,11.54,39.23.87,63.14-5.88,77.76,7.19c.3.27,1.7,1.48,1.78,1.57.32.39.27,1,.39,1.16.03.03.36-.19.55.03,2.71,3.06,4.48,6.44,6.17,10.14.35.76,1.58,2.87,1.99,4.23,1.05,3.46,1.19,7.77,2.35,11.3l-.07.67c-.6-1.87-.81-3.86-1.32-5.74-1.69-6.18-2.94-7.55-7.56-11.85-.45-.41-1.32-1.66-1.72-1.98-.72-.56-1.92-.12-1.49-1.26-.82.91-.43.21-.77,0-.57-.37-1.19-.69-1.74-1.08.65,1.23,2.09,1.89,3.02,2.84,3.16,3.24,6.42,8.07,8.28,12.13,1.19,2.6,1.95,5.36,2.88,8.07,1.19.75.23-.22.89-.65-.2.49.57,2.76.48,2.87-.67.8-.42-.92-.48-.95-.13-.07-.44.18-.6.14-.73-.21-3.22-3.95-4.13-4.69-.57-.46-2.03-1.28-2.76-1.72-.82-.49-2.25-.95-2.92-1.38-.19-.13.2-.33,0-.49-.97.81-1.51-.41-1.6-.44-.3-.11-1.11.71-.79-.28-.78.26-1.82-.54-2.7-.67-.84-.13-1.74-.06-2.59-.07-1.53,0-4.62.39-6.17.73-.24.05.03.74-.88.24.44.64-.69.25-1.48.54-8.79,3.24-17.5,13.62-20.59,22.29-4.44,12.47-2.75,31.9,10.73,37.97,1.1.49,2.62.75,3.55,1.22.22.11-.24.35,0,.49.63-.81,1.98.05,2.91.14,4.33.45,8.73-1.7,12.6-3.5.22-.1.17-.88.65-.35-.49.58-1.07,1.02-1.65,1.49-.31.25-.69.08-.71.11-.07.1.03.45-.09.6s-1.01.47-.65.8c.3.28,6.48-3.32,7.36-3.7.07-.03,0-.39.18-.38,1.41.04-.59,1.34-1.08,1.68.4-.4,1,.26.48.72-.44.39-.66-.54-.48-.72ZM53.61,1.29c-.09-.09.07-.47-.15-.43-2.28.95-4.88.88-7.55,1.54-1.64.4-3.5,1.48-5.14,1.34.34.61-1.36.85-2.03,1.12-.45.18-.47.89-1.08.07.12.93-1.21.81-1.92,1.19-1.09.59-2.3,1.43-3.28,1.88-.23.1-.6-.28-.66-.2-.05.06.13.55-.14.75-.2.14-.7.14-1.03.36-7.19,4.69-13.57,10.38-18.47,17.69-.96,1.43-2.22,3.56-3.06,5.08-2.19,3.99-4.21,8.34-5.31,12.77l3.46-7.67C16.95,18.25,35.8,4.44,57.97,7.11c6.37.77,18.85,5.79,23.85,9.9,1.63,1.34,2.97,3.03,4.54,4.43-.63-1.32-1.16-2.72-1.85-4.01-.89-1.67-3.05-5.1-4.12-6.36-3.26-3.85-7.28-5.91-11.33-8.15-.37-.2-.81.53-.66-.64-.4-.11-.14.43-.35.48-.66.16-.55-.34-.66-.4-.9-.42-4.06-.94-5.41-1.16-.91-.14-1.03-.34-1.09-.34-1.86.02-3.88-.04-5.77.02-.38.01-1.46.44-1.52.38ZM54.17,7.32v.24l.12-.12-.12-.12ZM47.83,8.04s.37-.34.12-.47c-1.48,1.53,0,.85.46.96,3.53.78,9.5,1.28,13.49,1.84,1.56.22,3.26.03,4.84.31-.12-.34-.94-.63-1.27-.76-1.65-.67-2.75-.65-4.31-.91-.05,0-.75-.69-.8-.7-1.98-.26-2.44.09-4.52-.74-.18-.07-.05.45-.27.49-.54.11-2.75-.4-3.65-.4-.56,0-3.94.52-4.1.39ZM47.11,8.52s.02-.68,0-.72c-.05-.07-1.12.85-1.67.48-.02.63,1.61.3,1.68.24ZM44.72,8.76s.09-.51-.12-.48c-.65.37-.16.75.12.48ZM45.08,8.28v.24l.12-.12-.12-.12ZM43.16,8.52v.24l.12-.12-.12-.12ZM45.8,9.24v.24l.12-.12-.12-.12ZM44.24,9.48c-1.09.36-2.61-.05-3.47.72-.39-1.03-.29-.14-.39-.05-.07.06-.38-.15-.51-.09-2.41,1.01-5,1.56-7.36,2.44-.32.12-1.19.87-1.19,1.29-.36.15-.16-.72-.47-.47-.04.03-.26.66-.55.85-.92.62-2.62,1.18-3.47,1.71-1.67,1.04-3.76,3.25-5.2,4.63-.2.19-.57-.02-.72.23s-.09.69-.13.73c-.09.1-.66-.31-.71-.25-.04.05.08.45-.06.64s-.62.34-.91.67c-.67.74-1.32,1.62-1.99,2.42-1.36,1.66-3.09,3.55-4.19,5.27-.23.35-.23,1.02-.27,1.06-.02.02-.45-.27-.47-.24-.06.06-.31,1.12-.55,1.51-2.88,4.66-4.95,9.49-6.85,14.26-1.12,2.82-2.56,9.81-2.54,12.85,0,.07.17,1.32.24,1.31.7-.06-.4-1.55.6-1.06-.22-.68-.19-1.87-.09-2.55C6.04,35.49,20.79,16.08,42.38,10.12c.51-.14,1.99.22,1.86-.65ZM45.2,9.48c-.34-.17-.64.15-.48.23.34.17.64-.15.48-.23ZM54.05,10.44c-.93.41-1.41-.3-2.15-.39-1.27-.16-4.71.06-5.6.23-1.31.26-2.61,1.04-3.98.64-.03.02.26.46.24.47-.09.06-1.66.2-2.16.34-3.83,1.15-6.95,2.64-9.98,4.45-2.68,1.6-5.56,3.35-7.76,5.37-.62.57-.85,1.04-1.18,1.57-.03.05-.31-.41-.87.3-1.26,1.58-3.56,3.88-5.1,5.87-3.7,4.78-6.35,11-8.81,16.46-.13.44-.65,3.58-.78,3.72-.02.02-.46-.27-.47-.24-.08.12.05,1.15-.02,1.54-.48,2.73-1.37,5.47-1.73,8.32-1.04,8.24-.44,12.07,2.84,19.58.13.31.62.51.7.72.11.29-.22.7-.08.93.05.09.57.18.8.52,1.26,1.85,2.22,4.09,3.72,5.86,1.82,2.14,7.15,6.08,9.75,7.01.21.08.84.24.78-.18-.31-.22-2.07-1.61-2.1-1.74-.07-.26.17-.44.17-.54,0-.14-.38.06-.58-.1-6.7-5.37-8.94-20.54-8.61-28.64.94-23.59,13.34-44.21,36.82-50.44,1.44-.38,4.55-.63,5.56-1.03.24-.1.53-.34.59-.6ZM55.61,9.96v.24l.12-.12-.12-.12ZM57.64,10.44c-.34-.17-.64.15-.48.23.34.17.64-.15.48-.23ZM67.34,10.43v.24l.12-.12-.12-.12ZM63.78,11.98c-1.33-.5-3.52-.73-4.94-.82-.1.41.34.15.43.27.06.07-.2.38-.17.42.12.16,1.59.53,1.96.75,2.29,1.41,6.26,4.85,7.96,6.93.36.44.81,1.69,1.23,1.94,1.01.59,2.57.16,3.66.33,1.25.19,2.86.68,4.07,1.1.46-1.23-1.15-1.44-1.44-1.77-2.36-2.65-3.88-4.22-6.94-5.81-.76-.4-.95-1.4-2.51-1.88-.27-.08-.86.07-1.17-.1s-.09-.66-.16-.74c-.04-.05-.49.29-.79.21-.16-.04-1.05-.76-1.21-.82ZM58.52,12.19c-1.65-.71-3.7-.98-5.31-.09.11-1.35-.44,0-.51,0-.76.19-2.16.15-3.15.41-1.65.43-3.37.95-5.02,1.43-.31.09-.27.53-.41.53-.47,0-.97-.71-.73.27h-1.68c-.1.87-2.19,1.29-3.2,1.81-.3.16-.53.55-.91.77-.58.34-1.43,0-1.14.76-1-.54-1.97,1.3-2.59,1.53-.46.16-.74-.08-.78-.07-.1.02.12.34-.02.47-.5.47-1.67.69-1.72.77-.22.34.3,1.02-.64.43.16.97-.85,1.26-1.56,1.75-4,2.75-9.57,10.77-11.76,15.6-6.94,15.24-8.99,41.22,4.71,53.77,4.07,3.73,5.94,3.04,10.89,4.15.28.06.66-.13.71-.08.07.06-1.16,1.68.36,0,.68-.21-.28,1.44.59.72.14-.11-.39-1,.72-.72-.76,1.59.45.79,1.05.97.22.07.13.44.15.47.12.09.37-.36.63-.4,1.74-.29,5.7.29,7.87.18.7-.04,5.42-.53,5.62-.73.1-.1-.33-.45-.49-.55-.21-.14-3.02-1.82-3.13-1.98-1.3-1.92-3.29-3.58-4.75-5.77-.33-.5-.71-1.37-1.15-2.17-6.62-12-7.88-25.06-2.43-37.95.13-.3.6-1.57.7-1.71.23-.33.05.33.33-.45.47-1.28,1.52-2.37,2.28-3.48,5.14-7.6,14.09-18.22,23.35-20.52,1.09-.27,2.37-.23,3.39-.39s-.09-1.22-.54-1.75c-.11-.13-.04-.47-.15-.56-.19-.16-.58,0-.66-.06-.02-.01.22-.34.17-.42-.44-.68-2.12-1.72-2.82-2.32-1.63-1.41-4.35-3.77-6.29-4.6ZM68.37,11.69c-.36-.07-.89.11-1.36.06-.54-.05-1.27-.88-1.7.12,1.14.19,2.61.89,3.64,1.46,4.96,2.76,8.48,7.44,12.52,11.23,2.2,2.07,2.61,2.61,4.19,5.13.12.19.22,0,.36-.09-.81,1.36-.77-.05-1.07-.38-.56-.62-1.5-1.31-2.05-2.02-.26.72.81,1.54,1.18,2.18.32.55.68,1.65,1.13,2.21.27.35,2.76,2.78,2.96,2.78.39.01.23-.44.19-.65-.19-.93-1.01-2.06-1.39-2.93-2.29-5.33-6.06-11.29-10.48-14.78-.48-.37-2.88-1.68-2.99-1.81-.13-.16,0-.54-.07-.64-.02-.03-.46.17-.82.01-1.48-.61-2.68-1.6-4.24-1.88ZM58.96,12.11v.24l.12-.12-.12-.12ZM75.72,13.55v.24l.12-.12-.12-.12ZM71.65,15.94v.24l.12-.12-.12-.12ZM26.88,17.86v.24l.12-.12-.12-.12ZM51.9,32.46c.27.25,5.39-3.76,6.25-3.92,3.51-1.8,7.12-3.12,11.09-3.27.39-.02,2.76.5,2.76-.11,0-.11-1.12-1.83-1.2-1.91-.71-.66-1.73-.25-2.52-.24-1.28.02-3.37.46-4.77.96-4.41,1.59-7.78,4.88-11.13,7.68-.14.12-.53.76-.48.81ZM71.79,23.1s-.09-1.1-.26-.09c.83.54,1.09,2.26,1.82,2.73.85.55,3.13,1.16,4.21,1.71.29.14.33.57.73.77,1.53.74,3.4,1.33,4.97,2.1l-3-5.01c-1.15-1.23-1.39-.84-2.57-1.22-.34-.11-2.2-1.11-2.72-1.17-.62-.08-2.89.27-3.18.19ZM70.33,26s-.28-.03-.24.24c-.42.04-2.06.29-2.13.21-.02-.02-.05-.74-.26-.45-.04.05.09.44-.16.49-.33.07-2.37-.06-2.72.23-.14.12.16.65.36.72.09.03.28-1.07,1.32.24-.48.3-.91-.14-1.2-.1-.55.09-1.1.81-1.79.34.31.98-.65.11-1.32.24-.07-.48.62.04.48-.59-.04-.2-.63-.17-.72-.12-.11.06.77,1.83-1.33,1.2-.1.12.09.38.05.42-.12.12-.26.03-.4.05-.03,0,.16-.09-.24,0-4.49,1.03-12.43,8.05-14.95,11.99-.28.44-.23.57-.7,1.2-.32.43.14.96-.62.45.22.99-.34,1.09-.55,1.5-3.8,7.6-6.18,16.43-5.77,24.95.29,5.92,1.97,12.3,6.44,16.42-1.58-3.08-2.97-6.39-3.62-9.82-3.03-16.06,6.41-39.86,22.5-45.77,3.36-1.24,7.1-2.06,10.68-2.12-1.17-1.31-3.52.1-4.67-.95l-.12.72-.24-.72c-.66,1.42-1.58.14-1.19-.24.27-.26,4.66.76,3.35-.72-.02-.02.03-.25-.12-.23s-.11.23-.12.23ZM71.05,26.24c-.47.43,1.48,1.3,1.43.6-.02-.23-1.3-.71-1.43-.6ZM74.45,27.39c-.17-.21.17-.74-.28-.66.04.26-.07,1.13,0,1.2s.94-.04,1.2,0c-.05-.51-.77-.35-.91-.53ZM64.59,26.96c-.18-.14-.84.22-1.09.33-.19.08-.52-.29-.35.39.43-.15.71-.25,1.17-.33.35-.07.84.08.26-.38ZM83.38,30.55v.24l.12-.12-.12-.12ZM51.54,32.47v.24l.12-.12-.12-.12ZM51.3,32.95v.24l.12-.12-.12-.12ZM51.78,39.65v.24l.12-.12-.12-.12ZM43.52,41.81c.17-.34-.15-.64-.23-.48-.17.34.15.64.23.48ZM3.31,45.64c.1.12.67-.47.47-.72-.1-.12-.67.47-.47.72ZM41.01,45.4v.24l.12-.12-.12-.12ZM3.07,46.12s-.36.98-.36,1.19c.69-.23.68-1.54.36-1.19ZM2.71,47.79v.24l.12-.12-.12-.12ZM39.57,48.52c-.54.36-.3.69,0,.23.08-.12.19-.13,0-.23ZM38.37,50.67v.24l.12-.12-.12-.12ZM37.18,55.22v.24l.12-.12-.12-.12ZM37.42,57.85v.24l.12-.12-.12-.12ZM2.58,61.68c.17-.34-.15-.64-.23-.48-.17.34.15.64.23.48ZM36.7,61.44v.24l.12-.12-.12-.12ZM41.13,65.76s-.51-.09-.48.12c.37.65.75.16.48-.12ZM41.13,67.19c.27-.28-.1-.77-.48-.12-.03.21.46.13.48.12ZM1.51,67.43v.24l.12-.12-.12-.12ZM41.12,69.11c-.05-.27.08-.77,0-.96-.11-.24-.82.85,0,.96ZM43.14,79.35c-1.07-2.89-1.58-5.98-2.12-9.02-.06-.34.1-.65.1-.98-.41,0-.46.77-.45,1.05.14,5.43,2.21,12.25,5.48,16.55,1.84,2.42,4.56,3.77,7.42,4.68.14-.7-.23-.38-.53-.54-1.74-.93-1.88-.8-3.1-2.28-.03-.03-.47.11-.71-.12-2.63-2.38-4.96-6.31-6.09-9.33ZM1.99,70.78v.24l.12-.12-.12-.12ZM2.23,71.5v.24l.12-.12-.12-.12ZM2.71,74.62v.24l.12-.12-.12-.12ZM4.14,75.09v.24l.12-.12-.12-.12ZM5.22,79.64l-.48-.48c-.07.5-.02.55.48.48ZM5.46,80.84c.17-.34-.15-.64-.23-.48-.17.34.15.64.23.48ZM6.18,81.08s-.51-.09-.48.12c.37.65.75.16.48-.12ZM6.65,82.04c.17-.34-.15-.64-.23-.48-.17.34.15.64.23.48ZM7.37,83.47c.11-.24-.35-1.15-.71-1.2-.06.33.62,1.4.71,1.2ZM6.06,83v.24l.12-.12-.12-.12ZM7.97,84.19v.24l.12-.12-.12-.12ZM9.01,84.96c-.12-.09-.65-.16-.68.07l1.32,1.31c.03-.24-.58-1.34-.64-1.38ZM44.12,85.87v.24l.12-.12-.12-.12ZM42.8,86.11c-.14-.13-.63-.06-.47.35.04.1.83,1.44.95,1.62,1.37,2.06,6.35,7.39,8.63,8.2,1.98.7,3.31-.54,5.26-.6.07-.66-.03-.38-.36-.47-1.97-.57-3.82-.91-5.67-1.94-.61-.34-1.02-.96-1.84-1.39-1.55-.82-1.01-.77-1.77-1.41-.22-.19-.78-.11-1-.27-.09-.06-.74-1.04-1.17-1.39-.86-.71-1.42-1.17-2.22-1.97-.24-.24-.31-.7-.34-.73ZM10.13,86.59v.24l.12-.12-.12-.12ZM11.56,88.03v.24l.12-.12-.12-.12ZM71.27,92.08c.04-.07.11-.69-.1-.7l-2.03,1.19c.34,0,2.07-.39,2.14-.5ZM54.17,91.62c-.24.17.13.33.24.47.24-.16-.11-.32-.24-.47ZM54.89,91.86v.24l.12-.12-.12-.12ZM74.4,92.33c-.58-1.03-.38-.06-.81.27-.32.25-.89.05-.86.46.85.18,1.03-.55,1.67-.72ZM55.97,92.1c-.34-.17-.64.15-.48.23.34.17.64-.15.48-.23ZM58.13,92.58s-1.16-.29-1.2-.24c-.62.71,2,.95,1.2.24ZM56.09,92.58v.24l.12-.12-.12-.12ZM58.72,92.82v.24l.12-.12-.12-.12ZM59.68,93.06v.24l.12-.12-.12-.12ZM56.33,93.54c-.24.17.13.33.24.47.24-.16-.11-.32-.24-.47ZM71.89,93.54c-.54.36-.3.69,0,.23.08-.12.19-.13,0-.23ZM57.28,93.78c-.24.17.13.33.24.47.24-.16-.11-.32-.24-.47ZM69.73,93.77v.24l.12-.12-.12-.12ZM22.81,94.01v.24l.12-.12-.12-.12ZM69.14,94.02l-.72.12c.32.45.51.41.72-.12ZM21.44,94.81l-2.1-.32c1.01.18,1.72,1.35,2.57,1.91,5.11,3.33,11.92,5.52,18.01,5.52.1-.81-.2-.32-.45-.38-1.8-.41-3.68-.67-5.45-1.24-4.28-1.39-8.27-3.97-12.59-5.48ZM59.2,94.25v.24l.12-.12-.12-.12ZM59.68,94.25v.24l.12-.12-.12-.12ZM67.46,94.73c-.05,0-.42-.45-.48-.12-.1.44.02,1.22.48.84.06-.05-.05-.42,0-.48.06-.07.71.21.48-.72-.36-.11-.21.46-.48.48ZM70.81,94.73c.17-.34-.15-.64-.23-.48-.17.34.15.64.23.48ZM71.17,94.25v.24l.12-.12-.12-.12ZM60.64,94.49v.24l.12-.12-.12-.12ZM65.19,94.49v.24l.12-.12-.12-.12ZM68.3,94.49v.24l.12-.12-.12-.12ZM70.33,94.73c-.34-.17-.64.15-.48.23.34.17.64-.15.48-.23ZM66.38,94.97v.24l.12-.12-.12-.12ZM57.88,95.21c-.34-.17-.64.15-.48.23.34.17.64-.15.48-.23ZM58.12,98.8s-.37.6,0,.36c1.22-.1,8.11-2.89,8.14-3.59.03-.8-1.95.1-2.06.11-3.27.37-6.22,1.22-9.11,1.69-.06,0-1.57-.29-1.03.23.39.38,3.11.53,3.35,1.44-1.47-.11-3.35-1.06-4.68-1.2-2.28-.25-5.89.71-8.12.83-3.38.18-7.32-.06-10.23-.41-1.02-.12-2.05-.25-3.07-.41,1.27.98,3.61,1.68,5.22,2.08,5.6,1.39,14.72,2.05,20.16-.05.57-.22,1.14-1.36,1.43-1.08ZM69.61,95.21c-.5-.07-.55-.02-.48.48l.48-.48ZM68.9,95.45c-.66-.16-.34.23-.71.6l.71-.6ZM67.7,96.65s.17-.59.12-.71c-.57.28-.32.96-.12.71ZM32.39,96.41c-.15.21-.7.47-.48.71.13-.19.68-.45.48-.71ZM67.22,96.41c-.25-.2-.84.38-.72.47.25.2.84-.38.72-.47ZM66.15,96.89c-.54.36-.3.69,0,.23.08-.12.19-.13,0-.23ZM27.6,97.13v.24l.12-.12-.12-.12ZM30.47,97.61v.24l.12-.12-.12-.12ZM31.07,98.08c.17-.34-.15-.64-.23-.48-.17.34.15.64.23.48ZM64.95,97.61v.24l.12-.12-.12-.12ZM65.42,97.61v.24l.12-.12-.12-.12ZM40.65,102.15s.1-.71-.12-.72c-.71.4-.21,1.08.12.72ZM41.01,101.68v.24l.12-.12-.12-.12ZM42.08,101.68c-.5-.07-.55-.02-.48.48l.48-.48ZM43.4,101.92v.24l.12-.12-.12-.12Z"/>
        <path d="M67.46,94.97c-.22.1-.22-.34,0-.24.01,0,.01.23,0,.24Z"/>
        <path d="M60.04,29.11s.23-.01.24,0c.12.28-.36.28-.24,0Z"/>
        <path d="M70.33,26.24s-.02-.23,0-.24c.05-.02.23-.01.24,0,.11.2-.23.23-.24.24Z"/>
        <path d="M70.09,26.24c.08,0,.16.02.24,0-.09.08-.03.3-.24,0Z"/>
        <path d="M37.3,96.88l-.72-.12c.32-.45.51-.41.72.12Z"/>
        <polygon points="36.22 96.41 36.34 96.53 36.22 96.65 36.22 96.41"/>
        <path d="M86.61,31.03c-.46.32-.75-.36-.12-.71-.08.21.15.69.12.71Z"/>
        <polygon points="86.73 31.27 86.85 31.39 86.73 31.51 86.73 31.27"/>
        <polygon points="78.59 27.68 78.71 27.8 78.59 27.92 78.59 27.68"/>
      </g>
    </g>
  </g>
</svg>