<?xml version="1.0" encoding="UTF-8"?>
<svg id="Layer_3" data-name="Layer 3" xmlns="http://www.w3.org/2000/svg" viewBox="0 0 100 119.3">
  <defs>
    <style>
      .cls-1 {
        fill: #fff;
      }
    </style>
  </defs>
  <g id="Sketchy_Icons" data-name="Sketchy Icons">
    <g>
      <path class="cls-1" d="M35.81,117.17s.26.01.27,0c-.03,0,.22.15-.27,0Z"/>
      <path class="cls-1" d="M35.81,117.17c-1.96-.62-3.25-1.57-5.04-2.26-1.46-.57-.85-.6-.92-.63-.05-.02-.56.16-1.13-.22-.65-.43-1.03-1.02-1.51-1.42-.6-.5-1.26.22-.69-1.04l-.53.53c.09-.71-.59-.56-.87-.78-3.82-3.11-7.01-7.93-9.27-12.3-.49-.96-.67-1.94-1.32-2.79-.04-.05-.38.17-.63-.03-.9-.71-2.79-2.66-3.75-3.56-.37-.35-.63-1.13-.98-1.43-.15-.13-.59-.01-.67-.1-.16-.19.09-.81-.07-1-.1-.12-.71,0-.9-.29-.26-.39-.07-.56-.72-1.35-.51-.63-1.08-1.82-1.39-2.28-2.62-3.82-3.88-7.81-4.7-12.11C-4.19,48.16,16.13,20.83,37.86,9.19c13.23-7.09,29.22-13.57,43.25-5.34.72.42,1.74.24,1.65,1.61.43.11.13-.96.79-.52.05.03.27.71.63.95.33.22.81.18,1.05.35.77.58,1.41,1.52,2.04,2.04,2.55,2.08,5.05,6.16,6.61,9.04s2.86,5.72,3.94,9.02c.43,1.29,2.11,5.49,2.17,6.45,0,.09,0,.18,0,.27,0,.04-.24.21-.25.42-.02.52,0,2.54-.29,2.77-.13.1-.77-.82-1.06-.53-.67.69.97.99,1.04,1.21.31,1.01-.43.85-.5,1.11-.08.27.06.79,0,.87-.14.19-1.67-.75-1.86-.95-.29-.3-.16-1.11-.27-1.18-.22-.15-.75.24-.95.25-.13,0-.07-.53-.27-.52-.39.02-.7.64-.64-.26-1.19,1.1-1.01.08-1.18.05-2.7-.49-8.69.14-11.04.89-1.34.43-2.87,1.14-4.22,1.72.13-.31-.4-.31-.27,0-2.56,1.2-5.48,2.92-7.8,4.54-.31.22-.4.7-.45.73-.1.07-.7-.35-.76-.24-.06.1.09.51-.06.72-.14.2-1.6.68-1.76.91-1.03,1.47-3.19,3.2-4.72,4.84-.93.99-2.04,2.29-2.98,3.5-1.84,2.39-3.94,5.74-5,8.53-.68,1.79-1.45,3.7-1.14,5.63l-.52-.14c-.13,3.5-.74,7.07-.43,10.58.29,3.25,1.02,5.93,2.21,8.87.46,1.13-.03,2.13.07,2.18.16.07.57-.15.82.17.43.54.44,1.57.55,1.83.02.05.4-.13.45-.09.19.22.8,1.7.84,2.07.56.19.53-.08.8.8-.55.06-.15.71,0,.53-.04.14.03.36,0,.53-.2.18-.87-1.06-.92-1.31-.06-.3.14-.49.13-.54-.18-.06-.47.07-.78-.13-.61-.39-3.05-4.1-2.41-5.05-.89.27-.35-.12-.54-.76-.7-2.35-1.43-4-1.81-6.41-.55-3.55-.59-7.17-.03-10.72-.35-.07-.42.48-.46.73-.32,1.83-.74,3.65-.88,5.5-.45,6.38.49,12.32,4.04,17.74,1.54,2.35,6.25,7.6,8.97,8.3.55.14,1.15-.11,1.34-.02.3.13.45.78.8,1.04,3.39,2.45,8.8,3.03,12.82,3.36,1.01.08,2.07-.04,3.06-.15-1.34,1.32-2.64,2.68-3.97,4.01-.26.26-.63.17-.69.25-.06.07-.13.9-.42,1.12-.11.08-1.82.18-2.59.53-.71.33-1.35.98-1.89,1.23-4.13,1.96-9.28,3.56-14.03,4.4.11-.25-.38-.25-.27,0-3.3.54-7.16.87-9.94.79-2.15-.06-5.21-.46-7.22-.96-.25-.06-.64.24-.88.06-.29-.22-.12-.8-.52-.68.08,1.09-.46.25-.93.14-1-.22-1.43-.43-2.25-.67.13-.31-.4-.31-.27,0ZM18.84,32c-.12.13-.93.47-1.22.9-.52.77-.35,1.48-.45,1.7-.03.08-1.63,1.08-.19,1.11-.48-.52.49-.95.79-1.32-.31.97-.24,2.26-1.32,1.59l.26.79-1.05-.4c1.08.95-.07,2.75-.71,3.79-.36.59-.63,1.01-.86,1.59-1.84,4.58-3.07,9.78-3.48,14.79-.31,3.77-.24,10.31.59,14.01.08.37.33.88.74.99.29-3.39.85-6.83,1.67-10.14.31-1.28,1.27-5.24,1.77-6.17.19-.35.19.56.38-.48.61-3.38,3.16-7.17,4.27-10,.4-1.03,1.62-2.79,2.28-3.78.18-.27.73-.28.52-1,.96.58.22,0,.5-.67.64-1.52,2.96-4.01,4.01-5.36,7.31-9.4,15.94-16.7,27-21,1.49-.58,2.98-1.13,4.56-1.35l-.79-1.06c.47-.45,1.06,1.37,1.32,1.06.13-.16-.38-.6-.13-.79,1.23.75,2.77-.07,3.92-.19,3.42-.34,7.48-.43,10.84.34,1.66.38,3.32,1.07,4.81,1.49,4.1,1.15,10.41,7.88,12.8,11.35.09.14.2,1.01.65.53.05-.06-.46-1.41-.51-1.47-1.16-1.27-.43-.87-.87-1.66-.25-.44-1.36-.92-1.91-2.21-.52-1.22-.21-.24-.84-1-.29-.35-.77-1.21-.77-1.61-.82.62-.59-.1-.93-.41-1.8-1.61-2.07-2.61-4.37-3.83-.15-.08-1.28-1.72-2.06-2.07-.37-.17-.85,0-1-.07-.03-.02.31-.45.02-.66-.64-.46-3.18-1.11-3.62-1.72-.1-.15.04-.9.54-.8.31.06,1.63.72,2.01.92,1.68.91,4.16,2.66,5.05,4.1.02.03.37-.15.53-.09.19.07,2.66,2.34,2.76,2.5.41.69-.34,1.42.91.81.89,1.57,2.24,2.82,3.27,4.29,1.14,1.63,1.8,3.28,2.6,4.51,1.52,2.32,2.03,4.38,3.3,6.83.53,1.03,1.15,2.12,2.52,1.73-.52-1.32-1.1-2.65-1.48-4.02-.47-1.67-.6-3-1.32-4.58-1.35-2.95-3.76-8.08-5.42-10.17-.28-.35-1.27-1.01-1.42-1.26-.16-.26-.04-.9-.19-1.04-.03-.03-.36.24-.63-.01-.54-.52-1.99-2.73-2.62-3.13-.48-.3-1.03.36-.45-.86-1.42.44-1.06-.83-1.37-1.03-.19-.12-.63.03-.94-.11-.09-.04-.16-.42-.41-.55-.42-.23-1.39-.44-1.61-.68-.54-.58.43-1.03-1.24-.56-.04-.05.29-.5.27-.52-.4-.37-2.74-.32-2.66-1.33l-.52.53c.11-1.26-.11-.57-1.06-.53l.53-.53c-.51.04-1.76.12-2.22-.03-1.45-.47-2.28-.56-4.02-.77-1.96-.23-3.87-.37-5.83-.53l.13.53c-.07.09-1.98-.29-2.24-.26-.08,0-.08.23-1.19.35-2.01.22-4.99,1.03-6.98,1.6-.53.15-1.58.45-1.79.97,3.33-.21,7.66-1.15,11-.52.38.07.85.58.93.52.03-.03-.04-.36.06-.46.39-.36,7.39,1.48,8.48,1.87.49.18,2.35.9,2.61,1.11.81.68-.59,1.25-1.66.66-.31-.17-.34-.7-.62-.76-.26-.05-.7.32-.87.21-.11-.07-.15-.62-.44-.78-.25-.14.06.67-.39.53-.06-1.15-.8-.51-1.01-.61-.06-.03-.01-.36-.22-.42s-.8.18-1.29-.29v.53c-.78-.99-1.99-.54-2.88-.79-.33-.09,0-.66-.44-.53.14.93-.48.21-1.2.12-1.68-.22-2.79.27-4.51-.39-.23-.09-.07.54-.24.52-.67-.1-1.41-.92-1.6-.03-.62-.42-1.92.13-2.38.04-.32-.06.03-.66-.42-.53-.23,1.19-2.67.78-3.49.96-4.16.91-8.28,2.62-11.45,4.65-4.58,2.93-8.28,5.97-12.11,9.91-1.98,2.04-9.58,10.16-9.29,12.34.01.07.01.25,0,.27ZM51.6,3.87v.27c.17-.09.17-.18,0-.27ZM79.71,9.44v.27c.17-.09.17-.18,0-.27ZM68.38,11.1c-.13-.07-2.46.29-3,.32-.99.06-1.88-.57-2.65.68-.26-.37.04-.67-.66-.53.57,1.4-1.34.34-1.72.37-.3.02-.56.5-.9.55-1.7.26-5.57,1.13-6.79,1.8-.87.48-1.49,1.74-2.79.99-.01.21.08.6-.05.74-.09.1-2.01.85-2.48,1.12-3.93,2.19-8.59,5.61-11.86,8.76-4.15,4.01-7.8,8.33-10.81,12.87-4.66,7.05-7.77,13.94-9.89,22.21-1.55,6.08-3.27,12.8-1,18.93.52,1.41,1.51,2.84,2.13,4.04.32.63,2.2,4.65,2.42,4.81.05.04.47-.28.5-.25.06.07.4,1.1.82,1.65,1.89,2.47,3.98,4.09,6.33,5.93,1.5,1.18,1.31,1.32,3.02,2.06.7.3,2.61,1.23,1.24,1.77.15-1.2-.25-.55-.53-.71-1.01-.58-4.51-2.25-4.98-2.95-.29-.43.38-.81-.86-.32l.27-.53c-.87.21-.78-.42-1.21-.79-2.17-1.91-3.79-3.62-5.34-5.78-.93-1.3-1.59-2.35-2.31-3.51-.58-.93-1.76-3.22-2.16-4.24-.13-.33-.09-1.02-.13-1.06-.08-.11-.54-.25-.46.35.54,4.33.73,9.79,2.62,13.81,1,2.12,2.53,3.59,4.54,4.76,9.58,5.56,24.73,8.09,35.55,5.99.38-.07,2.05-.26,2.03-.62-1.58-1.03-3.27-2.81-3.71-4.64l-.52.53c.01-1.23-1.03-2.04-1.55-3.1-1.2-2.47-2.46-5.76-2.94-8.46-.68-3.83-.29-8.38-1.32-11.65-.09-.28-.06-5.31-.03-5.84.95-15.35,9.79-28.67,22.83-35.79,3.78-2.06,8.64-3.9,12.88-4.64,3.73-.65,7.82-.69,11.49.23-.32-.41-.35-1-.55-1.38-1.41-2.63-2.65-4.56-4.49-7.03-.4-.54.05-1.14-.79-.61.55-1.25-.46-.91-.99-1.42-.1-.09-.65-1.46-.76-1.53-.24-.16-.68.03-.84-.06-.74-.45-1.07-1.46-1.39-2.04-.02-.04-.52.33-.79.16-.23-.15-.37-.71-.66-.97-.95-.84-2.36-1.27-3.19-1.82-.29-.19-.5-.59-.8-.81-.22-.07.37.83-.26.52-2.04-1-4.03-1.87-6.11-2.65-.17.97-1.49.12-2.42.05-1.17-.1-1.03.24-2.01-.25ZM35.15,11.83v.27c.17-.09.17-.18,0-.27ZM7.97,61.18l.8-5.57.52.14c-.92-1.13.49-1.41.55-1.6.2-.66-.04-.75-.54-.39.16-.49.14-1.23.29-1.65.88-2.53,1.56-5.31,2.39-8.02,3.41-11.1,10.28-21.04,18.84-28.63.26-.23,4.12-2.96,3.68-3.35l-1.45.79c-2.2,1.48-4.17,3.29-6.31,4.79-.18.13-.2.48-.23.49-.16.06-.68-.35-.76-.23-.05.06.05.54-.27.92-.7.83-3.55,3.06-4.46,3.62-.05.03.25.48-.15.78-.28.21-.81.18-.98.42-.44.66.25,1.45-1.3,1.16.04.12.21.31.2.39-.03.16-1.55,2.16-1.86,2.45-.26.25-.82.22-.94.39-.13.2,0,.67-.19,1-.4.67-2.34,2.43-2.9,3.21-.38.52-.55,1.25-.82,1.6-.21.27-.62-.04-.64,0-.06.09-.75,1.62-.88,1.93s.09.68.06.7c-.15.08-.64-.09-.75.04s.05.63-.11.96c-.52,1.01-2.21,2.92-2.64,3.86-.34.74.12,1.43-.72,1.12.17,1.17-1.2,2.92-1.73,4.15-.19.43-.31.68-.48,1.1-.3.72-.32,1.64-.71,2.41-.09.18-.47.19-.49.22-.04.12.26.62.18,1.09-.07.41-.51.83-.63,1.26-1.46,5.32-2.47,12.17-1.87,17.52.1.89.84,1.88.15,2.78,1.22-.41.44,2,.56,2.38.07.23.6.19.72.56.14.42-.04.99.1,1.49.19.68.9,1.12.47,2.06.96-.57.27-.02.43.53.81,2.86,4.06,7.62,6.09,10.06l4.49,4.53c.34-.15-.01-.71-.13-.94-.59-1.22-1.33-2.23-1.87-3.57.4.53.81.05.53-.27.05.05.3-.08.37,0,.18.22.17.81.43.4-.43-1.76-1.05-3.64-.54-5.43l-.53.53c.01-1.17-.04-2.36-.12-3.53-.39-5.3-1.26-9.13-1.84-14.13-.31-2.72.17-7.42-.21-9.28-.02-.08-.53-.22-.44-1.33,0-.06,1.27-.75.09-.92-.68.57-.09,1.97-.14,2.5-.01.16-.4.14-.44.22-.37.75-.3,4.87-.4,6.36-.03.41-.41.88-.45,1.43-.11,1.49.59,3.35-.29,4.75l.52-.14c.17,3.25.35,7.03,1.17,10.16.39,1.48,1.3,3.14,1.65,4.7.1.47-.17.99-.14,1.03.06.09.64.11.98.75.28.51.16,1.78.31,1.93-.02-.02-.44-.03-.53,0-1.14-2.06-2.91-6.84-3.3-9.17-.1-.62.03-1.6.12-2.24l-.52.14c.21-1.52-.59-3.33-.01-4.79l-.52.14.26-3.06h-.53c.34-2.14.27-4.36.43-6.53.05-.76.18-2.25.37-2.88.02-.07.22-.12,0-.27ZM78.12,12.89v.27c.17-.09.17-.18,0-.27ZM85.01,13.42v.27c.17-.09.17-.18,0-.27ZM90.05,19.26v.27c.17-.09.17-.18,0-.27ZM94.83,20.06v.27c.17-.09.17-.18,0-.27ZM41.78,20.32v.27c.17-.09.17-.18,0-.27ZM22.16,21.12v.27c.17-.09.17-.18,0-.27ZM93.28,25.96c.05.08-.38.63.08.34l.26-.27-1.05-1.72c-.39,1.25.44,1.24.71,1.65ZM92.17,25.63v.27c.17-.09.17-.18,0-.27ZM94.56,28.55v.27c.17-.09.17-.18,0-.27ZM74.54,35.18c.25-.23,2.04-.07,2.4-.16,5.09-1.37,10.15-4,15.66-2.93.3.06,1.01.32,1.04-.23,0-.11-1.89-.18-1.99-.93-.33,1.04-2.07.27-3.19.25-1.26-.02-6.08.28-7.09.6-.4.13-.7.71-.86.71-.18,0-.48-.6-.66-.5-.03.02.12.4-.33.61-.88.41-2.92.75-4.07,1.21-1.12.45-1.99,1-2.77,1.47-.17.1-2.89,1.02-2.38,1.48.23.21.94-.52,1.3-.64.43-.15,1.64-.23,2.15-.29.37-.04.07-.14,0-.39l.79.79c-.41.2-1.46-.05-1.69.02-.08.02-.98.67-1.17.76-.54.25-2.32,1.2-2.64,1.29-.63.19-1.69-.53-1.66,1.12l-.52-.53c-.25.27-.75,1.52-.82,1.57-.03.02-.36-.18-.59-.13-1.47.3-.88.72-1.24,1.07-.26.25-1.87,1.69-1.99,1.74-.62.26-.18-.64-.66-.53.58,1.21-.11.98-.18,1.12-.05.11.16.33.1.41-.81,1.04-1.18.54-1.24.6-1.57,1.7-4.46,6.51-5.54,8.66-2.47,4.92-3.17,8.28-4.29,13.44-.04.2-.42.18-.46.24-.12.17.53,1.47.72.33.48-2.89,2.58-6.58,4-9.22,4.66-8.67,10.23-15.7,18.63-21.33.6-.4,1.57-.04,1.78-1.02.01-.07-1.02-.2-.53-.66ZM92.44,32.53v.27c.17-.09.17-.18,0-.27ZM89.65,33.33c-.48-.39-.5.11-.39.52l-1.73-.26c.3,1.24,1.26,1.17-.41,1.32.25-.77-.11-.64-.79-.26-.25-.19.27-.64.13-.79-.03-.03-.79.09-.79.13,0,.14.38.6.25.93-.45.11-.17-.38-.29-.48-.06-.04-.91.3-1.29-.32.11,1.34-.19.55-.9.62-1.09.1-1.19.22-2.43.19-.12,0,.15.67-.28.76-4.27.94-8.35,4.06-11.59,6.84-.67.58-2.1,1.44-2.75,2.04-1.86,1.73-3.46,3.81-5.13,5.73l7.36-6.62c4.53-3.5,11.87-7.33,17.5-8.17,1.36-.2,2.84.55,2.46-1.12l.26.8.66-.79c.6.95,1.21.46,1.82.57,1.67.31,3.36.47,4.94,1.02-.16-1.73-1.34-1.85-2.82-2.08-1.07-.17-2.72.02-3.69-.08-.21-.02-.07-.45-.12-.49ZM87.13,33.86v.27c.17-.09.17-.18,0-.27ZM69.76,36.51l-1.58,1.2c.92.09,1.69-.03,1.58-1.2ZM15.66,37.57c.19-.37-.17-.71-.26-.53-.19.37.17.71.26.53ZM67.37,38.1c-.37-.19-.71.17-.53.26.37.19.71-.17.53-.26ZM14.73,38.9v.27c.17-.09.17-.18,0-.27ZM71.09,39.43c-.37-.19-.71.17-.53.26.37.19.71-.17.53-.26ZM64.86,39.69v.27c.17-.09.17-.18,0-.27ZM63.4,41.29c-.37-.19-.71.17-.53.26.37.19.71-.17.53-.26ZM62.2,42.08v.27c.17-.09.17-.18,0-.27ZM67.77,42.08v.27c.17-.09.17-.18,0-.27ZM61.01,43.67c.19-.37-.17-.71-.26-.53-.19.37.17.71.26.53ZM60.08,44.2v.27c.17-.09.17-.18,0-.27ZM65.12,44.47v.27c.17-.09.17-.18,0-.27ZM59.02,45.53s-.39.36-.4.4c0,.37.76-.4.4-.4ZM58.23,46.33s-.39.36-.4.4c0,.37.76-.4.4-.4ZM57.7,47.12v.27c.17-.09.17-.18,0-.27ZM57.16,47.39v.27c.17-.09.17-.18,0-.27ZM57.3,47.92c-.51-.11-.64.26-.9.55-.48.53-1.32,1.66-1.71,2.27-3.26,5.14-6.21,13.49-6.26,19.59,0,.79.25,1.69.12,2.52.82-.26.27-1.39.34-1.91.89-7.2,2.77-14.19,6.52-20.27.59-.96,1.11-1.92,1.9-2.75ZM61.27,51.1c.3-.31-.11-.85-.53-.13-.03.23.51.15.53.13ZM59.42,52.69c.12.13,1.38-1.06,1.06-1.59-.45-.02-.18.51-.53.92-.08.09-.98.19-.52.67ZM59.15,53.23h-.53c-.05,1.64.18,1.26.53,0ZM57.96,54.82v.27c.17-.09.17-.18,0-.27ZM51.33,67.55v.27c.17-.09.17-.18,0-.27ZM49.87,68.88c.58-.22.63-.44.13-.79l-.13.79ZM51.46,69.14c.19-.37-.17-.71-.26-.53-.19.37.17.71.26.53ZM50.67,69.41c-.03.06-.19.65-.14.79.69-.36.28-1.07.14-.79ZM50.53,70.47v.27c.17-.09.17-.18,0-.27ZM50.4,71.27c-.03.06-.19.65-.14.79.69-.36.28-1.07.14-.79ZM11.81,72.06v.27c.17-.09.17-.18,0-.27ZM50.4,73.39l-.13-.79c-.5.35-.45.57.13.79ZM48.81,73.13c-.29-.29-.82.24-.53.53s.82-.24.53-.53ZM12.08,73.39v.27c.17-.09.17-.18,0-.27ZM50.13,74.45c.19-.37-.17-.71-.26-.53-.19.37.17.71.26.53ZM48.54,75.51c.07-.15.07-.99.14-1.32-.71.32-.32,1.71-.14,1.32ZM50,74.98v.27c.17-.09.17-.18,0-.27ZM48.41,76.04v.27c.17-.09.17-.18,0-.27ZM6.24,86.92v.27c.17-.09.17-.18,0-.27ZM52.63,95.05c-1.01-2.3-1.81-4.7-2.62-7.07-.6-.56-.38-.14-.3.3.86,4.69,2.9,8.83,5.61,12.7l2.77,2.66c.1-.83-1.31-1.58-1.53-1.91-1.19-1.78-2.96-4.45-3.94-6.67ZM13.14,90.64v.27c.17-.09.17-.18,0-.27ZM55.57,90.9v.27c.17-.09.17-.18,0-.27ZM56.37,91.96v.27c.17-.09.17-.18,0-.27ZM22.16,93.29v.27c.17-.09.17-.18,0-.27ZM55.04,97.27v.27c.17-.09.17-.18,0-.27ZM56.5,99.66c1.02,1.5,2.4,2.75,3.49,4.2.9-.17,2.63.32,1.37-.71-.42-.35-1.02-.42-1.33-.67-.88-.7-2.54-2.23-3.28-3.09-.31-.37-.58-1.45-1.06-1.06-.12.1.67,1.13.8,1.32ZM17.12,98.6v.27c.17-.09.17-.18,0-.27ZM18.97,99.13v.27c.17-.09.17-.18,0-.27ZM27.59,107.09c-.22.07-.23.5-.27.53-.21.17-.61-.84-.87-.98-.6-.31-1.2.28-1.25-1.14l-.66.52c.22-.82-.58-.63-1.03-1.05-.17-.16.05-.5-.02-.52-.04-.01-.31.21-.74,0-.29-.15-1.33-1.56-1.65-1.87l-.39.53c-.05-.25-.1-.7-.25-.88-.4-.48-1.81-1.55-2-1.79-.32-.4.22-.53-.73-.85-.3-.11-.63-.43-.48.21.08.33,2.04,3.45,2.4,3.97,10.28,14.87,28.31,17.1,44.87,12.27,1.97-.57,7.5-2.61,8.95-3.78.12-.1.36-.27.27-.39-.98-.13-2.09-.71-3.04-.53.31-1.23-.42-.14-.8-.1-.35.03-.78-.41-1.23-.31-.62.14-.65.77-.82.88-.08.05-.38-.21-.44-.15-.14.13.15.6-.3.48-.42-1.41-.69.11-.77.15-.16.09-1.55.37-2.04.5-.15.04-.47-.18-.59-.07-.14.13-.01,1.09-.44-.05-.8.9-2.09.64-3.13.85-.9.18-.9,1.06-1.12-.33-.42,1.14-.96.6-1.84.68-.7.06-1.13.09-1.87.12-1.49.07-3.58.36-5.02.26-.3-.02-.09-.55-.15-.8,3.64.19,9.28-.37,12.81-1.17.62-.14,4.86-1.31,5.07-1.46.31-.22.12-.52.15-.82-1.03.64-1.68-.36-2.06-.5-1.2-.47-3.06-.96-4.22-1.56-1.26-.66-2.85-2.39-4.19-2.39-2.56.02-5.04.73-7.82.74-.07,0-.22,0-.27,0-.4-.02-.62-.58-.27.26-.98-.58-4.06.16-4.65-.05-.21-.07-.03-.58-.26-.48-.13.06-.29.41-.56.46-.69.13-2.27-.33-2.94-.41-.88-.1-1.93.4-2.86-.58l.14.52c-.58.08-.57.02-.54-.53-.27,0-.39.41-.66.44-.57.06-3.92-1.05-4.76-1.28-2.34-.63-5.52-1.22-7.66-2.34-1.02-.54-2.48-.92-3.68-1.62-.4-.24-.56-.95-1.41-.77-.6.44.08.48.17.58.34.41.78.66,1.17,1,.94.83,2.12,2.09,3.23,2.94,1.19.91,2.8,1.34,3.51,2.64ZM20.03,101.25v.27c.17-.09.17-.18,0-.27ZM56.1,102.84v.27c.17-.09.17-.18,0-.27ZM58.49,103.64v.27c.17-.09.17-.18,0-.27ZM63.87,104.25c-.2-.11-1.83.16-2.06.32-.94.65.82,1.24,1.16,1.5,1.63,1.24,3.4,2.41,5.46,3.01,2.47.72,3.12-.13,5.31-.94.28-.26.22-.48-.32-.46-1.96.09-7.12-2.13-9.16-2.91-.31-.12-.33-.49-.39-.52ZM56.63,105.23v.27c.17-.09.17-.18,0-.27ZM60.35,105.23v.27c.17-.09.17-.18,0-.27ZM79.58,108.15c-.86-.17-1.67,0-2.5,0-.38,0-.78-.26-1.1-.25-.35.02-.56.38-.83.43-.28.06-.69-.26-.84-.17-.08.05-.18.56-.42.79-.28.27-.97.02-1.21.38,1.03.78,4.87.59,5.82-.01.37-.23.85-.79,1.07-1.18ZM32.76,115.31v.27c.17-.09.17-.18,0-.27Z"/>
      <path class="cls-1" d="M50.14,113.46c-.09,0-.18,0-.27,0,.12-.32.18-.38.27,0Z"/>
      <path class="cls-1" d="M78.25,38.9s.26.01.27,0c-.5.21-.24-.01-.27,0Z"/>
      <path class="cls-1" d="M27.59,107.09c.22-.07,2,.51,2.08.59.15.18-.01.64.05.74.03.04.49-.25,1-.1.59.17.87.65,1.32.83,5.68,2.21,11.67,3.95,17.83,4.32-.66,1.74-1.09.24-1.19.26-.48.13-1.35,1.25-1.07,0-1.15.47-1.89.08-2.91-.11-.5-.1-.77.55-.53-.41-.69.2-1.68.63-1.32-.27-.7.7-1.22-.12-1.64-.2-.59-.1-.99.69-.74-.33-.78.66-.52-.29-1.06-.31-.46-.01-.82.25-1.09.27-.07,0-.6-.7-1.04-.77-.29,1.06-.33.19-.92-.1-1.08-.52-3.66-1.05-4.51-1.67-.51-.37-.6-1.53-.93-.36-.41-.9-1.06-.47-1.29-.55s-.11-.38-.32-.44c-.07-.02-.34.22-.37.19-.08-.09.03-.72-.26-.94-.12-.09-.6.18-.82.04-.29-.19-.18-.54-.26-.68Z"/>
      <path class="cls-1" d="M49.61,106.29s.26-.01.27,0c.11.25-.38.25-.27,0Z"/>
      <path class="cls-1" d="M7.97,61.45c-.24.01-.38-.19,0-.27,0,.08.01.26,0,.27Z"/>
      <path class="cls-1" d="M11.68,90.11s-.55-.11,0-.27c.04.07-.04.21,0,.27Z"/>
      <path class="cls-1" d="M57.83,118.5s.26.01.27,0c-.19.03-.25,0-.27,0Z"/>
      <path class="cls-1" d="M58.36,94.88s-.02-.37,0-.53c.02.06.19.1.21.21.03.21-.19.27-.21.32Z"/>
      <path class="cls-1" d="M56.5,99.66l.27-.27-.27.27Z"/>
      <path class="cls-1" d="M18.84,31.73c.39-.44.79-.07.79.13,0,.16-1.42,2.72-2.11,2.13.3-.86.85-1.2,1.32-1.99.15-.25,0-.26,0-.27Z"/>
      <path class="cls-1" d="M59.68,96.47c-.23.26-1.14-.9-1.06-1.32.6-.21,1.34,1,1.06,1.32Z"/>
      <path class="cls-1" d="M60.21,97.27s-.56.1-.53-.13c.41-.72.83-.18.53.13Z"/>
      <path class="cls-1" d="M60.61,97c.17.09.17.18,0,.27v-.27Z"/>
      <path class="cls-1" d="M60.61,97.54c.17.09.17.18,0,.27v-.27Z"/>
      <path class="cls-1" d="M64.98,13.16c.08.05.93,1.36.94,1.58l-1.46-1.46c-.03-.22.46-.17.52-.13Z"/>
      <path class="cls-1" d="M32.1,99.66c.3.31-.11.85-.53.13-.03-.23.51-.15.53-.13Z"/>
      <polygon class="cls-1" points="70.29 17.94 70.96 19.26 69.76 18.07 70.29 17.94"/>
      <path class="cls-1" d="M71.09,19.53c.12-.26.51.53.4.79-.24-.19-.55-.47-.4-.79Z"/>
      <path class="cls-1" d="M67.9,15.55c.25.13-.52.51-.79.4.49-.32-.08-.37.12-.66.18.34.54.2.66.26Z"/>
      <path class="cls-1" d="M63,12.63c.17.09.17.18,0,.27v-.27Z"/>
      <path class="cls-1" d="M66.71,14.75c.17.09.17.18,0,.27v-.27Z"/>
      <path class="cls-1" d="M68.3,16.35s.39.36.4.4c0,.37-.76-.4-.4-.4Z"/>
      <path class="cls-1" d="M68.57,17.14c.17.09.17.18,0,.27v-.27Z"/>
      <path class="cls-1" d="M24.22,25.99c-.6.4-1.44,2.02-1.97,2.66-.39.47-.78,1-1.12,1.4-.38.45-1.09.91-1.49,1.42.82-2.27,2.9-3.97,4.24-5.98l.79.54c-.13.26-.32-.13-.45-.04Z"/>
      <path class="cls-1" d="M34.75,16.34c.68.73-1.15,1.13-1.4,1.32-.34.27-.4.76-.9,1.06-.45.27-.73.02-.77.03-.08.03.13.46.11.49-.2.23-.96.03-.99.07-.28.29-.46,1.67-1.63,1.55.13-1.25,1-1.2,1.74-1.85.27-.24.37-.75.42-.79.2-.13.73.66,1.19-.51.54.05,1.78-1.84,2.23-1.36Z"/>
      <path class="cls-1" d="M42.45,12.37c0,1.34-.62.68-1.45.94-1.3.4-4.27,2.33-5.26,3.22-.11.1-.68.39-.71.35-.39-1.28,1.07-1.48,2.12-1.59.03-.04-.28-.42-.23-.49.1-.15,2.75-1.36,3.28-1.64.37-.19.76.17.67-.52.51-.13,0,.59.52.53-.03-.57.54-.83,1.06-.79Z"/>
      <path class="cls-1" d="M25.74,24.04c.38-.82,1.37-1.75,2.12-2.39l-.86,1.79c-1.01-.08-.78.85-.86.86-.06,0-.25-.24-.4-.26-.1.22-.22,1.01-.28,1.06-.12.1-.54-.8-.65.54-1-.49.51-1.63.93-1.59Z"/>
      <path class="cls-1" d="M45.36,11.3c.4.47-1.14,1.51-1.59.66-.11-.78.45-.06.9-.1.12-.01.24-1.08.68-.55Z"/>
      <path class="cls-1" d="M48.81,10.51l-1.85.93c.02-1.26.96-.57,1.85-.93Z"/>
      <path class="cls-1" d="M46.69,11.04c0,.33-1.02.85-1.06.79-.3-.38.54-1.03,1.06-.79Z"/>
      <path class="cls-1" d="M43.24,12.89c-.82.19-.69-.62-.13-1.06l.13,1.06Z"/>
      <path class="cls-1" d="M28.92,20.86c.33.38-.1,1.11-.79.79.11-.36.43-1.21.79-.79Z"/>
      <path class="cls-1" d="M51.73,9.98c.4.4-.75,1.1-1.06.4.11-.2.98-.47,1.06-.4Z"/>
      <path class="cls-1" d="M49.6,10.24s.03.76,0,.79c-.69.79-.69-1.58,0-.79Z"/>
      <path class="cls-1" d="M53.05,9.98l-.53.79c-.92-.36-.3-.92.53-.79Z"/>
      <path class="cls-1" d="M57.83,10.24c.17.33-.42.92-.53.79-.03-.64-.17-.92.53-.79Z"/>
      <path class="cls-1" d="M54.11,9.98c.14.11-.52.74-.8.53-.14-.11.52-.74.8-.53Z"/>
      <path class="cls-1" d="M50.4,10.24l-.53.53c-.08-.55-.03-.6.53-.53Z"/>
      <path class="cls-1" d="M55.44,10.5c-.55.08-.6.03-.53-.53l.53.53Z"/>
      <path class="cls-1" d="M55.84,9.98c.17.09.17.18,0,.27v-.27Z"/>
      <path class="cls-1" d="M56.37,10.24c.17.09.17.18,0,.27v-.27Z"/>
    </g>
  </g>
</svg>