<?xml version="1.0" encoding="UTF-8"?>
<svg id="Layer_3" data-name="Layer 3" xmlns="http://www.w3.org/2000/svg" viewBox="0 0 100 92.18">
  <defs>
    <style>
      .cls-1 {
        fill: #fff;
      }
    </style>
  </defs>
  <g id="Sketchy_Icons" data-name="Sketchy Icons">
    <g>
      <path class="cls-1" d="M2.82,65.53s.02-.25,0-.26c0,.03.59.41,0,.26Z"/>
      <path class="cls-1" d="M56.77.77c.32.04.23,0,.26,0,4.45.55,7.88,1.43,12.32,2.39.89.19,1.05.43,1.12.44.49.02,1.03-.77.74.24.41-.26,1.1-.09,1.54,0,3.03.64,6.86,1.83,9.53,3.5.56.35,2.08,2.28,2.23,1.11.29.23.39.65.64.89,1.27,1.24,2.87,2.25,4.08,3.67.5.58,1.94,2.98,2.09,3.08.07.04.45-.24.47-.21.07.12-.08.58,0,.83.09.27,1.46,1.12,1.03,2.24.7-.62.65.61,1.07,1.36s1.95,2.57,1.97,3.1c.01.35-.67.98.28.4.73,2.58,1.45,5.09,2.56,7.56-1.12.39-.15.25,0,.57.97,2.26,1.36,10.09,1.3,12.75-.33,13.82-11.36,27.18-22.16,35.65-7.47,5.86-15.04,8.77-24.32,10.74-16.15,3.42-39.42-.76-47.67-16.41-1.52-2.89-2.76-6.69-4.04-9.9l.51-.26c.14.19.28-.46.51.77-.12-.04-.51-.07-.51.13,0,.27.4.05.51.13.82.59.35.8.64,1.53.8,2.02,1.85,5.32,2.77,7.09.63,1.21,2.63,2.46,2.48,4.18.97-.74.3,1.25,1.27.51-.23,1.7.82.98,1.04,1.15.19.15.18.59.35.8,4.4,5.32,17.88,9.35,24.55,10.22.91.12,1.41.03,2.31.1,4.15.31,8.29.29,12.4-.49l-2.49-.44c-14.18-1.02-31.22-2.85-40.04-15.45-2.26-3.23-4.96-10.33-4.9-14.07,0-.61-.97-.97-.64-1.25.76-.66.85,1.5,1.79,1.03.06.47-.97.2-1.01.63,0,.09.58,1.19.66,1.58.19.95.09,1.52.46,2.65.11.34.59.73.59.89,0,.2-.57.51-.45.63.07.07,1.61.22,1.28,1.28.9-.06,1-1.28,0-1.15-.05-1.04.6-4.39.44-5.14-.05-.24-.47-.25-.6-.43-.05-.07.11-.31.1-.32-.03-.03-1.12.21-.44-.38.06-.05.5.09.7-.05.34-.23.02-1.19.83-.98.02.09-.03.19,0,.26-.05.06-.25.06-.25.13,0,.15.25.12.25.13.58,1.3.95.6,1.89.78.2.04.14.49.32.51,1.19.17,1.97-.08,3.55.24.15.03,0-.52.49-.54.52-.02,1.05.29,1.57.29,9.13.01,20.33-1.47,28.41-6.57,1.4-.88,3.23-2.91,4.25-3.6.24-.16.62-.04.68-.08.03-.02-.28-.48-.25-.5.06-.05.5.08.68-.07,1.47-1.22,2.93-2.97,4.32-4.29.15-.14,1.45-.91,1.51-1,.22-.3.34-1.26.4-1.3.03-.02.38.27.46.22.17-.11,1.57-3.05,1.86-3.59,5.35-10.02,6.15-17.55-1.23-26.79-2.78-3.49-4.53-4.23-8.27-6.3-1.25-.69.1-.87.85-.66.25.07.29.53.44.6.6.26,1.96.72,2.46,1.04.86.54,4.42,3.51,4.72,3.91.2.26.18,1.06.23,1.12.02.02.38-.27.46-.21.31.2.58,1.28.73,1.49,1.6,2.31,2.49,3.54,3.57,6.37.19.51.53,2.24.61,2.34.51.65.66-1.24.68-1.49.38-3.16,0-6.52-2.11-9-.24-.28-2.3-1.79-2.44-1.98-.27-.37.04-.79.03-.85-.28-.07-1.22.16-1.79-.52-.07-.09.2-.34.25-.5-.7-.2-1.82-.14-2.3-1.02.69.22.21-.56.38-.51.36.11,1.12.8,1.53,1.04.32.19.5-.02.52,0,.23.11-.06.3-.13.5.67.19,1.27-.16,1.53,1.02,1.46.36,2.75,2.43,3.83,3.46-.9-2.9-2.08-5.92-5.17-7.1-.62-.24-1.13-.07-1.54-.2-.21-.06-1.16-1.47-2.23-1.02.11-.34.53-.77.89-.76.65.01,1.65,1.21,1.93,1.02.05-.04-.21-1.24-.26-1.28-.03-.02-.35.26-.46.2-.06-.04-.07-.37-.23-.45-.9-.46-1.63-.78-2.63-.51-.2.82.97.7,1.02.77.14.17-.22.75-.38.76-.13,0-2.55-.82-2.04-1.27l-.71.19c-.51-.39-4.74-1.37-4.79-1.61-.16-.8.83-.41,1.21-.26.54.21,1.9.81,2.86,1,.75.16,2.55-.27,2.19.66,1.33-.52-.12-1.87.26-2.04.21-.09,1.42.52,1.67.59.82.22,2.36.78,3.06.94-.32.19-.8.17-.77.51.32-.05.49.02.76.18.76.44,1.43,1.14,2.22,1.57.7.39,2.64.59.85.94.31.26.57.67.89.9,1.67,1.18,3.33,1.91,4.92,2.81,1.49.85.61.41,1.41,1.23.31.32.9-.01,1.21.19.57.36,1.59,1.19,2.06,1.52.29.21-.03.63,0,.64.21.11.9-.15,1.29.12.36.24.75,1.75-.14,1.16-2.01-1.33-3.88-2.75-5.95-4.01-.51-.31-.66-.34-1-.53-1.07-.6-2.18-1.53-3.41-1.85,1.14.72.41.81.56,1.22.04.1,1.34,1.04.73,1.73.13.05.46-.13.48-.11.45.61.58,3.93.81,4.9.1.43,1.17,2.45,1.2,2.62.13.68.12,1.54-.71,1.15-.04-.02.39-.69-.25-.77l-1.02,13.19c.46.01.76-1.17.87-1.54.23-.73-.2-1.59.65-1.27-.24-1.97.78-4.88.65-6.92-.04-.7-1.41-2.85.12-2.43-.6.91.17.68.24.96,1.22,5.11-.98,9.18-2.64,13.66-2.3,6.2-3.13,9.54-8.29,14.03-10.13,8.83-21.96,18.21-36.24,17.67-1.75-.07-4.45-.46-6.04-1.1-.41-.16-2.9-1.7-3.17-1.95-.31-.29-.25-.49-.37-.77.03.04.59.06.87.29,3.52,2.87,8.81,2.96,13.34,2.56,6.98-.62,13.61-4.38,20.15-8.25l2.46-2.27c-.45-.09-.74.12-1.11.3-7.34,3.52-13.34,7.92-22.03,7.75-.69-.01-2.6.01-1.92-.88.03-.04.54.25.89.25,3.65-.04,6.06-.55,9.49-1.5.99-.27,2.1.3,1.76-1.05-4.27,1.4-8.8,1.62-13.23,2.09l-.44.47c.67-.34,1.57-.14,1.02.51-.11.13-2.69-.81-3.19-.88-1.24-.18-3.65.12-4.56-.14-.24-.07-.15-.49-.18-.51-.15-.1-.37.38-.62.39-.91.04-2.97-.84-2.95.37-.21-.18-.56-.76-.64-.76-1.04-.09-.49,6.87.64,7.93.06.05.36.56.26,0,.25.33,1.23,2.04,1.41,2.43.28.59-.3,1.26.89.65-.5,1.33.23.98.46,1.33.06.08-.23.45-.2.46.08.05.5-.1.7.06.24.2.39,1.37.46,1.41.07.04.5-.13.71.06,2.32,2.08,4.36,4.19,7.09,5.73.27.15,1.47.38,1.53.44.02.02-.28.49-.26.5.08.06,1.43.26,1.94.48,8.09,3.49,13.14,5.27,22.49,3.14,14.35-3.26,23.16-10.5,32.6-21.02.02-.02.35.23.44.17.69-.5,1.24-2.38,1.36-2.47.05-.04.46.27.49.24.04-.03.13-.8.29-1.07,2.62-4.53,5.1-7.83,7.07-13.2.57-1.54.94-3.13,1.46-4.67.76.46.75,2.57-.12,2.17.29.49.04,1.38-.14,1.93-2.96,9.24-10.15,19.05-17.07,25-.45.38-1.02.86-1.49,1.22-3.68,2.81-8.23,6.18-12.71,8.32-5.51,2.63-11.59,4.44-17.69,4.89l.88.75c.83-.76,1.4-.1,2.09-.07,6.06.28,11.99-.63,17.72-2.59.48-.17.88.12.92.1.07-.03-.14-.47-.11-.49.2-.14,2.76-.72,3.28-.94,5.61-2.37,10.93-6.21,15.23-9.84,8.5-7.2,12.44-11.98,14.82-23.52.18-.88.38-.84.38-.9,0-.36-.42-1.1-.41-1.61.01-1.2.36-2.7.12-3.98-.18-.97-1.59-2.45-1.22-3.78l-.51.51c.39-1.08-.53-1.56-.68-1.88-.08-.18-.55-2.27-1.11-1.71-.26.26-1.01,6.46-1.28,6.65-.19.13-.49-.06-.64-.26-.46-.63,1.11-5.86,1.08-7.19-.05-2.39-1.23-2.92-2.38-4.68-.27-.41-.81-1.86-.88-1.94-.03-.03-.38.26-.46.21-.12-.08-1.43-1.94-1.69-2.29-.16-.22-.11-.69-.15-.74-.02-.02-.37.26-.46.21-.11-.07-1.6-1.85-1.71-2-.4-.56-.18-1.23-.25-1.26-.02,0-.2.16-.41.08-1.39-.55-1.88-1.87-2.88-2.83-.3-.29-1.51-1.1-1.7-1.27-1.92-1.74-3.9-3.43-5.89-5.09-.25-.91,1.58-.23,1.75-.09.04.03-.2.39.03.59,1.25,1.11,2.93,2.11,4.08,3.1.31.26.2.71.44.91.5.42,1.13-.23.61,1,1.38-.63.82-.02,1.03.29.26.37.71,1.15.77,1.23.05.06.39-.39,1.18.59.05.06-.16.33-.11.39,1.14,1.17,1.6,1.05,2.47,2.24s2.24,2.47,2.97,3.34c.06.07.19.81.23.83s.59-.2.84.1c.41.49-.23,1.46.56.97-.53,1.18.1.57.77,1.16.15.13.84,1.32.77,1.65,1.1-.76.31-2.65.24-3.72-.44-7.29-3.09-11.78-8.56-16.49-6.14-5.28-13.45-6.79-21.34-7.18.56-.99,2-.35,2.87-.32.43.02,1.14-.22,1.32-.2.29.04-.03.63.4.51l.13-.51c1.08.66,2.49.27,3.86.72.54.18.45.85,1.89.3.02-.46-1.17-.39-.64-1.02.71,1.28,2.19-.06,2.18,1.79l.64-.76c.51,1.21.67.39,1.21.56,1.74.54,3.01,1.79,4.63,2.3l3.88,3.02c.66.16.24-.37-.03-.74-1.87-2.63-9.13-6.54-12.28-7.42-4.47-1.25-9.02-.65-13.4-1.31.01,0,.01-.25,0-.26.49-.13.95-.39,1.48-.44.42-.04,2.03.26,2.1.18.43-.49-.51-.62-.71-.68-1.02-.32-3.39-.62-4.53-.73-.76-.08-2.99-.23-3.59-.14s-.62.99-1.01,1c-.13,0-1.53-.99-1.91-1.11-.35-.12-3.6-.41-3.58-.76.02-.47.83-.3,1.06-.32,2.48-.25,7.82.41,10.44.71ZM50.51,1.02v.26l.13-.13-.13-.13ZM61.63,3.07c.25-.32-.52-1.01-.76-.77-.39.39.72.82.76.77ZM62.27,2.56v.26l.13-.13-.13-.13ZM55.88,5.12v.26l.13-.13-.13-.13ZM75.05,5.38c-.25.18.14.35.26.5.25-.17-.12-.34-.26-.5ZM56.13,5.63v.26l.13-.13-.13-.13ZM82.85,10.75c.87.84,1.01,1.76,1.99,2.36-.54.95.35,0,.69.45.93,1.28,1.93,3.01,2.8,4.38.26.42.24.99.43,1.31.33.53,1.28,1,1.6,1.75.21.49-.1.85-.08.9.03.06.64-.02,1.17.63,1.22,1.54,3.13,4.37,3.95,5.8.42.74,1.38,3.59,1.78,3.93.05.04.52.09.51-.13-.06-1.13-1.21-3.76-1.64-4.96-2.87-8.06-9.42-18.42-18.46-21-.57-.16-1.2-.53-1.64.11,2.21.66,4.78,2.51,6.39,4.22.08.09.16.18.26.26.02.02.36.58.26,0ZM71.22,6.91v.26l.13-.13-.13-.13ZM71.73,6.91v.26l.13-.13-.13-.13ZM83.24,13.31v.26l.13-.13-.13-.13ZM83.75,13.57v.26l.13-.13-.13-.13ZM84.26,13.82v.26l.13-.13-.13-.13ZM84,14.33v.26l.13-.13-.13-.13ZM85.15,14.84c.18-.36-.16-.68-.25-.51-.18.36.16.68.25.51ZM57.67,15.61v.26l.13-.13-.13-.13ZM60.74,22.01v.26l.13-.13-.13-.13ZM91.91,24.98c-.43-.61-.79-1.1-1.2-1.75-.17-.28-.41-.87-.44-.07.01.69.86,1.05,1,1.36.22.49.12,1.37.3,1.89.09.28,1.21,1.74,1.33,2.06,2.66,6.99,2.69,14.47,3.75,21.58v3.44c1.06-3.18,1.98-6.48,2.07-9.86.18-6.8-2.99-13.27-6.81-18.67ZM91.67,23.8v.26l.13-.13-.13-.13ZM62.01,24.06v.26l.13-.13-.13-.13ZM64.83,25.34v.26l.13-.13-.13-.13ZM94.56,41.16c.3-.37-.37-3.86-.53-4.61-.41-1.98-1.21-4.99-1.83-6.93-.22-.68-.56-1.87-1.17-2.23.39,1.69.39,3.27.5,5,.14,2.24-.29,2.61.73,4.9.53,1.2,2.12,2.74,1.59,4.05.1.11.68-.16.71-.19ZM60.61,34.56c-.17.48,0,.23,0,.26-.44,1.23-.88,2.45-1.53,3.58.24.21.88-.4,1.03-.63.39-.6,1.75-4.83,1.53-5-.51-.38-.94,1.54-1.02,1.79ZM62.53,33.02v.26l.13-.13-.13-.13ZM97.81,33.28v.26l.13-.13-.13-.13ZM90.52,34.05c-.36-.18-.68.16-.51.25.36.18.68-.16.51-.25ZM98.07,34.04v.26l.13-.13-.13-.13ZM91.16,37.37v.26l.13-.13-.13-.13ZM59.2,38.65v.26l.13-.13-.13-.13ZM59.46,39.93v.26l.13-.13-.13-.13ZM59.33,40.45l-1.7,1.62c-.83,2.27-2.84,3.8-3.8,6.05,2.26-2.16,4.68-4.59,5.5-7.67ZM94.61,42.24c.18-.36-.16-.68-.25-.51-.18.36.16.68.25.51ZM53.58,46.84v.26l.13-.13-.13-.13ZM52.3,47.87v.26l.13-.13-.13-.13ZM50.78,50.06c.3-.34.53-.75.88-1.05.13-.65-.4-.24-.59-.08-.94.79-2,1.81-2.88,2.6-.48.43-.96,1.2-1.63,1.58,1.41-.68,3.19-1.87,4.23-3.05ZM95.89,51.2c-.36-.18-.68.16-.51.25.36.18.68-.16.51-.25ZM93.84,59.64c.81-2.28,1.8-4.44,1.94-6.92.02-.43.24-.68-.27-1.02-.32,2.44-1.36,4.76-1.8,7.15-.05.26-.34.84.14.78ZM45.52,55.29s.3-.93.26-1.02c-.21-.47-.76,1.56-.26,1.02ZM96.02,57.34v.26l.13-.13-.13-.13ZM34.4,59.65c-.58.39-.32.74,0,.25.09-.13.21-.14,0-.25ZM33.25,60.41s.1-.54-.13-.51c-1.33.49-.41,1.06.13.51ZM33.63,59.9v.26l.13-.13-.13-.13ZM92.7,60.41v.26l.13-.13-.13-.13ZM18.04,62.2v.26l.13-.13-.13-.13ZM91.44,64.66c.27-.42.64-.9.62-1.43-.47.29-.93,1.03-1.17,1.52-.09.18-.24.82.14.38.03-.24.33-.34.41-.47ZM90.01,66.3c.1.13.72-.5.51-.77-.1-.13-.72.5-.51.77ZM3.08,66.56c.18-.36-.16-.68-.25-.51-.18.36.16.68.25.51ZM89.5,67.58c.41-.38.43-1.93-.51-.13-.03.22.48.15.51.13ZM8.19,70.4c-.71-.07-.21,1.54-.13,1.53.58-.06.02-1.28.13-1.53ZM10.79,75.47c-.52-.31-1.15-2.74-2.09-3.03.26.86,2.15,3.96,2.81,4.23.3.12.46-.14.51-.39-1.3.26-.56-.69-.77-1.03-.02-.03-.39.26-.47.21ZM83.75,72.45c-.58.39-.32.74,0,.25.09-.13.21-.14,0-.25ZM82.85,73.47c-.36-.18-.68.16-.51.25.36.18.68-.16.51-.25ZM81.96,73.98v.26l.13-.13-.13-.13ZM81.45,74.24v.26l.13-.13-.13-.13ZM11.13,74.75v.26l.13-.13-.13-.13ZM80.42,74.75v.26l.13-.13-.13-.13ZM78.76,76.79c.29.15.59-.16.76-.38-.26-.11-1,.26-.76.38ZM13.05,77.56s-.21-.54-.13-.76c-.67.38-.37,1.11.13.76ZM12.28,77.06c-.36-.18-.68.16-.51.25.36.18.68-.16.51-.25ZM78.76,77.06c-.36-.18-.68.16-.51.25.36.18.68-.16.51-.25ZM77.48,77.82c-.36-.18-.68.16-.51.25.36.18.68-.16.51-.25ZM13.69,78.33v.26l.13-.13-.13-.13ZM75.57,78.84v.26l.13-.13-.13-.13ZM14.97,79.1v.26l.13-.13-.13-.13ZM77.1,79.87v.26l.13-.13-.13-.13ZM72.75,80.64v.26l.13-.13-.13-.13ZM75.57,80.64v.26l.13-.13-.13-.13ZM72.5,81.15v.26l.13-.13-.13-.13ZM74.54,81.66v.26l.13-.13-.13-.13ZM73.9,82.68s.1-.75-.13-.77c-.75.43-.22,1.16.13.77ZM73.13,82.94c.18-.36-.16-.68-.25-.51-.18.36.16.68.25.51ZM72.37,83.45c.18-.36-.16-.68-.25-.51-.18.36.16.68.25.51ZM68.54,85.76c.12.15.8-.75.64-1.02-.24.22-.86.73-.64,1.02ZM66.87,84.99v.26l.13-.13-.13-.13ZM65.21,85.76c-.3-.29-.82.11-.13.51.22.03.14-.49.13-.51ZM52.68,89.6c3.94-.57,8.13-1.18,11.5-3.46-1.8.57-3.59,1.25-5.42,1.73-1.76.46-3.85.65-5.52,1.14-.44.13-.67-.09-.55.58ZM50.12,89.85c.18-.36-.16-.68-.25-.51-.18.36.16.68.25.51ZM52.17,89.34c-.39-.18-1.04.13-.76.25.39.18,1.04-.13.76-.25ZM32.35,90.62v.26l.13-.13-.13-.13Z"/>
      <path class="cls-1" d="M60.61,34.81s-.01-.25,0-.26c.3-.13.3.39,0,.26Z"/>
      <path class="cls-1" d="M7.94,62.46c.06.06.43-.07.51,0,.04.04-.27.48-.25.51-.06-.13-.25-.22-.26-.51Z"/>
      <path class="cls-1" d="M82.6,10.49s-.25.03-.26,0c-.1-.58.23-.02.26,0Z"/>
      <path class="cls-1" d="M57.03,3.07c-.24-.11-.24.36,0,.26-.04,0-.18.13-.77,0,.89-.52.48-.18.77-.26Z"/>
      <path class="cls-1" d="M82.85,10.75s-.24.03-.26,0c-.04-.06.04-.2,0-.26.1.07.17.17.26.26Z"/>
      <path class="cls-1" d="M1.8,64.76c-.13-.33-1.2-2.42-1.02-2.56.74-.56.77,1.28.81,1.36.04.09.65.84.72.94l-.51.26Z"/>
      <path class="cls-1" d="M6.91,60.16s.03-.18,0-.26c.03-.04.23.04.26,0-.03.04-.05.37-.26.26Z"/>
      <path class="cls-1" d="M8.19,69.63s-.25.01-.26,0c-.09-.48.12-.18.26,0Z"/>
      <path class="cls-1" d="M7.17,59.9c.09-.16-.1-.22-.26-.26-.49-2.34,1.51-1.57.26.26Z"/>
      <path class="cls-1" d="M41.94,1.53c-.67.27-.44-.52-.65-.52-.12,0-2.67.31-1.64-.5.21-.17,1.74.73,2.17-.25l.12,1.27Z"/>
      <path class="cls-1" d="M51.91,6.65c-.08.08.23.68-.38.52-.24-.06-.06-.38-.18-.48-.17-.14-.5.2-.59.18-.2-.06-.1-.35-.25-.41-.19-.07-1.94-.24-.51-.83.2-.08.04.39.32.5.43.17.89.21,1.35.27l.26.26Z"/>
      <path class="cls-1" d="M51.66,6.4s.15-.35.51-.13c.74.45-.22.36-.26.39l-.26-.26Z"/>
      <path class="cls-1" d="M43.83,1.42c.26.22.93.5.8.88-.84.04-1.22-.55-1.48-.68-.4-.2-.99.14-.95-.33.67-.16,1.43.66,1.28-.26.38-.1.19.26.35.4Z"/>
      <path class="cls-1" d="M53.96,7.93c-.13.11-.91.05-1.14-.25-.07-.1.14-.47.1-.49-.23-.14-.83.22-.75-.27.36-.19,2.31.59,1.79,1.02Z"/>
      <path class="cls-1" d="M.27,61.95c-.15-.15.22-.76.38-.76.71.01,0,1.14-.38.76Z"/>
      <path class="cls-1" d="M45.01,6.91c-.29-.24,1.02-.7,1.02-.12,0,.38-.79.32-1.02.12Z"/>
      <path class="cls-1" d="M37.6,0c-.22.56-.42.61-.77.12l.77-.12Z"/>
      <path class="cls-1" d="M38.87.76c-.27.21-.9-.41-.77-.51.27-.21.9.41.77.51Z"/>
      <path class="cls-1" d="M49.1,5.63c.36.16-.64.42-1.02.25-.36-.16.64-.42,1.02-.25Z"/>
      <path class="cls-1" d="M39.38.76c-.09.17-.43-.15-.25-.51.09-.17.43.15.25.51Z"/>
      <path class="cls-1" d="M44.24.76c-.09.17-.43-.15-.25-.51.09-.17.43.15.25.51Z"/>
      <path class="cls-1" d="M46.8,7.42c-.09.17-.43-.15-.25-.51.09-.17.43.15.25.51Z"/>
      <path class="cls-1" d="M.38,60.55c.19.19.48,0,.39.37-.48.08-.85-.3-.76-.76.36-.09.18.21.37.39Z"/>
      <polygon class="cls-1" points="44.88 .25 45.01 .38 44.88 .51 44.88 .25"/>
      <polygon class="cls-1" points="5 60.92 5.12 61.05 5 61.18 5 60.92"/>
      <polygon class="cls-1" points="71.73 14.33 71.86 14.46 71.73 14.59 71.73 14.33"/>
    </g>
  </g>
</svg>