<?xml version="1.0" encoding="UTF-8"?>
<svg id="Layer_3" data-name="Layer 3" xmlns="http://www.w3.org/2000/svg" viewBox="0 0 100 118.82">
  <defs>
    <style>
      .cls-1 {
        fill: #fff;
      }
    </style>
  </defs>
  <g id="Sketchy_Icons" data-name="Sketchy Icons">
    <g>
      <path class="cls-1" d="M84.88,97.37c-.09.07-.41.09-.65.25-.34.23-.77.94-1.04,1.05s.07-.65-.39-.52c-1.1,2.14,2.55-1.08,1.83.65-.09.22-.9.41-1.14.64-3.82,3.74-6.64,4.7-11.29,7.14-.18.09-1.46,1.2-1.56,1.23-.19.06-.45-.15-.61-.14-.44,0,.07.34,0,.39-.23.15-.75-.24-.93-.24-.13,0-1.26.54-2.03.78-2.99.94-6.11,1.87-9.63,2.52-.3.05-2.17.03-2.4.1-.2.07-.09,1.13-.51-.03-.14.17-.29.35-.52.39-3.15.46-6.34.75-9.4.9-.11,0-.1-.51-.25-.52-3.97-.23-6.85-.27-10.86-1.31-.2-.05-.21-.48-.38-.51-.39-.06-.79.23-1.02.2-.24-.03-.24-.56-.57-.71-.38-.17-2.13-.32-2.53-.52-.1-.05-.81-.73-1.38-1.02-2.07-1.03-3.22-1.34-4.81-3.06-.07-.07-.6.38-.19-.35-1,.52-.85-.31-1.1-.43-.45-.23-1.58-.22-1.37-1.12-.79.72-.97-.72-1.5-1.22-3.22-3.07-7.68-5.17-10.64-8.81-.23-.28-.57-1.75-1.28-1.96-.36.88.43,1.02.5,1.21,8.65,25.43,34,29.54,57.07,21.33,8.05-2.87,16.12-7.31,22.81-12.63-.51,2.24-3.06,3.82-4.89,5.02-13.64,8.94-35.45,16.1-51.17,11.19-2.62-.82-7.82-2.95-10.16-4.57-.42-.29-.46-1.28-1.65-.96l.52-.65-1.75-.76c-.52-1.05-2.22-1.76-2.79-2.51-.36-.47-.32-1.13-.43-1.27-.03-.04-.66.26-.95-.08-.47-.55-1.26-2.13-1.77-2.8-3.45-4.63-6.79-10.44-7.43-16.3,0-.08-.37.18-.51-.02-.62-.88-1.66-4.53-2.03-5.75C-5.28,57.39,7.72,27.36,27.33,12.55,42.7.95,68.72-6.4,84.63,7.83c.33.29,1.86,1.61,1.94,1.71.35.42.29,1.09.43,1.26.03.04.4-.2.6.03,2.95,3.33,4.87,7.01,6.72,11.04.38.82,1.71,3.13,2.16,4.61,1.14,3.77,1.29,8.46,2.56,12.3l-.08.73c-.66-2.03-.88-4.2-1.44-6.25-1.84-6.73-3.2-8.22-8.22-12.89-.49-.45-1.44-1.81-1.88-2.15-.79-.61-2.09-.13-1.62-1.37-.89.99-.47.23-.84,0-.62-.4-1.29-.76-1.9-1.18.7,1.34,2.27,2.05,3.29,3.09,3.44,3.53,6.99,8.78,9.01,13.21,1.3,2.83,2.12,5.83,3.13,8.78,1.3.81.25-.24.97-.71-.21.54.62,3,.52,3.12-.72.87-.46-1.01-.52-1.04-.14-.08-.48.2-.65.15-.79-.22-3.5-4.3-4.5-5.11-.62-.51-2.21-1.4-3.01-1.87-.89-.53-2.45-1.03-3.17-1.5-.21-.14.22-.36,0-.53-1.05.88-1.64-.44-1.74-.48-.33-.12-1.21.77-.86-.3-.84.28-1.98-.58-2.94-.73-.91-.14-1.89-.07-2.81-.07-1.66,0-5.03.43-6.72.8-.26.06.04.8-.95.26.48.69-.75.27-1.61.58-9.56,3.53-19.05,14.82-22.41,24.26-4.83,13.58-3,34.72,11.68,41.32,1.19.54,2.85.81,3.87,1.33.24.12-.26.38,0,.53.68-.88,2.15.05,3.17.16,4.72.49,9.5-1.85,13.71-3.81.24-.11.19-.96.71-.38-.53.63-1.16,1.11-1.8,1.62-.34.27-.75.09-.78.12-.08.11.03.49-.1.65s-1.1.51-.71.87c.33.3,7.05-3.62,8.01-4.02.08-.03,0-.42.19-.41,1.54.05-.64,1.46-1.17,1.83.44-.44,1.09.28.52.78-.48.42-.71-.58-.52-.78ZM58.35,1.4c-.1-.09.08-.51-.17-.47-2.48,1.04-5.31.96-8.22,1.68-1.78.44-3.81,1.61-5.6,1.46.37.67-1.49.93-2.21,1.22-.49.2-.51.97-1.17.08.13,1.02-1.31.88-2.09,1.3-1.19.64-2.51,1.56-3.57,2.05-.25.11-.65-.3-.72-.22-.06.06.14.6-.16.81-.21.15-.76.15-1.12.39-7.82,5.11-14.76,11.3-20.1,19.25-1.04,1.55-2.42,3.88-3.33,5.53-2.39,4.35-4.59,9.07-5.78,13.89l3.77-8.35C18.45,19.86,38.96,4.83,63.09,7.74c6.94.84,20.52,6.31,25.96,10.78,1.78,1.46,3.23,3.29,4.94,4.83-.69-1.43-1.26-2.96-2.01-4.36-.97-1.82-3.32-5.55-4.48-6.93-3.55-4.19-7.92-6.43-12.33-8.87-.4-.22-.88.57-.72-.7-.43-.12-.15.47-.39.53-.72.18-.6-.37-.72-.43-.98-.46-4.42-1.03-5.89-1.26-.99-.16-1.12-.37-1.19-.37-2.02.03-4.22-.05-6.27.02-.42.01-1.59.48-1.65.42ZM58.96,7.97v.26l.13-.13-.13-.13ZM52.05,8.75s.4-.37.14-.51c-1.61,1.67-.01.93.5,1.04,3.84.85,10.33,1.39,14.68,2,1.7.24,3.55.03,5.26.34-.13-.37-1.02-.68-1.38-.83-1.8-.73-2.99-.71-4.69-.99-.06,0-.81-.75-.87-.76-2.15-.29-2.66.09-4.91-.81-.2-.08-.05.49-.29.54-.59.12-2.99-.43-3.98-.44-.61,0-4.29.57-4.46.42ZM51.27,9.27s.02-.74,0-.78c-.05-.08-1.21.93-1.82.52-.02.69,1.76.33,1.82.26ZM48.67,9.53s.1-.55-.13-.52c-.71.41-.17.81.13.52ZM49.06,9.01v.26l.13-.13-.13-.13ZM46.97,9.27v.26l.13-.13-.13-.13ZM49.84,10.05v.26l.13-.13-.13-.13ZM48.15,10.31c-1.19.39-2.84-.06-3.78.78-.42-1.12-.31-.15-.42-.06-.07.06-.41-.16-.56-.1-2.62,1.1-5.45,1.7-8.01,2.66-.35.13-1.29.95-1.3,1.4-.39.16-.17-.78-.51-.52-.04.03-.28.71-.59.93-1,.67-2.85,1.29-3.77,1.86-1.82,1.13-4.1,3.53-5.66,5.04-.21.21-.62-.02-.78.25s-.1.75-.14.79c-.1.11-.72-.34-.78-.27-.04.05.08.49-.07.7s-.67.37-.99.73c-.73.81-1.44,1.76-2.16,2.64-1.48,1.8-3.36,3.87-4.56,5.73-.25.39-.25,1.11-.29,1.15-.02.02-.49-.29-.51-.26-.06.06-.33,1.22-.6,1.64-3.14,5.07-5.39,10.33-7.46,15.52-1.22,3.07-2.78,10.67-2.76,13.98,0,.08.18,1.44.26,1.43.76-.06-.43-1.69.65-1.16-.24-.74-.2-2.03-.1-2.78C6.58,38.63,22.62,17.5,46.12,11.02c.56-.15,2.16.24,2.02-.7ZM49.19,10.32c-.37-.19-.7.16-.52.26.37.19.7-.16.52-.26ZM58.83,11.36c-1.02.45-1.54-.33-2.34-.43-1.39-.17-5.13.06-6.09.25-1.43.28-2.84,1.14-4.33.69-.03.02.29.5.26.52-.1.07-1.81.21-2.35.38-4.17,1.25-7.57,2.87-10.87,4.84-2.91,1.74-6.05,3.65-8.44,5.84-.68.62-.92,1.13-1.28,1.71-.03.05-.33-.45-.95.33-1.37,1.72-3.87,4.22-5.55,6.39-4.03,5.21-6.91,11.97-9.59,17.91-.14.48-.71,3.89-.85,4.05-.02.02-.5-.29-.52-.26-.08.13.05,1.25-.02,1.67-.52,2.98-1.5,5.96-1.89,9.05-1.13,8.96-.48,13.13,3.1,21.31.15.33.67.55.76.79.12.32-.24.76-.09,1.01.05.09.62.2.87.57,1.37,2.01,2.42,4.45,4.05,6.38,1.98,2.33,7.78,6.61,10.61,7.63.23.08.92.26.85-.2-.34-.24-2.25-1.75-2.29-1.89-.08-.28.19-.47.19-.59,0-.15-.42.07-.63-.11-7.29-5.84-9.72-22.35-9.37-31.17,1.02-25.67,14.52-48.11,40.07-54.89,1.57-.42,4.95-.69,6.05-1.12.26-.1.58-.37.64-.66ZM60.52,10.84v.26l.13-.13-.13-.13ZM62.74,11.36c-.37-.19-.7.16-.52.26.37.19.7-.16.52-.26ZM73.29,11.36v.26l.13-.13-.13-.13ZM69.42,13.03c-1.45-.54-3.84-.8-5.38-.89-.11.44.37.16.47.29.06.07-.22.41-.19.46.14.18,1.74.57,2.13.82,2.49,1.53,6.82,5.28,8.67,7.54.39.48.88,1.84,1.34,2.11,1.1.64,2.8.17,3.99.35,1.36.21,3.11.73,4.43,1.2.5-1.34-1.25-1.57-1.57-1.92-2.57-2.89-4.22-4.6-7.55-6.33-.83-.43-1.03-1.52-2.73-2.05-.29-.09-.93.07-1.27-.11s-.1-.72-.17-.8c-.05-.06-.53.31-.86.23-.18-.04-1.14-.83-1.32-.9ZM63.69,13.27c-1.79-.77-4.02-1.07-5.78-.09.12-1.47-.47,0-.55.01-.82.21-2.35.17-3.43.45-1.8.47-3.67,1.03-5.46,1.56-.34.1-.3.57-.44.57-.51,0-1.06-.77-.8.29h-1.83c-.1.94-2.38,1.4-3.49,1.97-.33.17-.58.59-.99.83-.63.37-1.56,0-1.24.83-1.09-.58-2.14,1.42-2.82,1.66-.5.18-.8-.08-.85-.08-.11.02.13.37-.03.52-.55.52-1.82.75-1.87.83-.24.37.33,1.12-.7.47.18,1.05-.93,1.37-1.7,1.9-4.36,2.99-10.41,11.72-12.8,16.97-7.55,16.59-9.78,44.86,5.13,58.52,4.43,4.06,6.47,3.31,11.85,4.52.31.07.71-.14.78-.08.08.07-1.26,1.83.39,0,.74-.23-.31,1.57.65.78.15-.12-.42-1.09.78-.78-.83,1.73.49.86,1.14,1.05.24.07.14.48.17.51.13.09.4-.39.68-.44,1.9-.32,6.2.31,8.57.19.76-.04,5.89-.58,6.11-.8.11-.11-.36-.49-.53-.6-.22-.15-3.28-1.99-3.4-2.16-1.42-2.09-3.58-3.9-5.17-6.28-.36-.54-.77-1.49-1.25-2.36-7.2-13.06-8.57-27.27-2.65-41.31.14-.33.65-1.71.76-1.86.25-.36.05.36.36-.49.51-1.4,1.66-2.58,2.48-3.79,5.6-8.27,15.33-19.83,25.41-22.33,1.18-.29,2.57-.25,3.69-.42s-.09-1.33-.58-1.91c-.12-.14-.04-.51-.16-.61-.21-.17-.63,0-.72-.07-.02-.01.24-.37.18-.46-.48-.75-2.31-1.87-3.07-2.53-1.78-1.54-4.74-4.1-6.85-5ZM74.4,12.73c-.4-.07-.96.12-1.48.06-.58-.06-1.38-.96-1.85.13,1.24.21,2.84.97,3.96,1.59,5.39,3,9.23,8.1,13.63,12.22,2.4,2.25,2.84,2.84,4.56,5.58.13.21.24,0,.39-.09-.88,1.48-.83-.05-1.16-.41-.61-.68-1.63-1.42-2.23-2.2-.28.78.88,1.68,1.28,2.37.35.6.74,1.8,1.23,2.41.3.38,3,3.02,3.22,3.03.42.01.25-.48.2-.71-.2-1.01-1.1-2.24-1.51-3.19-2.49-5.8-6.59-12.29-11.41-16.08-.52-.41-3.13-1.82-3.25-1.97-.15-.18,0-.59-.07-.69-.03-.04-.5.18-.89.02-1.61-.66-2.92-1.74-4.61-2.05ZM64.17,13.18v.26l.13-.13-.13-.13ZM82.41,14.74v.26l.13-.13-.13-.13ZM77.98,17.35v.26l.13-.13-.13-.13ZM29.26,19.44v.26l.13-.13-.13-.13ZM56.48,35.33c.3.27,5.87-4.09,6.81-4.27,3.82-1.96,7.74-3.39,12.07-3.56.42-.02,3,.55,3-.12,0-.12-1.21-2-1.3-2.08-.78-.72-1.88-.28-2.75-.26-1.4.03-3.67.5-5.19,1.04-4.8,1.73-8.47,5.31-12.11,8.36-.16.13-.58.83-.52.88ZM78.13,25.14s-.1-1.19-.28-.1c.9.59,1.19,2.46,1.98,2.98.92.6,3.4,1.27,4.59,1.86.31.16.36.62.79.83,1.67.81,3.7,1.44,5.41,2.28l-3.27-5.46c-1.25-1.34-1.52-.91-2.8-1.32-.37-.12-2.4-1.2-2.96-1.27-.67-.08-3.15.29-3.46.2ZM76.54,28.3s-.3-.03-.26.26c-.46.04-2.24.31-2.32.23-.03-.03-.05-.8-.28-.49-.04.05.1.48-.17.53-.36.08-2.58-.06-2.96.25-.16.13.18.71.39.78.09.03.31-1.16,1.43.26-.52.32-.99-.16-1.3-.1-.6.1-1.2.88-1.95.37.34,1.07-.71.12-1.44.26-.07-.52.67.04.52-.65-.05-.22-.68-.19-.78-.13-.12.07.84,2-1.44,1.31-.11.13.09.42.05.46-.13.13-.28.04-.43.05-.03,0,.18-.1-.26,0-4.88,1.12-13.53,8.76-16.27,13.05-.31.48-.26.62-.76,1.31-.35.47.15,1.04-.68.49.24,1.08-.37,1.19-.6,1.63-4.14,8.27-6.72,17.89-6.28,27.15.31,6.44,2.14,13.38,7,17.87-1.72-3.36-3.23-6.95-3.94-10.69-3.3-17.48,6.98-43.38,24.48-49.82,3.66-1.34,7.73-2.24,11.62-2.31-1.27-1.42-3.83.11-5.08-1.04l-.13.78-.26-.78c-.72,1.55-1.72.15-1.3-.26.3-.29,5.07.83,3.65-.78-.02-.02.03-.27-.13-.26s-.12.25-.13.26ZM77.33,28.56c-.51.47,1.62,1.41,1.56.65-.02-.25-1.42-.78-1.56-.65ZM81.02,29.8c-.19-.23.18-.81-.31-.72.04.29-.08,1.23,0,1.3s1.02-.05,1.3,0c-.05-.56-.83-.38-.99-.58ZM70.29,29.34c-.2-.16-.92.24-1.18.35-.2.09-.56-.31-.38.42.47-.16.77-.27,1.27-.36.38-.07.92.09.29-.41ZM90.74,33.25v.26l.13-.13-.13-.13ZM56.09,35.33v.26l.13-.13-.13-.13ZM55.83,35.86v.26l.13-.13-.13-.13ZM56.35,43.15v.26l.13-.13-.13-.13ZM47.36,45.5c.19-.37-.16-.7-.25-.52-.19.37.16.7.25.52ZM3.6,49.67c.1.13.73-.51.52-.78-.1-.13-.73.51-.52.78ZM44.63,49.41v.26l.13-.13-.13-.13ZM3.34,50.19c-.05.05-.39,1.07-.4,1.3.75-.25.74-1.67.4-1.3ZM2.95,52.02v.26l.13-.13-.13-.13ZM43.07,52.8c-.59.39-.32.75,0,.26.09-.13.21-.14,0-.26ZM41.76,55.14v.26l.13-.13-.13-.13ZM40.46,60.09v.26l.13-.13-.13-.13ZM40.72,62.96v.26l.13-.13-.13-.13ZM2.81,67.13c.19-.37-.16-.7-.25-.52-.19.37.16.7.25.52ZM39.94,66.87v.26l.13-.13-.13-.13ZM44.76,71.56s-.55-.1-.52.13c.41.71.81.17.52-.13ZM44.76,73.13c.3-.3-.11-.84-.52-.13-.03.23.5.15.52.13ZM1.64,73.39v.26l.13-.13-.13-.13ZM44.76,75.21c-.05-.3.09-.84,0-1.04-.12-.26-.89.93,0,1.04ZM46.96,86.36c-1.16-3.14-1.71-6.51-2.31-9.82-.07-.37.11-.7.11-1.07-.45,0-.5.84-.49,1.14.15,5.91,2.4,13.33,5.96,18.01,2,2.63,4.96,4.11,8.08,5.09.15-.77-.25-.41-.57-.58-1.9-1.01-2.05-.88-3.38-2.48-.03-.03-.51.12-.78-.13-2.86-2.59-5.4-6.86-6.62-10.16ZM2.16,77.04v.26l.13-.13-.13-.13ZM2.42,77.82v.26l.13-.13-.13-.13ZM2.95,81.21v.26l.13-.13-.13-.13ZM4.51,81.73v.26l.13-.13-.13-.13ZM5.68,86.68l-.52-.52c-.07.54-.03.59.52.52ZM5.94,87.98c.19-.37-.16-.7-.25-.52-.19.37.16.7.25.52ZM6.72,88.24s-.55-.1-.52.13c.41.71.81.17.52-.13ZM7.24,89.28c.19-.37-.16-.7-.25-.52-.19.37.16.7.25.52ZM8.02,90.85c.12-.27-.38-1.25-.78-1.3-.06.36.67,1.53.78,1.3ZM6.59,90.33v.26l.13-.13-.13-.13ZM8.68,91.63v.26l.13-.13-.13-.13ZM9.8,92.47c-.14-.09-.7-.17-.73.07l1.43,1.43c.03-.26-.63-1.46-.7-1.5ZM48.02,93.46v.26l.13-.13-.13-.13ZM46.58,93.72c-.16-.14-.69-.06-.51.38.04.1.9,1.57,1.03,1.77,1.5,2.24,6.91,8.05,9.39,8.93,2.16.76,3.6-.59,5.73-.65.08-.72-.03-.41-.39-.52-2.14-.62-4.16-.99-6.17-2.11-.66-.37-1.12-1.04-2-1.51-1.68-.89-1.1-.84-1.93-1.53-.24-.2-.85-.12-1.09-.29-.09-.07-.81-1.14-1.27-1.51-.94-.77-1.55-1.28-2.42-2.14-.26-.26-.34-.77-.37-.8ZM11.02,94.24v.26l.13-.13-.13-.13ZM12.59,95.8v.26l.13-.13-.13-.13ZM77.57,100.21c.05-.07.12-.75-.11-.76l-2.21,1.3c.37,0,2.25-.43,2.33-.54ZM58.96,99.72c-.26.18.14.36.27.51.26-.17-.12-.35-.27-.51ZM59.74,99.97v.26l.13-.13-.13-.13ZM80.97,100.49c-.63-1.12-.41-.07-.88.29-.35.27-.97.05-.94.5.93.2,1.12-.6,1.82-.78ZM60.91,100.24c-.37-.19-.7.16-.52.26.37.19.7-.16.52-.26ZM63.26,100.76s-1.26-.31-1.3-.26c-.67.77,2.18,1.04,1.3.26ZM61.04,100.75v.26l.13-.13-.13-.13ZM63.91,101.01v.26l.13-.13-.13-.13ZM64.95,101.27v.26l.13-.13-.13-.13ZM61.3,101.8c-.26.18.14.36.27.51.26-.17-.12-.35-.27-.51ZM78.24,101.8c-.59.39-.32.75,0,.26.09-.13.21-.14,0-.26ZM62.34,102.06c-.26.18.14.36.27.51.26-.17-.12-.35-.27-.51ZM75.89,102.06v.26l.13-.13-.13-.13ZM24.83,102.32v.26l.13-.13-.13-.13ZM75.24,102.32l-.78.13c.35.49.56.44.78-.13ZM23.34,103.19l-2.28-.35c1.1.19,1.87,1.47,2.8,2.08,5.56,3.63,12.97,6.01,19.6,6,.11-.88-.22-.35-.49-.41-1.96-.44-4.01-.73-5.93-1.35-4.66-1.51-9-4.33-13.7-5.97ZM64.43,102.58v.26l.13-.13-.13-.13ZM64.95,102.58v.26l.13-.13-.13-.13ZM73.42,103.1c-.06,0-.45-.5-.52-.13-.11.48.02,1.33.52.91.07-.06-.06-.45,0-.52.07-.07.77.23.52-.78-.39-.11-.23.5-.52.52ZM77.06,103.1c.19-.37-.16-.7-.25-.52-.19.37.16.7.25.52ZM77.46,102.58v.26l.13-.13-.13-.13ZM65.99,102.84v.26l.13-.13-.13-.13ZM70.94,102.84v.26l.13-.13-.13-.13ZM74.33,102.84v.26l.13-.13-.13-.13ZM76.54,103.1c-.37-.19-.7.16-.52.26.37.19.7-.16.52-.26ZM72.25,103.36v.26l.13-.13-.13-.13ZM63,103.62c-.37-.19-.7.16-.52.26.37.19.7-.16.52-.26ZM63.26,107.53s-.41.65,0,.39c1.33-.11,8.82-3.14,8.86-3.91.04-.87-2.12.11-2.24.12-3.56.4-6.77,1.33-9.92,1.84-.07.01-1.71-.32-1.12.25.43.41,3.39.57,3.65,1.56-1.6-.12-3.64-1.15-5.09-1.31-2.49-.27-6.41.77-8.84.9-3.68.2-7.97-.07-11.13-.44-1.11-.13-2.23-.27-3.34-.45,1.38,1.06,3.93,1.83,5.68,2.27,6.1,1.52,16.02,2.23,21.94-.05.62-.24,1.24-1.49,1.56-1.17ZM75.76,103.62c-.54-.07-.59-.03-.52.52l.52-.52ZM74.98,103.88c-.72-.17-.37.25-.78.65l.78-.65ZM73.68,105.18s.18-.64.14-.78c-.62.3-.35,1.04-.14.78ZM35.25,104.93c-.16.22-.76.51-.53.77.14-.21.75-.49.53-.77ZM73.16,104.93c-.27-.21-.91.41-.78.52.27.21.91-.41.78-.52ZM71.99,105.45c-.59.39-.32.75,0,.26.09-.13.21-.14,0-.26ZM30.04,105.71v.26l.13-.13-.13-.13ZM33.17,106.23v.26l.13-.13-.13-.13ZM33.82,106.75c.19-.37-.16-.7-.25-.52-.19.37.16.7.25.52ZM70.68,106.23v.26l.13-.13-.13-.13ZM71.2,106.23v.26l.13-.13-.13-.13ZM44.24,111.18s.1-.77-.13-.78c-.77.44-.22,1.18.13.78ZM44.63,110.66v.26l.13-.13-.13-.13ZM45.8,110.66c-.54-.07-.59-.03-.52.52l.52-.52ZM47.24,110.92v.26l.13-.13-.13-.13Z"/>
      <path class="cls-1" d="M73.42,103.36c-.24.11-.24-.37,0-.26.01,0,.01.26,0,.26Z"/>
      <path class="cls-1" d="M65.34,31.69s.26-.01.26,0c.13.3-.39.3-.26,0Z"/>
      <path class="cls-1" d="M76.54,28.56s-.02-.25,0-.26c.06-.02.25-.01.26,0,.12.21-.25.25-.26.26Z"/>
      <path class="cls-1" d="M76.28,28.56c.09,0,.18.02.26,0-.1.09-.04.33-.26,0Z"/>
      <path class="cls-1" d="M40.59,105.44l-.78-.13c.35-.49.56-.44.78.13Z"/>
      <polygon class="cls-1" points="39.42 104.92 39.55 105.05 39.42 105.18 39.42 104.92"/>
      <path class="cls-1" d="M94.26,33.77c-.5.35-.81-.39-.13-.77-.09.23.16.75.13.77Z"/>
      <polygon class="cls-1" points="94.39 34.03 94.52 34.16 94.39 34.29 94.39 34.03"/>
      <polygon class="cls-1" points="85.53 30.12 85.66 30.25 85.53 30.38 85.53 30.12"/>
    </g>
  </g>
</svg>