<?xml version="1.0" encoding="UTF-8"?>
<svg id="Layer_3" data-name="Layer 3" xmlns="http://www.w3.org/2000/svg" viewBox="0 0 100 107.13">
  <defs>
    <style>
      .cls-1 {
        fill: #fff;
      }
    </style>
  </defs>
  <g id="Sketchy_Icons" data-name="Sketchy Icons">
    <g>
      <path class="cls-1" d="M62.01,46.71c.4.38-.34,3.01-.56,3.68l.35-.49c.86.22,1.16-.65,1.23-.66.42-.06,1.61.68,1.84.99.14.18.58,2.9.89,3.63.96,2.3,3.55,5.25,4.32,7.29.53,1.42.78,2.76-.84,3.42-.44.18-3.64.37-4.27.39-2.09.07-6.16.13-7.93-.56-.15-.06-.57.21-.67.14-.16-.12-.84-3.42-.85-3.86-.02-.97.5-2.11.89-3.02,1.17-2.69,3.55-5.19,4.44-8.29.21-.72.19-3.59,1.16-2.66ZM62.99,50.82c-.18-.23-.04-.5-.41-.42.03.88-1.54,1.02-1,1.7.55-.64,1.25-1.41,1.52-.19l-4.21,8.96,8.77,1.42c.43-1.17-.77-1.62-.93-2.05-.67-1.73-1.5-3.37-2.23-5.12-.52-1.25-.85-3.43-1.52-4.3ZM60.87,54.64c.13-.13.57-1.89.57-2.26l-1.12,1.85c-.22.49.42.54.55.41ZM57.76,60.87c.75-1.97,2.4-3.81,2.55-5.94l-2.7,4.81.15,1.14ZM62.82,62.09l-4.32-.08c-.27-.02-.21.57-.17.71.28.89,6.47.32,7.36.42-.25-.94-1.46-.25-1.82-.28-.09,0-.98-.74-1.06-.77ZM57.48,62.01c-.71-.81-.7,1.92,0,1.13.04-.04.04-1.09,0-1.13Z"/>
      <path class="cls-1" d="M31.43,84.38c.22.37.24-.49.42-.57l.99.85c-1.01-.63-.86.29-.98.29-.47-.02-.96-.62-.71-1.14.22-.46.26.53.28.56Z"/>
      <path class="cls-1" d="M34.4,84.1c.42,0,.42.84,0,.84s-.42-.84,0-.84Z"/>
      <path class="cls-1" d="M48.42,87.5s.19.69.15.84h-1.56c.08-.17,1.3-.96,1.41-.84Z"/>
      <path class="cls-1" d="M33.69,84.38c.32.33-.12.91-.56.14-.04-.25.54-.16.56-.14Z"/>
      <path class="cls-1" d="M35.68,84.94c-.1.19-.48-.17-.28-.56.1-.19.48.17.28.56Z"/>
      <polygon class="cls-1" points="31.57 78.72 31.71 78.86 31.57 79 31.57 78.72"/>
      <path class="cls-1" d="M50.68,29.16c0,2.18-1.83,4.24-.6.66.15-.43-.25-.81.6-.66Z"/>
      <path class="cls-1" d="M15.01,78.72c-7.12-4.67-9.71-14.53-12.36-21.8C-8.69,25.84,18.46,8.8,44.68,1.49c19.84-5.54,32.42,5.06,43.37,20.17,9.6,13.25,17.12,39.65,7.45,54.44-2.07,3.17-5.96,8.01-8.41,10.85-.27.31-.88.49-.95.6-.06.09.25.49.23.51-.06.04-.5-.08-.74.1-1.38,1.03-1.39,3.2-1.53,4.86-.26,3.2.14,6.46-.27,9.64-.55,1.2-2.08,1.63-2.22,1.89-.22.39.07,2.09-.53,2.22-1.72.37-3.77-.16-5.46-.17-1.96-.01-4,.26-5.82.32-.29,0-1.02-.71-1.7.12v-.56c-1.48.79-2.81.28-4.24.31-2.06.05-6.63.55-8.45.27-.2-.03-.16-.53-.38-.58-2.03-.47-4.52.05-6.79-1.05-4.11-1.98-4.64-4.36-4.8-8.76-.05-1.31.65-7.44-.38-8.19-.51-.37-1.66.19-1.86.13-2.23-.78-5.32-.88-7.88-1.48-4.81-1.13-14.43-5.07-18.02-8.39-.06-.05-.4-.63-.28,0ZM54,.92c-.97-.3-1.35.61-1.81.72-.57.14-2.04-.25-3.07,0-.51.13-1.84.38-.98.76.2.09,3.54-.39,4.39-.4,6.04-.03,12.1,1.28,17.69,3.51-1.11-.73-2.49-1.41-3.71-1.95-2.43-1.08-6.19-2.07-9.21-2.32-1.64-.14-1.67.19-3.3-.32ZM47.29,1.97c-.31-.31-.87.25-.56.56s.87-.25.56-.56ZM45.45,2.54v.28l.14-.14-.14-.14ZM65.35,4.88c-8-2.88-23.73-1.87-31.22,2-.92.47-4.55,2.57-5.5,3.48-1.81,1.73.52.25,1.35-.07,13-5.01,30.09-7.15,43.04-1.05.27.13,1.94,1.33,2.02,1.24.59-.74-1.31-1.41-1.64-1.6-.27-.17-.28-.55-.56-.65-.78-.28-1.07.54-.77-.85-.18.32-2.35-.18-2.51-.27-.37-.2-.1-.78-.18-.87-.1-.1-.76.2-1.14.1-.7-.18-2.43-1.29-2.88-1.45ZM71.35,5.94c-.4-.2-.76.18-.56.28.4.2.76-.18.56-.28ZM64.56,104.2h7.22c1.54,0,.35-1.29.25-2.27-.06-.55.49-4.86.61-5.1.04-.07,1.04-1.13,1.12-1.13,1.65-.07-.17,7.33.43,7.92.47.47,2.83-.91,3.24-1.43.97-1.24.89-5.13,1.05-6.88.06-.66.5-1.87.5-2.33,0-.16-.57-.06-.54-.25.01-.1.83-1.71.98-1.86.66-.65.46.62,1,.57.94-2.11-1.85-1.41.57-2.64.22-.11.62.11.86-.03.19-.11.05-.72.52-1.15,2.3-2.14,5.17-3.88,7.26-6.36,1.62-1.92,3.96-6.33,4.54-8.77.07-.29.37-.93-.15-.86-.56,2.44-2.62,4.03-4.15,5.78-1.7,1.94-2.62,3.28-4.96,4.81-1.22.8-.28.19-.62.66-.57.8-1.79.57-2.31,1.48-.31-.76,1.47-1.54,2.09-2.15,4.45-4.39,9.48-9.99,11.41-16.06,4.48-14.07-4.41-39.94-14.49-49.92-3.61-3.57-6.74-4.44-10.87-6.91-.11-.07-.73-1.61-.6-.02-.53-.19-1.08-.5-1.61-.68-3.46-1.17-8.76-2.2-12.57-1.58-.2.03-.07-.49-.26-.53-.23-.04-4.24.09-4.73.13-8.43.6-21.1,4.21-28.23,8.79-8.81,5.65-15.63,19.84-16.99,30.03-.44,3.31-.01,6.07-.08,9.31,0,.44-.24.81-.52,1.12.16.29.53-.19.56-.15.15.21.44,4.2.71,5.1,1.32,4.48,7.79,11.11,11.84,13.37,4.19,2.34,8.93,3.24,13.51,4.48-.45,1.1-.72.05-.99,0-.1-.02.46,1.58-1.42-.28.4,1.03-1.06.31-1.7.16-.8-.19-2.64-.99-2.81-.98-.27,0-.98.46-1.29.25-.02-.01.23-.41.15-.49-.63-.56-2.61.62-2.13-.93-.49-.15-.14.68-.42.56-.18-.08-.44-.46-.79-.62-.87-.39-.78-.52-1.27-.79-.8-.44-2.55-.36-2.47-1.7-1.12,1.19-.48.12-.76-.23-.05-.06-1.03-.28-1.51-.63-1.15-.82-2.18-2.73-3.66-3.41l-1.01-1.68c-.52-.05-.31.62-.13.85,5.42,7.36,8.99,11.43,18.29,14.03.58.16,3.22.73,3.37.83.52.33.14.95-.15,1-.57.1-1.08-1.27-.98,0,1.39.97,13.7,3.41,14.14,2.83.16-.21.08-1.73.33-1.93.06-.05.43.18.55.1.21-.14.04-.55.13-.63.03-.02.68-.11.7-.08.2.34-.31,1.39-.08,1.91.26.6,1.11.82,1.49,1.35-.77-.24-1.3.22-1.33,1.07-.07,1.63.49,7.77.84,9.34.19.86,1.41,3.85,2,4.37.99.87,5.78,1.49,6.32.53.14-.24-.67-7.01.82-4.7.37.58-.23,1.75.41,1.99-.06-.91.76-.57.98-.84.18-.23.17-.71.45-.99.66-.65,1.83-.62,1.69.54.06.64-1.9,4.27-1.7,4.41s4.37.31,4.53.16c.5-.46-.33-4.36.55-5.11.12-.1.56.17.57.14.08-.14-.11-3.29.71-2.83.29.16.38.7.59.84.32.23.67.12.85.27.73.63-.29,5.13.09,6.4l-.53.42ZM27.47,9.33c.92.09,1.56-.81,2.26-1.27-.75.19-1.86.58-2.26,1.27ZM27.18,9.34c-.78-.12-1.2.73-1.72.99C12.58,16.82,1.49,27.11.7,42.91l1.29,9.19c.5.06.28-.67.28-1.01,0-2.2-.5-4.8-.42-7.07.62-16.73,11.74-24.07,23.52-32.81.54-.4,1.7-1.2,1.81-1.87ZM75.74,10.47v.28l.14-.14-.14-.14ZM76.59,11.04c-.28.2.15.39.29.55.28-.19-.13-.37-.29-.55ZM27.18,11.32c-.32-.25-.89.44-1.13.71.3.18,1.29-.58,1.13-.71ZM13.31,22.07c.54.09.94-.33.85-.85l-.85.85ZM13.31,22.36c-.39-.42-2.46,2.56-3.04,2.61-.97,1.94-3.67,4.87-4.54,7.24-.36.99.29,1.82-.63,1.18-1.73,6.02-2.79,11.86-1.7,18.12.91-.26.11-1.37.12-1.84.14-6.91,3.29-16,6.63-22.13.35-.64,3.37-4.97,3.16-5.19ZM97.68,47.85c.2-.4-.18-.76-.28-.56-.2.4.18.76.28.56ZM95.42,74.18c3.51-7.24,3.71-15.38,2.83-23.22l-.29,2.7c.32,5.16-.22,11.23-1.54,16.27-.34,1.31-1.08,2.59-1.54,3.84-.18.49.18.46.54.4ZM3.97,51.82c-.59-.08-.64-.03-.56.56l.56-.56ZM2.41,52.38v.28l.14-.14-.14-.14ZM94.57,71.35c.2-.4-.18-.76-.28-.56-.2.4.18.76.28.56ZM14.87,77.87v.28l.14-.14-.14-.14ZM87.63,84.1v.28l.14-.14-.14-.14ZM86.53,85.97c.04-.05.6-.89.11-.6-.31.53-3.67,2.83-3.68,3.12,0,.19.41.51.85.29.36-.19,2.33-2.33,2.72-2.81ZM81.55,90.61c.16.14,1.06-.94,1.18-1.23.7-1.63-2.28.3-1.18,1.23ZM80.84,89.48v.28l.14-.14-.14-.14ZM83.67,89.76v.28l.14-.14-.14-.14ZM82.68,91.18c-.23-.24-1.3.26-1.35.74l.22,7.19c.39-.07.57-.48.68-.82.23-.76.85-6.69.45-7.11ZM80.42,103.35v-11.33s-.68,2.51-.68,2.51c-.27,2.35.03,6.61-1.34,8.36-.26.33-.61.34-.82.6.39.08,2.73-.04,2.84-.14ZM81.83,100.24c.2-.44-.14-1.15-.28-.85-.2.44.14,1.15.28.85ZM81.69,100.81v.28l.14-.14-.14-.14ZM82.54,102.22v.28l.14-.14-.14-.14ZM64.13,103.92v.28l.14-.14-.14-.14ZM78.57,105.34v.28l.14-.14-.14-.14ZM80.27,105.34v.28l.14-.14-.14-.14Z"/>
      <path class="cls-1" d="M49.27,32.55c-.1.19-.48-.17-.28-.56.1-.19.48.17.28.56Z"/>
      <path class="cls-1" d="M15.01,78.72s.28-.02.28,0c.12.64-.26.02-.28,0Z"/>
      <polygon class="cls-1" points="48.28 34.25 48.42 34.4 48.28 34.54 48.28 34.25"/>
      <path class="cls-1" d="M51.68,46.87c-2.33,2.66-7.82,6.92-11.7,5.32-.32-.13-.28-.57-.55-.65-.34-.1-.88.12-1.16-.05-.11-.07-1.13-2.04-1.23-2.3-.7-1.83-.56-6.48-.15-8.48,1.63-7.9,8.35-24.92,19.03-17.2,7.44,5.38.24,18.26-4.24,23.37ZM51.25,24.34c-.82-.77-4.85,2.95-5.65,3.54.52.69.44.24.87.03.76-.38,1.25-.94,2.18-1.22.56-.17,2.77-.22,2.89-.37.06-.08-.21-1.91-.29-1.98ZM54.08,28.31c.02-1.62-.13-2.97-1.56-3.96-.98,2.39-.23,2.57,1.56,3.96ZM50.69,28.88c.02-.43.02-1.28-.44-1.42-.1-.03-1.94.43-2.03.47-.19.08-2.77,1.7-2.88,1.84-3.04,4.06-5.88,9.09-4.7,14.53.08.36.79,1.18.71,1.27-.27.29-1.86-1.19-1.2-1.64l-.78-.91c-.1,1.71-.32,4.4,2.06,4.44,5.56.11,13.18-11.18,12.18-16.3-.21-1.07-.85-3.13-2.19-2.89-.27.05-.01.9-.74.58ZM51.11,27.74v.28l.14-.14-.14-.14ZM53.39,41.5c2.11-3.4,3.45-8.57,2.52-12.48-.1-.42-.18-.73-.56-.99-.03,5.89-1.46,11.48-4.95,16.29-.27.37-1.04.47-1.13,1.41,1.58-.59,3.24-2.82,4.12-4.23ZM45.45,28.31v.28l.14-.14-.14-.14ZM57.62,28.31v.28l.14-.14-.14-.14ZM57.9,31.71v.28l.14-.14-.14-.14ZM49.41,43.6v.28l.14-.14-.14-.14ZM47.46,46.32c.04-.05.6-.89.11-.6l-1.74,1.38-3.64,1.59c2.42.09,3.81-.56,5.27-2.37ZM41.34,51.24c2.09.02,4.82-.86,6.43-2.2.32-.27.78-.32.64-.91-.92.88-1.89,1.38-3.16,1.49l-3.91,1.62ZM39.5,48.98v.28l.14-.14-.14-.14ZM41.06,50.68c-.4-.2-.76.18-.56.28.4.2.76-.18.56-.28Z"/>
      <polygon class="cls-1" points="47.99 35.1 48.14 35.25 47.99 35.39 47.99 35.1"/>
      <g>
        <path class="cls-1" d="M83.41,28.44c3.42,3.5,7.51,10.31,8.53,15.11,1.3,6.11-.6,11.62-7.91,9.38-.1-.03-1.66-.79-1.74-.85-.35-.25-.45-.78-.49-.8-.14-.07-.71.37-.82.25-.07-.09.09-.62-.02-.82-.02-.04-.39.15-.53.06-1.3-.82-4.53-4.19-5.09-5.4-.12-.25.07-.78-.01-.92-.02-.03-.45.29-.52.24-.08-.05-.84-1.49-.95-1.74-.3-.74-.22-2.68-1.08-1.89.42-1.2-.44-1.39-.65-2.8-.11-.71.17-1.96.09-2.02-.11-.09-.75.09-.85,0-.06-.06.15-1.4.12-1.82-.07-1.06-.29-3.38,0-4.41.62-2.26,1.99-1.81,2.99-2.96s.43-2.22,2.72-2.4c2.09-.16,4.8,2.34,6.21,3.8ZM76.88,25.77l-.99.7c.28.09,1.25-.39.99-.7ZM77.44,25.76v.28l.14-.14-.14-.14ZM77.72,27.46v.28l.14-.14-.14-.14ZM81.5,29.2c-.06-.09-1.68-1.36-1.79-1.38-.77-.14-.91.76-.59,1.34,3.13,3.56,5.19,7.73,7.45,11.81l1.2,3.19c-.04-.98.1-1.98-.02-2.96-.05-.44-1.48-5.08-1.72-5.22-.16-.09-.61.06-.75-.07-.18-.18-1.74-3.79-2.13-4.4-.17-.26-.97-.64-.98-.7-.06-.21.32-.66.23-.8-.03-.05-1.06-.21-1.13-.3-.03-.04.29-.41.23-.5ZM75.03,41.9c-1.48-4.26-1.36-8.84-1.27-13.31-1.41.49-1.6,3.08-1.49,4.37.12,1.46,1.45,7.05,2.02,8.3.02.04.58.63.74.63ZM79.92,45.51s.97.51.64.07c-1.06-1.01-.94-2.19-1.29-3.22-1.4-4.11-2.18-7.17-2.11-11.66.01-.7.99-1.67-.14-2.11.03.73.61,1.31-.43,1.42-.09,0-.53-1.61-.91.2-.85,4.16,1.55,11.98,4.24,15.3ZM78.72,31.71c-.29,3.1.71,8.56,2.06,11.68.16.38,1.82,3.42,1.98,3.55.7.59,3.69.44,3.91-.93.06-.4-.74-3.42-.96-3.94-1.2-2.81-3.4-5.76-5.11-8.4-.25-.38-.4-1.35-.46-1.39-.03-.02-.53.32-.56.29-.03-.05-.06-.65-.29-1.14-.09-.18-.4-1.18-.56-.85-.08.17.03.81,0,1.13ZM89.19,39.35c.17-.33-.18-.65-.42-.84-.12.28.29,1.11.42.84ZM89.47,40.2c.2-.4-.18-.76-.28-.56-.2.4.18.76.28.56ZM89.76,41.05c.2-.4-.18-.76-.28-.56-.2.4.18.76.28.56ZM86.36,52.38c1.15-.44,2.13-.14,3.21-.89,2.51-1.74,1.35-7.67.46-10.15-1,.47.09,1.64.18,2.46.28,2.48.3,5.94-2.02,7.45l-1.84,1.13ZM87.21,47.85c-.35-.38-3.98,1.34-1.14,1.86,1.44.27,1.43-1.55,1.14-1.86ZM85.79,51.53l-2.26-.57c.01.47.79.34,1.23.56.19.1.33,1.16,1.04,0Z"/>
        <path class="cls-1" d="M78.72,31.71s.24.04.28,0c-.02.02-.38.64-.28,0Z"/>
        <path class="cls-1" d="M79,31.71s.11-.46.28-.28-.25.25-.28.28Z"/>
      </g>
    </g>
  </g>
</svg>