<?xml version="1.0" encoding="UTF-8"?>
<svg id="Layer_3" data-name="Layer 3" xmlns="http://www.w3.org/2000/svg" viewBox="0 0 66.23 51.23">
  <g id="Skulls">
    <g id="Layer_29_Image" data-name="Layer 29 Image">
      <g>
        <path d="M41.2,1.99c4.85,1.82,15.38,8.73,18.89,12.87,4.96,5.84,8.53,15.3,4.21,22.3-1.16,1.88-5.19,5.35-7.06,6.45-.31.18-3.53,1.77-3.51.91.01-.37,1.73-.34.83-1.07-.19.87-.55.19-.79.3-.04.01-.04.34-.23.4-1.49.49-6.66,2-8.03,1.7-.3-.06,0-.59-.39-.48.29.78-1.38.24-1.87.07-.33-.11-1.51-.94-1.72-.79-.11.08-.48,2.1-.67,2.56-.61,1.49-1.95,2.91-3.53,3.28-.25.06-3.17.09-3.33.03-.5-.18-.98-.82-1.44-.84-.83-.03-1.91,1.81-3.8,1.17-1.29-.44-1.96-2.63-2.41-2.62-.22,0-2.18,2.79-3.21,3-.85-.42-2.17-.14-2.95-.6-.21-.12-1.75-1.91-1.83-2.11-.69-1.57-1.26-5.1-1.68-6.87-.02-.07.27-1.66-.49-1.06-.09.07.2.57-.24.47.09-.96-1.61-.53-1.08-.24.24.13,1.31.28,1.31.6,0,.59-1.85-.03-1.91-.12-.04-.06.31-.45.21-.67-.02-.05-.75-.75-.81-.75-1-.13.62,1.13.6,1.19-.99.25-1.39.02-2.21-.47C6.33,37.18,1.2,34.02.16,26.1c-.88-6.7,2.07-10.81,6.52-14.9C16.56,2.12,27.66-3.09,41.2,1.99ZM31.52.86c-.13-.08.11-.52-.28-.41.18.87-.85.15-.96.71l2.63.24c.19-.92-.91-.24-1.39-.54ZM29.8,1.4l-1.19-.47c-.19.82.79.13,1.19.47ZM26.7.93c-.24-.24-.96.47-.71.71s.96-.47.71-.71ZM28.37.93c-.06-.06-1.71.02-1.19.48.17.15,1.73.07,1.19-.48ZM33.39,1.4c.13.16.95.25.95-.12,0-.5-1.48-.49-.95.12ZM35.07,1.17c-.28-.27-.77.1-.12.48.21.03.13-.46.12-.48ZM35.54,1.64c.07.06,1.59.16,1.91.12l-1.79-.6c-.2-.03-.14.46-.12.47ZM25.26,1.41c-.3-.14-1.38-.02-1.43.47.3-.02,1.78-.31,1.43-.47ZM23.35,2.12s.09-.51-.12-.48c-.65.37-.16.75.12.48ZM38.17,2.12s.09-.51-.12-.48c-.65.37-.16.75.12.48ZM22.51,1.88v.24l.12-.12-.12-.12ZM38.6,2.92c-6.35-1.62-15.25-.7-21.1,1.7-.79.32-1.4,1.28-1.93.86.23.67-.89.68-1.51,1.1-3.06,2.09-6.32,5.07-8.41,7.85-.32.42-1.62,1.33-.32,1.12,5.9-4.74,13.82-7.34,21.27-8.38,8.11-1.13,16.52-.72,24.24,2.12-1.92-1.87-4.32-3.07-6.56-4.34-1.72.06-.82-.28-1.1-.68-.07-.1-2.19.42-1.68-.71-1.05.85-.55.24-.75.07-.1-.08-2.05-.67-2.17-.7ZM31.6,1.88v.24l.12-.12-.12-.12ZM38.53,1.88v.24l.12-.12-.12-.12ZM39.97,2.12v.24l.12-.12-.12-.12ZM39.49,2.36v.24l.12-.12-.12-.12ZM40.69,2.6v.24l.12-.12-.12-.12ZM41.64,2.84v.24l.12-.12-.12-.12ZM18.45,3.32v.24l.12-.12-.12-.12ZM37.06,7.52c-.15-.09.02-.41-.2-.39-.24.02-.01.38-.23.45-.17.05-2.97-.19-3.56-.13-.37.04-.64.38-.76.4-.17.03-.06-.41-.22-.44-.59-.11-5.34.58-5.98.68-3.69.58-8.67,1.8-12.06,3.26-3.03,1.3-8.41,4.45-10.45,6.99-.32.4-.31.94-.34.98-.02.02-.45-.26-.47-.24-.09.1-.76,2.32-.82,2.6-.47,2.36-.07,5.28.89,7.48,1.09,2.48,5.47,7.85,7.84,9.13.61.33,5.4,1.9,5.81,1.8.71-.17.28-3.36,1.09-2.61.35.32-.23,1.49.39,1.64.32.08.69-.59.73.43.11,2.69-.47,5.66,1.29,8.01.89,1.19,2.98,1.99,4.29,1.01,1.09-.81,1.26-2.76,1.95-3.55.35-.4.83-.33.9-.42.12-.15-.15-1.26.64-1.1.92.19.69,2.7.84,3.36.04.2.4.19.47.33.18.35.24,1.14.62,1.26.91.29,1.42-1.65,2.19-1.86.83-.24,1.09.34,1.39.35.37.02.82-.74,1.42-.64.18.03.78,2.94,2.29,2.54,1.2-.32,2.68-3.61,2.84-4.83.07-.52-.07-2.63.02-2.73.14-.15.92.28.95.24.28-.39.02-3.83.6-3.82.94.02.3,4.22.63,4.74.65,1.02,7.61.06,8.91-.23,5.97-1.3,12.04-3.47,12.05-10.61,0-6.72-5.25-15.46-9.74-19.64-.23-.21-.72-.96-.77-.98-.14-.07-.69.31-.92.19-.03-.01.26-.45,0-.6-.29-.17-.49.12-.67.05-2.92-1.15-5.73-2.33-8.83-2.78-1.15-.17-2.92-.38-4.03-.49-.13-.01.13.81-.99.15ZM21.08,8.57v.24l.12-.12-.12-.12ZM53.96,10.49s-.69-.27-.71-.24c-.54.64,1.08.56.71.24ZM54.32,10.96v.24l.12-.12-.12-.12ZM56.67,13.97c-.09-.06-.17-.99-.31-.03,3.01,3.63,5.61,8.06,6.81,12.79.59,2.32.88,6.21.3,8.48-.02.08-.83,1.22-.89,1.44-.03.2.44.14.47.12.08-.07,1.09-1.74,1.14-1.85,1-2.51.44-8.23-.24-10.85-.38-1.48-2.26-5.39-3.06-6.62-.01-.02-.35.17-.46.07-1.4-1.2-2.12-2.46-3.75-3.53ZM4.34,14.55c-.15.21-.69.47-.48.71.13-.19.68-.45.48-.71ZM3.02,17.65c-.37-.75.29-1.02.36-1.67-.44.41-1.33,1.29-.36,1.67ZM4.69,15.98c-.34-.17-.64.15-.48.23.34.17.64-.15.48-.23ZM1.47,20.04v.24l.12-.12-.12-.12ZM2.9,31.27v.24l.12-.12-.12-.12ZM61.01,38.67v.24l.12-.12-.12-.12ZM59.58,39.39v.24l.12-.12-.12-.12ZM12.59,40.1c.28.14.55-.15.71-.36-.24-.1-.94.24-.71.36ZM58.5,40.35c-.66-.16-.34.23-.71.6l.71-.6ZM42.48,44.4c.07.09,1.94.47,2.26.49,3.59.29,7.94-1.46,11.13-3-.9.25-2.01.29-2.89.51-2.59.64-5.34,1.7-8.44,1.68-.29,0-2.01-.48-2.06-.39-.03.04-.02.68,0,.71ZM56.47,42.49v.24l.12-.12-.12-.12ZM55.99,42.97v.24l.12-.12-.12-.12ZM55.63,43.21c-.5-.07-.54-.02-.48.48l.48-.48ZM27.53,46.56v.24l.12-.12-.12-.12ZM27.89,48.47s.59.15.71.12c-.63-1.43-1.05-.5-.71-.12ZM34.35,48.47c.17-.34-.15-.64-.23-.48-.17.34.15.64.23.48ZM34.95,48.47v.24l.12-.12-.12-.12Z"/>
        <path d="M25.36,12.77c2.97,3.51,3.36,9.25,0,12.59-.06.06.1.39-.08.53-.32.25-.71.23-1.03.38-.18.09-.16.4-.34.44-.48.1-3.49-.53-3.85-.76-.13-.09-1.65-2.37-1.78-2.64-1.5-3.14-1.73-9.53.3-12.4,1.65-2.35,5.42.25,6.79,1.86ZM24.72,14.61c-.05-.07-.94-1.21-1-1.27-.59-.57-2.04-1.34-2.88-1.16-2.12.45-2.11,5.94-1.36,7.55.56,1.2,2.24,2.69,3.54,2.93,2.18.41,2.55-.89,2.73-2.76.15-1.45-.31-4.19-1.03-5.29ZM24.78,23.39c-.92-.17-.74.73-1.67.87-.51.08-.93-.59-1.44-.04,1.11,1.1,2.41.35,3.11-.83ZM21.43,23.62c-.37-.17-.97.12-.71.23.37.17.97-.12.71-.23Z"/>
        <path d="M48.38,13.19c.95.89,1.16,3.58,1.04,4.81-.14,1.32-1.7,4.9-2.49,6-1.65,2.3-5.61,4.22-8.02,1.87-.2-.2-.19-.51-.34-.73-.1-.15-.42-.2-.48-.32-.04-.07-.25-1.49-.25-1.64-.06-3.13,1.46-5.94,3.72-8.02,1.6-1.47,4.78-3.89,6.83-1.97ZM46.66,15.63c-.98-1.39-.78-.62-1.67-.48-1.9.29-3.28,2.02-3.87,3.88-.22.71-.1,1.54-.23,1.91-.1.28-.51.26-.55.46-.14.63.04,2.74.62,3.16,1.13.82,3.41-1.11,4.16-2.01.19-.23,1.07-1.29,1.12-1.37.2-.34,1-3.02,1.02-3.45.04-.86-.16-1.49-.59-2.1Z"/>
        <path d="M36.68,31.56c.15.29.12.93.05,1.25-.36,1.71-3.14.53-4.2.39-1.55-.22-2.96-.41-4.16-.61-.21-.03-.44-.31-.64-.32-.28-.02-1.02.84-1.24-.21-.14-.66.84-1.34-.51-.79-.33-1.05.81-1.36,1.08-1.93.2-.42-.18-1.04.18-1.35.59-.52,2.71-.89,3.53-1.19,1.31-.48,1.16-1.27,3.23-.78,1,.23,1.07,2.94,1.51,3.98.29.69,1.08,1.37,1.18,1.56ZM33.63,26.97c-.73-.83-.21,1.41,0,.95.04-.08.03-.92,0-.95ZM33.87,32.22c.14-1.08-.63-1.95-1.05-2.89-.2-.45-.2-1.72-.73-1.81-.18-.03-1.4.66-1.57.81-.06.05-.88.89-.94.95-.45.47-1.74,1.49-.81,1.92,1.06.49,3.83.24,5.11,1.03ZM28.97,28.16v.24l.12-.12-.12-.12ZM28.49,28.4v.24l.12-.12-.12-.12ZM35.65,32.35c-.06-.07-.22-.62-.34-.37-.58,1.25,1.16,1.21.71.48-.01-.02-.26.01-.37-.11Z"/>
        <polygon points="18.92 40.58 19.04 40.7 18.92 40.82 18.92 40.58"/>
      </g>
    </g>
  </g>
</svg>