<?xml version="1.0" encoding="UTF-8"?>
<svg id="Layer_3" data-name="Layer 3" xmlns="http://www.w3.org/2000/svg" viewBox="0 0 100 114.03">
  <defs>
    <style>
      .cls-1 {
        fill: #fff;
      }
    </style>
  </defs>
  <g id="Sketchy_Icons" data-name="Sketchy Icons">
    <g>
      <path class="cls-1" d="M66.23,1.15c1.47-.33,2.28-.96,4.91-.54,23.5,3.7,26.41,27.2,28.15,46.58,1.11,12.33,2.16,15.71-7.24,24.69.49-.6,1.54-2.54,1.71-3.39-1.31.68-1.68,2.59-2.39,3.39-.1.11-2.88-.16-.68,1.36-.42.36-.59.82-1.36,1.36.1-.31.2-1.36-.34-1.37-.71,0-.15.96-.34,1.37-.32.67-1.22,2.44-1.7,2.72-.27.16-.5-2.75-1.69-1.35-.23.27.71,1.47.36,2.07-.65,1.13-5.31,1.97-6.2,4.69-.78,2.38,1.03,8.07.98,11.16-.11,6.24-1.74,12.54-5.68,17.43l-.67-2.7c-2.61,1.74-6.42.97-9.52,2.03.74-2.73-.75-.75-2.09-.73-.41,0-.1-1.4-.62-1.32-.65.1-2.59,2.09-4.07,2.44-5.24,1.22-7.21-4.02-9.86-7.19.91,5.36-3.43,7.36-6.45,10.2-1.99-2.65-7.31-2.32-8.43-4.64-2.93-6.05-3.7-16.62-2.79-23.24-1.74-.73-1.2,1.29-1.65,1.27-.94-.03-3.81-.83-4.73-.57-.5.15-.56,2.13-1.09,1.33-.13-.2.31-1.27-.44-1.4-.59-.11-1.51.66-2.32.37-.31-.11-4.98-3.28-5.55-3.72-2.51-1.95-6.29-7.36-7.32-10.2.84.04.64-.66.68-.68.35-.16,1.34.4,1.4-.38.08-1.15-1.94-3.73-.73-5.73l-1.35,1.35c1.5-4.08-2.34-7.96.69-11.88l-1.37,1c.61-2.92.59-6.91,1.34-9.72.11-.43,1.97-1.25,2.05-1.16.16.19-1.14,3.49-1.23,4.63-.05.65.02,6.92.1,7.28.24,1.11,2.14,1.32,2.49,1.01.24-.22-.73-2.19-.68-3.05.39-6.67,3.61-14.57,5.47-21.03l-1.73-1.07c.69,2.44-.41,1.74-1.69,3.39l-.68-1.36c2.13-2.86,4.53-8.06,7.8-10.27,1.2-.81,2.13,1.4,1.72-2.65,2.56,1.46,1.64-.02,2.55-.65,3.66-2.54,7.29-6.61,10.91-8.81C54.98,1.19,82.42-.24,91.86,25.46l2.9,4.25c-1.15-4.07-1.79-9.51-4.53-12.49.3-2.73-2.18-.28-2.27-2.81-.01-.39,2.15-.38,1.36-1-.4-.32-1.53-.11-2.71-1.37l1.34-1.03c-.39-.7-1.06.44-1.34.35-.13-.04-.91-1.56-1.7-2.08-2.01-1.32-2.6-2.19-4.23-3.36-.8-.58-2.39-.38-2.8-.84-.38-.43.03-1.65-.12-1.89-.11-.16-2.41.94-3.91.22-1.24-.6-.81-3.13-1.86-.22-3.21-3.45-3.11-.77-3.37-.75-.31.02-1.14-.54-1.73-.6l-.68-.68ZM73.71,90.91c-.27-1.92-1.85-7.86-1.62-8.68,1.25-4.48,11.22-10.28,13-14.28,4.01-9.04,5.8-33.93,2.15-43.14C70.79-16.64,7.5,27.5,18.39,61.97c1.84,3.89,2.69,13.56,5.03,16.87.96,1.36,9.88,4.52,10.21,5.75.09.36.63,6.96.6,7.37-.22,3.07-.93,2.4-.33,7.01.21,1.59-1.33,2.39,1.08,1.79-1.47,2.38,2.23,4.75,3.37,3.72.16-.15-.09-2.16,1.05-2.69,1.88-.88,1.62,1.53,2.03,1.35,4.02-1.73,4.69-12.25,6.12-12.22,2.73.05,3.99,14.68,7.49,14.66.9,0,2.18-1.27,3.66-.41,1.67-4.3-.03-9.09,1.17-13.51l2.96-3.46c2.16,4.98-.56,13.82,5.46,16.66,4.38,2.06,6.18-7.68,6-10.81-.05-.89-.52-1.72-.58-2.44v-.68ZM34.63,16.79v.68l.34-.34-.34-.34ZM31.57,19.51c-1.42-.2-1.55-.07-1.35,1.35l1.35-1.35ZM26.33,25.14c.69-.91,3.41-1.62,2.87-4.26-.69,1.21-4.84,3.23-5,3.49-.44.68.13,2.2-.1,2.62-.04.07-1.05-.81-1.67-.05-.83,1.04-6.3,11.81-5.8,12.27,1.39,1.29,2.86-3.92,3.25-4.56,1.74-2.85,4.44-6.86,6.45-9.52ZM92.39,29.03v.68l.34-.34-.34-.34ZM16.28,32.43v.68l.34-.34-.34-.34ZM94.09,36.5c.49-.95-.43-1.81-.67-1.35-.49.95.43,1.81.67,1.35ZM17.3,43.3c.11-.13.1-3.16,0-3.39-.72-1.58-2.28,5.99,0,3.39ZM95.45,45.35l-.33-5.44c-1.16,1.23-1.67,4.76.33,5.44ZM15.94,46.03c-.31-.39-2.14,1.99-1.7,2.7.67-1.07,1.3.02,1.38,0,.13-.04.4-2.6.32-2.7ZM91.38,46.03c-.25.57-.01,2.97-.35,4.06,2.44-.96.78-5.05.35-4.06ZM95.79,47.39v.68l.34-.34-.34-.34ZM14.93,50.12c-1.53,1.03-.84,1.95,0,.67.23-.35.55-.36,0-.67ZM90.43,62.79c1.28-3.1,1.94-8.76.94-11.99l-2.08,11.05c-3.38,2.3-.05,3.87,1.15.95ZM12.89,52.15v.68l.34-.34-.34-.34ZM15.6,53.51v.68l.34-.34-.34-.34ZM13.57,55.56c-.98.56-.79,1.72-.69,2.69.98-.56.79-1.72.69-2.69ZM97.15,58.27v.68l.34-.34-.34-.34ZM13.9,58.95c-2.35-.24-.86.46-.96,1.16-.34,2.55-.38,7.61.25,10.05.55,2.11,3.69,3.91,2.45.54-.06-.15-.92-.19-1.01-.64-.29-1.45,1.39-3.44,1.29-3.6-.04-.08-.98.3-1.46-.95-.77-2-.54-4.45-.56-6.56ZM97.15,59.63v.68l.34-.34-.34-.34ZM10.17,60.31v.68l.34-.34-.34-.34ZM14.93,62.35v.68l.34-.34-.34-.34ZM16.62,63.7c.49-.95-.43-1.81-.67-1.35-.49.95.43,1.81.67,1.35ZM95.79,63.71v.68l.34-.34-.34-.34ZM16.96,64.39v.68l.34-.34-.34-.34ZM94.77,67.78c.06-.08.48-1.66.35-2.02-1.62.79-.91,2.71-.35,2.02ZM16.96,67.11v.68l.34-.34-.34-.34ZM18.66,73.22c.15-.33.23-2.97-.33-3.39-1.94.84-.01,4.14.33,3.39ZM9.83,73.24c-.95-.49-1.81.43-1.35.67.95.49,1.81-.43,1.35-.67ZM16.28,73.23v.68l.34-.34-.34-.34ZM20.02,76.62c.13-.11-.99-3.52-1.35-2.71-.45.99-.04,3.86,1.35,2.71ZM25.8,82.75v.68l.34-.34-.34-.34ZM60.46,99.07v.68l.34-.34-.34-.34ZM42.79,105.19v.68l.34-.34-.34-.34Z"/>
      <path class="cls-1" d="M7.79,72.55c-.02.1-.86.18-.68.68-2.57-.11,1.2-2.76.68-.68Z"/>
      <path class="cls-1" d="M73.71,91.59c-.05-.71.01-.61,0-.68v.68Z"/>
      <path class="cls-1" d="M66.23,1.15l.68.68c-.15-.02-.35,1.02-1.69.06-3.09-2.22.82-.7,1.01-.74Z"/>
      <path class="cls-1" d="M.31,69.15c0-.12-.42-.36,0-.68v.68Z"/>
      <path class="cls-1" d="M88.66,74.59c.02-.06.66.06.68,0-.06.04-1.07,1.53-.68,0Z"/>
      <path class="cls-1" d="M90.7,73.23c-.13-.54.39-.46.68-.68-.24.21-.44.47-.68.68Z"/>
      <path class="cls-1" d="M86.62,12.03c-.14-.15-1.5-.93,0-.68.03,0-.02.46,0,.68Z"/>
      <path class="cls-1" d="M11.87,35.83l.68,1.36c-1.4,1.8-3.15,3.52-4.35,5.5-.48.79-.33,2.03-.74,2.72s-1.65-.14-1.7-.07c-.16.24.01,4.04-.67,5.67-.34.82-1.09-.02-2.05,1.13.4.13,1.38-.33,1.35.33-1.49,1.47-1.32,3.37-1.39,5.3l-2,2.51c2.39-.51.24,2.48.31,4.45.14,3.76,2.13,8.7,1.76,12.24-.2,1.89,1.54-.25,1.31.65-1.29,4.96-2.46-2.47-2.57-2.84-.72-2.42-1.29-2.46-1.5-5.65,1.33-.47.01-.49,0-.68-.2-2.74-.52-6.6-.13-9.26.46-3.18.95-4.78,2.85-7.06-.4-.13-1.38.33-1.35-.33,1.27-2.51,2.86-4.9,4.19-7.36,2.42-4.48,3.45-5.21,5.99-8.63Z"/>
      <path class="cls-1" d="M91.38,72.55c.11-.09-.11-.56,0-.68.1-.11.59.11.68,0-.23.22-.44.47-.68.68Z"/>
      <path class="cls-1" d="M5.06,82.07c-.16.23-4.1-1.11-.33-3.4.58.35.43,3.26.33,3.4Z"/>
      <path class="cls-1" d="M63.51.47c.65.55-2.35,1.69-2.71,1.35-.83-.79,1.12-2.71,2.71-1.35Z"/>
      <path class="cls-1" d="M30.19,15.4c-.06.11-1.61.94-2,1.38-.97-2.47,3.13-3.53,2-1.38Z"/>
      <path class="cls-1" d="M45.16,4.55c1.1,1.04-.96,1.8-2.03,1.35.02-.88,1.59-1.77,2.03-1.35Z"/>
      <path class="cls-1" d="M54.68,2.5c-2.75.79-2.64-1.89-1.03-1.35.29.1,1.04.89,1.03,1.35Z"/>
      <path class="cls-1" d="M58.75,2.5c-.33.74-1.14-.98-.67-2.03.33-.74,1.14.98.67,2.03Z"/>
      <path class="cls-1" d="M50.61,3.18s-.26-1.44.33-1.35l1.69,1.7c-.36.12-1.95-.28-2.02-.35Z"/>
      <path class="cls-1" d="M26.81,18.82c-.79.77-2.19-.29-.33-1.35.59-.09.38,1.3.33,1.35Z"/>
      <path class="cls-1" d="M39.73,8.62c-1.42.2-1.55.07-1.35-1.35l1.35,1.35Z"/>
      <path class="cls-1" d="M41.76,7.26c-.79.77-2.19-.29-.33-1.35.59-.09.38,1.3.33,1.35Z"/>
      <path class="cls-1" d="M24.09,21.54c-.24.46-1.15-.4-.67-1.35.24-.46,1.15.4.67,1.35Z"/>
      <path class="cls-1" d="M45.85,4.54c-.65-.33,1.34-1.3,2.02-1.02-.46.59-1.24,1.42-2.02,1.02Z"/>
      <path class="cls-1" d="M56.39.48c.55.31.23.32,0,.67-.84,1.29-1.53.36,0-.67Z"/>
      <polygon class="cls-1" points="33.95 10.67 34.29 11.01 33.95 11.35 33.95 10.67"/>
      <polygon class="cls-1" points="31.91 12.71 32.25 13.05 31.91 13.39 31.91 12.71"/>
      <polygon class="cls-1" points="6.09 70.51 6.43 70.85 6.09 71.19 6.09 70.51"/>
      <g>
        <path class="cls-1" d="M43.12,43.31c-1.8-.64-1.86-2.35-.33-3.38l.33,3.38Z"/>
        <path class="cls-1" d="M43.68,66.31c-.23.13-4.93-.08-5.32-.2-7.13-2.2-6.02-25.09-4.36-31.08.35-1.26,1.34-1.25,1.41-1.41.32-.75-.07-2.27.89-3.47.11-.14,2.88-1.84,3.06-1.86,2.22-.29,6.54.39,8.13,2.15.15.17,2.23,3.62,2.29,3.83,2.05,7.04,1.24,19-1.88,25.71-.41.88-3.89,6.14-4.22,6.33ZM41.09,30.39c-1.02-.92-5.68,4.67-5.43,6.11l5.43-6.11ZM39.17,47.49c-.22.27,1.29,6.54,1.4,6.87.19.53,2.65,3.88,2.89,3.9,2.66.13,6.11-23.75-1.36-25.14-1.19,1.19.98,5.4.31,6.1-.46.48-2.23-1.35-2.7,3.09-.09.85.63,1.7.64,2.09,0,.49-1.52,0-1.3.62.2.57,1.43.8,1.38,2.04-.02.5-1.11.26-1.26.44ZM37.02,52.15c1.48-.58,1.61-1.13.33-2.04l-.33,2.04ZM39.97,58.74c-.84-1.51-.92-3.78-2.28-4.55-.55,1.38,2.14,7.28,3.38,6.11s-1.06-1.48-1.11-1.57ZM42.11,62.35v.68l.34-.34-.34-.34ZM37.35,63.71v.68l.34-.34-.34-.34Z"/>
        <g>
          <path class="cls-1" d="M72.15,26.4c7.22-2.03,6.69,13.9,6.29,17.92-.25,2.58-3.13,14.24-4.42,15.98-.16.22-4.48,2.59-4.75,2.58-.92-.06-3.4-3.86-3.77-4.9-1.9-5.44.04-16.58,1.74-22.13.64-2.11,2.79-8.84,4.9-9.43ZM70.25,54.82c1.61-1.12,4.72-20.55,3.45-23.75l-2.34,5.37c.98,4.53-.9,1.88-1.05,2.11-.42.64.77,10.7.55,11.22-.39.91-2.49.77-2.61,4.08-.05,1.55,1.48,1.35,2,.98ZM68.94,49.42c.49-.95-.43-1.81-.67-1.35-.49.95.43,1.81.67,1.35Z"/>
          <path class="cls-1" d="M60.97,74.78c-.19.06-.08.97-.5,1.04-.27.05-5.11.23-5.47.21-.18-.01-2.97-1.74-3.05-1.9-1.51-3.09-.33-9.06,1.76-11.72,4.66-5.96,14.51,2.05,10.14,10.83-1.44,2.91-1.39,1.07-2.89,1.54ZM60.57,65.28c-.24-.29-2.35-1.63-2.48-1.56-.57.3-3.95,7.6-3.41,8.15.44.44,11.12-.45,5.89-6.58Z"/>
        </g>
      </g>
    </g>
  </g>
</svg>