<?xml version="1.0" encoding="UTF-8"?>
<svg id="Layer_2" data-name="Layer 2" xmlns="http://www.w3.org/2000/svg" viewBox="0 0 79.11 96.93">
  <g id="Skulls">
    <g id="Layer_27_Image" data-name="Layer 27 Image">
      <g>
        <path d="M63.14,6.16c7.93,5.24,13.86,18.94,15.25,28.19,1.68,11.18.83,21.08-7.02,29.76-.7.78-3.45,2.59-3.51,3.14-.05.5.58,3.05.76,3.7,1.1,4.13,3.15,8.71,2.37,13.11-.26,1.49-.76,1.27-1.74,2.11-.55.47-.46,1.33-1.34.34.28.96-1.02.41-1.65.49-.29.04-.55.32-.76.33-.72.03-2.42-.44-2.5-.35-.12.14-.44,2.85-.74,3.64-.04.1-.94,1.72-1.01,1.79-.77.89-3.23,1.49-4.37,1.4-.43-.04-.45-.84-.7.11-.2-.5-.78-.23-.94-.3-.53-.25-.08-.89-1.06-.44l-2.67-2.85c-.02.29-.05.62-.19.88-.69,1.29-2.77,4.01-3.84,4.78-.51.36-2.18.9-2.79.94-.14,0-.39-.31-.68-.31-.95.02-3.64.28-4.31.07-1.13-.35-1.81-1.72-2.24-2.74-.91-2.15-1.06-4.52-1.63-6.75-.51-1.98-2.27-9.48-3.3-10.7-.13-.16-2.79-2.58-2.98-2.71-1.18-.84-1.52-.34-2.31-.45-.27-.04-.04-.51-.27-.5s-.01.39-.23.46c-.36.11-3.09-.31-3.58-.47-1.45-.45-1.92-1.24-2.79-1.75-3.63-2.1-6.06-2.47-9.66-5.42C-2.14,55.08-2.76,34.67,5.3,20.74,16.56,1.28,44-6.48,63.14,6.16ZM41.95,1.27c-1.82-.15-4.58.27-6.56.5-.32.04-.61.39-.74.39-.22,0-.42-.49-.59-.4-.02.01.06.33-.13.41-.64.26-1.26-.02-1.64.05-.23.05-.14.47-.16.49-.55.4-.42-.39-.48-.47-.19-.3-.22.47-.38.5-.36.07-.93-.28-1.02-.23-.07.04-.07.53-.42.66-.22.08-.6-.15-.83-.08-1.89.63-4.78,1.83-6.34,2.71-1.24.7-2.66,1.63-3.5,2.14-.26.16-1.78.7-1.84.79-.03.03.26.44.23.46-.12.07-.62-.11-.91.05-.21.12-3.12,2.91-3.34,3.14-1.29,1.31-2.74,3.77-3.66,4.71-.03.03-.4-.26-.45-.22-.05.04-.12.57-.29.79C3.7,24.64.95,31.82.82,40.62c0,.19.19,1.11.33,1.11.82-8,3.82-14.84,8.74-21.12C19.49,8.36,30.86,3.58,46.36,2.94c2.48-.1,5.1.14,7.55.48-1.08-1.05-3.22-.95-4.43-1.91.15,1.29-.55.07-.95-.02-.98-.21-2.39-.02-3.42-.06-.27-.01-.52-.33-.66-.32-.24,0-.44.49-.59.39-.03-.02.05-.36-.12-.43s-1.28.16-1.56.2h-.24ZM50.32,3.9c-.28-.14-.55.15-.71.36.24.1.94-.24.71-.36ZM50.57,4.38s.75.11.95.12c-.42-.9-1.14-.27-.95-.12ZM52.24,4.62s.1-.71-.12-.72c-.71.4-.21,1.08.12.72ZM60.79,7.08c-1.31-.64-4.94-2.2-6.3-2.44-.53-.09-1.32.36-2-.27-.15.74.26.36.56.5,1.36.67,2.83,1.01,4.15,1.61,3.05,1.39,6.05,3.36,8.58,5.55.99-.26-.68-.97-.76-1.04-.68-.62-3.77-3.69-4.22-3.91ZM72.58,51.06c-.05.33.06,1.28-.72.72-.08-.06.43-1.7.5-1.97.05-.19.38-.19.42-.31.14-.49-.52-3.09.76-3.71-.16.37.08,2.31,0,2.39-.1.1-.62-.45-.72-.12,1.19.33-.88.67.72,1.08.1-1.5.62-3.14.79-4.59.86-7.26-.03-20.48-4.28-26.52-.98-1.39-2.64-3.14-3.77-3.83-.19-.12-1.04-1.26-1.46-1.59-3.07-2.49-7.69-5.21-11.27-6.34-.84-.27-2.03-.23-2.87-.7-.74.04-.23.25.06.42,2.3,1.37,4.58,2.62,6.64,4.37.81.69,2.21,1.62,2.28,2.63.41.13.13-.6.36-.48.25.13,2.94,2.79,2.51,3.35-.54-.03-.69-.6-.96-.8-1.34-.96-2.47-2.32-3.83-3.39-.73-.57-1.45-1.09-2.17-1.66-.36-.28-1.09-.39-1.42-.75-.24-.25.04-.57,0-.58-.13-.07-.54.09-.88-.09-.46-.24-1.13-1.14-1.47-1.33-.74-.41-1.87-.65-2.54-1.01-.37-.2-.61-1.48-1.21-.22-.24-.2-.25-.56-.54-.71-.83-.44-5.35-.56-6.37-.45-5.57.59-12.74,5.48-16.63,9.21-2.63,2.52-5.59,5.8-7.68,8.35-7.2,8.81-10.39,18.03-7.59,29.86,1.04,4.39,5.92,14.91,10.33,16.48,1.86.66,1.35-.51,1.45-.49.15.05.37.5.71.6.68.21,3.62.33,4.41.28.64-.04,1.14-.48,1.82-.44.96.05,1.5,1.08,2.27,1.35.11.04,2.83.1,1.34.62-.61.21-1.04-.37-.81.52,1.02,2.01,3.1,3.74,4.07,5.75.67,1.39.64,3.2,1.14,4.61.38,1.08,1.37,2.24,1.78,3.43.46,1.33.17,2.86.58,4.03.12.33,1.74,2.72,1.96,2.82.45.21.94.02,1.3.14,2.08.66,4.45,1.92,6.28-.1.28-.31,2.16-3.71,2.26-4.1.24-.88-.69-3.93-.75-5.26-.04-.82-.23-4.55,1.06-2.74,1.11,1.56,1.64,4.32,1.84,6.06.16,1.41,1.55,1.24,2.51,1.8.67.4,2.11,1.82,2.63,1.92,4.61.9,2.35-4.1,1.96-6.5-.13-.79-.85-5.04-.62-5.44.1-.18.98-.18,1.14,0,.02.03-.18.34.01.58.15.19.57.26.67.42.91,1.56.71,3.84,1.26,4.79.14.23.75.27,1.12.64.28.28.05.61.23.74.81.64,2.91.57,3.72-.03.54-.4,2.35-3.21,2.28-3.9,0-.09-.36-1.52-.41-1.59-.02-.02-.45.28-.47.24-.06-.07.14-.52.1-.75-.55-3.66-1.95-7.59-2.5-11.33,1.09-1.18.46-1.49.46-2.65,0-1.78,1.48-2,2.54-2.98,2.14-1.98,3.21-6.43,3.87-9.3.22-.96.38-1.95.55-2.92-.38.1-.52.83-.72,1.2-.01.02-.55.34,0,.24ZM34.53,5.82c-.42-.07-.79.02-1.19.12-2.77.69-4.44,1.92-6.94,2.84-.24.09-.66-.15-.71-.09-.06.07.12.57-.14.74-.19.13-.61.08-.87.23-4.92,2.84-11.07,10.23-13.81,14.77-.79,1.31-1.4,2.74-1.93,4.02-.03.08-.38-.16-.48,0-.22.35-.3,1.14-.52,1.61-2.05,4.3-3.09,7.61-3.3,12.5-.18,4.08.23,10.32,1.67,14.15,1.53,4.05,5.76,7.26,8.99,9.92-.8-1.57-2.18-2.81-3.1-4.32-6.59-10.75-6.24-25.14,0-35.4,3.8-6.25,12.97-15.5,19.22-19.32l3.14-1.76ZM21.49,11.32v.24l.12-.12-.12-.12ZM66.24,12.28v.24l.12-.12-.12-.12ZM66.96,12.52v.24l.12-.12-.12-.12ZM18.32,13.29s-.3.56-.18.66l1.07-.84c-.17-.06-.83.12-.9.18ZM17.07,14.91c.1.12.67-.47.47-.72-.1-.12-.67.47-.47.72ZM9.06,25.6c.97-1.65,2.13-3.47,3.27-5.02.66-.9,4.42-5.19,4.51-5.55.06-.23.04-.43-.24-.36-.37,1.04-1.7,1.73-2.41,2.5-3.03,3.32-7.54,9.3-9.06,13.01-1.17,2.86-2.24,6.57-2.62,9.78-.34,2.85-.3,7.9.27,10.69.28,1.39,1.1,2.7,1.62,4l-.82-7.79c-.3-8.05,1.45-14.37,5.5-21.26ZM73.65,23.3c-.24.17.13.33.24.47.24-.16-.11-.32-.24-.47ZM74.73,26.4l-.71-1.67c.31.43-.11,1.85.71,1.67ZM74.49,26.65c-.05.05.41.95.46,1.35.46,3.44.94,7.4.88,11.02-.05,2.8-.74,5.87-.75,8.69l1.18-6.42c.15-4.72.24-9.55-1.12-14.1-.08-.28-.33-.84-.65-.54ZM77.48,37.66v.24l.12-.12-.12-.12ZM72.71,60.53c4.86-7.22,5.4-11.68,4.92-20.15-.04-.71.65-1.63-.15-2.24-.01,1.04.02,2.21-.11,3.24-.53,4.31-2.02,12.33-3.91,16.2-.57,1.17-2.44,2.87-2.09,4.14.17.63,1.15-.93,1.32-1.18ZM1.27,42.44c.17-.34-.15-.64-.23-.48-.17.34.15.64.23.48ZM1.15,42.68v.24l.12-.12-.12-.12ZM74.97,49.62c-.4-.39.29-1.34-.24-1.43-.06.46-.7,1.61.24,1.43ZM74.61,49.87v.24l.12-.12-.12-.12ZM74.37,50.34v.24l.12-.12-.12-.12ZM74.01,52.74c.17-.34-.15-.64-.23-.48-.17.34.15.64.23.48ZM73.77,53.94s.1-.75.12-.95l-.6.83c-.03.21.46.14.48.12ZM73.42,54.18v.24l.12-.12-.12-.12ZM72.94,55.37v.24l.12-.12-.12-.12ZM67.8,64.23c.12.14,2.95-1.58,2.63-2.39-.59.17-.73.88-1.13,1.2-.16.13-1.96.68-1.5,1.19ZM67.43,64.23v.24l.12-.12-.12-.12ZM28.38,71.33c-.08-.03-.08-.4-.18-.39l-1.09.59,2.63.96c-.52-1.23-.45-.84-1.36-1.16ZM22.93,71.41v.24l.12-.12-.12-.12ZM23.65,71.65v.24l.12-.12-.12-.12ZM24.12,71.89v.24l.12-.12-.12-.12ZM24.6,71.89v.24l.12-.12-.12-.12ZM25.08,72.13v.24l.12-.12-.12-.12ZM69.71,83.38c-.26-.3-1.17.89-1.08,1.19.2-.32.98-.17,1.06-.25.04-.04.04-.9.01-.94ZM62.17,84.34v.24l.12-.12-.12-.12ZM61.93,86.74v.24l.12-.12-.12-.12ZM54.59,90.13c.47.36-.34,1.21,1.76,1.7,1.34.31,2.49.34,3.3-.91-2.56.84-4.2-1.88-6.1-2.51-.82-.27-.09,1.68.24,1.67.23-.01.29-.75.48-.71.56.12.18.69-.11.84.13.24.35-.14.43-.08ZM54.27,90.57v.24l.12-.12-.12-.12ZM40.28,95.35c.12-.09-1.03-2.84-1.67-2.15-.56.6,1.13,2.58,1.67,2.15ZM42.62,93.49l-1.86.07c-.17.53,1.33,1.68,1.61,1.75.92.24,2.42-.5,3.17-1.04-.78-.37-1.75-.03-2.54-.31-.35-.13-.35-.46-.39-.48ZM47.45,94.63c.27-.28-.1-.77-.48-.12-.03.21.46.13.48.12Z"/>
        <path d="M41.95,1.27h.24s-.08.24-.12.24c-.05,0-.07-.23-.12-.24Z"/>
        <path d="M72.58,51.06s-.01-.24,0-.24c.55-.1,0,.21,0,.24Z"/>
        <path d="M60.04,21.47c4.63,3.05,4.48,14.38,2.81,19.08-.39,1.09-2.53,5.07-3.24,5.68-.04.04-.32-.18-.38-.13-2.31,1.82-3.41,2.05-6.46,1.2-.27-.08-.61.13-.95,0-1.21-.46-1.87-1.87-2.3-2.98-1.5-3.86-.81-11.57.49-15.71s4.88-10.54,10.03-7.14ZM57.03,22.09c-.06-.37.21-.49-.24-.36-.17.05-2.91.98-2.63,1.32,3.15-.1,4.34,2.79,5,5.44,1.17,4.7.36,11.92-2.21,16.03-.16.25-.93.82-1.23,1.28-.13.21-.63.5,0,.71.08.03.12-.32.46-.51,6.78-3.68,8.3-14.37,5.13-20.89-.64-1.31-2.14-3.35-3.69-3.51-.58-.06-.14.56-.58.49ZM54.75,24.01v.24l.12-.12-.12-.12ZM55.47,24.49v.24l.12-.12-.12-.12ZM55.95,24.73c-.12.37.54.68.72.95.12-.37-.54-.68-.72-.95ZM54.15,25.69c-1.13.22-1.64,1.7-2.04,2.63l2.04-2.63ZM57.74,27.6c.12-.69-.4-1.03-.84-1.43.15.45.38,1.23.84,1.43ZM53.68,28.32c-.83,1.07-.84,3.67-1.02,4.99-.09.65-.34,1.2-.42,1.83,0,.07.34,1.79-.35.83-.73-1.01.25-4.72.12-5.98l-1.06,3.96c.11,1.95.09,4.52.65,6.39.24.81,1.95,4.07,3.05,3.43.36-.21,1.38-2.26,1.55-2.77,1.02-3.16,1.49-10.92-.37-13.7-1.07-1.6-1.47-.44-2.14.77v.24ZM58.22,29.04c.14-.28-.15-.55-.36-.71-.1.24.24.94.36.71ZM58.22,29.99c.17-.37-.12-.97-.23-.72-.17.37.12.97.23.72ZM58.46,31.91c.04-.08.04-1.11,0-1.19-.29-.63-.29,1.82,0,1.19ZM58.58,32.15v.24l.12-.12-.12-.12ZM58.7,32.63c-.64-.73-.64,1.69,0,.96.03-.04.03-.92,0-.96ZM58.7,33.83c-.37-.39-.63.34-.47.72.31,0,.62-.56.47-.72ZM58.46,36.46c.04-.08.04-1.59,0-1.67-.3-.66-.3,2.33,0,1.67ZM58.22,38.13c.04-.08.04-1.11,0-1.19-.29-.63-.29,1.82,0,1.19ZM50.21,38.85v.24l.12-.12-.12-.12ZM50.8,41.25c.15-.16-.17-.71-.47-.72-.16.38.11,1.11.47.72ZM52.08,43.81c-.2-.28-1-2.38-1.15-2.32-.56.22.12,2,.29,2.33.1.2,1.29,1.25,1.38,1.25.15,0,.45-.36.25-.72-.14-.25-.64-.36-.77-.54ZM57.62,46.04v.24l.12-.12-.12-.12ZM54.99,46.27v.24l.12-.12-.12-.12Z"/>
        <path d="M53.68,28.08c.19-.02.48-.08.48.12,0,.25-.44.06-.48.12,0-.08-.01-.24,0-.24Z"/>
        <path d="M52.51,60.65s-.18.71-.52,1.05c-.1.1-2.36,1.43-2.52,1.49-.77.28-5.97.43-6.31.07-.11-.12.01-.97.05-1.24.37-2.5,1.82-4.88,2.46-7.36.25-.98.19-2.22.45-3.14.19-.68.91-2.23,1.69-1.42.96,1.91,2.15,3.74,3.37,5.49.9,1.3,2.8,2.56,2.45,4.38-.24,1.26-1.01.59-1.13.67ZM48.27,55.03c-.36-.45-.54-1.07-1.05-1.34.08.84-1.71,7.15-1.44,7.42.24.24,4.81-1.88,4.99-2.31.34-.81-.33-.78-.44-.98-.68-1.25-1.21-1.73-2.06-2.79ZM51.16,59.68v.24l.12-.12-.12-.12ZM50.69,59.92v.24l.12-.12-.12-.12ZM49.73,60.4v.24l.12-.12-.12-.12ZM50.09,61.6c-.97-.28-.93.66-.36.47.1-.03.37-.31.36-.47ZM49.13,61.84c-.25-.2-.84.38-.72.47.25.2.84-.38.72-.47ZM44.22,62.32v.24l.12-.12-.12-.12Z"/>
        <path d="M73.94,43.35s-.36.04-.4.2c-.09.33.58,1.76-.24,2-.24-.41-.1-2.99,0-3.11.17-.2.99.26.64.9ZM73.66,42.92v.24l.12-.12-.12-.12Z"/>
        <path d="M74.02,42.2c-.98.53-.93-1.01-.12-1.43-.13.31.18,1.4.12,1.43Z"/>
        <path d="M71.38,54.41c0-.08-.01-.24,0-.24.54-.08.01.22,0,.24Z"/>
        <path d="M71.38,54.41c-.14.27-.35,1.02-.71.84.17-.35.34-.72.47-1.08-.06.11.08.28.24.24Z"/>
        <path d="M71.14,54.18c.28-.73.6-1.42.84-2.16.54-.2.04,1.49,0,1.56-.12.3-.39.4-.61.59-.04.04-.22-.04-.24,0Z"/>
        <path d="M63.24,15.4s-.05.36.05.41.34-.17.39-.12c4.02,4.15,8.07,8.79,9.36,14.44.56,2.44.74,5.39.85,8.36l-.35,2.28c-.44.33-.39.08-.43-.3-.34-2.69-.14-5.47-.55-8.16-.38-2.5-1.81-6.87-3.32-8.92s-3.73-4.1-5.76-6.19c-.21-.22-.15-.65-.26-.8-.02-.03-.65.19-.67-.16-.01-.25.3-1.13.71-.84Z"/>
        <path d="M70.66,56.57c-.16.3-.51-.66.12-.95,0,.2-.09.88-.12.95Z"/>
        <path d="M70.18,57.29c-.08.16-.41-.14-.23-.48.08-.16.41.14.23.48Z"/>
        <polygon points="69.59 57.29 69.71 57.41 69.59 57.53 69.59 57.29"/>
        <polygon points="52.12 37.18 52.24 37.3 52.12 37.42 52.12 37.18"/>
        <polygon points="52.12 36.7 52.24 36.82 52.12 36.94 52.12 36.7"/>
        <polygon points="68.15 79.79 68.27 79.91 68.15 80.03 68.15 79.79"/>
        <g>
          <path d="M20.18,33.11s-.23.2,0-.24c-.01,0-.01.23,0,.24Z"/>
          <path d="M20.18,32.87c1.26-2.38,4.21-4.36,7.02-4.22,3.58.18,8.49,6.06,10.01,9.09,2.02,4.04,3.48,13.31-.04,16.82-.27.26-2.42,1.24-2.75,1.3-.17.03-.08-.47-.22-.47-.46.01-.92.73-.73-.25-.44.7-2.42-.21-3.03-.55-4.66-2.6-8.61-8.14-10.36-13.11-1.16-3.3-1.36-5.17.11-8.37.28.12.28-.36,0-.24ZM29.27,30.24c-1-.2-2.14-.44-2.99-.96-.27.16.28.42,0,.48-.63.12-1.76-.1-1.78.96.6-.47.45.25.6.25.39,0,1.23-.68,1.79-.63l2.39-.1ZM24.24,30.47c.17-.34-.15-.64-.23-.48-.17.34.15.64.23.48ZM24.48,30.95c-.34-.41-2.03.65-2.4,1.07-.1.11-.79,1.01-.82,1.07-.1.19.13.43.05.66-.02.07-.59.83-.6.89-.53,2.13.02,5.7.89,7.68.32.73,1.45,2.73,1.36.94-.16-3.29-2.06-6.41-.23-9.94.26-.5,2.12-1.95,1.76-2.39ZM27.15,32.34c-.07-.04.02-.47-.15-.43-.08.02-1.09.57-1.44.72-.2.09-.74-.01-.36.48.07.09,1.8-.25,2.17.12s.13.89.24,1.07c.01.02.24-.2.55.02.2.14.88.88.62,1.19l-2.14-1.59c-.96-.19-1.52,1.36-1.81,2.07-.08.19-.32.77-.32.83-.28,1.92.39,4.73,1.23,6.46.13.27.86.94.97,1.15.14.28-.08.52-.07.54.09.19.83-.45.94.48-1.08.33-2.36-1.28-2.39-2.28-.46.12-.26,1.43-.18,1.74.4,1.55,2.63,4.26,4.04,5.06,4.82,2.73,6.66.24,5.9-4.7-.09-.59-.54-1.23-.61-1.79-.06-.48.25-.87.1-1.52-.1-.45-4.28-6.83-4.93-7.7-.17-.23-1.6-2.02-1.72-2.06-.23-.08-.5.23-.64.15ZM29.63,32.39v.24l.12-.12-.12-.12ZM24.84,33.11v.24l.12-.12-.12-.12ZM30.55,33.49c-.51-.89-.34.02-.14.27,2.18,2.88,4.02,6.37,5.82,9.52l.7,2.51c.02-2.36-.46-5.05-1.58-7.15-.71-1.34-1.99-2.35-2.56-3.78l-2.23-1.37ZM32.5,33.59v.24l.12-.12-.12-.12ZM37.76,43.4v.24l.12-.12-.12-.12ZM38,44.12v.24l.12-.12-.12-.12ZM38,44.6v.24l.12-.12-.12-.12ZM37.31,51.22c.76-1.73.86-4.27.81-6.14-.38-.06-.27.43-.32.69-.14.78-.05,1.74-.21,2.48-.11.52-.58,1.06-.74,1.66s.46,1.05-.4.78c0,.9.43,1.49.86.52ZM35.85,48.67v.24l.12-.12-.12-.12ZM35.85,49.39v.24l.12-.12-.12-.12ZM26.28,49.87v.24l.12-.12-.12-.12ZM34.05,52.5c.27-.28-.1-.77-.48-.12-.03.21.46.13.48.12ZM33.34,52.26s-.71-.1-.72.12c.4.71,1.08.21.72-.12ZM29.87,52.5v.24l.12-.12-.12-.12ZM37.4,52.5c-.62-.2-.4.32-.6.41-1.34.63-3.3.55-4.43,1.5,2.09.62,4.09.2,5.02-1.91ZM31.3,52.74v.24l.12-.12-.12-.12ZM30.82,52.98v.24l.12-.12-.12-.12Z"/>
          <path d="M28.79,36.22c-.08.16-.41-.14-.23-.48.08-.16.41.14.23.48Z"/>
        </g>
      </g>
    </g>
  </g>
</svg>