<?xml version="1.0" encoding="UTF-8"?>
<svg id="Layer_2" data-name="Layer 2" xmlns="http://www.w3.org/2000/svg" viewBox="0 0 62.65 67.63">
  <g id="Skulls">
    <g id="Layer_33_Image" data-name="Layer 33 Image">
      <g>
        <path d="M15.54,52.56c-4.38-2.85-8.47-5.48-11.13-10.03C1.61,37.73-.95,33.37.35,27.44c.47-2.17,1.66-3.99,2.39-5.94C5.72,13.44,7.53,5.62,17.2,2.97c4.01-1.1,6.77.18,10.14-.18,1.43-.15,2.89-1.11,4.26-1.49,10.09-2.77,21.57-1.53,27.41,7.65.72,1.13,2.77,5.98,2.87,7.18.03.37-.4.54-.44.68-.05.16.63-.15.7.24.02.14-.19.45-.15.67,1.24,5.89.75,17.27-1.95,22.8-1.85,3.8-7.44,10.59-11.15,12.53-.41.21-1.05.19-1.1.22-.14.11.68,2.81.69,3.48,0,1.02-.41,4.33-.69,5.46-.22.87-1.26,3.5-1.89,4.11-1.09,1.05-3.39.41-4.85.83-.17.05-.19.44-.36.47-.09.02-1.69-.06-1.82-.1-1.25-.32-1.16-1.67-1.37-1.82-.14-.1-.62.27-.82.25-.16,0-.21-1.07-.41-.09-1.28-.04-3.13,1.7-4.31,1.03-.27-.15-.29-.52-.42-.59-.21-.12-.54.17-.68.08-.13-.08-.19-.63-.41-.69-.51-.14-1.25,1.09-1.61,1.27-.72.36-1.52.09-2.22.4.26-.86-.25-.2-.97-.42-.36-.11-.33-.48-.45-.48-.46-.03-1.12.31-1.78.06-2.29-.9-2.16-4.32-2.08-6.42.03-.76.71-4.45.6-4.65-.05-.09-1.55-.95-1.78-.51.31-.86-.45-.3-1.17-.5-.4-.11-.1-.69-.24-.68-.12,0-.33.29-.55.19-.65-.3-1.55-1.07-2.45-1.39-.02,0-.34-.55-.24,0ZM45.37.96c-.07-.04-1.17.12-1.55.1-5.29-.23-7.4-.25-12.44,1.46-.14.05-2.37.25-1.98.77.43.58,9.03-.82,10.45-.85,6.83-.16,13.22,2.06,17.67,6.81.24.26.35.61.81.5-.67-.82-1.17-1.86-1.71-2.82-1.57-1.06-2.64-2.53-4.68-3.57-1.59-.82-3.63-1.2-4.97-2.21v.48c-.58-.54-.99-.17-1.39-.24-.18-.03-.16-.4-.22-.43ZM21.33,3.46c-.11-.07.04-.44-.17-.41-.96.86-2.97.61-4.08.8-.26.04-.28.52-.51.66-.13.08-1.98.37-2.31.53-3.05,1.41-5.67,4.73-7.18,7.76-.15.31-1.14.63-.62,1.5l2.41-2.01c3.81-2.04,7.6-4.07,11.49-5.96,1.61-.78,3.43-1.26,4.99-2.18.36-.22.17-.45-.12-.53-.7-.19-3.39.19-3.9-.14ZM37.06,4.25s.05-.45-.1-.45l-3.73.69c6.33,1.89,13.44,4.88,18.32,9.42,7.32,6.81,11.86,19.1,4.03,27.43-.16.17-.58-.03-.58.1,0,.11.29.34.19.55-.05.11-.99.66-1.14.97-.35.73-.47,1.86-.38,2.68,2.92-3.42,5.28-7.18,6.68-11.49.18-.54.77-2.58.79-2.74,1.04-6.27-2.81-17.3-6.5-21.41-4.77-5.3-8.45-6.18-15.54-6.18-.73,0-1.96.5-2.05.44ZM27.14,4.01v.24l.12-.12-.12-.12ZM28.45,5.2s.09-.51-.12-.48c-.65.37-.16.75.12.48ZM26.15,6.03c.37-.25.8-.36,1.11-.71-.64-.8-1.61.24-1.86.33-4.88,1.91-1.3,1.74.75.37ZM27.73,5.44c.17-.34-.15-.64-.23-.48-.17.34.15.64.23.48ZM35.06,6.02c-2.17-.57-3.37-1.35-5.58-.5-.09.03-.11.36-.24.42-.35.16-1.06.02-1.26.71,2.71-.37,5.66-.22,8.37.24l-1.28-.86ZM52.72,6.16v.24l.12-.12-.12-.12ZM26.66,6.4v.24l.12-.12-.12-.12ZM27.38,6.4v.24l.12-.12-.12-.12ZM36.7,6.41c-.24.17.13.33.24.47.24-.16-.11-.32-.24-.47ZM22.71,6.88c-.5-.07-.54-.02-.48.48l.48-.48ZM53.8,7.84c.82-.11.11-1.19,0-.96-.08.19.05.68,0,.96ZM16.5,47.78c.32.25,1.5.78,1.19,1.2-.15.21-.74-1.17-1.19-.36,1.42,1.1,4.26,3.41,5.92,3.88.32.09,1.54-.1,1.72.07.13.13.11,3.43,0,3.58-.01.02-.31-.26-.47-.13.58.82-.02,1.73.01,2.6.11,2.91,1.66,10.25,4.41,3.98.37-.85.75-3.72,1.67-3.84,1.03-.14.57.98.84,1.21.07.06.95-.98,1.55-.24.34.41,1.48,4.71,2.15,4.78,2.76-1.06,1.45-5.22,2.15-6.46.41-.74,1.08.87,1.44.72s.67-1.45,1.28-1.15c.07.03.2.79,1.24.43-.1.92-.37,5.4.11,5.98.28.35,1.73.14,2.1,0,1.31-.5,1.27-7.14,1.4-8.47.11-1.07.29-3.59.59-4.45.13-.36,2.49-2.97,2.96-3.47,1.62-1.72,4.29-3.44,5.14-5.62.43-1.09.28-3.49,1.79-2.63.93-4.45,1.92-8.88,1.14-13.45s-3.62-9.53-6.61-12.03c-5.66-4.73-9.15-6.1-16.44-6.48-6.86-.36-9.86.89-15.21,5.17-.24.19-1.09,1.37-1.18,1.41-.22.1-.61-.25-.67-.21-.05.03-.16.71-.48,1.08-.49.59-1.28.79-1.69,1.2-1.78,1.84-4.59,6.06-5.32,8.53-1.32,4.48-.04,13.27,1.67,17.6,1.24,3.14,3.17,3.17,5.85,4.91.31.2.46.49.68.64-.37.05-.69-.03-.72,0-.56.69,1.16.55.95,0ZM56.16,8.84c-.03-.05-.36.12-.45.05-.36-.32-.74-1.32-1.44-.93,1.86,1.96,3.48,4.38,4.66,6.82.66,1.36.93,3.17,1.91,4.3-.61-1.46-.69-3.25-1.27-4.71-.78-1.96-2.5-4.1-3.42-5.53ZM21.33,8.46c-.11-.07.03-.45-.17-.38-.07.02-1.1.71-1.3.85-.23.16-2.45,1.98-2.17,2.25s3.03-2.29,3.76-2.21l.3-.54c-.13-.21-.31.1-.42.03ZM17.69,9.75c.03-.05.09-.5-.11-.47-.89.38-1.78.72-2.61,1.23-.3.18-.37.63-.42.65-.11.06-.43-.26-.65-.18-.14.05-1.94,1.59-2.19,1.81-2,1.66-3.8,3.65-5.26,5.4s-1.81,1.61-2,3.84c-.41,4.71-.34,9.16.81,13.79v-3.23c.51-10.41,5.96-15.49,11.96-22.66.18-.21.45-.16.47-.18ZM58.94,9.51v.24l.12-.12-.12-.12ZM58.94,10.95v.24l.12-.12-.12-.12ZM17.21,12.14c.04-.07.13-.75.12-.95-.64.29-.29,1.25-.12.95ZM59.18,11.42v.24l.12-.12-.12-.12ZM16.62,11.9v.24l.12-.12-.12-.12ZM16.26,12.62c.17-.34-.15-.64-.23-.48-.17.34.15.64.23.48ZM10.88,12.38v.24l.12-.12-.12-.12ZM10.28,12.62c-.25-.26-2.22,1.75-2.63,1.19-.02,1.62-2.38,2.53-2.39,4.31,1.3-1.2,2.34-2.69,3.61-3.92.2-.19,1.92-1.05,1.41-1.58ZM14.7,13.82v.24l.12-.12-.12-.12ZM61.33,15.97v.24l.12-.12-.12-.12ZM53.92,18.36v.24l.12-.12-.12-.12ZM56.28,22.1c-.57-1.07-.94-2.45-2-3.26.19,1.31,1.09,2.42,1.5,3.64,1.51,4.42,1.27,9.79.31,14.3-.07.33-1.3,2.9-.5,2.87.16,0,1.7-2.39,1.84-2.69,2.38-5.04,1.31-10.24-1.16-14.85ZM60.61,19.32v.24l.12-.12-.12-.12ZM61.21,19.8c-.34-.17-.64.15-.48.23.34.17.64-.15.48-.23ZM5.74,40.84c-2.07-5.19-2.68-11.08-2.38-16.61.01-.26.15-.9-.25-.84-.51,4.29-.82,9.25.31,13.44.11.41,1.49,4.73,2.32,4.02ZM1.91,25.78l-.88,1.86c-.59,3.75.17,5.58,1,8.87.06.25-.18.67-.11.75.04.04.39-.25.45-.2.12.09-.14.54.26.44-.76-3.86-1.24-7.8-.72-11.72ZM6.57,29.36v.24l.12-.12-.12-.12ZM7.98,39.56c-.86-3.17-1.24-6.44-1.41-9.72-.75.48-.09,1.13-.11,1.54,0,.14-.48.12-.5.28-.04.3.25.78.25,1.17.05,2.96.46,5.57,1.58,8.23.51,1.2,1.47.65,1.05.02-.01-.02-.46.26-.47.24-.1-.14.08-1.1-.01-1.51-.04-.16-.36-.19-.38-.26ZM5.62,36.06v.24l.12-.12-.12-.12ZM5.73,37.25c.17-.37-.12-.97-.23-.72-.17.37.12.97.23.72ZM60.25,37.01c.27-.28-.1-.77-.48-.12-.03.21.46.13.48.12ZM5.86,37.73v.24l.12-.12-.12-.12ZM6.1,38.69v.24l.12-.12-.12-.12ZM58.94,38.69v.24l.12-.12-.12-.12ZM6.34,39.41v.24l.12-.12-.12-.12ZM55.11,39.88v.24l.12-.12-.12-.12ZM6.93,40.6l-.48-.48c-.07.5-.02.54.48.48ZM58.82,40.13c-.2-.22-.74.26-.7.62l-2.17,3.69c.36.36,3.06-4.09,2.87-4.3ZM7.41,40.84c-.34-.17-.64.15-.48.23.34.17.64-.15.48-.23ZM7.29,41.32v.24l.12-.12-.12-.12ZM7.65,42.27l-.48-.48c-.07.5-.02.54.48.48ZM5.82,42.43c-.12-.07-.19-.93-.32-.03l1.91,2.51c0-.7-.46-1.57-.87-2.1-.26-.35-.47-.22-.72-.38ZM7.77,42.52v.24l.12-.12-.12-.12ZM9.2,42.99v.24l.12-.12-.12-.12ZM8.97,44.67v.24l.12-.12-.12-.12ZM55.95,44.67c-.42-.45-.49.4-.52.41-.09.05-.34-.17-.39-.12-.3.3-.64,1.11-1,1.51-.26.29-.74.23-.72.59.48.05,2.75-2.26,2.63-2.39ZM7.65,44.91c-.21.27.37.75.6.95.15-.25-.49-1.09-.6-.95ZM9.8,45.62c-.05-.1.03-.98-.48-.48s.35.43.48.48c.21.47.32.94.72,1.31l1.67,1.56c-.06-.98-1.21-1.57-1.82-2.25-.28-.31.27-.3-.57-.62ZM11.83,45.62v.24l.12-.12-.12-.12ZM14.82,47.06c-.06-.04-.94.01-1.39-.18-.54-.23-.33-.72-.39-.73-.05-.02-1.18-.07-1.09.19.49-.08.64.59.76.66.09.05.41-.21.43-.18.09.14-.08.85,0,.96.03.05.96-.49.95.12,0,.08-.44.25-.36.59.17.69,1.46,1.24,1.82,1.8.17.27-.05.58-.02.6.12.07.45-.21.72-.1.48.18,1.26,1.31,2.14,1.06l-2.93-2.54c-2.31-.3-.53-2.15-.66-2.24ZM51.17,48.02c.42.47,1.3-1.55,1.19-1.91-.45.11-1.46,1.61-1.19,1.91ZM15.18,47.3v.24l.12-.12-.12-.12ZM50.09,47.3v.24l.12-.12-.12-.12ZM52.96,47.3v.24l.12-.12-.12-.12ZM49.97,48.25c.15-.16-.17-.71-.47-.72-.16.38.11,1.1.47.72ZM50.92,48.97c.17-.37-.12-.97-.23-.72-.17.37.12.97.23.72ZM10.64,48.49v.24l.12-.12-.12-.12ZM49.25,48.5c-.33-.29-.94.52-.71.95.3,0,.76-.92.71-.95ZM12.91,48.74s-.51-.09-.48.12c.37.65.75.16.48-.12ZM14.11,49.93l-.48-.48c-.07.5-.02.54.48.48ZM48.24,50.13c.09-.13.16-.64-.06-.67l-1.08,1.19c.23.05,1.08-.44,1.14-.52ZM14.58,50.41c.17-.37-.12-.97-.23-.72-.17.37.12.97.23.72ZM49.37,49.93v.24l.12-.12-.12-.12ZM14.94,50.17v.24l.12-.12-.12-.12ZM45.07,53.28v.24l.12-.12-.12-.12ZM20.8,53.52s-.51-.09-.48.12c.37.65.75.16.48-.12ZM21.28,53.99s.58.17.71.12c-.28-.57-.95-.32-.71-.12ZM45.42,54.71c-.31-.38-.43.03-.48.35-.14,1.09.19,2.4.13,3.36-.02.31-.32.6-.35.96-.09,1.1.04,2.18-.38,3.21,1.82-.69,1.79-7,1.08-7.89ZM38.5,61.89c.73-.77.84-2.56.71-3.59-.83.94-.57,2.45-.71,3.59ZM47.22,58.78v.24l.12-.12-.12-.12ZM37.66,59.02v.24l.12-.12-.12-.12ZM46.98,59.97v.24l.12-.12-.12-.12ZM22.83,60.21v.24l.12-.12-.12-.12ZM47.1,61.17c-.55-.68-.91,1.82-.98,1.96-.09.18-1.81,2.22-1.95,2.28-.53.23-1.29-.29-1.13.54,1.95.16,2.79-.97,3.46-2.64.11-.27.67-2.06.6-2.15ZM23.43,63.56c-.04-.5.06-1.65-.47-1.91.04.5-.06,1.65.47,1.91ZM33.23,65l-1.67-3.35c-.21,1.6-.49,3.36,1.67,3.35ZM29.17,63.8c.47-.13.54-.51.47-.96-.47.13-.54.51-.47.96ZM39.45,63.8c.17-.34-.15-.64-.23-.48-.17.34.15.64.23.48ZM28.81,64.04v.24l.12-.12-.12-.12ZM23.79,64.28v.24l.12-.12-.12-.12ZM29.41,65l-2.15,1.19c.92.12,1.71-.4,2.15-1.19ZM40.65,66.43c.31-.39-2.23-.9-2.39-1.08.13.87,1.85,1.74,2.39,1.08Z"/>
        <path d="M16.5,47.78s-.19,0-.24,0c0,0,.07-.13.24,0Z"/>
        <path d="M15.54,52.56s.24-.01.24,0c.1.54-.22.01-.24,0Z"/>
        <g>
          <path d="M50.6,26.65c-.62,1.15-2.41,1.66-3.39,2.23-1.54.9-3.66,2.4-5.37,2.77-1.47.32-.9-.9.23-1.22-.28-.1-.89.16-1.13.04-.13-.06-2.03-1.53-2.22-1.7-1.26-1.18-1.68-2.84-1.66-4.54.02-1.9.97-4.66,2.51-5.87.21-.17,1.22-.68,1.46-.71.64-.08,2.73.87,3.21,1.31.8.73.94,2.89,1.32,2.99.32.08,2.78-1.02,3.91-.57,1.81.73,1.93,3.78,1.13,5.28ZM41.36,18.84c-.67-.63-2.33,1.87-2.56,2.34-.12.23-.67,1.46-.7,1.54-.07.21.13.8-.08,1.14l2.07-3.53c.14-.27,1.67-1.13,1.28-1.49ZM43.04,20.99c-3.75.14-4.5,4.87-2.38,7.47.17.21.85.9,1.07.92.33.03,5.48-2.46,6.03-2.82.6-.39,1.64-1.9,1.73-2.59.07-.49-.04-.31-.35-.36-1-.15-2.9.45-3.6,1.19-.3.33-.85,1.87-1.8,1.11-.65-.52.57-1.15-1.42-.38.43-1.62.69-2.87.72-4.54ZM42.68,30.08v.24l.12-.12-.12-.12Z"/>
          <g>
            <path d="M23.19,32.23c.08-.03.19.03.24,0-.02,0-.23.13-.24,0Z"/>
            <path d="M23.43,32.23c.88-.62-.05-1.04.04-1.49.29-1.54,1.59-3.35,1.93-5.29.12-.71.25-4.08-.05-4.46-.09-.12-2.1,1.54-2.37,1.87-.58.7-1.67,3-2.16,3.25-.07.03-1.39.32-1.45.28-.18-.1-.82-1.93-1-2.37-.22-.53.2-.8-1.09-1.08-.68-.14-1.42,1.19-1.58,1.84-.63,2.42,1.38,4.66,3.63,5.23.9.23,3.51.18,3.64.31.63.66-.89.81-.95,1.19.4-.16.46.49.59.49.24-.01-.07-.68.47-.48.47.17.1.51.12.72-.77.3-2.33.06-3.13-.16-2.55-.68-4.11-1.58-6.04-3.12-.19-.15-.58-.04-.63-.08-.02-.02.24-.34.18-.43-.07-.12-.51-.15-.72-.58-.72-1.48-1.04-3.39-.55-4.98s3.13-3.22,4.69-2.72c.85.27,2.93,2.36,3.09,2.26.26-.18,1.36-2.7,2.27-3.35.98-.7,2.82-1.11,3.69-.1.09.1,1.33,2.05,1.39,2.19,1.04,2.2-.74,7.18-1.85,9.28-.57,1.08-.91,1.72-2.16,1.78ZM24.86,19.56c-.04-.06-.96.37-1.39.03-.43.53-3.13,3.7-2.67,4.27.35.44.53-.35.62-.45.43-.53.7-1.2,1.18-1.7.57-.59,1.58-1,2.12-1.42.21-.16.22-.63.15-.73ZM15.06,23.38c.74-.34,1.01-1.38,1.91-1.31-1.35-.82-1.78-.07-1.91,1.31ZM14.34,21.95c-.38-.4-.95,1.1-1,1.27-.26.9-.21,3.42.53,3.99.87.67.05-.68,0-.85-.21-.92-.13-2.59.04-3.52.05-.29.47-.83.42-.89ZM14.7,24.1v.24l.12-.12-.12-.12ZM20.92,24.1v.24l.12-.12-.12-.12ZM14.23,27.45v.24l.12-.12-.12-.12ZM14.46,27.93v.24l.12-.12-.12-.12Z"/>
          </g>
        </g>
        <path d="M34.83,33.99c.11.93,1.47,1.28.81,2.2.67-.22.64.49.79,1.11.24.98.57,2.57.23,3.5-.02.07-.79,1.06-.85,1.1-.73.57-2.13.06-2.58.29s-.53.75-.8.97c-.48.38-2.23,1.66-2.75,1.48-.08-.03-1.08-1.08-1.11-1.15-.68-1.54-.01-4.05.63-5.54.76-1.76,1.35-2.07,2.61-3.17,1.01-.88,1.18-2.18,3.01-.77ZM34.9,40.36c.31-.26.09-2.69-.05-3.17-.04-.15-1.35-2.54-1.5-2.56-.04,0-.54.27-.62.39-.73,1.12-1.17,2.72-2.13,3.62.05.75-1.31,3.46-.95,3.87.57.65,2.74-3.49,3.04-3.59,1.6-.5,1.26,2.22,2.21,1.44Z"/>
        <path d="M19.12,49.22c.25.26-.78.54-.95-.36.16-.01.91.33.95.36Z"/>
        <polygon points="19.49 49.45 19.6 49.57 19.49 49.69 19.49 49.45"/>
      </g>
    </g>
  </g>
</svg>