<?xml version="1.0" encoding="UTF-8"?>
<svg id="Layer_3" data-name="Layer 3" xmlns="http://www.w3.org/2000/svg" viewBox="0 0 35.09 40.01">
  <g id="Skulls">
    <g id="Layer_32_Image" data-name="Layer 32 Image">
      <g>
        <path d="M23.24.4c.52-.11.8-.34,1.72-.19,8.24,1.3,9.27,9.54,9.88,16.34.39,4.33.76,5.51-2.54,8.66.17-.21.54-.89.6-1.19-.46.24-.59.91-.84,1.19-.03.04-1.01-.06-.24.48-.15.13-.21.29-.48.48.04-.11.07-.48-.12-.48-.25,0-.05.34-.12.48-.11.24-.43.86-.6.95-.1.05-.18-.97-.59-.47-.08.09.25.52.13.73-.23.4-1.86.69-2.18,1.65-.27.84.36,2.83.34,3.91-.04,2.19-.61,4.4-1.99,6.12l-.23-.95c-.92.61-2.25.34-3.34.71.26-.96-.26-.26-.73-.25-.14,0-.03-.49-.22-.46-.23.03-.91.73-1.43.85-1.84.43-2.53-1.41-3.46-2.52.32,1.88-1.2,2.58-2.26,3.58-.7-.93-2.57-.82-2.96-1.63-1.03-2.12-1.3-5.83-.98-8.15-.61-.26-.42.45-.58.45-.33-.01-1.34-.29-1.66-.2-.18.05-.2.75-.38.47-.05-.07.11-.44-.16-.49-.21-.04-.53.23-.81.13-.11-.04-1.75-1.15-1.95-1.31-.88-.68-2.21-2.58-2.57-3.58.3.01.22-.23.24-.24.12-.06.47.14.49-.13.03-.4-.68-1.31-.25-2.01l-.47.47c.53-1.43-.82-2.79.24-4.17l-.48.35c.22-1.03.21-2.42.47-3.41.04-.15.69-.44.72-.41.05.07-.4,1.22-.43,1.62-.02.23,0,2.43.04,2.55.08.39.75.46.87.35.09-.08-.26-.77-.24-1.07.14-2.34,1.27-5.11,1.92-7.38l-.61-.37c.24.86-.14.61-.59,1.19l-.24-.48c.75-1,1.59-2.83,2.74-3.6.42-.28.75.49.6-.93.9.51.58,0,.9-.23,1.28-.89,2.56-2.32,3.83-3.09C19.29.42,28.92-.09,32.23,8.93l1.02,1.49c-.4-1.43-.63-3.34-1.59-4.38.11-.96-.77-.1-.8-.99,0-.14.75-.13.48-.35-.14-.11-.54-.04-.95-.48l.47-.36c-.14-.24-.37.16-.47.12-.04-.01-.32-.55-.6-.73-.71-.46-.91-.77-1.48-1.18-.28-.2-.84-.13-.98-.29-.13-.15.01-.58-.04-.66-.04-.06-.84.33-1.37.08-.44-.21-.28-1.1-.65-.08-1.12-1.21-1.09-.27-1.18-.26-.11,0-.4-.19-.61-.21l-.24-.24ZM25.86,31.9c-.09-.67-.65-2.76-.57-3.05.44-1.57,3.94-3.61,4.56-5.01,1.41-3.17,2.04-11.91.75-15.14-5.77-14.54-27.98.94-24.15,13.04.65,1.36.94,4.76,1.76,5.92.34.48,3.47,1.59,3.58,2.02.03.13.22,2.44.21,2.59-.08,1.08-.32.84-.11,2.46.07.56-.47.84.38.63-.52.84.78,1.67,1.18,1.3.06-.05-.03-.76.37-.95.66-.31.57.54.71.48,1.41-.61,1.65-4.3,2.15-4.29.96.02,1.4,5.15,2.63,5.14.32,0,.76-.45,1.28-.15.58-1.51,0-3.19.41-4.74l1.04-1.21c.76,1.75-.2,4.85,1.92,5.84,1.54.72,2.17-2.69,2.11-3.79-.02-.31-.18-.6-.2-.86v-.24ZM12.15,5.89v.24l.12-.12-.12-.12ZM11.08,6.85c-.5-.07-.54-.02-.47.47l.47-.47ZM9.24,8.82c.24-.32,1.2-.57,1.01-1.5-.24.42-1.7,1.13-1.76,1.23-.15.24.04.77-.04.92-.01.03-.37-.28-.58-.02-.29.36-2.21,4.14-2.04,4.31.49.45,1-1.37,1.14-1.6.61-1,1.56-2.41,2.26-3.34ZM32.42,10.18v.24l.12-.12-.12-.12ZM5.71,11.38v.24l.12-.12-.12-.12ZM33.01,12.81c.17-.33-.15-.64-.23-.47-.17.33.15.64.23.47ZM6.07,15.19s.04-1.11,0-1.19c-.25-.55-.8,2.1,0,1.19ZM33.49,15.91l-.12-1.91c-.41.43-.59,1.67.12,1.91ZM5.59,16.15c-.11-.14-.75.7-.6.95.23-.37.46,0,.49,0,.05-.01.14-.91.11-.95ZM32.06,16.15c-.09.2,0,1.04-.12,1.43.86-.34.27-1.77.12-1.43ZM33.61,16.63v.24l.12-.12-.12-.12ZM5.24,17.59c-.54.36-.3.69,0,.23.08-.12.19-.13,0-.23ZM31.73,22.03c.45-1.09.68-3.07.33-4.21l-.73,3.88c-1.19.81-.02,1.36.4.33ZM4.52,18.3v.24l.12-.12-.12-.12ZM5.48,18.77v.24l.12-.12-.12-.12ZM4.76,19.49c-.34.2-.28.6-.24.94.34-.2.28-.6.24-.94ZM34.09,20.44v.24l.12-.12-.12-.12ZM4.88,20.68c-.83-.08-.3.16-.34.41-.12.89-.13,2.67.09,3.53.19.74,1.29,1.37.86.19-.02-.05-.32-.07-.36-.22-.1-.51.49-1.21.45-1.26-.02-.03-.34.1-.51-.33-.27-.7-.19-1.56-.2-2.3ZM34.09,20.92v.24l.12-.12-.12-.12ZM3.57,21.16v.24l.12-.12-.12-.12ZM5.24,21.88v.24l.12-.12-.12-.12ZM5.83,22.35c.17-.33-.15-.64-.23-.47-.17.33.15.64.23.47ZM33.61,22.35v.24l.12-.12-.12-.12ZM5.95,22.59v.24l.12-.12-.12-.12ZM33.25,23.78s.17-.58.12-.71c-.57.28-.32.95-.12.71ZM5.95,23.55v.24l.12-.12-.12-.12ZM6.55,25.69c.05-.12.08-1.04-.12-1.19-.68.3,0,1.45.12,1.19ZM3.45,25.7c-.33-.17-.64.15-.47.23.33.17.64-.15.47-.23ZM5.71,25.69v.24l.12-.12-.12-.12ZM7.02,26.88s-.35-1.23-.47-.95c-.16.35-.01,1.36.47.95ZM9.05,29.03v.24l.12-.12-.12-.12ZM21.21,34.76v.24l.12-.12-.12-.12ZM15.01,36.91v.24l.12-.12-.12-.12Z"/>
        <path d="M2.73,25.45s-.3.06-.24.24c-.9-.04.42-.97.24-.24Z"/>
        <path d="M25.86,32.14c-.02-.25,0-.21,0-.24v.24Z"/>
        <path d="M23.24.4l.24.24c-.05,0-.12.36-.59.02-1.08-.78.29-.25.35-.26Z"/>
        <path d="M.11,24.26s-.15-.12,0-.24v.24Z"/>
        <path d="M31.11,26.17s.23.02.24,0c-.02.02-.38.54-.24,0Z"/>
        <path d="M31.82,25.69c-.05-.19.14-.16.24-.24-.08.07-.15.17-.24.24Z"/>
        <path d="M30.39,4.22c-.05-.05-.53-.33,0-.24.01,0,0,.16,0,.24Z"/>
        <path d="M4.16,12.57l.24.48c-.49.63-1.11,1.23-1.53,1.93-.17.28-.11.71-.26.96s-.58-.05-.6-.02c-.06.09,0,1.42-.23,1.99-.12.29-.38,0-.72.4.14.04.48-.12.47.12-.52.52-.46,1.18-.49,1.86l-.7.88c.84-.18.08.87.11,1.56.05,1.32.75,3.05.62,4.29-.07.66.54-.09.46.23-.45,1.74-.86-.87-.9-1-.25-.85-.45-.86-.52-1.98.47-.16,0-.17,0-.24-.07-.96-.18-2.31-.05-3.25.16-1.12.33-1.68,1-2.48-.14-.04-.48.12-.47-.12.45-.88,1-1.72,1.47-2.58.85-1.57,1.21-1.83,2.1-3.03Z"/>
        <path d="M32.06,25.45s-.04-.2,0-.24c.04-.04.21.04.24,0-.08.08-.15.16-.24.24Z"/>
        <path d="M1.78,28.79c-.06.08-1.44-.39-.12-1.19.2.12.15,1.14.12,1.19Z"/>
        <path d="M22.28.17c.23.19-.82.59-.95.47-.29-.28.39-.95.95-.47Z"/>
        <path d="M10.59,5.4s-.57.33-.7.49c-.34-.87,1.1-1.24.7-.49Z"/>
        <path d="M15.85,1.6c.39.37-.34.63-.71.47,0-.31.56-.62.71-.47Z"/>
        <path d="M19.18.88c-.97.28-.93-.66-.36-.47.1.03.36.31.36.47Z"/>
        <path d="M20.61.88c-.12.26-.4-.34-.23-.71.12-.26.4.34.23.71Z"/>
        <path d="M17.76,1.12s-.09-.5.12-.47l.59.6c-.13.04-.68-.1-.71-.12Z"/>
        <path d="M9.41,6.6c-.28.27-.77-.1-.12-.47.21-.03.13.46.12.47Z"/>
        <path d="M13.94,3.02c-.5.07-.54.02-.47-.47l.47.47Z"/>
        <path d="M14.65,2.55c-.28.27-.77-.1-.12-.47.21-.03.13.46.12.47Z"/>
        <path d="M8.45,7.56c-.08.16-.4-.14-.23-.47.08-.16.4.14.23.47Z"/>
        <path d="M16.09,1.59c-.23-.12.47-.46.71-.36-.16.21-.43.5-.71.36Z"/>
        <path d="M19.78.17c.19.11.08.11,0,.23-.3.45-.54.13,0-.23Z"/>
        <polygon points="11.91 3.74 12.03 3.86 11.91 3.98 11.91 3.74"/>
        <polygon points="11.2 4.46 11.32 4.58 11.2 4.7 11.2 4.46"/>
        <polygon points="2.14 24.74 2.26 24.86 2.14 24.98 2.14 24.74"/>
        <g>
          <path d="M15.13,15.19c-.63-.23-.65-.82-.11-1.19l.11,1.19Z"/>
          <path d="M15.33,23.27c-.08.05-1.73-.03-1.87-.07-2.5-.77-2.11-8.8-1.53-10.9.12-.44.47-.44.5-.49.11-.26-.02-.8.31-1.22.04-.05,1.01-.65,1.07-.65.78-.1,2.29.14,2.85.75.05.06.78,1.27.8,1.34.72,2.47.44,6.67-.66,9.02-.14.31-1.37,2.15-1.48,2.22ZM14.42,10.66c-.36-.32-1.99,1.64-1.91,2.14l1.91-2.14ZM13.74,16.66c-.08.1.45,2.29.49,2.41.07.19.93,1.36,1.01,1.37.93.05,2.14-8.33-.48-8.82-.42.42.34,1.9.11,2.14-.16.17-.78-.47-.95,1.08-.03.3.22.6.22.73,0,.17-.53,0-.46.22.07.2.5.28.48.72,0,.17-.39.09-.44.16ZM12.99,18.3c.52-.2.57-.4.12-.71l-.12.71ZM14.02,20.61c-.3-.53-.32-1.33-.8-1.6-.19.48.75,2.55,1.19,2.15s-.37-.52-.39-.55ZM14.77,21.88v.24l.12-.12-.12-.12ZM13.1,22.35v.24l.12-.12-.12-.12Z"/>
          <g>
            <path d="M25.32,9.26c2.53-.71,2.35,4.88,2.21,6.29-.09.91-1.1,4.99-1.55,5.61-.06.08-1.57.91-1.67.9-.32-.02-1.19-1.35-1.32-1.72-.67-1.91.02-5.82.61-7.77.23-.74.98-3.1,1.72-3.31ZM24.65,19.23c.56-.39,1.66-7.21,1.21-8.33l-.82,1.88c.34,1.59-.32.66-.37.74-.15.22.27,3.75.19,3.93-.14.32-.87.27-.92,1.43-.02.55.52.47.7.34ZM24.19,17.34c.17-.33-.15-.64-.23-.47-.17.33.15.64.23.47Z"/>
            <path d="M21.39,26.24c-.07.02-.03.34-.17.37-.09.02-1.79.08-1.92.07-.06,0-1.04-.61-1.07-.67-.53-1.09-.12-3.18.62-4.11,1.64-2.09,5.09.72,3.56,3.8-.51,1.02-.49.38-1.01.54ZM21.25,22.9c-.09-.1-.83-.57-.87-.55-.2.1-1.39,2.67-1.2,2.86.15.15,3.9-.16,2.07-2.31Z"/>
          </g>
        </g>
      </g>
    </g>
  </g>
</svg>