<?xml version="1.0" encoding="UTF-8"?>
<svg id="Layer_2" data-name="Layer 2" xmlns="http://www.w3.org/2000/svg" viewBox="0 0 100 107.95">
  <defs>
    <style>
      .cls-1 {
        fill: #fff;
      }
    </style>
  </defs>
  <g id="Sketchy_Icons" data-name="Sketchy Icons">
    <g>
      <path class="cls-1" d="M24.8,83.89c-6.98-4.55-13.52-8.75-17.76-16.01C2.56,60.23-1.51,53.27.55,43.79c.76-3.47,2.66-6.36,3.81-9.48,4.77-12.86,7.65-25.33,23.09-29.57,6.41-1.76,10.8.28,16.19-.28,2.29-.24,4.62-1.78,6.8-2.38,16.1-4.43,34.42-2.44,43.75,12.2,1.15,1.81,4.42,9.54,4.58,11.46.05.59-.63.86-.69,1.08-.07.26,1.01-.23,1.12.39.04.22-.31.72-.23,1.08,1.98,9.4,1.19,27.56-3.11,36.4-2.95,6.06-11.88,16.9-17.79,20-.65.34-1.68.3-1.75.35-.23.17,1.09,4.48,1.1,5.55.01,1.63-.65,6.91-1.11,8.72-.35,1.39-2.01,5.59-3.01,6.55-1.74,1.68-5.4.65-7.74,1.32-.27.08-.3.7-.58.75-.14.03-2.7-.1-2.9-.15-2-.51-1.86-2.67-2.18-2.9-.23-.17-.99.43-1.3.41-.25-.02-.34-1.71-.66-.14-2.05-.06-4.99,2.71-6.88,1.64-.42-.24-.47-.83-.67-.94-.33-.19-.85.27-1.08.13-.21-.12-.3-1-.66-1.1-.81-.22-1.99,1.74-2.57,2.03-1.16.58-2.43.15-3.54.64.42-1.38-.41-.33-1.55-.68-.58-.18-.52-.76-.72-.77-.73-.05-1.79.5-2.84.09-3.65-1.43-3.45-6.89-3.32-10.25.05-1.22,1.14-7.1.96-7.43-.07-.14-2.47-1.51-2.84-.81.5-1.37-.72-.48-1.87-.8-.64-.18-.16-1.1-.39-1.08-.18,0-.52.46-.87.3-1.05-.48-2.47-1.71-3.91-2.22-.04-.01-.54-.87-.38,0ZM72.41,1.53c-.11-.06-1.86.19-2.47.16-8.44-.36-11.8-.4-19.86,2.33-.23.08-3.78.39-3.15,1.23.69.92,14.41-1.3,16.67-1.36,10.9-.25,21.11,3.29,28.2,10.87.39.42.55.97,1.3.8-1.06-1.3-1.87-2.97-2.73-4.5-2.51-1.69-4.21-4.04-7.46-5.7-2.54-1.3-5.79-1.91-7.93-3.53v.76c-.93-.86-1.59-.27-2.22-.38-.29-.05-.25-.63-.35-.68ZM34.04,5.52c-.18-.12.07-.71-.27-.65-1.54,1.37-4.74.98-6.52,1.27-.42.07-.45.83-.82,1.06-.21.13-3.16.59-3.69.84-4.88,2.25-9.04,7.55-11.46,12.38-.25.5-1.81,1-.98,2.39l3.84-3.21c6.08-3.26,12.13-6.5,18.34-9.52,2.57-1.25,5.47-2.01,7.96-3.49.57-.34.27-.72-.19-.85-1.11-.31-5.42.3-6.22-.22ZM59.16,6.78c-.06-.05.08-.72-.16-.72l-5.95,1.11c10.1,3.02,21.45,7.78,29.24,15.03,11.69,10.87,18.93,30.49,6.43,43.78-.26.27-.93-.04-.93.16,0,.18.47.55.3.87-.09.17-1.58,1.06-1.82,1.54-.56,1.17-.75,2.98-.6,4.28,4.67-5.46,8.43-11.46,10.67-18.34.28-.86,1.22-4.11,1.27-4.37,1.65-10-4.48-27.61-10.38-34.17-7.61-8.46-13.48-9.87-24.8-9.86-1.16,0-3.13.8-3.27.7ZM43.31,6.4v.38l.19-.19-.19-.19ZM45.41,8.31s.15-.81-.19-.76c-1.04.6-.26,1.19.19.76ZM41.73,9.63c.6-.4,1.28-.58,1.77-1.13-1.02-1.28-2.57.38-2.97.53-7.79,3.05-2.07,2.77,1.2.6ZM44.26,8.69c.27-.54-.24-1.02-.37-.76-.27.54.24,1.02.37.76ZM55.95,9.61c-3.47-.91-5.38-2.16-8.91-.8-.14.05-.18.57-.38.66-.56.26-1.69.04-2.01,1.13,4.33-.59,9.03-.34,13.35.38l-2.05-1.37ZM84.14,9.84v.38l.19-.19-.19-.19ZM42.55,10.22v.38l.19-.19-.19-.19ZM43.69,10.22v.38l.19-.19-.19-.19ZM58.57,10.23c-.38.27.21.52.39.75.38-.25-.18-.51-.39-.75ZM36.25,10.98c-.8-.11-.87-.04-.76.76l.76-.76ZM85.87,12.51c1.31-.17.17-1.9,0-1.52-.13.3.07,1.09,0,1.52ZM26.33,76.26c.52.39,2.39,1.24,1.9,1.91-.25.34-1.17-1.86-1.9-.57,2.26,1.76,6.79,5.44,9.45,6.2.51.14,2.46-.16,2.74.12.2.2.18,5.48.01,5.71-.02.03-.49-.41-.75-.2.93,1.31-.03,2.77.02,4.15.18,4.64,2.64,16.36,7.03,6.36.59-1.35,1.2-5.94,2.67-6.13,1.64-.22.9,1.57,1.35,1.93.11.09,1.51-1.56,2.48-.38.54.66,2.36,7.52,3.43,7.63,4.41-1.7,2.31-8.32,3.43-10.31.66-1.17,1.72,1.39,2.3,1.16s1.07-2.32,2.04-1.83c.11.05.32,1.27,1.97.69-.16,1.46-.59,8.61.18,9.54.45.55,2.76.22,3.35,0,2.09-.8,2.03-11.4,2.24-13.52.17-1.7.46-5.73.95-7.09.21-.57,3.97-4.74,4.72-5.54,2.59-2.75,6.85-5.49,8.21-8.96.68-1.74.44-5.57,2.86-4.19,1.48-7.1,3.07-14.18,1.81-21.47-1.24-7.2-5.77-15.21-10.55-19.2-9.04-7.56-14.61-9.74-26.23-10.34-10.95-.57-15.74,1.42-24.27,8.25-.38.3-1.74,2.19-1.88,2.25-.35.15-.98-.4-1.07-.34-.08.05-.26,1.14-.76,1.73-.79.94-2.05,1.26-2.69,1.92-2.84,2.93-7.32,9.67-8.49,13.61-2.11,7.16-.07,21.18,2.67,28.09,1.98,5.01,5.05,5.06,9.33,7.84.49.32.74.78,1.08,1.02-.59.08-1.11-.04-1.14,0-.9,1.1,1.84.87,1.52,0ZM89.63,14.11c-.05-.08-.57.2-.71.07-.57-.51-1.19-2.1-2.29-1.48,2.98,3.12,5.56,6.99,7.44,10.88,1.05,2.17,1.49,5.06,3.05,6.87-.98-2.34-1.11-5.19-2.03-7.51-1.24-3.13-3.98-6.55-5.46-8.82ZM34.05,13.5c-.18-.11.05-.72-.28-.61-.12.04-1.75,1.14-2.07,1.36-.36.25-3.91,3.16-3.46,3.6s4.83-3.65,6-3.53l.48-.86c-.2-.34-.49.15-.67.05ZM28.23,15.55c.06-.08.14-.8-.18-.75-1.42.61-2.84,1.14-4.16,1.96-.48.29-.6,1.01-.66,1.04-.18.09-.69-.42-1.03-.28-.22.09-3.09,2.54-3.5,2.88-3.19,2.64-6.06,5.82-8.39,8.62-2.3,2.75-2.88,2.56-3.2,6.13-.66,7.52-.54,14.63,1.29,22.01l-.02-5.16c.83-16.62,9.53-24.72,19.1-36.17.28-.34.72-.26.75-.29ZM94.07,15.18v.38l.19-.19-.19-.19ZM94.07,17.47v.38l.19-.19-.19-.19ZM27.47,19.38c.06-.11.21-1.2.2-1.52-1.01.46-.46,2-.2,1.52ZM94.45,18.23v.38l.19-.19-.19-.19ZM26.52,19v.38l.19-.19-.19-.19ZM25.94,20.14c.27-.54-.24-1.02-.37-.76-.27.54.24,1.02.37.76ZM17.36,19.76v.38l.19-.19-.19-.19ZM16.41,20.14c-.41-.42-3.54,2.8-4.19,1.9-.02,2.59-3.8,4.03-3.82,6.88,2.08-1.92,3.74-4.29,5.75-6.26.32-.31,3.06-1.68,2.25-2.51ZM23.47,22.05v.38l.19-.19-.19-.19ZM97.88,25.49v.38l.19-.19-.19-.19ZM86.05,29.3v.38l.19-.19-.19-.19ZM89.82,35.27c-.91-1.7-1.51-3.91-3.19-5.21.3,2.1,1.74,3.86,2.4,5.8,2.4,7.06,2.02,15.62.49,22.82-.11.53-2.08,4.63-.8,4.57.26-.01,2.71-3.81,2.94-4.3,3.8-8.05,2.09-16.35-1.84-23.7ZM96.74,30.83v.38l.19-.19-.19-.19ZM97.69,31.6c-.54-.27-1.02.24-.76.37.54.27,1.02-.24.76-.37ZM9.16,65.18c-3.3-8.28-4.27-17.69-3.8-26.52.02-.42.25-1.44-.39-1.34-.82,6.84-1.31,14.76.49,21.45.18.66,2.38,7.55,3.7,6.41ZM3.05,41.14l-1.41,2.98c-.94,5.99.28,8.91,1.59,14.15.1.41-.29,1.06-.18,1.19.06.07.62-.4.72-.32.19.14-.23.86.42.7-1.21-6.16-1.98-12.44-1.14-18.7ZM10.49,46.86v.38l.19-.19-.19-.19ZM12.74,63.14c-1.37-5.06-1.97-10.28-2.25-15.51-1.19.77-.15,1.8-.18,2.46-.01.23-.76.19-.8.45-.07.47.39,1.25.4,1.87.07,4.72.73,8.89,2.53,13.13.81,1.92,2.35,1.04,1.67.03-.02-.04-.73.42-.76.39-.16-.23.13-1.76-.02-2.4-.06-.26-.57-.3-.6-.41ZM8.97,57.55v.38l.19-.19-.19-.19ZM9.15,59.46c.27-.59-.19-1.55-.37-1.14-.27.59.19,1.55.37,1.14ZM96.16,59.08c.43-.44-.16-1.23-.76-.19-.05.33.73.21.76.19ZM9.35,60.22v.38l.19-.19-.19-.19ZM9.73,61.75v.38l.19-.19-.19-.19ZM94.07,61.75v.38l.19-.19-.19-.19ZM10.11,62.9v.38l.19-.19-.19-.19ZM87.96,63.66v.38l.19-.19-.19-.19ZM11.07,64.8l-.76-.76c-.11.8-.04.87.76.76ZM93.87,64.04c-.32-.35-1.17.42-1.11.98l-3.46,5.89c.57.58,4.89-6.53,4.57-6.87ZM11.83,65.19c-.54-.27-1.02.24-.76.37.54.27,1.02-.24.76-.37ZM11.64,65.95v.38l.19-.19-.19-.19ZM12.21,67.47l-.76-.76c-.11.8-.04.87.76.76ZM9.3,67.72c-.19-.12-.31-1.49-.52-.06l3.05,4.01c0-1.11-.74-2.5-1.38-3.36-.42-.55-.75-.35-1.14-.6ZM12.4,67.86v.38l.19-.19-.19-.19ZM14.69,68.62v.38l.19-.19-.19-.19ZM14.31,71.29v.38l.19-.19-.19-.19ZM89.3,71.3c-.67-.72-.79.63-.83.66-.15.08-.55-.27-.62-.2-.48.48-1.02,1.77-1.6,2.41-.42.47-1.17.37-1.15.94.77.08,4.39-3.6,4.2-3.81ZM12.21,71.68c-.34.43.6,1.2.95,1.52.24-.4-.78-1.74-.95-1.52ZM15.64,72.82c-.07-.16.04-1.56-.76-.76-.79.79.56.68.76.76.34.74.51,1.5,1.16,2.09l2.66,2.49c-.1-1.56-1.93-2.51-2.91-3.59-.45-.5.43-.47-.9-.99ZM18.89,72.82v.38l.19-.19-.19-.19ZM23.66,75.11c-.09-.06-1.5.02-2.22-.29-.87-.37-.53-1.14-.62-1.17-.08-.03-1.89-.1-1.73.3.77-.13,1.02.94,1.22,1.06.14.08.66-.33.68-.29.14.22-.13,1.35,0,1.53.06.07,1.53-.77,1.52.19,0,.13-.71.4-.58.95.26,1.1,2.33,1.97,2.91,2.87.28.43-.08.93-.04.95.18.11.72-.33,1.16-.17.76.28,2.02,2.08,3.42,1.69l-4.67-4.06c-3.69-.48-.85-3.43-1.05-3.57ZM81.67,76.64c.67.75,2.08-2.48,1.9-3.05-.71.18-2.33,2.58-1.9,3.05ZM24.23,75.49v.38l.19-.19-.19-.19ZM79.95,75.49v.38l.19-.19-.19-.19ZM84.53,75.49v.38l.19-.19-.19-.19ZM79.75,77.02c.24-.25-.27-1.13-.76-1.14-.25.61.17,1.76.76,1.14ZM81.28,78.16c.27-.59-.19-1.55-.37-1.14-.27.59.19,1.55.37,1.14ZM16.98,77.4v.38l.19-.19-.19-.19ZM78.61,77.4c-.53-.46-1.5.83-1.14,1.52.47,0,1.21-1.46,1.14-1.52ZM20.6,77.78s-.81-.15-.76.19c.6,1.04,1.19.26.76-.19ZM22.51,79.69l-.76-.76c-.11.8-.04.87.76.76ZM77,80c.14-.21.26-1.02-.1-1.07l-1.72,1.9c.36.08,1.73-.7,1.82-.83ZM23.27,80.45c.27-.59-.19-1.55-.37-1.14-.27.59.19,1.55.37,1.14ZM78.8,79.69v.38l.19-.19-.19-.19ZM23.85,80.07v.38l.19-.19-.19-.19ZM71.93,85.04v.38l.19-.19-.19-.19ZM33.2,85.42s-.81-.15-.76.19c.6,1.04,1.19.26.76-.19ZM33.96,86.18s.93.27,1.13.2c-.44-.91-1.52-.51-1.13-.2ZM72.5,87.33c-.49-.61-.69.04-.76.57-.22,1.74.31,3.82.2,5.37-.03.49-.51.96-.56,1.53-.15,1.75.06,3.49-.6,5.13,2.9-1.1,2.86-11.17,1.72-12.59ZM61.44,98.78c1.16-1.23,1.34-4.09,1.14-5.73-1.33,1.49-.91,3.91-1.14,5.73ZM75.37,93.81v.38l.19-.19-.19-.19ZM60.1,94.2v.38l.19-.19-.19-.19ZM74.99,95.72v.38l.19-.19-.19-.19ZM36.44,96.11v.38l.19-.19-.19-.19ZM75.17,97.63c-.88-1.08-1.45,2.9-1.56,3.13-.14.29-2.89,3.54-3.12,3.63-.84.36-2.06-.46-1.81.87,3.1.26,4.45-1.55,5.52-4.21.17-.43,1.07-3.29.96-3.42ZM37.39,101.45c-.06-.79.1-2.64-.75-3.05.06.79-.1,2.64.75,3.05ZM53.04,103.74l-2.66-5.34c-.33,2.56-.78,5.37,2.66,5.34ZM46.56,101.83c.76-.2.86-.82.76-1.53-.76.2-.86.82-.76,1.53ZM62.96,101.83c.27-.54-.24-1.02-.37-.76-.27.54.24,1.02.37.76ZM45.98,102.21v.38l.19-.19-.19-.19ZM37.97,102.59v.38l.19-.19-.19-.19ZM46.94,103.74l-3.43,1.9c1.47.19,2.73-.64,3.43-1.9ZM64.87,106.03c.5-.61-3.57-1.43-3.81-1.72.21,1.39,2.95,2.78,3.81,1.72Z"/>
      <path class="cls-1" d="M26.33,76.26s-.31,0-.38,0c.02.01.12-.2.38,0Z"/>
      <path class="cls-1" d="M24.8,83.89s.38-.02.38,0c.16.87-.35.02-.38,0Z"/>
      <g>
        <path class="cls-1" d="M80.76,42.53c-.99,1.84-3.85,2.65-5.4,3.56-2.46,1.43-5.84,3.82-8.58,4.43-2.35.52-1.44-1.43.37-1.94-.44-.17-1.42.25-1.81.06-.2-.1-3.24-2.44-3.54-2.72-2.01-1.89-2.68-4.54-2.65-7.25.03-3.04,1.56-7.43,4-9.37.34-.27,1.94-1.09,2.33-1.14,1.02-.13,4.36,1.39,5.13,2.08,1.28,1.16,1.51,4.61,2.11,4.76.51.13,4.44-1.63,6.24-.9,2.89,1.16,3.09,6.03,1.8,8.42ZM66.02,30.07c-1.07-1.01-3.72,2.99-4.09,3.73-.19.37-1.08,2.33-1.12,2.46-.11.33.21,1.27-.13,1.82l3.3-5.63c.23-.43,2.66-1.8,2.04-2.38ZM68.69,33.51c-5.99.23-7.19,7.77-3.8,11.92.28.34,1.36,1.44,1.71,1.47.53.05,8.75-3.92,9.63-4.5.96-.63,2.61-3.03,2.77-4.13.11-.78-.06-.5-.57-.57-1.6-.24-4.63.72-5.74,1.9-.49.52-1.35,2.98-2.87,1.77-1.03-.82.9-1.83-2.27-.61.68-2.58,1.1-4.59,1.14-7.25ZM68.12,48.01v.38l.19-.19-.19-.19Z"/>
        <g>
          <path class="cls-1" d="M37.02,51.44c.12-.05.3.05.38,0-.02,0-.36.21-.38,0Z"/>
          <path class="cls-1" d="M37.4,51.44c1.4-.99-.08-1.65.06-2.38.46-2.47,2.54-5.35,3.07-8.45.2-1.14.39-6.51-.09-7.11-.15-.19-3.35,2.46-3.78,2.98-.93,1.12-2.67,4.78-3.45,5.19-.1.05-2.21.5-2.31.44-.29-.17-1.3-3.08-1.6-3.79-.36-.85.32-1.28-1.74-1.72-1.09-.23-2.26,1.91-2.53,2.94-1,3.86,2.2,7.43,5.8,8.34,1.44.36,5.6.29,5.8.5,1.01,1.05-1.42,1.29-1.52,1.9.64-.26.73.79.95.78.39-.02-.12-1.09.76-.76.75.27.16.82.2,1.14-1.23.48-3.71.1-4.99-.25-4.07-1.09-6.55-2.53-9.65-4.97-.31-.25-.93-.06-1.01-.13-.03-.03.38-.54.29-.68-.12-.19-.81-.24-1.15-.93-1.14-2.36-1.67-5.4-.88-7.95s4.99-5.14,7.49-4.34c1.36.43,4.67,3.77,4.93,3.6.41-.29,2.18-4.31,3.63-5.35,1.56-1.11,4.5-1.77,5.9-.16.14.16,2.12,3.28,2.23,3.5,1.66,3.51-1.18,11.45-2.95,14.82-.91,1.73-1.45,2.74-3.45,2.85ZM39.68,31.21c-.07-.09-1.54.58-2.22.05-.68.84-4.99,5.9-4.26,6.82.56.7.85-.56.98-.72.69-.85,1.11-1.91,1.88-2.71.91-.94,2.52-1.6,3.38-2.27.34-.26.36-1,.24-1.17ZM24.04,37.32c1.17-.54,1.62-2.2,3.04-2.1-2.16-1.31-2.84-.12-3.04,2.1ZM22.9,35.03c-.6-.64-1.52,1.76-1.6,2.02-.42,1.44-.33,5.46.85,6.37,1.39,1.07.08-1.08.01-1.35-.33-1.48-.21-4.13.07-5.62.08-.46.75-1.33.68-1.42ZM23.47,38.46v.38l.19-.19-.19-.19ZM33.39,38.46v.38l.19-.19-.19-.19ZM22.7,43.81v.38l.19-.19-.19-.19ZM23.09,44.57v.38l.19-.19-.19-.19Z"/>
        </g>
      </g>
      <path class="cls-1" d="M55.58,54.25c.17,1.49,2.34,2.05,1.29,3.51,1.07-.35,1.02.78,1.27,1.77.39,1.56.92,4.1.37,5.58-.04.1-1.26,1.69-1.35,1.76-1.16.91-3.4.1-4.12.46s-.84,1.2-1.27,1.55c-.76.61-3.56,2.65-4.38,2.35-.12-.04-1.72-1.72-1.78-1.84-1.08-2.46-.02-6.46,1-8.84,1.21-2.81,2.15-3.3,4.17-5.06,1.62-1.41,1.88-3.48,4.81-1.24ZM55.71,64.42c.49-.41.14-4.3-.08-5.07-.07-.23-2.16-4.06-2.39-4.08-.06,0-.87.44-.99.63-1.16,1.78-1.87,4.34-3.41,5.78.08,1.19-2.09,5.53-1.52,6.18.92,1.04,4.37-5.58,4.85-5.73,2.55-.79,2.01,3.55,3.53,2.29Z"/>
      <path class="cls-1" d="M30.52,78.55c.4.41-1.25.87-1.52-.58.26-.02,1.46.52,1.52.58Z"/>
      <polygon class="cls-1" points="31.1 78.93 31.29 79.12 31.1 79.31 31.1 78.93"/>
    </g>
  </g>
</svg>