<?xml version="1.0" encoding="UTF-8"?>
<svg id="Layer_3" data-name="Layer 3" xmlns="http://www.w3.org/2000/svg" viewBox="0 0 100 77.34">
  <defs>
    <style>
      .cls-1 {
        fill: #fff;
      }
    </style>
  </defs>
  <g id="Sketchy_Icons" data-name="Sketchy Icons">
    <g>
      <path class="cls-1" d="M62.2,3.01c7.32,2.75,23.21,13.18,28.52,19.44,7.48,8.82,12.88,23.1,6.35,33.67-1.75,2.84-7.84,8.07-10.66,9.73-.47.27-5.33,2.67-5.3,1.37.02-.57,2.62-.52,1.25-1.62-.29,1.31-.83.29-1.19.45-.05.02-.06.51-.34.6-2.24.74-10.06,3.01-12.13,2.57-.45-.1.01-.89-.59-.73.43,1.18-2.08.37-2.83.11-.5-.17-2.27-1.42-2.59-1.19-.16.12-.73,3.16-1.02,3.86-.93,2.24-2.94,4.39-5.33,4.95-.38.09-4.78.13-5.02.04-.75-.28-1.48-1.24-2.17-1.26-1.25-.04-2.89,2.73-5.74,1.77-1.95-.66-2.96-3.96-3.64-3.95-.33,0-3.3,4.22-4.85,4.53-1.29-.64-3.28-.21-4.45-.91-.31-.19-2.63-2.88-2.77-3.18-1.04-2.37-1.91-7.71-2.54-10.38-.03-.11.41-2.51-.74-1.6-.13.1.3.86-.36.71.14-1.45-2.44-.8-1.63-.36.37.2,1.98.43,1.97.9,0,.9-2.8-.05-2.88-.18-.06-.09.46-.68.32-1.01-.03-.08-1.13-1.13-1.22-1.14-1.51-.19.94,1.71.9,1.79-1.49.38-2.1.03-3.34-.71C9.55,56.14,1.81,51.37.23,39.41c-1.33-10.11,3.13-16.32,9.84-22.49C25,3.2,41.76-4.67,62.2,3.01ZM47.59,1.3c-.2-.12.16-.78-.42-.62.27,1.31-1.29.23-1.45,1.07l3.97.36c.28-1.39-1.37-.36-2.1-.81ZM45,2.12l-1.8-.72c-.29,1.23,1.2.19,1.8.72ZM40.3,1.4c-.36-.37-1.45.7-1.08,1.08s1.45-.7,1.08-1.08ZM42.83,1.4c-.09-.09-2.58.03-1.8.72.25.22,2.61.1,1.8-.72ZM50.42,2.12c.2.23,1.43.38,1.43-.18,0-.75-2.23-.74-1.43.18ZM52.94,1.76c-.42-.41-1.16.15-.18.72.31.05.2-.69.18-.72ZM53.66,2.48c.11.1,2.39.25,2.88.19l-2.71-.9c-.31-.05-.2.69-.18.71ZM38.14,2.12c-.45-.21-2.08-.04-2.16.71.46-.03,2.69-.47,2.16-.71ZM35.25,3.2s.14-.76-.18-.72c-.99.56-.24,1.13.18.72ZM57.64,3.2s.14-.76-.18-.72c-.99.56-.24,1.13.18.72ZM33.99,2.84v.36l.18-.18-.18-.18ZM58.27,4.41c-9.59-2.44-23.02-1.05-31.86,2.56-1.19.49-2.11,1.93-2.91,1.29.35,1.01-1.34,1.03-2.28,1.67-4.62,3.15-9.54,7.65-12.69,11.85-.48.63-2.45,2.01-.48,1.69,8.91-7.15,20.87-11.08,32.12-12.65,12.24-1.7,24.95-1.09,36.6,3.2-2.89-2.82-6.52-4.64-9.9-6.56-2.59.09-1.23-.42-1.66-1.02-.1-.15-3.31.64-2.53-1.08-1.58,1.29-.83.36-1.14.1-.15-.12-3.1-1.01-3.28-1.06ZM47.71,2.84v.36l.18-.18-.18-.18ZM58.18,2.84v.36l.18-.18-.18-.18ZM60.35,3.2v.36l.18-.18-.18-.18ZM59.62,3.56v.36l.18-.18-.18-.18ZM61.43,3.92v.36l.18-.18-.18-.18ZM62.87,4.28v.36l.18-.18-.18-.18ZM27.85,5.01v.36l.18-.18-.18-.18ZM55.95,11.36c-.23-.13.02-.62-.3-.59-.36.04-.02.58-.35.68-.26.08-4.49-.29-5.37-.2-.56.05-.96.57-1.15.61-.25.05-.09-.62-.34-.67-.89-.16-8.06.87-9.03,1.02-5.57.87-13.09,2.73-18.2,4.92-4.58,1.97-12.7,6.72-15.78,10.56-.48.6-.47,1.43-.52,1.48-.03.03-.68-.4-.71-.37-.14.15-1.15,3.5-1.24,3.92-.7,3.57-.11,7.97,1.35,11.29,1.65,3.75,8.26,11.85,11.84,13.78.93.5,8.15,2.87,8.77,2.72,1.08-.26.43-5.07,1.65-3.94.53.49-.35,2.25.58,2.47.49.12,1.03-.89,1.1.65.17,4.06-.71,8.55,1.94,12.1,1.34,1.8,4.49,3,6.47,1.53,1.65-1.23,1.91-4.17,2.94-5.36.53-.61,1.25-.5,1.35-.63.17-.22-.22-1.9.97-1.66,1.39.28,1.05,4.07,1.26,5.07.06.3.6.28.71.5.27.53.37,1.72.93,1.9,1.37.43,2.15-2.49,3.3-2.82,1.25-.36,1.65.51,2.1.53.56.03,1.24-1.11,2.14-.96.27.05,1.18,4.44,3.45,3.84,1.81-.48,4.05-5.45,4.29-7.29.11-.78-.11-3.96.03-4.11.21-.23,1.39.42,1.44.36.42-.59.03-5.78.91-5.76,1.42.03.45,6.37.95,7.15.98,1.54,11.49.08,13.45-.34,9.01-1.96,18.18-5.24,18.19-16.01.01-10.15-7.93-23.34-14.7-29.65-.34-.32-1.08-1.44-1.17-1.49-.22-.1-1.04.47-1.39.29-.04-.02.4-.68,0-.91-.44-.25-.74.18-1.01.07-4.41-1.74-8.66-3.51-13.33-4.2-1.74-.26-4.41-.58-6.09-.74-.19-.02.19,1.22-1.49.22ZM31.82,12.94v.36l.18-.18-.18-.18ZM81.47,15.83s-1.04-.41-1.08-.37c-.81.97,1.62.84,1.08.37ZM82.01,16.55v.36l.18-.18-.18-.18ZM85.56,21.09c-.14-.09-.26-1.5-.47-.05,4.54,5.47,8.46,12.17,10.28,19.31.89,3.5,1.34,9.38.45,12.8-.03.12-1.25,1.84-1.35,2.17-.05.31.67.21.71.17.13-.11,1.64-2.62,1.71-2.8,1.51-3.78.66-12.42-.37-16.39-.58-2.23-3.41-8.14-4.61-10-.02-.03-.53.25-.7.11-2.11-1.81-3.2-3.72-5.66-5.33ZM6.55,21.97c-.22.31-1.05.71-.73,1.07.2-.29,1.03-.68.73-1.07ZM4.56,26.65c-.55-1.13.44-1.55.55-2.52-.66.62-2.01,1.94-.55,2.52ZM7.09,24.13c-.51-.26-.96.23-.72.35.51.26.96-.23.72-.35ZM2.21,30.25v.36l.18-.18-.18-.18ZM4.38,47.21v.36l.18-.18-.18-.18ZM92.12,58.39v.36l.18-.18-.18-.18ZM89.95,59.47v.36l.18-.18-.18-.18ZM19.01,60.55c.42.21.83-.23,1.07-.54-.36-.15-1.42.36-1.07.54ZM88.33,60.92c-1-.24-.51.35-1.08.9l1.08-.9ZM64.14,67.03c.11.13,2.93.71,3.41.75,5.42.44,11.99-2.2,16.8-4.53-1.36.38-3.04.44-4.36.76-3.91.97-8.06,2.57-12.74,2.54-.44,0-3.03-.72-3.12-.59-.04.06-.03,1.03,0,1.07ZM85.26,64.16v.36l.18-.18-.18-.18ZM84.54,64.88v.36l.18-.18-.18-.18ZM84,65.24c-.75-.1-.82-.04-.72.72l.72-.72ZM41.57,70.29v.36l.18-.18-.18-.18ZM42.11,73.18s.89.23,1.08.18c-.95-2.15-1.58-.75-1.08-.18ZM51.86,73.17c.26-.51-.23-.96-.35-.72-.26.51.23.96.35.72ZM52.76,73.18v.36l.18-.18-.18-.18Z"/>
      <path class="cls-1" d="M38.3,19.28c4.49,5.31,5.07,13.96,0,19.01-.09.09.14.59-.12.8-.48.38-1.07.34-1.55.58-.27.13-.24.61-.51.66-.72.15-5.28-.8-5.81-1.15-.2-.13-2.49-3.57-2.69-3.99-2.26-4.74-2.61-14.38.45-18.72,2.49-3.55,8.18.37,10.25,2.81ZM37.32,22.06c-.07-.11-1.42-1.83-1.51-1.92-.88-.86-3.08-2.02-4.35-1.75-3.2.68-3.19,8.97-2.06,11.4.84,1.81,3.38,4.06,5.35,4.42,3.29.62,3.84-1.35,4.12-4.16.22-2.18-.47-6.33-1.55-7.99ZM37.42,35.31c-1.39-.26-1.12,1.1-2.52,1.31-.78.12-1.4-.89-2.17-.05,1.68,1.66,3.64.53,4.69-1.26ZM32.36,35.67c-.56-.25-1.47.18-1.08.35.56.25,1.47-.18,1.08-.35Z"/>
      <path class="cls-1" d="M73.04,19.92c1.43,1.35,1.76,5.4,1.57,7.26-.21,2-2.56,7.4-3.76,9.06-2.5,3.47-8.47,6.37-12.11,2.82-.31-.3-.29-.77-.52-1.11-.16-.23-.63-.31-.72-.48-.06-.11-.37-2.25-.38-2.47-.09-4.73,2.2-8.97,5.61-12.11,2.42-2.22,7.22-5.88,10.31-2.98ZM70.44,23.6c-1.48-2.09-1.18-.93-2.53-.73-2.86.43-4.95,3.05-5.84,5.86-.34,1.07-.15,2.33-.35,2.88-.15.42-.77.4-.83.7-.21.95.06,4.14.94,4.78,1.7,1.23,5.15-1.67,6.27-3.03.29-.35,1.62-1.95,1.69-2.08.3-.51,1.51-4.56,1.54-5.21.06-1.29-.24-2.25-.89-3.17Z"/>
      <path class="cls-1" d="M55.38,47.65c.22.43.18,1.4.08,1.89-.54,2.58-4.75.81-6.33.58-2.34-.33-4.47-.62-6.29-.92-.31-.05-.66-.47-.97-.49-.42-.02-1.54,1.27-1.87-.32-.21-.99,1.26-2.03-.77-1.19-.5-1.58,1.23-2.05,1.63-2.91.3-.64-.27-1.58.27-2.04.89-.79,4.09-1.34,5.32-1.79,1.98-.72,1.75-1.92,4.87-1.19,1.51.35,1.61,4.44,2.28,6.02.44,1.04,1.63,2.07,1.78,2.36ZM50.78,40.72c-1.1-1.25-.31,2.13,0,1.44.06-.12.05-1.38,0-1.44ZM51.14,48.65c.21-1.63-.95-2.94-1.58-4.37-.3-.68-.3-2.6-1.11-2.74-.27-.05-2.11,1-2.38,1.22-.09.07-1.33,1.34-1.42,1.43-.68.72-2.63,2.25-1.22,2.89,1.6.74,5.78.36,7.71,1.55ZM43.74,42.52v.36l.18-.18-.18-.18ZM43.01,42.88v.36l.18-.18-.18-.18ZM53.82,48.85c-.09-.1-.33-.94-.51-.56-.88,1.89,1.75,1.82,1.07.73-.02-.03-.39.02-.56-.17Z"/>
      <polygon class="cls-1" points="28.57 61.27 28.75 61.45 28.57 61.63 28.57 61.27"/>
    </g>
  </g>
</svg>