<?xml version="1.0" encoding="UTF-8"?>
<svg id="Layer_2" data-name="Layer 2" xmlns="http://www.w3.org/2000/svg" viewBox="0 0 100 122.53">
  <defs>
    <style>
      .cls-1 {
        fill: #fff;
      }
    </style>
  </defs>
  <g id="Sketchy_Icons" data-name="Sketchy Icons">
    <g>
      <path class="cls-1" d="M79.82,7.79c10.02,6.62,17.52,23.94,19.27,35.63,2.12,14.13,1.05,26.64-8.87,37.62-.89.98-4.36,3.27-4.44,3.97-.07.63.74,3.85.96,4.67,1.39,5.22,3.98,11.01,3,16.57-.33,1.89-.96,1.6-2.2,2.67-.69.59-.58,1.68-1.7.43.35,1.21-1.29.52-2.09.62-.37.05-.7.41-.95.42-.91.04-3.05-.56-3.15-.44-.15.18-.56,3.6-.94,4.6-.05.12-1.19,2.17-1.28,2.27-.97,1.12-4.09,1.89-5.52,1.77-.54-.04-.57-1.07-.89.14-.26-.63-.98-.29-1.18-.38-.66-.31-.1-1.12-1.34-.55l-3.37-3.6c-.02.37-.06.78-.24,1.12-.88,1.63-3.5,5.07-4.85,6.04-.64.46-2.76,1.14-3.53,1.18-.17,0-.5-.4-.86-.39-1.2.03-4.61.35-5.44.09-1.43-.45-2.28-2.17-2.83-3.46-1.15-2.72-1.34-5.72-2.06-8.53-.64-2.5-2.87-11.98-4.17-13.53-.17-.2-3.53-3.26-3.77-3.42-1.49-1.06-1.92-.43-2.92-.57-.34-.05-.04-.65-.34-.63s-.02.5-.29.58c-.46.13-3.9-.4-4.53-.59-1.84-.57-2.42-1.57-3.53-2.21-4.59-2.66-7.66-3.12-12.21-6.86C-2.7,69.62-3.49,43.82,6.7,26.21,20.93,1.62,55.62-8.19,79.82,7.79ZM53.03,1.6c-2.3-.19-5.79.34-8.3.63-.4.05-.77.49-.94.49-.27,0-.54-.62-.74-.51-.03.01.07.42-.16.51-.8.33-1.6-.03-2.07.07-.29.06-.17.59-.2.62-.69.51-.54-.49-.6-.6-.24-.37-.28.59-.48.63-.46.09-1.17-.36-1.29-.29-.09.05-.09.68-.53.83-.28.1-.76-.19-1.05-.1-2.39.8-6.05,2.31-8.02,3.42-1.57.88-3.36,2.07-4.42,2.7-.33.2-2.25.89-2.33.99-.03.04.33.56.29.58-.15.09-.79-.14-1.15.07-.27.15-3.94,3.68-4.22,3.97-1.63,1.66-3.46,4.77-4.62,5.96-.03.03-.51-.33-.57-.28-.07.05-.16.72-.37,1C4.68,31.15,1.2,40.22,1.04,51.35c0,.24.24,1.4.42,1.4,1.04-10.12,4.83-18.76,11.05-26.7C24.64,10.57,39.01,4.53,58.61,3.71c3.14-.13,6.44.18,9.55.61-1.36-1.33-4.08-1.2-5.6-2.41.18,1.63-.7.09-1.2-.02-1.23-.27-3.02-.02-4.32-.08-.34-.01-.66-.42-.84-.41-.3.01-.55.62-.75.5-.04-.02.07-.45-.15-.55s-1.61.21-1.98.25h-.3ZM63.62,4.93c-.35-.18-.7.19-.9.45.3.13,1.19-.31.9-.45ZM63.92,5.53s.94.14,1.2.16c-.53-1.14-1.44-.34-1.2-.16ZM66.04,5.83s.12-.89-.15-.9c-.89.51-.26,1.37.15.9ZM76.84,8.95c-1.65-.81-6.25-2.78-7.97-3.08-.67-.12-1.67.45-2.53-.34-.19.93.33.45.71.64,1.72.84,3.57,1.27,5.24,2.03,3.86,1.75,7.65,4.25,10.84,7.01,1.25-.33-.86-1.23-.96-1.32-.85-.78-4.77-4.67-5.33-4.94ZM91.75,64.55c-.06.42.07,1.61-.91.9-.1-.08.54-2.15.63-2.49.06-.24.48-.24.52-.39.18-.62-.66-3.91.96-4.69-.2.46.11,2.92,0,3.03-.12.13-.78-.57-.91-.15,1.5.42-1.11.85.91,1.36.13-1.9.78-3.97,1-5.8,1.09-9.17-.04-25.89-5.4-33.52-1.24-1.76-3.34-3.97-4.76-4.84-.24-.15-1.32-1.59-1.84-2.02-3.88-3.14-9.73-6.59-14.25-8.02-1.06-.34-2.57-.3-3.63-.88-.93.05-.29.32.07.54,2.9,1.74,5.79,3.32,8.39,5.53,1.03.87,2.79,2.04,2.89,3.32.52.16.16-.75.45-.6.31.16,3.72,3.53,3.17,4.24-.68-.04-.88-.76-1.22-1.01-1.69-1.21-3.12-2.94-4.84-4.28-.92-.72-1.84-1.38-2.74-2.1-.45-.35-1.37-.5-1.8-.95-.3-.32.04-.72.01-.74-.17-.09-.68.11-1.11-.11-.59-.3-1.43-1.44-1.86-1.68-.94-.52-2.37-.82-3.21-1.28-.47-.26-.77-1.88-1.53-.27-.3-.25-.32-.71-.69-.9-1.05-.56-6.76-.71-8.05-.57-7.04.75-16.11,6.93-21.03,11.64-3.32,3.18-7.07,7.33-9.71,10.56-9.11,11.14-13.13,22.79-9.6,37.75,1.31,5.55,7.48,18.85,13.06,20.83,2.36.83,1.71-.65,1.83-.61.19.06.47.63.89.76.86.26,4.58.42,5.58.36.81-.05,1.44-.6,2.3-.56,1.22.07,1.9,1.37,2.86,1.71.14.05,3.58.13,1.69.78-.77.27-1.32-.46-1.02.66,1.29,2.55,3.92,4.73,5.14,7.26.85,1.76.8,4.04,1.44,5.83.48,1.36,1.73,2.83,2.25,4.34.58,1.68.21,3.62.73,5.09.15.42,2.2,3.43,2.48,3.57.56.26,1.18.03,1.64.17,2.63.83,5.62,2.42,7.93-.13.35-.39,2.72-4.69,2.86-5.19.3-1.12-.87-4.97-.95-6.65-.05-1.04-.29-5.75,1.34-3.46,1.4,1.98,2.07,5.47,2.32,7.66.2,1.79,1.96,1.56,3.17,2.28.85.51,2.67,2.3,3.32,2.43,5.83,1.13,2.97-5.18,2.48-8.22-.16-.99-1.07-6.37-.79-6.87.13-.22,1.24-.23,1.44,0,.03.04-.22.43.01.73.19.24.72.33.84.53,1.15,1.97.9,4.86,1.6,6.05.17.29.95.34,1.42.81.36.36.07.77.28.94,1.03.81,3.67.72,4.71-.03.68-.5,2.97-4.06,2.89-4.93-.01-.11-.45-1.93-.52-2.01-.02-.03-.56.35-.6.31-.07-.09.17-.65.13-.95-.7-4.63-2.46-9.59-3.16-14.32,1.38-1.49.58-1.89.58-3.35,0-2.25,1.87-2.53,3.21-3.77,2.7-2.5,4.06-8.12,4.89-11.75.28-1.21.48-2.47.69-3.69-.48.13-.66,1.05-.9,1.51-.02.03-.69.43,0,.3ZM43.65,7.35c-.53-.08-1,.02-1.51.15-3.51.87-5.61,2.42-8.77,3.6-.3.11-.84-.2-.9-.12-.08.09.15.72-.18.94-.24.16-.78.11-1.11.3-6.21,3.59-14,12.93-17.46,18.66-1,1.65-1.76,3.46-2.44,5.08-.04.1-.48-.2-.61,0-.28.44-.38,1.45-.66,2.03-2.59,5.44-3.9,9.62-4.17,15.8-.22,5.16.29,13.04,2.11,17.88,1.93,5.12,7.28,9.17,11.36,12.54-1.02-1.99-2.75-3.56-3.92-5.46-8.33-13.58-7.89-31.78,0-44.75,4.8-7.9,16.4-19.59,24.3-24.43l3.97-2.23ZM27.17,14.31v.3l.15-.15-.15-.15ZM83.73,15.52v.3l.15-.15-.15-.15ZM84.64,15.82v.3l.15-.15-.15-.15ZM23.16,16.8s-.38.71-.23.83l1.36-1.06c-.21-.07-1.05.16-1.13.22ZM21.58,18.85c.12.15.85-.59.6-.91-.12-.15-.85.59-.6.91ZM11.45,32.36c1.23-2.09,2.7-4.39,4.13-6.34.83-1.14,5.59-6.56,5.7-7.02.07-.29.06-.54-.31-.45-.47,1.31-2.15,2.18-3.04,3.16-3.83,4.2-9.53,11.75-11.45,16.45-1.48,3.61-2.83,8.3-3.32,12.36-.44,3.6-.37,9.98.34,13.51.36,1.76,1.39,3.42,2.05,5.06l-1.04-9.85c-.38-10.18,1.83-18.17,6.95-26.87ZM93.11,29.45c-.3.21.16.42.31.59.3-.2-.14-.4-.31-.59ZM94.47,33.37l-.9-2.11c.39.54-.14,2.34.9,2.11ZM94.17,33.68c-.07.06.52,1.2.59,1.71.58,4.35,1.19,9.35,1.11,13.93-.06,3.54-.93,7.42-.95,10.99l1.5-8.12c.19-5.97.31-12.07-1.42-17.83-.11-.35-.42-1.06-.83-.68ZM97.95,47.6v.3l.15-.15-.15-.15ZM91.91,76.52c6.14-9.13,6.82-14.76,6.22-25.47-.05-.9.82-2.05-.19-2.84-.01,1.31.02,2.79-.14,4.09-.67,5.44-2.56,15.59-4.94,20.48-.72,1.48-3.08,3.63-2.64,5.23.22.79,1.46-1.18,1.67-1.5ZM1.61,53.65c.22-.42-.19-.81-.3-.6-.22.42.19.81.3.6ZM1.46,53.96v.3l.15-.15-.15-.15ZM94.77,62.73c-.51-.49.37-1.7-.3-1.81-.07.59-.89,2.03.3,1.81ZM94.32,63.04v.3l.15-.15-.15-.15ZM94.02,63.64v.3l.15-.15-.15-.15ZM93.56,66.67c.22-.42-.19-.81-.3-.6-.22.42.19.81.3.6ZM93.26,68.18s.13-.95.16-1.21l-.76,1.05c-.04.26.58.17.6.15ZM92.81,68.48v.3l.15-.15-.15-.15ZM92.2,70v.3l.15-.15-.15-.15ZM85.7,81.19c.16.17,3.72-2,3.32-3.03-.74.21-.92,1.11-1.43,1.52-.2.16-2.48.87-1.89,1.5ZM85.24,81.19v.3l.15-.15-.15-.15ZM35.88,90.17c-.1-.04-.1-.5-.23-.49l-1.38.75,3.32,1.21c-.66-1.56-.57-1.06-1.72-1.47ZM28.98,90.27v.3l.15-.15-.15-.15ZM29.89,90.58v.3l.15-.15-.15-.15ZM30.5,90.88v.3l.15-.15-.15-.15ZM31.1,90.88v.3l.15-.15-.15-.15ZM31.71,91.18v.3l.15-.15-.15-.15ZM88.12,105.41c-.32-.38-1.48,1.12-1.36,1.5.25-.4,1.24-.21,1.35-.32.05-.05.06-1.14.02-1.19ZM78.59,106.62v.3l.15-.15-.15-.15ZM78.29,109.64v.3l.15-.15-.15-.15ZM69.01,113.94c.6.45-.43,1.52,2.23,2.15,1.69.4,3.15.43,4.17-1.15-3.23,1.06-5.31-2.37-7.71-3.17-1.03-.34-.11,2.12.31,2.11.29-.01.37-.95.6-.9.7.15.22.88-.14,1.06.16.3.45-.17.55-.1ZM68.61,114.48v.3l.15-.15-.15-.15ZM50.91,120.53c.15-.12-1.3-3.59-2.12-2.72-.71.76,1.42,3.27,2.12,2.72ZM53.87,118.18l-2.35.09c-.22.67,1.68,2.12,2.04,2.21,1.16.3,3.06-.64,4.01-1.31-.99-.47-2.21-.03-3.21-.39-.44-.16-.44-.58-.49-.6ZM59.99,119.63c.34-.35-.13-.97-.6-.15-.04.26.58.17.6.15Z"/>
      <path class="cls-1" d="M53.03,1.6h.3c-.05,0-.1.3-.15.3-.06,0-.09-.29-.15-.3Z"/>
      <path class="cls-1" d="M91.75,64.55s-.02-.3,0-.3c.7-.13,0,.27,0,.3Z"/>
      <path class="cls-1" d="M75.9,27.14c5.85,3.86,5.67,18.18,3.56,24.12-.49,1.38-3.2,6.41-4.1,7.18-.06.05-.4-.23-.48-.16-2.93,2.3-4.31,2.59-8.17,1.51-.35-.1-.78.16-1.2,0-1.53-.59-2.36-2.37-2.9-3.76-1.9-4.88-1.02-14.62.61-19.86,1.6-5.15,6.17-13.32,12.68-9.02ZM72.09,27.93c-.08-.46.26-.62-.31-.46-.22.06-3.68,1.23-3.32,1.67,3.98-.13,5.49,3.53,6.31,6.87,1.48,5.95.45,15.07-2.79,20.27-.2.32-1.18,1.04-1.55,1.62-.17.27-.79.63,0,.9.1.03.15-.41.58-.64,8.57-4.65,10.49-18.17,6.49-26.4-.8-1.66-2.7-4.23-4.67-4.44-.74-.08-.18.7-.74.62ZM69.21,30.35v.3l.15-.15-.15-.15ZM70.12,30.96v.3l.15-.15-.15-.15ZM70.72,31.26c-.15.47.69.86.91,1.2.15-.47-.69-.85-.91-1.2ZM68.45,32.47c-1.43.27-2.08,2.15-2.57,3.32l2.57-3.32ZM72.99,34.89c.15-.87-.51-1.3-1.06-1.81.19.57.48,1.55,1.06,1.81ZM67.85,35.8c-1.04,1.36-1.07,4.64-1.29,6.31-.11.82-.43,1.51-.53,2.32-.01.09.42,2.26-.45,1.05-.92-1.27.32-5.96.15-7.56l-1.34,5c.14,2.47.12,5.72.82,8.08.3,1.02,2.46,5.15,3.86,4.33.46-.27,1.75-2.86,1.95-3.5,1.29-3.99,1.88-13.8-.46-17.31-1.35-2.02-1.86-.56-2.71.97v.3ZM73.6,36.7c.18-.35-.19-.7-.45-.9-.12.3.31,1.19.45.9ZM73.6,37.91c.21-.47-.15-1.23-.3-.9-.21.47.15,1.23.3.9ZM73.9,40.34c.05-.1.05-1.41,0-1.51-.36-.8-.36,2.31,0,1.51ZM74.05,40.64v.3l.15-.15-.15-.15ZM74.2,41.25c-.81-.93-.81,2.13,0,1.21.04-.05.04-1.16,0-1.21ZM74.2,42.76c-.46-.49-.8.43-.6.91.39,0,.79-.71.6-.91ZM73.9,46.09c.05-.1.05-2.01,0-2.12-.38-.83-.38,2.95,0,2.12ZM73.6,48.2c.05-.1.05-1.41,0-1.51-.36-.8-.36,2.31,0,1.51ZM63.47,49.11v.3l.15-.15-.15-.15ZM64.22,52.14c.19-.2-.21-.9-.6-.91-.2.48.14,1.4.6.91ZM65.83,55.38c-.25-.36-1.26-3.01-1.46-2.93-.7.28.16,2.53.37,2.95.13.26,1.63,1.58,1.75,1.58.18,0,.57-.45.31-.91-.18-.32-.81-.46-.97-.69ZM72.84,58.19v.3l.15-.15-.15-.15ZM69.52,58.5v.3l.15-.15-.15-.15Z"/>
      <path class="cls-1" d="M67.85,35.5c.24-.03.61-.1.61.15,0,.32-.55.08-.61.15,0-.1-.02-.3,0-.3Z"/>
      <path class="cls-1" d="M66.37,76.67c-.06.04-.23.89-.66,1.33-.13.13-2.98,1.81-3.18,1.88-.97.36-7.55.54-7.98.09-.14-.15.01-1.22.07-1.57.46-3.16,2.3-6.17,3.11-9.3.32-1.24.25-2.81.57-3.97.24-.86,1.15-2.82,2.14-1.79,1.21,2.42,2.72,4.72,4.26,6.94,1.13,1.64,3.54,3.23,3.1,5.54-.3,1.59-1.28.74-1.42.85ZM61.02,69.57c-.45-.56-.68-1.35-1.33-1.69.1,1.06-2.16,9.04-1.82,9.38.31.31,6.08-2.37,6.31-2.92.43-1.03-.42-.98-.55-1.23-.86-1.58-1.53-2.18-2.61-3.53ZM64.68,75.44v.3l.15-.15-.15-.15ZM64.07,75.75v.3l.15-.15-.15-.15ZM62.86,76.35v.3l.15-.15-.15-.15ZM63.31,77.87c-1.22-.35-1.17.84-.46.6.13-.04.46-.4.46-.6ZM62.1,78.17c-.32-.25-1.06.48-.91.6.32.25,1.06-.48.91-.6ZM55.9,78.77v.3l.15-.15-.15-.15Z"/>
      <path class="cls-1" d="M93.47,54.8c-.03.06-.45.05-.51.26-.11.42.74,2.22-.3,2.53-.31-.51-.13-3.78,0-3.93.21-.25,1.25.33.81,1.14ZM93.11,54.26v.3l.15-.15-.15-.15Z"/>
      <path class="cls-1" d="M93.56,53.35c-1.24.67-1.17-1.28-.15-1.81-.17.39.23,1.76.15,1.81Z"/>
      <path class="cls-1" d="M90.23,68.79c0-.1-.01-.3,0-.3.69-.1.02.27,0,.3Z"/>
      <path class="cls-1" d="M90.23,68.79c-.17.34-.44,1.29-.9,1.06.21-.44.43-.92.6-1.37-.08.14.1.35.3.3Z"/>
      <path class="cls-1" d="M89.93,68.48c.35-.92.76-1.79,1.06-2.73.68-.26.05,1.88,0,1.97-.16.38-.49.5-.77.75-.05.05-.28-.05-.3,0Z"/>
      <path class="cls-1" d="M79.95,19.46s-.06.45.06.52.43-.21.49-.16c5.08,5.24,10.2,11.11,11.83,18.26.7,3.08.94,6.81,1.07,10.57l-.44,2.88c-.56.42-.49.1-.55-.39-.43-3.39-.18-6.92-.7-10.31-.48-3.15-2.29-8.68-4.19-11.28s-4.71-5.18-7.29-7.82c-.27-.27-.19-.82-.33-1.01-.03-.03-.83.24-.85-.21-.02-.32.38-1.43.89-1.06Z"/>
      <path class="cls-1" d="M89.32,71.51c-.2.38-.65-.83.16-1.2,0,.25-.11,1.12-.16,1.2Z"/>
      <path class="cls-1" d="M88.72,72.42c-.11.21-.51-.18-.3-.6.11-.21.51.18.3.6Z"/>
      <polygon class="cls-1" points="87.97 72.42 88.12 72.57 87.97 72.72 87.97 72.42"/>
      <polygon class="cls-1" points="65.89 47 66.04 47.15 65.89 47.3 65.89 47"/>
      <polygon class="cls-1" points="65.89 46.39 66.04 46.54 65.89 46.69 65.89 46.39"/>
      <polygon class="cls-1" points="86.15 100.87 86.3 101.02 86.15 101.17 86.15 100.87"/>
      <g>
        <path class="cls-1" d="M25.5,41.85s-.3.26,0-.3c-.01,0-.01.3,0,.3Z"/>
        <path class="cls-1" d="M25.5,41.55c1.59-3,5.32-5.51,8.87-5.33,4.52.23,10.74,7.66,12.65,11.49,2.56,5.11,4.4,16.83-.06,21.26-.34.33-3.06,1.57-3.48,1.64-.22.04-.1-.59-.27-.59-.59.02-1.17.92-.93-.31-.56.88-3.06-.27-3.83-.7-5.89-3.29-10.88-10.29-13.1-16.57-1.47-4.17-1.72-6.53.14-10.58.35.15.35-.46,0-.3ZM37,38.22c-1.26-.26-2.71-.56-3.78-1.21-.34.2.35.53,0,.6-.79.16-2.23-.13-2.25,1.21.76-.59.57.32.76.32.49,0,1.56-.86,2.26-.79l3.02-.13ZM30.64,38.52c.22-.42-.19-.81-.3-.6-.22.42.19.81.3.6ZM30.95,39.13c-.42-.52-2.56.82-3.03,1.36-.12.14-1,1.28-1.04,1.36-.13.25.17.54.06.84-.03.09-.74,1.04-.76,1.13-.66,2.69.02,7.21,1.13,9.71.4.92,1.83,3.45,1.72,1.19-.2-4.16-2.6-8.1-.3-12.56.33-.64,2.68-2.47,2.22-3.02ZM34.32,40.88c-.08-.05.03-.6-.19-.54-.1.02-1.38.72-1.81.91-.26.11-.94-.02-.46.6.09.11,2.28-.32,2.74.15s.17,1.12.3,1.35c.02.03.3-.25.7.03.26.18,1.11,1.11.79,1.5l-2.7-2c-1.22-.24-1.93,1.72-2.29,2.62-.1.24-.4.98-.41,1.05-.36,2.43.49,5.98,1.56,8.16.17.34,1.09,1.19,1.22,1.45.18.35-.1.66-.09.69.11.24,1.05-.57,1.19.6-1.36.42-2.99-1.62-3.02-2.88-.59.15-.32,1.8-.22,2.19.5,1.96,3.32,5.39,5.1,6.4,6.09,3.45,8.42.3,7.45-5.95-.12-.75-.68-1.55-.77-2.26-.08-.61.31-1.09.12-1.92-.13-.56-5.4-8.63-6.23-9.73-.22-.29-2.02-2.55-2.18-2.61-.29-.1-.63.29-.81.19ZM37.45,40.94v.3l.15-.15-.15-.15ZM31.4,41.85v.3l.15-.15-.15-.15ZM38.62,42.33c-.65-1.13-.42.02-.18.35,2.76,3.65,5.09,8.05,7.35,12.04l.88,3.17c.02-2.99-.58-6.38-2-9.04-.9-1.69-2.52-2.98-3.24-4.78l-2.83-1.73ZM41.08,42.46v.3l.15-.15-.15-.15ZM47.74,54.86v.3l.15-.15-.15-.15ZM48.04,55.77v.3l.15-.15-.15-.15ZM48.04,56.38v.3l.15-.15-.15-.15ZM47.17,64.75c.96-2.19,1.09-5.4,1.02-7.76-.48-.08-.34.55-.4.88-.18.98-.07,2.2-.27,3.14-.14.66-.73,1.34-.94,2.1s.59,1.33-.5.99c0,1.14.55,1.88,1.09.66ZM45.32,61.52v.3l.15-.15-.15-.15ZM45.32,62.43v.3l.15-.15-.15-.15ZM33.22,63.04v.3l.15-.15-.15-.15ZM43.05,66.36c.34-.35-.13-.97-.6-.15-.04.26.58.17.6.15ZM42.14,66.06s-.89-.12-.9.15c.51.89,1.37.26.9-.15ZM37.76,66.36v.3l.15-.15-.15-.15ZM47.28,66.37c-.79-.26-.5.4-.76.52-1.7.79-4.17.7-5.6,1.89,2.64.78,5.17.26,6.35-2.41ZM39.57,66.67v.3l.15-.15-.15-.15ZM38.97,66.97v.3l.15-.15-.15-.15Z"/>
        <path class="cls-1" d="M36.39,45.78c-.11.21-.51-.18-.3-.6.11-.21.51.18.3.6Z"/>
      </g>
    </g>
  </g>
</svg>