<?xml version="1.0" encoding="UTF-8"?>
<svg id="Layer_2" data-name="Layer 2" xmlns="http://www.w3.org/2000/svg" viewBox="0 0 100 91.99">
  <defs>
    <style>
      .cls-1 {
        fill: #fff;
      }
    </style>
  </defs>
  <g id="Sketchy_Icons" data-name="Sketchy Icons">
    <g>
      <path class="cls-1" d="M81.8,90.17c-.51-.08-1.76-.02-1.84-.05-.05-.02-.09-.43-.4-.57-1.71-.84-.92-.55-1.85-1.39-.6-.55-3.15-2.55-3.93-2.5-.97.06-3.36,2.36-4.35,2.89-.29-1.09-.3-.16-.81-.1-.16.02-.46-.35-.68-.34-.47.02-.76.32-.95.31-.67,0-2.62-.8-2.71.12-.92-1.03-.38-.22-1.07.03-.76.27-1.38-.02-1.88.06-2.35.4-4.6,1.25-6.83.45-.24-.09-.05.42-.26.51-.17.07-.86-.36-1.09-.37-3.6-.17-16.66.56-18.64-.34-.46-.21-3.54-.31-3.71-.41-2.1-1.25-4.09-2.96-6.15-4.54-.64-.49-3.85-2.43-4.1-2.44-1.83-.07-.59-.19-1.06-.46-.18-.11-1.57-.06-1.64-.09-.1-.04.17-.52.14-.53-.92-.58-1.96,1.83-1.62-.82l.54.54c-.61-1.93-.84.29-.94.27-.25-.06-.4-.87-.36-.95.12-.26.61.05.5-.4-2.24.77-1.23.39-1.98-.46-.29-.33-1.06-.35-1.38-.61s-.86-1-1.53-1.55c-2.96-2.45-6.6-4.34-9.45-7.2-.05-.05.21-.35.15-.43-.09-.13-.47-.16-.56-.32-.25-.43-2.25-5.69-.86-5.7.33,0,.68,2.57.9,3.16,1.09,2.87,5.24,6.04,7.92,7.42-.4-1.3-1.54-2.17-2.2-3.12-.2-.29.06-.66.03-.68-.22-.12-.84.38-1.05.25-.06-.03-.32-.88-.57-1.13-3.41-3.52-3.53-8.78-3-13.62,1.22-10.99,9.47-22,16.18-30.8C28.94,10.82,47.59-.93,65.1.06c18.19,1.03,29.76,20.74,32.85,36.91,1.74,9.09,3.26,26.86.65,35.41-.6,1.97-1.58,3.41-2.19,5.12-.91,2.54.78,4.94,1.87,7.19-.17,1.71,2.16,5.12.5,6.32-.1.07-2.12.98-2.24.98-.62,0-1.45-.59-1.89-.63-4.2-.39-8.32-.58-12.59-1.19-.36-.05-.24,0-.27,0ZM69.29,1.94c-.1.09-1.97-.62-2.62-.69-2.79-.32-6.49.33-9.33.34l-4.58,1.05c3.41-.09,6.83-.8,10.24-.89,1.98-.05,4.45.23,6.38.56,1.07.18,2.27.75,3.06.89.16.03.77-.08.67-.42-.52-.66-2.11-.17-2.17-.27-.09-.16.08-.72,0-.82-.04-.05-.75.38-1.19.29-.29-.06.02-.69-.43-.56-.03.15.04.47-.02.53ZM51.93,2.5c-.49-.09-.89.37-1.09.81.49.09.89-.37,1.09-.81ZM52.34,2.77v.27l.14-.14-.14-.14ZM76.54,6.4c-4.57-3.05-10.94-3.77-16.29-3.35-.55.04-1.2.52-1.4.53-.13.01-.12-.55-.25-.54-11.78,1-22.32,6.44-30.98,14.1l-2.02,2.45,7.35-5.54C47.02,5.12,64.89-.03,79.71,10.7c.99.72,1.78,1.53,2.63,2.39,0-.4-.41-1.62-.63-1.83-.14-.14-.56,0-.75-.24-.37-.48.03-1.01.01-1.06-.09-.29-.6.26-.77.13-.11-.08-.24-1.14-.71-1.35-.27-.12.07.68-.4.54-.29-1.08-1.64-2.28-2.55-2.88ZM50.44,3.04v.27l.14-.14-.14-.14ZM49.35,3.32v.27l.14-.14-.14-.14ZM75.01,3.59s-1.05-.32-1.08-.27c-.67.79,1.92,1.13,1.08.27ZM75.96,4.41c-.27.19.15.37.28.53.27-.18-.13-.36-.28-.53ZM77.05,4.94v.27l.14-.14-.14-.14ZM75.39,9.45c-11.19-6.75-26.49-3.11-37.37,2.84-.53.29-1.54.74-1.99,1.06-.3.22-.36.77-.42.8-.09.06-.49-.32-.74-.22-.03.01-.09.41-.39.6-6.58,4.25-12.43,9.56-17,16.18-.11.16,0,.51-.04.56-.02.03-.45-.28-.51-.24-.15.11-1.38,2.79-1.78,3.39-5.71,8.58-8,13.69-8.06,24.39-.04,7.1.98,10.47,5.58,15.92.39.47,1.09.29,1.24.65.26.64-.65.18-.54.67.27,0,.55-.22.82-.11,1.76.72,4.06,3.49,6.24,3.24-.68-1.46-2.45-2.57-2.44-4.21-.86.52-.36.09-.58-.29-2.01-3.45-4.19-6.7-5.89-10.21-.49-1.02-1.48-2.65-1.78-3.62-.1-.31.17-.73.1-.82-.05-.06-.61.61-1.05-.72l.5.18c.34-.54-1.74-2.14-.27-2.17,2.24,5.4,5.57,10.28,8.32,15.44,2.06,2.24,4.26,7.02,6.9,8.3,3.63,1.77,11.31,3.71,15.35,4.2,6.3.76,12.83-.05,18.98.35,3.24.21,5.75,1.4,9.02.28,1.46-.5,3.82-2.8,4.68-2.93.37-.06.58.41.96.43.11,0,.19-.91,1.34-.81,1.09.09,1.05.89,1.54,1.19,1.54.94,3.54,1.67,5.06,2.81l10.39,2.5-2.55-2.74c-.61-.51-.72-1.55-1.08-2.05-.28-.4-2.09-1.35-1.8-1.72.43-.56,6.69,3.26,7.59,3.67-.82-1.05-1.18-2.42-1.76-3.58-.81-1.66-1.95-3.4-2.72-5.24-.26-.63-1.48-3.23-.32-3.22s.39,1.02,1,1.31c-.44-3.42,1.54-5.89,2.58-8.96,3.74-11.09,3.55-17.64,1.77-28.91-.01-.08.84-.05.27-1.21-.34-.08-.48.56-.49.75-.1,1.71.84,5.77-2.11,6.05-.79.07-.8-1.28-.91-1.44-.58-.86-1.56-1.8-2.14-2.83-1.56-2.79-3.05-9.6-2.77-12.68.07-.74.24-2.54,1.18-2.55.75,0,.65,1.01,1.13.76.27-.14,1-1.48.94-1.74-.06-.28-.65-.34-.81-.62-.26-.44-.29-1.19-.51-1.56-.13-.21-.46.15-.68-.13-.38-.5-1.03-2.01-1.51-2.58-.68-.8-2.34-2.01-3-2.79-.19-.22-.21-.86-.26-.9-.14-.1-.69.31-.79.26-.04-.02-.14-.55-.42-.8s-.77-.39-.99-.67.05-.65.02-.67c-1.68-1-3.42-1.86-5.04-2.84ZM79.9,7.66l-1.63-1.9c-.07.41,1.27,2.22,1.63,1.9ZM80.98,7.93c-.58-.17-.72.24-.53.67.08.17,2.28,2.2,2.71,2.72,4,4.95,9.6,13.46,11.5,19.47.16.52-.15.99-.1,1.02.05.03.78.03.81,0,.46-.43-2.43-6.72-2.8-7.6-.21-.5-.59-1.27-.71-1.57-.26-.69.13-2.1-.84-1.42-.07-.09.18-.5.09-.82-.15-.5-1.42-2.4-1.78-3.07-.21-.38-.69-.45-.71-.49-.07-.14.32-.57.22-.75-.05-.08-1.1-.41-1.29-.63-.11-.12-1.25-2.45-1.43-2.66-.02-.02-.37.24-.46.18-.41-.3-.58-1.09-.69-1.19-.63-.59-1.56-1.3-2.31-1.98-.68-.62-1.7-.73-1.69-1.9ZM83.02,13.09v.27l.14-.14-.14-.14ZM83.83,14.17v.27l.14-.14-.14-.14ZM27.63,15.8v.27l.14-.14-.14-.14ZM25.33,19.87c-.33-.34-1.17,1.04-1.34,1.25-.35.42-.89.67-.83,1.19.64-.21.86-.92,1.24-1.35.24-.27,1.3-.71.93-1.1ZM89.94,23.67c-.6-.62-.72,1.48-.71,1.73,0,.35.42,2.2.5,2.29.08.1.96.18,1.45.59.54.45.79,1.42,1.35,1.9-.25-2.4-1.99-4.2-2.59-6.51ZM20.58,25.03v.27l.14-.14-.14-.14ZM88.58,32.9c-.91-1.73.43-3.57-.16-5.47l-1.19-2.4c-.13,2.36.5,4.6.67,6.94l.68.93ZM19.35,27.2c.2-.38-.17-.72-.27-.54-.2.38.17.72.27.54ZM18.68,27.2v.27l.14-.14-.14-.14ZM18.13,28.02v.27l.14-.14-.14-.14ZM89.81,30.46v.27l.14-.14-.14-.14ZM91.3,31c.2-.38-.17-.72-.27-.54-.2.38.17.72.27.54ZM89.81,31v.27l.14-.14-.14-.14ZM93.06,31v.27l.14-.14-.14-.14ZM15.69,31.28c-.61.41-.34.78,0,.27.09-.14.22-.14,0-.27ZM91.84,40.23c.16-2.26-.5-5.2-1.18-7.37-.09-.29-.39-1.26-.72-1.31,0,.67-.04,1.33.03,2,.13,1.19.61,4.42.91,5.46.07.23.64,1.14.95,1.22ZM91.84,32.36c.2-.38-.17-.72-.27-.54-.2.38.17.72.27.54ZM96.18,34.26l-.81-2.17c.15.49-.11,2.33.81,2.17ZM14.88,32.63c-.64.55-1.27,1.28-1.36,2.16l1.36-2.16ZM91.98,32.63v.27l.14-.14-.14-.14ZM93.33,32.63v.27l.14-.14-.14-.14ZM88.31,33.17c-.04.24.28,2.45.4,2.44.68-.08.18-.76.14-.95-.07-.31-.26-1.42-.54-1.49ZM92.25,33.71v.27l.14-.14-.14-.14ZM93.88,33.71v.27l.14-.14-.14-.14ZM93.88,34.26v.27l.14-.14-.14-.14ZM12.97,35.07v.27l.14-.14-.14-.14ZM96.73,38.6c-.34-1.1.33-2.89-.81-3.53.22.92.27,1.92.43,2.84.04.26-.03.76.38.68ZM94.28,36.16c.19-.42-.13-1.11-.27-.81-.19.42.13,1.11.27.81ZM92.92,36.43c.16-.31-.17-.62-.41-.81-.11.27.27,1.07.41.81ZM12.43,35.89l-.82,1.62c.57-.45.98-.86.82-1.62ZM6.05,56.51c.03-6.41,2.2-12.27,5.11-17.83.25-.47.49-.45-.09-.9.01.82-.64,1.1-.92,1.58-2.39,4.1-3.88,8.15-4.51,12.92.39,1.03-.11,2.04-.07,2.98.01.27.06,1.27.48,1.24ZM96.07,75.68c3.75-9.57,2.75-21.22,1.57-31.28-.22-1.84-.35-3.71-.78-5.52.05,1.91,0,3.83.03,5.74.11,7.93,1.53,20.52-2.65,27.46-.44.73-2.34,2.75-2.4,3.32-.12,1.14,3.05,5.37,3.68,6.63.33-.73-.65-1.44-.66-1.52-.33-1.9.65-3.37,1.22-4.82ZM6.32,45.38c.2-.38-.17-.72-.27-.54-.2.38.17.72.27.54ZM5.51,47.83c.19-.42-.13-1.11-.27-.81-.19.42.13,1.11.27.81ZM7.1,68.76s-.44.67.04.38c.2-.18.29-.21.23-.5-.22-1.01-1.17-2.56-1.46-3.59-1.52-5.38-1.64-10.78-.67-16.28.05-.26.54-.42-.27-.67-1.5,5.94-3.41,15.54,1.34,20.45.27.28.67.13.79.22ZM6.73,55.16v.27l.14-.14-.14-.14ZM6.05,56.79c-.2-.27-.61.83-.41,1.08.34-.16.58-.83.41-1.08ZM6.05,58.14c-.82-.92-.21,2.09,0,1.63.04-.09.06-1.57,0-1.63ZM91.84,73.34c2.79-3.77,4.08-8.04,3.8-12.75l-1.82,5.36c.21,1.98-2.71,5.42-2.46,7.06.06.41,0,.76.48.33ZM91.3,77.96c.07-.37-.7-1.59-.81-1.36-.13.28.4,1.3.81,1.36ZM13.65,77.42c-.38-.2-.72.17-.54.27.38.2.72-.17.54-.27ZM20.98,79.59c-.38-.2-.72.17-.54.27.38.2.72-.17.54-.27ZM93.55,82.48c-.16-.21-.03-.67-.08-.73-.22-.24-.73.71-.2,1.15l3.86,6.45c.93-.67-.31-1.33-.34-1.41-.57-1.42-1.4-3.24-2.44-4.78-.25-.38-.64-.47-.81-.69ZM29.03,84.05c-.38-.12-.8-.15-1.13-.39-.21.28.4.64.59.76,1.92,1.22,7,2.96,9.26,3.23.86.1,7.81.11,8.21-.2,1.19-.93-2.89-.41-3.11-.42-4.8-.34-9.39-1.55-13.82-2.98ZM71.89,84.47v.27l.14-.14-.14-.14ZM47.18,86.91v.27l.14-.14-.14-.14ZM48.54,86.91v.27l.14-.14-.14-.14ZM49.08,86.91v.27l.14-.14-.14-.14ZM46.37,87.19v.27l.14-.14-.14-.14ZM81.52,88.27l-2.71-.96c.51.46,2.2,2.09,2.71.96ZM54.51,88v.27l.14-.14-.14-.14ZM55.6,88v.27l.14-.14-.14-.14ZM91.98,89.09v.27l.14-.14-.14-.14Z"/>
      <path class="cls-1" d="M.35,61.94c-.09.18-.46-.16-.27-.54.09-.18.46.16.27.54Z"/>
      <polygon class="cls-1" points=".21 62.21 .35 62.35 .21 62.49 .21 62.21"/>
      <path class="cls-1" d="M73.22,24.92c4.57,5.63,6.44,12.71,5.16,19.94-.18,1.04-1.06,5.04-1.56,5.58-.46.49-2.71,1.28-3.3,1.13-.17-.04-.12-.49-.3-.51-.25-.02-2.37.15-2.55.01-.02-.01.22-.41.14-.47-.04-.04-.57.05-1.05-.37-6.14-5.43-6.06-20.06-1.53-26.63,1.27-1.83,3.13-.98,4.48.33.32.32.3.73.5.99ZM69.58,24.49s1.09-.19,1.08-.41c-.03-.75-1.51-.18-1.08.41ZM68.9,24.49v.27l.14-.14-.14-.14ZM69.85,26.39c-.35-.32-.94-.19-1.2.29-1.94,3.55-1.28,11.53.25,15.18-.27-4.84-1.01-10,.48-14.72.08-.26.55-.68.47-.75ZM71.48,28.29c-.16-2.72-1.47-.66-1.36,1.08.91-.6-.43-1.39,1.36-1.08.07,1.27-.49,1.98-.56,2.84-.29,3.92-.11,9.65,1.02,13.39.11.36.81,2.4.92,2.48,1.56,1.02,2.25-3.15,2.34-3.99.38-3.41-.21-8.24-1.43-11.45-.34-.91-1.34-3.1-2.3-3.26ZM69.58,31.27c.45-.06.7-.73.54-1.08-.13-.28-.65.73-.54,1.08ZM69.85,34.53c.2-.38-.17-.72-.27-.54-.2.38.17.72.27.54ZM76.5,39.14v.27l.14-.14-.14-.14ZM76.5,39.96v.27l.14-.14-.14-.14ZM69.31,42.94c.2-.38-.17-.72-.27-.54-.2.38.17.72.27.54ZM67.81,42.67v.27l.14-.14-.14-.14ZM69.58,44.03c.19-.42-.13-1.11-.27-.81-.19.42.13,1.11.27.81ZM74.2,48.91c.61.91,1.87-1.07,2.03-1.66l.41-3.77c-.76.56-.71,3.42-1.06,3.9-.13.18-1.94.69-1.38,1.53ZM69.17,45.11v.27l.14-.14-.14-.14ZM71.48,49.46c.06-.99-.69-1.8-1.63-1.35l1.63,1.35ZM71.75,49.19c-.16.31.17.62.41.81.11-.27-.27-1.07-.41-.81Z"/>
      <path class="cls-1" d="M87.2,52.46c.19.25.46,2.49.84,3.05.08.12,1.54,1.41,1.84,2,.7,1.38.9,2.09.48,3.63-.1.37-.55.64-.64,1.01-.08.33.23.75.18.85-.03.06-1.15.76-1.22.77-.27.06-.69-.23-.98-.14-.85.27-2.8,1.33-3.66,1.13-.47-.11-2.25-1.45-2.24-1.86s2.13-3.74,2.51-4.57c.48-1.07,1.37-3.19,1.7-4.27.11-.34.03-1.51.14-1.63.04-.04,1.03-.02,1.06.02ZM86.95,55.43c-1.6,1.38-1.99,3.59-2.85,5.42.53-.48,1.02-.98,1.4-1.58.56-.88,1.69-2.89,1.45-3.84ZM84.78,62.48c.38.5,4.94.15,3.54-3.13-.08-.18-.74-.73-.48-.06.49.71-.19.33-.75.74-.33.24-2.52,2.17-2.31,2.45ZM83.29,61.94v.27l.14-.14-.14-.14Z"/>
      <polygon class="cls-1" points="8.09 56.24 8.22 56.38 8.09 56.51 8.09 56.24"/>
    </g>
  </g>
</svg>