<?xml version="1.0" encoding="UTF-8"?>
<svg id="Layer_3" data-name="Layer 3" xmlns="http://www.w3.org/2000/svg" viewBox="0 0 84.53 90.55">
  <g id="Skulls">
    <g id="Layer_30_Image" data-name="Layer 30 Image">
      <g>
        <path d="M52.41,39.49c.34.32-.29,2.55-.48,3.11l.29-.41c.73.19.98-.55,1.04-.56.35-.05,1.36.58,1.56.84.12.15.49,2.45.75,3.07.81,1.95,3,4.44,3.65,6.16.45,1.2.66,2.33-.71,2.89-.38.15-3.07.31-3.61.33-1.76.06-5.21.11-6.71-.47-.12-.05-.48.18-.57.11-.13-.1-.71-2.89-.72-3.26-.01-.82.42-1.79.75-2.55.99-2.27,3-4.39,3.75-7.01.17-.61.16-3.03.98-2.25ZM53.25,42.95c-.15-.2-.03-.42-.35-.35.03.74-1.3.86-.84,1.43.46-.54,1.06-1.19,1.29-.16l-3.56,7.58,7.42,1.2c.36-.99-.65-1.37-.79-1.73-.57-1.47-1.27-2.85-1.88-4.33-.44-1.05-.72-2.9-1.28-3.64ZM51.45,46.19c.11-.11.48-1.6.48-1.91l-.95,1.57c-.18.41.36.46.47.35ZM48.82,51.45c.63-1.67,2.03-3.22,2.15-5.02l-2.28,4.06.12.96ZM53.1,52.48l-3.66-.07c-.23-.02-.18.48-.14.6.23.75,5.47.27,6.23.36-.21-.79-1.23-.21-1.54-.23-.07,0-.83-.62-.89-.65ZM48.58,52.41c-.6-.69-.59,1.62,0,.95.03-.04.03-.92,0-.95Z"/>
        <path d="M26.57,71.32c.19.31.2-.41.36-.48l.84.72c-.85-.53-.73.25-.83.24-.4-.01-.81-.52-.6-.96.19-.39.22.45.24.48Z"/>
        <path d="M29.08,71.09c.36,0,.36.71,0,.71s-.36-.71,0-.71Z"/>
        <path d="M40.93,73.96s.16.58.12.71h-1.32c.06-.14,1.1-.81,1.2-.71Z"/>
        <path d="M28.48,71.32c.27.28-.1.77-.48.12-.03-.21.46-.13.48-.12Z"/>
        <path d="M30.16,71.8c-.08.16-.41-.14-.23-.48.08-.16.41.14.23.48Z"/>
        <polygon points="26.69 66.54 26.81 66.66 26.69 66.78 26.69 66.54"/>
        <path d="M42.84,24.65c0,1.84-1.55,3.58-.5.56.13-.37-.21-.69.5-.56Z"/>
        <path d="M12.69,66.54c-6.02-3.95-8.21-12.28-10.45-18.42C-7.34,21.84,15.6,7.44,37.77,1.26c16.77-4.68,27.4,4.28,36.66,17.05,8.11,11.2,14.47,33.51,6.29,46.01-1.75,2.68-5.04,6.77-7.11,9.17-.23.26-.75.42-.8.51-.05.08.21.42.19.43-.05.04-.42-.07-.62.08-1.16.87-1.17,2.7-1.29,4.11-.22,2.7.12,5.46-.23,8.15-.46,1.01-1.76,1.38-1.88,1.6-.18.33.06,1.77-.45,1.88-1.46.32-3.19-.14-4.62-.15-1.66,0-3.38.22-4.92.27-.24,0-.86-.6-1.44.1v-.48c-1.25.67-2.38.23-3.58.26-1.75.04-5.6.46-7.14.23-.17-.03-.13-.45-.32-.49-1.71-.4-3.82.04-5.74-.89-3.48-1.68-3.92-3.69-4.05-7.41-.04-1.11.55-6.29-.32-6.92-.43-.31-1.4.16-1.57.11-1.89-.66-4.49-.75-6.66-1.25-4.07-.96-12.19-4.28-15.24-7.09-.05-.05-.33-.53-.24,0ZM45.64.77c-.82-.26-1.14.52-1.53.61-.48.11-1.72-.21-2.6,0-.43.11-1.56.32-.83.64.17.07,2.99-.33,3.71-.33,5.11-.03,10.23,1.08,14.95,2.96-.94-.62-2.11-1.2-3.13-1.65-2.06-.91-5.24-1.75-7.79-1.96-1.38-.12-1.41.16-2.79-.27ZM39.97,1.67c-.26-.26-.74.22-.48.48s.74-.22.48-.48ZM38.41,2.14v.24l.12-.12-.12-.12ZM55.24,4.12c-6.76-2.43-20.06-1.58-26.39,1.69-.78.4-3.85,2.17-4.65,2.94-1.53,1.46.44.21,1.14-.06,10.99-4.24,25.43-6.04,36.38-.89.22.11,1.64,1.12,1.7,1.05.5-.63-1.11-1.19-1.38-1.35-.23-.14-.24-.47-.47-.55-.66-.24-.9.46-.65-.72-.15.27-1.99-.15-2.12-.23-.31-.17-.09-.66-.16-.73-.08-.08-.64.17-.96.09-.59-.16-2.06-1.09-2.43-1.22ZM60.31,5.02c-.34-.17-.64.15-.48.23.34.17.64-.15.48-.23ZM54.57,88.08h6.1c1.31,0,.3-1.09.21-1.92-.05-.47.41-4.11.51-4.31.03-.06.88-.95.95-.95,1.4-.06-.14,6.2.36,6.7.4.39,2.39-.77,2.74-1.21.82-1.05.75-4.34.89-5.81.05-.56.42-1.58.42-1.97,0-.13-.48-.05-.46-.21.01-.09.7-1.44.83-1.57.56-.55.39.52.84.48.79-1.78-1.56-1.19.48-2.24.18-.09.52.09.73-.03.16-.09.05-.61.44-.97,1.95-1.81,4.37-3.28,6.13-5.38,1.37-1.63,3.35-5.35,3.84-7.41.06-.24.31-.78-.13-.73-.47,2.06-2.21,3.41-3.5,4.88-1.44,1.64-2.21,2.77-4.19,4.07-1.03.68-.24.16-.53.56-.48.67-1.51.48-1.96,1.25-.26-.64,1.24-1.3,1.77-1.82,3.76-3.71,8.01-8.44,9.65-13.57,3.78-11.89-3.73-33.76-12.25-42.19-3.05-3.02-5.69-3.75-9.18-5.84-.1-.06-.62-1.36-.51-.01-.45-.16-.91-.42-1.36-.57-2.93-.99-7.4-1.86-10.62-1.34-.17.03-.06-.42-.22-.44-.2-.03-3.58.08-4,.11-7.13.51-17.83,3.56-23.86,7.43-7.45,4.78-13.21,16.77-14.36,25.38-.37,2.8-.01,5.13-.07,7.87,0,.37-.2.68-.44.95.13.24.45-.16.47-.12.13.18.37,3.55.6,4.31,1.11,3.79,6.59,9.39,10.01,11.3s7.55,2.74,11.42,3.78c-.38.93-.61.04-.84,0-.09-.01.39,1.34-1.2-.24.34.87-.89.26-1.44.13-.67-.16-2.23-.83-2.37-.83-.23,0-.83.39-1.09.21-.02-.01.2-.35.12-.41-.53-.47-2.21.52-1.8-.78-.42-.12-.12.58-.36.48-.16-.07-.37-.39-.67-.53-.74-.33-.66-.44-1.07-.66-.68-.37-2.15-.3-2.09-1.44-.94,1-.41.1-.64-.19-.04-.05-.87-.24-1.28-.53-.97-.7-1.85-2.31-3.1-2.89l-.85-1.42c-.44-.04-.26.53-.11.72,4.58,6.22,7.6,9.66,15.46,11.86.49.14,2.72.62,2.85.7.44.28.12.8-.13.84-.48.08-.91-1.07-.83,0,1.18.82,11.58,2.88,11.95,2.39.14-.18.07-1.47.28-1.64.05-.04.37.15.47.09.17-.11.03-.46.11-.53.02-.02.57-.1.59-.07.17.29-.26,1.18-.07,1.61.22.5.94.69,1.26,1.14-.65-.2-1.1.19-1.13.9-.06,1.38.41,6.57.71,7.89.16.72,1.19,3.26,1.69,3.7.84.74,4.88,1.26,5.34.45.12-.2-.57-5.92.69-3.97.32.49-.19,1.48.35,1.68-.05-.77.64-.48.83-.71.16-.19.14-.6.38-.84.56-.55,1.55-.52,1.43.46.05.54-1.6,3.61-1.44,3.73s3.69.27,3.83.13c.42-.39-.28-3.69.47-4.32.1-.09.47.14.48.12.07-.12-.09-2.78.6-2.39.24.14.32.59.5.71.27.19.56.1.71.23.62.53-.25,4.34.08,5.41l-.45.35ZM23.22,7.89c.78.07,1.32-.68,1.91-1.08-.63.16-1.57.49-1.91,1.08ZM22.98,7.89c-.66-.1-1.02.61-1.45.84C10.63,14.22,1.26,22.92.59,36.27l1.09,7.77c.42.05.24-.57.24-.85,0-1.86-.42-4.06-.35-5.97.52-14.14,9.92-20.34,19.88-27.74.45-.34,1.44-1.01,1.53-1.58ZM64.02,8.85v.24l.12-.12-.12-.12ZM64.74,9.33c-.24.17.13.33.24.47.24-.16-.11-.32-.24-.47ZM22.98,9.57c-.27-.21-.75.38-.95.6.25.15,1.09-.49.95-.6ZM11.25,18.66c.45.08.8-.28.72-.72l-.72.72ZM11.25,18.9c-.33-.35-2.08,2.16-2.57,2.21-.82,1.64-3.1,4.12-3.84,6.12-.31.84.24,1.54-.53,1-1.46,5.09-2.35,10.03-1.44,15.32.77-.22.09-1.16.1-1.56.12-5.84,2.78-13.53,5.6-18.71.3-.54,2.85-4.2,2.67-4.39ZM82.57,40.44c.17-.34-.15-.64-.23-.48-.17.34.15.64.23.48ZM80.65,62.71c2.97-6.12,3.14-13,2.39-19.63l-.25,2.28c.27,4.36-.18,9.49-1.3,13.75-.29,1.11-.91,2.19-1.3,3.25-.15.42.15.39.46.34ZM3.35,43.8c-.5-.07-.54-.02-.48.48l.48-.48ZM2.04,44.27v.24l.12-.12-.12-.12ZM79.94,60.31c.17-.34-.15-.64-.23-.48-.17.34.15.64.23.48ZM12.57,65.82v.24l.12-.12-.12-.12ZM74.08,71.08v.24l.12-.12-.12-.12ZM73.14,72.67s.5-.75.09-.51c-.26.44-3.1,2.4-3.11,2.64,0,.16.35.43.72.24.3-.16,1.97-1.97,2.3-2.37ZM68.93,76.59c.14.12.9-.79,1-1.04.59-1.38-1.93.25-1,1.04ZM68.33,75.63v.24l.12-.12-.12-.12ZM70.72,75.87v.24l.12-.12-.12-.12ZM69.89,77.07c-.19-.2-1.1.22-1.14.63l.18,6.08c.33-.06.48-.41.57-.7.19-.64.72-5.66.38-6.01ZM67.97,87.36v-9.58s-.58,2.12-.58,2.12c-.22,1.98.03,5.58-1.13,7.06-.22.28-.51.29-.69.51.33.07,2.31-.04,2.4-.12ZM69.17,84.73c.17-.37-.12-.97-.23-.72-.17.37.12.97.23.72ZM69.05,85.21v.24l.12-.12-.12-.12ZM69.77,86.4v.24l.12-.12-.12-.12ZM54.21,87.84v.24l.12-.12-.12-.12ZM66.42,89.04v.24l.12-.12-.12-.12ZM67.85,89.04v.24l.12-.12-.12-.12Z"/>
        <path d="M41.64,27.52c-.08.16-.41-.14-.23-.48.08-.16.41.14.23.48Z"/>
        <path d="M12.69,66.54s.24-.01.24,0c.1.54-.22.01-.24,0Z"/>
        <polygon points="40.81 28.95 40.93 29.07 40.81 29.19 40.81 28.95"/>
        <path d="M43.69,39.62c-1.97,2.25-6.61,5.85-9.89,4.5-.27-.11-.23-.48-.46-.55-.29-.08-.74.1-.98-.04-.1-.06-.96-1.72-1.04-1.95-.59-1.55-.48-5.48-.13-7.17,1.38-6.67,7.06-21.07,16.09-14.54,6.29,4.55.2,15.43-3.58,19.75ZM43.32,20.58c-.69-.65-4.1,2.5-4.78,2.99.44.59.37.2.73.02.64-.32,1.06-.79,1.84-1.03.47-.14,2.34-.19,2.45-.31.05-.07-.18-1.61-.24-1.67ZM45.71,23.93c.02-1.37-.11-2.51-1.32-3.35-.83,2.02-.19,2.18,1.32,3.35ZM42.84,24.41c.02-.36.02-1.08-.37-1.2-.08-.03-1.64.36-1.72.4-.16.07-2.34,1.44-2.43,1.56-2.57,3.43-4.97,7.69-3.98,12.28.06.3.67,1,.6,1.08-.23.24-1.57-1.01-1.02-1.39l-.66-.77c-.09,1.45-.27,3.72,1.74,3.76,4.7.09,11.14-9.45,10.3-13.78-.18-.91-.71-2.65-1.85-2.44-.22.04-.01.76-.62.49ZM43.2,23.45v.24l.12-.12-.12-.12ZM45.13,35.08c1.78-2.87,2.91-7.25,2.13-10.55-.08-.35-.15-.62-.47-.83-.02,4.98-1.23,9.7-4.19,13.77-.23.32-.87.4-.95,1.19,1.33-.5,2.74-2.38,3.48-3.57ZM38.41,23.93v.24l.12-.12-.12-.12ZM48.71,23.93v.24l.12-.12-.12-.12ZM48.95,26.8v.24l.12-.12-.12-.12ZM41.77,36.85v.24l.12-.12-.12-.12ZM40.12,39.15s.5-.75.09-.51l-1.47,1.17-3.08,1.35c2.04.07,3.22-.48,4.45-2.01ZM34.95,43.31c1.77.02,4.07-.73,5.44-1.86.27-.23.66-.27.54-.77-.78.75-1.6,1.17-2.67,1.26l-3.31,1.37ZM33.39,41.4v.24l.12-.12-.12-.12ZM34.7,42.84c-.34-.17-.64.15-.48.23.34.17.64-.15.48-.23Z"/>
        <polygon points="40.57 29.67 40.69 29.79 40.57 29.91 40.57 29.67"/>
        <g>
          <path d="M70.5,24.04c2.89,2.96,6.35,8.72,7.21,12.77,1.1,5.17-.51,9.83-6.69,7.93-.08-.03-1.4-.66-1.47-.71-.29-.21-.38-.66-.41-.68-.11-.06-.6.31-.69.21-.06-.07.08-.53-.02-.7-.02-.03-.33.12-.45.05-1.1-.7-3.83-3.54-4.31-4.56-.1-.22.06-.66-.01-.78-.01-.03-.38.24-.44.21-.07-.04-.71-1.26-.8-1.47-.25-.62-.19-2.27-.91-1.6.36-1.01-.37-1.18-.55-2.36-.09-.6.14-1.65.07-1.7-.1-.07-.64.08-.72,0-.05-.05.13-1.19.1-1.54-.06-.89-.24-2.86,0-3.73.53-1.91,1.68-1.53,2.53-2.5s.37-1.88,2.3-2.03c1.77-.14,4.05,1.98,5.25,3.21ZM64.98,21.78l-.84.6c.24.07,1.06-.33.84-.6ZM65.46,21.77v.24l.12-.12-.12-.12ZM65.7,23.21v.24l.12-.12-.12-.12ZM68.89,24.68c-.05-.08-1.42-1.15-1.51-1.16-.65-.11-.77.64-.5,1.13,2.64,3.01,4.39,6.54,6.3,9.98l1.01,2.7c-.04-.83.08-1.68-.02-2.5-.05-.37-1.25-4.3-1.46-4.41-.13-.08-.52.05-.63-.06-.15-.15-1.47-3.21-1.8-3.72-.14-.22-.82-.54-.83-.59-.05-.18.27-.56.2-.68-.03-.04-.9-.18-.95-.26-.02-.03.24-.35.19-.43ZM63.42,35.42c-1.25-3.6-1.15-7.47-1.07-11.25-1.19.42-1.35,2.6-1.26,3.69.1,1.23,1.23,5.96,1.71,7.02.02.04.49.53.63.54ZM67.55,38.47s.82.43.54.06c-.89-.85-.79-1.85-1.09-2.73-1.18-3.47-1.84-6.06-1.78-9.85,0-.59.83-1.41-.12-1.79.02.62.51,1.11-.37,1.2-.08,0-.45-1.36-.77.17-.72,3.51,1.31,10.12,3.58,12.93ZM66.54,26.8c-.25,2.62.6,7.24,1.74,9.87.14.32,1.54,2.89,1.67,3,.59.5,3.12.38,3.3-.79.05-.34-.63-2.89-.81-3.33-1.01-2.38-2.87-4.87-4.32-7.1-.21-.33-.34-1.14-.39-1.18-.02-.02-.45.27-.47.24-.03-.04-.05-.55-.24-.96-.07-.16-.34-1-.48-.72-.07.14.02.69,0,.96ZM75.39,33.26c.14-.28-.15-.55-.36-.71-.1.24.24.94.36.71ZM75.63,33.98c.17-.34-.15-.64-.23-.48-.17.34.15.64.23.48ZM75.87,34.7c.17-.34-.15-.64-.23-.48-.17.34.15.64.23.48ZM73,44.27c.97-.37,1.8-.12,2.71-.75,2.12-1.47,1.14-6.48.39-8.58-.85.4.07,1.39.15,2.08.24,2.1.26,5.02-1.7,6.3l-1.55.96ZM73.71,40.45c-.3-.32-3.36,1.13-.97,1.57,1.22.22,1.21-1.31.97-1.57ZM72.52,43.56l-1.91-.48c.01.4.67.29,1.04.47.16.08.28.98.88,0Z"/>
          <path d="M66.54,26.8s.21.03.24,0c-.02.02-.32.54-.24,0Z"/>
          <path d="M66.78,26.8s.09-.38.24-.24-.21.22-.24.24Z"/>
        </g>
      </g>
    </g>
  </g>
</svg>