<?xml version="1.0" encoding="UTF-8"?>
<svg id="Layer_2" data-name="Layer 2" xmlns="http://www.w3.org/2000/svg" viewBox="0 0 100 102.82">
  <defs>
    <style>
      .cls-1 {
        fill: #fff;
      }
    </style>
  </defs>
  <g id="Sketchy_Icons" data-name="Sketchy Icons">
    <g>
      <path class="cls-1" d="M20.11,76.96c-.77.05-2.38.05-3.07-.16-.4-.13-1.1-1.07-1.23-.91-.28.32,1.74,2.45.18,2.51-1.9-2-4.43-3.7-6.28-5.67C2.9,65.48-1.94,50.32.76,40.57,9.26,9.95,48.66-10.24,77.88,5.44c.49.26,4.09,2.52,4.23,2.73.2.29,0,.9.08.98.04.04.66-.45,1.07-.2,18.52,11.59,23.07,49.32,6.58,64.18-.4.36-1.95,1.83-1.38,2.03,1.22-.67,3.64-1.86,3.07.15-.16.57-6.45,2.26-7.52,2.94-1.77,1.11-3.66,3.71-5.29,5.09-1.13.96-2.48,1.31-3.17,2.58-.87.15-.6-.64-.35-1.07.78-1.37,4.42-3.52,5.2-5.38-1-.42-1.05.64-1.31.69-.83.17-2.7.41-3.66.54-.72.1-1.62-.35-2.33-.17-.39.1-.14,1.63-.79,0-.84.65-4.62-.16-5.13.43-.6.69.05,3.53-.08,4.38-.17,1.17-.92,3.22-1.31,4.46-1.07,3.4-2.82,9.03-6.79,9.74-1.43.26-3.19-1.15-3.34-1.05-.29.2-1.39,2.29-1.53,2.43-.33.31-1.02.21-1.29.54-.16.2,0,.73-.11.92-.09.14-2.77.61-3.34.06-.24-.23-1.84-2.45-2.1-2.87-.58-.94-.52-3.37-2.24-3.09-.37.06-2.23,3.5-2.8,4.05-1.12,1.07-2.77,1.26-4.01,1.64-.2.06-.15.64-.38.65-3.14.17-2.07-5.42-3.21-5.39-.77.02-2.24,2.93-3.41,3.35-.52.19-1.14-.06-1.69-.02-.91.05-.79,1.06-2.22-.32-1.57-1.52-2.61-3.81-2.71-5.94-.23-5.12,1.55-10.07,1.26-15.51-.02-.43.42-1.03.36-1.42-.05-.27-.6-.32-.85-.59-.12-.13.07-.71-.06-.71-.17,0-1.21.65-1.63.34-.02-.02.27-.46.22-.53-.49-.6-1.64-.22-2.1-.27-.58-.06-1.75-.63-1.89-.62-1.17.07.21,1.57,1.26,1.07.16,1.1-.26.56-.72.72-.25-.7-.26,0-.36,0ZM63.08,2.08c-5.49-.67-11.84-.56-17.15.41-13.17,2.41-25.43,10.11-34.41,19.39l-3.59,5.57C19.39,14.81,36.91,4.04,54.36,3.43c18.92-.67,28.56,6.82,36.61,22.94,1.59,3.19,3.9,7.84,5.02,11.12.9,2.65,1.47,6.23,2.15,8.97l.4-4.3c-.36-6.24-2.72-12.22-4.23-18.14-.02-.1-.64.17-1-.36-.27-.4-.53-1.88-1.11-2.76-2.58-3.89-5.94-7.28-9.52-10.3-1.5-1.27-.54-.4-1.56-.93-1.22-.63-2-2.1-2.97-2.57-3.53-1.72-11.75-4.61-15.09-5.02ZM60.94,5.31c-.27-.05-3.5-.34-3.69-.33-.24,0-.56.49-1.06.55-.66.07-1.07-1.08-.91.75,6.17-.3,13.19,3.45,17.66,7.53.56.51,2.01,1.76,1.35,2.15,10.41,9.2,20.07,29.6,17.85,43.87-.08.49-.69,1.63-.63,1.7.58.65.93-.79,1.07-.9,1.07-.86.22,2.43.54,2.7,1.51-3.71,2.01-7.98,1.99-11.99-.04-7.29-1.71-16.46-5.06-22.88-.6-1.16-2.1-2.38-2.64-3.92-.2-.56.15-.82.14-.86-.11-.39-.85.35-1.04.18-.07-.06-.23-1.17-.61-1.71-2.35-3.29-8.65-9.73-11.99-11.74-.4-.24-1.17-.06-1.37-.25s.04-.87-.05-1.01c-.02-.03-.44.32-.62.23-3.17-1.62-7.58-3.48-10.93-4.07ZM58.32,4.84v.36l.18-.18-.18-.18ZM54.55,5.2c-.08-.08-1.37.3-1.43.36-.55.54,2.37.57,1.43-.36ZM50.07,5.56v.36l.18-.18-.18-.18ZM51.15,5.56v.36l.18-.18-.18-.18ZM52.22,5.56v.36l.18-.18-.18-.18ZM48.28,5.92v.36l.18-.18-.18-.18ZM49.35,5.92v.36l.18-.18-.18-.18ZM46.48,6.28v.36l.18-.18-.18-.18ZM43.61,6.64v.36l.18-.18-.18-.18ZM44.87,6.64c-.75-.1-.82-.04-.71.71l.71-.71ZM53.12,7.35c-3.96.1-6.66.4-10.33,1.33-.84.21-1.63,1.06-2.42.48.48,1.21-2.68,1.41-3.52,1.8-2.08.97-5.3,2.86-7.09,4.02-.84.54-2.06,2.46-3.02,1.71.32,1.19-.63.6-1.17,1.15-3.48,3.48-7.97,7.23-11.37,11.04C6.06,38.01.63,50.27,6.47,62.8c1.61,3.46,7.78,9.21,11.32,10.57.3.12.08-.5.25-.61.32-.21,6.67.49,7.55.7,1.37.33,2.96,1.94,3.63,3.18,1.85,3.39.8,11.33.36,15.28-.15,1.39-.42,1.27-.44,1.35-.1.75.17,2.49-.06,3.42l3.24-3.03c3.99-.82,2.99-2.55,4.1-5.58.14-.38,1.34-3.08,1.44-3.23.39-.57.97.06,1.07.35.15.44-.51,2.22-.56,3.07s.47,1.55.33,2.42c-.18,1.1-1.32,2.36-1.39,4.06-.02.56.57,4.98.73,5.18.3.38,5.93-5.13,6.25-5.76,1.26-2.46.32-5.3.9-7.64.16-.64,1.55-.63,1.72.34.08.44-.51,1.67-.26,1.92.12.12.91-.25,1.08.23.59,1.63-.35,3.75-.02,4.91.14.48,1.49.66,1.82,1.22.72,1.2.2,5.13,1.52,3.6,3.01-3.5,1.61-8.2,3.3-12.1,1.56.19.62,2.24.89,2.51.13.12,1.31-.13,1.44,0,.68.64-1.04,6.15-.57,6.83.27.38,3.26,1.27,3.73,1,.92-.54,1.94-6.52,2.05-7.82.17-1.87-.27-4.57-.03-6.58.09-.8.3-2.97.74-3.48.62-.73,2.07-.17,2.34-.36.05-.04-.4-.66-.21-1.07.24-.48,1.22-.76,1.65-1.25.47-.54.42-1.66,1.31-1.93.52-.16,1.43-.04,1.55.49.25,1.09-1.05.48-1.07.53-.12.29.07,1.02,0,1.44,5.62-.4,11.54.4,16.32-3.23,5.09-3.87,6.75-14.94,6.28-20.98-.52-6.71-3.87-15.57-6.47-21.54-.05-.1-.57.23-.72-.01-6.1-10.04-11.48-19.19-23.02-22.89-1.4-.45-5.18-.88-7.09-.94-.02,0,.05-.35-.18-.35s-.16.35-.18.35ZM72.31,7.35v.36l.18-.18-.18-.18ZM39.13,8.43c-.22-.09-2.39.35-1.79,1.07.07.09,2.13-.92,1.79-1.07ZM75.72,9.86c.26-.5-.23-.96-.35-.71-.26.5.23.96.35.71ZM36.62,9.51c-3.4,1.29-6.69,2.81-9.92,4.43-7.4,5.41-13.7,11.58-18.77,19.52-.33.51-.73,1.26-.73,1.88,1.98-1.77,3.43-4.43,5.2-6.46,4.47-5.13,11.39-11.5,17.08-15.21,2.32-1.51,4.88-2.57,7.14-4.16ZM76.26,9.51v.36l.18-.18-.18-.18ZM76.62,10.22v.36l.18-.18-.18-.18ZM78.05,11.3v.36l.18-.18-.18-.18ZM79.13,12.02v.36l.18-.18-.18-.18ZM80.38,13.45c.26-.5-.23-.96-.35-.71-.26.5.23.96.35.71ZM80.92,13.81v.36l.18-.18-.18-.18ZM82.36,15.25c-.35.25.19.49.37.7.36-.24-.17-.48-.37-.7ZM15.27,21.71v.36l.18-.18-.18-.18ZM88.46,22.78v.36l.18-.18-.18-.18ZM13.48,23.51c-.81.54-.44,1.03,0,.35.12-.18.29-.19,0-.35ZM12.4,24.58v.36l.18-.18-.18-.18ZM11.68,25.65v.36l.18-.18-.18-.18ZM10.97,26.01v.36l.18-.18-.18-.18ZM9.93,28.38c.05-.07.75-1.13.14-.76-2.85,2.59-5.43,6.18-5.74,10.23l3.08-6.42c.83-1.02,1.7-2.03,2.52-3.04ZM7.2,36.41c.26-.27-.62-2.18-1.07.19.19.06,1.03-.15,1.07-.19ZM6.13,37.14s-.25.88-.19,1.07c.85-.42.48-1.43.19-1.07ZM5.76,39.28c.26-.5-.23-.96-.35-.71-.26.5.23.96.35.71ZM3.97,39.64c.26-.5-.23-.96-.35-.71-.26.5.23.96.35.71ZM4.87,40.72v.36l.18-.18-.18-.18ZM2,41.08v.36l.18-.18-.18-.18ZM2,42.16v.36l.18-.18-.18-.18ZM1.81,51.48l.36-8.61c-.99.96-1.12,4.15-1.1,5.56.01.79-.03,2.62.74,3.05ZM96.53,46.82c.25-.55-.18-1.46-.35-1.07-.25.55.18,1.46.35,1.07ZM96.71,47.54v.36l.18-.18-.18-.18ZM96.89,49.69c.26-.5-.23-.96-.35-.71-.26.5.23.96.35.71ZM96.89,52.92c.09-.76.61-2.43-.35-2.87l.35,2.87ZM1.81,52.92c.25-.55-.18-1.46-.35-1.07-.25.55.18,1.46.35,1.07ZM1.81,54c.26-.5-.23-.96-.35-.71-.26.5.23.96.35.71ZM97.07,53.28v.36l.18-.18-.18-.18ZM96.54,54l-.18,3.22c.7-.49.92-2.74.18-3.22ZM96.53,58.66c.25-.55-.18-1.46-.35-1.07-.25.55.18,1.46.35,1.07ZM96.17,60.1c.25-.55-.18-1.46-.35-1.07-.25.55.18,1.46.35,1.07ZM95.63,60.46v.36l.18-.18-.18-.18ZM92.4,64.76v.36l.18-.18-.18-.18ZM92.05,65.48v.36l.18-.18-.18-.18ZM11.51,70.15s-.88-.25-1.07-.19c1.68,3.04,4.69,5.46,8.24,5.92.18-.63-.8-.17-.71-.53.17-.74.97-.71,1.07-1.26-1.27.35-3.75-.69-4.93-1.37-.64-.36-.69-.89-1.08-1.16-.42-.3-1.81-.66-1.87-.74-.05-.06.37-.66.34-.69ZM82.36,76.96v.36l.18-.18-.18-.18ZM71.42,78.4c-1.08.7-3.76-1.25-3.94.71,1-.06,2.05.09,3.05,0,.7-.06,1.04.3.89-.72ZM75.36,78.75c.26-.5-.23-.96-.35-.71-.26.5.23.96.35.71ZM73.57,78.4c-.46-.22-1.5.03-1.78.54.4.21,2.31-.29,1.78-.54ZM63.88,87.01c-.3-1.1,1.47-5.94,1.08-6.46-.04-.05-.92.36-1.07.63s-.54,3.49-.53,4.06c0,.33.01,1.84.53,1.77ZM29.08,84.85c.26-.5-.23-.96-.35-.71-.26.5.23.96.35.71ZM28.72,86.65c.26-.5-.23-.96-.35-.71-.26.5.23.96.35.71ZM28.72,87.72c.41-.42-.15-1.15-.71-.18-.05.31.69.2.71.18ZM28.36,92.75l.36-4.66c-.82.47-1.02,2.85-1.07,3.77-.04.75-.21,1.03.71.89ZM28.01,94.18s.05-.95,0-1.07c-.32-.71-1.09,2.32,0,1.07ZM27.64,95.62c.25-.55-.18-1.46-.35-1.07-.25.55.18,1.46.35,1.07ZM32.89,95.46c-.87.72-1.96,1.69-2.7,2.52-.47.52-.16.85.15.86.96.01,2.38-2.71,3.02-3.44-.13-1.28-.32-.06-.46.06ZM27.47,95.98v.36l.18-.18-.18-.18Z"/>
      <path class="cls-1" d="M53.12,7.35s.35-.02.36,0c.18.42-.54.42-.36,0Z"/>
      <path class="cls-1" d="M20.11,76.96h.36c-.11.04-.17.24-.36,0Z"/>
      <path class="cls-1" d="M73.57,86.65c-.29-.37.57-1.26.71-1.08.29.37-.57,1.26-.71,1.08Z"/>
      <polygon class="cls-1" points="16.71 78.75 16.89 78.93 16.71 79.11 16.71 78.75"/>
      <path class="cls-1" d="M69.42,26.21c6.31,6.21,6.61,22.93-.24,28.76-.09.08-.48-.23-.56-.17-.4.31-1.48,1.69-2.12,1.98-.89.4-3.62.92-4.59,1.01-.2.02-2.78-1.2-2.96-1.37-.09-.09-1.41-1.81-1.47-1.91-2.76-4.46-3.29-16.86-1.9-21.91,1.7-6.17,7.96-12.17,13.84-6.39ZM64.24,25.65c.26-.5-.23-.96-.35-.71-.26.5.23.96.35.71ZM66.03,25.3c-.06-.04-1.38-.42-1.43-.36-.89,1.07,2.08.76,1.43.36ZM63.52,26.01s.14-.76-.18-.71c-.98.56-.24,1.12.18.71ZM67.83,28.88c.25-.55-.18-1.46-.35-1.07-.25.55.18,1.46.35,1.07ZM63.84,28.55c-.6-.58-3.15,2.51-3.5,3.14-2.99,5.44-4.11,12.87-.55,18.33,1.73,2.64,5.87,4.3,7.56.81,2.7-5.55,2.41-15.07-.73-20.39-1.23-2.09-1.92-1.3-1.84.95-.79-.51-.49-2.41-.94-2.84ZM68.9,28.88c-.09-.12-.86-.22-.72.54.24,1.3,1.86,3.92,2.29,5.61.68,2.68.81,5.48.76,8.2.63-.4.4-.83.43-1.37.14-2.1-.1-5.68-.72-7.67-.46-1.49-1.29-2.53-1.88-3.87-.19-.44-.12-1.37-.17-1.44Z"/>
      <path class="cls-1" d="M32.87,24.03c4.33,2.92,4.48,10.29,3.55,15.08-1.02,5.32-5.09,9.82-9.45,12.7-.31.21-1.11-.27-.77.94.09.32.89-.06.72.53-.78.05-1.67.6-2.4.62-.14,0-2.46-.23-2.76-.27-7.66-1.04-9.85-7.44-8.46-14.49,1.15-5.84,9.26-16.08,15.59-16.37,2.16-.1,2.34.16,3.97,1.26ZM31.83,24.71c-.65-.25-2.05-.53-2.74-.32,2.88,1.71,4.36,4.6,5.48,7.79l.97,4.58c.12-2.77-.07-5.85-1.01-8.48-.2-.55-.7-.55-.79-.76-.44-.99-.44-2.27-1.91-2.83ZM25.14,27.81s.32-.23-.36,0c-7.61,2.54-10.71,12.29-6.52,19.62,2.28,3.98,4.44,4.46,8.43,2.2,6.18-3.5,8.28-12.19,5.31-18.16-.41-.83-.84-3.1-1.83-2.22.42-1.99-1.34-.59-1.44-.72-.11-.15.26-.87-.24-1.09-1.34-.61-2.26.1-3.36.37ZM16.16,47.18c.26-.5-.23-.96-.35-.71-.26.5.23.96.35.71ZM16.71,48.26v.36l.18-.18-.18-.18Z"/>
      <path class="cls-1" d="M24.78,27.81s.35-.02.36,0c.18.42-.54.42-.36,0Z"/>
      <path class="cls-1" d="M42.71,55.06c-.05.08-1.54.46-1.25,1.44,1.79-.56,2.38-3.24,3.59-.71.32.02.12-.65.35-.73,1.26-.41.61.42.77.72.92,1.67,1.79,5.22,1.71,7.24-.02.55-.25,1.81-.49,2.26-.06.11-2.26.91-2.39.92-.86.05-2.03-1.1-2.5-1.03-.17.03-.96,1.39-2.77,1.62-9.53,1.23.4-14.52,2.61-12.63.26.23.55.6.35.9ZM44.51,63.33c1.16-.66-.24-3.87-.65-4.91-.2-.5-.63-1.72-1.14-1.9-.38,1.8-2.77,3.01-3.55,4.25-.55.88-1.95,4.09.32,3.5,1.53-.4,1.39-2.29,2.31-2.4,1.49-.18,3.26-.41,2.71,1.46Z"/>
    </g>
  </g>
</svg>