<?xml version="1.0" encoding="UTF-8"?>
<svg id="Layer_2" data-name="Layer 2" xmlns="http://www.w3.org/2000/svg" viewBox="0 0 54.72 68.29">
  <g id="Sparkles">
    <g id="Layer_21_Image" data-name="Layer 21 Image">
      <g>
        <path d="M24.85,4.27c-.02.25,0,.17,0,.24,0,1.51.31,2.68.8,4.1.1.28.34,1.1.63,1.16.07-1.51-.43-.9-.47-.96-.13-.21-.08-1.61-.14-2.01-.04-.25-.29-.48-.32-.74-.24-2.14.7-3.42.94-.78.6.15.54,1.27,1.07,1.15.13-.03.1-2.34,1.08-2.39.03,1.06-1.1,3.44-.23,4.3.6.6.27-1.13.95-.72-.46,1.96,1.31,4.04,2.43,5.58,6.02,8.3,11.28,11.64,20.11,16.47.93.51,3.99,1.18,2.72,2.53s-6.52.77-8.3,2.22l1.74,1.24c.88.08,3.3.64,1.85,1.73-.09.07-2.01-.12-2.28-.16-.11-.02-.09-.39-.28-.43-.18-.04-3.54.23-3.72.29-2.26.75-4.31,4.61-5.24,6.72-3.05,6.91-1.6,12.94-1.86,20.13-.03.98-.4,1.5-1.32.84l-2.03-4.3c-.26.77.22,3.85-.04,4.27-.08.12-1.01.35-1.16.27-.12-.06.13-3.15-.6-2.15-.32.44-.48,4.1-.79,4.93-.12.32-.14.38-.49.45-1.13.24-.66-1.09-.77-1.88-.34-2.37-1.25-6.43-2.24-8.26-.74-1.38-2.09-2.17-2.27-3.84l-.47.48c.04-.34-.44-1.2-.62-1.41-.17-.2-1.22-.83-1.3-.89-.22-.16-1.14-.79-1.17-.85-.11-.2.32-.49.1-.65-.04-.03-.52.06-.97-.21-.69-.4-1.23-1.18-1.84-1.63-.13-.09-.92.1-.9-.81l-.35.48-3.95-2.27c-.68-.13-1.5-.51-2.19-.47s-.62.51-1.02.63c-.27.08-2.08.44-2.17.39-.07-.04-.27-1.12-.64-1.33-.19-.11-2.33-.14-2.53-.35-.47-.5-.06-1.3-.17-1.63-.28-.81-3.73-.4-3.9-.5-.05-.03-.54-.87-.51-.91.28-.38,3.01-.17,3.68-.26.59-.08,2.16-.45,2.77-.63.66-.19,1.12-.92,1.91-.55.07-.36-.37-.3-.6-.34-1.49-.22-4.06-.23-5.49.1-.39-1.35-.41.04-1.41-.25-.6-.18-.3-.83-.01-1.18.47-.59,4.11-1.69,5.17-2.19,5.09-2.42,9.48-6.86,12.85-10.61,3.57-3.97,5.51-5.77,6.09-11.5.07-.64-.36-1.99.26-2.25.56-.23.14.52.59.47.35-1.28-.58-1.79-.99-2.71-.61-1.38-1.73-3.84-1.6-5.28.15-1.76,1.21-3.5,2.4-4.77.34-.37.22-.58.67-.04-1.04.86-1.33,2.64-1.43,3.95ZM25.93,5.95v.24l.12-.12-.12-.12ZM26.65,6.67v.24l.12-.12-.12-.12ZM28.2,10.73c-.2-.41-.05-1.5-.47-1.67.01.57-.2,1.43.47,1.67ZM28.79,11.09c-.12-.13-.13-.61-.35-.23.16,2.23,1.73,3.89,3.23,5.37l2.03,1.44c-.81-.61-1.36-2.11-1.9-2.71-.21-.24-.53-.07-.75-.31-.93-1.01-1.21-2.42-2.26-3.56ZM26.29,16.23c-.13-.39.78-2.04.12-2.15-.11-.02-.66,2.13-.12,2.15ZM28.76,17.11c-.33-.49-.53-1.3-1.04-1.59-.43,1.35-.11,2.83-.3,4.19-.67,4.96-4.55,9.11-7.21,13.3-.89,1.41-1.66,3.23-2.47,4.69-.26.47-1.98,2.44-1.5,2.94.1.11,2.37.43,2.87.6,4.86,1.72,7.61,6.01,10.75,9.81.75.91,1.48,1.94,2.04,2.98.44-.21,1.74-6.08,2.02-7.05.26-.92.92-1.89,1.2-2.89,1.05-3.71.4-6.43,3.91-9.36.52-.43,3.27-1.7,3.27-2.11,0-.25-2.89-3.05-3.33-3.6-.41-.52-.9-1.71-.97-1.78-.03-.03-.44.26-.46.24-.04-.04,0-.56-.23-.85-.43-.51-1.39-1.21-1.85-1.87-.14-.21-.05-.59-.08-.63-.02-.02-.43.26-.46.23s-.06-.54-.26-.83c-.77-1.14-1.98-2.29-2.8-3.22-.72-.81-2.02-1.38-1.98-2.64l-.47.48c.18-.72-.48-.81-.63-1.04ZM27.12,15.99v.24l.12-.12-.12-.12ZM26.89,16.95v.24l.12-.12-.12-.12ZM26.77,17.43c-.88-.95-1.67,4.1-1.75,4.35-.64,1.99-1.57,3.94-2.2,5.93,2.27-2.95,3.67-6.56,3.94-10.28ZM32.38,18.15v.24l.12-.12-.12-.12ZM32.83,19c-.1-.08-.06-.66-.33-.25.03.31.24.53.41.77,1.98,2.81,11.52,8.83,14.88,10.48.96.47,2.04,1.1,3.11.95-.3-.89-.99-.57-1.72-.86-.16-.06-.17-.4-.35-.45-.32-.09-.89.07-1.03-.01-.03-.02.24-.39.21-.44-.08-.12-1.96-.92-2.33-1.14-2.93-1.66-8.51-5.57-10.72-7.59-.22-.2-.5-.85-.54-.88-.3-.23-.19.73-.47.47-.02-.02.02-.33-.18-.48-.28-.22-.61-.32-.93-.58ZM23.18,24.6c.04-.07.13-.75.12-.95-.64.29-.29,1.25-.12.95ZM17.34,34.32c2.08-3.17,3.51-6.88,4.77-10.43-.69.81-1.33,1.71-2.03,2.51-2.97,3.4-6.11,5.94-9.96,8.8-.26.19-.34.77-.8,1-.61.3-1.24-.19-.71.6l-6.45,2.76c1.77.08,3.56-.02,5.34-.04.3,0,.64.3.97.28,3.21-.15,4.73-1.8,6.94-3.7.89-.77,1.41-.98,1.93-1.77ZM37.04,24.6c.17-.34-.15-.64-.23-.48-.17.34.15.64.23.48ZM37.76,25.32c-.06-.06.13-.5-.12-.48-.81.72.02.38.12.48,1.37,1.35,2.79,3.81,4.31,5.38,1.97,2.03,1.49,1.49,3.99.9.53-.13,2.15.09.97-.96-.03-.03-.34.08-.55-.05-1.99-1.21-3.62-2.37-5.57-3.58-.74-.46-2.63-1.16-3.15-1.7ZM22.7,26.04l-.12-.72c-.45.32-.41.51.12.72ZM21.75,28.19c.04-.07.13-.75.12-.95-.64.29-.29,1.25-.12.95ZM21.15,28.43v.24l.12-.12-.12-.12ZM20.79,29.15s-.17.59-.12.71c.57-.28.32-.95.12-.71ZM20.31,31.3s.1-.75.12-.95l-.6.83c-.03.21.46.14.47.12ZM19.72,31.78v.24l.12-.12-.12-.12ZM47.2,32.26v.24l.12-.12-.12-.12ZM46.48,32.5v.24l.12-.12-.12-.12ZM43.49,33.7c-.35-.16-1.36-.01-.95.48.04.05,1.24-.35.95-.48ZM42.3,34.18c-3.03.97-5.08,3.56-5.73,6.69l2.67-3.67,3.06-3.02ZM42.9,35.37c-.54.36-.3.69,0,.23.08-.12.19-.13,0-.23ZM46.12,35.85c-.38-.74-1.86-.5-2.15.24l2.15-.24ZM17.57,35.61v.24l.12-.12-.12-.12ZM41.81,36.56c.05-.08.09-.49-.11-.47-.29.31-.69.5-.6.95.13-.15.68-.45.7-.49ZM17.33,36.33v.24l.12-.12-.12-.12ZM14.66,38.32c.15-.2.91-.51.75-1.03-.73.94-1.81,1.39-2.78,2-1.2.76.27.81.98.5.53-.23.74-1.04,1.04-1.47ZM16.37,37.76v.24l.12-.12-.12-.12ZM15.3,39.19c.44.08.79-.26.71-.72l-.71.72ZM15.3,39.68c-.5-.07-.54-.02-.48.48l.48-.48ZM5.26,42.78c2.57,1.05,2.37.1,4.06-.79.49-.26,3.04-.66,3.1-1,.01-.09-1.63-.33-1.72-.32-1.45.18-2.39,1.23-3.41,1.58-.39.13-1.79-.15-2.03.54ZM22.94,44.7c-1.8-1.67-3.15-1.6-4.85-2.62-.23-.13-.15-.48-.17-.49-.16-.1-.5.48-.59.47-.18-.02-.27-.55-.4-.65-.1-.07-.48.12-.75-.05-.22-.14-.07-.5-.28-.5-.07,0-.78.83-1.07.96l9.92,5.02c-.3-.75-1.03-1.52-1.56-2.15-.13-.16-.32-.46-.24,0ZM14.34,41.11c-.5-.07-.54-.02-.48.48l.48-.48ZM9.32,42.79c.23,1.03,1.77-.1,1.43-.48-.05-.06-.95.76-1.43.48ZM11.95,43.26c.61.49,2.2-1.71.35-.5-.11.07-.83.11-.35.5ZM15.45,43.14c-.75-.26-1.12-.61-1.59.36l2.39.24c-.03-.1-.76-.59-.8-.6ZM36.8,44.46s.36-.98.36-1.19c-.54.21-.7,1.57-.36,1.19ZM16.97,43.74c-.34-.17-.64.15-.48.23.34.17.64-.15.48-.23ZM5.49,44.7c.17-.34-.15-.64-.23-.48-.17.34.15.64.23.48ZM7.17,44.22c-.06-.05-1.38-.22-1.19.35s1.67.07,1.19-.35ZM10.75,44.22s-.51-.09-.48.12c.37.65.75.16.48-.12ZM11.47,44.22c-.34-.17-.64.15-.48.23.34.17.64-.15.48-.23ZM14.74,44.56c-.76-.38-3.03-.03-2.55.62,6.66,2.64,13.24,6.83,16.1,13.67l1.58,4.75c.37-1.07.77-2.48.67-3.64-.54-6.13-4.44-9.75-8.85-13.1-.25-.19-.34-.62-.54-.72-.23-.12.05.61-.35.48-.04-.61-.43-.7-.89-.91-1.58-.7-4.24-.68-5.17-1.15ZM36.56,45.65c.04-.07.13-.75.12-.95-.64.29-.29,1.25-.12.95ZM10.28,45.18c-.66-.31-2.62-.28-1.91.95.05.09,1.91-.46,1.91-.95ZM36.21,45.89v.24l.12-.12-.12-.12ZM34.41,59.53l.72-11c-.45.49-.83,1.74-1.02,2.4-.49,1.66-.66,3.43-.89,5.13l1.19,3.47ZM26.41,49.24v.24l.12-.12-.12-.12ZM29.04,51.4v.24l.12-.12-.12-.12ZM29.87,52.83l-.48-.48c-.07.5-.02.54.48.48ZM30.71,53.55v.24l.12-.12-.12-.12ZM31.3,57.38c.2-.25-.38-.84-.47-.72-.2.25.38.84.47.72Z"/>
        <path d="M22.94,44.7s.24-.01.24,0c.09.53-.19.05-.24,0Z"/>
      </g>
    </g>
  </g>
</svg>