<?xml version="1.0" encoding="UTF-8"?>
<svg id="Layer_2" data-name="Layer 2" xmlns="http://www.w3.org/2000/svg" viewBox="0 0 97.52 83.81">
  <g id="Sparkles">
    <g id="Layer_25_Image" data-name="Layer 25 Image">
      <g>
        <g>
          <path d="M13.44,49.87s.24-.01.24,0c.1.54-.22.01-.24,0Z"/>
          <path d="M29.72,26.65c-.57.13-.64,1.37-.72,1.44-.18.14-.28-.9-.83.96-.37,1.28-.54,3.11-.37,4.43.27,2.09,5.04,9.2,6.55,11.04.43.53,4.18,4.38,4.47,4.5.85.36,3.19.08,4.59.43.58.15,3.54,1.48,3.54,1.96,0,1.48-3.96.05-4.69.58l-.34-.46c-.02.68.82.94.91,1.61.05.32-.27.97-.2,1.02.09.07,1.79-.04,2.15.49.07.1-.86,1.31-.95,1.18-.05-.06.05-.36-.03-.43-.06-.06-1.33.11-1.73.09-.86-.03-2.23-.15-3,.15-1.91.76-5.61,2.64-7.44,3.92-.32.22-.42.79-.74.96-.27.14-.67-.15-.7-.13-.05.04-.09.62-.32.88s-.79.34-1.05.62c-1.19,1.28-5.64,7.82-6.28,9.4-1.12,2.74-.37,6.5-1.1,9.43-.1.4-.94,2.45-1.19,2.66-.46.39-.68-.28-1.2-.28-.07,0-.96,1.27-1.09.36s.85-3.27.48-3.69c-.11-.13-1.68.98-1.92-.83-.38-2.79,1.52-4.5,1.91-6.73.7-4.07-.74-13.39-2.99-16.84-.18-.27-.69-.43-1.03-.89-.37-.5-.7-1.37-.76-2l-.47.48c.17-.84-.52-.79-.98-1.31-.2-.22-.16-.67-.26-.8-.03-.04-.36.14-.56-.03-.33-.28-1.27-1.37-1.35-1.41-.11-.06-.8.34-.92.2-.05-.06.1-.55-.03-.67-.12-.11-.61-.02-.91-.18-.73-.38-2.9-1.52-3.25-1.52-.14,0-.48.3-.61.22-.34-.22.05-1.15,0-1.19-.04-.04-.73-.06-1.04-.24-.18-.1-.13-.83-.62-.46-.04.03.04.42-.16.46-.16.03-.59-.2-.93-.16-.37.04-.88.38-1.09.29-.3-.13-.64-.8-.46-1.07.11-.17,3.18-1.28,3.79-1.59,6.1-3.13,12.94-8.43,17.02-13.61.93-1.18,2.84-4.72,3.55-5.13.12-.07.93-.5.75.09-2.01,2.83-1.6,4.05-1.19,7.19.16,1.25.6-.29.71-.43.14-.19.45-.19.56-.46.75-1.89-.18-4.66.22-6.71.17-.87.64-2.16,1.26-2.81.12,1.12-1.03,5.24-.36,5.98.08.09,1.86-1.25,2-1.45.33-.5.58-1.7.99-1.89.64-.31.51,1.2.12,1.43,1.2-.26,1.94.4.48.96.19-.57-.37-.75-.24,0ZM22.54,29.29c-.19-.23-1.07.77-1.19.9-1.6,1.85-2.89,3.48-4.58,5.17-1.04,1.03-1.58,1.14-2.24,2.06-.75,1.04-7.06,5.02-8.56,5.82l-3.29,1.72,4.65.6c.42-.07.26-.82.13-.95-.05-.05-.62.71-.7-.63-.02-.37-.1-.65.23-.93.44-.37,5.03-1.16,6.11-1.55,2.27-.82,3.86-2.21,5.92-3.35l4.25-4.49c.22-.72-.42-1.3-.48-1.88-.08-.84-.11-.76-.19-1.18-.04-.21.14-1.08-.06-1.32ZM25.89,32.88c-1.13.34-1.33,1.09-1.13,2.22.7,4.05,4.16,10.27,6.97,13.02.51.5,3.64,3.27,4.23,2.71.64-.61-1.45-1.83-1.53-1.92-1.17-1.37-2.97-3.82-3.84-5.28-.1-.17-.56-1.59-.61-1.65-.02-.03-.43.26-.46.23l-3.61-9.32ZM23.98,35.75c-.17-.16-.45.11-.6.23-.58.47-2.07,2.48-2.76,3.24-.17.19.02.53-.03.57-2.61,1.97-5.68,4.78-8.87,5.85-.26.09-.64-.11-.66-.08-.49.89,1.31,1.31,1.8,1.67,5.08,3.81,6.72,9.27,7.95,15.27.28,1.35.29,2.97.55,4.36l2.19-4.38c1.8-3.69,5.23-5.19,8.11-7.45.27-.21,2.56-2.96,2.6-3.16.06-.31-1.18-1.39-1.48-1.66-1.6-1.41-3.05-2.39-4.49-4.53-.38-.56,0-1.09-.71-.6-.4-1.88-1.68-3.42-2.44-5.34-.27-.68-1-3.86-1.15-4ZM19.55,39.1c-.54.36-.3.69,0,.23.08-.12.19-.13,0-.23ZM18.71,40.29c.17-.34-.15-.64-.23-.48-.17.34.15.64.23.48ZM18.11,40.53v.24l.12-.12-.12-.12ZM14.4,42.21c.27-.28-.1-.77-.48-.12-.03.21.46.13.48.12ZM13.68,42.21c-.58.19-6.11,1.27-5.98,1.55.15.34,1.1,1.06,1.52,1.02.76-.07,3.83-1.87,4.47-2.58ZM32.96,46.28v.24l.12-.12-.12-.12ZM13.44,49.87c-.59-.4-1.38-1.28-2.15-1.08,1.33,1.71,3.83,3.14,4.84,4.99.15.27-.19.66.07.64.47-.04.59-.07.36-.6-.15-.34-.38-.86-.54-1.15-.34-.63-1.78-2.43-2.34-2.79-.02-.01-.34-.54-.24,0ZM40.38,49.63v.24l.12-.12-.12-.12ZM44.09,50.59c-.06-.05-1.17-.13-1.55-.25-.25-.08-.81-.51-.84-.47-.57.8,1.71,1.18,2.16,1.12s.45-.22.23-.4ZM41.1,50.11v.24l.12-.12-.12-.12ZM37.19,51.97c-.13-.09-.14-.57-.43-.64-.06-.02-.79.19-.82.22-.06.08.86,1.75.95,1.81.46.33,1.37-.24,1.92-.14-.28-.33-.96-1.15-1.25-1.37-.06-.05-.31.16-.38.12ZM40.62,51.78v.24l.12-.12-.12-.12ZM35.39,52.82c-.11-.1-.57-.36-.63-.32-.09.06-1.28,1.83-1.21,1.91.96-.63,3.3-.3,1.83-1.59ZM40.5,52.74c-.34-.17-.64.15-.48.23.34.17.64-.15.48-.23ZM40.26,54.42c-1.65-.03-3.3-.24-3.83,1.67l3.83-1.67ZM35.95,54.9c-.36-.09-4.61,1.12-3.83,1.91l3.83-1.91ZM35.35,56.33v.24l.12-.12-.12-.12ZM34.63,56.57v.24l.12-.12-.12-.12ZM34.27,56.81c-.6.09-1.2.45-1.74.72-.16.08-.17.42-.21.43-.37.13-.76-.18-1.62.66.07.4-1.25,1.27-.98,1.53.2.19,1.14-1.02,1.27-1.12.96-.69,1.42-.87,2.39-1.69.47-.4,1.03.31.89-.54ZM30.44,57.05l-2.39,2.15c.43.02,2.68-1.87,2.39-2.15ZM26.73,62.92c.59-.83,1.55-1.66,1.55-2.76-1.86,1.44-3.2,3.49-3.83,5.74l2.28-2.98ZM25.29,61.12v.24l.12-.12-.12-.12ZM25.05,61.59v.24l.12-.12-.12-.12ZM24.93,62.55c.27-.28-.1-.77-.48-.12-.03.21.46.13.48.12ZM23.38,64.47v.24l.12-.12-.12-.12ZM22.06,69.73l.96-2.87-1.31,1.88.35.99ZM17.75,78.35c.69-.25.46-1.12.47-1.67-.45.17-.35,1.27-.47,1.67ZM20.74,78.11v.24l.12-.12-.12-.12Z"/>
          <path d="M29.72,26.65s.23.02.24,0c-.02,0-.38.54-.24,0Z"/>
          <path d="M27.33,21.15c-.08.16-.41-.14-.23-.48.08-.16.41.14.23.48Z"/>
          <polygon points="26.73 21.15 26.85 21.27 26.73 21.39 26.73 21.15"/>
        </g>
        <path d="M76.41.09c-1.4,1.35-.34.92.96,1.07-.9.93-1.37-.13-1.59,1.63-.43,3.41,3.81,9.06,4.61,12.37.42,1.75-.26,2.28-.81,3.54-.21.5-.07,1.06-.41,1.46-.56.65-1.85,1.04-2.52,1.57-2.06,1.63-5.34,6.19-6.22,8.62-.24.68-.6,4.11-1.77,2.27-.52-.81.01-4.14-.14-4.3-.55-.57-.45.68-.48.71-.18.15-1.06.02-1.17-.38-.12-.45.24-2.89.17-3.56-.03-.25-.38-1.5-.44-1.55-.04-.03-.43.26-.46.23-.05-.05-.26-1.26-.52-1.39-.09-.05-.4.24-.67.08-.57-.33-1.44-1.03-2.17-1.47-.15-.09-.66-1.46-.59-.09-.36-.58-3.56-1.07-3.68-1.22-1.3-1.67,2.47-1.75,2.84-2.84l-3.93-.24c-2.6-1.94,1.97-1.04,2.87-1.1.46-.03,2.99-1.29,2.74-1.54-.57.14-.88-.44-1.2-.56-.82-.32-.91-.1-1.84-.63-.43-.25-1.52-.21-1.04-.85.64-.83,4.12-.85,5.28-1.19,2.27-.66,5.07-2.26,6.37-4.25.04-.06.51-.97.63-1.2.86-1.64.67-3.23,2.8-4.01.1.11-.09,2.18.48,1.44.31-.4-.22-3.26,1.92-2.63ZM72.7,3.92v.24l.12-.12-.12-.12ZM74.49,4.63c.17-.34-.15-.64-.23-.48-.17.34.15.64.23.48ZM74.37,4.87v.24l.12-.12-.12-.12ZM75.31,13.64c-1.02-2.74-1.24-5.35-2.03-7.91-.43-1.38-.93.46-1.46,1.15-1.22,1.62-2.51,3.37-3.79,4.99-.34.43-2.33,2.33-2.37,2.5-.11.43.98,1.63,1.24,2.23.63,1.41.98,3.3,1.61,4.78,1-.61,1.37-1.82,2.21-2.56.05-.05.3.15.37.11.75-.54.83-.95,2.07-1.39,2.69-.95,4,.16,2.56-3.48-.13-.34-.41-.39-.42-.42ZM74.61,5.35v.24l.12-.12-.12-.12ZM75.93,7.27c-.34-.17-.64.15-.48.23.34.17.64-.15.48-.23ZM78.38,17.5c1.03,1.3,1.29-2.11.79-2.82l-3.37-6.92c.16,2.22.72,5.07,1.43,7.18.1.3,1.05,2.45,1.14,2.56ZM63.06,13.4c1.17.32,4.47-2.37,4.49-2.9,0-.04-.48-.6-.47-.19-.25.26-1.08.67-1.37.75-.86.25-.91.39-1.16.47-.22.07-1.65.35-2.01.41-.17.03-2.36-.2-1.92.35.07.09,1.88.64,2.2.75.19.07.22.35.25.36ZM63.48,15.4c.17-.34-.15-.64-.23-.48-.17.34.15.64.23.48ZM61.81,16.12c.32.28,1.25-.36.95-.72-.05-.06-1.39.34-.95.72ZM65.13,15.44c-.77-.51-1.98,1.31-1.89,1.4.13.13,2.52.41,2.87,1.2.3-1.35-.24-1.24-.73-1.85-.15-.18-.14-.68-.25-.75ZM66.83,22.58c.16-1.21-.03-3.24-1.21-3.94-.2-.12-2.82-1.22-2.98-1.22s-2.65,1.22-2.75,1.34c-.36.42.11.4.33.5,2.31,1.04,4.6,1.4,6.61,3.33ZM73.91,22.24c.52-.56.97-1.16,1.54-1.7.69-.66,3.47-2.09,1.85-2.82-.92-.41-4.97,1.21-5.85,1.9-.63.5-2.08,2.33-2.2,3.09-.04.26.01,3.78.1,4.06.42,1.33.61.11.84-.19,1.06-1.4,2.52-3.05,3.73-4.34ZM78.56,19.95s.09-.51-.12-.48c-.65.37-.16.75.12.48ZM77.36,20.43c.17-.34-.15-.64-.23-.48-.17.34.15.64.23.48ZM68.15,26.89v.24l.12-.12-.12-.12ZM68.27,28.09c.17-.34-.15-.64-.23-.48-.17.34.15.64.23.48Z"/>
        <g>
          <path d="M88.14,29.05c-.18.32-.82,2.32-.72,2.39.05.03,1.15.05,1.19,0,.12-.18-.23-1.09.49-.59-1.58,1.86-1.96,2.49-1.37,4.96s5.68,9.89,8.09,10.82c.35.14,1.55.04,1.65.15.06.06.1.81-.13.97-.4.28-3.37.15-4.17.94,1.11,1.6,1.8,3.35,4.07,3.22.68.23-.23,1.31-.41,1.33-.57.05-1.6-.56-2.11-.6-.85-.07-3.88.81-4.65,1.22-1.44.78-3.02,3.46-3.66,4.96-1.95,4.59-1.75,9.88-2,14.77-1.16,1.22-1.11-.06-1.67-.97-.87.67-.08,1.47-.88,2.5-.19.24-.89.42-.92.37-.09-.14-.09-1.31-.3-1.75-.26-.53-.71-.26-.87-1.5-.56-4.24-.08-8.43-2.28-12.33-.14-.24-.12-.67-.14-.69-.05-.05-.49.32-.67.22-.07-.04-.77-1.08-1.01-1.27-1.03-.79-3.62-1.88-4.99-2.39-.87-.33-5.17-1.1-5-2.18.08-.55,4.22-2.22,4.49-2.88.36-.9-.38-.38-.79-.43-.44-.05-2.06-.67-1.59-1.35.11-.15,2.98-1.12,3.51-1.4,5.72-2.98,11.94-8.38,12.74-15.03.06-.51-.25-3.5.94-2.65.11.08-.11.53.28.41-.1-.74.31-.23.44-.3.03-.02.13-.89.52-.41.05.07-.61,1.65.36,1.43.51-.11.56-2.09,1.56-1.91ZM86.46,31.92c-.26-.26-.74.22-.48.48s.74-.22.48-.48ZM86.11,32.88v.24l.12-.12-.12-.12ZM87.75,42.61c-.34-.64-1.07-2.34-1.34-3.03-.46-1.19-.43-2.89-1.37-3.59.02.31-.09.58-.23.85-2.64,4.9-5.6,8.54-9.37,12.4-.55.57-1.1,1.14-1.66,1.71,2.28,1,3.66,3.28,5,5.3.51.77,1.78,2.41,2.1,3.03.42.81.54,2.81,1.4,3.03.13.03.67-2.25.79-2.56.76-1.85,5.7-8.66,7.06-10.04.25-.26,1.31-.83,1.32-1.16s-2.78-4.7-3.24-5.56c-.13-.24-.41-.29-.46-.38ZM91.89,44.44c-.33-.37-1.02-.37-.88-1.27l-.4.61c1.35,1.45,1.08,5.05,3.76,3.34.66-.42-.16-.28-.48-.52-.68-.51-1.5-1.58-2-2.15ZM75.58,46.42c.23-.26.71-.75.71-1.09-2.03,1.22-4.14,3.24-6.47,3.59-.24.84,1.4,1,1.97.78.23-.09,3.46-2.9,3.79-3.28ZM90.78,52.02c.64-.24,1.9-.09,2.4-.35s-.7-1.19-.49-1.56l-1.91,1.91ZM74.4,52.36c-1.52-.87-1.88-1.14-3.25.38,1.79-.36,3.12.91,4.79,1.2-.41-.21-.54-1.1-.59-1.13-.18-.1-.51-.19-.94-.44ZM88.86,53.22s.52-.98.6-1.19c-.63.19-1.03,1.59-.6,1.19ZM68.71,53.25c-.09-.05-2.03.08-1.4.57s5.06,1.54,6.28,2.1,2.67,1.38,3.53,2.33c-.89-2.94-3.54-4.13-6.39-4.52-.41-.06-1.49.19-1.64.13-.31-.13-.29-.54-.39-.61ZM84.91,58.25c-.54.36-.3.69,0,.23.08-.12.19-.13,0-.23ZM83.11,65.18c.23-.21.96-5.22,1.44-5.98l-1.56,3.58c-.08.25-.73,3.19.12,2.4ZM80.64,60.93c-.05-.09-.4-.15-.49-.31-.23-.41-.22-1.09-.63-1.18-.19.41.95,2.69,1.19,2.39.03-.04-.06-.86-.08-.9ZM80.6,60.4v.24l.12-.12-.12-.12ZM81.08,62.55v.24l.12-.12-.12-.12ZM80.36,63.51c-.54.36-.3.69,0,.23.08-.12.19-.13,0-.23ZM80.96,64.23c-.2.03-.63-.06-.72,0-.12.08.5,2.45.48,2.87,1.08-.6-.11-1.99.24-2.87ZM81.92,72.12c-.55-1.39.62-2.53.24-4.07-.91.64-.81,2.47-.72,3.47.04.47-.2.69.48.59ZM82.75,72.12v.24l.12-.12-.12-.12Z"/>
          <polygon points="86.11 29.05 86.23 29.17 86.11 29.29 86.11 29.05"/>
        </g>
      </g>
    </g>
  </g>
</svg>