<?xml version="1.0" encoding="UTF-8"?>
<svg id="Layer_3" data-name="Layer 3" xmlns="http://www.w3.org/2000/svg" viewBox="0 0 100 122.83">
  <defs>
    <style>
      .cls-1 {
        fill: #fff;
      }
    </style>
  </defs>
  <g id="Sketchy_Icons" data-name="Sketchy Icons">
    <g>
      <path class="cls-1" d="M45.22,1.06s.12.89-.15.9c-.89-.51-.26-1.36.15-.9Z"/>
      <path class="cls-1" d="M51.54,3.47c.04-.3-.14-.25-.3-.3.17-.16.24-.62.6-.6.2.46-.28.75-.3.9Z"/>
      <path class="cls-1" d="M27.76,67.93c-1.22-.46-.86-.81-1.26-1.12-.14-.1-1.69-.1-2.04-.25-.18-.08-.26-.6-.37-.65-4.95-2.08-15.44-3.63-19.02-6.44-.23-.18-.41-.85-.63-.86-.08,0-.32.47-.77.45-.93-.06-1.46-.85-2.09-1.18-.22-.11-.63.08-.89-.06-1.14-.61-.11-1.03-.02-1.5.02-.12-1-.06-.56-1.15.3-.76,2.3-.95,3.17-1.35,3.7-1.69,6.73-4.29,9.92-6.63,11.2-8.19,24.82-18.51,30.27-31.48,1.73-4.12-1.37-8.71.99-12.86.47-.69.41.7.41.77-.19,2.61-.63,5.13.35,7.66.93-.32-.14-1.12.83-1.35l1.28-5.27,1.06,1.81c.12-1.3-.28-1.12.41-2.07.12-.17-.01-.57.04-.64.03-.04.56.32.59.3.28-.22,0-2.86.47-3.6.87-1.35.65.6.76,1.03.09.38.5.79.5.92,0,.26-.64.57-.51.74.05.06.45-.05.6,0-.36.35-.96.26-.3.75.31.23.58-.27.6-.45-.25,1.89-.09,3.52,0,5.42l1.2-2.11v4.37c0,7.51,9.21,19.87,14.75,24.7,8.25,7.21,21.3,9.72,30.68,14.79,1.01.54,2.48,1.26,1.53,2.53-.08.11-2.19-.48-2.7,0-.06.06.57.87.17,1.51-.33.52-1.89.54-2.27,1.35.75.88,1.18.77,2.1,1.21-.63,2.1-1.25,1.12-1.96,1.18-4.87.44-12.42,1.97-16.63,5.18-3.82,2.92-8.33,8.46-11.21,12.31-5.56,7.42-8.94,17.7-11.82,27.02-.57,1.84-2.06,5.76-2.27,7.4-.26,2.06.99,7.45.08,9.1-.24.43-.82.46-.97.68-.18.28-.46,2.16-.69,2.33-.15.11-1.04-.71-1.19-.6-.06.04,0,.65-.5.86-2.07.89-1.02-3.57-1.33-3.87-.14-.13-1.34.19-1.45-.5.14-2.79.33-5.6.28-8.4-.08-5.18-.43-12.56-1.73-17.57-1.39-5.35-6.49-15.28-10.64-18.88-.19-.17-.23-.61-.35-.69-.09-.06-.52.27-.54.24-.05-.06.09-.56-.08-.81s-2.22-1.6-2.7-1.92c-.34-.23-.15-.94-.99-.3.04-.93-1.35-1.24-2.25-2.1-.08-.07-.42-.66-.3,0ZM47.32,7.39c.22-.42-.19-.8-.29-.6-.22.42.19.8.29.6ZM47.78,7.39v.3l.15-.15-.15-.15ZM47.63,8.29c-.42-.22-.8.19-.6.29.42.22.8-.19.6-.29ZM47.48,8.89v.3l.15-.15-.15-.15ZM51.84,10.1s.21-.74.16-.9c-.72.35-.4,1.2-.16.9ZM50.19,9.8v.3l.15-.15-.15-.15ZM47.02,15.82l1.06-5.72c-.5,1.38-2.19,3.98-1.7,5.29.11.29.23.98.64.43ZM51.69,10.4v.3l.15-.15-.15-.15ZM50.33,11.01c-.42-.22-.8.19-.6.29.42.22.8-.19.6-.29ZM50.64,11.61c-1.19-.19-.7,1.96-.58,2.52s.72,2.69,1.48,2.6c.13-.5-.49-.16-.57-.44-.05-.16.44-1.41.26-1.67-.02-.03-.57.34-.6.31-.11-.12.19-2.82,0-3.31ZM49.73,15.82c-.08-.04-.85-.03-.89,0-.1.08-.78,2.41-.78,2.55,0,.49.39,1.2.61,1.67,1.33,2.8,5.19,6.74,7.63,8.72,1.14.93,2.3,1.83,3.67,2.41l-2.7-2.85c-2.25-4.01-6.28-7.77-7.64-11.89-.09-.26.14-.6.11-.62ZM45.07,16.42v.3l.15-.15-.15-.15ZM45.48,17.07c-.2-.12-.58-.02-.85-.03-.49,1.13-1.11,2.85-1.7,3.88-8.56,15.02-19.69,22.2-33.02,32.13-.56.41-2.26.8-2.63,1.93.56-.1,1.17.28,1.66.25,1.28-.06,9.71-5.2,11.35-6.27,8.23-5.38,18.4-14.06,22.93-22.93.66-1.29,2.74-5.94,2.84-7.12.03-.36-.45-1.75-.58-1.84ZM47.88,21.3c-.21-.14-.57-.05-.83-.04-1.51,3.72-3.44,7.32-5.75,10.6-3.83,5.43-10.06,11.14-15.36,15.12-.72.54-2.26,1.02-2.36,1.11-.13.12.05.65-.05.82-.02.04-.44-.19-.72.02-1.56,1.12-3.15,2.22-4.63,3.21-.67.45-5.15,3.28-5.15,3.59s4.89,1.93,5.79,2.34c11.49,5.25,16.67,9.09,23.58,19.62,4.85,7.39,6.49,12.61,9.01,20.97.09.28.05.69.45.6,1.48-3.85,2.85-7.75,4.56-11.5,5.74-12.59,14.37-25.88,27.04-32.03.53-.26,3.63-1.27,3.62-1.49,0-.06-.4-.44-.3-.75-.52-.16-.15.73-.45.6-.26-.11-1.7-1.46-2.22-1.77-7.75-4.59-12.2-10.12-18.73-15.19-5.1-3.95-11.02-7.36-15.02-12.08-.53-.63-2.28-3.61-2.46-3.73ZM35.74,29.68v.3l.15-.15-.15-.15ZM33.78,31.79c.5-.07.78-.81.6-1.2-.15-.31-.72.81-.6,1.2ZM60.42,31.49v.3l.15-.15-.15-.15ZM30.47,34.8c.35.18.69-.19.9-.45-.3-.12-1.18.3-.9.45ZM29.33,35.77s-.36.72-.22.83l1.05-1.05c-.12-.14-.8.19-.83.22ZM28.66,36.61c-.49-.41-.83.38-.6.9.15.33.65-.86.6-.9ZM27.76,37.51c-.5-.4-1.7,1.21-.75,1.2.16,0,.81-1.15.75-1.2ZM26.55,38.72c-1.41,0-2.21,1.63-3.01,2.24-.28.21-4.21,2.58-3.91,2.87.03.03.68.04.84.24l6.08-5.36ZM74.42,42.03c.22-.42-.19-.8-.29-.6-.22.42.19.8.29.6ZM84.59,46.33c-.14-.06-.5.18-.81.05l-8.61-4.35c-.22-.05-.21.32-.15.45.7,1.53,9.89,6.26,11.84,7.13,3.19,1.43,6.56,3.23,10.13,2.35-1.19-1.33-2.8-1.35-4.36-1.97-2.68-1.07-5.55-2.57-8.04-3.66ZM19.63,44.14c-.39-.31-1.38.5-1.5.9.76.53,1.71-.73,1.5-.9ZM16.32,46.85c.09.09,1.43-1.01,1.2-1.5-.27.15-1.44,1.24-1.2,1.5ZM15.12,47.75c.12.15.84-.59.6-.9-.12-.15-.84.59-.6.9ZM14.67,47.46c-.23.34-1.07.74-.91,1.19.23-.34,1.06-.73.91-1.19ZM12.56,49.26v.3l.15-.15-.15-.15ZM8.8,51.97c.69-.04,1.29-.64,1.8-1.05-.51.09-1.6.55-1.8,1.05ZM86.91,51.06v.3l.15-.15-.15-.15ZM87.66,51.96c1.41.27,2.38,1.39,3.91,1.06-.6-.19-2.93-1.57-3.21-1.62-.37-.06-.63.22-.7.56ZM8.34,52.27v.3l.15-.15-.15-.15ZM7.89,52.57c-.33-.33-.93.27-.6.6s.93-.27.6-.6ZM6.68,53.48c-.31-.14-1.44.44-1.5.9.41.07,1.76-.78,1.5-.9ZM4.73,54.38v.3l.15-.15-.15-.15ZM83.59,58.44c.81-.51,3.78-1.85,4.07-2.41.06-.12.07-.49-.15-.45-.36.57-.95.45-1.42.64-.35.14-1.07.71-1.36.86-1.73.94-3.44,1.89-5.11,2.91l-1.9,1.91c.74-.05,1.1-.71,1.8-1.06,1.8-.9,2.41-1.36,4.06-2.41ZM88.87,55.59c-.46-.21-1.23.15-.9.29.46.21,1.23-.15.9-.29ZM94.58,56.18c.22-.42-.19-.8-.29-.6-.22.42.19.8.29.6ZM2.02,55.88v.3l.15-.15-.15-.15ZM6.08,56.79c-.05-1.53-1.25-.34-2.1-.3.96,1.17,1.55-.31,1.65-.31.34,0-.11.74.45.6ZM6.54,55.88v.3l.15-.15-.15-.15ZM1.57,56.19c-.42-.22-.8.19-.6.29.42.22.8-.19.6-.29ZM92.78,56.79c-2.02-1.08-4.57,0-6.02,1.5,1.86-.33,4.55-.33,6.02-1.5ZM14.21,57.7c-.39-.41-4.52-1.44-4.51-.46,0,.22,3.81.93,4.36,1.05.24.05.19-.55.14-.59ZM15.12,58.29l-.6-.6c-.09.63-.03.69.6.6ZM16.17,58.29v.3l.15-.15-.15-.15ZM86.16,58.3c-.42-.22-.8.19-.6.29.42.22.8-.19.6-.29ZM14.16,59.87c-.19-.06-.7.27-1.21.17-1.88-.36-4.12-.67-5.81-1.45-.4.18-.12.56.17.74,2.76,1.65,9.11,2.63,12.49,3.77,3.35,1.14,6.61,2.51,9.77,4.08-.48-1.15-1.19-.94-1.91-1.39-3.01-1.89-6.13-3.41-9.83-4.65-1.13-.38-1.04-.59-1.4-.71-.46-.16-1.18.27-1.98-.04-.22-.08-.26-.5-.29-.51ZM73.97,66.13v.3l.15-.15-.15-.15ZM72.31,67.93c.14.17.94-.88.75-1.2-.28.25-1.02.86-.75,1.2ZM71.41,68.84c.12.15.84-.59.6-.9-.12-.15-.84.59-.6.9ZM70.96,69.14v.3l.15-.15-.15-.15ZM70.05,70.04v.3l.15-.15-.15-.15ZM69.45,70.95c-.68.46-.37.87,0,.29.1-.15.24-.16,0-.29ZM67.65,73.35v.3l.15-.15-.15-.15ZM39.35,75.76v.3l.15-.15-.15-.15ZM45.37,85.4v.3l.15-.15-.15-.15ZM45.37,86.01v.3l.15-.15-.15-.15ZM50.63,101.67c-1.01-5.13-2.32-10.45-4.97-15.05,1.58,4.6,2.62,9.48,4.33,14.04.14.38.07.92.64,1.02ZM58.02,90.83c-.68.46-.37.87,0,.29.1-.15.24-.16,0-.29ZM53.34,105.89c.86-4.75,3.04-9.15,4.07-13.85-.53.32-.31.97-.56,1.4-.07.13-.44.15-.59.47-1.23,2.62-2.46,6.61-3.2,9.2-.2.69-.66,2.5.27,2.78ZM50.64,102.87s.21-.74.16-.9l-.75.75c-.04.26.58.17.6.15ZM50.03,110.7c.22-.42-.19-.8-.29-.6-.22.42.19.8.29.6ZM49.88,112.21v.3l.15-.15-.15-.15ZM50.03,114.02c.22-.42-.19-.8-.29-.6-.22.42.19.8.29.6Z"/>
      <path class="cls-1" d="M27.76,67.93s.3-.02.3,0c.12.69-.27.01-.3,0Z"/>
      <path class="cls-1" d="M48.53,4.37l-.9-.15c.4-.57.65-.51.9.15Z"/>
      <path class="cls-1" d="M53.04,6.48c-.15.33-.5-.44-.29-.9.15-.33.5.44.29.9Z"/>
      <polygon class="cls-1" points="45.07 .46 45.22 .61 45.07 .76 45.07 .46"/>
      <polygon class="cls-1" points="52.29 1.06 52.44 1.21 52.29 1.36 52.29 1.06"/>
    </g>
  </g>
</svg>