<?xml version="1.0" encoding="UTF-8"?>
<svg id="Layer_3" data-name="Layer 3" xmlns="http://www.w3.org/2000/svg" viewBox="0 0 100 112.12">
  <defs>
    <style>
      .cls-1 {
        fill: #fff;
      }
    </style>
  </defs>
  <g id="Sketchy_Icons" data-name="Sketchy Icons">
    <g>
      <path class="cls-1" d="M42,2.85s.76-.48,1.12-.3c-1.56,4.03,2.96,2.58,4.29,6.04.68,1.77-.69,3.06-.04,5.12s5.59,8.44,7.53,9.6c5.42,3.25,11.41,5.37,16.87,9.23,5.23,3.7,15.63,15.21,20.05,17.14,1.7.74,3.46.28,4.87,1.4,2.26,1.8.19,1.95-.82,3.65-.91-1.54-2.25-.6-3.16-.88-.48-.14-.85-1.26-1.98-1.39-.99-.11-4.6.37-3.13,1.44,3.09,2.26,6.84,2.19,10.56,3.12,4.06,1.02.52,2.73-1.86,3.3-7.54,1.78-11.69,3.52-18.16,8.92-7.86,6.57-10.17,19.42-10.52,29.7-.1,2.97,1.09,8.73.6,11.38-.51,2.76-2.41,2.08-3.17-.24-.38-1.15.05-5.24-1.39-6.27-.15-.1-2.16,1.83-2.84,1.14s.12-4.46-.01-5.37c-.31-2.13-2.51-10.71-3.45-12.29-.04-.06-.92.53-1.4.02-.76-.81-.28-1.95-.46-2.21-1.71-2.39-7.27-6.78-9.65-8.33-10.72-6.96-24.39-9.18-38.05-10.41-.51-.05-5.13,1.37-5.11-1.07,0-.63,10.46-6.86,9.1-8.27-.26-.27-5.91.73-7.46.34-1.07-.27-1.02-1.22-1.5-1.51-.33-.2-3.98-.36-2.44-2.25.27-.34,7.2-1.01,8.56-1.42,9.94-3.01,23.4-16.81,28.38-25.79.61-1.1,2.11-4.11,2.28-5.17.74-4.57-9.26-8.67-2.45-14.38-2.13,3.91,1.82,4.96,4.26,7.4.11-1.58,1.28-3.93,1.13-5.4-.25-2.33-3.12-6.01-.26-8.86.84.6-.73,2.21-.28,2.85ZM42.28,6.27v.57l.29-.29-.29-.29ZM46.54,9.69c.34-.66-.36-1.31-.85-1.7-.24.57.57,2.24.85,1.7ZM43.7,15.97c.13-.15-.02-3.13.29-3.98-1.1.5-1.79,5.78-.29,3.98ZM48.12,18.36c-.22-.33-2.51-2.71-2.71-.96-.22,2.02,2.57.93,2.29,2.55.94.19.67-1.21.42-1.59ZM46.11,23.77c-.34-.31-2.01-3.63-2.97-2.67-.05.05.13.93-.21,1.47-6.7,10.37-10.25,18.01-19,26.65-.4.39-3.24,3.5-3.02,3.81,17.74,1.46,29.54,12.61,38,27.29l3.03,8.65c.78-2.95,1.82-6.41,3.11-9.15,2.11-4.48,6.06-11.49,8.66-15.86.79-1.32,5.51-6.87,5.32-7.74-.11-.5-7.17-5.15-8.32-6.02-.05-2.19-4.78-3.88-5.38-4.78s-.36-2.2-.64-2.53c-.24-.29-1.94-.28-2.79-.97-.72-.58-4.97-6.51-5.87-7.57-1.42-1.66-3.98-4.23-5.34-5.44-1.53-1.36-2.41-3.19-4.58-5.13ZM52.82,26.24c.47-.6-.9-2-1.13-1.71-.47.6.9,2,1.13,1.71ZM53.68,26.24v.57l.29-.29-.29-.29ZM56.53,26.24v.57l.29-.29-.29-.29ZM53.68,27.38v.57l.29-.29-.29-.29ZM59.45,28.21c-.41-.23-1.14-.95-1.48-.56.6.6.74,1.44,1.15,2.14,2.77,4.65,14.08,15.11,18.82,18.36,1.21.83,5.52,3.58,6.66,3.66.36.02,3.42-.94,3.56-1.06,1.06-.91-.86-1.19-.91-1.26-.16-.23.17-.92.07-.96-.08-.03-1.02.48-1.67.01-.14-.1-.93-1.95-1.96-2.86-4.91-4.35-10.29-8.49-14.59-11.5-3.43-2.4-5.95-3.82-9.67-5.97ZM57.94,30.81c-.07-.09-1.16-.71-1.83-1.3-.73-.65-.38-1.62-1.57-.13,1.71-.38,1.78,1.87,3.13,2.56.49.07.34-1.05.28-1.13ZM53.11,29.66v.57l.29-.29-.29-.29ZM58.81,32.51v.57l.29-.29-.29-.29ZM61.36,37.07c.1-.22.21-2.1-.28-2.28-1.51.58.03,2.81.28,2.28ZM62.52,36.5c-.1.12.3,1.75.27,2.27,1.81-.86,0-2.62-.27-2.27ZM64.51,38.78v.57l.29-.29-.29-.29ZM65.92,39.94c-.4-.33-1.51-.1-1.12.83.29.69,3.96,4.25,5.12,4.28.33-1.8-1.8-1.34-2.34-2.08-.41-.56.08-1.8,0-1.85-.19-.14-.97.1-1.46-.23-.31-.2-.14-.9-.2-.95ZM25.75,42.78v.57l.29-.29-.29-.29ZM24.61,44.49v.57l.29-.29-.29-.29ZM71.88,45.94c-.19-.15-1.41-2.18-1.38-.02.01.76,10.1,9.36,11.39,8.27.6-.51-1.52-2.21-1.82-2.46-2.39-1.98-5.48-3.53-8.19-5.79ZM22.45,47.78c.21-.41.46-1.47-.12-1.58-1.61.67-5.16,4.73-6.28,5.12-.58.2.92-1.62-.56-1.12l-4.27,2.56,4.97-.1c1.31-1.4,5.48-3.41,6.25-4.87ZM19.48,54.76v.57l.29-.29-.29-.29ZM85.88,55.33l-1.71.28c.76,1.08,1.22.97,1.71-.28ZM37.2,60.69c-1.88-.92-4.36-1.99-6.38-2.46-1.81-.41-12.58-1.38-14.05-1.07-2.66.57-3.3,2.28-4.69,3.31-.84.62-6.27,3.16-4.86,4.54.33.33,5.39-.05,6.45.07,12.05,1.36,23.76,3.64,34.16,10.2l7.84,6.27-8.17-12.92c-3.55-2.51-6.49-6.09-10.29-7.95ZM84.04,57.86c-.68-.15-2.64-.37-3.15-.13-.57.28-5.62,7.44-5.26,7.86l4.71-3.58c.93-.34,5.92-2.45,4.97-3.84-.13-.19-.42.47-1.13.2-.08-.03-.04-.49-.14-.51ZM77.05,66.73v.57l.29-.29-.29-.29ZM75.34,69.02v.57l.29-.29-.29-.29ZM73.63,70.73v.57l.29-.29-.29-.29ZM55.39,82.13v.57l.29-.29-.29-.29ZM67.07,84.99c-2.94,3.6-4.96,9.95-1.41,13.68l1.41-13.68ZM63.16,103.17c.06.06,1.33.55,1.62.36l-1.42-1.99c.12.35-.26,1.57-.2,1.63Z"/>
      <polygon class="cls-1" points="47.98 5.7 48.26 5.99 47.98 6.27 47.98 5.7"/>
    </g>
  </g>
</svg>