<?xml version="1.0" encoding="UTF-8"?>
<svg id="Layer_2" data-name="Layer 2" xmlns="http://www.w3.org/2000/svg" viewBox="0 0 62.79 91.44">
  <g id="Sparkles">
    <g id="Layer_23_Image" data-name="Layer 23 Image">
      <g>
        <path d="M50.24.76c.27.35.42,1.74.48,2.28.73,7.05-.41,14.98-4,21.11-1.9,3.25-3.62,3.83-2.76,8.38.54,2.83,2.27,6.15,4.14,8.33.32.38,2.81,2.74,3.11,2.87.77.33,3.24-.74,4.42-.83s2.76-.09,3.84.46c.55.28.63.72.96.93.52.33,1.2.42,1.65.75,1.9,1.4-.5,1.87-1.54,2.53-.28.18-1.5,1.3-1.61,1.32-.14.02-1.08-.43-1.03.11.04.49,1.74,1.06,1.88,1.48.16.48-.22,1.91-.62,2.25-1.27,1.1-6.69.78-8.14-.2-.52-.35-.51-.75-.54-.77-.13-.09-.31.3-.46.32-3.74.54-13.95,8.68-16.37,11.9-.17.22-1.07,1.65-1.08,1.77-.05.89,1.34,3.9,1.61,5.11.78,3.55,1.22,10.24.23,13.74-.07.24-.79,2.11-.87,2.2-.22.26-.6.08-.73.16-.04.02.25.49-.07.87-.17.21-2.29,2.05-2.5,2.17-1.36.74-2.4.45-3.6.7-.48.1-.92.53-1.47.67-1.43.36-1.83-.9-2.64-1.86-.18-.22-.54-.14-.64-.25-1.49-1.65-.77-6.58-.3-8.65.62-2.75,1.97-5.32,3.06-7.76.61-1.36,1.17-2.2,1.21-3.76-.15-.18-.38.18-.49,0-.31-.52-.89-4.04-1.2-5.01-.9-2.82-2.43-5.41-3.09-8.28-.63.6-.5-.57-.88-1.38-.22-.47-.78-.03-.31-1.02-.63.58-.65-.75-1.1-1.42-1.2-1.8-4.73-5.24-6.8-6.35-.67-.36-.64-.22-1.43-.73-.24-.15-.49.11-.67.05-.05-.02-.05-.39-.2-.42-.51-.08-2.55.44-3.32.44-1.23,0-2.82-.48-4.09-.52-1.44-1.37-2.58-1.5-2.2-3.79.13-.77.89-1.9,1.53-2.32,1.56-1.01,6.29,1.77,8.35,1.88,10.17.53,27.27-11.57,31.98-20.4,1.41-2.65,1.76-7.23,2.88-10.28.39-1.06,1.28-2.27,1.68-3.3s.63-2.45.34-3.65c-.14-.57-.96-1.74-.89-2.21.17-1.24.94.73.99.79.38.45.7-.4.75-.47.87-1.2.45.17.63.86.12.47.5.51.49.61,0,.04-.65.46,0,.72-.38.83-.96,3.25-.83,4.11.08.52.65.39.59.56-.25.77-.95,1.68-.71,2.75.85.24.58-1.53.72-1.68.03-.03.84-.21.71.36-.1.45-.6.55-.69.79s-.29,1.05-.37,1.38c-.04.18.18.5.11.59-.13.16-.48-.61-.71-.36.29.26.5.46.44.9-.19,1.36-1.21,3.35-1.57,4.68-.77,2.77-1.51,5.59-1.98,8.43l.93-1.16c3.31-5.48,4.04-10.07,4.33-16.32.26-.13.36-.13,0-.24.06-1.61.22-3.26.16-4.88-.02-.7-.83-1.43.08-2.06-.1.22.34.22.24,0ZM46.53.76v.24l.12-.12-.12-.12ZM46.89,7.47c-.36-.34-.61.4-.71.61-.36.77-.74,2.16-1,3.03-.18.6-.12.57-.26,1.19-.18.81-.4,1.57-.67,2.35.37-.06.45-.45.59-.72.35-.68,2.28-6.22,2.04-6.46ZM47.73,10.82v.24l.12-.12-.12-.12ZM44.26,15.6c.17-.34-.15-.64-.23-.48-.17.34.15.64.23.48ZM45.34,17.05c-.54.36-.3.69,0,.23.08-.12.19-.13,0-.23ZM44.74,18.96c.17-.34-.15-.64-.23-.48-.17.34.15.64.23.48ZM44.38,19.91v.24l.12-.12-.12-.12ZM44.74,22.31c-.5-.07-.54-.02-.48.48l.48-.48ZM41.54,25.09c.45-.73.66-1.44.69-2.3-1.54,1.7-2.86,3.64-4.43,5.31-2.42,2.57-6.11,5.59-9.02,7.6-.98.68-2.51,1.24-3.54,2.03-.27.21-.7.44-.58.85,4.89-2.69,10.03-5.63,13.86-9.77.77-.83,2.46-2.82,3.02-3.73ZM44.26,23.03c-.42-.36-.77.91-.72.95.42.36.77-.91.72-.95ZM43.66,24.22v.24l.12-.12-.12-.12ZM43.66,25.18v.24l.12-.12-.12-.12ZM40.11,30.6c1.17-1.17,1.94-1.82,1.95-3.63,0-.22-.08-.88-.43-.83.01.27.01.49-.17.72-3.48,4.36-9.48,9.16-14.37,11.42-.34.16-.65-.14-.52.54.64-.02,1.33-.34,1.91-.6,3.64-1.63,8.82-4.82,11.63-7.62ZM36.49,28.05v.24l.12-.12-.12-.12ZM34.22,30.45c.27-.28-.1-.77-.48-.12-.03.21.46.13.48.12ZM41.24,35.18c-.26-1.04.26-2.01.31-3.04.01-.22-.05-1.44-.39-1.45l-2.16,2.21c-4.23,3.2-9.92,6.53-15.17,8.2-1.07.34-9.12,1.93-9.21,2.4s6.02,5.35,6.54,6.5c4.13,3.11,7.32,7.34,9.84,11.81l7.04-8.26c2.15-2.12,4.46-4.13,6.92-5.88-.33-.63-.61-1.35-.93-1.97-.41-.76-.47-1.17-.88-2.08-.23-.51-.96-1.28-1.16-1.78-.73-1.91-.3-4.83-.75-6.65ZM42.11,32.84c-.07.16.16.87.11,1.19.71-.28,0-1.45-.11-1.19ZM30.15,33.56c.17-.34-.15-.64-.23-.48-.17.34.15.64.23.48ZM29.32,33.8v.24l.12-.12-.12-.12ZM42.23,34.28v.24l.12-.12-.12-.12ZM43.66,34.52v.24l.12-.12-.12-.12ZM42.23,35v.24l.12-.12-.12-.12ZM27.16,35.24v.24l.12-.12-.12-.12ZM44.21,35.75s-.65-.3-.67-.27c-.05.07,0,1.68,0,1.77.02.13.49,1.82.63,2.3.35,1.18,2.92,5.67,4.06,5.95.37.09,1.88-.57,2.22-.8.6-.42-.78-.81-1.08-1.07-.28-.23-1.12-.92-1.23-1.03-.27-.26-.27-.84-.67-1.16-.23-.18-.57.04-.59.02-.13-.21-.03-1.02-.48-1.52-1.1-1.2-1.54-1.79-2.23-3.56-.08-.22.06-.58.03-.62ZM42.58,38.59c-.15-.79.23-2.35-.47-2.87l.47,2.87ZM24.77,36.67v.24l.12-.12-.12-.12ZM24.18,37.15l-5.23,2.48c-2.6.8-5.29,1.14-7.92,1.71.51.46,1.37.57,2.03.61,2.93.18,7.36-2.33,9.68-3.7.48-.28,1.15-.61,1.43-1.1ZM24.18,38.59c-.25-.2-.84.38-.72.47.25.2.84-.38.72-.47ZM26.09,39.3c.83-.73-1.19-.21-.71,0,.08.04.69.02.71,0ZM42.94,39.07v.24l.12-.12-.12-.12ZM22.14,39.54v.24l.12-.12-.12-.12ZM5.76,41.46c.31-.34-.33-.62-.61-.7-.79-.24-2.3-.78-2.97-.88-.31-.05-1.11-.08-1.2.3-.6,2.45,1.53,3.41,3.59,3.55-.84-.61-1.43-1.42-2.13-2.17-1.46-1.56,3.19.05,3.33-.1ZM44.26,41.22c.17-.34-.15-.64-.23-.48-.17.34.15.64.23.48ZM8.39,41.94c.54-.6-2.08-1.09-2.39-.71l2.39.71ZM8.64,41.22c-.14.28.15.55.36.71.1-.24-.24-.94-.36-.71ZM43.42,41.7v.24l.12-.12-.12-.12ZM45.55,44.24c-.21-.3-.77-1.09-.89-1.35-.17-.35.08-1.15-.39-1.2-.85.95,1.23,4.87,1.81,5.01.35.08,1.61-.59,1.22-1.05-.03-.04-.68-.09-.95-.34-.1-.1-.65-.85-.8-1.07ZM8.75,42.66v.24l.12-.12-.12-.12ZM9.23,42.66v.24l.12-.12-.12-.12ZM10.31,42.66s-.51-.09-.48.12c.37.65.75.16.48-.12ZM4.93,43.61v.24l.12-.12-.12-.12ZM56.81,43.61v.24l.12-.12-.12-.12ZM57.89,44.09c.27-.28-.1-.77-.48-.12-.03.21.46.13.48.12ZM12.46,44.33c.17-.34-.15-.64-.23-.48-.17.34.15.64.23.48ZM15.21,44.81v.24l.12-.12-.12-.12ZM59.77,45.32c-.55-.64-3.52-.34-4.38-.31-.45.02-2.27-.35-.51.54.64.32,4.01,1.22,4.57,1.12.4-.07.48-1.16.32-1.35ZM49.52,46.48c1.7.72,3.3,1.3,5.15,1.56,1.42.19,3.68.52,4.65-.72-.65-.03-1.81.1-2.4-.03-.74-.16-3.17-1.02-3.88-1.34-.38-.17-.35-.64-.51-.64-.67-.02-2.54.53-3,1.17ZM61.47,45.77s-.69-.02-.71,0c-.71.62,1.43.62.71,0ZM52.8,48.53c-1.12.13-4.99-2.44-5.43-.72-.1.4,2.27,1.98,2.77,2.03.9.09,2.32-.45,3.21-.72l-.54-.59ZM17.84,48.4v.24l.12-.12-.12-.12ZM46.47,49.29c-.15-.17.07-.61-.18-.65-.17.81-1,.66-1.08.72-.02.02.26.44.23.46-.05.04-.55.03-.84.24-1.25.95-5.68,5.53-6.55,6.85-.26.39-.33.57-.25,1.06,3.15-2.46,6.36-4.84,9.91-6.71l.36-.69c-.38-.24-1.37-1.01-1.6-1.28ZM21.23,51.84c-.65-.82-1.41-1.51-2.21-2.23-.19-.17-.34-.47-.35-.73-1.1.66-.19.64,0,.89,2.13,2.93,4.67,6.24,6.27,9.47,1.08,2.19,1.68,4.76,2.67,6.91.1.22.06.9.51.68.75-.37-.14-4.08-.36-4.31-.02-.02-.45.26-.47.24-.09-.09-.51-2.05-.71-2.47-1.24-2.55-3.58-6.24-5.35-8.46ZM44.02,49.84s.03-.63,0-.72c-.21-.48-.73,1.55,0,.72ZM57.17,50.08l-3.82.59c.34.9,4.58.18,3.82-.59ZM43.06,50.32c-.34-.17-.64.15-.48.23.34.17.64-.15.48-.23ZM58.84,50.8c-.49-.49-1.39.66-1.69.82-1.03.54-3.56.4-4.65-.1-.53.69,1.99.91,2.63.94.86.04,2.94.17,3.49-.56.18-.24.34-.97.22-1.1ZM42.11,51.04c-.37-.37-.76.68-.72.71.29.24.94-.49.72-.71ZM52.03,51.51v.24l.12-.12-.12-.12ZM41.15,51.99c-.62-.63-.6,1.32-.24.95.04-.04.29-.9.24-.95ZM40.43,52.71l-2.96,2.65c-1.89,2.11-3.42,4.32-4.95,6.54-.28.4-1.08.56-.93,1.34,2.3-1.87,3.91-4.2,5.64-6.68l3.21-3.85ZM23.34,52.95v.24l.12-.12-.12-.12ZM23.93,54.15c.17-.37-.12-.97-.23-.72-.17.37.12.97.23.72ZM26.8,56.3s-.44.3-.71.14c-.53-.32-1.48-3.27-1.9-1.72l5.36,9.48c.6-.41.77-1.02.53-1.72-.66-.96-1.04-2.13-1.62-3.12-.21-.35-.92-.84-1.23-1.45-.23-.44-.37-1.55-.43-1.61ZM37.56,58.45c.17-.37-.12-.97-.23-.72-.17.37.12.97.23.72ZM23.93,59.42c-.34-.17-.64.15-.48.23.34.17.64-.15.48-.23ZM24.17,59.89c-.34-.17-.64.15-.48.23.34.17.64-.15.48-.23ZM24.65,62.05c-.08-.43.14-1.5-.48-1.67.15.35-.26,1.96.48,1.67.43,2.36,1.36,4.65,2.03,6.94,1.23-2.35-1.72-4.99-1.56-7.41-.42-.07-.07.32-.48.48ZM32.42,63.48v.24l.12-.12-.12-.12ZM30.39,66.83l.84-1.91c-.26.48-1.6,1.3-.84,1.91ZM29.44,67.55c-.35-.29-1.07.78-.95,1.19.35,0,1.01-1.15.95-1.19ZM31.5,87.81c3.66-3.86,2.44-12.61,1.3-17.29-.11-.44-.35-2.95-1.09-2.97-.09,0-.75,1.47-.75,1.55-.02.2.88,3.23.99,3.94.44,2.92.88,8.3.35,11.13-.18.97-1.78,2.56-2.73,2.54-.09,0-.61-1.2-1.5-.19-.11.12-1.02,2.96-1.02,3.17-.01.95,4.06-1.46,4.46-1.88ZM29.55,69.23c-.36.03-.96,2-.24,2.14.07.01.31-1.16.35-1.32.05-.18.41-.87-.11-.83ZM27.4,70.43v.24l.12-.12-.12-.12ZM30.81,85.21c.6-.61.76-6.22.67-7.44-.16-2.12-.78-4.48-.97-6.62-1.85,3.01-.82,6.9-1.13,10.18,0,.06-.12.13-.21.92-.09.87-.74,2.53.26,3.16.26.16,1.22-.03,1.38-.19ZM28.84,71.38v.24l.12-.12-.12-.12ZM28,75.93c-.05-1.34.34-2.53-.11-3.82-.55.47-.39,1.38-.37,2.04.01.39.1,1.58.48,1.78ZM26.57,74.97c-.55-.11-.38.06-.54.31-1.54,2.44-3.31,10.6-1.71,13.07s2.47-2.16,2.62-3.26c.04-.3.23-1.92.23-2.09.02-2.58-.51-5.43-.6-8.03ZM23.93,77.37c.17-.34-.15-.64-.23-.48-.17.34.15.64.23.48ZM23.58,77.61v.24l.12-.12-.12-.12ZM23.22,79.28c.17-.34-.15-.64-.23-.48-.17.34.15.64.23.48ZM23.22,79.52c-.62-.1-.43.09-.55.52-.53,1.89-.8,4.24-.64,6.18.34.07.31-.38.35-.61.31-1.95.13-4.16.84-6.09ZM22.14,86.94v.24l.12-.12-.12-.12ZM22.38,87.67c-.24.17.13.33.24.47.24-.16-.11-.32-.24-.47Z"/>
        <path d="M50.24.76s-.23-.01-.24,0c.15-.11-.05-.38.24,0Z"/>
        <path d="M48.8,2.92c.04-.21-.06-.58,0-.72.01-.03.48-.4.48-.12.09.39-.38.61-.48.84Z"/>
        <path d="M49.76,7.95c-.23.11-.73.39-.96.36l.36-1.55c.47.92-.21.71.6.96,0,.08,0,.16,0,.24Z"/>
        <polygon points="48.44 6.75 48.56 6.87 48.44 6.99 48.44 6.75"/>
      </g>
    </g>
  </g>
</svg>