<?xml version="1.0" encoding="UTF-8"?>
<svg id="Layer_3" data-name="Layer 3" xmlns="http://www.w3.org/2000/svg" viewBox="0 0 41.87 46.94">
  <g id="Sparkles">
    <g id="Layer_20_Image" data-name="Layer 20 Image">
      <g>
        <path d="M17.58,1.19s.32-.2.47-.13c-.65,1.69,1.24,1.08,1.8,2.53.28.74-.29,1.28-.02,2.14s2.34,3.53,3.15,4.02c2.27,1.36,4.78,2.25,7.06,3.86s6.54,6.37,8.4,7.18c.71.31,1.45.12,2.04.59.94.75.08.82-.34,1.53-.38-.64-.94-.25-1.32-.37-.2-.06-.36-.53-.83-.58-.42-.05-1.93.15-1.31.6,1.29.95,2.86.92,4.42,1.31,1.7.43.22,1.14-.78,1.38-3.16.75-4.89,1.47-7.6,3.74-3.29,2.75-4.26,8.13-4.4,12.44-.04,1.25.46,3.65.25,4.76s-1.01.87-1.33-.1c-.16-.48.02-2.19-.58-2.62-.06-.04-.91.77-1.19.48s.05-1.87,0-2.25c-.13-.89-1.05-4.48-1.44-5.15-.02-.03-.38.22-.59.01-.32-.34-.12-.82-.19-.92-.71-1-3.04-2.84-4.04-3.49-4.49-2.91-10.21-3.84-15.93-4.36-.21-.02-2.15.57-2.14-.45,0-.26,4.38-2.87,3.81-3.46-.11-.11-2.48.31-3.12.14-.45-.12-.43-.51-.63-.63-.14-.08-1.67-.15-1.02-.94.12-.14,3.01-.42,3.58-.6,4.16-1.26,9.8-7.04,11.88-10.8.26-.46.88-1.72.95-2.17.31-1.91-3.88-3.63-1.03-6.02-.89,1.64.76,2.08,1.78,3.1.05-.66.54-1.65.47-2.26-.11-.98-1.3-2.52-.11-3.71.35.25-.31.93-.12,1.19ZM17.7,2.63v.24l.12-.12-.12-.12ZM19.49,4.06c.14-.28-.15-.55-.36-.71-.1.24.24.94.36.71ZM18.3,6.69c.05-.06,0-1.31.12-1.67-.46.21-.75,2.42-.12,1.67ZM20.15,7.69c-.09-.14-1.05-1.14-1.13-.4-.09.85,1.08.39.96,1.07.39.08.28-.51.18-.67ZM19.3,9.95c-.14-.13-.84-1.52-1.24-1.12-.02.02.06.39-.09.62-2.81,4.34-4.29,7.54-7.95,11.16-.17.16-1.36,1.47-1.27,1.59,7.43.61,12.37,5.28,15.91,11.43l1.27,3.62c.32-1.24.76-2.68,1.3-3.83.88-1.88,2.54-4.81,3.63-6.64.33-.55,2.31-2.88,2.23-3.24-.05-.21-3-2.16-3.48-2.52-.02-.92-2-1.63-2.25-2s-.15-.92-.27-1.06c-.1-.12-.81-.12-1.17-.41-.3-.24-2.08-2.73-2.46-3.17-.6-.7-1.66-1.77-2.24-2.28-.64-.57-1.01-1.34-1.92-2.15ZM22.11,10.98c.2-.25-.38-.84-.47-.72-.2.25.38.84.47.72ZM22.47,10.98v.24l.12-.12-.12-.12ZM23.67,10.98v.24l.12-.12-.12-.12ZM22.47,11.46v.24l.12-.12-.12-.12ZM24.89,11.81c-.17-.1-.48-.4-.62-.23.25.25.31.6.48.9,1.16,1.95,5.9,6.33,7.88,7.69.51.35,2.31,1.5,2.79,1.53.15.01,1.43-.39,1.49-.44.44-.38-.36-.5-.38-.53-.07-.1.07-.38.03-.4-.03-.01-.43.2-.7,0-.06-.04-.39-.82-.82-1.2-2.06-1.82-4.31-3.56-6.11-4.82-1.44-1.01-2.49-1.6-4.05-2.5ZM24.26,12.9s-.48-.3-.77-.54c-.31-.27-.16-.68-.66-.06.71-.16.75.78,1.31,1.07.2.03.14-.44.12-.47ZM22.24,12.42v.24l.12-.12-.12-.12ZM24.62,13.61v.24l.12-.12-.12-.12ZM25.69,15.52c.04-.09.09-.88-.12-.95-.63.24.01,1.18.12.95ZM26.18,15.28c-.04.05.12.73.11.95.76-.36,0-1.1-.11-.95ZM27.01,16.24v.24l.12-.12-.12-.12ZM27.6,16.72c-.17-.14-.63-.04-.47.35.12.29,1.66,1.78,2.14,1.79.14-.75-.75-.56-.98-.87-.17-.23.03-.75,0-.77-.08-.06-.41.04-.61-.1-.13-.08-.06-.38-.08-.4ZM10.78,17.91v.24l.12-.12-.12-.12ZM10.3,18.63v.24l.12-.12-.12-.12ZM30.1,19.23c-.08-.06-.59-.91-.58,0,0,.32,4.23,3.92,4.77,3.46.25-.21-.64-.93-.76-1.03-1-.83-2.29-1.48-3.43-2.42ZM9.4,20.01c.09-.17.19-.62-.05-.66-.68.28-2.16,1.98-2.63,2.14-.24.08.39-.68-.23-.47l-1.79,1.07,2.08-.04c.55-.59,2.29-1.43,2.62-2.04ZM8.15,22.93v.24l.12-.12-.12-.12ZM35.96,23.17l-.71.12c.32.45.51.41.71-.12ZM15.58,25.41c-.79-.38-1.83-.84-2.67-1.03-.76-.17-5.27-.58-5.88-.45-1.11.24-1.38.96-1.97,1.39-.35.26-2.63,1.32-2.03,1.9.14.14,2.26-.02,2.7.03,5.04.57,9.95,1.52,14.3,4.27l3.28,2.63-3.42-5.41c-1.48-1.05-2.72-2.55-4.31-3.33ZM35.19,24.23c-.29-.06-1.11-.16-1.32-.05-.24.12-2.35,3.12-2.2,3.29l1.97-1.5c.39-.14,2.48-1.03,2.08-1.61-.06-.08-.18.2-.47.08-.03-.01-.02-.21-.06-.22ZM32.26,27.94v.24l.12-.12-.12-.12ZM31.54,28.9v.24l.12-.12-.12-.12ZM30.83,29.61v.24l.12-.12-.12-.12ZM23.19,34.39v.24l.12-.12-.12-.12ZM28.08,35.58c-1.23,1.51-2.08,4.16-.59,5.73l.59-5.73ZM26.44,43.2s.56.23.68.15l-.59-.83c.05.15-.11.66-.09.68Z"/>
        <polygon points="20.09 2.39 20.21 2.51 20.09 2.63 20.09 2.39"/>
      </g>
    </g>
  </g>
</svg>