<?xml version="1.0" encoding="UTF-8"?>
<svg id="Layer_3" data-name="Layer 3" xmlns="http://www.w3.org/2000/svg" viewBox="0 0 58.58 89.6">
  <g id="Sparkles">
    <g id="Layer_24_Image" data-name="Layer 24 Image">
      <g>
        <path d="M45,55.58c-.2,1.92-1.09,4.46-1.36,6.65-.67,5.44-.67,11.44-.04,16.9.12,1.07,1.39,7.26,1.16,7.57-.01.02-.35-.24-.43-.18-.1.07.02.88-.63.17l-2.52-5.49c.13,1,.64,7.99.23,8.38-.18.16-1.48-.57-1.48-1.03-4.43-9.88-8.96-20.11-15.86-28.4-3.36-4.05-6.9-7.4-11.8-8.98-.7-.23-3.23-.77-4-.76-1.96.04-3.56,2.02-5.86,2.14-.93.05-1.32-.44-2.11-.32-.16-.4.21-.87.23-1.08,0-.07-1.22.39.03-.92.92-.96,2.47-.9,3.72-1.55.59-.31,2.09-1.29,1.64-1.95-.69.36-1.53.28-2.22.66-.4.22-.45.61-.72.77-.54.3-2.34.73-2.64-.15-.54-1.59.33-1.4.86-1.81.27-.21-.06-.68.43-1.1,1.07-.92,3.68-1.77,5.01-2.66.35-.24.6-.69.96-.97,6.37-4.9,10.95-11.78,14.4-19.09.37-.36-.55-2.33-.68-2.43-.05-.04-.42.25-.45.22s-.02-.47-.15-.69c-2.5-4.16-2.49-8.73-.34-13.08.15-.3.57-.71.27.03l-.99,4.76c-.21,3.43.78,6.54,2.87,9.22l1.55-3.35c.51-3.42.41-6.75.62-10.17.03-.46-.29-.95-.27-1.18.02-.21.44-.02.49-.26.14-.63-.5-.1-.48-.59.22-.03.69.13.73-.14.22-1.39.25-2.93,1.41-3.93.41,1.06-.6,2.07-.6,3.23,0,.57.38,1.19.36,1.79l.47-.48c.22.9-.24,1.94-.21,2.73.03,1.12,1.95,4.12,2.65,5.25,4.21,6.84,10.61,11.94,17.11,16.43,3.78,2.61,7.77,5.22,12.14,6.7.28.78-.51,1.07-.85,1.93,0,.02-.55.34,0,.24-.23.31-1.04.92-1.32.96-.07,0-.12-.92-1.07-.11-.29.25-.11.72-.53.91-.56.25-1.46.14-2.15.42-1.05.42-2.48,2.6-3.06,3.39-3.01,4.07-2.7,6.93-4.54,11.19-.01.02-.55.34,0,.24ZM25.76,5.32c-.24.17.13.33.24.47.24-.16-.11-.32-.24-.47ZM33.29,24.46s.32.53.24,0c.24.34.45,1.12.95,1.08-.23-.58-.61-.89-.95-1.32-1.81-2.24-3.87-5.07-5.14-7.66-.19-.38-.76-2.3-.84-2.39-.03-.03-.43.26-.46.24-.12-.1-.14-1.36-.72-1.43,1.39,3.91,3.84,8.66,6.93,11.49ZM26,13.93v.24l.12-.12-.12-.12ZM29.61,21.17c-.07-.11-.36-.16-.47-.32-1.27-1.97-2.5-3.93-3.15-6.2-.72.91-.38,2.25-.53,3.31s-1.06,4.11-.38,4.85c2.68,1.85,5.37,3.69,8.12,5.45s5.6,3.58,8.2,5.15c1.79,1.08,6.1,3.88,7.77,4.49.99.37,1.12-.4.3-.88-.14-.08-.43.05-.72-.12-6.23-3.69-11.15-6-16.09-11.45-.6-.66-.62-1.09-.79-1.31-.16-.21-.54-.07-.76-.3-.37-.38-1.21-2.21-1.51-2.66ZM35.6,23.32c-.15-.17-.53-.24-.77-.52-1.5-1.7-2.77-3.78-4.53-5.28-.48.4.33.55.52.81.53.7.81,1.77,1.27,2.43,5.19,7.46,10.5,11.11,18.48,14.99,1.18.57,1.78,2.04,3.28.57-.69-.38-2.39-.52-2.95-.82-.31-.17-.09-.66-.15-.73-.04-.05-.56.22-.95.12-.44-.11-.65-.67-.81-.75-3.11-1.64-5.78-3.12-8.43-5.43-.5-.44-.99-1.37-1.64-1.85-.28-.21-.81-.21-.84-.24-.05-.05.3-.38.12-.71-.12-.22-.45-.02-.54-.09-.78-.66-1.56-1.93-2.05-2.48ZM23.49,23.03c-.63-.12-.42.11-.58.48-3.61,8.29-8.44,13.32-14.63,19.71-.25.26-1.91,2.11-1.76,2.31.37.48,1.36.07,1.79-.24,1.22-.87,3.9-3.85,5.05-5.11,3.28-3.58,7.35-8.77,9.05-13.32.46-1.24.46-2.63,1.08-3.83ZM24.92,23.74s.26.17.36.23c.13-.8-1-.16-1.2.25-.28.58-.33,2.21-.58,2.99-1.38,4.31-2.92,7.2-5.28,10.84-.94,1.45-.68,1.8-2.12,2.71-.04.02.19.41-.14.92-.99,1.49-2.68,2.84-3.71,4.32,8.78.55,14.69,6.86,18.97,13.92,1.42,2.35,2.92,5.06,4.2,7.53.31.6.19,1.5.98,1.77.01-6.25-.88-12.98,1.47-18.95.97-2.46,3.83-6.56,5.84-8.33,1.19-1.05,2.85-1.81,3.95-2.75,1.16-.99.14-.72-.42-1.04-4.38-2.48-9.34-5.75-13.29-8.21-2.93-1.83-5.63-3.75-8.4-5.63-.2-.14-1.07-.07-.62-.57ZM34.84,25.9v.24l.12-.12-.12-.12ZM35.68,26.61c.17-.34-.15-.64-.23-.48-.17.34.15.64.23.48ZM40.34,26.62v.24l.12-.12-.12-.12ZM44.52,29.97c-.85-1.19-2.36-1.68-2.51-1.9-.06-.1.11-.39.06-.45-.21-.24-2.31-1.42-.83,0,.84.81,1.84,1.43,2.63,2.28.18.17.54.01.65.07.51.72.58.73,1.45,1.3,1.22.79,2.68,1.53,4.04,2.05l-3.17-1.9c-.45-.94-1.46-.99-2.33-1.44ZM36.99,28.05v.24l.12-.12-.12-.12ZM20.74,31.4v.24l.12-.12-.12-.12ZM20.62,32.6c-.34-.17-.64.15-.48.23.34.17.64-.15.48-.23ZM20.14,33.32c-.33-.31-.63.39-.76.56-1.65,2.09-3.27,4.22-4.63,6.14l-5.85,5.75,2.33-.17c1.28-.74,9.46-11.75,8.9-12.27ZM55.16,37.39v.24l.12-.12-.12-.12ZM53.96,37.63v.24l.12-.12-.12-.12ZM54.8,37.63c-.34-.17-.64.15-.48.23.34.17.64-.15.48-.23ZM52.41,38.59s-.89-.3-.95-.24c-.62.59,1.63,1.08.95.24ZM52.77,38.59v.24l.12-.12-.12-.12ZM49.54,39.55c-.81-.16-.21.9-1.08.24-.48.9.92.44,1.08-.24ZM49.9,39.54v.24l.12-.12-.12-.12ZM47.75,40.5v.24l.12-.12-.12-.12ZM39.98,75.93c-1.28-10.59.45-20.97,6.4-29.86,1.29-1.93,2.91-3.66,4.24-5.57-.43.33-1.03.21-1.51.4-6.5,2.59-9.5,12.84-10.7,19.45-.92,5.06-.36,9.13.66,14.2l.9,1.37ZM4.84,44.57c-.49.1-1.25.19-1.43.71.39-.06,1.3-.31,1.43-.71ZM6.16,45.05v.24l.12-.12-.12-.12ZM1.62,47.21c-.54.36-.3.69,0,.23.08-.12.19-.13,0-.23ZM9.14,47.44c-.06-.06-1.65-.24-1.75-.2s-1.62,1.39-1.59,1.52c.11.49,1.32.41,1.73.3.29-.08,1.9-1.34,1.61-1.61ZM40.94,47.68c-.73,1.92-1.95,3.68-2.61,5.64s-.78,4.07-.86,6.08c.74-2.28,1.22-4.61,1.96-6.89.43-1.32,1.31-2.84,1.7-4.05.07-.21.22-.86-.19-.79ZM10.76,48.01c-.78-.25-.59.72-1.26.16.37.52-.97.75-.36,1.07.86.46,3.24.47,4.3.83l-2.69-2.07ZM17.03,48.88c-1.12.31-2.33-.36-3.36-.6-.3-.07-.41.09-.46.35,1.32.25,2.28,1.61,3.26,2.35,1.55,1.18,3.51,2.23,4.99,3.39,6.05,4.78,10.42,12.83,13.9,19.47.25.48.27,1.53.8,1.83-.45-2.59-1.57-5.14-2.58-7.59-2.89-7.03-7.87-16.3-15.21-18.55-.66-.2-1.96.11-1.33-.67ZM42.85,81.2c-.8-5.62-.97-11.4-.4-17.04.2-2.02.55-4.76.94-6.72.56-2.82,1.75-5.5,2.33-8.32-.5-.05-.11.77-.24.96-.02.03-.46-.26-.47-.24-.03.03-.06.6-.19.89-3.86,8.09-5.04,16.98-4,26.04.22,1.94.62,2.99,2.03,4.43ZM13.81,49.6v.24l.12-.12-.12-.12ZM1.25,51.51c.58.59,3.99-.59,4.54-1.32-.88.32-3.77-.26-4.31.46-.16.21-.36.73-.23.86ZM13.81,50.08v.24l.12-.12-.12-.12ZM37.47,75.21v.24l.12-.12-.12-.12ZM37.83,75.93s-.51-.09-.48.12c.37.65.75.16.48-.12ZM38.3,78.8l-.35-1.67c-.69.56-.36,1.38.35,1.67ZM39.86,78.8v.24l.12-.12-.12-.12ZM39.86,79.28v.24l.12-.12-.12-.12ZM39.74,81.91c.8-.28.15-1.1.23-1.67-.53.12-.11,1.27-.23,1.67ZM38.78,82.15c.17-.37-.12-.97-.23-.72-.17.37.12.97.23.72ZM40.1,82.39v.24l.12-.12-.12-.12Z"/>
        <path d="M33.53,24.46s-.16,0-.24,0c-.04-.16.12-.3.24-.24.04.02-.04.19,0,.24Z"/>
        <path d="M45,55.58s-.01-.24,0-.24c.55-.1,0,.21,0,.24Z"/>
        <path d="M57.67,38.59s-.01-.24,0-.24c.54-.1.02.22,0,.24Z"/>
        <path d="M27.07.52c-.08.16-.41-.14-.23-.48.08-.16.41.14.23.48Z"/>
      </g>
    </g>
  </g>
</svg>