<?xml version="1.0" encoding="UTF-8"?>
<svg id="Layer_2" data-name="Layer 2" xmlns="http://www.w3.org/2000/svg" viewBox="0 0 100 85.95">
  <defs>
    <style>
      .cls-1 {
        fill: #fff;
      }
    </style>
  </defs>
  <g id="Sketchy_Icons" data-name="Sketchy Icons">
    <g>
      <g>
        <path class="cls-1" d="M13.79,51.14s.24-.01.25,0c.1.56-.22.02-.25,0Z"/>
        <path class="cls-1" d="M30.48,27.33c-.58.13-.66,1.41-.74,1.47-.19.15-.29-.93-.85.98-.38,1.31-.55,3.19-.37,4.54.28,2.14,5.17,9.44,6.72,11.32.44.54,4.29,4.49,4.59,4.62.87.37,3.27.08,4.71.45.6.15,3.63,1.52,3.63,2.01,0,1.51-4.07.06-4.8.59l-.34-.47c-.02.69.84.96.94,1.65.05.33-.27.99-.2,1.05.09.07,1.84-.04,2.21.5.07.11-.88,1.34-.98,1.21-.05-.06.06-.37-.03-.45-.07-.06-1.37.11-1.77.1-.88-.03-2.28-.16-3.08.16-1.95.78-5.75,2.71-7.63,4.02-.32.22-.43.81-.76.98-.27.14-.69-.15-.72-.13-.05.04-.09.64-.33.91s-.81.35-1.08.64c-1.22,1.31-5.78,8.02-6.44,9.64-1.15,2.81-.38,6.67-1.13,9.67-.1.41-.97,2.51-1.22,2.73-.47.4-.7-.28-1.23-.28-.07,0-.98,1.31-1.11.37s.87-3.35.49-3.79c-.11-.13-1.72,1-1.97-.85-.39-2.86,1.56-4.61,1.95-6.9.72-4.18-.75-13.73-3.06-17.27-.18-.28-.71-.44-1.05-.91-.38-.51-.72-1.4-.77-2.05l-.49.49c.18-.86-.53-.81-1-1.34-.2-.23-.16-.69-.27-.82-.03-.04-.37.14-.57-.03-.34-.29-1.3-1.4-1.39-1.45-.12-.06-.82.35-.95.21-.05-.06.1-.57-.03-.69-.12-.11-.63-.02-.93-.18-.75-.39-2.97-1.56-3.33-1.55-.15,0-.49.3-.62.22-.35-.23.05-1.18,0-1.22-.04-.04-.75-.06-1.07-.24-.18-.1-.13-.85-.63-.47-.04.03.04.43-.16.47-.17.03-.61-.21-.95-.17-.38.04-.9.39-1.11.3-.3-.13-.65-.82-.47-1.1.11-.18,3.26-1.31,3.89-1.64,6.26-3.21,13.27-8.64,17.46-13.96.95-1.21,2.91-4.84,3.64-5.26.13-.07.96-.52.77.09-2.06,2.91-1.64,4.16-1.22,7.37.17,1.28.62-.29.73-.44.14-.19.46-.2.57-.47.77-1.94-.19-4.77.23-6.88.17-.89.66-2.22,1.29-2.88.12,1.15-1.06,5.37-.37,6.13.09.09,1.91-1.28,2.05-1.49.34-.52.59-1.74,1.02-1.94.66-.32.53,1.23.12,1.47,1.23-.26,1.99.41.49.98.19-.59-.38-.77-.25,0ZM23.11,30.03c-.2-.24-1.1.79-1.23.93-1.64,1.89-2.96,3.57-4.7,5.3-1.06,1.06-1.62,1.17-2.3,2.11-.77,1.06-7.24,5.14-8.78,5.96l-3.37,1.77,4.77.61c.43-.08.27-.84.13-.97-.05-.05-.63.72-.72-.64-.02-.38-.1-.67.23-.95.45-.38,5.16-1.18,6.27-1.58,2.33-.84,3.96-2.27,6.07-3.43l4.35-4.6c.23-.74-.43-1.34-.49-1.92-.09-.86-.11-.78-.19-1.21-.04-.21.14-1.11-.06-1.35ZM26.55,33.71c-1.16.35-1.36,1.12-1.16,2.27.71,4.15,4.27,10.53,7.14,13.35.52.51,3.73,3.35,4.33,2.78.66-.62-1.49-1.87-1.57-1.97-1.2-1.4-3.05-3.91-3.94-5.41-.11-.18-.57-1.63-.63-1.7-.02-.03-.44.26-.48.24l-3.7-9.56ZM24.59,36.66c-.18-.16-.46.11-.62.24-.6.49-2.12,2.54-2.83,3.32-.18.19.02.55-.03.58-2.67,2.02-5.83,4.9-9.1,6-.27.09-.66-.11-.67-.08-.5.92,1.34,1.34,1.84,1.71,5.21,3.9,6.89,9.51,8.15,15.66.29,1.39.29,3.05.56,4.47l2.25-4.5c1.85-3.79,5.37-5.32,8.32-7.64.28-.22,2.63-3.03,2.67-3.24.06-.32-1.21-1.43-1.52-1.7-1.64-1.45-3.13-2.45-4.6-4.65-.39-.57,0-1.11-.73-.61-.41-1.93-1.73-3.51-2.51-5.48-.28-.7-1.02-3.95-1.18-4.1ZM20.05,40.1c-.55.37-.3.7,0,.24.08-.12.2-.13,0-.24ZM19.18,41.32c.18-.34-.16-.65-.24-.49-.18.34.16.65.24.49ZM18.57,41.57v.25l.12-.12-.12-.12ZM14.77,43.28c.28-.28-.11-.79-.49-.12-.03.21.47.14.49.12ZM14.03,43.29c-.59.2-6.27,1.3-6.14,1.59.16.35,1.12,1.09,1.55,1.05.78-.07,3.93-1.92,4.58-2.64ZM33.79,47.46v.25l.12-.12-.12-.12ZM13.79,51.14c-.6-.41-1.42-1.31-2.21-1.11,1.36,1.75,3.93,3.22,4.97,5.12.15.27-.19.68.07.66.48-.04.61-.07.37-.62-.15-.34-.39-.88-.55-1.18-.35-.65-1.82-2.5-2.4-2.87-.02-.01-.35-.56-.25,0ZM41.41,50.89v.25l.12-.12-.12-.12ZM45.21,51.88c-.06-.05-1.2-.13-1.59-.25-.26-.08-.83-.53-.86-.48-.59.82,1.75,1.21,2.21,1.15s.46-.22.24-.41ZM42.14,51.38v.25l.12-.12-.12-.12ZM38.14,53.29c-.14-.09-.15-.59-.44-.66-.06-.02-.81.19-.84.23-.06.08.89,1.79.97,1.86.47.34,1.41-.25,1.97-.14-.29-.34-.98-1.18-1.28-1.4-.06-.05-.32.17-.39.12ZM41.65,53.1v.25l.12-.12-.12-.12ZM36.29,54.17c-.11-.1-.58-.37-.64-.33-.1.07-1.31,1.87-1.24,1.96.98-.65,3.38-.31,1.88-1.63ZM41.53,54.09c-.34-.18-.66.15-.49.24.34.18.66-.15.49-.24ZM41.28,55.8c-1.69-.03-3.39-.25-3.93,1.71l3.93-1.71ZM36.86,56.29c-.37-.09-4.72,1.15-3.93,1.96l3.93-1.96ZM36.25,57.76v.25l.12-.12-.12-.12ZM35.51,58.01v.25l.12-.12-.12-.12ZM35.14,58.26c-.61.09-1.23.46-1.79.74-.16.08-.18.43-.21.44-.37.14-.78-.19-1.66.68.07.41-1.28,1.3-1,1.57.2.2,1.17-1.05,1.3-1.15.98-.7,1.45-.89,2.45-1.74.49-.41,1.05.32.91-.55ZM31.22,58.5l-2.45,2.21c.44.02,2.75-1.92,2.45-2.21ZM27.42,64.52c.61-.85,1.59-1.71,1.59-2.83-1.91,1.47-3.28,3.58-3.92,5.89l2.33-3.06ZM25.94,62.67v.25l.12-.12-.12-.12ZM25.69,63.16v.25l.12-.12-.12-.12ZM25.57,64.14c.28-.28-.11-.79-.49-.12-.03.21.47.14.49.12ZM23.97,66.11v.25l.12-.12-.12-.12ZM22.62,71.51l.98-2.94-1.34,1.93.36,1.01ZM18.21,80.34c.7-.26.47-1.15.49-1.72-.46.18-.36,1.3-.49,1.72ZM21.27,80.1v.25l.12-.12-.12-.12Z"/>
        <path class="cls-1" d="M30.48,27.33s.24.02.25,0c-.03,0-.39.56-.25,0Z"/>
        <path class="cls-1" d="M28.02,21.69c-.09.17-.42-.14-.24-.49.09-.17.42.14.24.49Z"/>
        <polygon class="cls-1" points="27.41 21.69 27.53 21.81 27.41 21.93 27.41 21.69"/>
      </g>
      <path class="cls-1" d="M78.36.09c-1.44,1.38-.35.94.98,1.1-.92.95-1.4-.14-1.63,1.68-.44,3.5,3.9,9.29,4.72,12.68.43,1.79-.26,2.34-.83,3.63-.22.51-.07,1.08-.42,1.5-.57.67-1.9,1.06-2.58,1.61-2.11,1.67-5.48,6.34-6.38,8.84-.25.69-.61,4.22-1.82,2.33-.53-.84.01-4.25-.14-4.41-.57-.59-.46.7-.5.73-.18.15-1.09.03-1.2-.39-.12-.46.24-2.96.17-3.65-.03-.26-.39-1.54-.45-1.59-.04-.03-.44.27-.47.24-.05-.05-.27-1.29-.54-1.43-.09-.05-.41.25-.69.08-.59-.34-1.48-1.05-2.23-1.51-.16-.1-.68-1.5-.6-.1-.37-.59-3.65-1.1-3.78-1.26-1.34-1.72,2.53-1.79,2.92-2.91l-4.03-.24c-2.67-1.99,2.02-1.06,2.94-1.12.47-.03,3.07-1.32,2.81-1.58-.59.15-.91-.45-1.23-.58-.84-.32-.94-.1-1.89-.65-.44-.25-1.56-.22-1.06-.87.65-.85,4.22-.87,5.41-1.22,2.33-.68,5.2-2.31,6.54-4.36.04-.06.52-.99.65-1.23.88-1.68.69-3.31,2.87-4.11.1.11-.09,2.24.49,1.47.31-.41-.23-3.34,1.96-2.7ZM74.55,4.02v.25l.12-.12-.12-.12ZM76.39,4.75c.18-.34-.16-.65-.24-.49-.18.34.16.65.24.49ZM76.27,5v.25l.12-.12-.12-.12ZM77.23,13.99c-1.04-2.81-1.27-5.49-2.08-8.11-.44-1.42-.96.47-1.49,1.17-1.25,1.66-2.58,3.46-3.89,5.12-.35.44-2.39,2.39-2.44,2.57-.12.44,1,1.67,1.28,2.29.65,1.45,1.01,3.38,1.65,4.91,1.02-.62,1.4-1.87,2.27-2.63.06-.05.31.16.38.11.77-.55.85-.97,2.13-1.42,2.76-.98,4.1.17,2.63-3.57-.14-.35-.42-.4-.43-.43ZM76.52,5.49v.25l.12-.12-.12-.12ZM77.86,7.45c-.34-.18-.66.15-.49.24.34.18.66-.15.49-.24ZM80.38,17.94c1.06,1.34,1.32-2.17.82-2.9l-3.45-7.1c.17,2.28.74,5.2,1.47,7.37.1.3,1.08,2.51,1.17,2.63ZM64.67,13.74c1.2.32,4.59-2.43,4.6-2.98,0-.04-.49-.61-.48-.2-.25.27-1.11.69-1.41.77-.88.25-.93.4-1.19.48-.23.07-1.7.36-2.06.42-.17.03-2.42-.2-1.97.36.07.09,1.92.66,2.26.77.19.07.22.36.26.37ZM65.1,15.8c.18-.34-.16-.65-.24-.49-.18.34.16.65.24.49ZM63.38,16.53c.33.29,1.28-.37.98-.73-.05-.06-1.42.34-.98.73ZM66.79,15.83c-.79-.52-2.03,1.34-1.94,1.44.13.13,2.59.42,2.94,1.23.3-1.39-.24-1.27-.75-1.89-.15-.19-.14-.69-.26-.77ZM68.53,23.16c.16-1.24-.04-3.32-1.24-4.04-.2-.12-2.89-1.25-3.06-1.25s-2.72,1.25-2.82,1.37c-.37.43.11.41.34.51,2.37,1.07,4.71,1.44,6.77,3.41ZM75.8,22.81c.54-.57,1-1.19,1.57-1.74.71-.68,3.56-2.14,1.89-2.89-.95-.42-5.1,1.24-6,1.95-.65.51-2.13,2.39-2.26,3.17-.04.26.01,3.88.1,4.16.43,1.37.63.11.86-.19,1.09-1.44,2.58-3.13,3.83-4.45ZM80.56,20.46s.09-.52-.12-.49c-.67.38-.16.77.12.49ZM79.34,20.95c.18-.34-.16-.65-.24-.49-.18.34.16.65.24.49ZM69.89,27.58v.25l.12-.12-.12-.12ZM70.01,28.8c.18-.34-.16-.65-.24-.49-.18.34.16.65.24.49Z"/>
      <g>
        <path class="cls-1" d="M90.39,29.79c-.18.33-.84,2.38-.74,2.45.05.04,1.18.05,1.22,0,.12-.19-.24-1.12.51-.6-1.62,1.91-2.01,2.55-1.41,5.08s5.82,10.14,8.3,11.09c.36.14,1.58.04,1.69.15.06.06.1.83-.14,1-.41.29-3.46.15-4.27.96,1.14,1.65,1.85,3.43,4.18,3.3.7.23-.23,1.34-.42,1.36-.59.05-1.64-.58-2.16-.62-.87-.07-3.98.83-4.76,1.25-1.48.8-3.1,3.55-3.75,5.09-2,4.71-1.8,10.13-2.05,15.15-1.19,1.25-1.14-.07-1.71-.99-.89.68-.08,1.51-.9,2.56-.19.25-.91.43-.94.38-.09-.14-.09-1.34-.31-1.8-.26-.55-.73-.27-.9-1.54-.57-4.35-.09-8.65-2.34-12.65-.14-.25-.12-.68-.15-.71-.06-.05-.5.33-.69.22-.07-.04-.79-1.11-1.04-1.3-1.06-.81-3.71-1.93-5.11-2.46-.89-.33-5.3-1.13-5.13-2.23.08-.57,4.33-2.28,4.6-2.96.37-.92-.39-.39-.81-.44-.45-.05-2.11-.69-1.63-1.38.11-.16,3.05-1.15,3.6-1.43,5.86-3.06,12.25-8.6,13.06-15.42.06-.52-.26-3.59.97-2.72.12.08-.11.54.29.42-.1-.76.32-.24.45-.31.03-.02.13-.91.54-.42.06.07-.63,1.69.37,1.47.52-.12.58-2.15,1.6-1.96ZM88.67,32.73c-.27-.27-.76.22-.49.49s.76-.22.49-.49ZM88.3,33.71v.25l.12-.12-.12-.12ZM89.98,43.69c-.35-.66-1.1-2.4-1.38-3.11-.48-1.22-.44-2.96-1.41-3.68.02.32-.09.59-.24.87-2.7,5.03-5.75,8.76-9.6,12.72-.57.58-1.13,1.17-1.7,1.75,2.34,1.03,3.76,3.36,5.13,5.43.52.79,1.83,2.47,2.16,3.11.43.83.55,2.88,1.43,3.11.13.03.68-2.31.81-2.62.78-1.9,5.85-8.88,7.24-10.29.26-.27,1.35-.85,1.35-1.19s-2.85-4.82-3.32-5.71c-.13-.25-.42-.29-.47-.39ZM94.24,45.57c-.33-.38-1.05-.38-.9-1.31l-.41.62c1.38,1.48,1.1,5.18,3.85,3.43.68-.43-.16-.29-.49-.54-.7-.52-1.54-1.62-2.05-2.21ZM77.51,47.6c.24-.27.73-.76.73-1.12-2.08,1.26-4.24,3.32-6.63,3.69-.24.86,1.43,1.02,2.02.8.24-.09,3.55-2.97,3.89-3.36ZM93.09,53.34c.66-.25,1.95-.1,2.46-.36s-.72-1.22-.5-1.6l-1.96,1.96ZM76.29,53.69c-1.56-.89-1.93-1.17-3.34.39,1.84-.37,3.2.93,4.91,1.23-.42-.22-.55-1.13-.61-1.16-.18-.1-.52-.2-.96-.45ZM91.12,54.57s.53-1,.62-1.22c-.65.19-1.05,1.63-.62,1.22ZM70.46,54.6c-.09-.06-2.09.08-1.44.58s5.18,1.58,6.44,2.15,2.73,1.42,3.62,2.39c-.91-3.01-3.63-4.24-6.55-4.63-.42-.06-1.52.2-1.68.13-.32-.14-.29-.56-.4-.62ZM87.07,59.73c-.55.37-.3.7,0,.24.08-.12.2-.13,0-.24ZM85.23,66.84c.23-.21.98-5.35,1.47-6.13l-1.6,3.67c-.08.26-.75,3.27.13,2.46ZM82.69,62.48c-.05-.09-.41-.15-.5-.31-.23-.42-.23-1.12-.64-1.21-.2.42.97,2.76,1.22,2.45.03-.04-.06-.89-.08-.93ZM82.65,61.94v.25l.12-.12-.12-.12ZM83.14,64.15v.25l.12-.12-.12-.12ZM82.41,65.13c-.55.37-.3.7,0,.24.08-.12.2-.13,0-.24ZM83.02,65.87c-.21.03-.65-.06-.74,0-.12.08.51,2.51.49,2.94,1.1-.62-.11-2.04.24-2.94ZM84,73.96c-.56-1.42.63-2.59.24-4.17-.93.65-.83,2.53-.73,3.56.04.48-.21.71.49.61ZM84.86,73.96v.25l.12-.12-.12-.12Z"/>
        <polygon class="cls-1" points="88.3 29.79 88.42 29.91 88.3 30.03 88.3 29.79"/>
      </g>
    </g>
  </g>
</svg>