<?xml version="1.0" encoding="UTF-8"?>
<svg id="Layer_3" data-name="Layer 3" xmlns="http://www.w3.org/2000/svg" viewBox="0 0 79.49 97.64">
  <g id="Sparkles">
    <g id="Layer_26_Image" data-name="Layer 26 Image">
      <g>
        <path d="M35.94.85s.1.71-.12.72c-.71-.4-.21-1.08.12-.72Z"/>
        <path d="M40.97,2.76c.03-.24-.11-.2-.24-.24.14-.13.19-.49.48-.48.16.37-.22.6-.24.72Z"/>
        <path d="M22.07,54c-.97-.37-.68-.65-1-.89-.11-.08-1.34-.08-1.62-.2-.14-.06-.21-.48-.29-.52-3.94-1.65-12.28-2.89-15.12-5.12-.19-.15-.32-.68-.5-.69-.07,0-.26.38-.61.36-.74-.04-1.16-.68-1.66-.94-.17-.09-.5.06-.7-.05-.91-.48-.09-.82-.01-1.19.02-.09-.79-.05-.45-.92.24-.6,1.83-.76,2.52-1.07,2.94-1.34,5.35-3.41,7.89-5.27,8.9-6.51,19.73-14.72,24.06-25.02,1.38-3.27-1.09-6.93.79-10.22.38-.55.33.55.32.61-.15,2.07-.5,4.08.28,6.09.74-.26-.11-.89.66-1.07l1.02-4.19.84,1.44c.09-1.04-.23-.89.32-1.64.1-.13,0-.45.03-.51.02-.03.44.26.47.24.22-.17,0-2.28.37-2.86.69-1.07.51.48.6.82.07.3.4.63.39.73,0,.21-.51.45-.4.59.04.05.35-.04.48,0-.29.28-.76.21-.24.6.25.19.46-.21.48-.36-.2,1.51-.07,2.79,0,4.31l.95-1.67v3.47c0,5.97,7.32,15.8,11.72,19.64,6.56,5.73,16.93,7.73,24.38,11.76.8.43,1.97,1,1.21,2.01-.06.09-1.74-.38-2.14,0-.05.05.45.69.13,1.2-.26.41-1.5.43-1.8,1.07.6.7.94.61,1.67.96-.5,1.67-1,.89-1.56.94-3.87.35-9.88,1.57-13.22,4.12-3.03,2.32-6.62,6.73-8.91,9.78-4.42,5.9-7.11,14.07-9.4,21.48-.45,1.47-1.64,4.58-1.8,5.88-.2,1.64.79,5.92.07,7.23-.19.34-.65.36-.77.54-.14.22-.37,1.72-.55,1.85-.12.09-.82-.57-.94-.48-.05.03,0,.52-.39.69-1.65.71-.81-2.84-1.06-3.08-.11-.11-1.07.15-1.15-.4.11-2.22.26-4.45.22-6.67-.07-4.12-.34-9.99-1.38-13.96-1.1-4.26-5.16-12.15-8.45-15.01-.15-.13-.18-.48-.28-.55-.08-.05-.42.22-.43.19-.04-.05.07-.44-.07-.64s-1.76-1.27-2.14-1.53c-.27-.18-.12-.75-.79-.23.03-.74-1.07-.99-1.79-1.67-.06-.06-.33-.53-.24,0ZM37.62,5.87c.17-.34-.15-.64-.23-.48-.17.34.15.64.23.48ZM37.98,5.87v.24l.12-.12-.12-.12ZM37.86,6.59c-.34-.17-.64.15-.48.23.34.17.64-.15.48-.23ZM37.74,7.07v.24l.12-.12-.12-.12ZM41.21,8.03s.17-.59.12-.71c-.57.28-.32.96-.12.71ZM39.89,7.79v.24l.12-.12-.12-.12ZM37.38,12.58l.84-4.54c-.4,1.1-1.74,3.16-1.35,4.2.09.23.18.78.51.34ZM41.09,8.27v.24l.12-.12-.12-.12ZM40.01,8.75c-.34-.17-.64.15-.48.23.34.17.64-.15.48-.23ZM40.25,9.23c-.95-.15-.56,1.56-.46,2s.57,2.14,1.18,2.07c.1-.4-.39-.13-.45-.35-.04-.13.35-1.12.21-1.33-.02-.02-.45.27-.48.24-.09-.1.15-2.24,0-2.63ZM39.53,12.58c-.06-.03-.68-.02-.71,0-.08.07-.62,1.91-.62,2.03,0,.39.31.96.48,1.33,1.05,2.23,4.13,5.36,6.06,6.93.91.74,1.83,1.46,2.92,1.92l-2.15-2.27c-1.79-3.19-4.99-6.18-6.07-9.45-.07-.21.11-.48.09-.49ZM35.82,13.06v.24l.12-.12-.12-.12ZM36.15,13.57c-.16-.1-.46-.02-.68-.03-.39.9-.88,2.27-1.35,3.08-6.81,11.94-15.65,17.65-26.24,25.54-.44.33-1.8.64-2.09,1.54.44-.08.93.22,1.32.2,1.01-.05,7.72-4.13,9.02-4.99,6.54-4.28,14.63-11.17,18.22-18.22.52-1.02,2.18-4.72,2.26-5.66.02-.29-.35-1.39-.46-1.46ZM38.06,16.93c-.17-.11-.45-.04-.66-.03-1.2,2.96-2.73,5.82-4.57,8.43-3.04,4.32-8,8.86-12.21,12.02-.58.43-1.8.81-1.87.88-.11.1.04.52-.04.66-.02.03-.35-.15-.58.01-1.24.89-2.5,1.76-3.68,2.55-.53.35-4.1,2.61-4.09,2.86s3.89,1.54,4.6,1.86c9.14,4.17,13.25,7.23,18.75,15.6,3.85,5.87,5.16,10.02,7.16,16.67.07.23.04.54.35.47,1.17-3.06,2.26-6.16,3.62-9.14,4.56-10.01,11.42-20.57,21.49-25.46.42-.2,2.88-1.01,2.88-1.18,0-.04-.32-.35-.24-.6-.42-.12-.12.58-.35.48-.2-.09-1.35-1.16-1.76-1.41-6.16-3.65-9.7-8.05-14.89-12.07-4.05-3.14-8.76-5.85-11.94-9.61-.42-.5-1.81-2.87-1.96-2.97ZM28.41,23.59v.24l.12-.12-.12-.12ZM26.85,25.27c.4-.06.62-.64.47-.96-.12-.25-.57.64-.47.96ZM48.03,25.03v.24l.12-.12-.12-.12ZM24.22,27.66c.28.14.55-.15.71-.36-.24-.1-.94.24-.71.36ZM23.31,28.43s-.29.57-.17.66l.83-.84c-.09-.11-.64.15-.66.17ZM22.78,29.1c-.39-.32-.66.3-.48.71.12.26.51-.68.48-.71ZM22.07,29.82c-.4-.32-1.35.96-.6.95.13,0,.64-.92.6-.95ZM21.11,30.78c-1.12,0-1.76,1.3-2.4,1.78-.22.17-3.35,2.05-3.11,2.28.03.03.54.03.67.19l4.84-4.26ZM59.15,33.41c.17-.34-.15-.64-.23-.48-.17.34.15.64.23.48ZM67.24,36.83c-.11-.05-.4.15-.64.04l-6.85-3.46c-.18-.04-.16.25-.12.35.55,1.21,7.86,4.98,9.41,5.67,2.53,1.14,5.22,2.57,8.06,1.87-.95-1.06-2.23-1.07-3.47-1.57-2.13-.85-4.41-2.04-6.39-2.91ZM15.6,35.09c-.31-.24-1.1.4-1.2.71.61.42,1.36-.58,1.2-.71ZM12.98,37.24c.07.08,1.14-.8.95-1.2-.21.12-1.14.99-.95,1.2ZM12.02,37.96c.1.12.67-.47.47-.72-.1-.12-.67.47-.47.72ZM11.66,37.72c-.18.27-.85.59-.72.95.18-.27.84-.58.72-.95ZM9.98,39.15v.24l.12-.12-.12-.12ZM6.99,41.31c.54-.03,1.03-.51,1.43-.84-.4.07-1.27.44-1.43.84ZM69.09,40.59v.24l.12-.12-.12-.12ZM69.68,41.31c1.12.22,1.9,1.11,3.11.84-.47-.15-2.33-1.25-2.55-1.28-.29-.04-.5.17-.56.44ZM6.63,41.55v.24l.12-.12-.12-.12ZM6.27,41.79c-.26-.26-.74.22-.48.48s.74-.22.48-.48ZM5.31,42.51c-.24-.11-1.15.35-1.19.71.33.06,1.4-.62,1.19-.71ZM3.76,43.23v.24l.12-.12-.12-.12ZM66.45,46.45c.64-.41,3-1.47,3.24-1.91.05-.09.06-.39-.12-.36-.28.45-.76.36-1.13.51-.28.11-.85.56-1.08.69-1.37.75-2.74,1.5-4.06,2.32l-1.51,1.52c.59-.04.87-.56,1.43-.84,1.43-.71,1.92-1.08,3.23-1.92ZM70.64,44.19c-.37-.17-.97.12-.72.23.37.17.97-.12.72-.23ZM75.19,44.66c.17-.34-.15-.64-.23-.48-.17.34.15.64.23.48ZM1.61,44.42v.24l.12-.12-.12-.12ZM4.83,45.14c-.04-1.22-.99-.27-1.67-.24.76.93,1.23-.24,1.31-.25.27,0-.08.59.36.48ZM5.2,44.42v.24l.12-.12-.12-.12ZM1.25,44.66c-.34-.17-.64.15-.48.23.34.17.64-.15.48-.23ZM73.75,45.14c-1.6-.86-3.64,0-4.78,1.19,1.48-.26,3.61-.26,4.78-1.19ZM11.3,45.86c-.31-.33-3.59-1.15-3.58-.36,0,.18,3.03.74,3.47.83.19.04.15-.44.11-.47ZM12.02,46.34l-.48-.48c-.07.5-.02.55.48.48ZM12.85,46.34v.24l.12-.12-.12-.12ZM68.49,46.34c-.34-.17-.64.15-.48.23.34.17.64-.15.48-.23ZM11.25,47.59c-.15-.05-.56.22-.96.14-1.49-.28-3.28-.53-4.62-1.15-.31.14-.1.45.13.58,2.19,1.31,7.24,2.09,9.93,3s5.25,2,7.76,3.24c-.38-.91-.95-.75-1.52-1.11-2.39-1.51-4.87-2.71-7.81-3.69-.9-.3-.83-.47-1.11-.57-.36-.13-.94.21-1.57-.03-.17-.07-.2-.4-.23-.41ZM58.8,52.56v.24l.12-.12-.12-.12ZM57.48,54c.11.14.75-.7.6-.95-.22.2-.81.68-.6.95ZM56.77,54.72c.1.12.67-.47.47-.72-.1-.12-.67.47-.47.72ZM56.4,54.96v.24l.12-.12-.12-.12ZM55.69,55.68v.24l.12-.12-.12-.12ZM55.21,56.4c-.54.36-.3.69,0,.23.08-.12.19-.13,0-.23ZM53.77,58.31v.24l.12-.12-.12-.12ZM31.28,60.23v.24l.12-.12-.12-.12ZM36.06,67.89v.24l.12-.12-.12-.12ZM36.06,68.37v.24l.12-.12-.12-.12ZM40.25,80.82c-.8-4.08-1.85-8.31-3.95-11.97,1.26,3.66,2.09,7.54,3.44,11.16.11.3.05.73.5.81ZM46.12,72.2c-.54.36-.3.69,0,.23.08-.12.19-.13,0-.23ZM42.4,84.17c.69-3.78,2.42-7.27,3.24-11.01-.42.26-.25.77-.44,1.12-.06.1-.35.12-.47.38-.98,2.08-1.96,5.26-2.54,7.31-.16.55-.53,1.99.22,2.21ZM40.25,81.77s.16-.58.12-.71l-.6.59c-.03.21.46.13.48.12ZM39.77,88c.17-.34-.15-.64-.23-.48-.17.34.15.64.23.48ZM39.65,89.2v.24l.12-.12-.12-.12ZM39.77,90.63c.17-.34-.15-.64-.23-.48-.17.34.15.64.23.48Z"/>
        <path d="M22.07,54s.24-.01.24,0c.1.55-.21,0-.24,0Z"/>
        <path d="M38.58,3.48l-.72-.12c.32-.45.51-.41.72.12Z"/>
        <path d="M42.16,5.15c-.12.26-.4-.35-.23-.72.12-.26.4.35.23.72Z"/>
        <polygon points="35.82 .37 35.94 .49 35.82 .61 35.82 .37"/>
        <polygon points="41.57 .84 41.69 .96 41.57 1.08 41.57 .84"/>
      </g>
    </g>
  </g>
</svg>