<?xml version="1.0" encoding="UTF-8"?>
<svg id="Layer_3" data-name="Layer 3" xmlns="http://www.w3.org/2000/svg" viewBox="0 0 61.96 90.39">
  <g id="Sparkles">
    <g id="Layer_22_Image" data-name="Layer 22 Image">
      <g>
        <path d="M35.85.15c.06.06-.27,1.4-.24,1.67.65-.07.65-1.6.72-1.68.47-.53.32.6.83.48.05-.01.4-1.03.6-.11.11.51-.86,1.26-.12,1.78l.35-.96c.09,1.18-.28,2.31-.34,3.47-.1,2.08-.07,3.51-.32,5.56-.52,4.4,2.97,9.29,5.19,12.93,3.38,5.53,8.37,13.49,13.56,17.25,1.63,1.18,3.6,2.12,5.43,2.94,1.29,1.44-.62,1.19-1.29,2.01.49.31,2.18.26,1.43,1.21-.68.87-2.22-.03-2.39.1-.26.22,1.07,1.13,1.19,1.81.08.48-.18,1.97-.5,2.23-.04.03-.33-.22-.4-.16-.61.45-1.57,1.54-2.27,2.03-.23.16-.69.04-1.03.29-.95.71-.36.25-1.05.61-1.32.68-6.53,7.91-7.52,9.49-1.65,2.62-5.61,9.54-5.65,12.31-.05,3.24.99,7.32.45,10.7-.13.79-.97,1.57-1.62,1.15-.02-.01.2-.35.12-.41-.04-.03-.4.1-.49-.04-.31-.53.26-1.41-.59-1.22-.14.71.26,4.6-.6,4.77-1.29.26-.66-3.75-.69-4.61-.34-11.36-2.6-21.88-7.97-31.94-.17-.32-.66-.46-.81-.88-.13-.38.05-.82.02-.85-.07-.06-.5.11-.73-.15-.17-.2-.77-1.72-.97-1.96-.06-.07-.95-.88-1.25-1.16-.99-.92-4.36-3.1-5.57-3.36-.26-.06-.68.25-.8.17-.05-.03.26-.45.24-.47-.04-.04-1.02-.46-1.08-.48-.24-.07.39.69-.23.47-3.75-1.33-11.64-1.61-15.72-1.37-.81.05-4.98,1.62-3.39-1,2.57-4.23,10.19-3.94,13.55-6.25,8.12-5.59,16.91-16.23,19-25.8.32-1.45.29-3.53.69-4.86.29-.95,1.15-2.2,1.43-3.31.06-.23.09-3.23.82-2.41ZM36.93,1.58v.24l.12-.12-.12-.12ZM36.56,2.3c-.74-.12-.37.21-.48.59-.51,1.8-.83,3.78-.36,5.62.23.9.78.88.96-.02.33-1.67-.2-4.43-.12-6.2ZM35.29,10.03c-.25-.48-.91-.26-.4-1.75-.91.49-.03,2.61.23,3.48.1.32.02.74.49.83,0-.82.09-1.81-.31-2.56ZM34.42,15.23c.85-.25.26-1.8-.24-2.15l.24,2.15ZM33.22,13.31c-.75-.13-.36.23-.47.59-2,6.53-6.24,12.41-10.99,17.02-1.45,1.41-3.47,2.78-5.01,4.31-.92.91-.49,1.06.5.55,4.75-2.45,11.55-9.68,14.3-14.27.32-.53,2.02-3.52,2.11-3.83.35-1.22-.61-3.1-.44-4.37ZM39.44,20.97c-.4-1.59-1.48-3.51-2.15-4.95-.21-.46-.26-1.31-.72-1.51-.04,1.99,1.31,3.86,2.26,5.52.4.71-.28.57.61.94.42,1.66,2.68,5.09,3.73,6.68,2.72,4.14,10.28,15.07,14.79,16.55.46.15,1.14.41,1.58.11,1.01-.67-1.46-1.18-1.78-1.35-.06-.03-.91-.9-1-.93-.08-.02-1.15-.14-1.26-.29-.55-.75-2.14-2.26-3.08-3.06-1.07-.91-.34-.3-.83-1.14-.12-.21-.86-.35-1.07-.59-1.29-1.49-2.52-3.54-3.66-5.28-1.77-2.7-4.65-6.13-6.33-9.04-.46-.8.17-1.15-1.08-1.67ZM36.52,17.65c-.13-.14-1.07-.36-1.15-.27-.05.06.09,1.38.17,1.61,1.74,4.91,5.93,9.49,8.92,13.82l2.86,2.76c-2.11-3.25-4.39-6.18-6.47-9.44-.36-.56.02-1.1-.7-.61.27-.91-.32-.86-.54-1.26-.92-1.63-1.79-3.33-2.65-4.99-.3-.58-.38-1.55-.43-1.61ZM34.18,18.34c-.39-.32-.66.3-.48.71.12.26.51-.68.48-.71ZM33.22,20.49s.28-.87.24-.95c-.2-.44-.71,1.46-.24.95ZM35,20.15c-.17-.22-.32-.56-.58-.61-.36,1.74-1.64,3.54-2.64,5.08-3.43,5.27-6.79,8.28-11.69,12.05-.24.18-1.73,1.28-1.45,1.53,2.22.62,4.89,1.3,6.85,2.49,8.34,5.04,13.56,18.93,15.57,28.1.02.09-.15,2.35.54,1.5.12-.15.61-3.33.78-3.89,2.04-6.77,5.45-15.41,11.67-19.2,1.45-.88,3.22-.69,1.65-2.35-.61-.65-1.73-1.43-2.6-2.23-1.88-1.74-3.37-3.01-5.17-4.87-.61-.63-.28-.11-.83-.96-.01-.02-.32.21-.41.16-.23-.14-1.64-2.22-1.97-2.6-3.06-3.49-6.71-7.69-8.71-11.93-.15-.32-.09-.88-.13-.95-.02-.03-.45.26-.47.24-.24-.18.04-1.07,0-1.27s-.29-.17-.37-.27ZM32.27,21.93c1.24-.54.27-1.33,0-.6-.05.14.02.41,0,.6ZM31.79,22.17s-.36.98-.36,1.19c.54-.21.7-1.57.36-1.19ZM29.16,26.48c.66-.68,1.46-1.49,1.79-2.39-.66.66-1.52,1.46-1.79,2.39ZM29.15,26.72c-.42-.37-2.43,2.5-2.82,2.87-.37.34-2.05,1.38-2.15,1.49-.15.18.02.67-.29,1.03-.15.17-3.17,2.23-3.66,2.57-.32.22-.57-.35-.56.42l-3.91,2.38c.68.29,1.2.13,1.84-.19,3.12-1.57,6.78-5,9.17-7.58.26-.28,2.52-2.87,2.38-2.99ZM47.68,32.46v.24l.12-.12-.12-.12ZM15.77,36.29c-.25-.2-.84.38-.72.47.25.2.84-.38.72-.47ZM13.85,38.92c-2.13,0-3.13,1.02-4.77,2.06-.34.21-.82.15-.86.18-.03.02-.13.61-.11.63.21.15,3.95-1.89,4.76-1.82l.98-1.05ZM14.21,38.92v.24l.12-.12-.12-.12ZM19.75,39.75c-1.12-.4-2.6-.89-3.74-.47-.84.31-2.02,1.25-2.94,1.6l-5.18,2.11c5.74-.08,11.62.11,16.7,3.03.54.31,1.83,1.14,2.3,1.51.21.17,1.57,2.12,2.03,1.68.16-.16-1.88-2.7-2.13-3.04s-.55-1.13-.99-1.62c-1.61-1.81-4-4.07-6.05-4.81ZM7.88,40.6c.62-.88-2.34.24-2.53.23-.39-.03-.69-.53-.81-.46-.02.01.05.29-.1.37-.46.29-.66.54-.95.73-.25.17-2.6,1.18-2.07,2,.09.15,2.95-1.01,3.27-1.15.44-.2,3.06-1.55,3.18-1.72ZM24.9,42c-.16-.11-.27-1.03-.77-.56.73.58,1.2,1.35,1.78,2.05,4.57,5.49,8.61,12.05,11.51,18.64.13.29.52,1.08.81,1.22-.95-4.3-2.98-8.63-5.07-12.53-.42-.79-.34-.36-.44-.53-1.18-1.95-1.76-3.03-3.09-4.53-.75-.84-2.38-2.82-3.19-3.39-.6-.43-1.47-.32-1.54-.37ZM7.87,41.56s-.51-.09-.48.12c.37.65.75.16.48-.12ZM7.52,42.75v.24l.12-.12-.12-.12ZM1.06,42.99v.24l.12-.12-.12-.12ZM58.44,45.63v.24l.12-.12-.12-.12ZM59.16,45.87v.24l.12-.12-.12-.12ZM58.6,48.22c-.13-.09-.14-.72-.68-.88-.13-.04-1.86-.03-1.94.02-.1.06-.14.44-.27.51-1.9.93-1.72,1.43-2.97,2.94-2.83,3.43-5.11,7.21-6.82,11.29-.63,1.49-1.01,3.12-1.7,4.59,3-4.46,5.56-9.2,9.51-12.91l5.43-3.85c.47-.17-.05-1.83-.12-1.9-.02-.02-.37.25-.44.2ZM29.63,49.46c-.95-.49-.71.5-.12.95,0-.15.16-.93.12-.95ZM51.63,49.7c-.04.07-.13.75-.12.95.64-.29.29-1.25.12-.95ZM29.99,50.42v.24l.12-.12-.12-.12ZM51.15,50.9c-.23-.21-.69.27-.76.55l-1.15,1.6.82-.49c-.09-.5,1.39-1.39,1.09-1.66ZM30.47,51.37v.24l.12-.12-.12-.12ZM30.95,52.09v.24l.12-.12-.12-.12ZM49.48,53.29c-.48-.42-1.78,2.28-1.67,2.39.4.44.51-.36.59-.47.15-.21,1.16-1.84,1.08-1.91ZM32.38,54.48v.24l.12-.12-.12-.12ZM32.98,55.68c.17-.34-.15-.64-.23-.48-.17.34.15.64.23.48ZM47.09,57.12c-.13.04-.41-.05-.48,0-.05.04.03,1.19.24.95.08-.09.14-.74.24-.96.55-.18.55-.01.6-.95-.45.25-.44.6-.6.95ZM33.46,56.88c-.14.32.05.77.36.95.09-.27-.22-1.25-.36-.95ZM34.41,58.79c.17-.34-.15-.64-.23-.48-.17.34.15.64.23.48ZM35.23,60.14c-.04-.07-.8-2.13-.81-.75,0,.13.89,1.81,1.06,2.29,1.16,3.37,2.21,6.46,2.98,9.96l1.21,7.98c-.2-1.79,1.04-3.97.87-5.65-.38-3.73-3.41-10.66-5.31-13.83ZM44.58,62.38v.24l.12-.12-.12-.12ZM38.96,64.54s-.42-.96-.71-.95c-.04.42.32,1.29.71.95ZM39.56,79.86v.24l.12-.12-.12-.12ZM40.15,85.36c.17-.37-.12-.97-.23-.72-.17.37.12.97.23.72Z"/>
        <polygon points="38.12 .38 38.24 .5 38.12 .62 38.12 .38"/>
      </g>
    </g>
  </g>
</svg>