<?xml version="1.0" encoding="UTF-8"?>
<svg id="Layer_3" data-name="Layer 3" xmlns="http://www.w3.org/2000/svg" viewBox="0 0 100 152.95">
  <defs>
    <style>
      .cls-1 {
        fill: #fff;
      }
    </style>
  </defs>
  <g id="Sketchy_Icons" data-name="Sketchy Icons">
    <g>
      <path class="cls-1" d="M76.82,94.88c-.34,3.27-1.86,7.61-2.32,11.36-1.15,9.28-1.14,19.54-.07,28.84.21,1.82,2.37,12.4,1.98,12.93-.02.03-.59-.42-.74-.3-.16.13.04,1.51-1.07.28l-4.3-9.38c.22,1.71,1.1,13.64.39,14.3-.3.28-2.52-.97-2.52-1.75-7.56-16.86-15.3-34.33-27.07-48.48-5.74-6.91-11.78-12.62-20.15-15.34-1.2-.39-5.51-1.32-6.82-1.29-3.34.07-6.07,3.44-10,3.66-1.59.09-2.26-.75-3.61-.55-.27-.68.35-1.48.4-1.85.01-.12-2.09.66.05-1.58,1.57-1.65,4.23-1.53,6.35-2.64,1.01-.52,3.57-2.21,2.8-3.32-1.17.62-2.61.47-3.78,1.12-.68.38-.77,1.04-1.24,1.31-.93.52-4,1.24-4.51-.26-.93-2.71.57-2.39,1.47-3.1.45-.35-.11-1.16.73-1.88,1.83-1.58,6.28-3.01,8.55-4.55.59-.4,1.02-1.18,1.64-1.65,10.87-8.36,18.69-20.11,24.58-32.58.63-.62-.93-3.98-1.17-4.15-.08-.06-.72.42-.77.38s-.03-.8-.25-1.18c-4.28-7.09-4.26-14.91-.58-22.33.25-.51.98-1.21.46.05l-1.69,8.12c-.36,5.86,1.33,11.17,4.91,15.73l2.64-5.72c.87-5.84.7-11.53,1.06-17.37.05-.78-.5-1.62-.47-2.02.03-.36.75-.04.84-.44.25-1.08-.85-.17-.82-1.01.38-.05,1.18.22,1.25-.24.38-2.37.43-5,2.42-6.71.7,1.81-1.03,3.54-1.02,5.51,0,.97.65,2.04.62,3.06l.81-.81c.38,1.53-.41,3.32-.37,4.66.06,1.92,3.33,7.03,4.52,8.96,7.19,11.68,18.11,20.39,29.21,28.05,6.46,4.46,13.26,8.92,20.73,11.43.47,1.33-.87,1.83-1.45,3.29-.02.04-.93.58,0,.41-.38.53-1.78,1.57-2.25,1.64-.12.02-.2-1.57-1.82-.19-.5.42-.19,1.23-.9,1.55-.96.43-2.48.24-3.67.71-1.79.72-4.23,4.43-5.23,5.79-5.13,6.96-4.6,11.82-7.74,19.1-.02.04-.93.58,0,.41ZM43.97,9.07c-.4.28.22.56.42.8.4-.27-.19-.54-.42-.8ZM56.82,41.76c.08.07.54.91.41,0,.42.59.76,1.91,1.62,1.84-.4-.99-1.03-1.52-1.62-2.25-3.09-3.82-6.61-8.65-8.77-13.08-.32-.65-1.29-3.93-1.44-4.09-.05-.05-.73.45-.79.4-.21-.16-.24-2.32-1.24-2.44,2.37,6.67,6.55,14.78,11.83,19.62ZM44.38,23.78v.41l.2-.2-.2-.2ZM50.55,36.14c-.12-.18-.62-.27-.8-.54-2.17-3.36-4.27-6.71-5.37-10.59-1.24,1.55-.64,3.84-.9,5.64s-1.81,7.02-.65,8.27c4.58,3.16,9.17,6.3,13.86,9.3s9.56,6.11,14,8.79c3.06,1.85,10.42,6.62,13.26,7.67,1.68.63,1.91-.68.51-1.5-.23-.14-.73.08-1.23-.21-10.64-6.31-19.04-10.25-27.46-19.55-1.02-1.12-1.06-1.86-1.35-2.23-.27-.35-.92-.12-1.29-.51-.63-.66-2.06-3.77-2.58-4.54ZM60.77,39.8c-.26-.29-.91-.42-1.32-.88-2.55-2.9-4.74-6.45-7.74-9.01-.81.69.56.94.89,1.38.9,1.19,1.39,3.02,2.17,4.14,8.85,12.74,17.92,18.97,31.54,25.59,2.01.98,3.04,3.48,5.6.97-1.17-.65-4.08-.89-5.04-1.41-.52-.28-.16-1.13-.26-1.25-.07-.08-.96.37-1.62.2-.75-.19-1.12-1.15-1.38-1.28-5.31-2.79-9.86-5.33-14.39-9.27-.86-.74-1.69-2.35-2.8-3.15-.49-.35-1.37-.36-1.43-.41-.08-.08.51-.65.2-1.21-.21-.38-.76-.03-.92-.16-1.33-1.13-2.66-3.29-3.5-4.24ZM40.09,39.31c-1.07-.2-.72.2-.99.82-6.16,14.16-14.41,22.74-24.98,33.65-.43.44-3.26,3.6-3,3.94.63.82,2.32.12,3.06-.41,2.09-1.48,6.66-6.58,8.63-8.72,5.6-6.12,12.54-14.97,15.44-22.74.79-2.12.78-4.49,1.84-6.53ZM42.55,40.53s.44.29.61.4c.22-1.36-1.71-.27-2.04.42-.48.98-.57,3.77-.99,5.1-2.35,7.36-4.99,12.29-9.01,18.5-1.6,2.47-1.17,3.07-3.62,4.63-.07.04.33.7-.24,1.57-1.69,2.54-4.58,4.85-6.33,7.38,14.98.94,25.08,11.71,32.38,23.77,2.43,4.01,4.98,8.64,7.16,12.85.53,1.02.33,2.56,1.67,3.02.02-10.66-1.49-22.17,2.5-32.35,1.65-4.21,6.55-11.2,9.96-14.22,2.03-1.8,4.86-3.09,6.74-4.69,1.98-1.7.24-1.23-.71-1.77-7.47-4.23-15.94-9.81-22.69-14.02-5-3.12-9.61-6.4-14.33-9.62-.34-.23-1.83-.12-1.05-.97ZM59.48,44.21v.41l.2-.2-.2-.2ZM60.9,45.43c.29-.57-.26-1.09-.4-.81-.29.57.26,1.09.4.81ZM68.86,45.44v.41l.2-.2-.2-.2ZM76,51.16c-1.45-2.03-4.03-2.87-4.28-3.25-.11-.17.19-.67.1-.77-.36-.41-3.94-2.43-1.41.01,1.43,1.38,3.15,2.44,4.49,3.89.3.29.93.02,1.1.12.88,1.22,1,1.25,2.48,2.21,2.09,1.35,4.57,2.61,6.9,3.5l-5.4-3.25c-.76-1.61-2.5-1.69-3.98-2.47ZM63.15,47.89v.41l.2-.2-.2-.2ZM35.4,53.61v.41l.2-.2-.2-.2ZM35.19,55.66c-.57-.29-1.09.26-.81.4.57.29,1.09-.26.81-.4ZM34.38,56.88c-.57-.52-1.08.67-1.29.95-2.81,3.57-5.58,7.21-7.9,10.47l-9.98,9.82,3.99-.3c2.19-1.26,16.15-20.07,15.19-20.95ZM94.16,63.83v.41l.2-.2-.2-.2ZM92.12,64.23v.41l.2-.2-.2-.2ZM93.55,64.24c-.57-.29-1.09.26-.81.4.57.29,1.09-.26.81-.4ZM89.47,65.88c-.05-.07-1.53-.51-1.63-.41-1.06,1.01,2.79,1.84,1.63.41ZM90.08,65.87v.41l.2-.2-.2-.2ZM84.57,67.51c-1.38-.27-.37,1.54-1.84.41-.82,1.53,1.56.75,1.84-.41ZM85.18,67.5v.41l.2-.2-.2-.2ZM81.51,69.14v.41l.2-.2-.2-.2ZM68.25,129.62c-2.18-18.07.77-35.8,10.93-50.97,2.21-3.29,4.98-6.25,7.24-9.5-.73.56-1.75.35-2.57.68-11.09,4.42-16.21,21.92-18.27,33.21-1.57,8.65-.62,15.58,1.13,24.24l1.54,2.34ZM8.26,76.09c-.83.17-2.14.32-2.45,1.22.66-.1,2.22-.53,2.45-1.22ZM10.51,76.9v.41l.2-.2-.2-.2ZM2.76,80.59c-.92.62-.51,1.17,0,.4.14-.21.33-.22,0-.4ZM15.61,80.99c-.11-.1-2.82-.41-2.99-.35s-2.77,2.36-2.72,2.59c.18.84,2.25.7,2.95.51.49-.13,3.25-2.29,2.76-2.75ZM69.89,81.4c-1.25,3.28-3.33,6.28-4.46,9.63-1.12,3.32-1.33,6.95-1.47,10.38,1.26-3.89,2.07-7.87,3.35-11.76.74-2.25,2.24-4.85,2.89-6.91.11-.36.38-1.46-.32-1.34ZM18.36,81.96c-1.33-.43-1,1.23-2.15.27.63.89-1.65,1.27-.61,1.83,1.47.79,5.52.8,7.35,1.42l-4.59-3.53ZM29.08,83.44c-1.9.52-3.98-.61-5.74-1.02-.52-.12-.7.15-.79.6,2.25.43,3.9,2.75,5.56,4.02,2.64,2.02,6,3.81,8.52,5.79,10.33,8.16,17.79,21.9,23.73,33.24.43.82.46,2.61,1.37,3.13-.77-4.42-2.68-8.77-4.4-12.95-4.94-12-13.43-27.83-25.96-31.67-1.12-.34-3.34.19-2.28-1.15ZM73.14,138.61c-1.36-9.59-1.65-19.46-.68-29.09.35-3.45.94-8.12,1.6-11.47.95-4.82,2.98-9.39,3.97-14.2-.86-.08-.19,1.32-.41,1.63-.03.05-.78-.45-.81-.41-.05.06-.1,1.03-.33,1.51-6.58,13.81-8.6,28.98-6.82,44.46.38,3.31,1.07,5.1,3.47,7.57ZM23.57,84.67v.41l.2-.2-.2-.2ZM2.14,87.93c.99,1,6.8-1.01,7.75-2.25-1.5.54-6.44-.44-7.36.78-.28.36-.61,1.25-.39,1.47ZM23.57,85.48v.41l.2-.2-.2-.2ZM63.97,128.39v.41l.2-.2-.2-.2ZM64.58,129.62s-.86-.16-.81.2c.64,1.12,1.27.27.81-.2ZM65.39,134.52l-.61-2.86c-1.17.96-.61,2.36.61,2.86ZM68.05,134.52v.41l.2-.2-.2-.2ZM68.05,135.34v.41l.2-.2-.2-.2ZM67.85,139.83c1.37-.47.25-1.87.4-2.86-.9.21-.19,2.17-.4,2.86ZM66.21,140.24c.28-.63-.2-1.66-.4-1.22-.28.63.2,1.66.4,1.22ZM68.45,140.65v.41l.2-.2-.2-.2Z"/>
      <path class="cls-1" d="M57.23,41.76s-.28.01-.41,0c-.06-.28.21-.51.41-.41.07.03-.06.32,0,.41Z"/>
      <path class="cls-1" d="M76.82,94.88s-.02-.4,0-.41c.94-.17,0,.36,0,.41Z"/>
      <path class="cls-1" d="M98.45,65.87s-.02-.4,0-.41c.92-.17.03.37,0,.41Z"/>
      <path class="cls-1" d="M46.21.89c-.14.28-.69-.24-.4-.81.14-.28.69.24.4.81Z"/>
    </g>
  </g>
</svg>