<?xml version="1.0" encoding="UTF-8"?>
<svg id="Layer_3" data-name="Layer 3" xmlns="http://www.w3.org/2000/svg" viewBox="0 0 100 145.88">
  <defs>
    <style>
      .cls-1 {
        fill: #fff;
      }
    </style>
  </defs>
  <g id="Sketchy_Icons" data-name="Sketchy Icons">
    <g>
      <path class="cls-1" d="M57.86.24c.09.1-.44,2.26-.38,2.7,1.05-.11,1.06-2.59,1.16-2.7.75-.86.52.98,1.34.78.09-.02.65-1.67.97-.17.18.83-1.39,2.03-.19,2.87l.57-1.54c.14,1.9-.46,3.72-.55,5.6-.16,3.36-.12,5.66-.51,8.98-.84,7.11,4.79,15,8.38,20.87,5.46,8.93,13.5,21.78,21.88,27.84,2.62,1.9,5.81,3.42,8.77,4.74,2.08,2.32-1,1.92-2.08,3.25.78.5,3.52.42,2.32,1.96-1.1,1.4-3.59-.06-3.86.17-.42.35,1.73,1.82,1.91,2.92.13.78-.28,3.18-.81,3.6-.07.05-.53-.35-.65-.25-.98.73-2.53,2.48-3.66,3.28-.37.26-1.12.06-1.66.47-1.54,1.14-.59.41-1.69.98-2.13,1.09-10.53,12.77-12.13,15.31-2.67,4.24-9.05,15.4-9.12,19.87-.09,5.22,1.6,11.81.72,17.27-.2,1.28-1.57,2.53-2.62,1.85-.03-.02.32-.56.19-.65-.06-.04-.65.17-.79-.07-.5-.85.42-2.28-.95-1.98-.23,1.14.42,7.42-.96,7.7-2.09.43-1.07-6.05-1.11-7.44-.55-18.33-4.2-35.31-12.87-51.54-.28-.52-1.07-.75-1.31-1.42-.22-.61.09-1.33.03-1.38-.11-.1-.8.18-1.18-.25-.28-.32-1.24-2.77-1.56-3.16-.1-.12-1.53-1.42-2.01-1.87-1.59-1.49-7.04-5.01-9-5.43-.42-.09-1.09.4-1.29.27-.08-.05.42-.73.39-.76-.07-.07-1.65-.75-1.74-.77-.39-.12.62,1.11-.38.76-6.06-2.15-18.78-2.6-25.38-2.22-1.31.08-8.04,2.61-5.47-1.62,4.15-6.83,16.45-6.35,21.87-10.08,13.1-9.02,27.28-26.19,30.66-41.63.51-2.34.46-5.69,1.11-7.85.46-1.54,1.85-3.56,2.3-5.34.1-.38.15-5.22,1.33-3.88ZM59.59,2.55v.39l.19-.19-.19-.19ZM59.01,3.71c-1.19-.19-.6.34-.77.95-.83,2.9-1.34,6.1-.58,9.08.37,1.45,1.26,1.42,1.55-.03.53-2.69-.32-7.15-.2-10ZM56.96,16.19c-.41-.77-1.46-.42-.65-2.82-1.48.79-.04,4.21.37,5.62.15.52.04,1.2.79,1.33,0-1.33.14-2.92-.51-4.13ZM55.55,24.57c1.37-.4.42-2.91-.39-3.47l.39,3.47ZM53.61,21.48c-1.21-.2-.59.37-.77.95-3.23,10.55-10.08,20.02-17.73,27.47-2.34,2.27-5.6,4.49-8.09,6.96-1.48,1.47-.79,1.71.8.89,7.66-3.96,18.64-15.62,23.08-23.03.51-.85,3.26-5.69,3.41-6.18.57-1.98-.98-5-.7-7.06ZM63.64,33.84c-.64-2.56-2.39-5.66-3.47-8-.34-.75-.42-2.12-1.16-2.43-.07,3.21,2.12,6.23,3.64,8.92.65,1.14-.45.92.98,1.51.67,2.68,4.33,8.21,6.02,10.78,4.39,6.68,16.6,24.32,23.86,26.72.74.25,1.83.65,2.55.18,1.62-1.07-2.36-1.9-2.87-2.18-.1-.05-1.46-1.46-1.62-1.49-.13-.03-1.85-.22-2.03-.47-.89-1.21-3.45-3.65-4.97-4.95-1.72-1.47-.54-.48-1.34-1.84-.19-.33-1.38-.56-1.72-.95-2.08-2.4-4.07-5.71-5.9-8.51-2.85-4.36-7.51-9.89-10.22-14.59-.75-1.3.27-1.86-1.75-2.7ZM58.94,28.49c-.22-.23-1.73-.58-1.86-.44-.09.1.14,2.23.27,2.6,2.82,7.93,9.57,15.31,14.4,22.3l4.62,4.45c-3.41-5.25-7.09-9.97-10.44-15.24-.58-.91.03-1.77-1.13-.98.44-1.47-.51-1.39-.88-2.04-1.48-2.63-2.89-5.38-4.28-8.05-.49-.93-.61-2.5-.7-2.6ZM55.16,29.6c-.62-.52-1.07.48-.77,1.15.19.42.83-1.1.77-1.15ZM53.61,33.07c.05-.06.45-1.41.39-1.54-.32-.71-1.15,2.36-.39,1.54ZM56.49,32.52c-.27-.35-.52-.91-.94-.99-.58,2.81-2.64,5.71-4.26,8.21-5.54,8.5-10.97,13.37-18.86,19.45-.39.3-2.79,2.06-2.35,2.47,3.58,1,7.89,2.1,11.05,4.01,13.46,8.13,21.89,30.55,25.12,45.35.03.14-.24,3.79.87,2.42.2-.25.99-5.37,1.26-6.27,3.29-10.92,8.79-24.87,18.83-30.99,2.34-1.43,5.2-1.12,2.66-3.8-.99-1.04-2.8-2.32-4.2-3.61-3.04-2.8-5.45-4.86-8.35-7.87-.98-1.02-.45-.18-1.33-1.56-.02-.03-.51.34-.67.25-.37-.22-2.64-3.58-3.18-4.2-4.94-5.64-10.83-12.41-14.06-19.26-.25-.52-.14-1.42-.22-1.53-.03-.05-.73.41-.76.39-.39-.3.06-1.72,0-2.04s-.47-.27-.6-.44ZM52.07,35.39c2-.87.43-2.14,0-.96-.08.23.03.66,0,.96ZM51.3,35.78c-.07.08-.58,1.58-.59,1.92.86-.33,1.13-2.53.59-1.92ZM47.06,42.73c1.07-1.1,2.36-2.4,2.89-3.86-1.06,1.07-2.46,2.36-2.89,3.86ZM47.05,43.12c-.68-.6-3.92,4.03-4.55,4.63-.59.56-3.31,2.23-3.46,2.41-.24.29.04,1.08-.46,1.66-.24.28-5.11,3.59-5.91,4.15-.51.36-.91-.57-.9.68l-6.31,3.85c1.1.46,1.94.21,2.97-.31,5.04-2.54,10.95-8.07,14.8-12.24.42-.45,4.07-4.63,3.84-4.83ZM76.96,52.39v.39l.19-.19-.19-.19ZM25.44,58.57c-.4-.32-1.35.61-1.16.76.4.32,1.35-.61,1.16-.76ZM22.35,62.82c-3.44,0-5.06,1.64-7.71,3.33-.54.35-1.32.24-1.38.28-.04.03-.21.99-.17,1.02.33.24,6.37-3.05,7.68-2.94l1.58-1.69ZM22.94,62.82v.39l.19-.19-.19-.19ZM31.87,64.16c-1.81-.65-4.2-1.44-6.04-.76-1.35.5-3.27,2.01-4.75,2.58l-8.36,3.4c9.27-.14,18.75.17,26.96,4.89.86.5,2.96,1.83,3.72,2.44.35.28,2.54,3.43,3.28,2.72.27-.26-3.04-4.36-3.44-4.9s-.89-1.82-1.6-2.61c-2.6-2.91-6.45-6.58-9.76-7.76ZM12.71,65.52c1-1.43-3.77.39-4.08.37-.63-.04-1.12-.86-1.31-.74-.03.02.07.46-.15.6-.75.47-1.07.86-1.53,1.18-.4.27-4.2,1.91-3.34,3.23.15.23,4.76-1.62,5.28-1.86.71-.32,4.94-2.5,5.14-2.78ZM40.19,67.78c-.27-.18-.44-1.66-1.24-.9,1.19.93,1.94,2.18,2.88,3.31,7.37,8.86,13.89,19.44,18.57,30.08.21.47.84,1.74,1.31,1.96-1.54-6.94-4.81-13.93-8.18-20.21-.68-1.27-.54-.58-.71-.85-1.91-3.15-2.84-4.89-4.99-7.31-1.21-1.36-3.85-4.55-5.15-5.48-.97-.7-2.38-.52-2.48-.59ZM12.71,67.07s-.82-.15-.77.19c.6,1.05,1.21.26.77-.19ZM12.13,69v.39l.19-.19-.19-.19ZM1.71,69.39v.39l.19-.19-.19-.19ZM94.32,73.64v.39l.19-.19-.19-.19ZM95.48,74.02v.39l.19-.19-.19-.19ZM94.57,77.83c-.21-.14-.23-1.16-1.1-1.43-.21-.06-3-.04-3.14.04-.16.09-.22.72-.44.82-3.07,1.51-2.77,2.3-4.79,4.74-4.57,5.53-8.25,11.64-11.01,18.22-1.01,2.41-1.62,5.04-2.74,7.41,4.84-7.19,8.97-14.85,15.35-20.84l8.76-6.22c.75-.27-.08-2.96-.2-3.07-.03-.03-.59.41-.71.33ZM47.82,79.82c-1.53-.79-1.15.8-.19,1.54,0-.24.26-1.5.19-1.54ZM83.33,80.21c-.06.11-.21,1.21-.2,1.54,1.03-.47.46-2.02.2-1.54ZM48.4,81.36v.39l.19-.19-.19-.19ZM82.55,82.14c-.37-.34-1.11.44-1.22.9l-1.86,2.58,1.33-.79c-.14-.81,2.24-2.24,1.75-2.68ZM49.17,82.91v.39l.19-.19-.19-.19ZM49.95,84.07v.39l.19-.19-.19-.19ZM79.85,86c-.77-.68-2.87,3.68-2.7,3.86.65.71.82-.58.96-.77.24-.34,1.88-2.97,1.75-3.09ZM52.26,87.93v.39l.19-.19-.19-.19ZM53.22,89.86c.28-.54-.24-1.03-.38-.77-.28.54.24,1.03.38.77ZM75.99,92.18c-.21.07-.67-.08-.77,0-.07.06.05,1.93.38,1.54.13-.15.23-1.19.39-1.54.88-.3.89-.02.97-1.54-.72.41-.71.97-.97,1.54ZM54,91.8c-.23.51.08,1.24.58,1.54.14-.43-.36-2.01-.58-1.54ZM55.54,94.88c.28-.54-.24-1.03-.38-.77-.28.54.24,1.03.38.77ZM56.86,97.06c-.07-.12-1.29-3.43-1.31-1.21,0,.2,1.44,2.91,1.71,3.69,1.87,5.44,3.56,10.42,4.81,16.08l1.96,12.88c-.32-2.89,1.68-6.4,1.41-9.12-.61-6.02-5.51-17.21-8.58-22.32ZM71.94,100.68v.39l.19-.19-.19-.19ZM62.87,104.15c.07-.06-.68-1.55-1.15-1.54-.07.68.52,2.09,1.15,1.54ZM63.84,128.88v.39l.19-.19-.19-.19ZM64.8,137.77c.27-.6-.19-1.57-.38-1.16-.27.6.19,1.57.38,1.16Z"/>
      <polygon class="cls-1" points="61.52 .62 61.71 .81 61.52 1.01 61.52 .62"/>
    </g>
  </g>
</svg>