<?xml version="1.0" encoding="UTF-8"?>
<svg id="Layer_2" data-name="Layer 2" xmlns="http://www.w3.org/2000/svg" viewBox="0 0 100 145.63">
  <defs>
    <style>
      .cls-1 {
        fill: #fff;
      }
    </style>
  </defs>
  <g id="Sketchy_Icons" data-name="Sketchy Icons">
    <g>
      <path class="cls-1" d="M80.01,1.22c.42.55.67,2.77.76,3.63,1.17,11.23-.65,23.85-6.37,33.62-3.03,5.18-5.77,6.1-4.4,13.35.85,4.5,3.62,9.79,6.6,13.27.52.6,4.47,4.36,4.95,4.57,1.23.53,5.15-1.17,7.04-1.32,1.9-.15,4.4-.14,6.12.74.87.45,1,1.14,1.54,1.48.83.53,1.92.67,2.63,1.2,3.02,2.24-.8,2.97-2.46,4.04-.44.28-2.39,2.08-2.56,2.1-.22.03-1.72-.69-1.64.17.07.78,2.77,1.68,2.99,2.35.25.76-.36,3.04-.98,3.58-2.02,1.75-10.65,1.24-12.96-.32-.82-.55-.81-1.19-.87-1.23-.2-.14-.49.48-.74.52-5.96.87-22.23,13.83-26.08,18.95-.27.35-1.71,2.63-1.72,2.82-.07,1.41,2.14,6.22,2.56,8.15,1.24,5.65,1.94,16.31.36,21.89-.11.38-1.26,3.35-1.38,3.5-.35.42-.95.13-1.16.25-.06.03.4.78-.12,1.39-.28.33-3.64,3.27-3.99,3.45-2.16,1.17-3.83.72-5.73,1.12-.77.16-1.46.85-2.35,1.07-2.28.57-2.92-1.43-4.2-2.96-.29-.34-.87-.23-1.02-.39-2.37-2.62-1.22-10.48-.47-13.78.99-4.38,3.13-8.47,4.88-12.35.97-2.17,1.86-3.5,1.93-5.99-.24-.28-.6.29-.77,0-.49-.83-1.42-6.43-1.91-7.98-1.43-4.49-3.88-8.62-4.93-13.18-1.01.95-.8-.91-1.4-2.19-.35-.74-1.24-.05-.5-1.62-1.01.93-1.03-1.19-1.74-2.26-1.91-2.87-7.53-8.35-10.84-10.12-1.07-.57-1.02-.35-2.27-1.17-.38-.25-.79.18-1.06.09-.07-.03-.07-.63-.31-.66-.8-.12-4.07.7-5.28.7-1.97,0-4.49-.76-6.51-.83-2.3-2.18-4.11-2.39-3.51-6.03.2-1.22,1.43-3.03,2.44-3.69,2.49-1.61,10.02,2.82,13.3,2.99,16.2.84,43.44-18.42,50.93-32.49,2.25-4.22,2.8-11.52,4.58-16.37.62-1.7,2.03-3.62,2.67-5.26s1-3.9.54-5.81c-.22-.9-1.53-2.78-1.42-3.52.28-1.98,1.5,1.17,1.58,1.26.61.71,1.12-.64,1.2-.75,1.39-1.91.72.28,1,1.37.19.75.8.81.79.97,0,.07-1.04.73,0,1.14-.61,1.32-1.53,5.17-1.33,6.54.13.83,1.03.63.94.89-.4,1.23-1.52,2.67-1.14,4.39,1.35.39.92-2.44,1.14-2.67.05-.05,1.34-.34,1.13.57-.16.72-.95.88-1.1,1.26s-.46,1.67-.59,2.2c-.07.29.29.8.17.94-.2.25-.76-.97-1.13-.57.46.42.8.74.7,1.43-.31,2.17-1.92,5.33-2.51,7.45-1.22,4.42-2.41,8.9-3.15,13.43l1.48-1.84c5.28-8.74,6.44-16.04,6.89-25.99.41-.2.57-.21,0-.38.1-2.57.34-5.19.26-7.77-.04-1.11-1.32-2.28.12-3.29-.16.35.54.35.38,0ZM74.11,1.22v.38l.19-.19-.19-.19ZM74.68,11.9c-.57-.54-.97.64-1.13.97-.57,1.23-1.18,3.45-1.59,4.82-.28.95-.19.91-.41,1.9-.29,1.29-.63,2.51-1.06,3.74.59-.1.72-.71.94-1.15.55-1.08,3.64-9.91,3.24-10.28ZM76.01,17.23v.38l.19-.19-.19-.19ZM70.49,24.85c.27-.54-.24-1.02-.37-.76-.27.54.24,1.02.37.76ZM72.21,27.15c-.86.58-.47,1.09,0,.37.13-.19.31-.2,0-.37ZM71.25,30.19c.27-.54-.24-1.02-.37-.76-.27.54.24,1.02.37.76ZM70.68,31.72v.38l.19-.19-.19-.19ZM71.25,35.53c-.8-.11-.87-.04-.76.76l.76-.76ZM66.15,39.96c.71-1.16,1.05-2.29,1.1-3.66-2.46,2.7-4.55,5.79-7.05,8.46-3.85,4.1-9.73,8.91-14.37,12.11-1.57,1.08-4,1.97-5.65,3.23-.43.33-1.12.71-.92,1.35,7.78-4.29,15.98-8.97,22.07-15.56,1.22-1.32,3.92-4.49,4.81-5.94ZM70.49,36.68c-.67-.58-1.23,1.44-1.14,1.52.67.58,1.23-1.44,1.14-1.52ZM69.54,38.58v.38l.19-.19-.19-.19ZM69.54,40.11v.38l.19-.19-.19-.19ZM63.88,48.74c1.87-1.86,3.09-2.9,3.11-5.79,0-.35-.12-1.4-.69-1.32.02.43.02.78-.27,1.15-5.55,6.95-15.09,14.58-22.89,18.19-.54.25-1.04-.22-.83.86,1.01-.03,2.12-.54,3.04-.96,5.8-2.6,14.04-7.67,18.53-12.14ZM58.11,44.68v.38l.19-.19-.19-.19ZM54.49,48.49c.43-.44-.16-1.23-.76-.19-.05.33.73.21.76.19ZM65.68,56.03c-.41-1.66.41-3.21.5-4.84.02-.36-.08-2.29-.63-2.31l-3.45,3.52c-6.73,5.1-15.81,10.4-24.16,13.06-1.7.54-14.52,3.08-14.67,3.82s9.58,8.52,10.41,10.34c6.57,4.95,11.66,11.69,15.67,18.81l11.21-13.16c3.42-3.38,7.11-6.58,11.03-9.36-.53-1-.96-2.16-1.49-3.14-.65-1.22-.75-1.87-1.4-3.31-.36-.8-1.54-2.04-1.84-2.84-1.17-3.05-.48-7.69-1.19-10.59ZM67.07,52.31c-.11.25.25,1.39.18,1.9,1.14-.44,0-2.3-.18-1.9ZM48.02,53.45c.27-.54-.24-1.02-.37-.76-.27.54.24,1.02.37.76ZM46.69,53.83v.38l.19-.19-.19-.19ZM67.25,54.59v.38l.19-.19-.19-.19ZM69.54,54.97v.38l.19-.19-.19-.19ZM67.25,55.74v.38l.19-.19-.19-.19ZM43.26,56.12v.38l.19-.19-.19-.19ZM70.42,56.94s-1.03-.48-1.07-.44c-.08.11,0,2.67.01,2.81.03.2.78,2.9,1.01,3.67.56,1.88,4.65,9.03,6.47,9.47.59.14,3-.91,3.54-1.28.96-.67-1.25-1.3-1.72-1.7-.44-.37-1.79-1.47-1.96-1.63-.43-.42-.43-1.34-1.07-1.85-.37-.29-.91.06-.94.02-.2-.33-.05-1.62-.77-2.41-1.75-1.91-2.45-2.85-3.56-5.67-.13-.34.1-.92.04-.99ZM67.82,61.45c-.23-1.26.37-3.74-.75-4.57l.75,4.57ZM39.46,58.41v.38l.19-.19-.19-.19ZM38.5,59.17l-8.34,3.95c-4.14,1.28-8.43,1.82-12.61,2.72.82.74,2.19.91,3.24.98,4.66.29,11.72-3.72,15.42-5.89.77-.45,1.83-.97,2.28-1.75ZM38.5,61.46c-.4-.31-1.34.6-1.14.75.4.31,1.34-.6,1.14-.75ZM41.55,62.6c1.33-1.16-1.89-.34-1.14,0,.13.06,1.1.04,1.14,0ZM68.4,62.22v.38l.19-.19-.19-.19ZM35.27,62.98v.38l.19-.19-.19-.19ZM9.18,66.03c.5-.54-.52-.98-.97-1.12-1.26-.38-3.67-1.23-4.74-1.4-.5-.08-1.77-.13-1.92.48-.95,3.91,2.44,5.43,5.72,5.66-1.34-.97-2.27-2.26-3.39-3.46-2.32-2.48,5.08.08,5.3-.16ZM70.49,65.65c.27-.54-.24-1.02-.37-.76-.27.54.24,1.02.37.76ZM13.37,66.79c.87-.96-3.31-1.73-3.8-1.14l3.8,1.14ZM13.75,65.65c-.23.44.24.88.57,1.13.16-.38-.38-1.5-.57-1.13ZM69.16,66.41v.38l.19-.19-.19-.19ZM72.54,70.46c-.34-.47-1.22-1.74-1.42-2.14-.27-.56.13-1.84-.63-1.91-1.35,1.51,1.95,7.76,2.89,7.97.55.13,2.57-.95,1.95-1.68-.05-.06-1.08-.14-1.51-.55-.16-.15-1.03-1.35-1.28-1.7ZM13.94,67.94v.38l.19-.19-.19-.19ZM14.7,67.94v.38l.19-.19-.19-.19ZM16.41,67.94s-.81-.15-.76.19c.59,1.04,1.19.26.76-.19ZM7.85,69.46v.38l.19-.19-.19-.19ZM90.48,69.46v.38l.19-.19-.19-.19ZM92.19,70.22c.43-.44-.16-1.23-.76-.19-.05.33.73.21.76.19ZM19.84,70.6c.27-.54-.24-1.02-.37-.76-.27.54.24,1.02.37.76ZM24.22,71.37v.38l.19-.19-.19-.19ZM95.2,72.17c-.88-1.02-5.6-.54-6.97-.49-.72.02-3.62-.56-.81.85,1.02.52,6.38,1.94,7.28,1.78.64-.11.76-1.85.5-2.14ZM78.87,74.03c2.71,1.15,5.25,2.07,8.2,2.48,2.25.31,5.86.83,7.41-1.14-1.04-.05-2.87.17-3.83-.04-1.18-.26-5.04-1.62-6.19-2.13-.61-.27-.56-1.01-.81-1.02-1.07-.03-4.05.84-4.78,1.86ZM97.91,72.9s-1.1-.04-1.14,0c-1.13.99,2.27.99,1.14,0ZM84.1,77.29c-1.78.2-7.95-3.88-8.66-1.15-.16.63,3.61,3.16,4.41,3.23,1.43.14,3.7-.72,5.11-1.15l-.86-.94ZM28.41,77.09v.38l.19-.19-.19-.19ZM74.01,78.5c-.23-.27.11-.97-.29-1.03-.26,1.29-1.6,1.04-1.72,1.15-.03.03.42.69.37.74-.07.07-.88.05-1.33.39-1.99,1.51-9.05,8.8-10.44,10.91-.41.63-.52.91-.4,1.69,5.02-3.92,10.12-7.7,15.78-10.69l.57-1.1c-.61-.38-2.17-1.61-2.55-2.05ZM33.81,82.57c-1.04-1.3-2.24-2.4-3.53-3.55-.3-.27-.53-.75-.55-1.17-1.74,1.06-.3,1.01,0,1.42,3.39,4.66,7.45,9.94,9.99,15.08,1.72,3.48,2.67,7.58,4.24,11.01.16.35.09,1.43.81,1.08,1.2-.58-.23-6.49-.57-6.86-.03-.03-.72.42-.75.39-.14-.15-.81-3.27-1.13-3.93-1.98-4.06-5.7-9.94-8.52-13.47ZM70.11,79.37s.06-1.01,0-1.14c-.34-.76-1.16,2.47,0,1.14ZM91.05,79.76l-6.09.95c.55,1.43,7.29.29,6.09-.95ZM68.58,80.14c-.53-.27-1.02.24-.76.37.53.27,1.02-.24.76-.37ZM93.72,80.9c-.78-.78-2.21,1.05-2.69,1.3-1.65.86-5.66.64-7.4-.15-.85,1.1,3.17,1.45,4.19,1.5,1.37.06,4.68.27,5.56-.9.29-.39.55-1.55.35-1.75ZM67.06,81.28c-.58-.59-1.22,1.08-1.14,1.14.47.38,1.5-.77,1.14-1.14ZM82.87,82.04v.38l.19-.19-.19-.19ZM65.54,82.81c-.99-1-.96,2.1-.38,1.52.06-.06.47-1.43.38-1.52ZM64.4,83.95l-4.72,4.23c-3.01,3.37-5.45,6.88-7.89,10.41-.44.64-1.72.89-1.47,2.13,3.67-2.97,6.23-6.69,8.98-10.64l5.11-6.13ZM37.17,84.33v.38l.19-.19-.19-.19ZM38.12,86.24c.27-.59-.19-1.55-.37-1.14-.27.59.19,1.55.37,1.14ZM42.69,89.66s-.71.48-1.13.22c-.85-.52-2.36-5.21-3.02-2.74l8.53,15.1c.96-.66,1.22-1.63.85-2.75-1.06-1.53-1.65-3.39-2.57-4.97-.33-.56-1.47-1.34-1.97-2.31-.36-.7-.59-2.47-.69-2.56ZM59.82,93.1c.27-.59-.19-1.55-.37-1.14-.27.59.19,1.55.37,1.14ZM38.12,94.63c-.53-.27-1.02.24-.76.37.53.27,1.02-.24.76-.37ZM38.5,95.39c-.53-.27-1.02.24-.76.37.53.27,1.02-.24.76-.37ZM39.26,98.82c-.13-.68.22-2.39-.76-2.67.25.56-.42,3.12.76,2.67.69,3.76,2.16,7.4,3.24,11.05,1.96-3.74-2.73-7.94-2.48-11.81-.66-.11-.11.51-.76.76ZM51.64,101.11v.38l.19-.19-.19-.19ZM48.4,106.44l1.34-3.04c-.41.77-2.56,2.07-1.34,3.04ZM46.88,107.59c-.56-.46-1.71,1.24-1.52,1.9.55,0,1.61-1.82,1.52-1.9ZM50.17,139.86c5.84-6.15,3.89-20.08,2.07-27.53-.17-.7-.55-4.71-1.74-4.73-.14,0-1.19,2.34-1.2,2.47-.03.32,1.41,5.14,1.58,6.28.7,4.65,1.41,13.21.56,17.72-.29,1.54-2.83,4.08-4.35,4.04-.14,0-.97-1.91-2.39-.3-.18.2-1.62,4.71-1.63,5.04-.02,1.52,6.47-2.33,7.1-2.99ZM47.07,110.27c-.58.04-1.52,3.19-.38,3.42.11.02.5-1.84.56-2.1.07-.29.65-1.38-.18-1.32ZM43.64,112.16v.38l.19-.19-.19-.19ZM49.08,135.71c.96-.98,1.22-9.9,1.07-11.85-.25-3.37-1.24-7.14-1.55-10.55-2.95,4.8-1.31,10.99-1.8,16.21,0,.09-.2.21-.33,1.46-.15,1.38-1.18,4.03.42,5.04.41.26,1.95-.06,2.19-.31ZM45.93,113.69v.38l.19-.19-.19-.19ZM44.59,120.93c-.08-2.13.54-4.04-.18-6.09-.87.75-.62,2.2-.59,3.25.02.62.16,2.52.77,2.84ZM42.31,119.41c-.88-.18-.61.1-.86.49-2.45,3.89-5.27,16.88-2.72,20.82,2.52,3.91,3.93-3.45,4.18-5.19.07-.48.36-3.06.36-3.33.02-4.1-.81-8.64-.96-12.79ZM38.12,123.22c.27-.54-.24-1.02-.37-.76-.27.54.24,1.02.37.76ZM37.55,123.6v.38l.19-.19-.19-.19ZM36.98,126.27c.27-.54-.24-1.02-.37-.76-.27.54.24,1.02.37.76ZM36.98,126.65c-.99-.17-.68.15-.87.82-.84,3-1.27,6.75-1.03,9.85.55.11.5-.6.55-.97.49-3.11.2-6.63,1.34-9.7ZM35.27,138.47v.38l.19-.19-.19-.19ZM35.64,139.62c-.38.27.2.52.39.75.38-.25-.18-.5-.39-.75Z"/>
      <path class="cls-1" d="M80.01,1.22s-.37-.02-.38,0c.24-.17-.09-.61.38,0Z"/>
      <path class="cls-1" d="M77.73,4.65c.06-.34-.1-.93,0-1.14.02-.04.77-.64.77-.19.15.62-.6.97-.77,1.33Z"/>
      <path class="cls-1" d="M79.25,12.65c-.37.18-1.16.62-1.53.57l.58-2.47c.75,1.46-.34,1.12.95,1.52,0,.13,0,.25,0,.38Z"/>
      <polygon class="cls-1" points="77.16 10.75 77.35 10.94 77.16 11.13 77.16 10.75"/>
    </g>
  </g>
</svg>