<?xml version="1.0" encoding="UTF-8"?>
<svg id="Layer_2" data-name="Layer 2" xmlns="http://www.w3.org/2000/svg" viewBox="0 0 100 124.78">
  <defs>
    <style>
      .cls-1 {
        fill: #fff;
      }
    </style>
  </defs>
  <g id="Sketchy_Icons" data-name="Sketchy Icons">
    <g>
      <path class="cls-1" d="M45.42,7.81c-.03.46,0,.31,0,.44,0,2.76.56,4.89,1.46,7.5.17.51.62,2.01,1.16,2.12.12-2.76-.78-1.64-.86-1.76-.23-.38-.15-2.94-.26-3.68-.07-.46-.53-.87-.58-1.35-.43-3.9,1.27-6.26,1.72-1.43,1.09.28.99,2.32,1.95,2.1.24-.06.18-4.27,1.97-4.37.05,1.93-2.01,6.29-.43,7.87,1.1,1.09.49-2.07,1.74-1.31-.85,3.58,2.4,7.38,4.44,10.19,11.01,15.17,20.61,21.28,36.75,30.09,1.7.93,7.29,2.16,4.98,4.62s-11.91,1.4-15.16,4.05l3.18,2.27c1.62.14,6.03,1.16,3.37,3.17-.17.13-3.68-.22-4.16-.29-.2-.03-.16-.7-.52-.78-.33-.07-6.47.42-6.79.52-4.13,1.38-7.87,8.42-9.58,12.28-5.58,12.62-2.93,23.65-3.39,36.79-.06,1.79-.73,2.74-2.42,1.53l-3.71-7.86c-.47,1.41.4,7.04-.07,7.8-.14.23-1.85.64-2.12.5-.21-.11.24-5.75-1.1-3.93-.59.8-.87,7.49-1.44,9.01-.21.58-.25.69-.9.82-2.07.43-1.21-1.98-1.42-3.44-.62-4.33-2.29-11.75-4.1-15.1-1.36-2.52-3.82-3.97-4.15-7.02l-.86.87c.07-.61-.8-2.2-1.13-2.58-.31-.36-2.22-1.53-2.37-1.63-.39-.29-2.07-1.44-2.14-1.55-.21-.36.58-.9.18-1.19-.07-.05-.95.1-1.77-.38-1.26-.74-2.25-2.15-3.37-2.98-.23-.17-1.68.19-1.64-1.47l-.65.87-7.22-4.15c-1.25-.24-2.75-.93-4-.86s-1.14.93-1.86,1.15c-.49.15-3.79.81-3.97.71-.12-.06-.49-2.04-1.18-2.44-.35-.2-4.27-.25-4.63-.64-.86-.92-.1-2.37-.31-2.99-.51-1.49-6.81-.73-7.13-.92-.08-.05-.99-1.59-.93-1.67.51-.7,5.51-.32,6.73-.48,1.07-.14,3.95-.83,5.05-1.15,1.21-.35,2.05-1.69,3.5-1,.12-.65-.68-.56-1.1-.62-2.73-.4-7.43-.41-10.03.18-.71-2.46-.74.08-2.59-.46-1.1-.32-.54-1.51-.03-2.15.86-1.07,7.52-3.09,9.44-4,9.3-4.42,17.32-12.53,23.48-19.39,6.53-7.26,10.07-10.55,11.13-21.01.12-1.18-.67-3.64.48-4.12,1.02-.42.26.95,1.08.87.64-2.33-1.07-3.26-1.81-4.95-1.12-2.53-3.15-7.01-2.92-9.64.28-3.21,2.21-6.39,4.38-8.72.63-.67.4-1.06,1.23-.07-1.89,1.58-2.43,4.83-2.61,7.21ZM47.38,10.87v.44l.22-.22-.22-.22ZM48.69,12.18v.44l.22-.22-.22-.22ZM51.53,19.61c-.36-.75-.08-2.74-.86-3.06.02,1.04-.37,2.62.86,3.06ZM52.61,20.26c-.22-.24-.23-1.11-.65-.43.3,4.08,3.17,7.11,5.91,9.82l3.7,2.63c-1.47-1.12-2.48-3.86-3.47-4.96-.39-.43-.97-.13-1.37-.56-1.7-1.85-2.21-4.42-4.12-6.5ZM48.03,29.66c-.24-.7,1.43-3.73.22-3.92-.2-.03-1.21,3.89-.22,3.92ZM52.56,31.26c-.6-.9-.96-2.38-1.9-2.91-.78,2.48-.21,5.17-.54,7.65-1.22,9.06-8.31,16.64-13.17,24.3-1.63,2.57-3.03,5.91-4.52,8.57-.48.87-3.62,4.45-2.74,5.36.19.19,4.34.78,5.24,1.1,8.88,3.15,13.9,10.99,19.64,17.93,1.38,1.66,2.71,3.54,3.72,5.45.8-.38,3.18-11.11,3.68-12.89.47-1.68,1.67-3.45,2.19-5.28,1.91-6.78.73-11.76,7.14-17.1.94-.79,5.97-3.11,5.97-3.85,0-.45-5.28-5.57-6.09-6.57-.76-.95-1.65-3.12-1.78-3.26-.05-.05-.8.48-.84.43-.07-.08.01-1.03-.42-1.55-.79-.94-2.54-2.21-3.38-3.42-.26-.38-.08-1.07-.15-1.15-.03-.04-.78.48-.84.42s-.11-.99-.47-1.51c-1.41-2.09-3.61-4.19-5.11-5.88-1.32-1.49-3.69-2.53-3.63-4.82l-.86.87c.32-1.31-.88-1.48-1.16-1.89ZM49.57,29.23v.44l.22-.22-.22-.22ZM49.13,30.98v.44l.22-.22-.22-.22ZM48.91,31.85c-1.61-1.74-3.05,7.49-3.19,7.94-1.17,3.64-2.86,7.19-4.01,10.84,4.15-5.39,6.7-12,7.21-18.78ZM59.17,33.16v.44l.22-.22-.22-.22ZM59.99,34.72c-.19-.15-.12-1.2-.61-.46.06.56.45.97.75,1.41,3.62,5.13,21.05,16.14,27.19,19.15,1.76.86,3.74,2.01,5.69,1.73-.54-1.62-1.81-1.05-3.15-1.57-.29-.11-.31-.74-.64-.83-.58-.16-1.63.12-1.88-.02-.05-.03.44-.71.38-.81-.14-.22-3.58-1.69-4.26-2.08-5.35-3.04-15.55-10.18-19.59-13.86-.41-.37-.91-1.55-.99-1.6-.54-.42-.35,1.33-.86.87-.03-.03.03-.6-.32-.87-.52-.4-1.11-.59-1.7-1.07ZM42.36,44.96c.07-.12.24-1.37.23-1.74-1.16.53-.52,2.29-.23,1.74ZM31.68,62.72c3.79-5.79,6.42-12.57,8.72-19.06-1.26,1.48-2.44,3.13-3.71,4.6-5.42,6.21-11.16,10.86-18.21,16.08-.47.35-.62,1.42-1.46,1.82-1.11.54-2.26-.34-1.3,1.09l-11.78,5.04c3.24.14,6.5-.03,9.77-.08.54,0,1.18.54,1.78.51,5.86-.27,8.65-3.3,12.67-6.76,1.63-1.4,2.58-1.8,3.52-3.23ZM67.68,44.96c.31-.61-.28-1.17-.43-.87-.31.61.28,1.17.43.87ZM69,46.27c-.11-.12.24-.91-.22-.87-1.48,1.32.04.69.22.87,2.5,2.47,5.09,6.96,7.87,9.82,3.61,3.72,2.72,2.73,7.3,1.65.97-.23,3.93.17,1.78-1.75-.06-.06-.63.15-1.01-.08-3.63-2.21-6.62-4.34-10.18-6.54-1.35-.83-4.8-2.11-5.76-3.1ZM41.48,47.59l-.21-1.31c-.83.58-.74.94.21,1.31ZM39.74,51.52c.07-.12.24-1.37.23-1.74-1.16.53-.52,2.29-.23,1.74ZM38.65,51.96v.44l.22-.22-.22-.22ZM38,53.27c-.04.05-.31,1.07-.23,1.3,1.04-.51.58-1.74.23-1.3ZM37.12,57.2c.06-.06.19-1.37.23-1.74l-1.09,1.52c-.05.38.84.25.87.22ZM36.03,58.08v.44l.22-.22-.22-.22ZM86.25,58.95v.44l.22-.22-.22-.22ZM84.94,59.39v.44l.22-.22-.22-.22ZM79.48,61.58c-.64-.29-2.48-.03-1.74.87.07.09,2.26-.63,1.74-.87ZM77.3,62.45c-5.54,1.78-9.27,6.5-10.48,12.23l4.89-6.71,5.59-5.52ZM78.39,64.64c-.98.66-.54,1.26,0,.43.15-.22.35-.23,0-.43ZM84.28,65.5c-.69-1.35-3.41-.92-3.93.44l3.93-.44ZM32.1,65.07v.44l.22-.22-.22-.22ZM76.4,66.8c.09-.14.17-.9-.2-.85-.53.57-1.27.91-1.09,1.74.24-.28,1.25-.82,1.29-.89ZM31.66,66.38v.44l.22-.22-.22-.22ZM26.79,70.02c.27-.37,1.66-.93,1.38-1.88-1.33,1.71-3.31,2.53-5.08,3.66-2.2,1.39.48,1.47,1.79.92.97-.41,1.35-1.91,1.91-2.69ZM29.91,69v.44l.22-.22-.22-.22ZM27.95,71.62c.8.15,1.45-.48,1.31-1.31l-1.31,1.31ZM27.95,72.5c-.91-.13-.99-.04-.87.87l.87-.87ZM9.61,78.18c4.69,1.93,4.33.18,7.42-1.44.9-.47,5.56-1.2,5.67-1.83.03-.16-2.99-.61-3.14-.59-2.65.33-4.37,2.24-6.24,2.88-.72.25-3.28-.28-3.71.98ZM41.92,81.68c-3.3-3.05-5.75-2.93-8.87-4.78-.41-.24-.27-.87-.31-.9-.29-.19-.91.88-1.08.86-.33-.03-.49-1.01-.74-1.18-.18-.13-.88.21-1.37-.09-.41-.25-.14-.9-.52-.91-.13,0-1.43,1.53-1.96,1.75l18.13,9.18c-.55-1.36-1.88-2.78-2.84-3.92-.24-.29-.59-.85-.44,0ZM26.2,75.13c-.91-.13-.99-.04-.87.87l.87-.87ZM17.03,78.19c.41,1.88,3.23-.17,2.62-.88-.09-.1-1.74,1.38-2.62.88ZM21.84,79.05c1.12.9,4.01-3.12.63-.91-.21.14-1.52.19-.63.91ZM28.23,78.83c-1.37-.48-2.04-1.12-2.9.66l4.37.44c-.05-.18-1.38-1.07-1.47-1.1ZM67.25,81.24c.08-.09.65-1.79.67-2.17-.98.38-1.28,2.87-.67,2.17ZM31,79.94c-.61-.31-1.17.28-.87.43.61.31,1.17-.28.87-.43ZM10.04,81.68c.31-.61-.28-1.17-.43-.87-.31.61.28,1.17.43.87ZM13.1,80.81c-.11-.09-2.51-.39-2.18.65s3.05.12,2.18-.65ZM19.65,80.81s-.92-.17-.87.21c.68,1.19,1.36.29.87-.21ZM20.96,80.81c-.61-.31-1.17.28-.87.43.61.31,1.17-.28.87-.43ZM26.93,81.42c-1.39-.7-5.53-.06-4.65,1.12,12.17,4.83,24.19,12.48,29.42,24.98l2.89,8.68c.67-1.95,1.41-4.52,1.22-6.64-.98-11.21-8.12-17.81-16.17-23.94-.46-.35-.62-1.13-.99-1.32-.42-.22.1,1.11-.65.87-.07-1.11-.78-1.28-1.62-1.66-2.89-1.28-7.75-1.24-9.45-2.09ZM66.81,83.43c.07-.12.24-1.37.23-1.74-1.16.53-.52,2.29-.23,1.74ZM18.78,82.56c-1.21-.56-4.78-.51-3.49,1.74.1.17,3.48-.84,3.49-1.74ZM66.16,83.86v.44l.22-.22-.22-.22ZM62.88,108.78l1.31-20.1c-.82.89-1.51,3.18-1.87,4.38-.89,3.03-1.21,6.26-1.62,9.38l2.17,6.34ZM48.26,89.98v.44l.22-.22-.22-.22ZM53.06,93.92v.44l.22-.22-.22-.22ZM54.59,96.54l-.87-.87c-.13.91-.04,1,.87.87ZM56.12,97.85v.44l.22-.22-.22-.22ZM57.2,104.85c.36-.46-.69-1.53-.86-1.31-.36.46.69,1.53.86,1.31Z"/>
      <path class="cls-1" d="M41.92,81.68s.43-.03.44,0c.17.97-.35.08-.44,0Z"/>
    </g>
  </g>
</svg>