<?xml version="1.0" encoding="UTF-8"?>
<svg id="Layer_2" data-name="Layer 2" xmlns="http://www.w3.org/2000/svg" viewBox="0 0 542.02 604">
  <defs>
    <style>
      .cls-1 {
        stroke-linecap: round;
      }

      .cls-1, .cls-2, .cls-3 {
        fill: #fff;
      }

      .cls-1, .cls-3 {
        stroke-miterlimit: 10;
        stroke-width: 7px;
      }

      .cls-1, .cls-3, .cls-4 {
        stroke: #222223;
      }

      .cls-4 {
        stroke-miterlimit: 1;
        stroke-width: 5px;
      }

      .cls-4, .cls-5 {
        fill: #ebc6de;
      }

      .cls-6 {
        isolation: isolate;
      }

      .cls-7 {
        fill: #212121;
      }

      .cls-8 {
        fill: #222223;
      }
    </style>
  </defs>
  <g id="Layer_13" data-name="Layer 13">
    <g id="Frankie_back" data-name="Frankie back">
      <path class="cls-3" d="M35,240.07c-1.83-25.34.9-50.63,10.4-74.7,20.82-52.79,66.27-96.59,121.41-109.96,55.15-13.37,118.39,6.76,151.44,52.89,24.81,34.63,31.24,79.1,31.98,121.69.47,26.99,3.5,58.36-.65,84.98-2.98,19.13-13.14,41.99-11.07,61.42,2.06,19.33,21.53,36.82,38.85,43.2,12.18,4.49,25.93,5.1,38.17.75,16.79-5.97,29.79-21.52,32.69-39.1,4.22-25.61-16.64-39.84-20.22-63.07-3.81-24.76,5.73-51.16,26.55-65.83,19.7-13.89,46.82-23.2,67.71-6.46,9.62,7.71,16.43,18.7,16.25,31.32-.17,11.64-6.16,19.86-13.42,28.23,7.44-17.71,4.6-53.91-23.04-46.44-24.51,6.62-29.15,35.59-22.97,56.45,3.49,11.78,10.01,22.39,15.33,33.47,16.69,34.71,21.6,74.96,13.74,112.66-6.2,29.75-22.65,56.6-42.6,79.33-19.23,21.92-43.87,38.91-70.92,49.72-25.21,10.08-45.1,11.65-71.05,8.22-46.58-6.14-89-21-124.46-51.55-39.03-33.63-72.5-73.68-98.82-117.96-17.59-29.58-33.91-62.14-43.24-95.4-8.61-30.71-19.76-61.57-22.09-93.88Z"/>
      <g id="Face">
        <path class="cls-7" d="M95.4,198.63c-3.79,27.78,1.28,51,16.45,53.18,15.17,2.18,27.64-14.34,31.42-42.12,3.79-27.78-2.54-56.31-17.71-58.49-15.17-2.18-26.38,19.66-30.16,47.44Z"/>
        <path class="cls-7" d="M239.33,158.75c17.81,21.8,25.66,44.24,13.84,53.9-11.82,9.66-31.14,1.95-48.95-19.85-17.81-21.8-27.37-49.43-15.55-59.09,11.82-9.66,32.85,3.24,50.67,25.04Z"/>
        <path class="cls-7" d="M194.48,292.02c-19.14,5.3-33.33-33.2-33.33-33.2,16.46,1.01,31.51-3.21,45.18-12.52,0,0,7.68,40.31-11.85,45.72Z"/>
      </g>
      <path class="cls-4" d="M267.7,76.85l-37.54,15.1c-11.24,4.52-22.65-6.15-18.88-17.66l20.25-61.96c3.77-11.52,19.27-13.39,25.67-3.1l21.43,34.46c-1.76.37-3.46.97-5.05,1.78-4.61,2.33-8.32,6.42-10.04,11.68-2.31,7.06-.46,14.51,4.17,19.7ZM341.34,36.74l-37.32,15.01c4.91,5.2,6.92,12.87,4.55,20.12-1.72,5.26-5.44,9.35-10.04,11.68-1.7.86-3.52,1.49-5.41,1.84l21.19,34.06c6.4,10.29,21.9,8.42,25.67-3.1l20.25-61.96c3.77-11.52-7.64-22.19-18.88-17.66ZM304.02,51.75c-2.23-2.36-5.05-4.21-8.33-5.28l-6.76-2.21c-3.44-1.13-6.98-1.26-10.3-.57-1.76.37-3.46.97-5.05,1.78-4.61,2.33-8.32,6.42-10.04,11.68-2.31,7.06-.46,14.51,4.17,19.7,2.28,2.56,5.24,4.56,8.72,5.7l6.76,2.21c3.32,1.08,6.72,1.25,9.94.64,1.89-.35,3.71-.98,5.41-1.84,4.61-2.33,8.32-6.42,10.04-11.68,2.37-7.25.36-14.92-4.55-20.12Z"/>
    </g>
    <g id="Heart">
      <g class="cls-6">
        <path class="cls-5" d="M168.65,390.52c-2.42-2.43-5.41-3.48-8.71-3.48-8.32-8.34-16.63-16.69-24.95-25.03,3.3,0,6.28,1.05,8.71,3.48,7.48,7.51,17.46,17.52,24.95,25.03Z"/>
        <path class="cls-8" d="M203.08,352.46l24.95,25.03c-5.44-5.46-11.84-10.65-19.18-14.75-9.59-5.35-20.76-8.89-33.76-8.91-9.78,0-20.62,2-32.63,6.85-16.27,6.59-27.95,14.9-36.23,24.12-8.28,9.23-13.2,19.42-15.83,29.96-1.75,7.02-2.48,14.2-2.46,21.32.07,21.99,7.4,43.34,13.15,56.88,3.97,9.41,10.06,17.96,17.8,25.73l-24.95-25.03c-7.74-7.77-13.83-16.32-17.8-25.73-5.74-13.55-13.07-34.89-13.15-56.88-.03-7.12.7-14.3,2.46-21.32,2.63-10.54,7.55-20.72,15.83-29.96,8.28-9.23,19.95-17.53,36.23-24.12,12.01-4.86,22.85-6.86,32.63-6.85,13,.02,24.17,3.55,33.76,8.91,7.34,4.1,13.74,9.29,19.18,14.75Z"/>
        <path class="cls-5" d="M231.18,380.79c-8.32-8.34-16.63-16.69-24.95-25.03-1.02-1.11-2.07-2.22-3.17-3.32l24.95,25.03c1.09,1.1,2.15,2.2,3.17,3.32Z"/>
        <path class="cls-5" d="M121.06,475.97c1.96,4.12,4.35,7.51,6.97,10.15l-24.95-25.03c-2.62-2.63-5.01-6.03-6.97-10.15-8.19-17.19-11.22-39.54-2.57-56.45,6.24-12.21,26.93-32.49,41.45-32.48,8.32,8.34,16.63,16.69,24.95,25.03-14.52,0-35.21,20.28-41.45,32.48-8.65,16.92-5.62,39.27,2.57,56.45Z"/>
        <path class="cls-8" d="M208.08,347.55l24.95,25.03c1.77,1.77,3.44,3.57,5.01,5.36,2.48,2.83,4.71,5.66,6.71,8.39l-24.95-25.03c-2-2.73-4.24-5.55-6.71-8.39-1.57-1.79-3.24-3.59-5.01-5.36Z"/>
        <path class="cls-5" d="M244.92,399.13c-8.32-8.34-16.63-16.69-24.95-25.03-1.14-1.86-2.43-3.85-3.87-5.93-2.74-3.96-6.03-8.22-9.87-12.41,8.32,8.34,16.63,16.69,24.95,25.03,3.84,4.2,7.13,8.45,9.87,12.41,1.44,2.08,2.73,4.07,3.87,5.93Z"/>
        <path class="cls-2" d="M143.7,365.49l24.95,25.03c.96.96,1.83,2.15,2.6,3.56,1.46,2.7,2.54,6.25,3.16,10.81,1,7.42-.67,14.9-2.33,22.2-3.37,14.78-6.73,29.55-10.09,44.33-3.31,14.55-11.29,21.36-19.72,21.35-4.87,0-9.88-2.28-14.23-6.64l-24.95-25.03c4.35,4.37,9.37,6.64,14.23,6.64,8.43,0,16.41-6.8,19.72-21.35,3.37-14.78,6.73-29.55,10.09-44.33,1.66-7.29,3.33-14.78,2.33-22.2-.61-4.56-1.7-8.11-3.16-10.81-.77-1.42-1.64-2.6-2.6-3.56Z"/>
        <path class="cls-5" d="M248.97,406.24c.86,1.65,1.51,2.98,1.93,3.89l-24.95-25.03c-.42-.91-1.07-2.24-1.93-3.89-1.03-1.97-2.38-4.39-4.05-7.1,8.32,8.34,16.63,16.69,24.95,25.03,1.67,2.71,3.02,5.14,4.05,7.1Z"/>
        <path class="cls-8" d="M366.86,291.66l24.95,25.03c-7.13-7.16-15.42-13.51-24.91-18.1-9.82-4.74-20.93-7.65-33.56-7.66-11.57,0-24.46,2.42-38.79,8.22-9.12,3.7-16.42,8.22-22.26,13.3-5.84,5.09-10.24,10.71-13.54,16.65-6.59,11.87-8.77,25.08-8.72,37.36.04,11.44,2.02,22.02,4,29.74,1.85,7.22,3.71,11.94,3.96,12.56l-24.95-25.03c-.25-.63-2.11-5.35-3.96-12.56-1.98-7.72-3.95-18.3-4-29.74-.05-12.27,2.12-25.48,8.72-37.36,3.3-5.94,7.7-11.57,13.54-16.65,5.84-5.08,13.14-9.6,22.26-13.3,14.33-5.8,27.22-8.22,38.79-8.22,12.64,0,23.74,2.91,33.56,7.66,9.49,4.59,17.78,10.95,24.91,18.1Z"/>
        <path class="cls-5" d="M278.75,355.72c-.79,4.2-.78,9.25,2.13,12.17l-24.95-25.03c-2.91-2.92-2.93-7.97-2.13-12.17,1.89-9.95,5.57-16.72,14.06-22.3.28-.18.63-.39,1.03-.63,8.28,8.3,16.55,16.61,24.83,24.91-8.28-8.3-16.55-16.61-24.83-24.91,2.88-1.64,8.83-4.37,15.52-6.78,4.64-1.66,13.61-5.29,20.64-5.28,2.57,0,4.89.49,6.63,1.74.66.47,1.22.95,1.69,1.42l24.95,25.03c-.47-.47-1.03-.94-1.69-1.42-1.74-1.25-4.06-1.74-6.63-1.74-7.03,0-16,3.63-20.64,5.28-7.65,2.74-14.32,5.93-16.56,7.4-8.49,5.58-12.18,12.35-14.06,22.3Z"/>
        <path class="cls-5" d="M250.9,410.13c.22.45.37.8.47,1.03l-24.95-25.03c-.1-.22-.25-.57-.47-1.02,8.28,8.31,16.56,16.62,24.84,24.93-8.28-8.31-16.56-16.62-24.84-24.93,0,0,0,0,0,0,7.48,7.51,18.88,16.65,24.95,25.03Z"/>
        <path class="cls-5" d="M251.37,411.15c.25.59.57,1.08.95,1.46l-24.95-25.03c-.38-.38-.7-.87-.95-1.46,7.48,7.51,19.13,16.57,24.95,25.03Z"/>
        <path class="cls-8" d="M252.26,412.6l-24.95-25.03c.66.66,1.56,1.04,2.5,1.04.44,0,.9-.08,1.33-.26,1.69-.69,2.53-2.53,1.88-4.63l24.95,25.03c.65,2.1-.19,3.93-1.88,4.63-.44.18-.89.26-1.33.26-.94,0-1.84-.38-2.5-1.04Z"/>
        <path class="cls-2" d="M313.37,298.85l24.95,25.03c6.91,6.93-6.51,13.29-12.02,16.09-8,4.07-13.13,7.78-18.83,14.71-4.02,4.87-12.3,15.72-20.42,15.72-1.74,0-3.48-.5-5.16-1.67-.37-.25-.7-.53-1-.84l-24.95-25.03c.3.3.64.58,1,.84,1.68,1.16,3.42,1.66,5.16,1.67,8.12,0,16.4-10.85,20.42-15.72,5.7-6.93,10.84-10.65,18.83-14.71,5.51-2.8,18.93-9.16,12.02-16.09Z"/>
        <path class="cls-2" d="M305.06,295.71c2.57,0,4.89.49,6.63,1.74,10.43,7.46-4.46,14.5-10.34,17.49-8,4.07-13.13,7.78-18.83,14.71-4.02,4.87-12.3,15.72-20.42,15.72-1.74,0-3.48-.5-5.16-1.67-3.9-2.7-4.02-8.38-3.14-13.01,1.89-9.95,5.57-16.72,14.06-22.3,2.23-1.48,8.91-4.66,16.56-7.4,4.64-1.66,13.61-5.29,20.64-5.28Z"/>
        <path class="cls-5" d="M279.64,404.43c.58,1.08,1.2,1.95,1.87,2.61l-24.95-25.03c-.66-.66-1.29-1.53-1.87-2.61-3.46-6.49.8-21.68,9.36-21.68,8.3,8.33,16.6,16.65,24.9,24.98-8.3-8.33-16.6-16.65-24.9-24.98.86,0,1.76.15,2.71.48,1.43.5,2.58,1.22,3.46,2.11l24.95,25.03c-.88-.89-2.02-1.61-3.46-2.11-.94-.33-1.85-.48-2.71-.48-8.57,0-12.82,15.18-9.36,21.68Z"/>
        <path class="cls-2" d="M270.22,360.32l24.95,25.03c2.96,2.97,3.01,7.77,1.49,12.27-1.99,5.89-6.69,11.24-11.1,11.24-1.41,0-2.8-.55-4.05-1.81l-24.95-25.03c1.26,1.26,2.64,1.81,4.05,1.81,4.41,0,9.11-5.35,11.1-11.24,1.52-4.49,1.46-9.3-1.49-12.27Z"/>
        <path class="cls-2" d="M264.06,357.73c.86,0,1.76.15,2.71.48,6.24,2.18,6.93,8.54,4.95,14.37-1.99,5.89-6.69,11.24-11.1,11.24-2.16,0-4.25-1.29-5.92-4.42-3.46-6.49.8-21.68,9.36-21.68Z"/>
        <path class="cls-5" d="M397.31,322.61c-8.32-8.34-16.63-16.69-24.95-25.03-1.76-2.03-3.6-4.01-5.52-5.94l24.95,25.03c1.92,1.93,3.76,3.91,5.52,5.94Z"/>
        <path class="cls-5" d="M415.8,350.04c-8.32-8.34-16.63-16.69-24.95-25.03-3.52-6.69-7.92-13.93-13.24-20.95-1.66-2.19-3.41-4.35-5.25-6.47,8.32,8.34,16.63,16.69,24.95,25.03,1.84,2.12,3.59,4.29,5.25,6.47,5.33,7.02,9.73,14.26,13.24,20.95Z"/>
        <path class="cls-5" d="M391.05,494.26c-8.32-8.34-16.63-16.69-24.95-25.03,7.46-13.47,14.45-27.5,20.22-41.45,9.33-22.53,15.43-44.88,15.34-64.13-.04-9.32-1.5-17.89-4.64-25.5l24.95,25.03c3.15,7.6,4.61,16.18,4.64,25.5.09,19.25-6.01,41.6-15.34,64.13-5.77,13.95-12.76,27.98-20.22,41.45Z"/>
        <path class="cls-5" d="M383.42,507.59c-8.32-8.34-16.63-16.69-24.95-25.03,2.58-4.37,5.13-8.82,7.63-13.33,8.32,8.34,16.63,16.69,24.95,25.03-2.5,4.51-5.05,8.96-7.63,13.33Z"/>
        <path class="cls-5" d="M329.47,586.13c-8.32-8.34-16.63-16.69-24.95-25.03,1.58-1.99,3.78-4.81,6.46-8.33,5.74-7.53,13.7-18.28,22.52-31.15,7.94-11.57,16.58-24.86,24.97-39.06,6.72,6.75,13.45,13.49,20.17,20.23,1.59,1.6,3.18,3.2,4.78,4.79-8.38,14.2-17.03,27.49-24.97,39.06-8.82,12.87-16.78,23.63-22.52,31.15-2.68,3.52-4.88,6.34-6.46,8.33Z"/>
        <path class="cls-5" d="M397.02,338.15c3.15,7.6,4.61,16.18,4.64,25.5.09,19.25-6.01,41.6-15.34,64.13-13.98,33.82-35.15,68.09-52.82,93.84-8.82,12.87-16.78,23.63-22.52,31.15-2.87,3.76-5.19,6.72-6.78,8.73-.52.66-.97,1.21-1.33,1.66-9.44-.74-54.49-4.81-102.42-17.47-26.17-6.9-53.18-16.39-75.67-29.17-11.24-6.39-21.34-13.6-29.64-21.67-8.32-8.08-14.83-17.02-19-26.91-5.74-13.55-13.07-34.89-13.15-56.88-.03-7.12.7-14.3,2.46-21.32,2.63-10.54,7.55-20.73,15.83-29.96,8.28-9.23,19.95-17.53,36.23-24.12,12.01-4.86,22.85-6.86,32.63-6.85,13,.02,24.17,3.55,33.76,8.91,14.38,8.03,25.11,20.23,32.2,30.46,3.54,5.12,6.18,9.72,7.92,13.03.86,1.65,1.51,2.98,1.93,3.89.22.45.37.8.47,1.03.7,1.67,2.01,2.49,3.39,2.49.44,0,.9-.08,1.33-.26,1.69-.69,2.53-2.53,2.02-4.23-.39-1.02-2.25-5.74-4.1-12.96-1.98-7.72-3.96-18.3-4-29.74-.05-12.27,2.12-25.48,8.72-37.36,3.3-5.94,7.7-11.57,13.54-16.65,5.84-5.08,13.14-9.6,22.26-13.3,14.33-5.8,27.22-8.22,38.79-8.22,12.64,0,23.74,2.91,33.56,7.66,14.72,7.12,26.54,18.48,35.66,30.5,9.11,12.01,15.51,24.65,19.41,34.1ZM147.14,402.06c1.66-7.29,3.33-14.78,2.33-22.2-.61-4.56-1.7-8.11-3.16-10.81-2.71-5-6.7-7.04-11.31-7.05-14.52,0-35.2,20.28-41.45,32.48-8.65,16.92-5.62,39.27,2.57,56.45,5.22,10.94,13.41,16.79,21.21,16.79,8.43,0,16.41-6.8,19.72-21.35,3.37-14.78,6.73-29.55,10.09-44.33M301.35,314.94c5.88-2.99,20.77-10.03,10.34-17.49-1.74-1.25-4.06-1.74-6.63-1.74-7.03,0-16,3.63-20.64,5.28-7.65,2.74-14.32,5.93-16.56,7.4-8.49,5.58-12.18,12.35-14.06,22.3-.88,4.64-.76,10.31,3.14,13.01,1.68,1.16,3.42,1.66,5.16,1.67,8.12,0,16.4-10.85,20.42-15.72,5.7-6.93,10.84-10.65,18.83-14.71M271.72,372.59c1.97-5.83,1.29-12.19-4.95-14.37-.94-.33-1.85-.48-2.71-.48-8.57,0-12.82,15.18-9.36,21.68,1.67,3.13,3.76,4.42,5.92,4.42,4.41,0,9.11-5.35,11.1-11.24"/>
        <path class="cls-2" d="M135,362.01c4.61,0,8.6,2.05,11.31,7.05,1.46,2.7,2.54,6.25,3.16,10.81,1,7.42-.67,14.9-2.33,22.2-3.37,14.78-6.73,29.55-10.09,44.33-3.31,14.55-11.29,21.36-19.72,21.35-7.8,0-15.99-5.85-21.21-16.79-8.19-17.19-11.22-39.54-2.57-56.45,6.24-12.21,26.92-32.49,41.45-32.48Z"/>
        <path class="cls-5" d="M415.8,350.04c2.5,4.75,4.55,9.22,6.17,13.14l-24.95-25.03c-1.62-3.92-3.67-8.4-6.17-13.14,5.48,5.5,10.95,10.99,16.43,16.49,1.42,1.42,2.83,2.84,4.25,4.26.17.17.39.39.56.56s.39.39.56.56c.89.89,1.77,1.78,2.66,2.67.15.15.37.33.49.49Z"/>
        <path class="cls-8" d="M371.82,286.72l24.95,25.03c.26.26.53.53.79.8,15.5,15.86,25.45,34.81,30.91,48l-24.95-25.03c-5.46-13.19-15.41-32.14-30.91-48-.26-.27-.52-.53-.79-.8Z"/>
        <path class="cls-5" d="M329.03,586.69c-8.32-8.34-16.63-16.69-24.95-25.03.04-.05.08-.1.13-.16.1-.13.21-.26.32-.4,8.32,8.34,16.63,16.69,24.95,25.03-.11.14-.22.27-.32.4-.04.05-.08.11-.13.16Z"/>
        <path class="cls-5" d="M120.09,519.88c-.4-.39-.8-.79-1.2-1.18l-24.95-25.03c.4.4.79.79,1.2,1.18,8.31,8.07,18.41,15.28,29.64,21.67,22.48,12.78,49.49,22.27,75.67,29.17,47.93,12.66,92.98,16.72,102.42,17.47l24.95,25.03c-9.44-.74-54.49-4.81-102.42-17.47-26.17-6.9-53.18-16.39-75.67-29.17-11.24-6.39-21.34-13.6-29.64-21.67Z"/>
        <path class="cls-5" d="M329.03,586.69c-.47.59-.87,1.09-1.2,1.5l-24.95-25.03c.33-.41.73-.91,1.2-1.5,8.32,8.34,16.63,16.69,24.95,25.03Z"/>
        <path class="cls-8" d="M113.91,523.6l-24.95-25.03c.56.57,1.14,1.13,1.72,1.68,15.84,15.24,37.09,27.09,60.05,36.45,34.43,14.02,72.75,22.38,102.5,27.28,29.75,4.89,50.94,6.3,51.25,6.31l24.95,25.03c-.3-.02-21.49-1.42-51.25-6.31-29.75-4.9-68.07-13.26-102.5-27.28-22.96-9.36-44.2-21.21-60.05-36.45-.58-.56-1.15-1.12-1.72-1.68Z"/>
        <path class="cls-8" d="M403.51,335.51l24.95,25.03c3.57,8.62,5.14,18.12,5.18,28.14.06,20.73-6.35,43.78-15.87,66.83-9.53,23.04-22.21,46.08-34.89,66.58-25.35,41-50.68,71.89-50.74,71.96l-24.95-25.03c.06-.07,25.39-30.95,50.74-71.96,12.68-20.51,25.35-43.54,34.89-66.58,9.52-23.05,15.93-46.1,15.87-66.83-.04-10.02-1.61-19.52-5.18-28.14Z"/>
        <path class="cls-8" d="M307.19,569.02l24.95,25.03c-.66.82-1.68,1.28-2.72,1.28l-24.95-25.03c1.04,0,2.05-.47,2.72-1.28Z"/>
        <path class="cls-8" d="M403.51,335.51c3.57,8.62,5.14,18.12,5.18,28.14.06,20.73-6.35,43.78-15.87,66.83-9.53,23.04-22.21,46.08-34.89,66.58-25.35,41-50.68,71.89-50.74,71.96-.66.82-1.68,1.28-2.72,1.28-.3-.02-21.49-1.42-51.25-6.31-29.75-4.9-68.07-13.26-102.5-27.28-22.96-9.36-44.2-21.21-60.05-36.45-9.05-8.7-16.32-18.53-21.01-29.62-5.91-14.01-13.59-36.08-13.69-59.58-.04-11.41,1.72-23.18,6.43-34.44,4.7-11.26,12.37-21.98,23.93-31.2,7.7-6.16,17.11-11.64,28.51-16.26,12.75-5.15,24.52-7.37,35.27-7.36,14.3,0,26.74,3.95,37.2,9.81,10.48,5.86,19.02,13.62,25.77,21.31,2.48,2.83,4.71,5.66,6.71,8.39-1.01-6-1.73-12.75-1.76-19.88-.04-9.82,1.25-20.39,4.99-30.65,3.74-10.26,9.97-20.22,19.68-28.64,6.46-5.62,14.46-10.55,24.22-14.49,15.05-6.1,28.86-8.75,41.43-8.74,13.76,0,25.97,3.2,36.64,8.37,10.69,5.17,19.85,12.32,27.6,20.25,15.5,15.86,25.45,34.81,30.91,48ZM386.32,427.78c9.33-22.53,15.43-44.88,15.34-64.13-.04-9.32-1.5-17.89-4.64-25.5-3.9-9.45-10.3-22.09-19.41-34.1-9.12-12.02-20.94-23.38-35.66-30.5-9.82-4.74-20.93-7.65-33.56-7.66-11.57,0-24.46,2.42-38.79,8.22-9.12,3.7-16.42,8.22-22.26,13.3-5.84,5.09-10.24,10.71-13.54,16.65-6.59,11.87-8.77,25.08-8.72,37.36.04,11.44,2.02,22.02,4,29.74,1.85,7.22,3.71,11.94,3.96,12.56.65,2.1-.19,3.93-1.88,4.63-.44.18-.89.26-1.33.26-1.38,0-2.69-.81-3.25-2.16-.24-.55-.39-.9-.61-1.35-.42-.91-1.07-2.24-1.93-3.89-1.74-3.31-4.38-7.92-7.92-13.03-7.09-10.23-17.82-22.43-32.2-30.46-9.59-5.35-20.76-8.89-33.76-8.91-9.78,0-20.62,2-32.63,6.85-16.27,6.59-27.95,14.9-36.23,24.12-8.28,9.23-13.2,19.42-15.83,29.96-1.75,7.02-2.48,14.2-2.46,21.32.07,21.99,7.4,43.34,13.15,56.88,4.18,9.89,10.69,18.83,19,26.91,8.31,8.07,18.41,15.28,29.64,21.67,22.48,12.78,49.49,22.27,75.67,29.17,47.93,12.66,92.98,16.72,102.42,17.47.36-.45.8-1,1.33-1.66,1.59-2.01,3.91-4.97,6.78-8.73,5.74-7.52,13.7-18.28,22.52-31.15,17.66-25.74,38.83-60.02,52.82-93.84"/>
      </g>
    </g>
    <g id="Frankie_Front" data-name="Frankie Front">
      <path class="cls-3" d="M5.79,364.13c2.47,7.57,7.02,14.86,14,21.26,22.59,20.72,61.95,14.92,81.44-7.31,25.58-29.18-1.19-74.19-36.07-80.31-40.05-7.03-70.41,32.55-59.37,66.36Z"/>
      <path class="cls-1" d="M329.31,266.69c-4.27,9.71-6.34,20.48-6.13,30.27.36,17.18,8.35,34.88,23.19,43.55,24.37,14.25,53.27-5.77,63.86-28.19,10.48-22.2,12.1-51.55-10.05-67.38-13.42-9.59-28.15-8.62-43.06-4.15-13.76,4.13-21.88,12.42-27.79,25.89Z"/>
    </g>
  </g>
</svg>