<?xml version="1.0" encoding="UTF-8"?>
<svg id="Layer_2" data-name="Layer 2" xmlns="http://www.w3.org/2000/svg" viewBox="0 0 1218.36 1400">
  <defs>
    <style>
      .cls-1 {
        fill: #000;
        stroke-width: 0px;
      }
    </style>
  </defs>
  <g id="Layer_1-2" data-name="Layer 1">
    <path class="cls-1" d="M1218.31,359.11c0-1.23-.25-2.4-.45-3.6-.08-.49-.06-.99-.2-1.49-.9-3.75-2.77-7.18-5.39-9.98-.36-.37-.79-.65-1.17-.98-.87-.8-1.7-1.63-2.7-2.29-.2-.14-.45-.2-.65-.32-.17-.09-.26-.22-.41-.31L620.5,3.18c-.52-.32-1.08-.55-1.61-.83-.43-.21-.83-.43-1.28-.61-.38-.16-.73-.33-1.12-.47-.2-.08-.41-.1-.61-.16-.42-.15-.85-.25-1.28-.36-.36-.09-.69-.21-1.07-.29-.22-.04-.46-.1-.68-.13-.47-.08-.94-.1-1.41-.14-.73-.08-1.45-.18-2.19-.19h-.06s-.06.01-.11.01c-.63,0-1.25.1-1.88.16-.6.04-1.2.06-1.78.17-.24.03-.44.09-.67.13-.26.05-.5.15-.77.21-.42.11-.82.22-1.24.34-.32.11-.64.15-.95.27-.41.14-.79.33-1.2.5-.31.13-.61.28-.92.44-.62.29-1.26.58-1.85.94L10.99,340.15c-.17.08-.28.25-.46.35-.18.12-.41.16-.59.29-.91.59-1.66,1.37-2.45,2.07-.49.43-1.04.78-1.47,1.24-1.22,1.3-2.27,2.73-3.16,4.29-.05.11-.15.18-.2.29-.91,1.67-1.56,3.45-2.01,5.31-.15.59-.15,1.22-.24,1.82-.17,1.1-.42,2.18-.42,3.31v679.95c0,.06,0,.14,0,.18,0,.49.08.98.12,1.47.02.41.07.81.13,1.22.05.38.05.77.12,1.15.14.77.4,1.51.62,2.25h0c.09.29.15.6.25.89.05.16.08.32.14.49.44,1.15.96,2.29,1.6,3.36.05.1.13.18.18.27.01.02.02.05.04.08.06.12.18.21.26.32.01.02.02.03.03.05.51.8,1.04,1.59,1.66,2.34.22.26.48.47.72.73.28.27.56.57.85.83.37.35.69.75,1.1,1.1.46.4.98.67,1.5,1.05.32.22.63.48.97.69.22.14.43.3.66.45h0l587.2,339s.04.04.06.06c3.39,1.96,7.16,2.93,10.94,2.93h.02c3.77,0,7.54-.97,10.94-2.93.02-.02.04-.04.06-.06l587.21-339h.02c.23-.15.41-.3.63-.43.38-.25.72-.51,1.12-.77.47-.34.96-.64,1.41-.99.36-.32.67-.68,1.03-1.04.32-.3.66-.63.96-.94.21-.25.48-.45.68-.71.17-.19.27-.42.45-.62.41-.53.78-1.11,1.14-1.66.1-.16.22-.27.31-.42.02-.03.02-.07.06-.12.75-1.28,1.4-2.65,1.9-4.07.11-.31.17-.64.23-.95.16-.48.28-.95.41-1.42.04-.26.16-.49.21-.74.07-.4.08-.8.14-1.19.05-.45.12-.9.14-1.35.04-.43.11-.85.11-1.28,0-.11.02-.19.02-.26V359.11h-.04ZM51.42,1021.08L233.7,503.19l334.52,589.7L51.42,1021.08ZM609.13,1076.35L266.59,472.5h685.12l-342.58,603.85ZM940.65,428.74H277.66L609.16,54.88l331.49,373.86ZM650.03,1092.92l334.58-589.72,182.31,517.87-516.88,71.84ZM1174.56,911.05l-157.92-448.61,157.92-69.76v518.37ZM995.06,424.15L714.34,107.53l433.71,249.05-153,67.57ZM201.67,462.44L43.76,911.04V392.68l157.91,69.76ZM587.26,1139.74v200.49l-457.37-264.06,457.37,63.57ZM631.03,1139.73l457.38-63.56-457.38,264.06v-200.5ZM223.25,424.15l-153-67.59L504.04,107.47,223.25,424.15Z"/>
  </g>
</svg>